<svg xmlns="http://www.w3.org/2000/svg" fill="none" viewBox="0 0 24 24" width="1em" height="1em"><path fill="currentColor" fill-rule="evenodd" d="M2.277 7.934a6.75 6.75 0 0 0 4.398 11.513.75.75 0 0 0 .083-1.498 5.25 5.25 0 0 1-3.42-8.954l2.828-2.829a5.25 5.25 0 1 1 7.425 7.425l-1.414 1.414a.75.75 0 1 0 1.06 1.06l1.415-1.413a6.75 6.75 0 0 0-9.546-9.546z" clip-rule="evenodd"/><path fill="currentColor" d="M10.409 17.834a5.25 5.25 0 0 1 0-7.425l1.414-1.414a.75.75 0 0 0-1.06-1.06L9.348 9.347a6.75 6.75 0 0 0 9.546 9.546l2.829-2.828a6.75 6.75 0 0 0-4.398-11.513.75.75 0 1 0-.083 1.498 5.25 5.25 0 0 1 3.42 8.954l-2.828 2.829a5.25 5.25 0 0 1-7.425 0" opacity=".5"/></svg>