<svg width="24" height="24" viewBox="0 0 24 24" fill="none" xmlns="http://www.w3.org/2000/svg">
<path d="M12 22C7.28595 22 4.92893 22 3.46447 20.5355C2 19.0711 2 16.714 2 12C2 7.28595 2 4.92893 3.46447 3.46447C4.92893 2 7.28595 2 12 2C16.714 2 19.0711 2 20.5355 3.46447C22 4.92893 22 7.28595 22 12C22 16.714 22 19.0711 20.5355 20.5355C19.0711 22 16.714 22 12 22Z" stroke="#1C274C" stroke-width="1.5"/>
<path d="M5.5 8.7572C5.5 6.95823 7.067 5.49988 9 5.49988C10.933 5.49988 12.5 6.95823 12.5 8.7572C12.5 10.5421 11.3829 12.6248 9.64003 13.3697C9.23374 13.5433 8.76626 13.5433 8.35997 13.3697C6.61708 12.6248 5.5 10.5421 5.5 8.7572Z" stroke="#1C274C" stroke-width="1.5"/>
<path d="M14.0004 13.9998L20.5004 20.4998M14.0004 13.9998L6.39453 21.6057M14.0004 13.9998L21.6072 6.39307" stroke="#1C274C" stroke-width="1.5" stroke-linecap="round"/>
<path d="M10 9C10 9.55228 9.55228 10 9 10C8.44772 10 8 9.55228 8 9C8 8.44772 8.44772 8 9 8C9.55228 8 10 8.44772 10 9Z" fill="#1C274C"/>
</svg>
