<svg xmlns="http://www.w3.org/2000/svg" fill="none" viewBox="0 0 24 24" width="1em" height="1em"><path fill="currentColor" fill-rule="evenodd" d="M12 22c5.523 0 10-4.477 10-10S17.523 2 12 2 2 6.477 2 12s4.477 10 10 10m0-6a4 4 0 1 0 0-8 4 4 0 0 0 0 8" clip-rule="evenodd" opacity=".5"/><path fill="currentColor" d="m5.48 19.582 4.272-4.273a4 4 0 0 1-1.06-1.06L4.417 18.52q.492.57 1.061 1.06M4.418 5.479l4.273 4.273a4 4 0 0 1 1.06-1.06L5.48 4.417q-.57.492-1.06 1.061m9.828 3.213 4.273-4.273q.57.492 1.06 1.061L15.31 9.752a4 4 0 0 0-1.06-1.06m5.332 9.828-4.273-4.272a4 4 0 0 1-1.06 1.06l4.272 4.273q.57-.49 1.06-1.06"/></svg>