<svg width="24" height="24" viewBox="0 0 24 24" fill="none" xmlns="http://www.w3.org/2000/svg">
<path opacity="0.5" d="M11.9993 2C16.7133 2 19.0704 2 20.5348 3.46447C21.2923 4.22195 21.658 5.21824 21.8345 6.65598V10H2.16406V6.65598C2.3406 5.21824 2.70628 4.22195 3.46377 3.46447C4.92823 2 7.28525 2 11.9993 2Z" fill="#1C274C"/>
<path fill-rule="evenodd" clip-rule="evenodd" d="M2.54497 8.73005C2 9.79961 2 11.1997 2 14C2 16.8003 2 18.2004 2.54497 19.27C3.02433 20.2108 3.78924 20.9757 4.73005 21.455C5.79961 22 7.19974 22 10 22H14C16.8003 22 18.2004 22 19.27 21.455C20.2108 20.9757 20.9757 20.2108 21.455 19.27C22 18.2004 22 16.8003 22 14C22 11.1997 22 9.79961 21.455 8.73005C20.9757 7.78924 20.2108 7.02433 19.27 6.54497C18.2004 6 16.8003 6 14 6H10C7.19974 6 5.79961 6 4.73005 6.54497C3.78924 7.02433 3.02433 7.78924 2.54497 8.73005ZM12.5857 10.5315C12.4433 10.3536 12.2279 10.25 12 10.25C11.7722 10.25 11.5567 10.3536 11.4144 10.5315L9.41438 13.0315C9.15562 13.3549 9.20806 13.8269 9.53151 14.0857C9.85495 14.3444 10.3269 14.292 10.5857 13.9685L11.25 13.1381V17C11.25 17.4142 11.5858 17.75 12 17.75C12.4142 17.75 12.75 17.4142 12.75 17V13.1381L13.4144 13.9685C13.6731 14.292 14.1451 14.3444 14.4685 14.0857C14.792 13.8269 14.8444 13.3549 14.5857 13.0315L12.5857 10.5315Z" fill="#1C274C"/>
</svg>
