<svg xmlns="http://www.w3.org/2000/svg" fill="none" viewBox="0 0 24 24" width="1em" height="1em"><circle cx="5" cy="5" r="3" fill="currentColor" opacity=".5"/><circle cx="19" cy="19" r="3" fill="currentColor" opacity=".5"/><path fill="currentColor" fill-rule="evenodd" d="M10.25 5a.75.75 0 0 1 .75-.75h5.132c2.751 0 3.797 3.593 1.476 5.07L7.197 15.945c-1.055.672-.58 2.305.671 2.305h3.321l-.22-.22a.75.75 0 0 1 1.061-1.06l1.5 1.5a.75.75 0 0 1 0 1.06l-1.5 1.5a.75.75 0 0 1-1.06-1.06l.22-.22H7.867c-2.751 0-3.797-3.593-1.476-5.07l10.411-6.625c1.055-.672.58-2.305-.671-2.305H11a.75.75 0 0 1-.75-.75" clip-rule="evenodd"/></svg>