<svg width="24" height="24" viewBox="0 0 24 24" fill="none" xmlns="http://www.w3.org/2000/svg">
<path d="M3.02907 13.0781C2.7032 12.3963 2.7032 11.6037 3.02907 10.9219C3.16997 10.6271 3.41023 10.3452 3.89076 9.78133C4.08201 9.55691 4.17764 9.4447 4.25796 9.32485C4.44209 9.05014 4.56988 8.74163 4.63393 8.41718C4.66188 8.27564 4.6736 8.12868 4.69706 7.83475C4.75599 7.09625 4.78546 6.72699 4.89427 6.41893C5.14594 5.7064 5.7064 5.14594 6.41893 4.89427C6.72699 4.78546 7.09625 4.75599 7.83475 4.69706C8.12868 4.6736 8.27564 4.66188 8.41718 4.63393C8.74163 4.56988 9.05014 4.44209 9.32485 4.25796C9.4447 4.17764 9.55691 4.08201 9.78133 3.89076C10.3452 3.41023 10.6271 3.16997 10.9219 3.02907C11.6037 2.7032 12.3963 2.7032 13.0781 3.02907C13.3729 3.16997 13.6548 3.41023 14.2187 3.89076C14.4431 4.08201 14.5553 4.17764 14.6752 4.25796C14.9499 4.44209 15.2584 4.56988 15.5828 4.63393C15.7244 4.66188 15.8713 4.6736 16.1653 4.69706C16.9038 4.75599 17.273 4.78546 17.5811 4.89427C18.2936 5.14594 18.8541 5.7064 19.1058 6.41893M4.89427 17.5811C5.14594 18.2936 5.7064 18.8541 6.41893 19.1058C6.72699 19.2146 7.09625 19.244 7.83475 19.303C8.12868 19.3264 8.27564 19.3381 8.41718 19.3661C8.74163 19.4301 9.05014 19.5579 9.32485 19.7421C9.44469 19.8224 9.55691 19.918 9.78133 20.1093C10.3452 20.5898 10.6271 20.8301 10.9219 20.971C11.6037 21.2968 12.3963 21.2968 13.0781 20.971C13.3729 20.8301 13.6548 20.5898 14.2187 20.1093C14.4431 19.918 14.5553 19.8224 14.6752 19.7421C14.9499 19.5579 15.2584 19.4301 15.5828 19.3661C15.7244 19.3381 15.8713 19.3264 16.1653 19.303C16.9038 19.244 17.273 19.2146 17.5811 19.1058C18.2936 18.8541 18.8541 18.2936 19.1058 17.5811C19.2146 17.273 19.244 16.9038 19.303 16.1653C19.3264 15.8713 19.3381 15.7244 19.3661 15.5828C19.4301 15.2584 19.5579 14.9499 19.7421 14.6752C19.8224 14.5553 19.918 14.4431 20.1093 14.2187C20.5898 13.6548 20.8301 13.3729 20.971 13.0781C21.2968 12.3963 21.2968 11.6037 20.971 10.9219" stroke="#1C274C" stroke-width="1.5" stroke-linecap="round"/>
<path d="M9 15L15 9" stroke="#1C274C" stroke-width="1.5" stroke-linecap="round"/>
<path d="M15.5 14.5C15.5 15.0523 15.0523 15.5 14.5 15.5C13.9477 15.5 13.5 15.0523 13.5 14.5C13.5 13.9477 13.9477 13.5 14.5 13.5C15.0523 13.5 15.5 13.9477 15.5 14.5Z" fill="#1C274C"/>
<path d="M10.5 9.5C10.5 10.0523 10.0523 10.5 9.5 10.5C8.94772 10.5 8.5 10.0523 8.5 9.5C8.5 8.94772 8.94772 8.5 9.5 8.5C10.0523 8.5 10.5 8.94772 10.5 9.5Z" fill="#1C274C"/>
</svg>
