<svg xmlns="http://www.w3.org/2000/svg" fill="none" viewBox="0 0 24 24" width="1em" height="1em"><path stroke="currentColor" stroke-width="1.5" d="M3.34 17c2.761 4.783 8.877 6.422 13.66 3.66a9.96 9.96 0 0 0 4.197-4.731A9.99 9.99 0 0 0 20.66 7a9.99 9.99 0 0 0-7.464-4.929A9.96 9.96 0 0 0 7 3.34C2.217 6.1.58 12.217 3.34 17Z"/><path stroke="currentColor" stroke-width="1.5" d="M13.196 2.071S12.964 5.67 15.464 10s5.733 5.929 5.733 5.929M2.803 8.07S6.036 9.67 8.536 14s2.268 7.929 2.268 7.929" opacity=".5"/></svg>