<svg xmlns="http://www.w3.org/2000/svg" fill="none" viewBox="0 0 24 24" width="1em" height="1em"><path fill="currentColor" fill-rule="evenodd" d="M12.45 2.76a9.2 9.2 0 0 0-5.075 1.23 9.2 9.2 0 0 0-3.602 3.78c.365.234.865.584 1.441 1.067 1.177.988 2.67 2.536 3.971 4.788 1.3 2.252 1.894 4.32 2.161 5.833.13.74.184 1.35.203 1.782a9.2 9.2 0 0 0 5.076-1.23 9.2 9.2 0 0 0 3.603-3.78 14 14 0 0 1-1.443-1.067c-1.176-.988-2.67-2.536-3.97-4.788s-1.894-4.32-2.161-5.833a14 14 0 0 1-.203-1.782m1.515.2c.025.35.073.797.166 1.321.242 1.37.783 3.266 1.982 5.344 1.2 2.078 2.572 3.495 3.637 4.389.408.342.77.608 1.06.804a9.23 9.23 0 0 0-.8-7.443 9.23 9.23 0 0 0-6.045-4.414m-3.93 18.079c-.025-.35-.073-.796-.166-1.32-.242-1.37-.783-3.266-1.983-5.344S5.315 10.88 4.25 9.986c-.408-.342-.77-.608-1.06-.804a9.23 9.23 0 0 0 .8 7.443 9.23 9.23 0 0 0 6.045 4.414M6.625 2.69a10.7 10.7 0 0 1 6.661-1.363 10.74 10.74 0 0 1 8.024 5.298 10.74 10.74 0 0 1 .577 9.598 10.7 10.7 0 0 1-4.512 5.087C12.233 24.278 5.66 22.517 2.69 17.375-.278 12.233 1.483 5.659 6.625 2.69" clip-rule="evenodd"/></svg>