<svg width="24" height="24" viewBox="0 0 24 24" fill="none" xmlns="http://www.w3.org/2000/svg">
<path fill-rule="evenodd" clip-rule="evenodd" d="M16.4828 3.5899L16.8446 4.01841C17.2403 4.48693 17.309 4.54622 17.3792 4.58111C17.4512 4.61694 17.5447 4.63646 18.1636 4.67268L18.7288 4.70576C19.6556 4.75996 20.4331 4.80544 21.0174 4.92478C21.6174 5.04733 22.2297 5.28837 22.5597 5.91011C22.8948 6.5414 22.736 7.17996 22.4831 7.73177C22.2397 8.26269 21.821 8.90039 21.3265 9.65365L21.0213 10.1184C20.6864 10.6287 20.6582 10.7002 20.6488 10.7609C20.6393 10.8219 20.6446 10.8992 20.8088 11.4881L20.9417 11.9646L20.9584 12.0245C21.2009 12.8941 21.4061 13.6299 21.4768 14.2101C21.5502 14.8123 21.5083 15.4701 20.9964 15.9694C20.4919 16.4615 19.8341 16.5022 19.2261 16.4343C18.6336 16.3681 17.8795 16.1721 16.9806 15.9384L16.9229 15.9234L16.4324 15.7959C15.8318 15.6399 15.7371 15.6298 15.6581 15.6417C15.5817 15.6532 15.4991 15.6878 14.9801 16.0123L14.5053 16.3091C13.7301 16.7938 13.0773 17.2019 12.5346 17.4392C11.9716 17.6854 11.3383 17.8334 10.7098 17.5209C10.2175 17.276 9.95266 16.8606 9.79744 16.407C6.5946 17.6092 3.94039 19.7591 3.03645 22.2554C2.92052 22.5755 2.60351 22.7774 2.2644 22.7471C1.92528 22.7167 1.64916 22.4617 1.59193 22.1261C0.958107 18.4091 1.24404 15.4409 2.13212 13.0987C2.99402 10.8255 4.40735 9.1844 6.01447 8.04186C6.2208 7.56901 6.6341 7.25706 7.05671 7.02372C7.57375 6.73823 8.29851 6.46676 9.15949 6.14427L9.68717 5.9466C10.2666 5.72953 10.3415 5.68552 10.3913 5.63689C10.4383 5.59105 10.4807 5.52511 10.7023 4.96033L10.882 4.50218C10.8896 4.4829 10.8971 4.46369 10.9047 4.44454C11.2327 3.60834 11.5104 2.90021 11.8037 2.39413C12.1102 1.86534 12.5369 1.37418 13.2373 1.26893C13.9311 1.16469 14.4887 1.50066 14.9493 1.9076C15.3938 2.30031 15.8915 2.88965 16.4828 3.5899ZM6.25196 9.7541C5.13209 10.7002 4.1664 11.9644 3.53468 13.6305C2.93744 15.2056 2.62876 17.1667 2.79441 19.5951C4.34402 17.4965 6.84753 15.8674 9.53566 14.9057C9.50513 14.5622 9.48051 14.1862 9.45407 13.7824L9.41782 13.2292C9.37814 12.6237 9.3578 12.5469 9.32641 12.4878C9.29308 12.425 9.23406 12.3593 8.74854 11.9746L8.30629 11.6241C7.58404 11.0519 6.97648 10.5705 6.57098 10.1398C6.45801 10.0198 6.34885 9.89147 6.25196 9.7541ZM11.0594 15.076C11.0179 14.6959 10.9861 14.2219 10.9468 13.6227L10.9146 13.1311C10.9125 13.0982 10.9104 13.0653 10.9083 13.0325C10.8805 12.5927 10.8534 12.1652 10.6514 11.7845C10.4511 11.4073 10.113 11.1405 9.75954 10.8617C9.73314 10.8408 9.70664 10.8199 9.68012 10.7989L9.28543 10.4862C8.50294 9.86613 7.98411 9.45252 7.66312 9.11157C7.35226 8.78138 7.37993 8.67737 7.38199 8.66964C7.38218 8.66301 7.38532 8.55574 7.78176 8.33685C8.19042 8.11121 8.80948 7.87719 9.74272 7.52759L10.2134 7.35127C10.2451 7.33939 10.2767 7.32762 10.3083 7.31588C10.729 7.15929 11.1329 7.00898 11.4388 6.71062C11.7473 6.40965 11.903 6.0102 12.0627 5.60036C12.0746 5.56967 12.0866 5.53892 12.0987 5.50814L12.2784 5.04999C12.6353 4.14043 12.8726 3.54134 13.1015 3.14627C13.3183 2.77226 13.4285 2.75676 13.458 2.7526C13.4588 2.75249 13.4596 2.75238 13.4602 2.75228C13.494 2.74718 13.6137 2.72911 13.9562 3.03173C14.3081 3.3426 14.735 3.84518 15.3755 4.60362L15.6986 4.98621C15.7199 5.01141 15.741 5.03656 15.7621 5.06161C16.0521 5.40637 16.3268 5.73302 16.7113 5.9242C17.0939 6.11449 17.5214 6.13868 17.9763 6.16442C18.0094 6.16629 18.0426 6.16817 18.076 6.17012L18.5818 6.19972C19.5837 6.25836 20.2517 6.29934 20.7172 6.39443C21.1692 6.48675 21.2233 6.59119 21.2341 6.61204C21.2344 6.61252 21.2346 6.61296 21.2348 6.61335C21.2349 6.61364 21.2352 6.61404 21.2355 6.61456C21.2436 6.6277 21.2984 6.71642 21.1195 7.10675C20.9295 7.52118 20.5764 8.06296 20.0384 8.88248L19.7674 9.29526C19.749 9.3233 19.7305 9.35126 19.7121 9.37919C19.47 9.74615 19.2326 10.1059 19.1666 10.5306C19.1007 10.955 19.2175 11.3702 19.3367 11.7941C19.3458 11.8263 19.3549 11.8587 19.3639 11.891L19.4968 12.3675C19.7605 13.3133 19.9326 13.9382 19.9878 14.3915C20.04 14.8199 19.9601 14.8864 19.9498 14.895C19.9495 14.8953 19.9492 14.8955 19.949 14.8957C19.9487 14.896 19.9483 14.8963 19.9479 14.8967C19.9327 14.912 19.8503 14.9947 19.3927 14.9435C18.9205 14.8908 18.2721 14.7242 17.3002 14.4717L16.8097 14.3442C16.7773 14.3357 16.745 14.3273 16.7129 14.3189C16.2722 14.2034 15.8576 14.0948 15.4352 14.1583C15.0103 14.2222 14.6489 14.4491 14.2684 14.6881C14.2407 14.7055 14.2129 14.7229 14.1849 14.7404L13.7613 15.0053C12.9213 15.5304 12.3627 15.8773 11.9337 16.0648C11.5169 16.2471 11.4097 16.1937 11.3785 16.1782C11.3779 16.1779 11.3766 16.1772 11.3759 16.1769C11.3477 16.1631 11.2467 16.1137 11.1533 15.6891C11.1434 15.644 11.134 15.5969 11.1251 15.5477C11.1472 15.4302 11.1414 15.3058 11.1029 15.1838C11.091 15.1462 11.0764 15.1102 11.0594 15.076Z" fill="#1C274C"/>
</svg>
