<svg xmlns="http://www.w3.org/2000/svg" fill="none" viewBox="0 0 24 24" width="1em" height="1em"><path fill="currentColor" fill-rule="evenodd" d="M14.222 21H9.778c-3.121 0-4.682 0-5.803-.735A4.4 4.4 0 0 1 2.75 19.06C2 17.96 2 16.428 2 13.364s0-4.597.749-5.697a4.4 4.4 0 0 1 1.226-1.204c.72-.473 1.622-.642 3.003-.702.659 0 1.226-.49 1.355-1.125A2.064 2.064 0 0 1 10.366 3h3.268c.988 0 1.839.685 2.033 1.636.129.635.696 1.125 1.355 1.125 1.38.06 2.282.23 3.003.702.485.318.902.727 1.226 1.204.749 1.1.749 2.632.749 5.697s0 4.596-.749 5.697a4.4 4.4 0 0 1-1.226 1.204C18.904 21 17.343 21 14.222 21m-6.388-7.637c0-2.259 1.865-4.09 4.166-4.09s4.167 1.831 4.167 4.09S14.3 17.454 12 17.454s-4.166-1.831-4.166-4.09m1.666 0c0-1.355 1.12-2.454 2.5-2.454s2.5 1.099 2.5 2.454-1.12 2.455-2.5 2.455-2.5-1.099-2.5-2.455m7.222-3.272c0-.452.373-.819.834-.819h1.11c.461 0 .834.367.834.819a.826.826 0 0 1-.833.818h-1.111a.826.826 0 0 1-.834-.818" clip-rule="evenodd"/></svg>