<svg xmlns="http://www.w3.org/2000/svg" fill="none" viewBox="0 0 24 24" width="1em" height="1em"><path stroke="currentColor" stroke-linecap="round" stroke-width="1.5" d="M17.787 6.213c2.761 2.762 4.142 4.142 4.142 5.858s-1.38 3.097-4.142 5.858-4.142 4.142-5.858 4.142-3.097-1.38-5.858-4.142C3.31 15.168 1.93 13.787 1.93 12.07s1.38-3.096 4.142-5.858C8.833 3.451 10.214 2.07 11.93 2.07c1.14 0 2.133.61 3.482 1.831"/><path stroke="currentColor" stroke-linecap="round" stroke-linejoin="round" stroke-width="1.5" d="M16 11.5 13.333 9M16 11.5 13.333 14M16 11.5h-5.333C9.777 11.5 8 12 8 14"/></svg>