<svg width="24" height="24" viewBox="0 0 24 24" fill="none" xmlns="http://www.w3.org/2000/svg">
<path opacity="0.6" d="M19.7165 20.3624C21.143 19.5846 22 18.5873 22 17.5C22 16.3475 21.0372 15.2961 19.4537 14.5C17.6226 13.5794 14.9617 13 12 13C9.03833 13 6.37738 13.5794 4.54631 14.5C2.96285 15.2961 2 16.3475 2 17.5C2 18.6525 2.96285 19.7039 4.54631 20.5C6.37738 21.4206 9.03833 22 12 22C15.1066 22 17.8823 21.3625 19.7165 20.3624Z" fill="#1C274C"/>
<path fill-rule="evenodd" clip-rule="evenodd" d="M9.25 4C9.25 2.48122 10.4812 1.25 12 1.25C13.5188 1.25 14.75 2.48122 14.75 4C14.75 5.51878 13.5188 6.75 12 6.75C10.4812 6.75 9.25 5.51878 9.25 4Z" fill="#1C274C"/>
<path d="M8.22309 11.5743L6.04779 10.8492C5.42206 10.6407 5 10.0551 5 9.39551C5 8.41993 5.89953 7.69274 6.85345 7.89715L8.75102 8.30377C8.85654 8.32638 8.9093 8.33769 8.96161 8.34851C10.966 8.76311 13.034 8.76311 15.0384 8.34851C15.0907 8.33769 15.1435 8.32638 15.249 8.30377L17.1465 7.89715C18.1005 7.69274 19 8.41993 19 9.39551C19 10.0551 18.5779 10.6407 17.9522 10.8492L15.7769 11.5743C15.514 11.662 15.3826 11.7058 15.2837 11.7668C14.9471 11.9746 14.7646 12.3613 14.8182 12.7532C14.834 12.8683 14.8837 12.9976 14.9832 13.2562L16.23 16.4979C16.6011 17.4629 15.8888 18.5 14.8549 18.5C14.3263 18.5 13.8381 18.2167 13.5758 17.7577L12 15L10.4242 17.7577C10.1619 18.2167 9.67373 18.5 9.14506 18.5C8.11118 18.5 7.39889 17.4629 7.77003 16.4979L9.01682 13.2562C9.11629 12.9976 9.16603 12.8683 9.18177 12.7532C9.23536 12.3613 9.05287 11.9746 8.71625 11.7668C8.61741 11.7058 8.48597 11.662 8.22309 11.5743Z" fill="#1C274C"/>
</svg>
