<svg width="24" height="24" viewBox="0 0 24 24" fill="none" xmlns="http://www.w3.org/2000/svg">
<path d="M16 16.4286C16 17.8487 14.8807 19 13.5 19C12.1193 19 11 17.8487 11 16.4286C11 15.0084 12.1193 13.8571 13.5 13.8571C14.8807 13.8571 16 15.0084 16 16.4286ZM16 16.4286V10" stroke="#1C274C" stroke-width="1.5"/>
<path d="M18.675 7.11598L16.9205 7.95815C16.5788 8.12216 16.408 8.20417 16.2845 8.33058C16.1855 8.43202 16.1091 8.55337 16.0605 8.68657C16 8.85255 16 9.04206 16 9.42109C16 10.2975 16 10.7358 16.1911 10.9987C16.3421 11.2065 16.5673 11.3482 16.8201 11.3944C17.1397 11.4529 17.5348 11.2633 18.325 10.884L20.0795 10.0419C20.4212 9.87784 20.592 9.79584 20.7155 9.66943C20.8145 9.56799 20.8909 9.44664 20.9395 9.31344C21 9.14745 21 8.95794 21 8.57892C21 7.70247 21 7.26425 20.8089 7.00135C20.6579 6.79352 20.4327 6.65179 20.1799 6.60556C19.8603 6.54708 19.4652 6.73671 18.675 7.11598Z" stroke="#1C274C" stroke-width="1.5" stroke-linecap="round"/>
<path d="M15 5L3 5" stroke="#1C274C" stroke-width="1.5" stroke-linecap="round"/>
<path d="M13 9L3 9" stroke="#1C274C" stroke-width="1.5" stroke-linecap="round"/>
<path d="M9 13H3" stroke="#1C274C" stroke-width="1.5" stroke-linecap="round"/>
<path d="M8 17H3" stroke="#1C274C" stroke-width="1.5" stroke-linecap="round"/>
</svg>
