<svg width="24" height="24" viewBox="0 0 24 24" fill="none" xmlns="http://www.w3.org/2000/svg">
<path fill-rule="evenodd" clip-rule="evenodd" d="M8.69946 1.25001C8.71314 1.25001 8.72702 1.25001 8.7411 1.25001H15.2589C15.273 1.25001 15.2868 1.25001 15.3005 1.25001C15.5204 1.24995 15.6889 1.2499 15.8363 1.26571C17.1904 1.41104 18.2269 2.52305 18.2898 3.87008C19.5325 4.24111 20.4025 5.4249 20.3418 6.75728C20.7402 6.93704 21.0931 7.18502 21.3949 7.5298C22.0113 8.23385 22.1996 9.09539 22.2068 10.1006C22.2138 11.0723 22.0498 12.3015 21.8455 13.8337L21.431 16.9422C21.2714 18.1401 21.1421 19.1096 20.9411 19.8688C20.732 20.659 20.4232 21.3141 19.8437 21.8215C19.2643 22.3288 18.574 22.5483 17.7631 22.6512C16.984 22.75 16.0059 22.75 14.7975 22.75H9.2026C7.99414 22.75 7.01604 22.75 6.23698 22.6512C5.42605 22.5483 4.73583 22.3288 4.15637 21.8215C3.57692 21.3141 3.26811 20.659 3.05893 19.8688C2.85798 19.1096 2.72873 18.1401 2.56903 16.9422L2.15456 13.8337C1.95025 12.3015 1.78633 11.0723 1.79331 10.1006C1.80052 9.09539 1.98874 8.23385 2.60515 7.5298C2.90701 7.18502 3.25988 6.93703 3.65832 6.75728C3.59759 5.42494 4.46749 4.24117 5.71016 3.87011C5.77304 2.52306 6.80953 1.41104 8.1637 1.26571C8.31105 1.2499 8.47961 1.24995 8.69946 1.25001ZM7.23221 3.75001H16.7678C16.6612 3.22633 16.2264 2.8162 15.6762 2.75715C15.6199 2.75111 15.5397 2.75001 15.2589 2.75001H8.7411C8.46024 2.75001 8.38004 2.75111 8.32376 2.75715C7.77355 2.8162 7.33873 3.22633 7.23221 3.75001ZM5.18095 6.36744C6.12329 6.24998 7.31972 6.24999 8.79422 6.25001H15.2059C16.6804 6.24999 17.8768 6.24998 18.8191 6.36744C18.697 5.74074 18.1453 5.25001 17.462 5.25001H6.53813C5.85476 5.25001 5.30303 5.74074 5.18095 6.36744ZM5.25505 7.87068C4.43066 7.98663 4.0137 8.19811 3.73373 8.51788C3.45376 8.83766 3.29924 9.27892 3.29327 10.1114C3.28714 10.9652 3.4353 12.0897 3.64919 13.6939L4.04919 16.6939C4.21718 17.9538 4.33523 18.8285 4.50899 19.4849C4.67733 20.1209 4.87545 20.4574 5.14446 20.6929C5.41347 20.9284 5.77319 21.0803 6.4258 21.1631C7.09944 21.2486 7.98206 21.25 9.25314 21.25H14.7469C16.018 21.25 16.9006 21.2486 17.5743 21.1631C18.2269 21.0803 18.5866 20.9284 18.8556 20.6929C19.1246 20.4574 19.3228 20.1209 19.4911 19.4849C19.6649 18.8285 19.7829 17.9538 19.9509 16.6939L20.3509 13.6939C20.5648 12.0897 20.7129 10.9652 20.7068 10.1114C20.7008 9.27892 20.5463 8.83766 20.2664 8.51788C19.9864 8.19811 19.5694 7.98663 18.745 7.87068C17.8995 7.75177 16.7653 7.75001 15.1469 7.75001H8.85314C7.23476 7.75001 6.10054 7.75177 5.25505 7.87068ZM12.5389 10.9794C12.5573 10.9892 12.5758 10.999 12.5943 11.0089C12.8811 11.1615 13.1642 11.3201 13.4188 11.4766C13.7088 11.6548 14.0182 11.8647 14.3234 12.0826C14.3397 12.0942 14.356 12.1058 14.3722 12.1174C14.8676 12.4709 15.3168 12.7914 15.6322 13.1129C15.9909 13.4784 16.25 13.9166 16.25 14.5C16.25 15.0835 15.9909 15.5217 15.6322 15.8872C15.3168 16.2087 14.8676 16.5292 14.3722 16.8827C14.356 16.8943 14.3397 16.9059 14.3234 16.9175C14.0182 17.1354 13.7088 17.3453 13.4188 17.5235C13.1642 17.6799 12.8811 17.8386 12.5943 17.9912C12.5758 18.0011 12.5573 18.0109 12.5389 18.0207C12.0508 18.2805 11.5958 18.5227 11.2003 18.647C10.7407 18.7915 10.2319 18.8186 9.74071 18.496C9.27066 18.1873 9.06983 17.725 8.96662 17.259C8.87214 16.8324 8.83621 16.2879 8.79569 15.6739L8.79205 15.6189C8.76668 15.2349 8.75004 14.8507 8.75004 14.5C8.75004 14.1494 8.76668 13.7651 8.79206 13.3812L8.79569 13.3261C8.83621 12.7122 8.87215 12.1677 8.96662 11.7411C9.06983 11.2751 9.27066 10.8128 9.74071 10.5041C10.2319 10.1815 10.7407 10.2086 11.2003 10.353C11.5958 10.4774 12.0508 10.7196 12.5389 10.9794ZM10.5794 11.7501C10.5788 11.7498 10.5775 11.7491 10.5642 11.7578C10.5637 11.7581 10.5631 11.7585 10.5624 11.7589C10.5478 11.7678 10.4891 11.8035 10.4311 12.0655C10.3645 12.3664 10.3341 12.794 10.2888 13.4801C10.2647 13.8442 10.25 14.1933 10.25 14.5C10.25 14.8068 10.2647 15.1559 10.2888 15.52C10.3341 16.206 10.3645 16.6337 10.4311 16.9346C10.4891 17.1966 10.5478 17.2323 10.5624 17.2412C10.5631 17.2416 10.5637 17.242 10.5642 17.2423C10.5797 17.2524 10.5789 17.2498 10.5797 17.2498C10.5918 17.2506 10.6404 17.2507 10.7505 17.2161C10.9965 17.1388 11.3263 16.9667 11.8897 16.667C12.1593 16.5235 12.4136 16.3806 12.6335 16.2455C12.8844 16.0913 13.1636 15.9024 13.4519 15.6966C14.0122 15.2967 14.35 15.0523 14.5616 14.8366C14.7404 14.6544 14.75 14.5727 14.75 14.5C14.75 14.4274 14.7404 14.3457 14.5616 14.1635C14.35 13.9478 14.0122 13.7033 13.4519 13.3034C13.1636 13.0976 12.8844 12.9088 12.6335 12.7546C12.4136 12.6195 12.1593 12.4765 11.8897 12.3331C11.3263 12.0333 10.9965 11.8613 10.7505 11.784C10.6404 11.7494 10.5915 11.7494 10.5794 11.7501C10.5795 11.7502 10.5793 11.7501 10.5794 11.7501Z" fill="#1C274C"/>
</svg>
