<svg xmlns="http://www.w3.org/2000/svg" fill="none" viewBox="0 0 24 24" width="1em" height="1em"><path fill="currentColor" fill-rule="evenodd" d="M14.394 3.065a9.22 9.22 0 0 0-6.939.878.75.75 0 0 1-.737-1.306 10.72 10.72 0 0 1 8.064-1.02c5.735 1.536 9.138 7.43 7.602 13.165-1.537 5.735-7.431 9.138-13.166 7.602C3.483 20.847.08 14.953 1.616 9.218A10.7 10.7 0 0 1 3.01 6.103c.574-.876 1.732-.944 2.465-.35l6.998 5.664a.75.75 0 1 1-.944 1.166L4.53 6.919a.23.23 0 0 0-.168-.053.13.13 0 0 0-.099.06 9.2 9.2 0 0 0-1.198 2.68 9.25 9.25 0 1 0 11.33-6.54" clip-rule="evenodd"/></svg>