<svg xmlns="http://www.w3.org/2000/svg" fill="none" viewBox="0 0 24 24" width="1em" height="1em"><circle cx="11.5" cy="4.5" r="2.5" stroke="currentColor" stroke-width="1.5"/><path stroke="currentColor" stroke-linecap="round" stroke-width="1.5" d="M9 17.5 6 22" opacity=".5"/><path fill="currentColor" d="m10.375 11.246.747.075zm-.162 1.622.747.074zm3.79-1.532-.48.576zm.081.068.48-.577zm3.832 0-.48-.577zm1.564-.328a.75.75 0 1 0-.96-1.152zm-5.252 8.988.747-.066zm-.575 2.002a.75.75 0 1 0 1.495-.133zm1.661-9.79-.257.704zm1.372 0 .257.704zm-4.592-2.034-.18.728zm.148.056-.242.71zm1.24.627.428-.615zm-1.665 5.21.398-.635zm1.664 1.237-.584.47zm.398.649-.683.308zm-3.674-3.462-.716.224zm.269.548-.615.43zm.011-4.423.683.312zm.824-.58-.065-.748zm-1.68 1.068-.162 1.621 1.492.15.163-1.622zm3.894.74.081.068.96-1.153-.08-.067zm4.873.068 1.084-.904-.96-1.152-1.084.903zm-4.915 8.15.172 1.936 1.495-.133-.173-1.935zm.123-8.15c.555.462.973.825 1.453 1l.514-1.41c-.174-.063-.358-.202-1.006-.743zm3.832-1.153c-.649.54-.833.68-1.007.744l.514 1.409c.48-.175.898-.538 1.453-1zm-2.379 2.153a2.75 2.75 0 0 0 1.886 0l-.514-1.41a1.25 1.25 0 0 1-.858 0zm-3.143-2.01h.002v.001zl-.01-.003-.026-.008a.8.8 0 0 1-.193-.093.76.76 0 0 1-.238-.26.75.75 0 1 1 .371.334l.054.021q.047.018.128.046l.485-1.42-.081-.028.008.003a1 1 0 0 1 .082.043.7.7 0 0 1 .148.118.75.75 0 0 1-.229 1.204c-.027.013-.056.023-.043.018l.033-.013a.751.751 0 0 0 .008-1.372 1 1 0 0 0-.11-.04l-.02-.005-.007-.002zm2.57-.21a8 8 0 0 0-.574-.45l-.857 1.231a6 6 0 0 1 .47.37zM12 11.008c.297.102.795.354 1.053.533l.857-1.231a6.8 6.8 0 0 0-1.425-.721zm-.58 5.764c.942.589 1.257.797 1.477 1.07l1.168-.94c-.415-.517-.997-.87-1.85-1.402zm3.555 3.226c-.089-1.002-.14-1.681-.412-2.285l-1.367.616c.143.319.187.695.285 1.802zm-2.078-2.156q.18.224.299.487l1.367-.616a3.8 3.8 0 0 0-.498-.812zm-3.43-5.049c-.08.802-.156 1.42.022 1.99l1.432-.447c-.066-.21-.055-.459.039-1.394zm2.748 2.707c-.797-.498-1.001-.643-1.126-.822l-1.23.859c.342.49.878.808 1.56 1.235zm-2.726-.717q.127.406.37.754l1.23-.859a1.3 1.3 0 0 1-.168-.342zm1.633-3.462a4 4 0 0 1 .031-.271c.007-.039.012-.048.015-.054l-1.365-.624c-.13.286-.15.557-.174.8zm1.152-1.807c-.199-.049-.376-.093-.524-.122a1.8 1.8 0 0 0-.506-.036l.13 1.494c-.02.002-.005-.003.093.016.1.019.232.051.447.104zm-1.106 1.482c-.007.015-.007.009.013-.014a.5.5 0 0 1 .175-.123c.028-.012.034-.01.018-.009l-.13-1.494a1.8 1.8 0 0 0-.846.33c-.22.156-.459.388-.595.686z"/><path stroke="currentColor" stroke-linecap="round" stroke-width="1.5" d="M19 22V8"/><path stroke="currentColor" stroke-linecap="round" stroke-width="1.5" d="m8 10-1.672.557A1.94 1.94 0 0 0 5 12.4a.97.97 0 0 0 .537.868L8 14.5" opacity=".5"/></svg>