<svg width="24" height="24" viewBox="0 0 24 24" fill="none" xmlns="http://www.w3.org/2000/svg">
<path fill-rule="evenodd" clip-rule="evenodd" d="M11.9999 1.25C12.4141 1.25 12.7499 1.58579 12.7499 2V3C12.7499 3.41421 12.4141 3.75 11.9999 3.75C11.5857 3.75 11.2499 3.41421 11.2499 3V2C11.2499 1.58579 11.5857 1.25 11.9999 1.25ZM4.39902 4.39861C4.69192 4.10572 5.16679 4.10572 5.45968 4.39861L5.85252 4.79145C6.14541 5.08434 6.14541 5.55921 5.85252 5.85211C5.55963 6.145 5.08475 6.145 4.79186 5.85211L4.39902 5.45927C4.10613 5.16638 4.10613 4.6915 4.39902 4.39861ZM19.6006 4.39887C19.8935 4.69176 19.8935 5.16664 19.6006 5.45953L19.2077 5.85237C18.9148 6.14526 18.44 6.14526 18.1471 5.85237C17.8542 5.55947 17.8542 5.0846 18.1471 4.79171L18.5399 4.39887C18.8328 4.10598 19.3077 4.10598 19.6006 4.39887ZM12 6.75C9.39935 6.75 7.23907 8.64166 6.8226 11.1241C6.75406 11.5326 6.36734 11.8082 5.95884 11.7397C5.55034 11.6711 5.27474 11.2844 5.34327 10.8759C5.87895 7.68291 8.65461 5.25 12 5.25C15.3453 5.25 18.121 7.68291 18.6567 10.8759C18.7252 11.2844 18.4496 11.6711 18.0411 11.7397C17.6326 11.8082 17.2459 11.5326 17.1774 11.1241C16.7609 8.64166 14.6006 6.75 12 6.75ZM1.24993 12C1.24993 11.5858 1.58571 11.25 1.99993 11.25H2.99993C3.41414 11.25 3.74993 11.5858 3.74993 12C3.74993 12.4142 3.41414 12.75 2.99993 12.75H1.99993C1.58571 12.75 1.24993 12.4142 1.24993 12ZM20.2499 12C20.2499 11.5858 20.5857 11.25 20.9999 11.25H21.9999C22.4141 11.25 22.7499 11.5858 22.7499 12C22.7499 12.4142 22.4141 12.75 21.9999 12.75H20.9999C20.5857 12.75 20.2499 12.4142 20.2499 12ZM4.56979 13.8657C5.25664 12.7919 6.72725 12.8271 7.45746 13.7618C8.44746 15.0291 9.82941 16.25 11.9999 16.25C14.2085 16.25 15.5696 15.2712 16.5049 14.0209C17.2249 13.0585 18.7906 12.9013 19.5455 14.0435C20.1706 14.9891 20.8486 15.7306 22.1719 16.0424C22.5751 16.1374 22.8249 16.5412 22.7299 16.9444C22.6349 17.3476 22.2311 17.5974 21.8279 17.5024C19.9759 17.066 19.0203 15.9692 18.2942 14.8705C18.2372 14.7844 18.1516 14.7406 18.0406 14.7427C17.922 14.7449 17.7934 14.8027 17.706 14.9195C16.5383 16.4804 14.7602 17.75 11.9999 17.75C9.15735 17.75 7.38852 16.1101 6.2754 14.6853C6.20368 14.5934 6.11008 14.5585 6.02957 14.5602C5.95364 14.5619 5.88418 14.5946 5.83341 14.674C5.09392 15.8301 4.13904 17.0389 2.17194 17.5024C1.76877 17.5974 1.36492 17.3476 1.26992 16.9444C1.17492 16.5412 1.42474 16.1374 1.82791 16.0424C3.22886 15.7123 3.9075 14.9011 4.56979 13.8657ZM4.56979 18.8657C5.25664 17.7919 6.72725 17.8271 7.45746 18.7618C8.44746 20.0291 9.82941 21.25 11.9999 21.25C14.2085 21.25 15.5696 20.2712 16.5049 19.0209C17.2249 18.0585 18.7906 17.9013 19.5455 19.0435C20.1706 19.9891 20.8486 20.7306 22.1719 21.0424C22.5751 21.1374 22.8249 21.5412 22.7299 21.9444C22.6349 22.3476 22.2311 22.5974 21.8279 22.5024C19.9759 22.066 19.0203 20.9692 18.2942 19.8705C18.2372 19.7844 18.1516 19.7406 18.0406 19.7427C17.922 19.7449 17.7934 19.8027 17.706 19.9195C16.5383 21.4804 14.7602 22.75 11.9999 22.75C9.15735 22.75 7.38852 21.1101 6.2754 19.6853C6.20368 19.5934 6.11008 19.5585 6.02957 19.5602C5.95364 19.5619 5.88418 19.5946 5.83341 19.674C5.09392 20.8301 4.13904 22.0389 2.17194 22.5024C1.76877 22.5974 1.36492 22.3476 1.26992 21.9444C1.17492 21.5412 1.42474 21.1374 1.82791 21.0424C3.22886 20.7123 3.9075 19.9011 4.56979 18.8657Z" fill="#1C274C"/>
</svg>
