<svg xmlns="http://www.w3.org/2000/svg" fill="none" viewBox="0 0 24 24" width="1em" height="1em"><path fill="currentColor" d="M21.836 17.462c-.443-1.047-1.022-2-1.536-2.845-.184-.303-.36-.592-.518-.867H4.218c-.158.275-.334.564-.518.867-.514.846-1.093 1.798-1.536 2.845A11.4 11.4 0 0 0 1.25 22a.75.75 0 1 0 1.5 0c0-1.49.29-2.696.709-3.744 5.394.147 7.46 2.871 7.83 3.981a.75.75 0 0 0 1.422 0c.37-1.11 2.436-3.834 7.83-3.98A9.9 9.9 0 0 1 21.25 22a.75.75 0 1 0 1.5 0c0-1.816-.38-3.28-.914-4.538M4.69 1.706a.75.75 0 1 0-1.38.588v.002l.004.009.016.036.06.148a32 32 0 0 1 .892 2.557c.493 1.633.968 3.693.968 5.525a4.9 4.9 0 0 1-.308 1.679h14.116a4.9 4.9 0 0 1-.308-1.679c0-1.832.475-3.892.968-5.525a32 32 0 0 1 .892-2.557l.06-.148.015-.036.004-.009v-.002a.75.75 0 1 0-1.38-.588L20 2l-.69-.294v.001l-.002.004-.005.012-.018.043-.067.163a34 34 0 0 0-.936 2.684c-.481 1.594-.977 3.677-1.028 5.637H6.746c-.05-1.96-.547-4.043-1.028-5.637a34 34 0 0 0-.936-2.684l-.067-.163-.018-.043-.005-.012-.001-.004z"/></svg>