<svg xmlns="http://www.w3.org/2000/svg" fill="none" viewBox="0 0 24 24" width="1em" height="1em"><path fill="currentColor" fill-rule="evenodd" d="M3.706 1.31a.75.75 0 0 1 .984.396L4 2l.69-.294v.001l.002.004.005.012.018.043.067.163a34 34 0 0 1 .936 2.684c.481 1.594.977 3.677 1.028 5.637h10.508c.05-1.96.547-4.043 1.028-5.637a34 34 0 0 1 .936-2.684l.067-.163.018-.043.005-.012.001-.004S19.31 1.705 20 2l-.69-.294a.75.75 0 0 1 1.38.588v.002l-.005.009-.015.036-.06.148a32 32 0 0 0-.892 2.557c-.493 1.633-.968 3.693-.968 5.525 0 1.06.358 1.968.906 2.957.189.34.41.704.644 1.09.514.845 1.093 1.797 1.536 2.844.534 1.258.914 2.722.914 4.538a.75.75 0 1 1-1.5 0c0-1.49-.29-2.696-.709-3.744-5.394.147-7.46 2.871-7.83 3.981a.75.75 0 0 1-1.422 0c-.37-1.11-2.436-3.834-7.83-3.98A9.9 9.9 0 0 0 2.75 22a.75.75 0 1 1-1.5 0c0-1.816.38-3.28.914-4.538.443-1.047 1.022-2 1.536-2.845.234-.386.456-.75.644-1.09.548-.988.906-1.897.906-2.956 0-1.832-.475-3.892-.968-5.525A32 32 0 0 0 3.39 2.49l-.06-.148-.016-.036-.003-.009v-.002a.75.75 0 0 1 .395-.984m.455 15.478c4.21.278 6.67 2.054 7.839 3.65 1.17-1.596 3.628-3.372 7.839-3.65-.24-.435-.491-.847-.744-1.262a35 35 0 0 1-.751-1.271 14 14 0 0 1-.269-.509L18 13.75H6l-.075-.004q-.13.258-.269.508c-.246.445-.5.86-.75 1.272-.254.415-.505.827-.745 1.262m2.356-4.538h10.966a7 7 0 0 1-.119-.5H6.636q-.05.255-.118.5" clip-rule="evenodd"/></svg>