<svg width="24" height="24" viewBox="0 0 24 24" fill="none" xmlns="http://www.w3.org/2000/svg">
<path d="M19.8301 10.441L20.3647 10.967L19.8301 10.441ZM17.7613 11.4739C17.4708 11.7692 17.4746 12.244 17.7698 12.5346C18.065 12.8251 18.5399 12.8213 18.8304 12.5261L17.7613 11.4739ZM19.8301 4.20481L19.2956 4.73088L19.8301 4.20481ZM21.9999 7.32289H22.7499H21.9999ZM13.6931 4.20481L14.2276 4.73088H14.2276L13.6931 4.20481ZM16.7616 2V2.75V2ZM11.4654 5.39919C11.1748 5.69442 11.1786 6.16928 11.4739 6.45982C11.7691 6.75036 12.244 6.74656 12.5345 6.45133L11.4654 5.39919ZM19.2956 9.91489L17.7613 11.4739L18.8304 12.5261L20.3647 10.967L19.2956 9.91489ZM19.2956 4.73088C20.0336 5.48084 20.5333 5.99085 20.8577 6.42291C21.1688 6.83718 21.2499 7.09251 21.2499 7.32289H22.7499C22.7499 6.64 22.4695 6.07123 22.0572 5.52225C21.6584 4.99105 21.0732 4.39865 20.3647 3.67874L19.2956 4.73088ZM20.3647 10.967C21.0732 10.2471 21.6584 9.65472 22.0572 9.12352C22.4694 8.57454 22.7499 8.00577 22.7499 7.32289H21.2499C21.2499 7.55327 21.1688 7.8086 20.8577 8.22287C20.5333 8.65492 20.0336 9.16493 19.2956 9.91489L20.3647 10.967ZM14.2276 4.73088C14.9658 3.98075 15.4675 3.47324 15.8923 3.14393C16.3002 2.82765 16.5459 2.75 16.7616 2.75V1.25C16.0786 1.25 15.5132 1.53982 14.9732 1.95848C14.45 2.36411 13.8668 2.959 13.1585 3.67874L14.2276 4.73088ZM20.3647 3.67874C19.6564 2.959 19.0732 2.36411 18.55 1.95847C18.01 1.53982 17.4446 1.25 16.7616 1.25V2.75C16.9773 2.75 17.223 2.82765 17.6309 3.14393C18.0557 3.47324 18.5574 3.98075 19.2956 4.73088L20.3647 3.67874ZM13.1585 3.67874L11.4654 5.39919L12.5345 6.45133L14.2276 4.73088L13.1585 3.67874Z" fill="#1C274C"/>
<path d="M9.85748 22.0002V22.7502V22.0002ZM14.6971 17.448C14.4042 17.7409 14.4042 18.2158 14.6971 18.5087C14.99 18.8016 15.4648 18.8016 15.7577 18.5087L14.6971 17.448ZM18.4821 13.3755H19.2321H18.4821ZM6.02181 8.77274L6.55214 9.30307V9.30307L6.02181 8.77274ZM5.25467 9.53987L4.72434 9.00954V9.00954L5.25467 9.53987ZM12.4681 21.6558C12.7918 21.3973 12.8445 20.9254 12.586 20.6018C12.3274 20.2781 11.8555 20.2254 11.5319 20.4839L12.4681 21.6558ZM5.785 10.0702L6.55214 9.30307L5.49148 8.24241L4.72434 9.00954L5.785 10.0702ZM4.72434 19.2758C5.79424 20.3457 6.64889 21.2026 7.40926 21.7828C8.18693 22.3761 8.95349 22.7502 9.85748 22.7502V21.2502C9.41333 21.2502 8.96338 21.0818 8.31913 20.5902C7.65758 20.0855 6.88489 19.315 5.785 18.2152L4.72434 19.2758ZM14.6971 9.30307C15.797 10.403 16.5674 11.1756 17.0722 11.8372C17.5637 12.4814 17.7321 12.9314 17.7321 13.3755H19.2321C19.2321 12.4716 18.858 11.705 18.2647 10.9273C17.6845 10.167 16.8276 9.31231 15.7577 8.24241L14.6971 9.30307ZM15.7577 18.5087C16.8276 17.4388 17.6845 16.5841 18.2647 15.8238C18.858 15.0461 19.2321 14.2795 19.2321 13.3755H17.7321C17.7321 13.8197 17.5637 14.2696 17.0722 14.9139C16.5674 15.5754 15.797 16.3481 14.6971 17.448L15.7577 18.5087ZM6.55214 9.30307C7.65202 8.20319 8.42471 7.43275 9.08626 6.928C9.73051 6.43646 10.1805 6.26807 10.6246 6.26807V4.76807C9.72063 4.76807 8.95407 5.14212 8.17639 5.73547C7.41602 6.31561 6.56138 7.17251 5.49148 8.24241L6.55214 9.30307ZM15.7577 8.24241C14.6878 7.17251 13.8332 6.31561 13.0728 5.73547C12.2952 5.14212 11.5286 4.76807 10.6246 4.76807V6.26807C11.0688 6.26807 11.5187 6.43646 12.163 6.928C12.8245 7.43275 13.5972 8.20319 14.6971 9.30307L15.7577 8.24241ZM4.72434 9.00954C3.65444 10.0794 2.79754 10.9341 2.2174 11.6945C1.62406 12.4721 1.25 13.2387 1.25 14.1427H2.75C2.75 13.6985 2.91839 13.2486 3.40993 12.6043C3.91468 11.9428 4.68512 11.1701 5.785 10.0702L4.72434 9.00954ZM5.785 18.2152C4.68512 17.1153 3.91468 16.3426 3.40993 15.681C2.91839 15.0368 2.75 14.5868 2.75 14.1427H1.25C1.25 15.0467 1.62406 15.8132 2.2174 16.5909C2.79754 17.3513 3.65444 18.2059 4.72434 19.2758L5.785 18.2152ZM11.5319 20.4839C10.8132 21.0581 10.3318 21.2502 9.85748 21.2502V22.7502C10.8246 22.7502 11.6342 22.3221 12.4681 21.6558L11.5319 20.4839Z" fill="#1C274C"/>
<path d="M5.78497 13.6122C5.49208 13.3194 5.0172 13.3194 4.72431 13.6122C4.43142 13.9051 4.43142 14.38 4.72431 14.6729L5.78497 13.6122ZM9.32711 19.2757C9.62001 19.5686 10.0949 19.5686 10.3878 19.2757C10.6807 18.9828 10.6807 18.5079 10.3878 18.2151L9.32711 19.2757ZM4.72431 14.6729L9.32711 19.2757L10.3878 18.2151L5.78497 13.6122L4.72431 14.6729Z" fill="#1C274C"/>
<path d="M18.7175 7.40381L18.0104 8.11092" stroke="#1C274C" stroke-width="1.5" stroke-linecap="round"/>
<path d="M16.5962 5.28247L15.8891 5.98958" stroke="#1C274C" stroke-width="1.5" stroke-linecap="round"/>
</svg>
