<svg width="24" height="24" viewBox="0 0 24 24" fill="none" xmlns="http://www.w3.org/2000/svg">
<path fill-rule="evenodd" clip-rule="evenodd" d="M5.11674 7.75164C5.53004 7.72409 5.88741 8.03679 5.91497 8.45009L6.37491 15.3492C6.46477 16.6971 6.52879 17.6349 6.66936 18.3405C6.80571 19.0249 6.99604 19.3872 7.26946 19.643C7.54287 19.8988 7.91703 20.0646 8.60903 20.1552C9.32243 20.2485 10.2624 20.25 11.6133 20.25H12.3866C13.7375 20.25 14.6775 20.2485 15.3909 20.1552C16.0829 20.0646 16.4571 19.8988 16.7305 19.643C17.0039 19.3872 17.1942 19.0249 17.3306 18.3405C17.4711 17.6349 17.5352 16.6971 17.625 15.3492L18.085 8.45009C18.1125 8.03679 18.4699 7.72409 18.8832 7.75164C19.2965 7.77919 19.6092 8.13657 19.5816 8.54987L19.1182 15.5016C19.0327 16.7844 18.9636 17.8205 18.8017 18.6336C18.6333 19.4789 18.3468 20.1849 17.7552 20.7384C17.1636 21.2919 16.4401 21.5307 15.5854 21.6425C14.7634 21.75 13.725 21.75 12.4394 21.75H11.5605C10.275 21.75 9.23651 21.75 8.41447 21.6425C7.55982 21.5307 6.83628 21.2919 6.24468 20.7384C5.65309 20.1849 5.36667 19.4789 5.19827 18.6336C5.03629 17.8205 4.96723 16.7843 4.88174 15.5016L4.41829 8.54987C4.39074 8.13657 4.70344 7.77919 5.11674 7.75164Z" fill="#1C274C"/>
<path fill-rule="evenodd" clip-rule="evenodd" d="M10.3552 2.24998L10.3092 2.24996C10.0928 2.24982 9.90433 2.2497 9.72631 2.27813C9.02301 2.39043 8.41441 2.82909 8.08546 3.46078C8.0022 3.62067 7.94269 3.79957 7.8744 4.0049L7.85988 4.04852L7.76279 4.33978C7.7438 4.39675 7.73851 4.41245 7.7339 4.42518C7.55878 4.90929 7.10476 5.23653 6.59011 5.24958C6.57658 5.24992 6.56001 5.24998 6.49996 5.24998H3.49988C3.08566 5.24998 2.74988 5.58576 2.74988 5.99998C2.74988 6.41419 3.08566 6.74998 3.49988 6.74998L6.50853 6.74998L6.52527 6.74998H17.4747L17.4914 6.74998L20.5 6.74998C20.9142 6.74998 21.25 6.41419 21.25 5.99998C21.25 5.58576 20.9142 5.24998 20.5 5.24998H17.5C17.4399 5.24998 17.4233 5.24992 17.4098 5.24958C16.8952 5.23653 16.4411 4.90927 16.266 4.42516C16.2614 4.41252 16.256 4.39647 16.2371 4.33978L16.14 4.04852L16.1255 4.00488C16.0572 3.79955 15.9977 3.62067 15.9145 3.46078C15.5855 2.82909 14.9769 2.39043 14.2736 2.27813C14.0956 2.2497 13.9071 2.24982 13.6907 2.24996L13.6447 2.24998H10.3552ZM9.14445 4.93542C9.10518 5.04398 9.05954 5.14895 9.00803 5.24998H14.9919C14.9404 5.14896 14.8947 5.04399 14.8555 4.93544L14.8168 4.8221L14.717 4.52286C14.6258 4.24934 14.6049 4.19357 14.584 4.15358C14.4744 3.94301 14.2715 3.7968 14.0371 3.75936C13.9926 3.75225 13.933 3.74998 13.6447 3.74998H10.3552C10.0669 3.74998 10.0074 3.75225 9.96284 3.75936C9.7284 3.7968 9.52554 3.94301 9.41589 4.15358C9.39506 4.19357 9.37407 4.24935 9.2829 4.52286L9.1831 4.82228C9.16807 4.86736 9.15638 4.90245 9.14445 4.93542Z" fill="#1C274C"/>
</svg>
