<svg width="24" height="24" viewBox="0 0 24 24" fill="none" xmlns="http://www.w3.org/2000/svg">
<g opacity="0.5">
<path d="M10.5531 13.4469C10.1294 13.0232 9.60212 12.8505 9.01812 12.772C8.46484 12.6976 7.76789 12.6976 6.93209 12.6977L5.82717 12.6977C5.24648 12.6977 4.76184 12.6976 4.36823 12.7351C3.95674 12.7742 3.57325 12.8591 3.22152 13.0746C2.87731 13.2856 2.5879 13.575 2.37697 13.9192C2.16142 14.2709 2.07653 14.6544 2.0374 15.0659C1.99998 15.4595 1.99999 15.9442 2 16.5249V16.5932C1.99999 17.477 1.99999 18.1897 2.05454 18.7635C2.1108 19.3552 2.22996 19.8707 2.51405 20.3343C2.80168 20.8037 3.19632 21.1983 3.6657 21.486C4.12929 21.77 4.64482 21.8892 5.23653 21.9455C5.8103 22 6.52304 22 7.40683 22H7.47507C8.05577 22 8.54048 22 8.9341 21.9626C9.34559 21.9235 9.72907 21.8386 10.0808 21.623C10.425 21.4121 10.7144 21.1227 10.9254 20.7785C11.1409 20.4267 11.2258 20.0433 11.2649 19.6318C11.3024 19.2382 11.3023 18.7535 11.3023 18.1728L11.3023 17.0679C11.3024 16.2321 11.3024 15.5352 11.228 14.9819C11.1495 14.3979 10.9768 13.8706 10.5531 13.4469Z" fill="#1C274C"/>
<path d="M8.9341 2.0374C9.34559 2.07653 9.72907 2.16142 10.0808 2.37697C10.425 2.5879 10.7144 2.87731 10.9254 3.22152C11.1409 3.57325 11.2258 3.95674 11.2649 4.36823C11.3024 4.76183 11.3023 5.24658 11.3023 5.82726L11.3023 6.93212C11.3024 7.7679 11.3024 8.46484 11.228 9.01812C11.1495 9.60212 10.9768 10.1294 10.5531 10.5531C10.1294 10.9768 9.60212 11.1495 9.01812 11.228C8.46484 11.3024 7.76787 11.3024 6.93209 11.3023L5.82711 11.3023C5.24643 11.3023 4.76183 11.3024 4.36823 11.2649C3.95674 11.2258 3.57325 11.1409 3.22152 10.9254C2.87731 10.7144 2.5879 10.425 2.37697 10.0808C2.16142 9.72907 2.07653 9.34559 2.0374 8.9341C1.99998 8.54047 1.99999 8.05579 2 7.47506V7.40679C1.99999 6.52302 1.99999 5.81029 2.05454 5.23653C2.1108 4.64482 2.22996 4.12929 2.51405 3.6657C2.80168 3.19632 3.19632 2.80168 3.6657 2.51405C4.12929 2.22996 4.64482 2.1108 5.23653 2.05454C5.81029 1.99999 6.52307 1.99999 7.40684 2H7.4751C8.05583 1.99999 8.54047 1.99998 8.9341 2.0374Z" fill="#1C274C"/>
<path d="M16.5932 2H16.5249C15.9442 1.99999 15.4595 1.99998 15.0659 2.0374C14.6544 2.07653 14.2709 2.16142 13.9192 2.37697C13.575 2.5879 13.2856 2.87731 13.0746 3.22152C12.8591 3.57325 12.7742 3.95674 12.7351 4.36823C12.6976 4.76185 12.6977 5.24654 12.6977 5.82725L12.6977 6.93209C12.6976 7.76789 12.6976 8.46484 12.772 9.01812C12.8505 9.60212 13.0232 10.1294 13.4469 10.5531C13.8706 10.9768 14.3979 11.1495 14.9819 11.228C15.5352 11.3024 16.2321 11.3024 17.0679 11.3023L18.1728 11.3023C18.7535 11.3023 19.2382 11.3024 19.6318 11.2649C20.0433 11.2258 20.4267 11.1409 20.7785 10.9254C21.1227 10.7144 21.4121 10.425 21.623 10.0808C21.8386 9.72907 21.9235 9.34559 21.9626 8.9341C22 8.54048 22 8.05587 22 7.47517V7.40683C22 6.52304 22 5.8103 21.9455 5.23653C21.8892 4.64482 21.77 4.12929 21.486 3.6657C21.1983 3.19632 20.8037 2.80168 20.3343 2.51405C19.8707 2.22996 19.3552 2.1108 18.7635 2.05454C18.1897 1.99999 17.477 1.99999 16.5932 2Z" fill="#1C274C"/>
</g>
<path opacity="0.4" d="M14.0926 21.3024C14.0926 21.6877 13.7803 22.0001 13.3949 22.0001C13.0096 22.0001 12.6973 21.6877 12.6973 21.3024V18.5117H14.0926V21.3024Z" fill="#1C274C"/>
<path opacity="0.5" d="M21.3022 12.6978C20.9169 12.6978 20.6045 13.0101 20.6045 13.3954V16.6512H21.9998V13.3954C21.9998 13.0101 21.6875 12.6978 21.3022 12.6978Z" fill="#1C274C"/>
<path d="M16.0761 16.6173C16 16.8011 16 17.0341 16 17.5C16 17.9659 16 18.1989 16.0761 18.3827C16.1776 18.6277 16.3723 18.8224 16.6173 18.9239C16.8011 19 17.0341 19 17.5 19C17.9659 19 18.1989 19 18.3827 18.9239C18.6277 18.8224 18.8224 18.6277 18.9239 18.3827C19 18.1989 19 17.9659 19 17.5C19 17.0341 19 16.8011 18.9239 16.6173C18.8224 16.3723 18.6277 16.1776 18.3827 16.0761C18.1989 16 17.9659 16 17.5 16C17.0341 16 16.8011 16 16.6173 16.0761C16.3723 16.1776 16.1776 16.3723 16.0761 16.6173Z" fill="#1C274C"/>
<path opacity="0.7" d="M21.9996 18.5352V18.5117H20.6042C20.6042 18.9547 20.6039 19.252 20.5882 19.4822C20.5729 19.7061 20.5455 19.8152 20.5157 19.8869C20.3977 20.1718 20.1714 20.3982 19.8864 20.5162C19.8147 20.546 19.7056 20.5734 19.4817 20.5887C19.2515 20.6044 18.9542 20.6047 18.5112 20.6047H16.6508V22.0001H18.5347C18.9482 22.0001 19.2933 22.0001 19.5767 21.9808C19.8717 21.9606 20.1503 21.9173 20.4204 21.8054C21.0472 21.5457 21.5452 21.0477 21.8049 20.4209C21.9168 20.1508 21.9601 19.8722 21.9803 19.5772C21.9996 19.2938 21.9996 18.9487 21.9996 18.5352Z" fill="#1C274C"/>
<path opacity="0.6" d="M12.6973 16.6156V16.6512H14.0926C14.0926 15.9835 14.0935 15.5352 14.1282 15.1934C14.1618 14.8633 14.2212 14.7108 14.2886 14.6099C14.3734 14.4829 14.4824 14.3739 14.6094 14.2891C14.7103 14.2217 14.8628 14.1623 15.1929 14.1287C15.5347 14.0939 15.983 14.0931 16.6508 14.0931H18.5112V12.6978H16.6151C15.9922 12.6977 15.4725 12.6977 15.0517 12.7405C14.6113 12.7853 14.2025 12.8827 13.8342 13.1289C13.5549 13.3155 13.315 13.5553 13.1284 13.8347C12.8823 14.203 12.7848 14.6118 12.74 15.0522C12.6972 15.473 12.6973 15.9927 12.6973 16.6156Z" fill="#1C274C"/>
<path d="M5.50861 18.6903C5.72696 18.8452 6.03621 18.8452 6.65469 18.8452C7.27318 18.8452 7.58243 18.8452 7.80078 18.6903C7.87782 18.6356 7.9451 18.5683 7.99976 18.4913C8.15469 18.2729 8.15469 17.9637 8.15469 17.3452C8.15469 16.7267 8.15469 16.4175 7.99976 16.1991C7.9451 16.1221 7.87782 16.0548 7.80078 16.0001C7.58243 15.8452 7.27316 15.8452 6.65468 15.8452C6.0362 15.8452 5.72696 15.8452 5.50861 16.0001C5.43156 16.0548 5.36429 16.1221 5.30962 16.1991C5.15469 16.4175 5.15469 16.7267 5.15469 17.3452C5.15469 17.9637 5.15469 18.2729 5.30962 18.4913C5.36429 18.5683 5.43156 18.6356 5.50861 18.6903Z" fill="#1C274C"/>
<path d="M6.65454 8.15479C6.03605 8.15479 5.72681 8.15479 5.50846 7.99986C5.43141 7.94519 5.36414 7.87792 5.30947 7.80087C5.15454 7.58252 5.15454 7.27327 5.15454 6.65479C5.15454 6.0363 5.15454 5.72705 5.30947 5.5087C5.36414 5.43165 5.43141 5.36438 5.50846 5.30971C5.72681 5.15479 6.03605 5.15479 6.65454 5.15479C7.27303 5.15479 7.58227 5.15479 7.80063 5.30971C7.87767 5.36438 7.94494 5.43165 7.99961 5.5087C8.15454 5.72705 8.15454 6.0363 8.15454 6.65479C8.15454 7.27327 8.15454 7.58252 7.99961 7.80087C7.94494 7.87792 7.87767 7.94519 7.80063 7.99986C7.58227 8.15479 7.27303 8.15479 6.65454 8.15479Z" fill="#1C274C"/>
<path d="M16.1994 8.00024C16.4178 8.15517 16.727 8.15517 17.3455 8.15517C17.964 8.15517 18.2733 8.15517 18.4916 8.00024C18.5687 7.94558 18.6359 7.8783 18.6906 7.80126C18.8455 7.58291 18.8455 7.27366 18.8455 6.65517C18.8455 6.03668 18.8455 5.72744 18.6906 5.50909C18.6359 5.43204 18.5687 5.36477 18.4916 5.3101C18.2733 5.15517 17.964 5.15517 17.3455 5.15517C16.727 5.15517 16.4178 5.15517 16.1994 5.3101C16.1224 5.36477 16.0551 5.43204 16.0004 5.50909C15.8455 5.72744 15.8455 6.03671 15.8455 6.65519C15.8455 7.27367 15.8455 7.58291 16.0004 7.80126C16.0551 7.8783 16.1224 7.94558 16.1994 8.00024Z" fill="#1C274C"/>
</svg>
