<svg xmlns="http://www.w3.org/2000/svg" fill="none" viewBox="0 0 24 24" width="1em" height="1em"><path fill="currentColor" fill-rule="evenodd" d="M2 6.95c0-.883 0-1.324.07-1.692A4 4 0 0 1 5.257 2.07C5.626 2 6.068 2 6.95 2c.386 0 .58 0 .766.017a4 4 0 0 1 2.18.904c.144.119.28.255.554.529L11 4c.816.816 1.224 1.224 1.712 1.495a4 4 0 0 0 .848.352C14.098 6 14.675 6 15.828 6h.374c2.632 0 3.949 0 4.804.77q.119.105.224.224c.77.855.77 2.172.77 4.804V14c0 3.771 0 5.657-1.172 6.828S17.771 22 14 22h-4c-3.771 0-5.657 0-6.828-1.172S2 17.771 2 14zm11 2.3a.75.75 0 0 0 0 1.5h5a.75.75 0 0 0 0-1.5z" clip-rule="evenodd"/><path fill="currentColor" d="M16.284 3c.365 0 .548 0 .702.02 1.018.14 1.828.943 2.014 1.98a5 5 0 0 0-.461-.081c-.64-.084-1.448-.084-2.45-.084h-.334c-.942 0-1.3-.005-1.625-.101a2.5 2.5 0 0 1-.542-.233c-.296-.17-.552-.428-1.218-1.118L12 3z"/></svg>