<svg xmlns="http://www.w3.org/2000/svg" fill="none" viewBox="0 0 24 24" width="1em" height="1em"><path stroke="currentColor" stroke-width="1.5" d="M2 8c0-2.828 0-4.243.879-5.121C3.757 2 5.172 2 8 2h1c2.828 0 4.243 0 5.121.879C15 3.757 15 5.172 15 8v8c0 2.828 0 4.243-.879 5.121C13.243 22 11.828 22 9 22H8c-2.828 0-4.243 0-5.121-.879C2 20.243 2 18.828 2 16z"/><path stroke="currentColor" stroke-linecap="round" stroke-width="1.5" d="M17.5 10.007c1.86.026 2.914.164 3.621.872C22 11.757 22 13.172 22 16s0 4.243-.879 5.121c-.707.708-1.761.846-3.621.872M11 5H6m13 13v-4"/><path stroke="currentColor" stroke-width="1.5" d="M10 17.5a1.5 1.5 0 1 1-3 0 1.5 1.5 0 0 1 3 0Z"/><path stroke="currentColor" stroke-linecap="round" stroke-linejoin="round" stroke-width="1.5" d="M20.5 6.986 22 8c0-3.015-2.162-5.517-5-6"/></svg>