<svg xmlns="http://www.w3.org/2000/svg" fill="none" viewBox="0 0 24 24" width="1em" height="1em"><path fill="currentColor" d="M12.5 22h-1c-1.405 0-2.107 0-2.611-.337a2 2 0 0 1-.552-.552c-.14-.21-.222-.452-.27-.766q.244.038.495.063c.905.092 2.022.092 3.361.092h.154c1.339 0 2.456 0 3.361-.092q.25-.026.494-.063c-.047.314-.13.557-.27.766a2 2 0 0 1-.55.552C14.606 22 13.904 22 12.5 22m0-20h-1c-1.405 0-2.107 0-2.611.337a2 2 0 0 0-.552.552c-.14.21-.222.452-.27.766q.244-.038.495-.063c.905-.092 2.022-.092 3.361-.092h.154c1.339 0 2.456 0 3.361.092q.25.025.494.063c-.047-.314-.13-.557-.27-.766a2 2 0 0 0-.55-.552C14.606 2 13.904 2 12.5 2"/><path fill="currentColor" fill-rule="evenodd" d="M12 19c-2.809 0-4.213 0-5.222-.674a4 4 0 0 1-1.104-1.104C5 16.213 5 14.81 5 12s0-4.213.674-5.222a4 4 0 0 1 1.104-1.104C7.787 5 9.19 5 12 5s4.213 0 5.222.674a4 4 0 0 1 1.104 1.104C19 7.787 19 9.19 19 12s0 4.213-.674 5.222a4 4 0 0 1-1.104 1.104C16.213 19 14.81 19 12 19m.75-10a.75.75 0 0 0-1.5 0v3.077c0 .204.083.4.23.54l2 1.924a.75.75 0 1 0 1.04-1.082l-1.77-1.701z" clip-rule="evenodd"/></svg>