<svg width="24" height="24" viewBox="0 0 24 24" fill="none" xmlns="http://www.w3.org/2000/svg">
<path fill-rule="evenodd" clip-rule="evenodd" d="M8.88692 4.2907C6.9373 6.13374 4.75 9.3083 4.75 13.5041C4.75 17.1845 7.94921 20.25 12 20.25C16.0508 20.25 19.25 17.1845 19.25 13.5041C19.25 10.2368 17.571 7.61509 16.2748 6.22567C15.8821 7.05686 15.3158 8.0256 14.6004 8.82752C13.823 9.69896 12.7657 10.4863 11.4773 10.5057C10.6041 10.6043 9.51304 10.2586 8.92606 9.04902C8.42964 8.02601 8.35251 6.49245 8.88692 4.2907ZM10.0973 2.48177C10.5013 2.77613 10.7142 3.31077 10.555 3.85812C9.81189 6.41342 9.96504 7.75425 10.2756 8.39416C10.5457 8.95093 10.9793 9.05952 11.3291 9.01271L11.3786 9.00608H11.4286C12.1073 9.00608 12.806 8.58564 13.4811 7.82895C14.143 7.08694 14.681 6.13119 15.0352 5.32969C15.3609 4.59281 16.3992 4.22572 17.0905 4.9122C18.5794 6.39083 20.75 9.49535 20.75 13.5041C20.75 18.1034 16.7858 21.75 12 21.75C7.21423 21.75 3.25 18.1034 3.25 13.5041C3.25 8.20878 6.32627 4.40867 8.61092 2.53542C9.08007 2.15075 9.67925 2.17721 10.0973 2.48177Z" fill="#1C274C"/>
</svg>
