<svg width="24" height="24" viewBox="0 0 24 24" fill="none" xmlns="http://www.w3.org/2000/svg">
<path d="M12.7071 12.7071C12.3166 13.0977 11.6834 13.0977 11.2929 12.7071C10.9024 12.3166 10.9024 11.6834 11.2929 11.2929C11.6834 10.9024 12.3166 10.9024 12.7071 11.2929C13.0977 11.6834 13.0977 12.3166 12.7071 12.7071Z" fill="#1C274C"/>
<path d="M9.8787 8.4645C9.48818 8.85502 8.85501 8.85502 8.46449 8.4645C8.07396 8.07397 8.07396 7.44081 8.46449 7.05028C8.85501 6.65976 9.48818 6.65976 9.8787 7.05028C10.2692 7.44081 10.2692 8.07397 9.8787 8.4645Z" fill="#1C274C"/>
<path d="M16.9498 15.5356C16.5592 15.9261 15.9261 15.9261 15.5356 15.5356C15.145 15.145 15.145 14.5119 15.5356 14.1214C15.9261 13.7308 16.5592 13.7308 16.9498 14.1214C17.3403 14.5119 17.3403 15.145 16.9498 15.5356Z" fill="#1C274C"/>
<path fill-rule="evenodd" clip-rule="evenodd" d="M8.10424 4.31696C7.15363 4.15448 6.58663 4.33195 6.28927 4.62931C6.06621 4.85237 5.912 5.21872 5.91586 5.7984C5.91975 6.38185 6.08647 7.11932 6.43687 7.97172C7.13632 9.67325 8.50912 11.6909 10.4091 13.5909C12.3091 15.4909 14.3268 16.8637 16.0283 17.5632C16.8807 17.9136 17.6182 18.0803 18.2017 18.0842C18.7813 18.0881 19.1477 17.9338 19.3707 17.7108C19.6681 17.4134 19.8456 16.8464 19.6831 15.8958C19.5566 15.1561 19.2354 14.2749 18.7236 13.3126C18.5174 13.4193 18.2597 13.485 17.9626 13.4317C17.2419 13.3022 15.886 12.704 13.591 10.409C11.296 8.11408 10.6978 6.75818 10.5684 6.03741C10.515 5.74031 10.5808 5.48262 10.6875 5.27643C9.7252 4.76463 8.84398 4.44341 8.10424 4.31696ZM11.8357 4.19751C10.6153 3.49737 9.4223 3.02051 8.35697 2.83841C7.19066 2.63905 6.02362 2.77364 5.22861 3.56865C4.63671 4.16054 4.41028 4.9663 4.41589 5.8084C4.42148 6.64674 4.65435 7.58073 5.04951 8.54202C5.84115 10.4678 7.34323 12.6463 9.34847 14.6516C11.3537 16.6568 13.5322 18.1589 15.458 18.9505C16.4193 19.3457 17.3533 19.5786 18.1917 19.5842C19.0338 19.5898 19.8395 19.3633 20.4314 18.7714C21.2264 17.9764 21.361 16.8094 21.1616 15.6431C20.9795 14.5777 20.5027 13.3847 19.8025 12.1643C21.1906 10.0398 20.9518 7.16326 19.0861 5.29754L18.7025 4.91395C16.8368 3.04822 13.9602 2.80941 11.8357 4.19751ZM12.0794 5.91162C12.2071 6.33133 12.7101 7.40683 14.6517 9.34838C16.5932 11.2899 17.6687 11.7929 18.0884 11.9206C19.579 10.3624 19.558 7.89071 18.0254 6.3582L17.6419 5.97461C16.1093 4.44209 13.6377 4.4211 12.0794 5.91162ZM4.75218 10.7626C5.04507 11.0555 5.04507 11.5304 4.75218 11.8233L2.63086 13.9446C2.33796 14.2375 1.86309 14.2375 1.57019 13.9446C1.2773 13.6517 1.2773 13.1768 1.57019 12.8839L3.69151 10.7626C3.98441 10.4697 4.45928 10.4697 4.75218 10.7626ZM8.28771 15.7123C8.5806 16.0052 8.5806 16.4801 8.28771 16.773L4.16639 20.8943C3.8735 21.1872 3.39862 21.1872 3.10573 20.8943C2.81284 20.6014 2.81284 20.1266 3.10573 19.8337L7.22705 15.7123C7.51994 15.4195 7.99482 15.4195 8.28771 15.7123ZM13.2375 19.2479C13.5303 19.5408 13.5303 20.0156 13.2375 20.3085L11.1161 22.4299C10.8232 22.7227 10.3484 22.7227 10.0555 22.4299C9.76258 22.137 9.76258 21.6621 10.0555 21.3692L12.1768 19.2479C12.4697 18.955 12.9446 18.955 13.2375 19.2479Z" fill="#1C274C"/>
</svg>
