<svg width="24" height="24" viewBox="0 0 24 24" fill="none" xmlns="http://www.w3.org/2000/svg">
<path fill-rule="evenodd" clip-rule="evenodd" d="M12 22.0001C16.9706 22.0001 21 17.9707 21 13.0001C21 8.02954 16.9706 4.0001 12 4.0001C7.02945 4.0001 3.00001 8.02954 3.00001 13.0001C3.00001 17.9707 7.02945 22.0001 12 22.0001ZM15 12.2501C15.4142 12.2501 15.75 12.5859 15.75 13.0001C15.75 13.4143 15.4142 13.7501 15 13.7501L9.00001 13.7501C8.5858 13.7501 8.25001 13.4143 8.25001 13.0001C8.25001 12.5859 8.5858 12.2501 9.00001 12.2501L15 12.2501Z" fill="#1C274C"/>
<path fill-rule="evenodd" clip-rule="evenodd" d="M8.13603 1.6026C8.35556 1.95386 8.24878 2.41657 7.89753 2.6361L3.89751 5.1361C3.54625 5.35563 3.08354 5.24885 2.86401 4.8976C2.64448 4.54634 2.75126 4.08363 3.10251 3.8641L7.10253 1.3641C7.45379 1.14457 7.9165 1.25135 8.13603 1.6026ZM15.864 1.6026C16.0835 1.25135 16.5463 1.14457 16.8975 1.3641L20.8975 3.8641C21.2488 4.08363 21.3555 4.54635 21.136 4.8976C20.9165 5.24885 20.4538 5.35563 20.1025 5.1361L16.1025 2.6361C15.7513 2.41657 15.6445 1.95385 15.864 1.6026Z" fill="#1C274C"/>
</svg>
