<svg xmlns="http://www.w3.org/2000/svg" fill="none" viewBox="0 0 24 24" width="1em" height="1em"><path fill="currentColor" fill-rule="evenodd" d="M4.581 6.01c.691-1.015 2.134-.977 2.862-.1C8.425 7.092 9.81 8.25 12 8.25c2.228 0 3.59-.93 4.518-2.096.722-.907 2.26-1.053 3.015.023.619.88 1.295 1.581 2.63 1.877a.75.75 0 1 1-.325 1.464c-1.841-.408-2.799-1.436-3.532-2.478-.048-.07-.135-.12-.266-.118a.46.46 0 0 0-.348.166C16.517 8.565 14.741 9.75 12 9.75c-2.823 0-4.59-1.532-5.71-2.882l.576-.48-.576.48a.33.33 0 0 0-.261-.118.24.24 0 0 0-.207.104c-.746 1.097-1.704 2.23-3.66 2.664a.75.75 0 1 1-.324-1.464C3.25 7.74 3.926 6.974 4.58 6.01m0 5c.691-1.015 2.134-.977 2.862-.1.982 1.182 2.367 2.34 4.557 2.34 2.228 0 3.59-.93 4.518-2.096.722-.907 2.26-1.053 3.015.023.619.88 1.295 1.581 2.63 1.877a.75.75 0 1 1-.325 1.464c-1.841-.408-2.799-1.436-3.532-2.478-.048-.07-.135-.12-.266-.118a.46.46 0 0 0-.348.166c-1.174 1.477-2.95 2.662-5.691 2.662-2.823 0-4.59-1.532-5.71-2.882a.33.33 0 0 0-.261-.118.24.24 0 0 0-.207.104c-.746 1.097-1.704 2.23-3.66 2.664a.75.75 0 1 1-.324-1.464c1.412-.313 2.088-1.08 2.743-2.043m0 5c.691-1.015 2.134-.977 2.862-.1.982 1.182 2.367 2.34 4.557 2.34 2.228 0 3.59-.93 4.518-2.096.722-.907 2.26-1.053 3.015.023.619.88 1.295 1.581 2.63 1.877a.75.75 0 1 1-.325 1.464c-1.841-.408-2.799-1.436-3.532-2.478-.048-.07-.135-.12-.266-.118a.46.46 0 0 0-.348.166C16.517 18.565 14.741 19.75 12 19.75c-2.823 0-4.59-1.532-5.71-2.882a.33.33 0 0 0-.261-.118.24.24 0 0 0-.207.104c-.746 1.097-1.704 2.23-3.66 2.664a.75.75 0 1 1-.324-1.464c1.412-.313 2.088-1.08 2.743-2.043" clip-rule="evenodd"/></svg>