<svg xmlns="http://www.w3.org/2000/svg" fill="none" viewBox="0 0 24 24" width="1em" height="1em"><path fill="currentColor" fill-rule="evenodd" d="M14.995 7.542h-5.99c-3.037 0-4.556 0-5.409.987s-.652 2.511-.25 5.56l.38 2.892c.315 2.391.472 3.587 1.28 4.303.807.716 1.998.716 4.38.716h5.228c2.382 0 3.573 0 4.38-.716.808-.716.965-1.912 1.28-4.303l.38-2.892c.402-3.049.603-4.573-.25-5.56s-2.372-.987-5.41-.987m-4.347 4.578-.014.008h-.002c-.014.01-.07.044-.125.296-.064.29-.092.703-.136 1.364-.023.35-.037.687-.037.983s.014.632.037.983c.043.661.072 1.073.136 1.363.055.253.11.287.125.296h.002c.012.01.014.008.014.008a.5.5 0 0 0 .163-.032c.234-.075.548-.24 1.084-.53.257-.138.498-.276.708-.406.239-.148.504-.33.779-.529.533-.385.854-.62 1.056-.829.17-.175.179-.254.179-.324s-.01-.149-.18-.325c-.2-.207-.522-.443-1.055-.828-.275-.199-.54-.381-.78-.53a13 13 0 0 0-.707-.406c-.536-.289-.85-.455-1.084-.53a.5.5 0 0 0-.163-.032" clip-rule="evenodd"/><path fill="currentColor" d="M6.88 4.723c-1.252 0-2.278.84-2.62 1.953l-.021.07c.358-.12.731-.199 1.109-.253.972-.138 2.2-.138 3.628-.138h6.203c1.427 0 2.656 0 3.629.138.377.054.75.133 1.108.253l-.02-.07c-.343-1.114-1.369-1.953-2.62-1.953z" opacity=".7"/><path fill="currentColor" d="M8.859 2h6.282c.21 0 .37 0 .51.015a2.62 2.62 0 0 1 2.16 1.672H6.19a2.62 2.62 0 0 1 2.16-1.672C8.49 2 8.65 2 8.858 2" opacity=".4"/></svg>