<svg xmlns="http://www.w3.org/2000/svg" fill="none" viewBox="0 0 24 24" width="1em" height="1em"><path fill="currentColor" fill-rule="evenodd" d="M8.7 1.25h6.6c.22 0 .389 0 .536.016A2.75 2.75 0 0 1 18.29 3.87a2.886 2.886 0 0 1 2.052 2.887c.398.18.751.428 1.053.773.616.704.805 1.565.812 2.57.007.972-.157 2.202-.361 3.734l-.415 3.108c-.16 1.198-.289 2.168-.49 2.927-.209.79-.518 1.445-1.097 1.953-.58.507-1.27.726-2.08.83-.78.098-1.758.098-2.966.098H9.203c-1.209 0-2.187 0-2.966-.099-.811-.103-1.501-.322-2.08-.83-.58-.507-.889-1.162-1.098-1.952-.201-.76-.33-1.729-.49-2.927l-.414-3.108c-.205-1.532-.369-2.762-.362-3.733.008-1.006.196-1.867.812-2.571a3 3 0 0 1 1.053-.773A2.886 2.886 0 0 1 5.71 3.87a2.75 2.75 0 0 1 2.454-2.604c.147-.016.316-.016.535-.016m-1.468 2.5h9.536a1.25 1.25 0 0 0-1.092-.993 5 5 0 0 0-.417-.007H8.74c-.28 0-.361.001-.417.007a1.25 1.25 0 0 0-1.092.993m-2.05 2.617c.942-.117 2.139-.117 3.613-.117h6.412c1.474 0 2.67 0 3.613.117a1.38 1.38 0 0 0-1.357-1.117H6.538c-.683 0-1.235.49-1.357 1.117m.074 1.504c-.824.116-1.241.327-1.521.647s-.435.76-.44 1.593c-.007.854.141 1.979.355 3.583l.4 3c.168 1.26.286 2.134.46 2.79.168.637.366.973.635 1.209.27.235.63.387 1.282.47.673.086 1.556.087 2.827.087h5.494c1.271 0 2.154-.001 2.827-.087.653-.083 1.013-.235 1.282-.47.269-.236.467-.572.635-1.208.174-.657.292-1.531.46-2.791l.4-3c.214-1.604.362-2.729.356-3.583-.006-.832-.16-1.273-.44-1.593s-.698-.531-1.522-.647c-.846-.12-1.98-.121-3.598-.121H8.853c-1.618 0-2.752.002-3.598.12m7.284 3.108.055.03c.287.152.57.311.825.468.29.178.6.388.904.606l.05.034c.495.354.944.674 1.26.996.358.365.617.804.617 1.387 0 .584-.26 1.022-.618 1.387-.315.322-.764.642-1.26.996l-.049.035a16 16 0 0 1-.904.605 15 15 0 0 1-.825.468l-.055.03c-.488.26-.943.502-1.339.626-.46.145-.968.172-1.46-.151-.47-.309-.67-.771-.773-1.237-.095-.427-.13-.971-.171-1.585l-.004-.055A17 17 0 0 1 8.75 14.5c0-.35.017-.735.042-1.119l.004-.055c.04-.614.076-1.158.17-1.585.104-.466.305-.928.775-1.237.49-.322 1-.295 1.46-.151.395.124.85.367 1.338.626m-1.96.771-.015.008h-.002c-.014.01-.073.046-.13.308-.068.3-.098.728-.143 1.414a16 16 0 0 0-.039 1.02c0 .307.015.656.039 1.02.045.686.075 1.114.142 1.415.058.262.117.297.131.306l.002.001c.016.01.015.008.016.008.012 0 .06 0 .17-.034.246-.077.576-.25 1.14-.549.27-.144.524-.286.743-.422.251-.154.53-.343.819-.548.56-.4.898-.645 1.11-.86.178-.183.188-.264.188-.337s-.01-.154-.188-.336c-.212-.216-.55-.46-1.11-.86a15 15 0 0 0-.819-.55c-.22-.134-.474-.277-.743-.42-.564-.3-.894-.473-1.14-.55a.5.5 0 0 0-.17-.034" clip-rule="evenodd"/></svg>