<svg xmlns="http://www.w3.org/2000/svg" fill="none" viewBox="0 0 24 24" width="1em" height="1em"><path fill="currentColor" fill-rule="evenodd" d="M5.117 7.752a.75.75 0 0 1 .798.698l.46 6.9c.09 1.347.154 2.285.294 2.99.137.685.327 1.047.6 1.303.274.256.648.422 1.34.512.713.093 1.653.095 3.004.095h.774c1.35 0 2.29-.002 3.004-.095.692-.09 1.066-.256 1.34-.512.273-.256.463-.618.6-1.303.14-.705.204-1.643.294-2.99l.46-6.9a.75.75 0 1 1 1.497.1l-.464 6.952c-.085 1.282-.154 2.318-.316 3.132-.169.845-.455 1.55-1.047 2.104s-1.315.793-2.17.904c-.822.108-1.86.108-3.146.108h-.879c-1.285 0-2.323 0-3.146-.108-.854-.111-1.578-.35-2.17-.904-.59-.553-.877-1.26-1.046-2.104-.162-.814-.23-1.85-.316-3.132L4.418 8.55a.75.75 0 0 1 .699-.798m5.238-5.502h-.046c-.216 0-.405 0-.583.028a2.25 2.25 0 0 0-1.64 1.183c-.084.16-.143.339-.212.544l-.014.044-.097.29-.03.086A1.25 1.25 0 0 1 6.5 5.25h-3a.75.75 0 1 0 0 1.5h17a.75.75 0 0 0 0-1.5h-3.09a1.25 1.25 0 0 1-1.173-.91l-.097-.291-.015-.044c-.068-.205-.127-.384-.21-.544a2.25 2.25 0 0 0-1.641-1.183 4 4 0 0 0-.583-.028zm-1.21 2.685q-.06.163-.137.315h5.984a3 3 0 0 1-.137-.315l-.038-.113-.1-.3a3 3 0 0 0-.133-.368.75.75 0 0 0-.547-.395 3 3 0 0 0-.392-.009h-3.29c-.288 0-.348.002-.392.01a.75.75 0 0 0-.547.394c-.02.04-.042.095-.133.369l-.1.3z" clip-rule="evenodd"/></svg>