<svg xmlns="http://www.w3.org/2000/svg" fill="none" viewBox="0 0 24 24" width="1em" height="1em"><path fill="currentColor" fill-rule="evenodd" d="M17.952 2.874c-1.812-.406-4.017.2-5.658 1.84-1.58 1.58-2.658 4.174-2.583 6.272q.003.088.01.175c.184-.354.399-.712.627-1.063.971-1.493 2.316-3.043 3.229-3.956.914-.914 2.271-2.066 3.579-2.842.261-.155.528-.3.796-.426m3.127.047c-2.6-2.6-7.087-2.025-9.846.733-1.848 1.848-3.112 4.836-3.02 7.386.045 1.27.431 2.504 1.337 3.41.907.906 2.141 1.292 3.412 1.338 2.55.09 5.537-1.174 7.384-3.022 2.759-2.758 3.334-7.244.733-9.845m-1.06 1.06c-.046-.044-.178-.134-.587-.05-.403.083-.921.31-1.51.66-1.169.693-2.428 1.756-3.285 2.612s-2.13 2.327-3.031 3.713c-.455.698-.785 1.331-.937 1.83-.076.247-.095.422-.087.532a.3.3 0 0 0 .018.093l.011.018.017.01a.3.3 0 0 0 .094.019c.11.008.285-.01.533-.087.498-.152 1.131-.482 1.83-.936 1.386-.902 2.855-2.175 3.713-3.032.856-.856 1.919-2.115 2.612-3.284.35-.59.577-1.107.66-1.51.083-.41-.006-.542-.052-.587m-7.18 10.299c.354-.185.712-.4 1.063-.628 1.493-.97 3.043-2.315 3.956-3.228.915-.915 2.066-2.272 2.842-3.58.155-.26.3-.528.426-.796.407 1.812-.2 4.017-1.84 5.658-1.58 1.58-4.174 2.658-6.27 2.583z" clip-rule="evenodd"/><path fill="currentColor" d="M8.269 11.705c.141 1.029.535 1.998 1.281 2.744.747.747 1.717 1.141 2.745 1.282L6.86 21.166a2.847 2.847 0 0 1-4.026-4.026z" opacity=".5"/></svg>