<svg width="24" height="24" viewBox="0 0 24 24" fill="none" xmlns="http://www.w3.org/2000/svg">
<path opacity="0.6" d="M17 14.5C17 18.6421 13.6421 22 9.5 22C5.35786 22 2 18.6421 2 14.5C2 10.3579 5.35786 7 9.5 7C13.6421 7 17 10.3579 17 14.5Z" fill="#1C274C"/>
<path d="M16.6708 3.16451C16.4856 2.79403 16.0351 2.64386 15.6646 2.8291C15.2941 3.01434 15.144 3.46485 15.3292 3.83533L15.8292 4.83533C16.0144 5.20581 16.4649 5.35598 16.8354 5.17074C17.2059 4.9855 17.3561 4.53499 17.1708 4.16451L16.6708 3.16451Z" fill="#1C274C"/>
<path d="M19.8354 6.8291C19.4649 6.64386 19.0144 6.79403 18.8292 7.16451C18.644 7.53499 18.7941 7.9855 19.1646 8.17074L20.1646 8.67074C20.5351 8.85598 20.9856 8.70581 21.1708 8.33533C21.3561 7.96485 21.2059 7.51434 20.8354 7.3291L19.8354 6.8291Z" fill="#1C274C"/>
<path d="M20.5303 4.53025C20.8232 4.23736 20.8232 3.76248 20.5303 3.46959C20.2375 3.1767 19.7626 3.1767 19.4697 3.46959L18.4697 4.46959C18.1768 4.76248 18.1768 5.23736 18.4697 5.53025C18.7626 5.82314 19.2375 5.82314 19.5303 5.53025L20.5303 4.53025Z" fill="#1C274C"/>
<path d="M15.3071 9.75335L17.5302 7.53025C17.8231 7.23736 17.8231 6.76248 17.5302 6.46959C17.2373 6.1767 16.7625 6.1767 16.4696 6.46959L14.2465 8.69271C14.6343 9.01007 14.9898 9.36552 15.3071 9.75335Z" fill="#1C274C"/>
</svg>
