<svg width="24" height="24" viewBox="0 0 24 24" fill="none" xmlns="http://www.w3.org/2000/svg">
<path fill-rule="evenodd" clip-rule="evenodd" d="M2.27732 7.93412C-0.358717 10.5702 -0.358717 14.844 2.27732 17.4801C3.49943 18.7022 5.07536 19.3581 6.6749 19.4467C7.08848 19.4696 7.44233 19.1529 7.46524 18.7393C7.48815 18.3258 7.17145 17.9719 6.75787 17.949C5.51259 17.88 4.28911 17.3705 3.33798 16.4194C1.28773 14.3691 1.28773 11.045 3.33798 8.99478L6.16641 6.16635C8.21666 4.1161 11.5408 4.1161 13.591 6.16635C15.6413 8.2166 15.6413 11.5407 13.591 13.591L12.1768 15.0052C11.8839 15.2981 11.8839 15.773 12.1768 16.0658C12.4697 16.3587 12.9446 16.3587 13.2375 16.0658L14.6517 14.6516C17.2877 12.0156 17.2877 7.74173 14.6517 5.10569C12.0157 2.46965 7.74179 2.46965 5.10575 5.10569L2.27732 7.93412Z" fill="#1C274C"/>
<path opacity="0.5" d="M10.409 17.8336C8.35877 15.7834 8.35877 12.4593 10.409 10.409L11.8232 8.99481C12.1161 8.70191 12.1161 8.22704 11.8232 7.93415C11.5303 7.64125 11.0555 7.64125 10.7626 7.93415L9.34837 9.34836C6.71233 11.9844 6.71233 16.2583 9.34837 18.8943C11.9844 21.5303 16.2583 21.5303 18.8943 18.8943L21.7227 16.0659C24.3588 13.4298 24.3588 9.15597 21.7227 6.51993C20.5006 5.29783 18.9247 4.6419 17.3252 4.55329C16.9116 4.53038 16.5577 4.84708 16.5348 5.26066C16.5119 5.67424 16.8286 6.02809 17.2422 6.051C18.4875 6.11998 19.7109 6.62946 20.6621 7.58059C22.7123 9.63085 22.7123 12.955 20.6621 15.0052L17.8336 17.8336C15.7834 19.8839 12.4593 19.8839 10.409 17.8336Z" fill="#1C274C"/>
</svg>
