<svg xmlns="http://www.w3.org/2000/svg" fill="none" viewBox="0 0 24 24" width="1em" height="1em"><path stroke="currentColor" stroke-width="1.5" d="M19.313 8.902C21.104 10.218 22 10.875 22 12s-.896 1.783-2.687 3.098c-.495.363-.985.705-1.436.99-.396.25-.843.508-1.307.762-1.787.978-2.681 1.467-3.483.926-.801-.542-.874-1.675-1.02-3.943A29 29 0 0 1 12 12c0-.563.026-1.192.067-1.833.146-2.267.219-3.401 1.02-3.943.802-.541 1.696-.052 3.483.926.464.254.911.512 1.307.762.45.285.941.627 1.436.99Z"/><path stroke="currentColor" stroke-linecap="round" stroke-width="1.5" d="M11.906 8.386A35 35 0 0 0 9.961 7.23a35 35 0 0 0-1.77-.89C5.769 5.2 4.559 4.629 3.473 5.26a1.9 1.9 0 0 0-.721.74m9.154 9.614a35 35 0 0 1-1.945 1.155c-.536.292-1.142.593-1.77.89-2.422 1.14-3.632 1.711-4.718 1.08-1.086-.633-1.184-1.955-1.382-4.6A29 29 0 0 1 2 12c0-.657.035-1.39.091-2.139"/></svg>