<svg xmlns="http://www.w3.org/2000/svg" fill="none" viewBox="0 0 24 24" width="1em" height="1em"><path fill="currentColor" stroke="currentColor" stroke-linecap="round" stroke-width="1.5" d="M9.5 15.5v-.125c0-.483.392-.875.875-.875h3.25c.483 0 .875.392.875.875v.125a2.5 2.5 0 0 1-5 0Z" opacity=".5"/><path fill="currentColor" fill-rule="evenodd" d="M10.5 1.25h-.034c-.205 0-.427 0-.615.025-.219.03-.5.105-.735.341a1.24 1.24 0 0 0-.341.735c-.025.188-.025.41-.025.615v.568c0 .206 0 .427.025.615.03.219.105.5.341.735.236.236.516.312.735.341.188.025.41.025.615.025h.785l-.001.216v.568l.001.217-.216-.001h-.569c-.205 0-.427 0-.615.025-.219.03-.5.105-.735.341a1.24 1.24 0 0 0-.341.735c-.025.188-.025.41-.025.615v.568c0 .206 0 .427.025.615.03.219.105.5.341.735.236.236.516.311.735.341.188.025.41.025.615.025h.785l-.001.216v.568c0 .206 0 .427.025.615.03.219.105.5.341.735.236.236.516.311.735.341.188.025.41.025.615.025h.568c.206 0 .427 0 .615-.025.219-.03.5-.105.735-.341.236-.236.311-.516.341-.735.025-.188.025-.41.025-.614v-.569c0-.205 0-.427-.025-.615-.03-.219-.105-.5-.341-.735a1.24 1.24 0 0 0-.735-.341c-.188-.025-.41-.025-.614-.025h-.569l-.217.001.001-.217V7.75l.216.001h.568c.206 0 .427 0 .615-.025.219-.03.5-.105.735-.341.236-.236.311-.516.341-.735.025-.188.025-.41.025-.615v-.568c0-.206 0-.427-.025-.615-.03-.219-.105-.5-.341-.735a1.24 1.24 0 0 0-.735-.341c-.188-.025-.41-.025-.614-.025h-.569l-.217.001.001-.217v-.568c0-.206 0-.427-.025-.615-.03-.219-.105-.5-.341-.735a1.24 1.24 0 0 0-.735-.341c-.188-.025-.41-.025-.614-.025zM10.25 3l.001-.249.249-.001h.5l.249.001.001.249v.5l-.001.249L11 3.75h-.5l-.249-.001-.001-.249zm0 5 .001-.249.249-.001h.5l.249.001.001.249v.5l-.001.249L11 8.75h-.5l-.249-.001-.001-.249zm2.501-2.749-.001.249V6l.001.249.249.001h.5l.249-.001L13.75 6v-.5l-.001-.249-.249-.001H13zM12.75 10.5l.001-.249.249-.001h.5l.249.001.001.249v.5l-.001.249-.249.001H13l-.249-.001L12.75 11z" clip-rule="evenodd" opacity=".5"/><path stroke="currentColor" stroke-width="1.5" d="M3 10c0-3.771 0-5.657 1.172-6.828S7.229 2 11 2h2c3.771 0 5.657 0 6.828 1.172S21 6.229 21 10v4c0 3.771 0 5.657-1.172 6.828S16.771 22 13 22h-2c-3.771 0-5.657 0-6.828-1.172S3 17.771 3 14z"/></svg>