<svg width="24" height="24" viewBox="0 0 24 24" fill="none" xmlns="http://www.w3.org/2000/svg">
<path fill-rule="evenodd" clip-rule="evenodd" d="M4.92908 1.5304L4.97786 1.53719C5.26591 1.57726 5.52072 1.6127 5.73095 1.65772C5.95496 1.70569 6.18281 1.77484 6.40061 1.909C6.88292 2.20609 7.22125 2.68655 7.35882 3.23276C7.42804 3.50757 7.40909 3.86928 7.38832 4.13964C7.38196 4.2224 7.3742 4.30848 7.36549 4.39645L12.022 5.04441C12.0334 4.96606 12.0452 4.88952 12.0574 4.8159C12.1016 4.55011 12.1697 4.19276 12.3041 3.94248C12.5712 3.44506 13.0208 3.06598 13.5674 2.90804C13.814 2.83677 14.0532 2.83257 14.2809 2.84748C14.495 2.8615 14.7499 2.89698 15.0378 2.93705L15.0866 2.94384C15.3747 2.98391 15.6295 3.01936 15.8397 3.06438C16.0637 3.11234 16.2916 3.1815 16.5094 3.31566C16.9917 3.61275 17.33 4.0932 17.4676 4.63941C17.5286 4.88177 17.533 5.11883 17.5196 5.35409C17.5068 5.57796 17.4743 5.84625 17.4364 6.15802L17.0865 9.04285C17.0487 9.35456 17.0162 9.62293 16.9751 9.84299C16.9321 10.0738 16.871 10.3037 16.7526 10.5243C16.4855 11.0217 16.0359 11.4008 15.4893 11.5588C15.2427 11.63 15.0035 11.6342 14.7758 11.6193C14.5617 11.6053 14.3068 11.5698 14.0189 11.5298L13.9701 11.523C13.682 11.4829 13.4272 11.4475 13.217 11.4024C12.993 11.3545 12.7651 11.2853 12.5473 11.1512C12.065 10.8541 11.7267 10.3736 11.5891 9.8274C11.5199 9.55259 11.5388 9.19087 11.5596 8.92051C11.566 8.83776 11.5737 8.75168 11.5824 8.66371L6.92592 8.01574C6.91452 8.0941 6.90273 8.17064 6.89049 8.24426C6.84629 8.51005 6.7782 8.86739 6.64382 9.11768C6.37677 9.61509 5.92711 9.99418 5.38055 10.1521C5.13391 10.2234 4.89473 10.2276 4.66703 10.2127C4.4529 10.1987 4.19803 10.1632 3.9101 10.1231L3.86133 10.1163C3.57328 10.0762 3.31847 10.0408 3.10824 9.99578C2.88423 9.94781 2.65638 9.87866 2.43858 9.7445C1.95627 9.44741 1.61794 8.96695 1.48037 8.42074C1.41933 8.17839 1.41493 7.94134 1.42836 7.70607C1.44114 7.48219 1.47369 7.21388 1.51151 6.90209L1.86139 4.01726C1.89919 3.70556 1.93173 3.43721 1.9728 3.21716C2.01588 2.98632 2.07692 2.75644 2.19537 2.53582C2.46242 2.03841 2.91208 1.65932 3.45864 1.50138C3.70528 1.43011 3.94446 1.42591 4.17215 1.44082C4.38629 1.45484 4.64115 1.49032 4.92908 1.5304ZM4.07413 2.93761C3.92878 2.92809 3.88517 2.9395 3.87506 2.94242C3.73697 2.98232 3.60341 3.08431 3.51695 3.24535C3.50282 3.27165 3.47752 3.33064 3.44734 3.49236C3.41612 3.65961 3.38905 3.8799 3.34776 4.22029L3.00331 7.06037C2.96203 7.40071 2.93565 7.62118 2.92592 7.79155C2.91654 7.95587 2.92672 8.02173 2.93494 8.05438C2.98207 8.24152 3.09286 8.38579 3.22528 8.46735C3.238 8.47519 3.27984 8.49852 3.42232 8.52903C3.57268 8.56123 3.77272 8.58953 4.09239 8.63401C4.41214 8.67851 4.61219 8.70587 4.76506 8.71589C4.91041 8.72541 4.95403 8.714 4.96413 8.71108C5.10012 8.67178 5.23172 8.57228 5.31827 8.41546C5.31879 8.41328 5.3299 8.38557 5.34688 8.31855C5.36744 8.23736 5.38883 8.13036 5.41081 7.99821C5.45495 7.73278 5.4938 7.41363 5.53448 7.0782C5.55871 6.87847 5.66217 6.69684 5.82161 6.57414C5.98106 6.45143 6.18312 6.39793 6.3824 6.42566L12.5139 7.27888C12.9191 7.33526 13.2044 7.70592 13.1551 8.11202C13.1144 8.44743 13.0759 8.76665 13.0552 9.03542C13.0449 9.1692 13.0401 9.27871 13.0406 9.36318C13.041 9.43749 13.0457 9.46749 13.0454 9.46756C13.0934 9.65153 13.2031 9.79339 13.334 9.87401C13.3467 9.88185 13.3886 9.90518 13.5311 9.93569C13.6814 9.96789 13.8815 9.99619 14.2011 10.0407C14.5209 10.0852 14.7209 10.1125 14.8738 10.1225C15.0192 10.1321 15.0628 10.1207 15.0729 10.1177C15.211 10.0778 15.3445 9.97585 15.431 9.81481C15.4451 9.78851 15.4704 9.72952 15.5006 9.56779C15.5318 9.40055 15.5589 9.18025 15.6002 8.83987L15.9446 5.99978C15.9859 5.65945 16.0123 5.43899 16.022 5.26861C16.0314 5.10429 16.0212 5.03842 16.013 5.00577C15.9659 4.81864 15.8551 4.67437 15.7227 4.59281C15.7099 4.58497 15.6681 4.56164 15.5256 4.53113C15.3753 4.49893 15.1752 4.47063 14.8555 4.42614C14.5358 4.38165 14.3357 4.35428 14.1829 4.34427C14.0375 4.33475 13.9939 4.34616 13.9838 4.34908C13.8478 4.38838 13.7162 4.48788 13.6297 4.6447C13.6292 4.64686 13.618 4.67456 13.6011 4.74161C13.5805 4.8228 13.5591 4.9298 13.5371 5.06195C13.493 5.32738 13.4541 5.64652 13.4134 5.98196C13.3892 6.18169 13.2858 6.36331 13.1263 6.48602C12.9669 6.60873 12.7648 6.66223 12.5655 6.6345L6.434 5.78128C6.02883 5.7249 5.74357 5.35424 5.79283 4.94814C5.83351 4.61273 5.87208 4.29351 5.89272 4.02474C5.903 3.89095 5.90786 3.78145 5.90734 3.69698C5.90689 3.623 5.90225 3.59293 5.90258 3.5926C5.85453 3.40863 5.74479 3.26677 5.61391 3.18615C5.60119 3.17831 5.55935 3.15498 5.41687 3.12447C5.26651 3.09227 5.06647 3.06397 4.7468 3.01949C4.42705 2.97499 4.227 2.94762 4.07413 2.93761ZM19.1975 12.2463C19.0469 12.2779 18.8517 12.3334 18.5403 12.4228C18.2291 12.5121 18.0339 12.5686 17.8884 12.622C17.7506 12.6725 17.7101 12.7023 17.6962 12.7137C17.5717 12.8161 17.4787 12.9771 17.4535 13.1687C17.4539 13.1687 17.4529 13.1991 17.4617 13.2731C17.4716 13.3567 17.4899 13.4645 17.5166 13.5955C17.5702 13.8589 17.6478 14.1697 17.7295 14.4964C17.8276 14.8885 17.5974 15.2878 17.2089 15.3993L11.2365 17.1134C11.041 17.1695 10.8311 17.1439 10.6549 17.0422C10.4787 16.9406 10.3514 16.7718 10.302 16.5745C10.2203 16.2478 10.1424 15.9371 10.0659 15.6805C10.0279 15.5527 9.99355 15.45 9.96331 15.3728C9.9395 15.3121 9.92555 15.2864 9.92409 15.2831C9.82228 15.1451 9.68466 15.0679 9.54852 15.0487C9.53916 15.0474 9.4947 15.0421 9.35112 15.0723C9.20056 15.1039 9.00535 15.1594 8.69398 15.2488C8.38275 15.3381 8.18758 15.3946 8.04209 15.448C7.90426 15.4985 7.86376 15.5283 7.84981 15.5397C7.72395 15.6432 7.63027 15.8066 7.60638 16.001C7.60217 16.0353 7.60032 16.1022 7.62981 16.2632C7.66044 16.4305 7.71374 16.645 7.79669 16.9766L8.48871 19.743C8.57168 20.0746 8.62564 20.2889 8.67711 20.4499C8.72692 20.6057 8.75879 20.6589 8.77454 20.6809C8.87686 20.8237 9.01705 20.9035 9.15568 20.923C9.16504 20.9243 9.2095 20.9296 9.35308 20.8995C9.50365 20.8678 9.69886 20.8123 10.0102 20.7229C10.3214 20.6336 10.5166 20.5771 10.6621 20.5237C10.7999 20.4732 10.8405 20.4434 10.8544 20.432C10.9789 20.3297 11.0719 20.1687 11.097 19.9771C11.0966 19.977 11.0976 19.9466 11.0889 19.8727C11.0789 19.789 11.0606 19.6812 11.034 19.5502C10.9803 19.2869 10.9028 18.9761 10.821 18.6493C10.7229 18.2572 10.9532 17.8579 11.3417 17.7464L17.3141 16.0323C17.5096 15.9762 17.7195 16.0019 17.8956 16.1035C18.0718 16.2051 18.1992 16.3739 18.2486 16.5712C18.3303 16.898 18.4082 17.2086 18.4846 17.4652C18.5227 17.593 18.557 17.6957 18.5872 17.7729C18.611 17.8336 18.625 17.8593 18.6265 17.8626C18.7283 18.0006 18.8659 18.0778 19.002 18.097C19.0114 18.0983 19.0559 18.1036 19.1994 18.0735C19.35 18.0418 19.5452 17.9863 19.8566 17.8969C20.1678 17.8076 20.363 17.7511 20.5085 17.6977C20.6463 17.6472 20.6868 17.6174 20.7007 17.606C20.8266 17.5025 20.9203 17.3391 20.9442 17.1447C20.9484 17.1104 20.9502 17.0436 20.9207 16.8825C20.8901 16.7153 20.8368 16.5007 20.7539 16.1691L20.0618 13.4028C19.9789 13.0711 19.9249 12.8569 19.8734 12.6958C19.8236 12.54 19.7918 12.4868 19.776 12.4648C19.6737 12.322 19.5335 12.2423 19.3949 12.2227C19.3855 12.2214 19.341 12.2161 19.1975 12.2463ZM18.8891 10.7783C19.1123 10.7314 19.35 10.7015 19.6043 10.7374C20.1687 10.817 20.666 11.1315 20.9954 11.5913C21.1415 11.7953 21.2309 12.0161 21.3022 12.2391C21.3702 12.4516 21.4356 12.7132 21.5115 13.0166L22.2145 15.827C22.2905 16.1306 22.3559 16.3921 22.3962 16.6124C22.4387 16.8442 22.4635 17.0796 22.433 17.3277C22.3643 17.8864 22.0899 18.4058 21.6532 18.7648C21.4562 18.9267 21.2408 19.0269 21.025 19.106C20.8225 19.1803 20.5746 19.2514 20.2938 19.332L20.2467 19.3455C19.9661 19.4261 19.7181 19.4972 19.5078 19.5414C19.2846 19.5883 19.0469 19.6182 18.7926 19.5823C18.2282 19.5027 17.7309 19.1882 17.4015 18.7284C17.2356 18.4968 17.1234 18.15 17.047 17.8935C17.0272 17.8268 17.0074 17.7575 16.9877 17.6865L12.4472 18.9897C12.4676 19.0791 12.4867 19.1667 12.5038 19.2509C12.5579 19.5165 12.6212 19.8723 12.5866 20.1537C12.5179 20.7124 12.2436 21.2318 11.8068 21.5908C11.6098 21.7527 11.3944 21.8529 11.1787 21.932C10.9762 22.0063 10.7283 22.0774 10.4476 22.158L10.4003 22.1715C10.1198 22.252 9.87177 22.3232 9.66148 22.3674C9.4383 22.4143 9.20051 22.4442 8.94623 22.4083C8.38181 22.3287 7.8845 22.0142 7.55514 21.5544C7.40901 21.3505 7.31962 21.1296 7.24835 20.9066C7.18039 20.6941 7.11495 20.4325 7.03906 20.129L6.33606 17.3188C6.2601 17.0152 6.19467 16.7536 6.15434 16.5334C6.11189 16.3015 6.0871 16.0661 6.11759 15.818C6.18626 15.2593 6.46064 14.7399 6.89737 14.3809C7.09439 14.219 7.30979 14.1189 7.52554 14.0397C7.72802 13.9655 7.97595 13.8943 8.25676 13.8137L8.30381 13.8002C8.5844 13.7197 8.83243 13.6485 9.04273 13.6043C9.26591 13.5574 9.50369 13.5275 9.75797 13.5634C10.3224 13.643 10.8197 13.9575 11.1491 14.4173C11.315 14.6489 11.4271 14.9958 11.5035 15.2522C11.5234 15.3189 11.5432 15.3882 11.5628 15.4592L16.1033 14.156C16.083 14.0666 16.0639 13.9791 16.0467 13.8948C15.9927 13.6293 15.9293 13.2734 15.9639 12.992C16.0326 12.4333 16.307 11.9139 16.7437 11.5549C16.9407 11.393 17.1561 11.2929 17.3719 11.2137C17.5744 11.1395 17.8223 11.0683 18.1031 10.9877L18.1502 10.9742C18.4308 10.8937 18.6788 10.8225 18.8891 10.7783Z" fill="#1C274C"/>
</svg>
