<svg xmlns="http://www.w3.org/2000/svg" fill="none" viewBox="0 0 24 24" width="1em" height="1em"><path fill="currentColor" fill-rule="evenodd" d="m14.91 2.774 1.833 1.302c.54.383 1.012.718 1.341 1.033.351.336.666.765.666 1.35s-.315 1.014-.666 1.35c-.33.314-.801.65-1.341 1.033L12.295 12l4.448 3.158c.54.384 1.012.719 1.341 1.034.351.335.666.764.666 1.35 0 .584-.315 1.013-.666 1.349-.33.315-.801.65-1.341 1.034l-1.833 1.301c-.73.518-1.346.956-1.857 1.216-.52.265-1.155.465-1.79.14-.637-.326-.844-.959-.93-1.536-.083-.565-.083-1.318-.083-2.209v-5.396l-3.82 2.673a.75.75 0 0 1-.86-1.228L9.692 12 5.57 9.115a.75.75 0 1 1 .86-1.23l3.82 2.675V5.163c0-.89 0-1.644.084-2.21.085-.576.292-1.21.929-1.535.635-.325 1.27-.125 1.79.14.511.26 1.127.698 1.857 1.216m-3.16 10.679v5.323c0 .968.002 1.608.068 2.05.031.215.071.327.1.383a.2.2 0 0 0 .023.034l.005.004.007.002c.002 0 .015.003.043-.001.065-.01.182-.043.376-.142.4-.205.926-.575 1.72-1.138l1.737-1.235c.599-.425.978-.697 1.218-.926.114-.109.165-.18.187-.22.016-.03.016-.04.016-.045v-.002c0-.005 0-.015-.016-.044a1 1 0 0 0-.187-.22c-.24-.23-.62-.502-1.218-.927zm0-2.905V5.225c0-.97.002-1.61.068-2.051a1.3 1.3 0 0 1 .1-.383.2.2 0 0 1 .023-.034l.005-.004.007-.002a.2.2 0 0 1 .043.002c.065.009.182.042.376.141.4.205.926.576 1.72 1.139l1.737 1.234c.599.425.978.697 1.218.926.114.11.165.18.187.22.016.03.016.04.016.045v.002c0 .005 0 .015-.016.044-.022.04-.073.111-.187.22-.24.23-.62.502-1.218.927z" clip-rule="evenodd"/></svg>