<svg width="24" height="24" viewBox="0 0 24 24" fill="none" xmlns="http://www.w3.org/2000/svg">
<path fill-rule="evenodd" clip-rule="evenodd" d="M1.28845 2.76279C1.41943 2.36983 1.84417 2.15746 2.23713 2.28845L2.50204 2.37675C2.51524 2.38115 2.5284 2.38554 2.54151 2.38991C3.16789 2.59867 3.69722 2.7751 4.11345 2.96873C4.55589 3.17456 4.93978 3.42965 5.23088 3.83352C5.52197 4.2374 5.64258 4.68226 5.69793 5.16708C5.75 5.62318 5.74998 6.18114 5.74996 6.84139L5.74996 9.49996C5.74996 10.9354 5.75155 11.9365 5.85311 12.6918C5.95176 13.4256 6.13221 13.8142 6.40897 14.091C6.68573 14.3677 7.0743 14.5482 7.80808 14.6468C8.56343 14.7484 9.56454 14.75 11 14.75H18C18.4142 14.75 18.75 15.0857 18.75 15.5C18.75 15.9142 18.4142 16.25 18 16.25H10.9451C9.5775 16.25 8.47518 16.25 7.60821 16.1334C6.7081 16.0124 5.95023 15.7535 5.34831 15.1516C4.74639 14.5497 4.4875 13.7918 4.36648 12.8917C4.24992 12.0247 4.24994 10.9224 4.24996 9.55484L4.24996 6.883C4.24996 6.17 4.24883 5.69823 4.20761 5.33722C4.16858 4.99538 4.10043 4.83049 4.01401 4.71059C3.92759 4.59069 3.79272 4.47389 3.48076 4.32877C3.15131 4.17551 2.70411 4.02524 2.0277 3.79978L1.76279 3.71147C1.36983 3.58049 1.15746 3.15575 1.28845 2.76279Z" fill="#1C274C"/>
<path opacity="0.5" d="M5.74536 6C5.75033 6.25912 5.75032 6.53957 5.75031 6.8414L5.75031 9.5C5.75031 10.9354 5.7519 11.9365 5.85346 12.6919C5.86828 12.8021 5.88494 12.9046 5.9035 13H16.0223C16.9818 13 17.4615 13 17.8372 12.7523C18.2129 12.5045 18.4018 12.0636 18.7798 11.1818L19.2083 10.1818C20.0178 8.29294 20.4226 7.34853 19.978 6.67426C19.5334 6 18.5059 6 16.4509 6H5.74536Z" fill="#1C274C"/>
<path d="M7.25 9C7.25 8.58579 7.58579 8.25 8 8.25H11C11.4142 8.25 11.75 8.58579 11.75 9C11.75 9.41421 11.4142 9.75 11 9.75H8C7.58579 9.75 7.25 9.41421 7.25 9Z" fill="#1C274C"/>
<path d="M7.5 18C8.32843 18 9 18.6716 9 19.5C9 20.3284 8.32843 21 7.5 21C6.67157 21 6 20.3284 6 19.5C6 18.6716 6.67157 18 7.5 18Z" fill="#1C274C"/>
<path d="M18 19.5001C18 18.6716 17.3284 18.0001 16.5 18.0001C15.6716 18.0001 15 18.6716 15 19.5001C15 20.3285 15.6716 21.0001 16.5 21.0001C17.3284 21.0001 18 20.3285 18 19.5001Z" fill="#1C274C"/>
</svg>
