<svg width="24" height="24" viewBox="0 0 24 24" fill="none" xmlns="http://www.w3.org/2000/svg">
<path d="M7.24996 8.99996C7.24996 8.58575 7.58575 8.24996 7.99996 8.24996H11C11.4142 8.24996 11.75 8.58575 11.75 8.99996C11.75 9.41417 11.4142 9.74996 11 9.74996H7.99996C7.58575 9.74996 7.24996 9.41417 7.24996 8.99996Z" fill="#1C274C"/>
<path fill-rule="evenodd" clip-rule="evenodd" d="M1.28845 2.76279C1.41943 2.36983 1.84417 2.15746 2.23713 2.28845L2.54151 2.38991C3.16789 2.59867 3.69722 2.7751 4.11345 2.96873C4.55589 3.17456 4.93978 3.42965 5.23088 3.83352C5.52197 4.2374 5.64258 4.68226 5.69793 5.16708C5.70104 5.19434 5.70397 5.22197 5.70672 5.24996L16.5108 5.24996C17.4867 5.24992 18.3032 5.24989 18.9276 5.34233C19.579 5.43877 20.2073 5.66045 20.6035 6.26135C20.9998 6.86226 20.956 7.52707 20.7881 8.16381C20.6271 8.77416 20.3054 9.52459 19.921 10.4216L19.4541 11.5108C19.2775 11.9229 19.1222 12.2855 18.9607 12.5725C18.7859 12.8832 18.5725 13.1653 18.2495 13.3784C17.9264 13.5914 17.583 13.6764 17.2286 13.7147C16.9012 13.75 16.5068 13.75 16.0584 13.75H6.15353C6.22733 13.8839 6.31227 13.9943 6.40897 14.091C6.68573 14.3677 7.0743 14.5482 7.80808 14.6468C8.56343 14.7484 9.56454 14.75 11 14.75H19C19.4142 14.75 19.75 15.0857 19.75 15.5C19.75 15.9142 19.4142 16.25 19 16.25H10.9451C9.57751 16.25 8.47517 16.25 7.60821 16.1334C6.7081 16.0124 5.95023 15.7535 5.34831 15.1516C4.74639 14.5497 4.4875 13.7918 4.36648 12.8917C4.24992 12.0247 4.24994 10.9224 4.24996 9.55484L4.24996 6.883C4.24996 6.17 4.24883 5.69823 4.20761 5.33722C4.16858 4.99538 4.10043 4.83049 4.01401 4.71059C3.92759 4.59069 3.79272 4.47389 3.48076 4.32877C3.15131 4.17551 2.70411 4.02524 2.0277 3.79978L1.76279 3.71147C1.36983 3.58049 1.15746 3.15575 1.28845 2.76279ZM5.80669 12.25H16.0218C16.5177 12.25 16.8302 12.2489 17.0676 12.2233C17.2868 12.1997 17.3711 12.1608 17.4237 12.1261C17.4764 12.0914 17.5453 12.0292 17.6534 11.837C17.7704 11.629 17.8945 11.3421 18.0898 10.8863L18.5184 9.88628C18.9329 8.91908 19.2084 8.27127 19.3377 7.78121C19.4633 7.30498 19.3997 7.16045 19.3513 7.08709C19.3029 7.01373 19.1951 6.89828 18.7079 6.82616C18.2066 6.75193 17.5026 6.74996 16.4503 6.74996H5.74996C5.74996 6.7802 5.74996 6.81066 5.74996 6.84135L5.74996 9.49996C5.74996 10.6719 5.75102 11.5544 5.80669 12.25Z" fill="#1C274C"/>
<path fill-rule="evenodd" clip-rule="evenodd" d="M7.49996 21.75C6.25732 21.75 5.24996 20.7426 5.24996 19.5C5.24996 18.2573 6.25732 17.25 7.49996 17.25C8.7426 17.25 9.74996 18.2573 9.74996 19.5C9.74996 20.7426 8.7426 21.75 7.49996 21.75ZM6.74996 19.5C6.74996 19.9142 7.08575 20.25 7.49996 20.25C7.91417 20.25 8.24996 19.9142 8.24996 19.5C8.24996 19.0857 7.91417 18.75 7.49996 18.75C7.08575 18.75 6.74996 19.0857 6.74996 19.5Z" fill="#1C274C"/>
<path fill-rule="evenodd" clip-rule="evenodd" d="M14.25 19.5C14.25 20.7427 15.2573 21.75 16.5 21.75C17.7426 21.75 18.75 20.7427 18.75 19.5C18.75 18.2574 17.7426 17.25 16.5 17.25C15.2573 17.25 14.25 18.2574 14.25 19.5ZM16.5 20.25C16.0857 20.25 15.75 19.9142 15.75 19.5C15.75 19.0858 16.0857 18.75 16.5 18.75C16.9142 18.75 17.25 19.0858 17.25 19.5C17.25 19.9142 16.9142 20.25 16.5 20.25Z" fill="#1C274C"/>
</svg>
