<svg xmlns="http://www.w3.org/2000/svg" fill="none" viewBox="0 0 24 24" width="1em" height="1em"><path stroke="currentColor" stroke-linecap="round" stroke-linejoin="round" stroke-width="1.5" d="m7.5 10.5 2.5-2v7"/><path stroke="currentColor" stroke-linecap="round" stroke-width="1.5" d="M12.5 13.75v-3.5a1.75 1.75 0 1 1 3.5 0v3.5a1.75 1.75 0 1 1-3.5 0Z"/><path stroke="currentColor" stroke-linecap="round" stroke-linejoin="round" stroke-width="1.5" d="M10 4.5 12 2C6.477 2 2 6.477 2 12q.002 1.03.2 2M16 2.832C19.532 4.375 22 7.9 22 12c0 5.523-4.477 10-10 10a9.98 9.98 0 0 1-8-4"/></svg>