<svg width="24" height="24" viewBox="0 0 24 24" fill="none" xmlns="http://www.w3.org/2000/svg">
<path fill-rule="evenodd" clip-rule="evenodd" d="M9.61219 3.22512L9.68328 3.26565C10.4339 3.6936 11.1651 4.13302 11.8154 4.56108C12.5563 5.04885 13.3563 5.62994 14.1559 6.24149L14.2125 6.2848C15.5976 7.34401 16.7165 8.19966 17.4781 9.03122C18.2831 9.91006 18.75 10.8254 18.75 12.0002C18.75 13.175 18.2831 14.0904 17.4781 14.9692C16.7165 15.8008 15.5976 16.6564 14.2126 17.7156L14.1559 17.759C13.3563 18.3705 12.5563 18.9516 11.8154 19.4394C11.1651 19.8674 10.4339 20.3069 9.68328 20.7348L9.61216 20.7754C8.24294 21.556 7.11835 22.1972 6.17369 22.5153C5.15707 22.8577 4.20805 22.8729 3.30813 22.2396C2.44225 21.6302 2.03167 20.7127 1.79575 19.5713C1.56631 18.4612 1.47621 17.0005 1.36291 15.1634L1.35911 15.1018C1.29261 14.0239 1.25 12.9599 1.25 12.0002C1.25 11.0406 1.29261 9.97657 1.35911 8.89867L1.36291 8.83705C1.47621 6.99997 1.56631 5.53921 1.79575 4.42915C2.03167 3.28779 2.44225 2.37026 3.30813 1.76089C4.20805 1.12756 5.15707 1.14274 6.17369 1.48512C7.11835 1.80327 8.24296 2.44446 9.61219 3.22512ZM5.69493 2.90667C4.96107 2.65951 4.55393 2.71837 4.17141 2.98756C3.75486 3.28072 3.46595 3.75913 3.2647 4.73277C3.05955 5.72532 2.97425 7.07837 2.85626 8.99103C2.79091 10.0504 2.75 11.0816 2.75 12.0002C2.75 12.9189 2.79091 13.9501 2.85626 15.0094C2.97425 16.9221 3.05955 18.2751 3.2647 19.2677C3.46595 20.2413 3.75486 20.7197 4.17141 21.0129C4.55393 21.2821 4.96107 21.3409 5.69493 21.0938C6.48445 20.8279 7.48209 20.2631 8.94037 19.4317C9.67345 19.0138 10.3754 18.5915 10.9906 18.1865C11.692 17.7247 12.4617 17.1662 13.2447 16.5675C14.6999 15.4545 15.7108 14.678 16.372 13.9561C17.0003 13.2702 17.25 12.7001 17.25 12.0002C17.25 11.3003 17.0003 10.7303 16.372 10.0444C15.7108 9.32246 14.6999 8.54593 13.2447 7.43299C12.4617 6.83421 11.692 6.27576 10.9906 5.81397C10.3754 5.40898 9.67345 4.98669 8.94037 4.56876C7.48209 3.7374 6.48445 3.17256 5.69493 2.90667ZM22 4.25023C22.4142 4.25023 22.75 4.58601 22.75 5.00023V20.0002C22.75 20.4144 22.4142 20.7502 22 20.7502C21.5858 20.7502 21.25 20.4144 21.25 20.0002V5.00023C21.25 4.58601 21.5858 4.25023 22 4.25023Z" fill="#1C274C"/>
</svg>
