<svg xmlns="http://www.w3.org/2000/svg" fill="none" viewBox="0 0 24 24" width="1em" height="1em"><path fill="currentColor" fill-rule="evenodd" d="M5.25 6a4.75 4.75 0 1 1 9.5 0 4.75 4.75 0 0 1-9.5 0M10 2.75a3.25 3.25 0 1 0 0 6.5 3.25 3.25 0 0 0 0-6.5M4.678 13.52c1.4-.8 3.283-1.27 5.322-1.27s3.922.47 5.322 1.27c1.378.788 2.428 1.99 2.428 3.48s-1.05 2.692-2.428 3.48c-1.4.8-3.283 1.27-5.322 1.27s-3.922-.47-5.322-1.27C3.3 19.692 2.25 18.49 2.25 17s1.05-2.692 2.428-3.48m.744 1.303C4.267 15.483 3.75 16.28 3.75 17s.517 1.517 1.672 2.177c1.134.648 2.751 1.073 4.578 1.073s3.444-.425 4.578-1.073c1.155-.66 1.672-1.458 1.672-2.177s-.517-1.517-1.672-2.177c-1.134-.648-2.751-1.073-4.578-1.073s-3.444.425-4.578 1.073M22.75 9.697c0-1.097-.562-1.996-1.496-2.323-.729-.256-1.538-.111-2.254.36-.716-.471-1.525-.616-2.254-.36-.933.327-1.496 1.226-1.496 2.323 0 .77.441 1.45.875 1.952.453.525 1.014.984 1.474 1.321l.07.052c.352.26.752.556 1.331.556.58 0 .98-.296 1.33-.556l.07-.052c.46-.337 1.022-.796 1.475-1.32.434-.502.875-1.183.875-1.953m-3.231-.464c.525-.503.989-.531 1.24-.443.228.08.491.33.491.907 0 .214-.141.545-.51.971-.348.403-.809.786-1.226 1.093a4 4 0 0 1-.42.288c-.055.029-.07.029-.094.029s-.04 0-.094-.03a4 4 0 0 1-.42-.287c-.417-.307-.878-.69-1.227-1.093-.368-.426-.509-.757-.509-.971 0-.576.263-.827.492-.907.25-.088.714-.06 1.24.443a.75.75 0 0 0 1.037 0" clip-rule="evenodd"/></svg>