<svg width="24" height="24" viewBox="0 0 24 24" fill="none" xmlns="http://www.w3.org/2000/svg">
<path d="M21.6593 14.5882L20.9348 14.3941L21.6593 14.5882ZM9.41182 21.6592L9.21771 22.3837L9.41182 21.6592ZM2.34075 9.41179L1.61631 9.21767L2.34075 9.41179ZM14.5882 2.34072L14.3941 3.06517L14.5882 2.34072ZM11.5282 12.583C11.8501 12.8435 12.3224 12.7938 12.583 12.4718C12.8436 12.1499 12.7938 11.6776 12.4719 11.417L11.5282 12.583ZM5.00194 6.33588L5.47379 5.75291H5.47379L5.00194 6.33588ZM3.63596 6.51393L3.00875 6.10269L3.63596 6.51393ZM6.71834 2.63694C6.35758 2.84047 6.23012 3.29792 6.43365 3.65868C6.63719 4.01944 7.09463 4.1469 7.45539 3.94337L6.71834 2.63694ZM9.86584 5.59453C9.47285 5.72541 9.26036 6.15009 9.39125 6.54309C9.52213 6.93608 9.94681 7.14856 10.3398 7.01768L9.86584 5.59453ZM20.9348 14.3941C19.6126 19.3286 14.5405 22.257 9.60593 20.9348L9.21771 22.3837C14.9525 23.9203 20.8471 20.517 22.3837 14.7823L20.9348 14.3941ZM9.60593 20.9348C4.67137 19.6126 1.74298 14.5405 3.0652 9.6059L1.61631 9.21767C0.0796827 14.9524 3.48294 20.8471 9.21771 22.3837L9.60593 20.9348ZM14.3941 3.06517C19.3286 4.38738 22.257 9.45949 20.9348 14.3941L22.3837 14.7823C23.9203 9.04752 20.5171 3.1529 14.7823 1.61628L14.3941 3.06517ZM12.4719 11.417L5.47379 5.75291L4.53009 6.91886L11.5282 12.583L12.4719 11.417ZM3.0652 9.6059C3.32763 8.62647 3.73716 7.72739 4.26316 6.92517L3.00875 6.10269C2.39633 7.03673 1.92057 8.08215 1.61631 9.21767L3.0652 9.6059ZM7.45539 3.94337C9.49128 2.79477 11.9587 2.4126 14.3941 3.06517L14.7823 1.61628C11.9525 0.858039 9.08235 1.30323 6.71834 2.63694L7.45539 3.94337ZM5.47379 5.75291C4.74054 5.15943 3.58276 5.22723 3.00875 6.10269L4.26316 6.92517C4.28534 6.89133 4.31611 6.8716 4.36153 6.86611C4.41141 6.86008 4.47425 6.87366 4.53009 6.91886L5.47379 5.75291ZM17.25 12C17.25 14.8995 14.8995 17.25 12 17.25V18.75C15.7279 18.75 18.75 15.7279 18.75 12H17.25ZM12 17.25C9.10051 17.25 6.75001 14.8995 6.75001 12H5.25001C5.25001 15.7279 8.27209 18.75 12 18.75V17.25ZM12 6.74998C14.8995 6.74998 17.25 9.10048 17.25 12H18.75C18.75 8.27206 15.7279 5.24998 12 5.24998V6.74998ZM6.75001 12C6.75001 10.7313 7.19909 9.56942 7.94773 8.66183L6.79058 7.70736C5.8285 8.87373 5.25001 10.3703 5.25001 12H6.75001ZM10.3398 7.01768C10.8606 6.84422 11.4186 6.74998 12 6.74998V5.24998C11.2554 5.24998 10.5376 5.37082 9.86584 5.59453L10.3398 7.01768Z" fill="#1C274C"/>
</svg>
