<svg width="24" height="24" viewBox="0 0 24 24" fill="none" xmlns="http://www.w3.org/2000/svg">
<path d="M17.7868 6.21318C20.5482 8.9746 21.9289 10.3553 21.9289 12.071C21.9289 13.7868 20.5482 15.1675 17.7868 17.9289C15.0254 20.6903 13.6447 22.071 11.9289 22.071C10.2132 22.071 8.83248 20.6903 6.07106 17.9289C3.30964 15.1675 1.92892 13.7868 1.92892 12.071C1.92892 10.3553 3.30964 8.9746 6.07106 6.21318C8.83248 3.45176 10.2132 2.07104 11.9289 2.07104C13.0697 2.07105 14.0624 2.68147 15.4114 3.90231" stroke="#1C274C" stroke-width="1.5" stroke-linecap="round"/>
<path d="M16 11.5L13.3333 9M16 11.5L13.3333 14M16 11.5L10.6667 11.5C9.77778 11.5 8 12 8 14" stroke="#1C274C" stroke-width="1.5" stroke-linecap="round" stroke-linejoin="round"/>
</svg>
