<svg xmlns="http://www.w3.org/2000/svg" fill="none" viewBox="0 0 24 24" width="1em" height="1em"><path fill="currentColor" d="M14.868 8.412c.07-.03.102-.04.11-.043a.25.25 0 0 1 .254.157 1 1 0 0 1 .011.118c.007.117.007.276.007.527a7 7 0 0 1-.005.259.25.25 0 0 1-.093.15l-.038.023c-.04.022-.095.05-.191.097l-1.317.659c-.224.112-.366.183-.474.23a1 1 0 0 1-.11.042.25.25 0 0 1-.254-.157 1 1 0 0 1-.012-.117 11 11 0 0 1-.006-.528 7 7 0 0 1 .005-.258.25.25 0 0 1 .093-.151l.038-.022c.04-.022.095-.05.191-.098l1.317-.658c.224-.112.366-.183.474-.23M10 13.75a1.25 1.25 0 1 1 0 2.5 1.25 1.25 0 0 1 0-2.5"/><path fill="currentColor" fill-rule="evenodd" d="M7.236 2.879c-.817.878-.817 2.293-.817 5.121v8c0 2.828 0 4.243.817 5.121S9.369 22 12 22s3.947 0 4.764-.879c.817-.878.817-2.293.817-5.121V8c0-2.828 0-4.243-.817-5.121S14.631 2 12 2s-3.947 0-4.764.879m9.41 5.143a1.75 1.75 0 0 0-1.849-1.142c-.198.023-.377.09-.528.157-.149.064-.326.153-.53.255l-1.37.685a2.7 2.7 0 0 0-.432.251 1.75 1.75 0 0 0-.656 1.061 2.7 2.7 0 0 0-.031.5v2.761a2.75 2.75 0 1 0 1.5 2.45v-2.886q.222.033.453.006c.198-.023.377-.09.528-.156.149-.065.326-.154.53-.255l1.37-.685c.144-.073.298-.15.432-.252a1.75 1.75 0 0 0 .656-1.06c.031-.167.031-.338.031-.5v-.06c0-.226 0-.425-.009-.587a1.9 1.9 0 0 0-.096-.543" clip-rule="evenodd"/><path fill="currentColor" d="M6.724 3.762H5.268a8 8 0 0 0-.434.025c-.43.038-.82.119-1.183.318a3.15 3.15 0 0 0-1.321 1.42c-.186.39-.26.809-.296 1.272C2 7.245 2 7.796 2 8.47v7.063c0 .673 0 1.224.034 1.671.035.464.11.882.296 1.273.29.611.752 1.108 1.32 1.42.364.2.753.28 1.184.318q.202.018.434.025h1.456c-.304-.899-.304-2.203-.304-4.24V8c0-2.037 0-3.34.305-4.238m10.551 16.477c.306-.898.306-2.202.306-4.239V8c0-2.037 0-3.34-.305-4.238h1.455q.233.007.434.025c.43.038.82.119 1.183.318a3.15 3.15 0 0 1 1.322 1.42c.185.39.26.809.295 1.272.034.448.034.999.034 1.672v7.063c0 .673 0 1.224-.034 1.671-.035.464-.11.882-.296 1.273a3.15 3.15 0 0 1-1.32 1.42c-.364.2-.753.28-1.184.318a8 8 0 0 1-.434.025z" opacity=".5"/></svg>