<svg xmlns="http://www.w3.org/2000/svg" fill="none" viewBox="0 0 24 24" width="1em" height="1em"><path fill="currentColor" d="M2 12c0-4.714 0-7.071 1.464-8.536 1.177-1.176 2.93-1.407 6.017-1.453v2.05c0 .556-.476.998-.96 1.272-.915.519-1.56 1.707-1.56 2.758a2.519 2.519 0 0 0 5.039 0 2.519 2.519 0 0 0 5.038 0c0-1.051-.644-2.24-1.559-2.758-.484-.274-.96-.716-.96-1.272V2.01c3.088.046 4.84.277 6.016 1.453C22 4.93 22 7.286 22 12s0 7.071-1.465 8.535c-1.171 1.172-2.914 1.406-5.978 1.453v-2.003c0-.557.476-.999.96-1.273.915-.518 1.559-1.706 1.559-2.758a2.519 2.519 0 0 0-5.038 0 2.519 2.519 0 0 0-5.038 0c0 1.052.644 2.24 1.558 2.758.485.274.961.716.961 1.273v2.004c-3.111-.044-4.873-.272-6.055-1.454C2 19.072 2 16.714 2 12"/></svg>