<svg xmlns="http://www.w3.org/2000/svg" fill="none" viewBox="0 0 24 24" width="1em" height="1em"><path fill="currentColor" fill-rule="evenodd" d="M5.624 4.424C3.965 5.183 2.75 6.986 2.75 9.137c0 2.198.9 3.891 2.188 5.343 1.063 1.196 2.349 2.188 3.603 3.155q.448.344.885.687c.526.415.995.779 1.448 1.043s.816.385 1.126.385.674-.12 1.126-.385c.453-.264.922-.628 1.448-1.043q.437-.344.885-.687c1.254-.967 2.54-1.959 3.603-3.155 1.289-1.452 2.188-3.145 2.188-5.343 0-2.15-1.215-3.954-2.874-4.713-1.474-.673-3.41-.568-5.304 1.088L14.53 6.97a.75.75 0 1 1-1.06 1.061l-2-1.999-.01-.01C9.402 3.883 7.236 3.687 5.624 4.424M12 4.46C9.688 2.39 7.099 2.1 5 3.06 2.786 4.073 1.25 6.425 1.25 9.137c0 2.666 1.11 4.7 2.567 6.339 1.166 1.313 2.593 2.412 3.854 3.383q.43.33.826.64c.513.405 1.063.835 1.62 1.16.557.326 1.193.591 1.883.591s1.326-.265 1.883-.59c.558-.326 1.107-.756 1.62-1.16q.396-.311.826-.641c1.26-.971 2.688-2.07 3.854-3.383 1.457-1.64 2.567-3.673 2.567-6.339 0-2.712-1.535-5.064-3.75-6.077-2.099-.96-4.688-.67-7 1.399" clip-rule="evenodd"/></svg>