<svg xmlns="http://www.w3.org/2000/svg" fill="none" viewBox="0 0 24 24" width="1em" height="1em"><path stroke="currentColor" stroke-width="1.5" d="M3.34 17c2.76 4.783 8.877 6.422 13.66 3.66a9.96 9.96 0 0 0 4.197-4.731A9.99 9.99 0 0 0 20.66 7a9.99 9.99 0 0 0-7.464-4.929A9.96 9.96 0 0 0 7 3.34C2.217 6.1.578 12.217 3.34 17Z"/><path stroke="currentColor" stroke-dasharray="1.5 2" stroke-width="1.5" d="M13.196 2.071S12.098 6.17 14.598 10.5s6.599 5.429 6.599 5.429M2.803 8.07s4.099 1.1 6.599 5.43 1.402 8.429 1.402 8.429" opacity=".5"/></svg>