<svg xmlns="http://www.w3.org/2000/svg" fill="none" viewBox="0 0 24 24" width="1em" height="1em"><path fill="currentColor" fill-rule="evenodd" d="M12.939 4.736a.75.75 0 0 1 .815.679c.049.536.14 1.119.291 1.732a.75.75 0 0 1-1.456.361 13 13 0 0 1-.33-1.957.75.75 0 0 1 .68-.815m-7.7 4.445A.75.75 0 0 1 6.286 9c.496.35 1.016.768 1.53 1.263a.75.75 0 0 1-1.04 1.08 11.6 11.6 0 0 0-1.355-1.118.75.75 0 0 1-.18-1.045m8.597-.185a.75.75 0 0 1 1.001.351 11.6 11.6 0 0 0 .879 1.522.75.75 0 1 1-1.239.846 13 13 0 0 1-.992-1.718.75.75 0 0 1 .351-1m-5.355 3.092a.75.75 0 0 1 1.042.197 13 13 0 0 1 .992 1.718.75.75 0 1 1-1.352.65 12 12 0 0 0-.879-1.522.75.75 0 0 1 .197-1.043m7.684.587a.75.75 0 0 1 1.06-.02c.455.439.915.809 1.355 1.119A.75.75 0 0 1 17.715 15a13 13 0 0 1-1.53-1.264.75.75 0 0 1-.02-1.06m-5.662 3.27a.75.75 0 0 1 .908.547c.172.693.274 1.352.33 1.957a.75.75 0 1 1-1.495.136 11.6 11.6 0 0 0-.291-1.733.75.75 0 0 1 .547-.908" clip-rule="evenodd"/><path fill="currentColor" fill-rule="evenodd" d="M13.286 1.327c-2.23-.27-4.566.154-6.66 1.363C1.482 5.66-.279 12.233 2.69 17.375s9.543 6.903 14.685 3.935a10.7 10.7 0 0 0 4.512-5.087 10.74 10.74 0 0 0-.577-9.598 10.74 10.74 0 0 0-8.024-5.298m.494 1.754a.75.75 0 1 1-1.489-.179l.019-.148a9.2 9.2 0 0 0-4.935 1.235 9.2 9.2 0 0 0-3.537 3.656l.138.058a.75.75 0 1 1-.59 1.38l-.144-.06a9.23 9.23 0 0 0 .747 7.602 9.23 9.23 0 0 0 6.211 4.448l.02-.154a.75.75 0 0 1 1.49.179l-.02.148a9.2 9.2 0 0 0 4.935-1.235 9.2 9.2 0 0 0 3.537-3.656l-.138-.058a.75.75 0 0 1 .59-1.38q.075.033.144.06a9.23 9.23 0 0 0-.747-7.602 9.23 9.23 0 0 0-6.21-4.448q-.012.073-.02.154" clip-rule="evenodd"/></svg>