<svg xmlns="http://www.w3.org/2000/svg" fill="none" viewBox="0 0 24 24" width="1em" height="1em"><path stroke="currentColor" stroke-width="1.5" d="M22 17.5V11c0-3.771 0-5.657-1.172-6.828S17.771 3 14 3h-4C6.229 3 4.343 3 3.172 4.172S2 7.229 2 11v2c0 3.771 0 5.657 1.172 6.828S6.229 21 10 21h8" opacity=".5"/><path stroke="currentColor" stroke-width="1.5" d="M13 17c0-1.886 0-2.828.586-3.414S15.114 13 17 13h1c1.886 0 2.828 0 3.414.586S22 15.114 22 17s0 2.828-.586 3.414S19.886 21 18 21h-1c-1.886 0-2.828 0-3.414-.586S13 18.886 13 17Z"/><path stroke="currentColor" stroke-linecap="round" stroke-linejoin="round" stroke-width="1.5" d="M11.5 11.5v-3m0 3h-3m3 0-4-4"/></svg>