<svg width="24" height="24" viewBox="0 0 24 24" fill="none" xmlns="http://www.w3.org/2000/svg">
<path fill-rule="evenodd" clip-rule="evenodd" d="M15.583 1.4202C16.895 1.86174 17.7501 3.09626 17.7501 4.71479C17.7501 5.73233 17.1716 6.6689 16.527 7.41613C15.8644 8.18425 15.0257 8.87354 14.2921 9.4083C14.2607 9.43122 14.2295 9.45399 14.1986 9.47659C13.4866 9.99684 12.8992 10.426 12.0001 10.426C11.1009 10.426 10.5135 9.99683 9.80154 9.47658C9.77061 9.45398 9.73944 9.43121 9.708 9.40829C8.97441 8.87353 8.13575 8.18423 7.47311 7.41611C6.82851 6.6689 6.25006 5.73234 6.25006 4.71481C6.25006 3.09627 7.10508 1.86174 8.41713 1.4202C9.5362 1.0436 10.8388 1.29217 12.0001 2.13747C13.1613 1.29217 14.4639 1.0436 15.583 1.4202ZM15.1046 2.84186C14.4525 2.62242 13.4802 2.76439 12.5076 3.65837C12.2206 3.92214 11.7795 3.92214 11.4925 3.65837C10.5199 2.76439 9.5476 2.62242 8.89556 2.84186C8.27008 3.05235 7.75006 3.65617 7.75006 4.71481C7.75006 5.18237 8.03458 5.77057 8.60889 6.43631C9.16518 7.08116 9.90138 7.69302 10.5916 8.19616C11.4347 8.81078 11.6351 8.92602 12.0001 8.92602C12.365 8.92602 12.5654 8.81078 13.4085 8.19617C14.0987 7.69304 14.8349 7.08117 15.3912 6.43633C15.9655 5.77059 16.2501 5.18238 16.2501 4.71479C16.2501 3.65616 15.73 3.05235 15.1046 2.84186ZM8.68397 14.4482C10.5498 14.0867 12.5471 14.1679 14.1633 15.1318C14.3903 15.2672 14.6031 15.4359 14.7888 15.6445C15.1646 16.0666 15.3588 16.5914 15.3679 17.1174C15.5592 16.9941 15.7508 16.8571 15.9454 16.71L17.7526 15.3449C18.6572 14.6615 19.9718 14.6614 20.8765 15.3445C21.7125 15.9757 22.0457 17.1085 21.4473 18.0678C21.022 18.7495 20.3815 19.6925 19.7296 20.2962C19.0707 20.9065 18.1329 21.4196 17.4236 21.762C16.5621 22.1778 15.6316 22.4077 14.7269 22.5542C12.8777 22.8535 10.9535 22.8077 9.12505 22.431C8.19064 22.2385 7.21961 22.1384 6.25999 22.1384H4.00006C3.58585 22.1384 3.25006 21.8026 3.25006 21.3884C3.25006 20.9742 3.58585 20.6384 4.00006 20.6384H6.25999C7.3221 20.6384 8.39454 20.749 9.42772 20.9618C11.0798 21.3022 12.8202 21.3433 14.4872 21.0734C15.3161 20.9392 16.0901 20.74 16.7715 20.4111C17.4549 20.0813 18.2233 19.6468 18.7104 19.1957C19.2029 18.7395 19.7541 17.9479 20.1747 17.2738C20.3016 17.0704 20.284 16.7767 19.9727 16.5416C19.6029 16.2625 19.0264 16.2625 18.6567 16.5417L16.8496 17.9069C16.1281 18.4519 15.2402 19.0349 14.1388 19.2106C14.0276 19.2283 13.9119 19.2445 13.7918 19.2588C13.7345 19.2692 13.6749 19.276 13.6133 19.2783C13.051 19.3342 12.3998 19.3472 11.6813 19.2794C11.2689 19.2404 10.9662 18.8745 11.0051 18.4622C11.0441 18.0498 11.41 17.7471 11.8223 17.786C12.4498 17.8452 13.0127 17.8322 13.4903 17.7831C13.5 17.7821 13.5096 17.7811 13.5192 17.7801C13.5392 17.7685 13.5697 17.7474 13.6096 17.7125C13.9291 17.4337 13.9576 16.9667 13.6684 16.6419C13.5951 16.5595 13.5049 16.4856 13.3949 16.4201C12.2138 15.7156 10.6363 15.5979 8.96927 15.9208C7.31174 16.2419 5.66497 16.9817 4.43392 17.8547C4.09604 18.0943 3.6279 18.0147 3.38828 17.6768C3.14867 17.3389 3.22833 16.8708 3.5662 16.6312C4.96457 15.6395 6.80866 14.8115 8.68397 14.4482Z" fill="#1C274C"/>
</svg>
