<svg width="24" height="24" viewBox="0 0 24 24" fill="none" xmlns="http://www.w3.org/2000/svg">
<path opacity="0.5" d="M3.46447 3.46447C2 4.92893 2 7.28595 2 12C2 12.8185 2 13.5659 2.00767 14.25H5L5.10773 14.2499C5.63376 14.2491 6.10075 14.2483 6.52918 14.4319C6.9576 14.6155 7.27913 14.9542 7.64131 15.3357L7.71552 15.4138L8.85712 16.6125C8.9656 16.7264 9.14832 16.7141 9.24061 16.5867L12.8944 11.5435C13.0432 11.3379 13.1985 11.1233 13.3518 10.9653C13.5272 10.7844 13.7992 10.5708 14.1937 10.5527C14.5882 10.5346 14.8787 10.7223 15.0699 10.8863C15.2371 11.0297 15.4114 11.229 15.5785 11.4201L17.3823 13.4816C17.868 14.0368 17.9718 14.1316 18.085 14.183C18.1982 14.2343 18.3379 14.25 19.0756 14.25H21.9923C22 13.5659 22 12.8185 22 12C22 7.28595 22 4.92893 20.5355 3.46447C19.0711 2 16.714 2 12 2C7.28595 2 4.92893 2 3.46447 3.46447Z" fill="#1C274C"/>
<path d="M2.00769 14.25C2.04417 17.5057 2.2543 19.3254 3.46449 20.5356C4.92896 22 7.28598 22 12 22C16.7141 22 19.0711 22 20.5356 20.5356C21.7457 19.3254 21.9559 17.5057 21.9924 14.25H19.0756C18.3379 14.25 18.1983 14.2344 18.0851 14.183C17.9718 14.1316 17.8681 14.0368 17.3823 13.4817L15.5785 11.4202C15.4114 11.229 15.2371 11.0297 15.0699 10.8863C14.8787 10.7223 14.5883 10.5346 14.1938 10.5527C13.7992 10.5709 13.5273 10.7844 13.3519 10.9653C13.1986 11.1234 13.0433 11.3379 12.8944 11.5435L9.24063 16.5868C9.14835 16.7141 8.96562 16.7264 8.85714 16.6125L7.71554 15.4138L7.64133 15.3357C7.27915 14.9542 6.95762 14.6156 6.5292 14.4319C6.10078 14.2483 5.63379 14.2491 5.10775 14.2499L5.00003 14.25H2.00769Z" fill="#1C274C"/>
</svg>
