<svg width="24" height="24" viewBox="0 0 24 24" fill="none" xmlns="http://www.w3.org/2000/svg">
<path fill-rule="evenodd" clip-rule="evenodd" d="M15.0923 1.25H8.90776C7.33849 1.24998 6.0802 1.24996 5.10565 1.38767C4.0979 1.53007 3.25967 1.83575 2.64206 2.55292C2.02445 3.27008 1.84649 4.14438 1.85516 5.1621C1.86354 6.1463 2.05021 7.39066 2.28302 8.94256L3.49925 17.0508C3.67574 18.2275 3.81866 19.1804 4.02837 19.9262C4.2467 20.7027 4.56033 21.3453 5.1365 21.8415C5.71267 22.3377 6.39473 22.5525 7.19501 22.6533C7.96364 22.75 8.9272 22.75 10.1171 22.75H13.8829C15.0728 22.75 16.0364 22.75 16.805 22.6533C17.6053 22.5525 18.2874 22.3377 18.8635 21.8415C19.4397 21.3453 19.7533 20.7027 19.9717 19.9262C20.1814 19.1805 20.3243 18.2276 20.5008 17.0509L21.717 8.94253C21.9498 7.39065 22.1365 6.14629 22.1449 5.1621C22.1536 4.14438 21.9756 3.27008 21.358 2.55292C20.7404 1.83575 19.9021 1.53007 18.8944 1.38767C17.9198 1.24996 16.6616 1.24998 15.0923 1.25ZM3.77867 3.53175C4.0587 3.20658 4.47915 2.9911 5.31552 2.87292C6.17283 2.75177 7.32467 2.75 8.96715 2.75H15.0329C16.6754 2.75 17.8272 2.75177 18.6845 2.87292C19.5209 2.9911 19.9413 3.20658 20.2214 3.53175C20.5014 3.85692 20.6521 4.30468 20.6449 5.14933C20.6447 5.18248 20.6441 5.21604 20.6434 5.25H20.5003C20.5001 5.25 20.5005 5.25 20.5003 5.25H7.00033C7.00013 5.25 7.00053 5.25 7.00033 5.25H3.35666C3.3559 5.21603 3.35539 5.18248 3.3551 5.14933C3.34791 4.30468 3.49864 3.85692 3.77867 3.53175ZM5.18937 6.75H3.48534C3.53675 7.15852 3.60149 7.61096 3.67619 8.1155L3.75003 8.18934L5.18937 6.75ZM4.05001 10.6106L4.66848 14.7338L6.37587 12.9365L4.05001 10.6106ZM5.15647 17.9593C5.17262 18.0594 5.1886 18.1563 5.20451 18.25H5.39875L5.15647 17.9593ZM6.99514 19.75C6.99867 19.75 7.00219 19.75 7.00572 19.75H13.9971C13.9989 19.75 14.0008 19.75 14.0026 19.75H18.4576C18.2989 20.2287 18.1175 20.5044 17.8847 20.7049C17.617 20.9355 17.2608 21.0841 16.6177 21.165C15.9537 21.2486 15.0848 21.25 13.8329 21.25H10.1671C8.91526 21.25 8.04639 21.2486 7.38235 21.165C6.73922 21.0841 6.38309 20.9355 6.11533 20.7049C5.88254 20.5044 5.70115 20.2287 5.54243 19.75H6.99514ZM15.713 18.25H18.1894L16.9017 16.9623L15.713 18.25ZM19.0006 16.9399C19.0086 16.8869 19.0166 16.8332 19.0248 16.7788L19.4039 14.2515L17.9199 15.8592L19.0006 16.9399ZM19.8559 11.2381L20.2248 8.77879C20.3196 8.14673 20.4031 7.5881 20.4702 7.09045L18.1599 9.40079L19.8559 11.2381ZM18.6894 6.75H15.713L17.1417 8.2977L18.6894 6.75ZM12.253 6.75H8.81069L10.576 8.51531L12.253 6.75ZM11.6894 18.25H9.31069L10.5 17.0607L11.6894 18.25ZM7.40933 11.8486L4.81069 9.25L7.00003 7.06066L9.54254 9.60317L7.40933 11.8486ZM8.47034 12.9097L10.6035 10.6642L12.6894 12.75L10.5 14.9393L8.47034 12.9097ZM11.5607 16L13.75 13.8107L15.8402 15.9008L13.7384 18.1777L11.5607 16ZM14.8107 12.75L16.8584 14.7977L18.9793 12.5L17.0984 10.4623L14.8107 12.75ZM13.75 11.6893L16.0802 9.35921L13.9922 7.09721L11.637 9.57632L13.75 11.6893ZM7.43688 13.9975L9.43937 16L7.2777 18.1617L5.50351 16.0326L7.43688 13.9975Z" fill="#1C274C"/>
</svg>
