<svg width="24" height="24" viewBox="0 0 24 24" fill="none" xmlns="http://www.w3.org/2000/svg">
<path d="M19.8159 12.236C22.3733 9.67866 22.7721 5.67503 20.5485 3.45154C18.3249 1.22806 14.3211 1.62672 11.7637 4.18408C9.20626 6.74143 7.85707 11.6956 10.0806 13.9191C12.3042 16.1425 17.2585 14.7934 19.8159 12.236Z" stroke="#1C274C" stroke-width="1.5"/>
<path opacity="0.5" d="M12.8991 15.127L6.85994 21.1659C5.74816 22.2777 3.94561 22.2777 2.83383 21.1659C1.72206 20.0542 1.72206 18.2517 2.83383 17.14L8.87299 11.101" stroke="#1C274C" stroke-width="1.5"/>
<path opacity="0.5" d="M20.5485 3.45138C21.7566 4.65945 19.0985 8.12273 17.3279 9.89321C15.5574 11.6637 11.2888 15.127 10.0807 13.9189C8.87255 12.7108 12.3365 8.44291 14.107 6.67243C15.8776 4.90196 19.3404 2.24331 20.5485 3.45138Z" stroke="#1C274C" stroke-width="1.5"/>
</svg>
