<svg width="24" height="24" viewBox="0 0 24 24" fill="none" xmlns="http://www.w3.org/2000/svg">
<circle cx="12" cy="20" r="2" fill="#1C274C"/>
<circle cx="6" cy="6" r="2" fill="#1C274C"/>
<path fill-rule="evenodd" clip-rule="evenodd" d="M12 1.25C12.2508 1.25 12.4849 1.37533 12.624 1.58397L14.624 4.58397C14.8538 4.92862 14.7607 5.39427 14.416 5.62404C14.0714 5.8538 13.6057 5.76067 13.376 5.41603L12 3.35208L10.624 5.41603C10.3943 5.76067 9.92862 5.8538 9.58397 5.62404C9.23933 5.39427 9.1462 4.92862 9.37596 4.58397L11.376 1.58397C11.5151 1.37533 11.7492 1.25 12 1.25Z" fill="#1C274C"/>
<path d="M16 8C16 7.05719 16 6.58579 16.2929 6.29289C16.5858 6 17.0572 6 18 6C18.9428 6 19.4142 6 19.7071 6.29289C20 6.58579 20 7.05719 20 8C20 8.94281 20 9.41421 19.7071 9.70711C19.4142 10 18.9428 10 18 10C17.0572 10 16.5858 10 16.2929 9.70711C16 9.41421 16 8.94281 16 8Z" fill="#1C274C"/>
<g opacity="0.5">
<path d="M12.0078 1.25012C12.1697 1.25178 12.3194 1.30474 12.4412 1.39353C12.3168 1.30306 12.1658 1.25175 12.0078 1.25012Z" fill="#1C274C"/>
<path d="M12.6155 1.57145L12.6241 1.58406L12.627 1.58833L12.6155 1.57145Z" fill="#1C274C"/>
<path d="M12.0001 3.35216L12.75 4.47704V14.992C12.8713 14.9301 12.9983 14.8767 13.1304 14.8327L16.3953 13.7444C16.9057 13.5743 17.25 13.0966 17.25 12.5586V10.0001L17.2501 9.99132C17.4605 10.0001 17.7076 10.0001 18 10.0001C18.2924 10.0001 18.5395 10.0001 18.7499 9.99132L18.75 10.0001V12.5586C18.75 13.7422 17.9926 14.7931 16.8696 15.1674L13.6047 16.2557C13.0943 16.4259 12.75 16.9036 12.75 17.4416V18.1454C12.5184 18.0517 12.2652 18.0001 12 18.0001C11.7348 18.0001 11.4816 18.0517 11.25 18.1454V14.4416C11.25 13.9036 10.9057 13.4259 10.3953 13.2557L7.13037 12.1674C6.00743 11.7931 5.25 10.7422 5.25 9.55856V7.85468C5.48161 7.94843 5.73477 8.00006 6 8.00006C6.26523 8.00006 6.51839 7.94843 6.75 7.85468V9.55856C6.75 10.0966 7.09429 10.5743 7.60472 10.7444L10.8696 11.8327C11.0017 11.8767 11.1287 11.9301 11.25 11.992V4.47728L12.0001 3.35216Z" fill="#1C274C"/>
</g>
</svg>
