<svg xmlns="http://www.w3.org/2000/svg" fill="none" viewBox="0 0 24 24" width="1em" height="1em"><path stroke="currentColor" stroke-linecap="round" stroke-width="1.5" d="M9 22h6m-3 0v-7m0-13c2.423 0 3.635 0 4.582.566a4 4 0 0 1 .757.585c.786.775 1.09 1.948 1.7 4.294l.084.324c.827 3.189 1.241 4.783.49 5.903a3 3 0 0 1-.247.319C18.47 15 16.823 15 13.529 15h-3.058c-3.295 0-4.942 0-5.837-1.01q-.135-.15-.247-.318c-.752-1.12-.338-2.714.49-5.903l.084-.324c.61-2.346.914-3.519 1.7-4.294a4 4 0 0 1 .757-.585A3 3 0 0 1 8 2.298M17.5 15v2"/></svg>