<svg xmlns="http://www.w3.org/2000/svg" fill="none" viewBox="0 0 24 24" width="1em" height="1em"><path fill="currentColor" d="M9.608 1.517c.77-.175 1.57-.267 2.392-.267 5.937 0 10.75 4.813 10.75 10.75S17.937 22.75 12 22.75c-.821 0-1.622-.092-2.392-.267a.75.75 0 1 1 .332-1.463 9.25 9.25 0 1 0 0-18.04.75.75 0 1 1-.332-1.463" opacity=".5"/><path fill="currentColor" d="M7.314 3.132a.75.75 0 0 1-.235 1.034 9.3 9.3 0 0 0-2.913 2.912.75.75 0 0 1-1.27-.799A10.8 10.8 0 0 1 6.28 2.897a.75.75 0 0 1 1.035.235M3.132 16.686a.75.75 0 0 1 1.034.235 9.3 9.3 0 0 0 2.913 2.913.75.75 0 1 1-.8 1.269 10.8 10.8 0 0 1-3.382-3.383.75.75 0 0 1 .235-1.034"/><path fill="currentColor" d="M2.98 9.94a.75.75 0 1 0-1.463-.333c-.175.77-.267 1.571-.267 2.393s.092 1.622.267 2.392a.75.75 0 0 0 1.463-.332A9.3 9.3 0 0 1 2.75 12c0-.709.08-1.398.23-2.06" opacity=".5"/><path fill="currentColor" d="M15.5 12c0-.75-.537-1.188-1.612-2.065-.297-.242-.591-.47-.862-.66a15 15 0 0 0-.784-.508c-1.073-.652-1.609-.978-2.09-.617-.48.36-.524 1.116-.612 2.628-.024.427-.04.846-.04 1.222s.016.795.04 1.222c.088 1.512.132 2.267.612 2.628.481.361 1.018.035 2.09-.617.278-.169.547-.341.784-.508.27-.19.565-.418.862-.66C14.963 13.188 15.5 12.75 15.5 12"/></svg>