<svg width="24" height="24" viewBox="0 0 24 24" fill="none" xmlns="http://www.w3.org/2000/svg">
<path fill-rule="evenodd" clip-rule="evenodd" d="M1.81803 5.27233C2.21988 5.17186 2.62708 5.41619 2.72754 5.81803L3.10951 7.3459C3.71932 9.78517 5.64101 11.6764 8.08446 12.2499H15.9999C18.091 12.2499 19.851 13.815 20.0953 15.8918L20.7448 21.4123C20.7932 21.8237 20.4989 22.1964 20.0876 22.2448C19.6762 22.2932 19.3035 21.9989 19.2551 21.5876L18.6056 16.067C18.4501 14.7457 17.3303 13.7499 15.9999 13.7499H7.9176L7.83724 13.7321C4.80202 13.0576 2.4084 10.7261 1.65429 7.7097L1.27233 6.18183C1.17186 5.77999 1.41619 5.37279 1.81803 5.27233Z" fill="#1C274C"/>
<path opacity="0.5" d="M8 13.75V18C8 19.8856 8 20.8284 8.58579 21.4142C9.17157 22 10.1144 22 12 22C13.8856 22 14.8284 22 15.4142 21.4142C16 20.8284 16 19.8856 16 18V13.75H8Z" fill="#1C274C"/>
<circle cx="12" cy="6" r="4" fill="#1C274C"/>
</svg>
