<svg xmlns="http://www.w3.org/2000/svg" fill="none" viewBox="0 0 24 24" width="1em" height="1em"><path fill="currentColor" d="M3.34 17c2.761 4.783 8.877 6.421 13.66 3.66a9.96 9.96 0 0 0 4.197-4.731 9.99 9.99 0 0 0-.537-8.93 9.99 9.99 0 0 0-7.464-4.928A9.96 9.96 0 0 0 7 3.339C2.217 6.101.58 12.217 3.34 17" opacity=".5"/><path fill="currentColor" d="M13.94 2.19a10 10 0 0 0-1.5-.182l-.034.158a10 10 0 0 0-.115.736.75.75 0 0 0 1.49.178 8 8 0 0 1 .13-.776l.008-.035.001-.005v-.001zM2.534 8.775a10 10 0 0 1 .593-1.39l.153.05c.169.057.406.144.696.268a.75.75 0 0 1-.59 1.379 8 8 0 0 0-.772-.286h-.005zm9.026 13.216a10 10 0 0 1-1.5-.181l.02-.074v-.006l.01-.035.032-.154c.028-.14.065-.351.098-.622a.75.75 0 1 1 1.489.178 10 10 0 0 1-.149.894m9.906-6.767a10 10 0 0 1-.594 1.39l-.153-.05a10 10 0 0 1-.695-.268.75.75 0 1 1 .59-1.379 8 8 0 0 0 .772.286l.005.001zm-7.712-9.81a.75.75 0 1 0-1.494.136c.055.605.157 1.264.33 1.958a.75.75 0 1 0 1.455-.361 11.6 11.6 0 0 1-.291-1.733M6.285 9a.75.75 0 1 0-.865 1.226c.44.31.9.68 1.355 1.118a.75.75 0 0 0 1.04-1.08A13 13 0 0 0 6.285 9m8.552.347a.75.75 0 1 0-1.352.65 13 13 0 0 0 .992 1.718.75.75 0 1 0 1.239-.846 11.6 11.6 0 0 1-.88-1.522m-5.313 2.937a.75.75 0 0 0-1.239.846 11.6 11.6 0 0 1 .879 1.522.75.75 0 0 0 1.352-.65 13 13 0 0 0-.992-1.718m7.702.371a.75.75 0 0 0-1.04 1.08c.514.496 1.034.914 1.53 1.264a.75.75 0 0 0 .865-1.225c-.44-.31-.9-.68-1.355-1.12m-5.815 3.837a.75.75 0 1 0-1.455.361c.152.614.242 1.197.291 1.733a.75.75 0 1 0 1.494-.136 13 13 0 0 0-.33-1.958"/></svg>