<svg width="24" height="24" viewBox="0 0 24 24" fill="none" xmlns="http://www.w3.org/2000/svg">
<path fill-rule="evenodd" clip-rule="evenodd" d="M12.25 2.83358C11.7897 2.75589 11.1622 2.74999 10.0325 2.74999C8.11516 2.74999 6.75231 2.75157 5.71904 2.88981C4.70675 3.02525 4.12505 3.27931 3.70224 3.70198C3.27888 4.1252 3.02515 4.70483 2.88984 5.71087C2.75163 6.73851 2.75004 8.09316 2.75004 9.99999V11.9397C2.75004 12.0246 2.75006 12.0793 2.75071 12.1201C2.75115 12.1473 2.75179 12.1594 2.75193 12.1622C2.77303 12.3333 2.95788 12.4326 3.11269 12.3549C3.11507 12.3535 3.12546 12.3473 3.14844 12.3325C3.18268 12.3105 3.22827 12.2801 3.29895 12.233C4.32966 11.5461 5.67238 11.5461 6.70309 12.233C7.48963 12.7572 8.51437 12.7572 9.30092 12.233C10.3316 11.5461 11.6743 11.5461 12.705 12.233C13.4916 12.7572 14.5163 12.7572 15.3029 12.233C16.3336 11.5461 17.6763 11.5461 18.707 12.233C19.4749 12.7448 20.4699 12.7569 21.2486 12.2694C21.2331 11.5535 21.1872 11.1061 21.0822 10.75H17.9464C16.8135 10.75 15.8878 10.75 15.1569 10.6518C14.393 10.5491 13.7306 10.3268 13.2019 9.79809C12.6732 9.26939 12.451 8.60706 12.3483 7.8431C12.25 7.11224 12.25 6.18651 12.25 5.05368V2.83358ZM13.75 3.60615V4.99999C13.75 6.1997 13.7516 7.02404 13.8349 7.64323C13.9152 8.24085 14.0591 8.53389 14.2626 8.73743C14.4661 8.94097 14.7592 9.0848 15.3568 9.16515C15.976 9.2484 16.8003 9.24999 18 9.24999H20.0256C19.729 8.96246 19.3491 8.61795 18.8558 8.17409L14.8957 4.61119C14.4079 4.17233 14.0455 3.84891 13.75 3.60615ZM10.1781 1.24996C11.5632 1.24959 12.458 1.24936 13.2815 1.56526C14.105 1.88118 14.7671 2.4772 15.7916 3.39944C15.827 3.43127 15.8628 3.46348 15.899 3.49608L19.8591 7.05898C19.9012 7.09691 19.9429 7.13437 19.984 7.17136C21.1681 8.23599 21.9337 8.92443 22.3456 9.84887C22.665 10.566 22.7314 11.3207 22.7498 12.3134C22.7586 12.7861 22.5228 13.2239 22.1367 13.4812C20.8464 14.3412 19.1655 14.3412 17.8751 13.4812C17.3482 13.1301 16.6617 13.1301 16.1347 13.4812C14.8444 14.3412 13.1635 14.3412 11.8732 13.4812C11.3462 13.1301 10.6597 13.1301 10.1328 13.4812C8.84247 14.3412 7.16153 14.3412 5.87122 13.4812C5.34428 13.1301 4.65776 13.1301 4.13082 13.4812C4.12065 13.488 4.11049 13.4948 4.10035 13.5016C3.99516 13.5718 3.89221 13.6405 3.8042 13.686C2.7139 14.2496 1.39658 13.5453 1.26078 12.325C1.24982 12.2265 1.24992 12.1028 1.25002 11.9763C1.25003 11.9641 1.25004 11.9519 1.25004 11.9397L1.25004 9.94356C1.25002 8.10581 1.25001 6.65016 1.40323 5.51093C1.56091 4.33847 1.89315 3.3895 2.64175 2.64115C3.3909 1.89224 4.34326 1.56052 5.52012 1.40306C6.66442 1.24996 8.12775 1.24997 9.9762 1.24999L10.0325 1.24999C10.0816 1.24999 10.1302 1.24998 10.1781 1.24996ZM5.87122 17.4812C5.34428 17.1301 4.65776 17.1301 4.13082 17.4812L3.50462 17.8986C3.23667 18.0771 3.09148 18.1754 2.99303 18.2599C2.95012 18.2967 2.93103 18.3187 2.92289 18.3293C2.91659 18.3375 2.91459 18.3416 2.91241 18.3471L2.91189 18.3485C2.90502 18.3659 2.89911 18.3809 2.90519 18.4445C2.91456 18.5425 2.94383 18.6723 3.00787 18.941C3.15512 19.5587 3.37674 19.9726 3.70224 20.298C4.12563 20.7213 4.70555 20.975 5.71204 21.1102C6.74008 21.2484 8.09522 21.25 10.0027 21.25H14.004C15.9114 21.25 17.2665 21.2484 18.2946 21.1102C19.3011 20.975 19.881 20.7213 20.3044 20.298C20.7777 19.8249 21.0337 19.163 21.1559 17.9502C20.0657 18.2921 18.8573 18.1358 17.8751 17.4812C17.3482 17.1301 16.6617 17.1301 16.1347 17.4812C14.8444 18.3412 13.1635 18.3412 11.8732 17.4812C11.3462 17.1301 10.6597 17.1301 10.1328 17.4812C8.84247 18.3412 7.16153 18.3412 5.87122 17.4812ZM3.29895 16.233C4.32966 15.5461 5.67238 15.5461 6.70309 16.233C7.48963 16.7572 8.51437 16.7572 9.30092 16.233C10.3316 15.5461 11.6743 15.5461 12.705 16.233C13.4916 16.7572 14.5163 16.7572 15.3029 16.233C16.3336 15.5461 17.6763 15.5461 18.707 16.233C19.4936 16.7572 20.5183 16.7572 21.3048 16.233C21.9217 15.8219 22.7521 16.2805 22.7211 17.0288C22.643 18.9115 22.3944 20.3296 21.3649 21.3588C20.6163 22.1072 19.6671 22.4392 18.4944 22.5969C17.3548 22.75 15.8988 22.75 14.0604 22.75H9.94622C8.10785 22.75 6.65178 22.75 5.51223 22.5969C4.3395 22.4392 3.39032 22.1072 2.64175 21.3588C2.07476 20.792 1.74372 20.1067 1.54875 19.2888C1.54199 19.2604 1.53504 19.2317 1.52803 19.2028C1.42725 18.7868 1.31309 18.3156 1.51639 17.7984C1.63157 17.5054 1.81385 17.2951 2.01648 17.1213C2.19255 16.9703 2.41575 16.8216 2.6442 16.6694L3.29895 16.233Z" fill="#1C274C"/>
</svg>
