<svg width="24" height="24" viewBox="0 0 24 24" fill="none" xmlns="http://www.w3.org/2000/svg">
<path fill-rule="evenodd" clip-rule="evenodd" d="M12.4999 2.75C11.5334 2.75 10.7499 3.5335 10.7499 4.5C10.7499 5.4665 11.5334 6.25 12.4999 6.25C13.4664 6.25 14.2499 5.4665 14.2499 4.5C14.2499 3.5335 13.4664 2.75 12.4999 2.75ZM9.24992 4.5C9.24992 2.70507 10.705 1.25 12.4999 1.25C14.2948 1.25 15.7499 2.70507 15.7499 4.5C15.7499 6.29493 14.2948 7.75 12.4999 7.75C10.705 7.75 9.24992 6.29493 9.24992 4.5ZM13.5278 10.7532C13.4897 10.7505 13.4419 10.75 13.2698 10.75H12.1787L12.0875 11.6615C11.9135 13.4019 11.8529 14.1013 12.0084 14.7631C12.1639 15.4248 12.5295 16.024 13.4604 17.5048L16.0353 21.6008C16.2557 21.9515 16.1501 22.4145 15.7995 22.635C15.4488 22.8554 14.9858 22.7498 14.7653 22.3992L12.1905 18.3031C12.166 18.2642 12.1418 18.2256 12.1178 18.1875C11.2829 16.8599 10.7678 16.0407 10.5482 15.1061C10.3286 14.1715 10.425 13.2086 10.5813 11.6482C10.5858 11.6034 10.5904 11.5581 10.5949 11.5123L10.6711 10.7509C10.1699 10.7535 9.79917 10.7632 9.49986 10.7995C9.12265 10.8453 8.94672 10.925 8.8221 11.0249C8.69748 11.1249 8.58154 11.2794 8.45502 11.6377C8.32169 12.0153 8.20688 12.526 8.036 13.295L7.73206 14.6627C7.6422 15.067 7.24157 15.322 6.83722 15.2321C6.43287 15.1423 6.17792 14.7417 6.26778 14.3373L6.58148 12.9256C6.73997 12.2123 6.8734 11.6118 7.04061 11.1382C7.21804 10.6357 7.45972 10.1948 7.88351 9.85489C8.3073 9.51494 8.79013 9.37465 9.31915 9.31045C9.81767 9.24995 10.4328 9.24997 11.1636 9.25L13.2698 9.25C13.2781 9.25 13.2863 9.25 13.2944 9.25C13.4305 9.24997 13.5362 9.24995 13.635 9.25704C14.749 9.33691 15.7041 10.0826 16.0517 11.1439C16.0826 11.2381 16.1082 11.3407 16.1412 11.4726L16.1471 11.4966C16.2033 11.7211 16.22 11.7848 16.2354 11.8293C16.4457 12.4354 17.0806 12.7839 17.7048 12.6359C17.7506 12.6251 17.8134 12.6049 18.0329 12.5318L18.7627 12.2885C19.1557 12.1575 19.5804 12.3699 19.7114 12.7628C19.8424 13.1558 19.63 13.5805 19.2371 13.7115L18.5072 13.9548C18.4963 13.9584 18.4855 13.9621 18.4748 13.9656C18.3028 14.023 18.1708 14.067 18.0508 14.0955C16.6776 14.4211 15.2808 13.6543 14.8183 12.321C14.7779 12.2045 14.7442 12.0695 14.7002 11.8935C14.6975 11.8827 14.6947 11.8716 14.6919 11.8604C14.6502 11.6934 14.6381 11.6472 14.6263 11.6109C14.4682 11.1285 14.0341 10.7895 13.5278 10.7532ZM10.4159 16.876C10.7606 17.1057 10.8537 17.5714 10.624 17.916L7.62395 22.416C7.39419 22.7607 6.92854 22.8538 6.58389 22.624C6.23924 22.3943 6.14611 21.9286 6.37588 21.584L9.37588 17.084C9.60564 16.7393 10.0713 16.6462 10.4159 16.876Z" fill="#1C274C"/>
</svg>
