<svg xmlns="http://www.w3.org/2000/svg" fill="none" viewBox="0 0 24 24" width="1em" height="1em"><path fill="currentColor" fill-rule="evenodd" d="M12.422 3.071c-.374.356-.828.93-1.501 1.785l-.34.433-.067.085c-.306.39-.588.75-.983.96-.403.215-.854.24-1.328.267l-.104.006-.527.03c-1.046.06-1.74.102-2.223.207-.466.1-.536.217-.566.278-.036.071-.084.223.11.697.2.483.568 1.11 1.12 2.041l.278.471.052.088c.254.429.484.815.544 1.264.06.446-.057.883-.188 1.376l-.026.1-.143.541c-.283 1.068-.472 1.791-.536 2.32-.063.53.029.65.066.69l.002.001c.024.027.105.116.572.062.448-.052 1.051-.21 1.928-.452a8 8 0 0 1-.724-.663c-.34-.365-.662-.85-.573-1.475.09-.63.539-1 .97-1.248.414-.239.989-.464 1.65-.723l.422-.165c.212-.083.33-.13.416-.172l.074-.041.04-.074c.04-.086.085-.205.165-.418l.157-.423c.248-.665.463-1.243.694-1.66.242-.436.605-.89 1.233-.99.622-.1 1.112.211 1.484.544.36.32.758.798 1.22 1.35l.292.35c.148.177.231.276.3.346a1 1 0 0 0 .069.062l.002.002h.003l.01.004.08.014c.095.013.224.02.453.033l.453.025q.322.016.615.035c.47-.413.783-.717.978-.973.21-.273.212-.397.202-.468s-.042-.208-.45-.458c-.425-.26-1.068-.53-2.037-.933L16.27 8l-.095-.04c-.441-.182-.858-.355-1.168-.69-.305-.328-.455-.76-.62-1.23l-.035-.102-.183-.522c-.362-1.032-.607-1.725-.848-2.186-.236-.453-.362-.473-.386-.477h-.003c-.022-.004-.146-.028-.51.32m7.47 8.302a5 5 0 0 0 .344-.4c.343-.448.58-.966.498-1.58-.099-.732-.593-1.194-1.155-1.538-.536-.328-1.29-.641-2.184-1.013l-.548-.228c-.597-.249-.68-.3-.739-.364-.064-.07-.116-.173-.34-.81l-.203-.579c-.336-.96-.616-1.757-.912-2.326-.302-.578-.73-1.136-1.466-1.261-.74-.126-1.326.262-1.798.71-.463.44-.984 1.102-1.61 1.896l-.378.482c-.415.528-.496.606-.576.65-.074.039-.166.06-.812.097l-.527.03-.064.004c-.965.055-1.778.102-2.39.234-.643.14-1.263.414-1.593 1.077-.324.653-.186 1.319.068 1.935.245.596.671 1.317 1.183 2.183l.31.523c.337.57.386.68.4.788.015.112-.005.24-.178.893l-.158.598c-.263.996-.481 1.821-.559 2.468-.079.659-.043 1.35.455 1.887.511.552 1.2.609 1.846.534.62-.072 1.41-.29 2.347-.549l.128-.035.598-.29.042.038a1 1 0 0 1 .064.068l.001.002.001.002.004.01q.005.017.015.078c.015.095.025.223.041.451l.033.452c.052.712.097 1.33.201 1.798.11.489.327 1.023.89 1.305.564.284 1.122.137 1.578-.071.434-.199.95-.535 1.545-.922l.378-.246a6 6 0 0 1 .381-.239l.07-.033.008-.003h.012q.018-.001.08.01c.095.017.22.049.442.107l.441.114c.695.181 1.296.338 1.773.39.495.053 1.078.021 1.523-.43.446-.454.468-1.038.405-1.531-.06-.475-.229-1.073-.423-1.762l-.123-.438a7 7 0 0 1-.114-.44l-.012-.077v-.011l.003-.008.031-.07c.044-.084.111-.191.232-.384l.24-.381c.377-.6.705-1.122.896-1.56.2-.457.338-1.019.043-1.578a1.5 1.5 0 0 0-.688-.657m-6.59-1.624.011.002q-.01 0-.011-.002m.024.006a1 1 0 0 1 .245.176c.267.239.596.63 1.105 1.239l.255.305.055.066c.223.268.46.554.794.722.335.168.706.187 1.053.205l.085.004.395.021c.79.043 1.296.072 1.645.143a1 1 0 0 1 .292.094v.004a1 1 0 0 1-.087.275c-.14.32-.405.746-.823 1.41l-.209.332-.045.072c-.183.29-.383.605-.436.977-.053.37.05.73.144 1.063l.023.082.107.382c.215.761.35 1.25.395 1.602.02.16.015.243.008.282a1 1 0 0 1-.286-.003c-.353-.038-.846-.164-1.613-.364l-.385-.1-.083-.022c-.335-.088-.697-.183-1.065-.124-.371.06-.683.264-.97.452l-.071.046-.33.215c-.657.428-1.079.7-1.398.846a1 1 0 0 1-.275.092h-.006l-.005-.007a1 1 0 0 1-.095-.281c-.077-.346-.116-.85-.173-1.637l-.029-.395-.005-.084c-.025-.345-.05-.717-.225-1.048-.174-.33-.466-.562-.739-.78l-.066-.053-.311-.249c-.62-.497-1.017-.818-1.261-1.08a1 1 0 0 1-.18-.238 1 1 0 0 1 .227-.162c.304-.175.772-.36 1.505-.647l.366-.144.08-.031c.32-.124.669-.26.932-.527.263-.268.393-.619.511-.94l.03-.08.137-.368c.275-.736.452-1.206.621-1.512a1 1 0 0 1 .16-.23m-4.578 4.617.003.011zm-.002.037q-.004.011-.006.011zm9.572 4.831s0-.005.005-.011q-.004.013-.005.011m.027-.033q.01-.007.01-.005zm-5.009-9.46.011-.007q0 .002-.011.007" clip-rule="evenodd"/></svg>