<svg width="24" height="24" viewBox="0 0 24 24" fill="none" xmlns="http://www.w3.org/2000/svg">
<path fill-rule="evenodd" clip-rule="evenodd" d="M12.7174 3.7509C12.3192 3.33076 11.6808 3.33076 11.2826 3.7509C10.7109 4.35406 10.0594 5.10788 9.55542 5.8713C9.03283 6.66295 8.75 7.34594 8.75 7.83343C8.75 9.74955 10.2336 11.2501 12 11.2501C13.7664 11.2501 15.25 9.74955 15.25 7.83343C15.25 7.34594 14.9672 6.66295 14.4446 5.8713C13.9406 5.10788 13.2891 4.35406 12.7174 3.7509ZM10.1939 2.71905C11.1837 1.6747 12.8163 1.6747 13.8061 2.71905C14.4068 3.35281 15.1243 4.17831 15.6964 5.04493C16.2499 5.88332 16.75 6.88111 16.75 7.83343C16.75 10.5197 14.6519 12.7501 12 12.7501C9.34809 12.7501 7.25 10.5197 7.25 7.83343C7.25 6.88111 7.75013 5.88332 8.30358 5.04493C8.87567 4.17831 9.59322 3.35281 10.1939 2.71905ZM6.71741 13.7509C6.31922 13.3308 5.68078 13.3308 5.28259 13.7509C4.71094 14.3541 4.05938 15.1079 3.55542 15.8713C3.03283 16.663 2.75 17.3459 2.75 17.8334C2.75 19.7496 4.23364 21.2501 6 21.2501C7.76636 21.2501 9.25 19.7496 9.25 17.8334C9.25 17.3459 8.96717 16.663 8.44458 15.8713C7.94062 15.1079 7.28906 14.3541 6.71741 13.7509ZM4.19387 12.7191C5.18366 11.6747 6.81634 11.6747 7.80613 12.7191C8.40678 13.3528 9.12433 14.1783 9.69642 15.0449C10.2499 15.8833 10.75 16.8811 10.75 17.8334C10.75 20.5197 8.65191 22.7501 6 22.7501C3.34809 22.7501 1.25 20.5197 1.25 17.8334C1.25 16.8811 1.75013 15.8833 2.30358 15.0449C2.87567 14.1783 3.59322 13.3528 4.19387 12.7191ZM18.7174 13.7509C18.3192 13.3308 17.6808 13.3308 17.2826 13.7509C16.7109 14.3541 16.0594 15.1079 15.5554 15.8713C15.0328 16.663 14.75 17.3459 14.75 17.8334C14.75 19.7496 16.2336 21.2501 18 21.2501C19.7664 21.2501 21.25 19.7496 21.25 17.8334C21.25 17.3459 20.9672 16.663 20.4446 15.8713C19.9406 15.1079 19.2891 14.3541 18.7174 13.7509ZM16.1939 12.7191C17.1837 11.6747 18.8163 11.6747 19.8061 12.7191C20.4068 13.3528 21.1243 14.1783 21.6964 15.0449C22.2499 15.8833 22.75 16.8811 22.75 17.8334C22.75 20.5197 20.6519 22.7501 18 22.7501C15.3481 22.7501 13.25 20.5197 13.25 17.8334C13.25 16.8811 13.7501 15.8833 14.3036 15.0449C14.8757 14.1783 15.5932 13.3528 16.1939 12.7191Z" fill="#1C274C"/>
</svg>
