<svg width="24" height="24" viewBox="0 0 24 24" fill="none" xmlns="http://www.w3.org/2000/svg">
<path d="M13.1567 17.0125L17.0125 13.1567C18.4666 11.7026 19.1936 10.9756 19.1936 10.0721C19.1936 9.46679 18.8673 8.94067 18.2145 8.22201C17.893 7.86804 17.4924 7.46735 17.0125 6.98749C16.5326 6.50764 16.1319 6.10693 15.778 5.78544C15.0593 5.1327 14.5332 4.80634 13.9279 4.80634C13.0244 4.80634 12.2974 5.53339 10.8433 6.98749L6.98749 10.8433C5.53339 12.2974 4.80634 13.0244 4.80634 13.9279C4.80634 14.5332 5.1327 15.0593 5.78544 15.778C6.10693 16.1319 6.50764 16.5326 6.98749 17.0125C7.46735 17.4924 7.86804 17.893 8.22201 18.2145C8.94067 18.8673 9.46679 19.1936 10.0721 19.1936C10.9756 19.1936 11.7026 18.4666 13.1567 17.0125Z" fill="#1C274C"/>
<g opacity="0.5">
<path d="M21.2539 2.74615C21.1561 2.64836 21.1072 2.59946 21.0658 2.56209C20.1315 1.71881 18.6794 1.83899 17.8965 2.82438C17.8619 2.86803 17.8215 2.92445 17.7413 3.03686L15.778 5.78545C16.1319 6.10694 16.5327 6.50765 17.0125 6.9875C17.4924 7.46736 17.8931 7.86805 18.2146 8.22202L20.9631 6.25875C21.0757 6.17836 21.132 6.13817 21.1756 6.10347C22.161 5.32058 22.2812 3.86848 21.4379 2.93424C21.4006 2.89286 21.3516 2.84385 21.2539 2.74615Z" fill="#1C274C"/>
<path d="M2.56209 21.0658C2.59946 21.1072 2.64836 21.1561 2.74615 21.2539C2.84385 21.3516 2.89286 21.4006 2.93424 21.4379C3.86848 22.2812 5.32058 22.161 6.10347 21.1756C6.13817 21.132 6.17836 21.0757 6.25875 20.9631L8.22202 18.2146C7.86805 17.8931 7.46736 17.4924 6.9875 17.0125C6.50765 16.5327 6.10694 16.1319 5.78545 15.778L3.03686 17.7413C2.92445 17.8215 2.86803 17.8619 2.82438 17.8965C1.83899 18.6794 1.71881 20.1315 2.56209 21.0658Z" fill="#1C274C"/>
</g>
</svg>
