<svg width="24" height="24" viewBox="0 0 24 24" fill="none" xmlns="http://www.w3.org/2000/svg">
<path d="M17 8V6C17 4.11438 17 3.17157 16.4142 2.58579C15.8284 2 14.8856 2 13 2H11C9.11438 2 8.17157 2 7.58579 2.58579C7 3.17157 7 4.11438 7 6V8" stroke="#1C274C" stroke-width="1.5"/>
<path d="M19.7943 11.0312C19.7943 9.93319 19.1944 8.92292 18.2305 8.39728L13.4362 5.78311C12.541 5.29495 11.4591 5.29495 10.5638 5.78311L5.76962 8.39728C4.80563 8.92292 4.20581 9.93318 4.20581 11.0312V15.9688C4.20581 17.0668 4.80563 18.0771 5.76962 18.6027L10.5638 21.2169C11.4591 21.705 12.541 21.705 13.4362 21.2169L18.2305 18.6027C19.1944 18.0771 19.7943 17.0668 19.7943 15.9688V15" stroke="#1C274C" stroke-width="1.5" stroke-linecap="round"/>
<path d="M11.1459 11.5227C11.5259 10.841 11.7159 10.5002 12 10.5002C12.2841 10.5002 12.4741 10.841 12.8541 11.5227L12.9524 11.699C13.0603 11.8927 13.1143 11.9896 13.1985 12.0535C13.2827 12.1174 13.3875 12.1411 13.5972 12.1886L13.7881 12.2318C14.526 12.3987 14.895 12.4822 14.9828 12.7645C15.0706 13.0467 14.819 13.3409 14.316 13.9291L14.1858 14.0813C14.0429 14.2485 13.9714 14.3321 13.9392 14.4355C13.9071 14.5389 13.9179 14.6504 13.9395 14.8734L13.9592 15.0765C14.0352 15.8613 14.0733 16.2538 13.8435 16.4282C13.6136 16.6027 13.2682 16.4436 12.5773 16.1255L12.3986 16.0432C12.2022 15.9528 12.1041 15.9076 12 15.9076C11.8959 15.9076 11.7978 15.9528 11.6014 16.0432L11.4227 16.1255C10.7318 16.4436 10.3864 16.6027 10.1565 16.4282C9.92674 16.2538 9.96476 15.8613 10.0408 15.0765L10.0605 14.8734C10.0821 14.6504 10.0929 14.5389 10.0608 14.4355C10.0286 14.3321 9.95713 14.2485 9.81418 14.0813L9.68403 13.9291C9.18097 13.3409 8.92945 13.0467 9.01723 12.7645C9.10501 12.4822 9.47396 12.3987 10.2119 12.2318L10.4028 12.1886C10.6125 12.1411 10.7173 12.1174 10.8015 12.0535C10.8857 11.9896 10.9397 11.8927 11.0476 11.699L11.1459 11.5227Z" stroke="#1C274C" stroke-width="1.5"/>
</svg>
