<svg width="24" height="24" viewBox="0 0 24 24" fill="none" xmlns="http://www.w3.org/2000/svg">
<path fill-rule="evenodd" clip-rule="evenodd" d="M11.9426 1.25H12.0574C14.3657 1.24999 16.1748 1.24998 17.5863 1.43975C19.031 1.63399 20.171 2.03933 21.0658 2.93414C21.9606 3.82895 22.366 4.96897 22.5602 6.41371C22.75 7.82519 22.75 9.63423 22.75 11.9426V12.0574C22.75 12.5023 22.75 12.9287 22.7486 13.3372C22.7506 13.3696 22.7506 13.4025 22.7483 13.4356C22.7418 15.1021 22.7105 16.4688 22.5602 17.5863C22.366 19.031 21.9606 20.1711 21.0658 21.0659C20.171 21.9607 19.031 22.366 17.5863 22.5603C16.8485 22.6594 16.0021 22.7068 15.0326 22.7294C14.9407 22.7515 14.8429 22.7566 14.7436 22.7414C14.7331 22.7398 14.7227 22.7379 14.7123 22.7359C13.9106 22.75 13.0281 22.75 12.0573 22.75H11.9426C9.63421 22.75 7.82517 22.75 6.41368 22.5603C4.96894 22.366 3.82892 21.9607 2.93411 21.0659C2.0393 20.1711 1.63396 19.031 1.43972 17.5863C1.24995 16.1748 1.24996 14.3658 1.24997 12.0574V11.9426C1.24997 11.3365 1.24997 10.7647 1.2534 10.2256C1.24829 10.1729 1.24881 10.1208 1.2545 10.07C1.2657 8.62518 1.30461 7.41868 1.43972 6.41371C1.63396 4.96897 2.0393 3.82895 2.93411 2.93414C3.82892 2.03933 4.96894 1.63399 6.41368 1.43975C7.82517 1.24998 9.6342 1.24999 11.9426 1.25ZM2.75106 10.8037C2.75002 11.1826 2.74997 11.5809 2.74997 12C2.74997 14.3782 2.75157 16.0864 2.92634 17.3864C3.09822 18.6648 3.42511 19.4355 3.99477 20.0052C4.56443 20.5749 5.33515 20.9018 6.61355 21.0736C7.91353 21.2484 9.62175 21.25 12 21.25C12.8043 21.25 13.532 21.2498 14.1932 21.2428C14.7361 15.0501 9.35138 9.85595 3.08731 10.7554L2.75106 10.8037ZM15.701 21.2078C16.3323 21.182 16.8892 21.1405 17.3864 21.0736C18.6648 20.9018 19.4355 20.5749 20.0052 20.0052C20.5748 19.4355 20.9017 18.6648 21.0736 17.3864C21.1939 16.4918 21.2321 15.4038 21.2443 14.0371L20.9237 13.9927C18.5042 13.6577 16.3037 14.7947 15.0846 16.636C15.5911 18.0541 15.8188 19.6005 15.701 21.2078ZM14.3874 15.0736C12.2457 11.1169 7.79511 8.56403 2.87411 9.27064L2.76444 9.28639C2.78327 8.2301 2.82661 7.35537 2.92634 6.61358C3.09822 5.33517 3.42511 4.56445 3.99477 3.9948C4.56443 3.42514 5.33515 3.09825 6.61355 2.92637C7.91353 2.75159 9.62175 2.75 12 2.75C14.3782 2.75 16.0864 2.75159 17.3864 2.92637C18.6648 3.09825 19.4355 3.42514 20.0052 3.9948C20.5748 4.56445 20.9017 5.33517 21.0736 6.61358C21.2484 7.91356 21.25 9.62177 21.25 12C21.25 12.1783 21.25 12.3528 21.2499 12.5236L21.1294 12.5069C18.4401 12.1345 15.9697 13.22 14.3874 15.0736ZM16 6.75C15.3096 6.75 14.75 7.30964 14.75 8C14.75 8.69036 15.3096 9.25 16 9.25C16.6903 9.25 17.25 8.69036 17.25 8C17.25 7.30964 16.6903 6.75 16 6.75ZM13.25 8C13.25 6.48122 14.4812 5.25 16 5.25C17.5188 5.25 18.75 6.48122 18.75 8C18.75 9.51878 17.5188 10.75 16 10.75C14.4812 10.75 13.25 9.51878 13.25 8Z" fill="#1C274C"/>
</svg>
