<svg xmlns="http://www.w3.org/2000/svg" fill="none" viewBox="0 0 24 24" width="1em" height="1em"><path fill="currentColor" d="M12 10a4 4 0 1 0 0-8 4 4 0 0 0 0 8"/><path fill="currentColor" fill-rule="evenodd" d="M18 15.75a3.25 3.25 0 1 0 0 6.5 3.25 3.25 0 0 0 0-6.5M16.25 19a1.75 1.75 0 0 1 2.338-1.649l-2.237 2.237A1.8 1.8 0 0 1 16.25 19m1.162 1.649 2.237-2.237q.1.277.101.588a1.75 1.75 0 0 1-2.338 1.649" clip-rule="evenodd"/><path fill="currentColor" d="M12 22c-8 0-8-2.015-8-4.5S7.582 13 12 13c2.37 0 4.498.58 5.963 1.5a4.5 4.5 0 0 0-3.392 7.414C13.82 21.97 12.97 22 12 22"/></svg>