<svg width="24" height="24" viewBox="0 0 24 24" fill="none" xmlns="http://www.w3.org/2000/svg">
<g clip-path="url(#clip0_1_21969)">
<path fill-rule="evenodd" clip-rule="evenodd" d="M11.1401 4.23511C11.3537 4.23511 11.5575 4.32479 11.7015 4.48219L12.4414 5.29098C12.7243 5.60029 12.7024 6.07988 12.3923 6.36218C12.237 6.5036 12.0389 6.56868 11.8443 6.55954C11.5105 8.80596 9.7165 10.6043 7.44062 10.6043C6.17342 10.6043 5.04151 10.036 4.24071 9.14788C3.95999 8.83655 3.98538 8.35713 4.29743 8.07706C4.60948 7.79699 5.09002 7.82233 5.37074 8.13365C5.91177 8.73367 6.64528 9.08784 7.44062 9.08784C8.78408 9.08784 9.99421 8.04572 10.3038 6.55432C10.1538 6.53531 10.008 6.47159 9.88787 6.36218C9.57785 6.07988 9.55591 5.60029 9.83887 5.29098L10.5788 4.48219C10.7228 4.32479 10.9265 4.23511 11.1401 4.23511Z" fill="#1C274C"/>
<g opacity="0.5">
<path d="M7.1994 1C4.92351 1 3.12955 2.79836 2.79575 5.04479C2.6011 5.03565 2.40297 5.10073 2.24766 5.24214C1.93764 5.52445 1.9157 6.00404 2.19866 6.31334L2.93856 7.12213C3.08256 7.27954 3.2863 7.36922 3.4999 7.36922C3.71351 7.36922 3.91725 7.27954 4.06125 7.12213L4.80115 6.31334C5.0841 6.00404 5.06216 5.52445 4.75214 5.24214C4.63199 5.13273 4.48619 5.06901 4.33621 5.05001C4.6458 3.55861 5.85593 2.51648 7.1994 2.51648C8.05316 2.51648 8.83757 2.92524 9.38688 3.60882C9.64943 3.93555 10.1278 3.98806 10.4552 3.72612C10.7827 3.46417 10.8354 2.98696 10.5728 2.66024C9.76608 1.65634 8.56185 1 7.1994 1Z" fill="#1C274C"/>
</g>
<g opacity="0.4">
<path d="M21.0004 11.8686V15.9126C21.0004 19.7252 21.0004 21.6316 19.8132 22.816C18.6261 24.0005 16.7153 24.0005 12.8938 24.0005C9.07226 24.0005 7.1615 24.0005 5.9743 22.816C4.78711 21.6316 4.78711 19.7252 4.78711 15.9126V14.1804C4.78711 13.9119 4.78711 13.7776 4.81252 13.6666C4.89913 13.288 5.19547 12.9923 5.57495 12.9059C5.68627 12.8805 5.82099 12.8805 6.09043 12.8805C7.70405 12.8805 8.51086 12.8805 9.17753 12.729C11.4565 12.2111 13.2361 10.4356 13.7552 8.16191C13.9071 7.49679 13.9071 6.69278 13.9071 5.08476C13.9071 4.81802 13.9071 4.68464 13.9331 4.57242C14.0209 4.19298 14.3306 3.89021 14.7126 3.81033C14.8256 3.7867 14.955 3.78932 15.2139 3.79456C17.5452 3.8417 18.8954 4.04948 19.8132 4.96516C21.0004 6.14961 21.0004 8.05594 21.0004 11.8686Z" fill="#1C274C"/>
</g>
<path d="M9.09375 20.9672C9.09375 20.5485 9.43401 20.209 9.85375 20.209H15.9337C16.3535 20.209 16.6937 20.5485 16.6937 20.9672C16.6937 21.386 16.3535 21.7255 15.9337 21.7255H9.85375C9.43401 21.7255 9.09375 21.386 9.09375 20.9672Z" fill="#1C274C"/>
</g>
<defs>
<clipPath id="clip0_1_21969">
<rect width="24" height="24" fill="white"/>
</clipPath>
</defs>
</svg>
