<svg width="24" height="24" viewBox="0 0 24 24" fill="none" xmlns="http://www.w3.org/2000/svg">
<g clip-path="url(#clip0_1_21952)">
<path d="M20 10C20 6.22881 20 4.34319 18.8284 3.17162C17.7653 2.10853 16.1143 2.01009 13 2.00098M20 14C20 17.7713 20 19.6569 18.8284 20.8285C17.6569 22 15.7712 22 12 22C8.22876 22 6.34315 22 5.17157 20.8285C4 19.6569 4 17.7713 4 14V11.001" stroke="#1C274C" stroke-width="1.5" stroke-linecap="round"/>
<path d="M3.73016 5H2.98016H3.73016ZM3.73016 5.8L3.17621 6.3056C3.31831 6.46129 3.51937 6.55 3.73016 6.55C3.94096 6.55 4.14202 6.46129 4.28412 6.3056L3.73016 5.8ZM5.01428 5.5056C5.29352 5.19966 5.27187 4.72528 4.96593 4.44604C4.65998 4.16681 4.1856 4.18846 3.90637 4.4944L5.01428 5.5056ZM3.55396 4.4944C3.27472 4.18846 2.80034 4.16681 2.4944 4.44604C2.18846 4.72528 2.16681 5.19966 2.44604 5.5056L3.55396 4.4944ZM11.2698 4.2L11.8238 3.6944C11.6817 3.53871 11.4806 3.45 11.2698 3.45C11.059 3.45 10.858 3.53871 10.7159 3.6944L11.2698 4.2ZM9.98572 4.4944C9.70648 4.80034 9.72813 5.27472 10.0341 5.55396C10.34 5.83319 10.8144 5.81154 11.0936 5.5056L9.98572 4.4944ZM11.446 5.5056C11.7253 5.81154 12.1997 5.83319 12.5056 5.55396C12.8115 5.27472 12.8332 4.80034 12.554 4.4944L11.446 5.5056ZM5.57638 7.30618C5.29935 6.99824 4.82514 6.97317 4.51719 7.2502C4.20925 7.52723 4.18419 8.00144 4.46122 8.30938L5.57638 7.30618ZM9.53968 2.83047C9.79878 3.15364 10.2708 3.20559 10.594 2.94649C10.9172 2.68739 10.9691 2.21537 10.71 1.89219L9.53968 2.83047ZM7.38098 0.25C4.88747 0.25 2.98016 2.4426 2.98016 5H4.48016C4.48016 3.13913 5.84191 1.75 7.38098 1.75V0.25ZM2.98016 5L2.98016 5.8H4.48016L4.48016 5L2.98016 5ZM4.28412 6.3056L5.01428 5.5056L3.90637 4.4944L3.17621 5.2944L4.28412 6.3056ZM4.28412 5.2944L3.55396 4.4944L2.44604 5.5056L3.17621 6.3056L4.28412 5.2944ZM7.61902 9.75C10.1125 9.75 12.0198 7.5574 12.0198 5H10.5198C10.5198 6.86087 9.15809 8.25 7.61902 8.25V9.75ZM12.0198 5V4.2H10.5198V5H12.0198ZM10.7159 3.6944L9.98572 4.4944L11.0936 5.5056L11.8238 4.7056L10.7159 3.6944ZM10.7159 4.7056L11.446 5.5056L12.554 4.4944L11.8238 3.6944L10.7159 4.7056ZM4.46122 8.30938C5.25148 9.18785 6.3685 9.75 7.61902 9.75V8.25C6.83415 8.25 6.11029 7.89968 5.57638 7.30618L4.46122 8.30938ZM10.71 1.89219C9.9139 0.89921 8.72551 0.25 7.38098 0.25V1.75C8.22351 1.75 8.99759 2.15432 9.53968 2.83047L10.71 1.89219Z" fill="#1C274C"/>
<path d="M15 19H9" stroke="#1C274C" stroke-width="1.5" stroke-linecap="round"/>
</g>
<defs>
<clipPath id="clip0_1_21952">
<rect width="24" height="24" fill="white"/>
</clipPath>
</defs>
</svg>
