<svg width="24" height="24" viewBox="0 0 24 24" fill="none" xmlns="http://www.w3.org/2000/svg">
<g clip-path="url(#clip0_1_21965)">
<path fill-rule="evenodd" clip-rule="evenodd" d="M3.03528 4.25083C3.36469 2.02882 5.13504 0.25 7.38098 0.25C8.72551 0.25 9.9139 0.89921 10.71 1.89219C10.9691 2.21537 10.9172 2.68739 10.594 2.94649C10.2708 3.20559 9.79879 3.15364 9.53969 2.83047C8.9976 2.15432 8.22351 1.75 7.38098 1.75C6.05519 1.75 4.86099 2.7808 4.55547 4.256C4.70348 4.27479 4.84736 4.33782 4.96593 4.44604C5.27187 4.72528 5.29352 5.19966 5.01429 5.5056L4.28413 6.3056C4.14202 6.46129 3.94096 6.55 3.73017 6.55C3.51938 6.55 3.31831 6.46129 3.17621 6.3056L2.44605 5.5056C2.16681 5.19966 2.18846 4.72528 2.49441 4.44604C2.64766 4.30616 2.84319 4.24179 3.03528 4.25083ZM13.25 2.99873C13.2512 2.58452 13.588 2.24972 14.0022 2.25093C15.5493 2.25546 16.8027 2.28085 17.8089 2.45158C18.8369 2.626 19.6807 2.96316 20.3588 3.64124C21.1071 4.38961 21.4392 5.33855 21.5969 6.51098C21.75 7.65019 21.75 9.10583 21.75 10.9436V15.0564C21.75 16.8942 21.75 18.3498 21.5969 19.489C21.4392 20.6614 21.1071 21.6104 20.3588 22.3588C19.6104 23.1071 18.6614 23.4392 17.489 23.5969C16.3498 23.75 14.8942 23.75 13.0564 23.75H12.9436C11.1058 23.75 9.6502 23.75 8.51098 23.5969C7.33856 23.4392 6.38961 23.1071 5.64125 22.3588C4.89288 21.6104 4.56077 20.6614 4.40314 19.489C4.24998 18.3498 4.24999 16.8942 4.25 15.0564L4.25 12.0009C4.25 11.5867 4.58579 11.2509 5 11.2509C5.41422 11.2509 5.75 11.5867 5.75 12.0009V15C5.75 16.9068 5.7516 18.2615 5.88976 19.2892C6.02503 20.2952 6.2787 20.8749 6.70191 21.2981C7.12512 21.7213 7.70476 21.975 8.71085 22.1102C9.73852 22.2484 11.0932 22.25 13 22.25C14.9068 22.25 16.2615 22.2484 17.2892 22.1102C18.2952 21.975 18.8749 21.7213 19.2981 21.2981C19.7213 20.8749 19.975 20.2952 20.1102 19.2892C20.2484 18.2615 20.25 16.9068 20.25 15V11C20.25 9.09318 20.2484 7.73851 20.1102 6.71085C19.975 5.70476 19.7213 5.12511 19.2981 4.7019C18.9131 4.31689 18.3998 4.07329 17.558 3.93044C16.6943 3.78389 15.565 3.75551 13.9978 3.75093C13.5836 3.74971 13.2488 3.41295 13.25 2.99873ZM11.2698 3.45C11.4806 3.45 11.6817 3.53871 11.8238 3.6944L12.554 4.4944C12.8332 4.80034 12.8115 5.27472 12.5056 5.55396C12.3523 5.69384 12.1568 5.75821 11.9647 5.74917C11.6353 7.97118 9.86496 9.75 7.61903 9.75C6.36851 9.75 5.25149 9.18785 4.46122 8.30938C4.18419 8.00144 4.20926 7.52723 4.5172 7.2502C4.82514 6.97317 5.29935 6.99824 5.57638 7.30618C6.1103 7.89968 6.83415 8.25 7.61903 8.25C8.94482 8.25 10.139 7.2192 10.4445 5.744C10.2965 5.72521 10.1527 5.66218 10.0341 5.55396C9.72814 5.27472 9.70649 4.80034 9.98572 4.4944L10.7159 3.6944C10.858 3.53871 11.059 3.45 11.2698 3.45ZM9.25 20C9.25 19.5858 9.58579 19.25 10 19.25H16C16.4142 19.25 16.75 19.5858 16.75 20C16.75 20.4142 16.4142 20.75 16 20.75H10C9.58579 20.75 9.25 20.4142 9.25 20Z" fill="#1C274C"/>
</g>
<defs>
<clipPath id="clip0_1_21965">
<rect width="24" height="24" fill="white"/>
</clipPath>
</defs>
</svg>
