<svg xmlns="http://www.w3.org/2000/svg" fill="none" viewBox="0 0 24 24" width="1em" height="1em"><path stroke="currentColor" stroke-width="1.5" d="M2 12C2 6.477 6.477 2 12 2s10 4.477 10 10-4.477 10-10 10S2 17.523 2 12Z"/><path stroke="currentColor" stroke-width="1.5" d="M6 15a3 3 0 1 1 6 0 3 3 0 0 1-6 0Z"/><path stroke="currentColor" stroke-linecap="round" stroke-width="1.5" d="m4.5 11.5.414-1m9.551-3.329s1.243-.171 2.121.708c.879.878.707 2.12.707 2.12M9 9.293s-1.243.171-2.121-.707C6 7.707 6.172 6.465 6.172 6.465M19 13.136s-1.162.473-1.484 1.673c-.321 1.2.449 2.19.449 2.19m-4.545.773L15 19m-.5-5v-2M12 5h-2m2.5 4.5-1-1"/></svg>