<svg width="24" height="24" viewBox="0 0 24 24" fill="none" xmlns="http://www.w3.org/2000/svg">
<path d="M3 8.70935C3 7.23581 3 6.49904 3.39264 6.06932C3.53204 5.91675 3.70147 5.79463 3.89029 5.71063C4.42213 5.47403 5.12109 5.70702 6.51901 6.17299C7.58626 6.52874 8.11989 6.70661 8.6591 6.6882C8.85714 6.68144 9.05401 6.65508 9.24685 6.60949C9.77191 6.48538 10.2399 6.17337 11.176 5.54934L12.5583 4.62775C13.7574 3.8284 14.3569 3.42873 15.0451 3.33657C15.7333 3.24441 16.4168 3.47226 17.7839 3.92796L18.9487 4.31621C19.9387 4.64622 20.4337 4.81123 20.7169 5.20406C21 5.59689 21 6.11868 21 7.16226V15.2906C21 16.7642 21 17.5009 20.6074 17.9307C20.468 18.0832 20.2985 18.2053 20.1097 18.2893C19.5779 18.5259 18.8789 18.293 17.481 17.827C16.4137 17.4712 15.8801 17.2934 15.3409 17.3118C15.1429 17.3185 14.946 17.3449 14.7532 17.3905C14.2281 17.5146 13.7601 17.8266 12.824 18.4506L11.4417 19.3722C10.2426 20.1716 9.64311 20.5712 8.95493 20.6634C8.26674 20.7556 7.58319 20.5277 6.21609 20.072L5.05132 19.6838C4.06129 19.3537 3.56627 19.1887 3.28314 18.7959C3 18.4031 3 17.8813 3 16.8377V8.70935Z" stroke="#1C274C" stroke-width="1.5"/>
<path d="M9 6.63864V20.5" stroke="#1C274C" stroke-width="1.5"/>
<path d="M15 3V17" stroke="#1C274C" stroke-width="1.5"/>
</svg>
