<svg xmlns="http://www.w3.org/2000/svg" fill="none" viewBox="0 0 24 24" width="1em" height="1em"><path fill="currentColor" fill-rule="evenodd" d="m15.246 6.277.058-.027c1.077-.493 1.966-.9 2.713-1.102.796-.215 1.542-.229 2.266.18.723.409 1.079 1.041 1.278 1.817.187.725.26 1.67.348 2.81l.004.063c.053.685.087 1.366.087 1.982s-.034 1.297-.087 1.982l-.005.062c-.087 1.142-.16 2.086-.347 2.811-.2.776-.555 1.409-1.278 1.817-.724.409-1.47.395-2.267.18-.746-.202-1.635-.61-2.712-1.102l-.058-.027a34 34 0 0 1-1.683-.82 30 30 0 0 1-1.203-.677V7.774c.412-.243.818-.473 1.203-.676.514-.272 1.091-.55 1.683-.821" clip-rule="evenodd" opacity=".5"/><path fill="currentColor" d="M11.379 6.222c.566.371.832.923.98 1.552v8.452c-.148.63-.414 1.18-.98 1.552-.61.4-1.246.38-1.881.18-.572-.18-1.244-.537-2.024-.951l-.06-.032c-.44-.234-.87-.475-1.254-.71a25 25 0 0 1-1.376-.92l-.05-.037c-.79-.563-1.457-1.038-1.916-1.506C2.318 13.293 2 12.732 2 12s.318-1.293.818-1.802c.46-.468 1.126-.943 1.916-1.506l.05-.036c.468-.334.939-.652 1.376-.92.384-.236.814-.477 1.254-.71l.06-.032c.78-.415 1.452-.772 2.024-.952.635-.2 1.272-.22 1.881.18"/></svg>