<svg xmlns="http://www.w3.org/2000/svg" fill="none" viewBox="0 0 24 24" width="1em" height="1em"><path stroke="currentColor" stroke-width="1.5" d="M4.687 8.902C2.896 10.218 2 10.875 2 12s.896 1.783 2.687 3.098c.495.363.985.705 1.436.99.396.25.843.508 1.307.762 1.787.978 2.681 1.467 3.483.926.801-.542.874-1.675 1.02-3.943.04-.641.067-1.27.067-1.833s-.026-1.192-.067-1.833c-.146-2.267-.219-3.401-1.02-3.943-.802-.541-1.696-.052-3.483.926a25 25 0 0 0-1.307.762c-.45.285-.941.627-1.436.99Zm7.407-.516c.67-.424 1.334-.823 1.945-1.155a35 35 0 0 1 1.77-.89c2.422-1.14 3.632-1.711 4.718-1.08 1.086.633 1.185 1.955 1.382 4.6.056.748.091 1.482.091 2.139s-.035 1.39-.091 2.139c-.197 2.645-.296 3.967-1.382 4.6-1.086.631-2.296.06-4.718-1.08a35 35 0 0 1-1.77-.89 35 35 0 0 1-1.945-1.155"/></svg>