<svg xmlns="http://www.w3.org/2000/svg" fill="none" viewBox="0 0 24 24" width="1em" height="1em"><path stroke="currentColor" stroke-width="1.5" d="M18.922 12.15c1.603 2.623 2.071 4.999.98 6.091-1.63 1.63-6.118-.215-10.023-4.12S4.129 5.73 5.759 4.1c1.092-1.092 3.468-.624 6.092.979"/><path stroke="currentColor" stroke-width="1.5" d="M11.485 5.444a4.73 4.73 0 0 1 6.687 0l.384.384a4.73 4.73 0 0 1 0 6.687c-.126.126-.286.21-.46.178-.497-.089-1.72-.559-3.975-2.814S11.396 6.4 11.307 5.905c-.032-.175.052-.335.178-.46Z"/><circle cx="12" cy="12" r="1" fill="currentColor" transform="rotate(45 12 12)"/><circle cx="9.172" cy="7.757" r="1" fill="currentColor" transform="rotate(45 9.172 7.757)"/><circle cx="16.243" cy="14.829" r="1" fill="currentColor" transform="rotate(45 16.243 14.829)"/><path stroke="currentColor" stroke-linecap="round" stroke-width="1.5" d="m3.636 20.364 4.121-4.121M10 22l2.707-2.222M2 14l2.222-2.707"/></svg>