<svg xmlns="http://www.w3.org/2000/svg" fill="none" viewBox="0 0 24 24" width="1em" height="1em"><path fill="currentColor" fill-rule="evenodd" d="M8.92 7.293a.75.75 0 0 1 .958.457 2.251 2.251 0 0 0 4.244 0 .75.75 0 1 1 1.415.5 3.751 3.751 0 0 1-7.073 0 .75.75 0 0 1 .457-.957M12.36 5.5h-.72c-1.626 0-2.709.003-3.528.104-.778.096-1.137.263-1.389.472-.252.21-.482.531-.72 1.278-.25.787-.453 1.85-.752 3.448-.42 2.24-.702 3.761-.752 4.907-.048 1.105.137 1.575.397 1.888s.687.581 1.782.737c1.135.162 2.682.166 4.961.166h.722c2.278 0 3.826-.004 4.961-.166 1.095-.156 1.522-.424 1.782-.737.26-.314.445-.783.397-1.888-.05-1.146-.332-2.667-.752-4.907-.3-1.598-.502-2.66-.752-3.448-.238-.747-.468-1.069-.72-1.278s-.61-.376-1.39-.472c-.819-.101-1.9-.104-3.527-.104m-6.595-.578c-1.11.922-1.403 2.483-1.989 5.604-.823 4.389-1.234 6.583-.034 8.029S7.174 20 11.639 20h.722c4.465 0 6.698 0 7.897-1.445 1.2-1.446.788-3.64-.034-8.03-.586-3.12-.878-4.681-1.99-5.603C17.125 4 15.537 4 12.36 4h-.72c-3.176 0-4.764 0-5.875.922" clip-rule="evenodd"/></svg>