<svg xmlns="http://www.w3.org/2000/svg" fill="none" viewBox="0 0 24 24" width="1em" height="1em"><path fill="currentColor" d="M2.436 5.146C2 5.643 2 6.494 2 8.197v9.394c0 1.206 0 1.808.315 2.262.314.454.864.645 1.964 1.026l1.294.45c.701.242 1.24.43 1.693.55.296.078.567-.154.567-.46V6.27a.55.55 0 0 0-.425-.52c-.389-.098-.857-.26-1.498-.483-1.553-.538-2.33-.808-2.92-.534a1.7 1.7 0 0 0-.554.414M12.62 3.48l-1.536 1.065c-.555.386-.963.668-1.31.87a.54.54 0 0 0-.274.458V20.92c0 .37.384.602.696.402.335-.214.719-.48 1.184-.802l1.536-1.065c.555-.386.963-.668 1.31-.87a.54.54 0 0 0 .274-.458V3.08c0-.37-.384-.602-.696-.402-.335.214-.719.48-1.184.803m7.1-.361-1.293-.448c-.701-.243-1.24-.43-1.693-.55-.296-.08-.567.153-.567.458v15.15a.55.55 0 0 0 .425.52c.389.1.857.262 1.498.484 1.553.538 2.33.807 2.92.534a1.7 1.7 0 0 0 .554-.414c.436-.497.436-1.348.436-3.051V6.409c0-1.206 0-1.809-.315-2.263-.314-.453-.864-.644-1.964-1.026"/></svg>