<svg xmlns="http://www.w3.org/2000/svg" fill="none" viewBox="0 0 24 24" width="1em" height="1em"><path fill="currentColor" fill-rule="evenodd" d="m17.861 3.163.16.053 1.202.401c.463.154.87.29 1.191.44.348.162.667.37.911.709s.341.707.385 1.088c.04.353.04.78.04 1.269v8.213c0 .698 0 1.287-.054 1.753-.056.484-.182.962-.535 1.348a2.25 2.25 0 0 1-.746.538c-.478.212-.971.18-1.448.08-.46-.095-1.018-.281-1.68-.502l-.043-.015c-1.12-.373-1.505-.49-1.877-.477a2.3 2.3 0 0 0-.441.06c-.363.085-.703.299-1.686.954l-1.382.921-.14.094c-1.062.708-1.8 1.201-2.664 1.317-.863.115-1.705-.166-2.915-.57l-.16-.053-1.202-.401c-.463-.154-.87-.29-1.191-.44-.348-.162-.667-.37-.911-.709s-.341-.707-.385-1.088c-.04-.353-.04-.78-.04-1.269V8.664c0-.698 0-1.287.054-1.753.056-.483.182-.962.535-1.348a2.25 2.25 0 0 1 .746-.538c.478-.212.972-.18 1.448-.08.46.095 1.018.281 1.68.502l.043.014c1.12.374 1.505.49 1.878.478a2.3 2.3 0 0 0 .44-.06c.363-.085.703-.298 1.686-.954l1.382-.921.14-.094c1.062-.708 1.8-1.201 2.663-1.317.864-.115 1.706.166 2.916.57m-2.111.942V16.58c.536.058 1.1.247 1.843.495l.125.041c.717.24 1.192.397 1.555.473.356.074.477.04.532.016a.75.75 0 0 0 .249-.18c.04-.043.11-.148.152-.508.043-.37.044-.87.044-1.625v-8.13c0-.539-.001-.88-.03-1.138-.028-.238-.072-.327-.112-.381-.039-.055-.109-.125-.326-.226-.236-.11-.56-.219-1.07-.39l-1.165-.388c-.887-.295-1.413-.463-1.797-.534m-1.5 12.655V4.433c-.311.18-.71.442-1.276.819l-1.382.921-.11.074c-.688.459-1.201.801-1.732.993v12.327c.311-.18.71-.442 1.276-.819l1.382-.921.11-.074c.688-.459 1.201-.801 1.732-.993m-6 3.135V7.42c-.536-.058-1.1-.247-1.843-.495l-.125-.041c-.717-.24-1.192-.397-1.556-.473-.355-.074-.476-.04-.53-.016a.75.75 0 0 0-.25.18c-.04.043-.11.148-.152.509-.043.368-.044.869-.044 1.624v8.129c0 .539.001.88.03 1.138.028.238.072.327.112.381.039.055.109.125.326.226.236.11.56.219 1.07.39l1.165.387c.887.296 1.412.464 1.797.535" clip-rule="evenodd"/></svg>