<svg width="24" height="24" viewBox="0 0 24 24" fill="none" xmlns="http://www.w3.org/2000/svg">
<path fill-rule="evenodd" clip-rule="evenodd" d="M17.8005 3.297C18.2468 3.0437 18.5175 2.89188 18.727 2.80724C18.8236 2.76821 18.8796 2.75549 18.9095 2.75155C18.9321 2.74857 18.9393 2.75051 18.9428 2.75146L18.9438 2.75172C18.9472 2.75258 18.9535 2.7542 18.9701 2.76681C18.9927 2.78393 19.0337 2.82133 19.0969 2.90177C19.2343 3.07683 19.3907 3.34001 19.6487 3.77919L20.6974 5.56468C20.9554 6.00405 21.1089 6.26858 21.1942 6.47261C21.2334 6.56636 21.2453 6.61852 21.2487 6.64384C21.2503 6.65515 21.2499 6.66077 21.2499 6.66077L21.2496 6.66258L21.2487 6.66508C21.2487 6.66508 21.2455 6.67112 21.2378 6.68091C21.2209 6.70247 21.1829 6.74284 21.1004 6.80541C20.9215 6.94113 20.6527 7.09551 20.2062 7.34891L16.4708 9.46885C16.0481 9.70877 15.7955 9.85035 15.601 9.92876C15.512 9.96465 15.4631 9.97519 15.4401 9.97818L15.4339 9.97886L15.4289 9.9792L15.4259 9.97922L15.4233 9.97771C15.4215 9.97655 15.4184 9.97451 15.4141 9.97123C15.3956 9.9571 15.3586 9.92353 15.2994 9.84795C15.1702 9.68285 15.0222 9.43392 14.776 9.01478L13.656 7.1078C13.4032 6.67734 13.2534 6.41917 13.1701 6.22026C13.1319 6.12904 13.1205 6.07887 13.1172 6.05526C13.1165 6.0498 13.1162 6.0461 13.1161 6.04392L13.1161 6.04132L13.1174 6.03909L13.1197 6.0357L13.1241 6.02983C13.1387 6.01102 13.1736 5.97325 13.2523 5.91335C13.4239 5.78274 13.6827 5.63402 14.1168 5.38762L17.8005 3.297ZM19.3253 1.30105C18.8971 1.18826 18.5086 1.27768 18.1651 1.41646C17.8519 1.543 17.4937 1.74636 17.0992 1.97031L13.3372 4.10537C12.9554 4.32195 12.6059 4.52027 12.3438 4.71977C12.0568 4.93821 11.7842 5.22344 11.6688 5.6469L8.18897 7.62184L8.14969 7.64413C7.76796 7.86071 7.41841 8.05904 7.15631 8.25854C6.8691 8.47715 6.59627 8.76265 6.48106 9.18665L3.0534 11.132L3.01407 11.1543C2.61979 11.378 2.2614 11.5813 1.99298 11.7849C1.69925 12.0078 1.42061 12.2976 1.30319 12.7284C1.18544 13.1603 1.27961 13.5512 1.42185 13.8914C1.55124 14.2009 1.75878 14.5542 1.98608 14.9411L2.03212 15.0194C2.25949 15.4067 2.46687 15.7599 2.67456 16.0244C2.90333 16.3158 3.19656 16.5858 3.62597 16.6989C4.05422 16.8117 4.44268 16.7223 4.78617 16.5835C5.09939 16.4569 5.45762 16.2536 5.85214 16.0296L9.30688 14.0689L9.32585 14.0741C9.74325 14.186 10.121 14.0987 10.4502 13.9659C10.4975 13.9468 10.5459 13.9259 10.5953 13.9034L7.30876 21.7089C7.14802 22.0907 7.32719 22.5305 7.70894 22.6912C8.0907 22.8519 8.53047 22.6728 8.69121 22.291L12 14.4327L15.3088 22.291C15.4695 22.6728 15.9093 22.8519 16.291 22.6912C16.6728 22.5305 16.852 22.0907 16.6912 21.7089L12.8727 12.64L15.0178 11.4226L15.0377 11.4281C15.4551 11.5399 15.8329 11.4526 16.162 11.3199C16.4607 11.1994 16.8015 11.006 17.1727 10.7953L20.9859 8.63117C21.3802 8.40745 21.7386 8.20409 22.007 8.00047C22.3007 7.77765 22.5794 7.4878 22.6968 7.05706C22.8145 6.62507 22.7204 6.23419 22.5781 5.89399C22.4487 5.58451 22.2412 5.23123 22.0139 4.84431L20.9421 3.01953L20.9192 2.9805C20.6918 2.59326 20.4844 2.24008 20.2767 1.97553C20.048 1.68412 19.7547 1.41416 19.3253 1.30105ZM3.79377 12.4365L6.79131 10.7353C6.89733 10.9335 7.02152 11.1449 7.15218 11.3673L7.17507 11.4062L7.79321 12.4587C7.90855 12.6551 8.01883 12.8429 8.12677 13.0139L5.15076 14.7029C4.70444 14.9562 4.43378 15.1081 4.22428 15.1927C4.12768 15.2317 4.07172 15.2444 4.04184 15.2484C4.0192 15.2514 4.01201 15.2494 4.0085 15.2485L4.0075 15.2482C4.00412 15.2474 3.99779 15.2457 3.98115 15.2331C3.95856 15.216 3.91757 15.1786 3.85442 15.0982C3.717 14.9231 3.56055 14.6599 3.3026 14.2207C3.04454 13.7814 2.89106 13.5168 2.80576 13.3128C2.76656 13.2191 2.75471 13.1669 2.75126 13.1416C2.7497 13.1302 2.75003 13.1246 2.75003 13.1246L2.75039 13.1228L2.75132 13.1203C2.75132 13.1203 2.75448 13.1143 2.76216 13.1045C2.77907 13.083 2.81704 13.0426 2.89953 12.98C3.07845 12.8443 3.34727 12.6899 3.79377 12.4365ZM11.9785 7.1959L8.92934 8.92639C8.49518 9.17279 8.2364 9.32151 8.06481 9.45212C7.98611 9.51202 7.9512 9.54979 7.93656 9.5686C7.93317 9.57296 7.93108 9.57603 7.92991 9.57787L7.92858 9.5801L7.92862 9.58269C7.92871 9.58487 7.92899 9.58857 7.92974 9.59403C7.93302 9.61765 7.94437 9.66781 7.98258 9.75904C8.06589 9.95794 8.21566 10.2161 8.46848 10.6466L9.06418 11.6608C9.31035 12.0799 9.45838 12.3289 9.58756 12.494C9.64671 12.5696 9.68379 12.6031 9.70228 12.6173C9.70657 12.6205 9.70961 12.6226 9.71145 12.6237L9.71403 12.6252L9.71702 12.6252C9.7192 12.6251 9.72285 12.6249 9.72821 12.6242C9.75128 12.6212 9.80018 12.6107 9.88919 12.5748C10.0836 12.4964 10.3363 12.3548 10.759 12.1149L11.5334 11.6754L12.2866 11.2479L13.8382 10.3673C13.7304 10.1965 13.6203 10.0089 13.5051 9.81267L12.3397 7.82851C12.2089 7.60586 12.0846 7.39426 11.9785 7.1959Z" fill="#1C274C"/>
</svg>
