<svg xmlns="http://www.w3.org/2000/svg" fill="none" viewBox="0 0 24 24" width="1em" height="1em"><path stroke="currentColor" stroke-width="1.5" d="M13.7 6.837C16.567 9.029 18 10.125 18 12s-1.433 2.97-4.3 5.163a41 41 0 0 1-2.297 1.65c-.633.416-1.35.847-2.091 1.27-2.86 1.63-4.29 2.446-5.572 1.543-1.283-.902-1.4-2.792-1.632-6.57A51 51 0 0 1 2 12c0-.94.042-1.987.108-3.055.233-3.78.35-5.668 1.632-6.571s2.712-.087 5.572 1.543c.742.423 1.458.854 2.091 1.27a41 41 0 0 1 2.297 1.65Z" opacity=".5"/><path stroke="currentColor" stroke-linecap="round" stroke-width="1.5" d="M22 5v15"/></svg>