<svg xmlns="http://www.w3.org/2000/svg" fill="none" viewBox="0 0 24 24" width="1em" height="1em"><path fill="currentColor" fill-rule="evenodd" d="m9.612 3.225.071.04c.75.429 1.482.868 2.132 1.296a42 42 0 0 1 2.34 1.68l.058.044c1.385 1.059 2.504 1.915 3.265 2.746.805.88 1.272 1.794 1.272 2.97 0 1.174-.467 2.09-1.272 2.968-.762.832-1.88 1.687-3.265 2.747l-.057.043c-.8.611-1.6 1.193-2.34 1.68-.65.428-1.382.868-2.133 1.296l-.07.04c-1.37.781-2.495 1.422-3.44 1.74-1.016.343-1.965.358-2.865-.275-.866-.61-1.276-1.527-1.512-2.669-.23-1.11-.32-2.57-.433-4.408l-.004-.061A52 52 0 0 1 1.25 12c0-.96.043-2.023.11-3.101l.003-.062c.113-1.837.203-3.298.433-4.408.236-1.141.646-2.059 1.512-2.668.9-.633 1.85-.618 2.866-.276.944.318 2.069.96 3.438 1.74m-3.917-.318c-.734-.247-1.141-.189-1.524.08-.416.294-.705.772-.906 1.746-.205.992-.29 2.345-.409 4.258a50 50 0 0 0-.106 3.01c0 .918.04 1.95.106 3.008.118 1.913.204 3.266.409 4.259.2.973.49 1.452.906 1.745.383.27.79.328 1.524.08.79-.265 1.787-.83 3.245-1.661.733-.418 1.435-.84 2.05-1.245a40 40 0 0 0 2.255-1.62c1.455-1.113 2.466-1.889 3.127-2.61.628-.687.878-1.257.878-1.957s-.25-1.27-.878-1.956c-.661-.722-1.672-1.498-3.127-2.611a40 40 0 0 0-2.254-1.619 38 38 0 0 0-2.05-1.245c-1.459-.832-2.457-1.396-3.246-1.662M22 4.25a.75.75 0 0 1 .75.75v15a.75.75 0 0 1-1.5 0V5a.75.75 0 0 1 .75-.75" clip-rule="evenodd"/></svg>