<svg width="24" height="24" viewBox="0 0 24 24" fill="none" xmlns="http://www.w3.org/2000/svg">
<path d="M2.81497 16.2498C2.94073 15.8551 2.72275 15.4332 2.32809 15.3075C1.93343 15.1817 1.51154 15.3997 1.38578 15.7943C1.19408 16.3959 1.1737 17.057 1.53504 17.6345C1.98791 18.3584 2.8417 18.641 3.68923 18.7221C4.10156 18.7615 4.46781 18.4593 4.50728 18.047C4.54674 17.6346 4.24448 17.2684 3.83215 17.2289C3.13779 17.1625 2.88371 16.9621 2.80667 16.8389C2.75695 16.7595 2.70495 16.595 2.81497 16.2498Z" fill="#1C274C"/>
<path d="M6.48544 18.5088C6.99787 18.4074 7.53835 18.2749 8.10044 18.113C7.57979 17.7802 7.10449 17.3827 6.68586 16.9318C6.51847 16.9705 6.35455 17.0056 6.19433 17.0373C5.78799 17.1177 5.52376 17.5123 5.60415 17.9186C5.60897 17.9431 5.61494 17.967 5.62197 17.9903C5.78665 18.1656 5.95848 18.3341 6.13698 18.4953C6.24695 18.5263 6.36568 18.5325 6.48544 18.5088Z" fill="#1C274C"/>
<path fill-rule="evenodd" clip-rule="evenodd" d="M19.0825 10.4435C18.4993 10.9735 17.8133 11.5232 17.0389 12.075C16.7016 12.3153 16.6229 12.7836 16.8633 13.121C17.1036 13.4583 17.572 13.537 17.9093 13.2966C18.3828 12.9593 18.8291 12.6197 19.2447 12.281C19.2482 12.1878 19.25 12.0941 19.25 12C19.25 11.4657 19.1922 10.9449 19.0825 10.4435ZM8.10044 18.113C8.73677 17.9297 9.40079 17.7087 10.0832 17.4526C10.4709 17.307 10.6673 16.8746 10.5217 16.4868C10.3761 16.099 9.94375 15.9027 9.55597 16.0483C8.52815 16.4341 7.5598 16.7301 6.68586 16.9318C7.10449 17.3827 7.57979 17.7802 8.10044 18.113ZM15.7506 14.7037C16.1061 14.4911 16.222 14.0306 16.0094 13.6751C15.7969 13.3196 15.3363 13.2037 14.9808 13.4162C14.4993 13.7042 13.9976 13.9878 13.4783 14.2645C12.9447 14.5487 12.4134 14.8146 11.8884 15.0612C11.5135 15.2373 11.3524 15.684 11.5285 16.0589C11.7046 16.4338 12.1513 16.5949 12.5262 16.4188C13.074 16.1615 13.6279 15.8844 14.1836 15.5883C14.7244 15.3002 15.2476 15.0044 15.7506 14.7037Z" fill="#1C274C"/>
<path d="M4.75 12C4.75 7.99594 7.99594 4.75 12 4.75C15.4698 4.75 18.3702 7.18746 19.0825 10.4435C19.2832 10.2611 19.4718 10.081 19.6475 9.90396C19.8649 9.68506 20.1837 9.62822 20.4537 9.734C20.1648 8.65332 19.6742 7.65506 19.0246 6.78204C19.429 6.73635 19.7244 6.37527 19.6869 5.96807C19.649 5.5556 19.2838 5.252 18.8714 5.28997C18.5272 5.32164 18.1657 5.37181 17.7897 5.43925C16.247 4.07679 14.2201 3.25 12 3.25C7.16751 3.25 3.25 7.16751 3.25 12C3.25 12.3435 3.27302 12.6824 3.31153 13.0156C2.97667 13.3513 2.67612 13.6843 2.41516 14.0109C2.15663 14.3346 2.2094 14.8065 2.53303 15.065C2.85666 15.3236 3.32859 15.2708 3.58712 14.9472C3.62599 14.8985 3.66613 14.8494 3.70754 14.7998C4.1131 16.0015 4.77251 17.0862 5.62197 17.9903C5.61494 17.967 5.60897 17.9431 5.60415 17.9186C5.52376 17.5123 5.78799 17.1177 6.19433 17.0373C6.35455 17.0056 6.51847 16.9705 6.68586 16.9318C5.48456 15.638 4.75 13.9048 4.75 12Z" fill="#1C274C"/>
<path d="M12 20.75C16.8325 20.75 20.75 16.8325 20.75 12C20.75 11.6555 20.7301 11.3157 20.6914 10.9815C20.2659 11.4084 19.781 11.8439 19.2447 12.281C19.097 16.1548 15.91 19.25 12 19.25C10.5645 19.25 9.22643 18.8328 8.10044 18.113C7.53835 18.2749 6.99787 18.4074 6.48544 18.5088C6.36568 18.5325 6.24695 18.5263 6.13698 18.4953C7.68853 19.8967 9.74461 20.75 12 20.75Z" fill="#1C274C"/>
<path d="M19.6475 9.90396C19.4718 10.081 19.2832 10.2611 19.0825 10.4435C19.1922 10.9449 19.25 11.4657 19.25 12C19.25 12.0941 19.2482 12.1878 19.2447 12.281C19.781 11.8439 20.2659 11.4084 20.6914 10.9815C20.642 10.5556 20.562 10.139 20.4537 9.734C20.1837 9.62822 19.8649 9.68506 19.6475 9.90396Z" fill="#1C274C"/>
<path d="M20.9368 5.37889C20.5337 5.28343 20.1296 5.53278 20.0341 5.93584C19.9387 6.3389 20.188 6.74304 20.5911 6.83851C20.9851 6.93184 21.1369 7.0709 21.1933 7.16107C21.2567 7.26234 21.3264 7.52697 21.0365 8.10903C20.8518 8.47979 21.0026 8.93007 21.3734 9.11475C21.7442 9.29944 22.1944 9.14859 22.3791 8.77783C22.7568 8.01968 22.9424 7.12851 22.465 6.36547C22.1208 5.81539 21.5417 5.52217 20.9368 5.37889Z" fill="#1C274C"/>
<path d="M20.712 10.9608C21.0038 10.6668 21.0021 10.192 20.7082 9.90014C20.6332 9.82564 20.5463 9.77026 20.4537 9.734C20.562 10.139 20.642 10.5556 20.6914 10.9815L20.712 10.9608Z" fill="#1C274C"/>
</svg>
