<svg xmlns="http://www.w3.org/2000/svg" fill="none" viewBox="0 0 24 24" width="1em" height="1em"><path fill="currentColor" fill-rule="evenodd" d="M8 4c0-.552.413-1 .923-1h6.154c.51 0 .923.448.923 1s-.413 1-.923 1H8.923C8.413 5 8 4.552 8 4" clip-rule="evenodd"/><path fill="currentColor" d="M9.5 13.5c0-1.331 1.12-2.41 2.5-2.41s2.5 1.079 2.5 2.41-1.12 2.411-2.5 2.411-2.5-1.08-2.5-2.41"/><path fill="currentColor" fill-rule="evenodd" d="M14.222 21H9.778c-3.121 0-4.682 0-5.803-.722a4.4 4.4 0 0 1-1.226-1.183C2 18.015 2 16.51 2 13.5v-.002c0-3.008 0-4.513.749-5.593a4.4 4.4 0 0 1 1.226-1.183C5.096 6 6.657 6 9.778 6h4.444c3.121 0 4.682 0 5.803.722.485.313.902.715 1.226 1.183C22 8.985 22 10.49 22 13.5s0 4.514-.749 5.595c-.324.468-.741.87-1.226 1.183-1.121.722-2.682.722-5.803.722m-6.388-7.5c0-2.219 1.865-4.018 4.166-4.018s4.167 1.8 4.167 4.018c0 2.22-1.866 4.018-4.167 4.018S7.834 15.72 7.834 13.5m9.444-3.214c0-.444.373-.804.833-.804h.556c.46 0 .833.36.833.804s-.373.804-.833.804h-.556c-.46 0-.833-.36-.833-.804" clip-rule="evenodd"/></svg>