<svg width="24" height="24" viewBox="0 0 24 24" fill="none" xmlns="http://www.w3.org/2000/svg">
<path fill-rule="evenodd" clip-rule="evenodd" d="M16.2606 1.87421C16.3301 1.46587 16.7174 1.19115 17.1258 1.26062C20.3254 1.80494 22.75 4.62108 22.75 8C22.75 8.27746 22.5968 8.53226 22.3518 8.66239C22.1067 8.79253 21.8098 8.77674 21.58 8.62134L20.08 7.60732C19.7368 7.37534 19.6467 6.9091 19.8787 6.56594C20.1106 6.22278 20.5769 6.13265 20.92 6.36463L21.0196 6.43195C20.4426 4.52259 18.8399 3.07378 16.8742 2.73938C16.4659 2.66991 16.1912 2.28256 16.2606 1.87421ZM8.3184 3.31571C7.73917 3.75765 7.0607 4.43387 6.08644 5.40813L5.40813 6.08644C4.43387 7.06069 3.75765 7.73917 3.31572 8.3184C2.88698 8.88032 2.75 9.25984 2.75 9.62593C2.75 9.99203 2.88698 10.3715 3.31572 10.9335C3.75765 11.5127 4.43387 12.1912 5.40813 13.1654L10.8346 18.5919C11.8088 19.5661 12.4873 20.2423 13.0665 20.6843C13.6285 21.113 14.008 21.25 14.3741 21.25C14.7402 21.25 15.1197 21.113 15.6816 20.6843C16.2608 20.2423 16.9393 19.5661 17.9136 18.5919L18.5919 17.9136C19.5661 16.9393 20.2423 16.2608 20.6843 15.6816C21.113 15.1197 21.25 14.7402 21.25 14.3741C21.25 14.008 21.113 13.6285 20.6843 13.0665C20.2423 12.4873 19.5661 11.8088 18.5919 10.8346L13.1654 5.40813C12.1912 4.43387 11.5127 3.75765 10.9335 3.31571C10.3715 2.88698 9.99203 2.75 9.62593 2.75C9.25984 2.75 8.88032 2.88698 8.3184 3.31571ZM7.40853 2.12318C8.10388 1.59265 8.8 1.25 9.62593 1.25C10.4519 1.25 11.148 1.59265 11.8433 2.12318C12.5121 2.63344 13.261 3.38239 14.1875 4.30885L19.6911 9.81252C20.6176 10.739 21.3666 11.4879 21.8768 12.1567C22.4074 12.852 22.75 13.5481 22.75 14.3741C22.75 15.2 22.4074 15.8961 21.8768 16.5915C21.3666 17.2603 20.6176 18.0092 19.6911 18.9356L18.9356 19.6911C18.0092 20.6176 17.2603 21.3666 16.5915 21.8768C15.8961 22.4073 15.2 22.75 14.3741 22.75C13.5481 22.75 12.852 22.4073 12.1567 21.8768C11.4879 21.3666 10.739 20.6176 9.81252 19.6911L4.30885 14.1875C3.38239 13.261 2.63344 12.5121 2.12318 11.8433C1.59265 11.148 1.25 10.4519 1.25 9.62593C1.25 8.8 1.59265 8.10388 2.12318 7.40852C2.63344 6.73975 3.38239 5.99082 4.30885 5.0644L5.0644 4.30884C5.99083 3.38239 6.73975 2.63344 7.40853 2.12318ZM9.47792 5.02585C9.77081 5.31874 9.77081 5.79361 9.47792 6.08651L6.0864 9.47803C5.7935 9.77092 5.31863 9.77092 5.02574 9.47803C4.73284 9.18514 4.73284 8.71026 5.02574 8.41737L8.41726 5.02585C8.71015 4.73295 9.18503 4.73295 9.47792 5.02585ZM16.2178 15.2438C15.9488 14.9748 15.5126 14.9748 15.2436 15.2438C14.9745 15.5129 14.9745 15.9491 15.2436 16.2181C15.5126 16.4871 15.9488 16.4871 16.2178 16.2181C16.4869 15.9491 16.4869 15.5129 16.2178 15.2438ZM14.1829 14.1832C15.0377 13.3284 16.4237 13.3284 17.2785 14.1832C18.1333 15.038 18.1333 16.4239 17.2785 17.2787C16.4237 18.1336 15.0377 18.1336 14.1829 17.2787C13.3281 16.4239 13.3281 15.038 14.1829 14.1832ZM1.64824 15.3376C1.89329 15.2075 2.19017 15.2233 2.42004 15.3787L3.92004 16.3927C4.2632 16.6247 4.35332 17.0909 4.12134 17.4341C3.88936 17.7772 3.42312 17.8673 3.07996 17.6354L2.98038 17.568C3.55736 19.4774 5.16008 20.9262 7.12578 21.2606C7.53413 21.3301 7.80885 21.7174 7.73938 22.1258C7.66991 22.5341 7.28256 22.8088 6.87422 22.7394C3.67459 22.1951 1.25 19.3789 1.25 16C1.25 15.7225 1.40319 15.4677 1.64824 15.3376Z" fill="#1C274C"/>
</svg>
