<svg xmlns="http://www.w3.org/2000/svg" fill="none" viewBox="0 0 24 24" width="1em" height="1em"><path fill="currentColor" fill-rule="evenodd" d="M12.75 10.5h-1.5v2h1.5zm-1.5-7h1.5V2a.75.75 0 0 0-1.5 0zm0 17.75V19.5h1.5v1.75H14a.75.75 0 0 1 0 1.5h-4a.75.75 0 0 1 0-1.5z" clip-rule="evenodd" opacity=".5"/><path fill="currentColor" fill-rule="evenodd" d="M15.5 10.5c1.404 0 2.107 0 2.611-.337a2 2 0 0 0 .552-.552C19 9.107 19 8.404 19 7s0-2.107-.337-2.611a2 2 0 0 0-.552-.552C17.607 3.5 16.904 3.5 15.5 3.5H8.704c-.658 0-.986 0-1.288.098a2 2 0 0 0-.383.17c-.274.16-.494.404-.933.894-.85.947-1.276 1.42-1.379 1.974a2 2 0 0 0 0 .728c.103.553.528 1.027 1.379 1.974.44.49.659.734.933.893q.183.105.383.17c.302.099.63.099 1.288.099zM8.25 7A.75.75 0 0 1 9 6.25h6a.75.75 0 0 1 0 1.5H9A.75.75 0 0 1 8.25 7M5.889 19.163c.504.337 1.207.337 2.611.337h6.796c.658 0 .986 0 1.288-.098q.2-.066.383-.17c.274-.16.494-.404.933-.894.85-.947 1.276-1.42 1.379-1.974a2 2 0 0 0 0-.728c-.103-.553-.528-1.027-1.379-1.974-.44-.49-.659-.734-.933-.893a2 2 0 0 0-.383-.17c-.302-.099-.63-.099-1.288-.099H8.5c-1.404 0-2.107 0-2.611.337a2 2 0 0 0-.552.552C5 13.893 5 14.596 5 16s0 2.107.337 2.611a2 2 0 0 0 .552.552M8.25 16a.75.75 0 0 1 .75-.75h6a.75.75 0 0 1 0 1.5H9a.75.75 0 0 1-.75-.75" clip-rule="evenodd"/></svg>