<svg xmlns="http://www.w3.org/2000/svg" fill="none" viewBox="0 0 24 24" width="1em" height="1em"><path fill="currentColor" fill-rule="evenodd" d="M6.865 20.583A9.95 9.95 0 0 1 3.34 17 9.96 9.96 0 0 1 2 12.159l.144.028c2.949.581 6.304-.469 9.062-2.162q.544-.334 1.064-.706c.413.516.783 1.04 1.081 1.556.374.647.712 1.417 1.014 2.24a18 18 0 0 0-1.508.822c-2.792 1.699-5.174 4.176-5.992 6.644zm9.395.465a10 10 0 0 1-8.039.21l.068-.204c.664-2.002 2.72-4.237 5.348-5.836q.593-.36 1.207-.667c.252.83.47 1.671.655 2.462a51 51 0 0 1 .698 3.597l.008.053.002.012v.004z" clip-rule="evenodd"/><path fill="currentColor" d="M16.226 13.943c1.888-.72 3.812-.996 5.477-.63l.205.045c-.122.884-.361 1.75-.712 2.57a9.95 9.95 0 0 1-3.537 4.317l-.013-.079a52 52 0 0 0-.687-3.494 40 40 0 0 0-.733-2.73m-2.773-5.545c1.728-1.469 3.087-3.21 3.672-4.949l.01-.03A9.96 9.96 0 0 1 20.66 7 9.96 9.96 0 0 1 22 11.842c-1.995-.431-4.186-.1-6.255.68-.321-.864-.685-1.687-1.095-2.397a14 14 0 0 0-1.197-1.728M8.319 3.454a35 35 0 0 0-.6-.465l-.023-.016a9.95 9.95 0 0 1 5.5-.902c.887.107 1.757.333 2.584.67l-.077.229c-.477 1.418-1.65 2.95-3.228 4.29-.73-.795-1.5-1.531-2.203-2.16A42 42 0 0 0 8.32 3.453m2.1 5.294c-2.586 1.588-5.55 2.449-7.986 1.969l-.343-.068a10 10 0 0 1 4.19-6.853l.329.239.002.001.009.007.039.029.154.115a40 40 0 0 1 2.456 2.03c.66.592 1.359 1.26 2.013 1.965q-.42.293-.862.566"/></svg>