<svg xmlns="http://www.w3.org/2000/svg" fill="none" viewBox="0 0 24 24" width="1em" height="1em"><path stroke="currentColor" stroke-linecap="round" stroke-width="1.5" d="M11 9.5a4.5 4.5 0 1 0-9 0m9 0a4.5 4.5 0 0 1-9 0m9 0H2m12.758-2.378A3 3 0 1 0 19 2.879a3 3 0 0 0-4.242 4.243Z"/><path stroke="currentColor" stroke-width="1.5" d="M20.905 17.381a3.738 3.738 0 0 0-5.286-5.286l-3.524 3.524a3.738 3.738 0 0 0 5.286 5.286z"/><path stroke="currentColor" stroke-width="1.5" d="M14 14s.281 1.46 1.911 3.09S19 19 19 19"/></svg>