<svg xmlns="http://www.w3.org/2000/svg" fill="none" viewBox="0 0 24 24" width="1em" height="1em"><path fill="currentColor" d="M16.54 2.088C15.33 2 13.845 2 12 2h-.1L8.4 7.25h4.7zm-6.444-.084c-3.474.027-5.38.208-6.632 1.46-.857.858-1.213 2.022-1.36 3.786H6.6zm10.44 1.46c.857.858 1.212 2.022 1.36 3.786H14.9l3.3-4.946c.993.21 1.74.563 2.336 1.16"/><path fill="currentColor" d="M2 12c0-1.237 0-2.311.026-3.25h19.948C22 9.689 22 10.763 22 12c0 4.714 0 7.071-1.465 8.535C19.072 22 16.714 22 12 22s-7.071 0-8.536-1.465C2 19.072 2 16.714 2 12" opacity=".5"/><path fill="currentColor" d="M5.75 17.5a.75.75 0 0 1 .75-.75H12a.75.75 0 0 1 0 1.5H6.5a.75.75 0 0 1-.75-.75m.75-4.25a.75.75 0 0 0 0 1.5h8a.75.75 0 0 0 0-1.5z"/></svg>