<svg xmlns="http://www.w3.org/2000/svg" fill="none" viewBox="0 0 24 24" width="1em" height="1em"><path fill="currentColor" fill-rule="evenodd" d="M12 1.25a4.75 4.75 0 1 0 0 9.5 4.75 4.75 0 0 0 0-9.5M8.75 6a3.25 3.25 0 1 1 6.5 0 3.25 3.25 0 0 1-6.5 0" clip-rule="evenodd"/><path fill="currentColor" d="M5.75 17c0-.72.517-1.517 1.672-2.177 1.134-.648 2.751-1.073 4.578-1.073 1.2 0 2.316.184 3.265.497a.75.75 0 1 0 .47-1.424c-1.11-.367-2.386-.573-3.735-.573-2.04 0-3.923.47-5.322 1.27C5.3 14.308 4.25 15.51 4.25 17v.1c-.001 1.025-.003 2.355 1.147 3.306.567.47 1.355.798 2.405 1.014 1.053.217 2.422.33 4.198.33q.535 0 1.02-.014a.75.75 0 1 0-.041-1.499q-.463.013-.98.013c-1.723 0-2.98-.11-3.895-.299-.918-.189-1.443-.446-1.751-.7-.563-.466-.603-1.08-.603-2.251"/><path fill="currentColor" fill-rule="evenodd" d="M18 15.25a3.75 3.75 0 1 0 0 7.5 3.75 3.75 0 0 0 0-7.5m.97 1.72-3 3a2.25 2.25 0 0 1 3-3m-1.94 4.06a2.25 2.25 0 0 0 3-3z" clip-rule="evenodd"/></svg>