<svg width="24" height="24" viewBox="0 0 24 24" fill="none" xmlns="http://www.w3.org/2000/svg">
<path opacity="0.5" d="M5 10C5 6.13401 8.13401 3 12 3C15.866 3 19 6.13401 19 10V15C19 18.866 15.866 22 12 22C8.13401 22 5 18.866 5 15V10Z" fill="#1C274C"/>
<path d="M9.75 15.5C9.75 15.0858 10.0858 14.75 10.5 14.75H13.5C13.9142 14.75 14.25 15.0858 14.25 15.5C14.25 15.9142 13.9142 16.25 13.5 16.25H10.5C10.0858 16.25 9.75 15.9142 9.75 15.5Z" fill="#1C274C"/>
<path d="M10.5 9.75C10.0858 9.75 9.75 10.0858 9.75 10.5C9.75 10.9142 10.0858 11.25 10.5 11.25H13.5C13.9142 11.25 14.25 10.9142 14.25 10.5C14.25 10.0858 13.9142 9.75 13.5 9.75H10.5Z" fill="#1C274C"/>
<path d="M17.416 2.624C17.7607 2.39423 17.8538 1.92858 17.624 1.58393C17.3943 1.23929 16.9286 1.14616 16.584 1.37592L13.7982 3.23307C14.3906 3.39006 14.9521 3.62276 15.4718 3.92017L17.416 2.624Z" fill="#1C274C"/>
<path d="M18.8297 8.45828C18.7198 7.96936 18.5587 7.49979 18.3525 7.05549C18.3753 7.04347 18.3991 7.0325 18.4236 7.02269L20.2213 6.3036C20.6059 6.14977 21.0424 6.33683 21.1962 6.72141C21.3501 7.106 21.163 7.54248 20.7784 7.69632L18.9807 8.41541C18.931 8.43529 18.8804 8.44948 18.8297 8.45828Z" fill="#1C274C"/>
<path d="M19 13.75H22C22.4142 13.75 22.75 13.4142 22.75 13C22.75 12.5857 22.4142 12.25 22 12.25H19V13.75Z" fill="#1C274C"/>
<path d="M17.9422 18.7018C18.1871 18.3096 18.3942 17.8913 18.5584 17.4522C18.6321 17.458 18.7063 17.4749 18.7785 17.5038L20.7785 18.3038C21.1631 18.4576 21.3502 18.8941 21.1964 19.2787C21.0425 19.6633 20.606 19.8503 20.2215 19.6965L18.2215 18.8965C18.1109 18.8523 18.0167 18.7847 17.9422 18.7018Z" fill="#1C274C"/>
<path d="M5.44158 17.4522C5.60585 17.8913 5.81295 18.3096 6.0578 18.7018C5.9833 18.7847 5.88908 18.8523 5.77854 18.8965L3.77854 19.6965C3.39396 19.8503 2.95748 19.6633 2.80364 19.2787C2.64981 18.8941 2.83687 18.4576 3.22146 18.3038L5.22146 17.5038C5.29374 17.4749 5.36785 17.458 5.44158 17.4522Z" fill="#1C274C"/>
<path d="M5 12.25H2C1.58579 12.25 1.25 12.5857 1.25 13C1.25 13.4142 1.58579 13.75 2 13.75H5V12.25Z" fill="#1C274C"/>
<path d="M5.64754 7.05549C5.44126 7.49979 5.28021 7.96936 5.17032 8.45828C5.1196 8.44948 5.06902 8.43529 5.01931 8.41541L3.22158 7.69632C2.83699 7.54248 2.64993 7.106 2.80376 6.72141C2.9576 6.33683 3.39408 6.14977 3.77867 6.3036L5.57639 7.02269C5.60093 7.0325 5.62465 7.04347 5.64754 7.05549Z" fill="#1C274C"/>
<path d="M8.52824 3.92017L6.58397 2.624C6.23933 2.39423 6.1462 1.92858 6.37596 1.58393C6.60573 1.23929 7.07138 1.14616 7.41603 1.37592L10.2018 3.23307C9.60944 3.39006 9.04794 3.62276 8.52824 3.92017Z" fill="#1C274C"/>
</svg>
