<svg xmlns="http://www.w3.org/2000/svg" fill="none" viewBox="0 0 24 24" width="1em" height="1em"><path fill="currentColor" d="M7.25 9A.75.75 0 0 1 8 8.25h3a.75.75 0 0 1 0 1.5H8A.75.75 0 0 1 7.25 9"/><path fill="currentColor" fill-rule="evenodd" d="M1.288 2.763a.75.75 0 0 1 .95-.475l.304.102c.626.209 1.155.385 1.571.579.443.206.827.46 1.118.865.291.403.412.848.467 1.333l.009.083H16.51c.976 0 1.792 0 2.417.092.651.097 1.28.318 1.675.92.397.6.353 1.265.185 1.902-.16.61-.483 1.36-.867 2.258l-.467 1.089c-.177.412-.332.775-.493 1.062-.175.31-.388.592-.711.805-.324.213-.667.298-1.021.337-.328.035-.722.035-1.17.035H6.153c.073.134.158.244.255.341.277.277.665.457 1.4.556.754.101 1.756.103 3.191.103h8a.75.75 0 1 1 0 1.5h-8.055c-1.367 0-2.47 0-3.337-.117-.9-.12-1.658-.38-2.26-.981-.602-.602-.86-1.36-.982-2.26-.116-.867-.116-1.97-.116-3.337V6.883c0-.713-.001-1.185-.042-1.546-.04-.342-.108-.507-.194-.626-.086-.12-.221-.237-.533-.382-.33-.153-.777-.304-1.453-.53l-.265-.088a.75.75 0 0 1-.475-.948m4.519 9.487h10.215c.496 0 .808-.001 1.046-.027.219-.023.303-.062.356-.097s.121-.097.23-.289c.116-.208.24-.495.436-.95l.428-1c.415-.968.69-1.616.82-2.106.125-.476.062-.62.013-.694-.048-.073-.156-.189-.643-.26-.501-.075-1.205-.077-2.258-.077H5.75V9.5c0 1.172.001 2.054.057 2.75m1.693 9.5a2.25 2.25 0 1 1 0-4.5 2.25 2.25 0 0 1 0 4.5m-.75-2.25a.75.75 0 1 0 1.5 0 .75.75 0 0 0-1.5 0m7.5 0a2.25 2.25 0 1 0 4.5 0 2.25 2.25 0 0 0-4.5 0m2.25.75a.75.75 0 1 1 0-1.5.75.75 0 0 1 0 1.5" clip-rule="evenodd"/></svg>