<svg xmlns="http://www.w3.org/2000/svg" fill="none" viewBox="0 0 24 24" width="1em" height="1em"><path stroke="currentColor" stroke-width="1.5" d="M2 14c0-3.771 0-5.657 1.172-6.828S6.229 6 10 6h4c3.771 0 5.657 0 6.828 1.172S22 10.229 22 14s0 5.657-1.172 6.828S17.771 22 14 22h-4c-3.771 0-5.657 0-6.828-1.172S2 17.771 2 14Z"/><circle cx="8" cy="14" r="3" stroke="currentColor" stroke-width="1.5"/><path stroke="currentColor" stroke-linecap="round" stroke-width="1.5" d="M13.5 11H19m-5.5 3H19m-5.5 3H19M6.5 6 15 2"/></svg>