<svg xmlns="http://www.w3.org/2000/svg" fill="none" viewBox="0 0 24 24" width="1em" height="1em"><path fill="currentColor" fill-rule="evenodd" d="m4.93 1.53.048.007c.288.04.543.076.753.12.224.049.452.118.67.252.482.297.82.778.958 1.324.069.275.05.636.03.907l-.024.256 4.657.648.035-.228c.045-.266.113-.623.247-.874a2.1 2.1 0 0 1 1.263-1.034c.247-.071.486-.075.714-.06.214.014.469.049.757.09l.049.006c.288.04.543.075.753.12.224.048.452.118.67.252.482.297.82.777.958 1.323.06.243.065.48.052.715-.013.224-.046.492-.084.804l-.35 2.885c-.037.312-.07.58-.11.8-.044.23-.105.46-.223.681a2.1 2.1 0 0 1-1.264 1.035 2 2 0 0 1-.713.06c-.214-.014-.47-.05-.757-.09l-.049-.006c-.288-.04-.543-.075-.753-.12a2.1 2.1 0 0 1-.67-.252 2.17 2.17 0 0 1-.958-1.324c-.07-.274-.05-.636-.03-.906l.023-.257-4.656-.648q-.017.118-.036.228c-.044.266-.112.623-.246.874a2.1 2.1 0 0 1-1.263 1.034 2 2 0 0 1-.714.06c-.214-.013-.469-.049-.757-.089l-.049-.007c-.288-.04-.543-.075-.753-.12a2.1 2.1 0 0 1-.67-.252 2.17 2.17 0 0 1-.958-1.323 2.3 2.3 0 0 1-.052-.715c.013-.224.046-.492.084-.804l.35-2.885c.037-.311.07-.58.11-.8.044-.23.105-.46.223-.681A2.1 2.1 0 0 1 3.46 1.5c.246-.07.485-.075.713-.06.214.014.47.05.757.09m-.856 1.408a.6.6 0 0 0-.199.004.6.6 0 0 0-.358.303 1 1 0 0 0-.07.247c-.03.168-.058.388-.1.728l-.344 2.84c-.041.34-.067.561-.077.732-.01.164 0 .23.009.262a.67.67 0 0 0 .29.413.7.7 0 0 0 .197.062c.15.032.35.06.67.105s.52.072.673.082a.6.6 0 0 0 .2-.005.6.6 0 0 0 .353-.296c0-.002.012-.03.029-.096q.03-.123.064-.32c.044-.266.083-.585.123-.92a.75.75 0 0 1 .848-.653l6.132.853a.75.75 0 0 1 .641.833c-.04.335-.08.655-.1.923q-.015.201-.014.328c0 .074.005.104.004.105a.67.67 0 0 0 .289.406.7.7 0 0 0 .197.062c.15.032.35.06.67.105.32.044.52.072.673.082a.6.6 0 0 0 .199-.005.6.6 0 0 0 .358-.303 1 1 0 0 0 .07-.247c.03-.167.058-.388.1-.728L15.944 6c.04-.34.067-.561.077-.731a1 1 0 0 0-.009-.263.67.67 0 0 0-.29-.413.7.7 0 0 0-.197-.062c-.15-.032-.35-.06-.67-.105-.32-.044-.52-.072-.673-.082a.6.6 0 0 0-.2.005.6.6 0 0 0-.353.296c0 .002-.012.03-.029.097q-.03.121-.064.32c-.044.265-.083.585-.124.92a.75.75 0 0 1-.848.652l-6.131-.853a.75.75 0 0 1-.641-.833c.04-.335.08-.654.1-.923q.015-.202.014-.328c0-.074-.005-.104-.004-.104a.67.67 0 0 0-.29-.407.7.7 0 0 0-.196-.062c-.15-.032-.35-.06-.67-.105-.32-.044-.52-.071-.673-.081m15.124 9.308c-.151.032-.346.087-.658.177-.31.09-.506.146-.652.199a.7.7 0 0 0-.192.092.7.7 0 0 0-.243.455s0 .03.009.104q.015.126.055.322c.053.264.13.575.213.901a.75.75 0 0 1-.521.903l-5.972 1.714a.75.75 0 0 1-.935-.538c-.082-.327-.16-.638-.236-.894a4 4 0 0 0-.103-.308 1 1 0 0 0-.039-.09.57.57 0 0 0-.375-.234.6.6 0 0 0-.198.023c-.15.032-.346.087-.657.177s-.506.146-.652.199a.7.7 0 0 0-.192.092.7.7 0 0 0-.244.461 1 1 0 0 0 .024.262c.03.167.084.382.167.714l.692 2.766c.083.332.137.546.188.707.05.156.082.209.098.23a.57.57 0 0 0 .38.243c.01.001.055.007.198-.023.15-.032.346-.088.657-.177.311-.09.507-.146.652-.2a.7.7 0 0 0 .192-.091.7.7 0 0 0 .243-.455s0-.03-.008-.104a4 4 0 0 0-.055-.323 22 22 0 0 0-.213-.9.75.75 0 0 1 .52-.904l5.973-1.714a.75.75 0 0 1 .935.54c.081.326.16.637.236.893q.057.192.102.308c.024.06.038.086.04.09a.57.57 0 0 0 .375.234c.01.001.054.007.197-.024.151-.031.346-.087.658-.176.31-.09.506-.146.652-.2a.7.7 0 0 0 .192-.091.7.7 0 0 0 .243-.461 1 1 0 0 0-.023-.262c-.03-.168-.084-.382-.167-.714l-.692-2.766a13 13 0 0 0-.189-.707 1 1 0 0 0-.097-.231.57.57 0 0 0-.381-.242.6.6 0 0 0-.197.023m-.309-1.468a2 2 0 0 1 .715-.04 2.07 2.07 0 0 1 1.391.853c.146.204.236.425.307.648.068.213.134.474.21.778l.703 2.81c.076.304.14.565.181.785.043.232.067.468.037.716a2.2 2.2 0 0 1-.78 1.437 2.1 2.1 0 0 1-.628.341c-.202.074-.45.145-.731.226l-.047.014c-.28.08-.529.151-.74.195a2 2 0 0 1-.714.041 2.07 2.07 0 0 1-1.392-.854c-.165-.231-.278-.578-.354-.835l-.06-.207-4.54 1.304.057.26c.054.267.117.622.083.904a2.2 2.2 0 0 1-.78 1.437 2.1 2.1 0 0 1-.628.341c-.203.074-.45.145-.731.226l-.048.014c-.28.08-.528.151-.739.195a2 2 0 0 1-.715.041 2.07 2.07 0 0 1-1.39-.854 2.3 2.3 0 0 1-.308-.647 13 13 0 0 1-.209-.778l-.703-2.81a14 14 0 0 1-.182-.786 2.3 2.3 0 0 1-.036-.715 2.2 2.2 0 0 1 .78-1.437c.196-.162.412-.262.628-.341.202-.074.45-.146.73-.226l.048-.014c.28-.08.528-.152.739-.196a2 2 0 0 1 .715-.04 2.07 2.07 0 0 1 1.391.853c.166.232.278.579.355.835q.03.1.059.207l4.54-1.303q-.031-.135-.056-.261c-.054-.266-.118-.622-.083-.903a2.2 2.2 0 0 1 .78-1.437 2.1 2.1 0 0 1 .628-.341c.202-.075.45-.146.731-.226l.047-.014c.28-.08.529-.152.74-.196" clip-rule="evenodd"/></svg>