<svg width="24" height="24" viewBox="0 0 24 24" fill="none" xmlns="http://www.w3.org/2000/svg">
<path opacity="0.5" d="M14 4H10C6.22876 4 4.34315 4 3.17157 5.17157C2 6.34315 2 8.22876 2 12C2 15.7712 2 17.6569 3.17157 18.8284C4.34315 20 6.22876 20 10 20H14C17.7712 20 19.6569 20 20.8284 18.8284C22 17.6569 22 15.7712 22 12C22 8.22876 22 6.34315 20.8284 5.17157C19.6569 4 17.7712 4 14 4Z" fill="#1C274C"/>
<path d="M2.75009 9.5C2.33588 9.5 2.00009 9.83579 2.00009 10.25C2.00009 10.6642 2.33588 11 2.75009 11C7.30644 11 11.0001 14.6937 11.0001 19.25C11.0001 19.6642 11.3359 20 11.7501 20C12.1643 20 12.5001 19.6642 12.5001 19.25C12.5001 13.8652 8.13487 9.5 2.75009 9.5Z" fill="#1C274C"/>
<path d="M2.75009 12.5C2.33588 12.5 2.00009 12.8358 2.00009 13.25C2.00009 13.6642 2.33588 14 2.75009 14C5.64959 14 8.00009 16.3505 8.00009 19.25C8.00009 19.6642 8.33588 20 8.75009 20C9.16431 20 9.50009 19.6642 9.50009 19.25C9.50009 15.5221 6.47801 12.5 2.75009 12.5Z" fill="#1C274C"/>
<path d="M2.75009 15.5C2.33588 15.5 2.00009 15.8358 2.00009 16.25C2.00009 16.6642 2.33588 17 2.75009 17C3.99273 17 5.00009 18.0074 5.00009 19.25C5.00009 19.6642 5.33588 20 5.75009 20C6.16431 20 6.50009 19.6642 6.50009 19.25C6.50009 17.1789 4.82116 15.5 2.75009 15.5Z" fill="#1C274C"/>
</svg>
