<svg width="24" height="24" viewBox="0 0 24 24" fill="none" xmlns="http://www.w3.org/2000/svg">
<path d="M9 14.2354V17.0001C9 19.0504 10.2341 20.8125 12 21.584M14.8824 22.0001C16.7691 22.0001 18.3595 20.7311 18.8465 19.0001" stroke="#1C274C" stroke-width="1.5" stroke-linecap="round"/>
<path d="M12.2858 3H12.3775C12.6904 3 12.8468 3 12.9787 3.01166C14.4268 3.13972 15.5747 4.28763 15.7027 5.73574C15.7144 5.86761 15.7144 6.02404 15.7144 6.3369V7.23529C15.7144 8.2172 15.5122 9.15189 15.1473 10M5.42869 3H5.33702C5.02416 3 4.86774 3 4.73587 3.01166C3.28775 3.13972 2.13984 4.28763 2.01178 5.73574C2.00012 5.86761 2.00012 6.02404 2.00012 6.3369V7.521C2.00012 11.2292 5.00621 14.2353 8.71441 14.2353C9.78801 14.2353 10.8052 13.9936 11.7144 13.5617" stroke="#1C274C" stroke-width="1.5" stroke-linecap="round"/>
<circle cx="19" cy="16" r="3" stroke="#1C274C" stroke-width="1.5"/>
<path d="M12 2V4" stroke="#1C274C" stroke-width="1.5" stroke-linecap="round"/>
<path d="M6 2V4" stroke="#1C274C" stroke-width="1.5" stroke-linecap="round"/>
</svg>
