<svg xmlns="http://www.w3.org/2000/svg" fill="none" viewBox="0 0 24 24" width="1em" height="1em"><path fill="currentColor" fill-rule="evenodd" d="M15.583 1.42c1.312.442 2.167 1.676 2.167 3.295 0 1.017-.578 1.954-1.223 2.701-.663.768-1.501 1.458-2.235 1.992l-.093.069c-.712.52-1.3.949-2.199.949-.9 0-1.486-.43-2.198-.95l-.094-.068c-.734-.534-1.572-1.224-2.235-1.992C6.83 6.67 6.25 5.732 6.25 4.715c0-1.619.855-2.853 2.167-3.295 1.12-.376 2.422-.128 3.583.717 1.161-.845 2.464-1.093 3.583-.717m-.478 1.422c-.652-.22-1.625-.078-2.597.816a.75.75 0 0 1-1.015 0c-.973-.894-1.945-1.036-2.597-.816-.626.21-1.146.814-1.146 1.873 0 .467.285 1.056.859 1.721.556.645 1.292 1.257 1.983 1.76.843.615 1.043.73 1.408.73s.565-.115 1.409-.73c.69-.503 1.426-1.115 1.982-1.76.575-.665.86-1.254.86-1.721 0-1.059-.521-1.663-1.146-1.873M8.684 14.448c1.866-.361 3.863-.28 5.48.684.226.135.44.304.625.513.376.422.57.946.579 1.472a10 10 0 0 0 .577-.407l1.808-1.365a2.64 2.64 0 0 1 3.124 0c.835.63 1.169 1.763.57 2.723-.425.681-1.065 1.624-1.717 2.228-.66.61-1.597 1.124-2.306 1.466-.862.416-1.792.646-2.697.792-1.85.3-3.774.254-5.602-.123a14.3 14.3 0 0 0-2.865-.293H4a.75.75 0 0 1 0-1.5h2.26c1.062 0 2.135.111 3.168.324 1.652.34 3.392.381 5.06.111.828-.134 1.602-.333 2.284-.662.683-.33 1.451-.764 1.938-1.215.493-.457 1.044-1.248 1.465-1.922.127-.204.109-.497-.202-.732-.37-.28-.947-.28-1.316 0l-1.807 1.365c-.722.545-1.61 1.128-2.711 1.304a9 9 0 0 1-.347.048q-.086.015-.179.02c-.562.055-1.213.068-1.932 0a.75.75 0 0 1 .141-1.493 8.5 8.5 0 0 0 1.668-.003l.03-.003a.742.742 0 0 0 .15-1.138 1.2 1.2 0 0 0-.275-.222c-1.181-.704-2.759-.822-4.426-.5a12.1 12.1 0 0 0-4.535 1.935.75.75 0 1 1-.868-1.224 13.6 13.6 0 0 1 5.118-2.183" clip-rule="evenodd"/></svg>