<svg width="24" height="24" viewBox="0 0 24 24" fill="none" xmlns="http://www.w3.org/2000/svg">
<path fill-rule="evenodd" clip-rule="evenodd" d="M15.681 5.34814C14.0522 5.34814 12.7266 6.66395 12.7266 8.29353C12.7266 9.92311 14.0522 11.2389 15.681 11.2389C17.3097 11.2389 18.6353 9.92311 18.6353 8.29353C18.6353 6.66395 17.3097 5.34814 15.681 5.34814ZM14.2266 8.29353C14.2266 7.49816 14.8748 6.84814 15.681 6.84814C16.4871 6.84814 17.1353 7.49816 17.1353 8.29353C17.1353 9.0889 16.4871 9.73891 15.681 9.73891C14.8748 9.73891 14.2266 9.0889 14.2266 8.29353Z" fill="#1C274C"/>
<path fill-rule="evenodd" clip-rule="evenodd" d="M9.53003 20.8783C9.86303 20.414 9.97022 19.9429 9.96227 19.5233C10.3544 19.6387 10.7425 19.6533 11.1141 19.5828C11.8825 19.437 12.4511 18.9512 12.7528 18.5507L12.7581 18.5437L12.7631 18.5366C13.2883 17.8043 13.2873 17.0543 13.1587 16.5164C13.0957 16.2528 13.0021 16.0361 12.9245 15.8846C12.8853 15.8081 12.8491 15.746 12.8208 15.7005C12.8133 15.6885 12.8063 15.6775 12.8 15.6677C12.7113 15.5021 12.6111 15.3719 12.527 15.2737L12.536 15.2647L13.0001 14.8024C13.3818 14.9849 13.7957 15.0999 14.1583 15.1749C14.744 15.2962 15.3171 15.3369 15.6807 15.3369C19.5821 15.3369 22.75 12.1863 22.75 8.29344C22.75 4.40056 19.5821 1.25 15.6807 1.25C11.7794 1.25 8.61149 4.40056 8.61149 8.29344C8.61149 9.2105 8.82023 9.99588 9.02593 10.549C9.0783 10.6898 9.13086 10.8166 9.1804 10.9279L1.92516 18.1535C1.66874 18.4089 1.36794 18.853 1.27702 19.4092C1.17842 20.0124 1.34036 20.6829 1.92516 21.2654L2.80692 22.1435C2.82051 22.1571 2.83462 22.1701 2.84921 22.1825C3.1039 22.3999 3.53169 22.6513 4.04577 22.7273C4.59717 22.8088 5.23532 22.6818 5.77584 22.1435L6.34237 21.5793C6.87528 21.8849 7.43858 21.9545 7.95946 21.8548C8.63502 21.7254 9.19691 21.321 9.51969 20.8924L9.52495 20.8854L9.53003 20.8783ZM10.1115 8.29344C10.1115 5.23477 12.602 2.75 15.6807 2.75C18.7595 2.75 21.25 5.23477 21.25 8.29344C21.25 11.3521 18.7595 13.8369 15.6807 13.8369C15.4076 13.8369 14.9372 13.8044 14.4624 13.7061C13.9654 13.6032 13.5753 13.4504 13.3675 13.2779C13.0699 13.031 12.6333 13.0508 12.3593 13.3237L11.4775 14.2019C11.2757 14.4028 11.0818 14.6305 10.9795 14.8933C10.8499 15.2261 10.8912 15.5463 11.0395 15.8121C11.1274 15.9697 11.2689 16.1202 11.3279 16.183L11.3476 16.2042C11.4173 16.2811 11.4555 16.3314 11.4834 16.387L11.5099 16.4397L11.5401 16.4817L11.5468 16.4924C11.5559 16.507 11.5713 16.533 11.5895 16.5685C11.6267 16.6412 11.6709 16.7445 11.6998 16.8652C11.7544 17.0937 11.7538 17.3656 11.5494 17.6551C11.4088 17.8384 11.1425 18.0506 10.8346 18.1091C10.577 18.1579 10.1571 18.1261 9.59678 17.5681C9.30414 17.2766 8.83094 17.2766 8.5383 17.5681L8.24438 17.8608C7.96753 18.1365 7.94896 18.5782 8.20059 18.8761C8.20199 18.8778 8.20585 18.8826 8.21165 18.8903C8.22368 18.9062 8.24344 18.9336 8.26685 18.9704C8.31488 19.0461 8.37133 19.1508 8.41143 19.2706C8.48699 19.4963 8.49887 19.7374 8.31644 19.9966C8.19648 20.1519 7.95308 20.3287 7.67731 20.3815C7.44295 20.4264 7.14289 20.3931 6.80455 20.0562C6.51191 19.7647 6.03871 19.7647 5.74607 20.0562L4.71735 21.0807C4.55246 21.2449 4.40685 21.2643 4.2651 21.2434C4.09734 21.2186 3.93338 21.1293 3.84082 21.0562L2.98365 20.2025C2.74548 19.9653 2.73596 19.7821 2.75738 19.6511C2.78648 19.4731 2.89716 19.3025 2.98365 19.2163L10.6279 11.6033C10.8748 11.3575 10.9185 10.9735 10.7333 10.6784L10.7311 10.6748C10.7284 10.6703 10.7232 10.6615 10.7159 10.6487C10.7012 10.6231 10.6782 10.5814 10.6495 10.5251C10.5919 10.4123 10.5122 10.2423 10.4319 10.0262C10.2702 9.59135 10.1115 8.98632 10.1115 8.29344ZM8.20059 18.8761C8.20197 18.8777 8.20335 18.8793 8.20474 18.881L8.20359 18.8796L8.20059 18.8761Z" fill="#1C274C"/>
</svg>
