<svg xmlns="http://www.w3.org/2000/svg" fill="none" viewBox="0 0 24 24" width="1em" height="1em"><path fill="currentColor" d="M3.034 8.89c-.48-3.204-.721-4.805.176-5.848C4.108 2 5.728 2 8.967 2h6.066c3.24 0 4.86 0 5.757 1.042s.657 2.644.177 5.848l-1.2 8c-.366 2.438-.549 3.656-1.393 4.383S16.298 22 13.833 22h-3.666c-2.465 0-3.697 0-4.541-.727s-1.027-1.945-1.392-4.383z" opacity=".5"/><path fill="currentColor" fill-rule="evenodd" d="m3.517 12.115-.29-1.933 1.845-2.05L3.689 6.75h-.96a15 15 0 0 1-.122-1.5h18.787c-.01.437-.054.933-.123 1.5h-.96l-1.383 1.382 1.845 2.05-.29 1.933-1.6 1.707 1.169 1.169-.277 1.845-1.919-1.92-1.877 2.003 1.332 1.331h2.245c-.098.59-.195 1.083-.314 1.5H4.758c-.119-.417-.216-.91-.314-1.5h2.245l1.332-1.331-1.877-2.002-1.919 1.918-.276-1.844 1.168-1.17zm2.56-5.099L5.81 6.75h.505zm1.062 1.062L8.334 6.75h1.355L10.94 8 9 9.94zm4.86-1.139-.188-.189h.378zM13.062 8l1.25-1.25h1.355l1.195 1.328L15 9.94zm4.862-.984-.239-.266h.505zM16.061 11l1.805-1.805 1.616 1.795-1.66 1.77zM15 12.06l1.795 1.795-1.877 2.002L13.061 14zm-3 3 1.892 1.892-1.217 1.298h-1.35l-1.217-1.298zm3.19 3.19h-.459l.222-.236zm-6.143-.236.222.236H8.81zM10.94 14l-1.857 1.857-1.877-2.001L9 12.06zm-3-3-1.76 1.76-1.66-1.77 1.615-1.795zM12 12.94 10.062 11 12 9.06 13.94 11z" clip-rule="evenodd"/></svg>