<svg xmlns="http://www.w3.org/2000/svg" fill="none" viewBox="0 0 24 24" width="1em" height="1em"><path stroke="currentColor" stroke-width="1.5" d="M9.781 3.89c.564-.48.846-.72 1.14-.86a2.5 2.5 0 0 1 2.157 0c.295.14.577.38 1.14.86.225.192.337.288.457.368a2.5 2.5 0 0 0 .908.376c.141.028.288.04.582.063.739.059 1.108.088 1.416.197a2.5 2.5 0 0 1 1.525 1.525c.109.308.138.677.197 1.416.023.294.035.44.063.582a2.5 2.5 0 0 0 .376.908c.08.12.176.232.367.456.48.564.721.846.862 1.14a2.5 2.5 0 0 1 0 2.157c-.14.295-.381.577-.862 1.14a5 5 0 0 0-.367.457 2.5 2.5 0 0 0-.376.908c-.028.141-.04.288-.063.582-.059.739-.088 1.108-.197 1.416a2.5 2.5 0 0 1-1.525 1.525c-.308.109-.677.138-1.416.197a5 5 0 0 0-.582.063 2.5 2.5 0 0 0-.908.376 5 5 0 0 0-.456.367c-.564.48-.846.721-1.14.862a2.5 2.5 0 0 1-2.157 0c-.295-.14-.577-.381-1.14-.862a5 5 0 0 0-.457-.367 2.5 2.5 0 0 0-.908-.376 5 5 0 0 0-.582-.063c-.739-.059-1.108-.088-1.416-.197a2.5 2.5 0 0 1-1.525-1.525c-.109-.308-.138-.677-.197-1.416a5 5 0 0 0-.063-.582 2.5 2.5 0 0 0-.376-.908c-.08-.12-.176-.232-.367-.456-.48-.564-.721-.846-.862-1.14a2.5 2.5 0 0 1 0-2.157c.141-.295.381-.577.862-1.14.191-.225.287-.337.367-.457a2.5 2.5 0 0 0 .376-.908c.028-.141.04-.288.063-.582.059-.739.088-1.108.197-1.416A2.5 2.5 0 0 1 6.42 4.894c.308-.109.677-.138 1.416-.197a5 5 0 0 0 .582-.063 2.5 2.5 0 0 0 .908-.376c.12-.08.232-.176.456-.367Z"/><path stroke="currentColor" stroke-linecap="round" stroke-linejoin="round" stroke-width="1.5" d="m8.5 12.5 2 2 5-5"/></svg>