<svg width="24" height="24" viewBox="0 0 24 24" fill="none" xmlns="http://www.w3.org/2000/svg">
<path fill-rule="evenodd" clip-rule="evenodd" d="M8.41814 3.25077C8.69885 2.65912 9.3017 2.25 10.0001 2.25H14.0001C14.6985 2.25 15.3014 2.65912 15.5821 3.25077C16.2656 3.25574 16.7983 3.28712 17.2739 3.47298C17.8421 3.69505 18.3363 4.07255 18.7 4.5623C19.0669 5.05639 19.2392 5.68968 19.4763 6.56133C19.4884 6.60604 19.5008 6.65137 19.5133 6.69735L20.1041 8.86428C20.4916 9.06271 20.8307 9.32993 21.1135 9.6922C21.7355 10.4888 21.8457 11.4377 21.735 12.5261C21.6277 13.5822 21.2952 14.9122 20.8789 16.577L20.8526 16.6824C20.5894 17.7352 20.3757 18.59 20.1216 19.2572C19.8566 19.9527 19.5202 20.5227 18.9656 20.9558C18.4109 21.3888 17.7763 21.5769 17.0373 21.6653C16.3285 21.75 15.4474 21.75 14.3623 21.75H9.63795C8.55279 21.75 7.67172 21.75 6.9629 21.6653C6.22389 21.5769 5.58926 21.3888 5.03464 20.9558C4.48002 20.5227 4.14361 19.9527 3.87865 19.2572C3.6245 18.5901 3.41082 17.7353 3.14765 16.6825L3.12125 16.5769C2.70503 14.9121 2.37253 13.5822 2.26517 12.5261C2.15452 11.4377 2.26467 10.4888 2.88666 9.6922C3.16952 9.32993 3.50858 9.06271 3.89606 8.86428L4.48692 6.69735C4.49945 6.65137 4.51178 6.60604 4.52394 6.56134C4.76102 5.68968 4.93327 5.05639 5.30019 4.5623C5.66391 4.07255 6.15812 3.69505 6.72631 3.47298C7.20186 3.28712 7.7346 3.25574 8.41814 3.25077ZM8.41955 4.75219C7.75772 4.75888 7.49214 4.78416 7.27234 4.87007C6.96639 4.98964 6.70028 5.19291 6.50443 5.45662C6.32832 5.69376 6.22498 6.02508 5.93408 7.09195L5.5805 8.38869C6.6183 8.24996 7.9581 8.24998 9.62271 8.25H14.3775C16.0421 8.24998 17.3819 8.24996 18.4197 8.38869L18.0661 7.09194C17.7752 6.02508 17.6719 5.69377 17.4958 5.45663C17.2999 5.19291 17.0338 4.98964 16.7279 4.87007C16.5081 4.78416 16.2425 4.75888 15.5807 4.75219C15.2993 5.34225 14.6973 5.75 14.0001 5.75H10.0001C9.30287 5.75 8.70087 5.34225 8.41955 4.75219ZM10.0001 3.75C9.86203 3.75 9.7501 3.86193 9.7501 4C9.7501 4.13807 9.86203 4.25 10.0001 4.25H14.0001C14.1382 4.25 14.2501 4.13807 14.2501 4C14.2501 3.86193 14.1382 3.75 14.0001 3.75H10.0001ZM5.69995 9.88649C4.78878 10.0183 4.34781 10.2582 4.06897 10.6153C3.79013 10.9725 3.66436 11.4584 3.75747 12.3744C3.85258 13.3099 4.15681 14.5345 4.59151 16.2733C4.86878 17.3824 5.06188 18.1496 5.28037 18.7231C5.49168 19.2778 5.69859 19.5711 5.95775 19.7735C6.21692 19.9758 6.55164 20.1054 7.141 20.1759C7.7504 20.2488 8.54157 20.25 9.68476 20.25H14.3154C15.4586 20.25 16.2498 20.2488 16.8592 20.1759C17.4486 20.1054 17.7833 19.9758 18.0425 19.7735C18.3016 19.5711 18.5085 19.2778 18.7198 18.7231C18.9383 18.1496 19.1314 17.3824 19.4087 16.2733C19.8434 14.5345 20.1476 13.3099 20.2427 12.3744C20.3358 11.4584 20.2101 10.9725 19.9312 10.6153C19.6524 10.2582 19.2114 10.0183 18.3003 9.88649C17.3696 9.75187 16.1078 9.75 14.3154 9.75H9.68476C7.89242 9.75 6.63059 9.75187 5.69995 9.88649Z" fill="#1C274C"/>
</svg>
