<svg xmlns="http://www.w3.org/2000/svg" fill="none" viewBox="0 0 24 24" width="1em" height="1em"><path stroke="currentColor" stroke-width="1.5" d="M14 4a2 2 0 1 1-4 0 2 2 0 0 1 4 0Z"/><path fill="currentColor" d="m6.048 10.85.237-.712zm2.175.724-.237.712zm.794 1.682-.7-.269zM7.77 16.498l.7.27zm10.182-5.649-.237-.711zm-2.175.725.237.712zm-.794 1.682.7-.269zm1.247 3.242-.7.27zm-5.806 1.26.651.372zM12 15l.651-.372a.75.75 0 0 0-1.302 0zm5.147-7.103-.158-.733zm-1.898.407.157.733zm-6.498 0 .157-.734zm-1.898-.407-.157.733zm6.723 9.86-.651.373zm1.462-9.408-.152-.735zm-6.076 0-.152.734zm6.322 3.418.394.638zm-.466.986.743-.101zm-6.102-.986-.394.638zm.466.986.743.102zm1.163-3.43a.75.75 0 0 0 .158-1.492zm3.152-1.492a.75.75 0 0 0 .158 1.491zm-7.686 3.73 2.175.725.474-1.423-2.175-.725zm2.506 1.426L7.07 16.229l1.4.538 1.247-3.242zm9.398-2.85-2.175.726.474 1.423 2.175-.725zm-3.432 3.388 1.247 3.242 1.4-.538-1.247-3.242zm-3.208 4.605 1.576-2.758-1.302-.744-1.576 2.758zM16.99 7.164l-1.897.406.314 1.467 1.898-.407zm-8.08.406-1.9-.406-.314 1.466 1.898.406zm2.44 7.802 1.576 2.758 1.302-.744-1.576-2.758zm3.743-7.802-.206.044.304 1.469.216-.046zM8.594 9.037l.216.046.304-1.469c-.05-.01-.1-.02-.206-.044zm.551 10.213a2.22 2.22 0 0 0 1.93-1.12l-1.302-.744a.72.72 0 0 1-.628.364zm6.385-2.483a.723.723 0 0 1-.675.983v1.5a2.223 2.223 0 0 0 2.075-3.021zm.01-5.904c-.222.074-.458.147-.65.266l.788 1.276c-.01.006-.002-.001.056-.023.061-.023.143-.05.28-.096zm.143 2.124a8 8 0 0 1-.104-.277c-.02-.059-.02-.069-.018-.058l-1.486.203c.03.223.124.452.208.67zm-.793-1.858a1.75 1.75 0 0 0-.815 1.726l1.486-.203a.25.25 0 0 1 .117-.247zm3.36-1.733a.78.78 0 0 1-.535.742l.474 1.423a2.28 2.28 0 0 0 1.561-2.165zM7.07 16.229a2.223 2.223 0 0 0 2.075 3.021v-1.5a.723.723 0 0 1-.675-.983zm.916-3.943c.137.046.219.073.28.096.058.022.065.029.056.023l.788-1.276c-.192-.119-.428-.192-.65-.266zm1.73 1.24c.085-.219.178-.448.209-.671l-1.486-.203c.001-.01.001 0-.018.058a9 9 0 0 1-.104.277zm-1.394-1.121a.25.25 0 0 1 .117.247l1.486.203a1.75 1.75 0 0 0-.815-1.726zM4.25 9.395c0 .983.629 1.855 1.56 2.166l.475-1.423a.78.78 0 0 1-.535-.742zm1.5 0c0-.498.46-.869.946-.764l.315-1.467A2.282 2.282 0 0 0 4.25 9.396zm7.175 8.735a2.22 2.22 0 0 0 1.93 1.12v-1.5c-.26 0-.5-.14-.628-.364zm6.825-8.734a2.282 2.282 0 0 0-2.76-2.232l.314 1.467a.782.782 0 0 1 .946.765zM10.503 7.83a14 14 0 0 1-1.39-.217l-.303 1.47a16 16 0 0 0 1.535.24zm4.384-.217q-.69.142-1.39.217l.158 1.491a16 16 0 0 0 1.535-.239z"/><path stroke="currentColor" stroke-linecap="round" stroke-width="1.5" d="M19.454 15c1.583.796 2.546 1.848 2.546 3 0 .748-.406 1.454-1.124 2.075M4.546 15C2.963 15.796 2 16.848 2 18c0 2.485 4.477 4.5 10 4.5 1.821 0 3.53-.22 5-.602"/></svg>