<svg width="24" height="24" viewBox="0 0 24 24" fill="none" xmlns="http://www.w3.org/2000/svg">
<path fill-rule="evenodd" clip-rule="evenodd" d="M8.48492 2.74998C7.51292 2.75147 6.52853 2.99987 5.62542 3.52128C4.78588 4.00599 4.11485 4.67048 3.63287 5.43804C3.66997 5.46263 3.71035 5.48999 3.75377 5.52021C3.98353 5.68014 4.29868 5.92048 4.66089 6.25341C5.38571 6.91963 6.29894 7.95663 7.09155 9.45942C7.64091 10.501 7.98295 11.4831 8.1953 12.3238C8.57948 11.4173 9.10991 10.5622 9.836 9.83611C10.1425 9.52962 10.472 9.258 10.8186 9.01752C10.509 8.58522 10.2004 8.09447 9.90821 7.54056C9.1161 6.03873 8.75503 4.66054 8.59222 3.6518C8.53621 3.30481 8.50357 3.00094 8.48492 2.74998ZM10.0101 2.95294C10.0257 3.09286 10.0462 3.24666 10.0731 3.41279C10.2147 4.2907 10.532 5.50786 11.235 6.84078C11.5251 7.39079 11.8318 7.86761 12.1353 8.2777C12.7967 7.97992 13.4889 7.76316 14.1809 7.60775C14.0745 6.92897 13.8435 6.2576 13.4786 5.62553C12.6892 4.25818 11.4233 3.33756 10.0101 2.95294ZM15.6605 7.36056C15.525 6.5082 15.2341 5.66616 14.7776 4.87553C13.5916 2.82126 11.5512 1.56749 9.36726 1.30277C7.86296 1.12043 6.28793 1.40673 4.87542 2.22224C1.40832 4.22398 0.220404 8.65734 2.22214 12.1244C3.35888 14.0933 5.27996 15.3266 7.36063 15.659C7.34952 15.7559 7.33939 15.8523 7.33016 15.9482C7.21249 17.1713 7.23956 18.3428 7.31314 19.3052C7.45267 21.1301 8.86977 22.5472 10.6947 22.6867C11.6571 22.7603 12.8285 22.7874 14.0516 22.6697C16.1427 22.4685 18.4941 21.8335 20.1638 20.1639C21.8334 18.4943 22.4684 16.1428 22.6696 14.0518C22.7873 12.8286 22.7602 11.6572 22.6866 10.6948C22.5471 8.86988 21.13 7.45278 19.3051 7.31325C18.3427 7.23967 17.1712 7.2126 15.9481 7.33027C15.8527 7.33944 15.7568 7.34952 15.6605 7.36056ZM6.98965 14.0471C5.57657 13.6625 4.31054 12.7417 3.52117 11.3744C2.69245 9.93905 2.55307 8.29483 3.00032 6.82513C3.17092 6.94962 3.3927 7.12512 3.64581 7.35777C4.26135 7.92354 5.06226 8.82723 5.76478 10.1592C6.46781 11.4921 6.78501 12.7093 6.92671 13.5872C6.95352 13.7533 6.97402 13.9071 6.98965 14.0471ZM17.7539 8.75014L21.2497 12.246C21.2477 11.7354 21.2248 11.2508 21.191 10.8092C21.1079 9.72245 20.2774 8.89197 19.1907 8.80888C18.7491 8.77512 18.2644 8.75218 17.7539 8.75014ZM21.1388 14.2563L15.7436 8.86112C13.9168 9.08189 12.1291 9.6643 10.8967 10.8968C9.66419 12.1292 9.08178 13.9169 8.86101 15.7437L14.2562 21.1389C16.083 20.9181 17.8706 20.3357 19.1031 19.1032C20.3356 17.8707 20.918 16.0831 21.1388 14.2563ZM12.2458 21.2498L8.75003 17.754C8.75207 18.2645 8.77501 18.7492 8.80878 19.1908C8.89187 20.2775 9.72235 21.108 10.8091 21.1911C11.2507 21.2249 11.7353 21.2478 12.2458 21.2498ZM14.9696 11.9697C15.2624 11.6768 15.7373 11.6768 16.0302 11.9697L16.4999 12.4393L16.9696 11.9697C17.2624 11.6768 17.7373 11.6768 18.0302 11.9697C18.3231 12.2626 18.3231 12.7374 18.0302 13.0303L17.5605 13.5L18.0302 13.9697C18.3231 14.2626 18.3231 14.7374 18.0302 15.0303C17.7373 15.3232 17.2624 15.3232 16.9696 15.0303L16.4999 14.5606L16.0605 15L16.5302 15.4697C16.8231 15.7626 16.8231 16.2374 16.5302 16.5303C16.2373 16.8232 15.7624 16.8232 15.4696 16.5303L14.9999 16.0606L14.5605 16.5L15.0302 16.9697C15.3231 17.2626 15.3231 17.7374 15.0302 18.0303C14.7373 18.3232 14.2624 18.3232 13.9696 18.0303L13.4999 17.5606L13.0302 18.0303C12.7373 18.3232 12.2624 18.3232 11.9696 18.0303C11.6767 17.7374 11.6767 17.2626 11.9696 16.9697L12.4392 16.5L11.9696 16.0303C11.6767 15.7374 11.6767 15.2626 11.9696 14.9697C12.2624 14.6768 12.7373 14.6768 13.0302 14.9697L13.4999 15.4393L13.9392 15L13.4696 14.5303C13.1767 14.2374 13.1767 13.7626 13.4696 13.4697C13.7624 13.1768 14.2373 13.1768 14.5302 13.4697L14.9999 13.9393L15.4392 13.5L14.9696 13.0303C14.6767 12.7374 14.6767 12.2626 14.9696 11.9697Z" fill="#1C274C"/>
</svg>
