<svg xmlns="http://www.w3.org/2000/svg" fill="none" viewBox="0 0 24 24" width="1em" height="1em"><path fill="currentColor" fill-rule="evenodd" d="M11.438 2.877c-.135.156-.306.394-.568.761l-.151.213-.035.05c-.126.18-.302.429-.567.585s-.568.187-.786.21l-.06.007-.262.03a12 12 0 0 0-.939.125c.109.182.285.425.559.798l.157.214-.604.444.604-.444.037.05c.133.178.313.42.38.718.068.298.01.594-.033.812l-.012.06-.05.258c-.088.461-.143.756-.161.966.203-.044.485-.134.925-.278l.25-.081.057-.02c.208-.069.496-.164.802-.133.303.031.566.183.759.293l.053.03.23.131c.394.224.653.37.844.456.016-.208.014-.504.009-.954l-.004-.264v-.061c-.004-.221-.01-.525.11-.807s.345-.488.507-.636l.044-.041.192-.178c.337-.313.552-.514.689-.67-.193-.085-.479-.18-.926-.326l-.25-.082-.059-.019c-.211-.068-.499-.16-.727-.363s-.353-.477-.445-.68l-.026-.055-.112-.24a12 12 0 0 0-.431-.879m3.098 2.484.001-.002zm-1.459 3.848h.003zm-4.33-.447h.002zm.197.17v.003zm1.484-7.174c.25-.257.633-.555 1.17-.5.532.055.85.42 1.046.719.186.284.367.675.564 1.1l.022.047.112.24.114.239.076.027.171.057.251.082.05.016c.442.145.85.278 1.154.43.322.16.717.432.835.952.12.523-.123.94-.348 1.22-.21.264-.524.555-.861.868l-.039.036-.192.178-.18.171q-.002.03-.002.075l.001.18.004.265v.052c.006.466.011.896-.034 1.23-.048.354-.18.824-.646 1.098-.465.274-.94.161-1.272.032-.316-.122-.69-.335-1.096-.565l-.045-.026-.23-.13-.227-.126-.07.02-.17.056-.248.08-.05.017c-.438.143-.845.276-1.178.332-.355.06-.836.07-1.236-.286-.398-.354-.446-.832-.431-1.191.014-.339.095-.76.182-1.216l.01-.051.05-.26.736.142-.736-.141.045-.255-.046-.067-.107-.147-.157-.214.526-.387-.526.387-.03-.042c-.278-.377-.533-.725-.692-1.025-.168-.315-.335-.77-.124-1.264.212-.497.66-.688 1.006-.78.326-.087.751-.134 1.21-.185l.053-.006.26-.03.248-.03.041-.055.104-.145.152-.214.031-.043c.267-.375.515-.724.75-.966m12.22 7.364a.75.75 0 0 1-.27 1.026C16.666 13.48 15.25 18.858 15.25 22a.75.75 0 0 1-1.5 0c0-3.526 1.584-9.48 7.872-13.148a.75.75 0 0 1 1.026.27M11.206 11.28a.75.75 0 0 1 .515.927c-.367 1.283-.454 3.144-.396 5.008.057 1.846.254 3.616.416 4.672a.75.75 0 1 1-1.482.228 43 43 0 0 1-.434-4.853c-.059-1.894.02-3.95.454-5.467a.75.75 0 0 1 .927-.515" clip-rule="evenodd"/><path stroke="currentColor" stroke-linejoin="round" d="M5 13.268s.65.747 1.223.9c.573.155 1.51-.168 1.51-.168s-.749.65-.902 1.222c-.154.573.17 1.51.17 1.51s-.65-.748-1.223-.902c-.573-.153-1.51.17-1.51.17s.748-.65.901-1.223S5 13.267 5 13.267Z"/></svg>