<svg xmlns="http://www.w3.org/2000/svg" fill="none" viewBox="0 0 24 24" width="1em" height="1em"><path fill="currentColor" fill-rule="evenodd" d="M1.606 6.08a1 1 0 0 1 1.313.526L2 7l.92-.394-.001-.001.004.009.02.045q.03.065.094.195c.086.172.219.423.4.728.364.612.917 1.426 1.67 2.238a12 12 0 0 0 .59.591C7.18 11.801 9.251 13 12 13c1.209 0 2.278-.23 3.22-.602 1.227-.482 2.255-1.209 3.096-1.998a13 13 0 0 0 2.733-3.724l.027-.059.005-.01a1 1 0 0 1 1.838.787L22 7l.92.394-.003.005-.004.008-.011.026a7 7 0 0 1-.19.395 15.4 15.4 0 0 1-2.302 3.297l.797.797a1 1 0 0 1-1.414 1.414l-.84-.84c-.564.455-1.196.885-1.897 1.256l.782 1.203a1 1 0 0 1-1.676 1.09l-.986-1.514c-.679.208-1.404.355-2.176.425V16.5a1 1 0 1 1-2 0v-1.544c-.775-.07-1.5-.217-2.177-.425l-.985 1.514a1 1 0 0 1-1.676-1.09l.782-1.203c-.7-.37-1.332-.8-1.896-1.256l-.84.84a1 1 0 0 1-1.415-1.414l.797-.798a15.4 15.4 0 0 1-1.87-2.519 14 14 0 0 1-.591-1.107l-.033-.072-.01-.02-.002-.008-.001-.002v-.001C1.08 7.395 1.08 7.394 2 7l-.919.395a1 1 0 0 1 .525-1.314" clip-rule="evenodd"/></svg>