<svg width="24" height="24" viewBox="0 0 24 24" fill="none" xmlns="http://www.w3.org/2000/svg">
<path fill-rule="evenodd" clip-rule="evenodd" d="M6.86494 20.5828C5.44893 19.7374 4.2227 18.5294 3.33956 16.9997C2.45711 15.4713 2.02401 13.8067 1.99927 12.159L2.14382 12.1875C5.09286 12.7683 8.44784 11.7182 11.2055 10.0251C11.5682 9.8024 11.9238 9.56661 12.2697 9.31944C12.6829 9.83542 13.0529 10.3587 13.351 10.875C13.7247 11.5223 14.0628 12.2923 14.3649 13.1149C13.8476 13.3653 13.3432 13.641 12.8571 13.9368C10.0653 15.6356 7.68346 18.1135 6.86537 20.5815L6.86494 20.5828ZM16.2598 21.0475C13.6549 22.2776 10.7415 22.2853 8.22112 21.2588L8.28919 21.0535C8.95273 19.0517 11.0086 16.8174 13.6368 15.2182C14.0317 14.9779 14.435 14.7547 14.8436 14.5507C15.0958 15.3805 15.3142 16.2223 15.4987 17.0128C15.738 18.0383 15.9156 18.9575 16.0333 19.6201C16.0921 19.9512 16.1358 20.2176 16.1648 20.4004C16.1793 20.4919 16.19 20.5624 16.1971 20.6096L16.205 20.6626L16.2068 20.6755L16.2074 20.6791L16.2598 21.0475Z" fill="#1C274C"/>
<path d="M16.2261 13.9425C18.1136 13.2236 20.0377 12.9473 21.7029 13.3127L21.9077 13.3576C21.7858 14.2418 21.5465 15.1071 21.1963 15.9286C20.472 17.6278 19.2732 19.1396 17.6588 20.2451L17.6463 20.166C17.6161 19.9748 17.5708 19.699 17.5102 19.3578C17.389 18.6757 17.2062 17.7295 16.9595 16.672C16.7605 15.8192 16.5169 14.8803 16.2261 13.9425Z" fill="#1C274C"/>
<path d="M13.4528 8.39743C15.1814 6.92819 16.5399 5.18651 17.1249 3.44818L17.1354 3.41705C18.5511 4.26242 19.7771 5.47033 20.6601 6.99972C21.5428 8.52873 21.9759 10.194 22.0004 11.8423C20.0047 11.4109 17.8141 11.7412 15.7445 12.5213C15.4238 11.6577 15.0597 10.8345 14.6501 10.125C14.3139 9.54274 13.9038 8.96194 13.4528 8.39743Z" fill="#1C274C"/>
<path d="M8.31884 3.45405C8.0668 3.25473 7.86156 3.09745 7.71859 2.98945L7.69623 2.97258C9.45868 2.13001 11.3645 1.84893 13.1956 2.07088C14.0829 2.17844 14.9527 2.40412 15.7801 2.74129L15.7033 2.96973C15.2261 4.38768 14.0531 5.92038 12.4749 7.26043C11.7445 6.46537 10.9742 5.7288 10.2723 5.09932C9.51514 4.42018 8.82252 3.85238 8.31884 3.45405Z" fill="#1C274C"/>
<path d="M10.4207 8.74678C7.83405 10.3349 4.87029 11.1956 2.43367 10.7157L2.09108 10.6483C2.46036 7.95488 3.91967 5.43745 6.28165 3.7952L6.60959 4.03361L6.61164 4.0351L6.62097 4.04194L6.66001 4.07072C6.69485 4.09652 6.74697 4.13536 6.81448 4.18635C6.9495 4.28834 7.1459 4.43883 7.38839 4.63059C7.87375 5.01443 8.54173 5.56206 9.27079 6.21597C9.9306 6.80777 10.6285 7.47615 11.2828 8.18057C11.0035 8.37645 10.7158 8.5656 10.4207 8.74678Z" fill="#1C274C"/>
</svg>
