<svg width="24" height="24" viewBox="0 0 24 24" fill="none" xmlns="http://www.w3.org/2000/svg">
<path fill-rule="evenodd" clip-rule="evenodd" d="M8.36653 3.49198C8.86578 3.88806 9.53866 4.44145 10.2721 5.09931C10.9739 5.72879 11.7443 6.46536 12.4747 7.26042C13.878 6.06885 14.9609 4.72496 15.5192 3.44487C14.747 3.12788 13.9345 2.91595 13.1051 2.81542C11.5311 2.62463 9.89819 2.83548 8.36653 3.49198ZM16.858 4.12607C16.18 5.63499 14.9563 7.11929 13.4526 8.39742C13.9035 8.96192 14.3137 9.54273 14.6498 10.125C15.0595 10.8345 15.4235 11.6577 15.7443 12.5213C17.5565 11.8382 19.4615 11.5 21.2472 11.7161C21.2031 10.2364 20.8023 8.74635 20.0103 7.37471C19.2161 5.99906 18.1221 4.9045 16.858 4.12607ZM21.1695 13.2185C19.6335 13.0103 17.9151 13.2991 16.2259 13.9425C16.5167 14.8803 16.7603 15.8192 16.9592 16.6719C17.206 17.7294 17.3888 18.6757 17.5099 19.3577C17.5138 19.3794 17.5176 19.4008 17.5213 19.422C18.8705 18.421 19.8798 17.1037 20.5062 15.6344C20.8352 14.8626 21.0584 14.0494 21.1695 13.2185ZM16.1436 20.2698C16.1159 20.0989 16.0791 19.8793 16.0331 19.6201C15.9154 18.9575 15.7378 18.0383 15.4985 17.0128C15.314 16.2223 15.0956 15.3805 14.8434 14.5507C14.4348 14.7547 14.0314 14.9779 13.6366 15.2182C11.2248 16.6857 9.29496 18.6881 8.48074 20.5547C10.8833 21.541 13.6751 21.5096 16.1436 20.2698ZM7.14187 19.8736C8.14272 17.6465 10.3322 15.473 12.8569 13.9368C13.343 13.641 13.8474 13.3652 14.3647 13.1149C14.0626 12.2923 13.7245 11.5223 13.3508 10.875C13.0527 10.3587 12.6827 9.83541 12.2695 9.31943C11.9236 9.5666 11.568 9.80239 11.2053 10.0251C8.63564 11.6027 5.54737 12.6221 2.75216 12.2838C2.79632 13.7632 3.19701 15.2532 3.98886 16.6247C4.78324 18.0006 5.87771 19.0952 7.14187 19.8736ZM2.82971 10.7814C3.17474 8.19867 4.60296 5.78767 6.92161 4.26786C7.04599 4.36277 7.20375 4.48474 7.38817 4.63058C7.87353 5.01442 8.54152 5.56205 9.27058 6.21596C9.93038 6.80776 10.6283 7.47613 11.2825 8.18056C11.0033 8.37644 10.7155 8.56559 10.4205 8.74677C7.97249 10.2497 5.18674 11.1012 2.82971 10.7814ZM6.6246 2.68993C8.71968 1.48034 11.0548 1.05591 13.2856 1.32632C16.5254 1.71902 19.5506 3.57847 21.3094 6.62471C23.0681 9.67094 23.1658 13.2206 21.886 16.2227C21.0048 18.2898 19.4697 20.0999 17.3746 21.3095C12.233 24.278 5.65836 22.5164 2.68982 17.3747C-0.278706 12.2331 1.48295 5.65846 6.6246 2.68993Z" fill="#1C274C"/>
</svg>
