<svg width="24" height="24" viewBox="0 0 24 24" fill="none" xmlns="http://www.w3.org/2000/svg">
<path fill-rule="evenodd" clip-rule="evenodd" d="M3.70572 1.3101C4.08671 1.14757 4.52733 1.32467 4.68985 1.70567L4.00025 1.99984C4.68985 1.70567 4.6898 1.70553 4.68985 1.70567L4.69056 1.70733L4.692 1.71071L4.69699 1.72253L4.71515 1.766C4.73077 1.80362 4.75326 1.85834 4.78163 1.92879C4.83837 2.06967 4.91871 2.27365 5.01478 2.52994C5.20677 3.04212 5.46236 3.76534 5.71804 4.61292C6.19902 6.20734 6.69546 8.29033 6.74582 10.2499H17.2542C17.3045 8.29033 17.801 6.20734 18.282 4.61292C18.5376 3.76534 18.7932 3.04212 18.9852 2.52994C19.0813 2.27365 19.1616 2.06967 19.2184 1.92879C19.2467 1.85834 19.2692 1.80362 19.2849 1.766L19.303 1.72253L19.308 1.71071L19.3094 1.70733L19.3099 1.70629C19.3099 1.70615 19.3101 1.70567 20 1.99995L19.3099 1.70629C19.4724 1.32529 19.9133 1.14757 20.2943 1.3101C20.6752 1.4726 20.8523 1.91312 20.6899 2.29408L20.6891 2.29602L20.6855 2.30451L20.6702 2.3411C20.6565 2.37405 20.6361 2.42385 20.6098 2.48918C20.5571 2.61987 20.4812 2.81251 20.3898 3.05643C20.2068 3.54466 19.9624 4.23623 19.718 5.04613C19.2254 6.67916 18.75 8.73928 18.75 10.5714C18.75 11.6302 19.1082 12.5388 19.656 13.5277C19.8445 13.8678 20.0655 14.2315 20.3001 14.6174C20.8141 15.4629 21.393 16.4152 21.8363 17.4617C22.3695 18.7203 22.75 20.1843 22.75 21.9999C22.75 22.4142 22.4142 22.7499 22 22.7499C21.5858 22.7499 21.25 22.4142 21.25 21.9999C21.25 20.5093 20.96 19.3043 20.5413 18.2561C15.1471 18.403 13.0815 21.127 12.7115 22.2371C12.6094 22.5434 12.3228 22.7499 12 22.7499C11.6772 22.7499 11.3906 22.5434 11.2885 22.2371C10.9185 21.127 8.85291 18.403 3.45871 18.2561C3.03996 19.3043 2.75 20.5093 2.75 21.9999C2.75 22.4142 2.41421 22.7499 2 22.7499C1.58579 22.7499 1.25 22.4142 1.25 21.9999C1.25 20.1843 1.63049 18.7203 2.16368 17.4617C2.60702 16.4152 3.18593 15.4629 3.69986 14.6174C3.93446 14.2315 4.15551 13.8678 4.34395 13.5277C4.89176 12.5388 5.25 11.6302 5.25 10.5714C5.25 8.73928 4.77458 6.67916 4.28196 5.04613C4.03764 4.23623 3.79323 3.54466 3.61022 3.05643C3.51878 2.81251 3.44288 2.61987 3.39024 2.48918C3.36393 2.42385 3.34345 2.37405 3.32977 2.3411L3.31449 2.30451L3.3109 2.29602L3.31017 2.29428C3.14775 1.91331 3.32477 1.4726 3.70572 1.3101ZM4.16148 16.7876C8.37156 17.0662 10.8303 18.8417 12 20.4374C13.1697 18.8417 15.6284 17.0662 19.8385 16.7876C19.599 16.353 19.3479 15.9414 19.0947 15.5262C18.8435 15.1144 18.5902 14.6991 18.3439 14.2545C18.2513 14.0874 18.1613 13.9182 18.0752 13.7462C18.0505 13.7487 18.0254 13.7499 18 13.7499H6C5.97462 13.7499 5.94953 13.7487 5.9248 13.7462C5.8387 13.9182 5.74865 14.0874 5.65608 14.2545C5.40979 14.6991 5.15649 15.1144 4.90532 15.5262C4.6521 15.9414 4.40103 16.353 4.16148 16.7876ZM6.51666 12.2499H17.4833C17.4377 12.0866 17.3978 11.9201 17.3645 11.7499H6.63547C6.60217 11.9201 6.56228 12.0866 6.51666 12.2499Z" fill="#1C274C"/>
</svg>
