<svg width="24" height="24" viewBox="0 0 24 24" fill="none" xmlns="http://www.w3.org/2000/svg">
<path opacity="0.5" d="M9.5 15.5V15.375C9.5 14.8918 9.89175 14.5 10.375 14.5H13.625C14.1082 14.5 14.5 14.8918 14.5 15.375V15.5C14.5 16.8807 13.3807 18 12 18C10.6193 18 9.5 16.8807 9.5 15.5Z" fill="#1C274C" stroke="#1C274C" stroke-width="1.5" stroke-linecap="round"/>
<path opacity="0.5" fill-rule="evenodd" clip-rule="evenodd" d="M10.5 1.25002L10.4656 1.25001L10.4656 1.25001C10.2605 1.24993 10.0387 1.24984 9.85145 1.27501C9.63212 1.3045 9.35193 1.38033 9.11613 1.61613C8.88033 1.85193 8.8045 2.13212 8.77501 2.35145C8.74984 2.53866 8.74993 2.76046 8.75001 2.96557L8.75001 2.96557L8.75002 3.00002V3.50002L8.75001 3.53446C8.74993 3.73958 8.74984 3.96137 8.77501 4.14859C8.8045 4.36791 8.88033 4.6481 9.11613 4.8839C9.35193 5.1197 9.63212 5.19554 9.85145 5.22502C10.0387 5.2502 10.2605 5.25011 10.4656 5.25003L10.5 5.25002H11L11.0345 5.25003C11.1053 5.25006 11.1782 5.25008 11.251 5.24907C11.25 5.32182 11.25 5.39469 11.25 5.46557L11.25 5.50002V6.00002L11.25 6.03446C11.25 6.10534 11.25 6.17822 11.251 6.25097C11.1783 6.24995 11.1054 6.24998 11.0346 6.25001H11.0345L11 6.25002H10.5L10.4656 6.25001C10.2605 6.24993 10.0387 6.24984 9.85145 6.27501C9.63212 6.3045 9.35193 6.38033 9.11613 6.61613C8.88033 6.85193 8.8045 7.13212 8.77501 7.35145C8.74984 7.53866 8.74993 7.76046 8.75001 7.96557L8.75002 8.00002V8.50002L8.75001 8.53446C8.74993 8.73958 8.74984 8.96137 8.77501 9.14859C8.8045 9.36791 8.88033 9.6481 9.11613 9.8839C9.35193 10.1197 9.63212 10.1955 9.85145 10.225C10.0387 10.2502 10.2605 10.2501 10.4656 10.25L10.5 10.25H11L11.0345 10.25C11.1053 10.2501 11.1782 10.2501 11.251 10.2491C11.25 10.3218 11.25 10.3947 11.25 10.4656L11.25 10.5V11L11.25 11.0345C11.2499 11.2396 11.2498 11.4614 11.275 11.6486C11.3045 11.8679 11.3803 12.1481 11.6161 12.3839C11.8519 12.6197 12.1321 12.6955 12.3514 12.725C12.5387 12.7502 12.7605 12.7501 12.9656 12.75L13 12.75H13.5L13.5345 12.75C13.7396 12.7501 13.9614 12.7502 14.1486 12.725C14.3679 12.6955 14.6481 12.6197 14.8839 12.3839C15.1197 12.1481 15.1955 11.8679 15.225 11.6486C15.2502 11.4614 15.2501 11.2396 15.25 11.0345L15.25 11V10.5L15.25 10.4656C15.2501 10.2605 15.2502 10.0387 15.225 9.85145C15.1955 9.63212 15.1197 9.35193 14.8839 9.11613C14.6481 8.88033 14.3679 8.8045 14.1486 8.77501C13.9614 8.74984 13.7396 8.74993 13.5345 8.75001L13.5 8.75002H13L12.9656 8.75001C12.8947 8.74998 12.8218 8.74995 12.7491 8.75097C12.7501 8.67822 12.7501 8.60535 12.75 8.53446L12.75 8.50002V8.00002L12.75 7.96557C12.7501 7.89469 12.7501 7.82182 12.7491 7.74907C12.8218 7.75008 12.8947 7.75005 12.9656 7.75003L13 7.75002H13.5L13.5345 7.75003C13.7396 7.75011 13.9614 7.7502 14.1486 7.72502C14.3679 7.69554 14.6481 7.6197 14.8839 7.3839C15.1197 7.1481 15.1955 6.86791 15.225 6.64859C15.2502 6.46137 15.2501 6.23958 15.25 6.03446L15.25 6.00002V5.50002L15.25 5.46557C15.2501 5.26046 15.2502 5.03866 15.225 4.85145C15.1955 4.63212 15.1197 4.35193 14.8839 4.11613C14.6481 3.88033 14.3679 3.8045 14.1486 3.77501C13.9614 3.74984 13.7396 3.74993 13.5345 3.75001L13.5 3.75002H13L12.9656 3.75001C12.8947 3.74998 12.8218 3.74995 12.7491 3.75097C12.7501 3.67822 12.7501 3.60535 12.75 3.53446L12.75 3.50002V3.00002L12.75 2.96557C12.7501 2.76046 12.7502 2.53866 12.725 2.35145C12.6955 2.13212 12.6197 1.85193 12.3839 1.61613C12.1481 1.38033 11.8679 1.3045 11.6486 1.27501C11.4614 1.24984 11.2396 1.24993 11.0345 1.25001L11 1.25002H10.5ZM10.25 3.00002C10.25 2.90094 10.2501 2.82063 10.2512 2.75117C10.3206 2.75005 10.4009 2.75002 10.5 2.75002H11C11.0991 2.75002 11.1794 2.75005 11.2489 2.75117C11.25 2.82063 11.25 2.90094 11.25 3.00002V3.50002C11.25 3.5991 11.25 3.67941 11.2489 3.74887C11.1794 3.74999 11.0991 3.75002 11 3.75002H10.5C10.4009 3.75002 10.3206 3.74999 10.2512 3.74887C10.2501 3.67941 10.25 3.5991 10.25 3.50002V3.00002ZM10.25 8.00002C10.25 7.90094 10.2501 7.82063 10.2512 7.75117C10.3206 7.75005 10.4009 7.75002 10.5 7.75002H11C11.0991 7.75002 11.1794 7.75005 11.2489 7.75117C11.25 7.82063 11.25 7.90094 11.25 8.00002V8.50002C11.25 8.5991 11.25 8.67941 11.2489 8.74887C11.1794 8.74998 11.0991 8.75002 11 8.75002H10.5C10.4009 8.75002 10.3206 8.74998 10.2512 8.74887C10.2501 8.67941 10.25 8.5991 10.25 8.50002V8.00002ZM12.7512 5.25117C12.7501 5.32063 12.75 5.40094 12.75 5.50002V6.00002C12.75 6.0991 12.7501 6.17941 12.7512 6.24887C12.8206 6.24998 12.9009 6.25002 13 6.25002H13.5C13.5991 6.25002 13.6794 6.24998 13.7489 6.24887C13.75 6.17941 13.75 6.0991 13.75 6.00002V5.50002C13.75 5.40094 13.75 5.32063 13.7489 5.25117C13.6794 5.25005 13.5991 5.25002 13.5 5.25002H13C12.9009 5.25002 12.8206 5.25005 12.7512 5.25117ZM12.75 10.5C12.75 10.4009 12.7501 10.3206 12.7512 10.2512C12.8206 10.2501 12.9009 10.25 13 10.25H13.5C13.5991 10.25 13.6794 10.2501 13.7489 10.2512C13.75 10.3206 13.75 10.4009 13.75 10.5V11C13.75 11.0991 13.75 11.1794 13.7489 11.2489C13.6794 11.25 13.5991 11.25 13.5 11.25H13C12.9009 11.25 12.8206 11.25 12.7512 11.2489C12.7501 11.1794 12.75 11.0991 12.75 11V10.5Z" fill="#1C274C"/>
<path d="M3 10C3 6.22876 3 4.34315 4.17157 3.17157C5.34315 2 7.22876 2 11 2H13C16.7712 2 18.6569 2 19.8284 3.17157C21 4.34315 21 6.22876 21 10V14C21 17.7712 21 19.6569 19.8284 20.8284C18.6569 22 16.7712 22 13 22H11C7.22876 22 5.34315 22 4.17157 20.8284C3 19.6569 3 17.7712 3 14V10Z" stroke="#1C274C" stroke-width="1.5"/>
</svg>
