<svg width="24" height="24" viewBox="0 0 24 24" fill="none" xmlns="http://www.w3.org/2000/svg">
<path d="M16.0001 10.4999C16.0001 11.3283 15.5523 11.9999 15.0001 11.9999C14.4478 11.9999 14.0001 11.3283 14.0001 10.4999C14.0001 9.67148 14.4478 8.9999 15.0001 8.9999C15.5523 8.9999 16.0001 9.67148 16.0001 10.4999Z" fill="#1C274C"/>
<path d="M10.0001 10.4999C10.0001 11.3283 9.55235 11.9999 9.00006 11.9999C8.44778 11.9999 8.00006 11.3283 8.00006 10.4999C8.00006 9.67148 8.44778 8.9999 9.00006 8.9999C9.55235 8.9999 10.0001 9.67148 10.0001 10.4999Z" fill="#1C274C"/>
<path fill-rule="evenodd" clip-rule="evenodd" d="M13.265 2.05067C13.3474 1.64473 13.7433 1.38245 14.1492 1.46484C18.3628 2.32007 21.6799 5.63714 22.5352 9.85065C22.6176 10.2566 22.3553 10.6525 21.9494 10.7349C21.5434 10.8173 21.1476 10.555 21.0652 10.149C20.3297 6.52593 17.474 3.67026 13.8509 2.93487C13.4449 2.85247 13.1827 2.4566 13.265 2.05067ZM10.7352 2.05072C10.8176 2.45666 10.5553 2.85253 10.1494 2.93492C6.52627 3.67032 3.67056 6.52598 2.93511 10.1491C2.85271 10.555 2.45683 10.8173 2.0509 10.7349C1.64496 10.6525 1.38269 10.2566 1.46509 9.8507C2.32038 5.6372 5.6375 2.32012 9.85103 1.46489C10.257 1.3825 10.6528 1.64478 10.7352 2.05072ZM2.05106 13.2649C2.45699 13.1825 2.85287 13.4448 2.93527 13.8507C3.67072 17.4738 6.52642 20.3295 10.1496 21.0649C10.5555 21.1473 10.8178 21.5431 10.7354 21.9491C10.653 22.355 10.2571 22.6173 9.85119 22.5349C5.63766 21.6797 2.32054 18.3626 1.46525 14.1491C1.38285 13.7432 1.64512 13.3473 2.05106 13.2649ZM21.9494 13.2649C22.3553 13.3473 22.6176 13.7432 22.5352 14.1491C21.6799 18.3626 18.3628 21.6797 14.1492 22.5349C13.7433 22.6173 13.3474 22.355 13.265 21.9491C13.1827 21.5431 13.4449 21.1473 13.8509 21.0649C17.474 20.3295 20.3297 17.4738 21.0652 13.8507C21.1476 13.4448 21.5434 13.1825 21.9494 13.2649ZM8.39754 15.5533C8.64419 15.2205 9.11391 15.1507 9.44667 15.3974C10.175 15.9372 11.0542 16.2499 12.0001 16.2499C12.946 16.2499 13.8251 15.9372 14.5534 15.3974C14.8862 15.1507 15.3559 15.2205 15.6026 15.5533C15.8492 15.8861 15.7794 16.3558 15.4467 16.6024C14.4743 17.3232 13.285 17.7499 12.0001 17.7499C10.7151 17.7499 9.52586 17.3232 8.55345 16.6024C8.22068 16.3558 8.15088 15.8861 8.39754 15.5533Z" fill="#1C274C"/>
</svg>
