<svg xmlns="http://www.w3.org/2000/svg" fill="none" viewBox="0 0 24 24" width="1em" height="1em"><path stroke="currentColor" stroke-width="1.5" d="M12 19.5a2.5 2.5 0 1 1-5 0 2.5 2.5 0 0 1 5 0Zm10-2a2.5 2.5 0 1 1-5 0 2.5 2.5 0 0 1 5 0Z"/><path stroke="currentColor" stroke-linecap="round" stroke-width="1.5" d="m22 8-10 4"/><path fill="currentColor" d="m14.456 5.158.29.691zm2-.838-.29-.691zm4.652-.98-.416.624zM12.75 19V8.847h-1.5V19zm10-1.846V8.01h-1.5v9.144zM14.745 5.849l2-.837-.579-1.383-2 .837zM22.75 8.01c0-1.334.002-2.42-.12-3.241-.123-.836-.4-1.583-1.106-2.053l-.832 1.248c.185.123.355.353.455 1.024.101.686.103 1.639.103 3.022zm-6.005-2.998c1.276-.534 2.156-.9 2.828-1.071.657-.168.935-.1 1.12.023l.83-1.248c-.707-.471-1.502-.437-2.32-.229-.805.205-1.806.627-3.037 1.142zM12.75 8.847c0-.661.001-1.098.037-1.433.035-.318.095-.474.172-.59l-1.248-.831c-.258.387-.366.805-.415 1.259-.047.435-.046.966-.046 1.595zm1.416-4.381c-.58.243-1.07.447-1.454.658-.4.221-.743.481-1.001.869l1.248.83c.077-.115.199-.231.478-.385.296-.164.698-.333 1.308-.589z"/><path stroke="currentColor" stroke-linecap="round" stroke-width="1.5" d="M7 11V2"/><circle cx="4.5" cy="10.5" r="2.5" stroke="currentColor" stroke-width="1.5"/><path stroke="currentColor" stroke-linecap="round" stroke-width="1.5" d="M10 5c-1.243 0-3-.929-3-3"/></svg>