<svg width="24" height="24" viewBox="0 0 24 24" fill="none" xmlns="http://www.w3.org/2000/svg">
<path fill-rule="evenodd" clip-rule="evenodd" d="M6.24989 6C6.24989 3.37665 8.37654 1.25 10.9999 1.25C13.6232 1.25 15.7499 3.37665 15.7499 6C15.7499 8.62335 13.6232 10.75 10.9999 10.75C8.37654 10.75 6.24989 8.62335 6.24989 6ZM10.9999 2.75C9.20496 2.75 7.74989 4.20507 7.74989 6C7.74989 7.79493 9.20496 9.25 10.9999 9.25C12.7948 9.25 14.2499 7.79493 14.2499 6C14.2499 4.20507 12.7948 2.75 10.9999 2.75Z" fill="#1C274C"/>
<path fill-rule="evenodd" clip-rule="evenodd" d="M4.97534 13.6643C6.55481 12.7759 8.68634 12.25 10.9999 12.25C13.3134 12.25 15.445 12.7759 17.0244 13.6643C18.5804 14.5396 19.7499 15.8661 19.7499 17.5L19.75 17.602C19.7511 18.7638 19.7525 20.222 18.4735 21.2635C17.844 21.7761 16.9634 22.1406 15.7737 22.3815C14.5806 22.6229 13.0257 22.75 10.9999 22.75C8.97412 22.75 7.41915 22.6229 6.2261 22.3815C5.03637 22.1406 4.15577 21.7761 3.5263 21.2635C2.24728 20.222 2.24869 18.7638 2.24982 17.602L2.24989 17.5C2.24989 15.8661 3.41937 14.5396 4.97534 13.6643ZM5.71073 14.9717C4.37127 15.7251 3.74989 16.6487 3.74989 17.5C3.74989 18.8078 3.79021 19.544 4.47348 20.1004C4.84401 20.4022 5.46341 20.6967 6.52368 20.9113C7.58063 21.1252 9.02566 21.25 10.9999 21.25C12.9741 21.25 14.4192 21.1252 15.4761 20.9113C16.5364 20.6967 17.1558 20.4022 17.5263 20.1004C18.2096 19.544 18.2499 18.8078 18.2499 17.5C18.2499 16.6487 17.6285 15.7251 16.289 14.9717C14.9731 14.2315 13.1046 13.75 10.9999 13.75C8.89516 13.75 7.02669 14.2315 5.71073 14.9717Z" fill="#1C274C"/>
<path d="M21.5604 8.99827C21.8356 8.68869 21.8078 8.21463 21.4982 7.93944C21.1886 7.66425 20.7145 7.69214 20.4393 8.00173L18.274 10.4377L17.5016 9.74253C17.1937 9.46544 16.7195 9.49039 16.4424 9.79828C16.1653 10.1062 16.1903 10.5804 16.4982 10.8575L17.8315 12.0575C17.9799 12.1911 18.1755 12.26 18.375 12.2488C18.5744 12.2377 18.7611 12.1475 18.8938 11.9983L21.5604 8.99827Z" fill="#1C274C"/>
</svg>
