<svg width="24" height="24" viewBox="0 0 24 24" fill="none" xmlns="http://www.w3.org/2000/svg">
<path fill-rule="evenodd" clip-rule="evenodd" d="M13.4616 4.04683C14.665 4.86925 15.8622 5.85943 17.0014 6.99857C18.1405 8.13773 19.1307 9.33494 19.9531 10.5384C20.6542 9.16096 21.0756 7.85665 21.2062 6.72508C21.3709 5.298 21.0676 4.24358 20.412 3.58796C19.7564 2.93235 18.702 2.62912 17.2749 2.79377C16.1433 2.92433 14.839 3.34576 13.4616 4.04683ZM20.8685 12.0001C21.8739 10.235 22.514 8.47673 22.6963 6.89701C22.8913 5.20664 22.5675 3.62215 21.4727 2.5273C20.3778 1.43246 18.7933 1.10862 17.103 1.30366C15.5233 1.48592 13.765 2.12603 11.9999 3.13142C10.2348 2.12609 8.47661 1.48603 6.89694 1.30379C5.20662 1.10878 3.62218 1.43262 2.52736 2.52744C1.43253 3.62227 1.10869 5.20674 1.30371 6.89709C1.48597 8.47678 2.12605 10.235 3.13141 12.0001C2.12613 13.7652 1.48611 15.5233 1.30389 17.103C1.10891 18.7933 1.43276 20.3777 2.52756 21.4725C3.62235 22.5673 5.20676 22.8911 6.89705 22.6961C8.47668 22.5139 10.2348 21.8739 11.9999 20.8686C13.765 21.8739 15.5232 22.514 17.1029 22.6963C18.7932 22.8913 20.3777 22.5674 21.4725 21.4726C22.5673 20.3778 22.8911 18.7934 22.6961 17.103C22.5139 15.5234 21.8738 13.7652 20.8685 12.0001ZM19.1193 12.0001C18.2824 10.675 17.2141 9.33261 15.9407 8.05923C14.6673 6.78587 13.325 5.71761 11.9999 4.88069C10.6749 5.71759 9.33262 6.7858 8.05933 8.05909C6.7859 9.33252 5.7176 10.6749 4.88066 12.0001C5.71757 13.3252 6.78581 14.6675 8.05913 15.9408C9.33249 17.2142 10.6748 18.2824 11.9999 19.1193C13.3251 18.2824 14.6675 17.2141 15.9409 15.9407C17.2142 14.6674 18.2824 13.3251 19.1193 12.0001ZM13.4616 19.9532C14.6651 19.1307 15.8624 18.1405 17.0016 17.0013C18.1406 15.8623 19.1307 14.6652 19.9531 13.4618C20.6541 14.8392 21.0755 16.1435 21.206 17.275C21.3706 18.702 21.0674 19.7563 20.4118 20.4119C19.7562 21.0675 18.7018 21.3708 17.2748 21.2061C16.1433 21.0756 14.839 20.6542 13.4616 19.9532ZM10.5381 19.9532C9.33474 19.1308 8.13759 18.1406 6.99847 17.0015C5.85938 15.8624 4.86924 14.6653 4.04684 13.4619C3.34589 14.8392 2.92453 16.1434 2.79401 17.2749C2.6294 18.7019 2.93263 19.7562 3.58822 20.4118C4.24381 21.0674 5.29816 21.3706 6.72515 21.206C7.85662 21.0755 9.16082 20.6541 10.5381 19.9532ZM4.04681 10.5384C4.86926 9.33488 5.85948 8.13763 6.99867 6.99843C8.13773 5.85936 9.33483 4.86924 10.5382 4.04685C9.1608 3.34583 7.85655 2.92444 6.72503 2.7939C5.298 2.62927 4.24362 2.9325 3.58802 3.5881C2.93241 4.24371 2.62918 5.29811 2.79383 6.72517C2.92438 7.8567 3.34578 9.16097 4.04681 10.5384ZM12 10.25C11.0335 10.25 10.25 11.0335 10.25 12C10.25 12.9665 11.0335 13.75 12 13.75C12.9665 13.75 13.75 12.9665 13.75 12C13.75 11.0335 12.9665 10.25 12 10.25ZM8.75001 12C8.75001 10.205 10.2051 8.74995 12 8.74995C13.7949 8.74995 15.25 10.205 15.25 12C15.25 13.7949 13.7949 15.25 12 15.25C10.2051 15.25 8.75001 13.7949 8.75001 12Z" fill="#1C274C"/>
</svg>
