<svg width="24" height="24" viewBox="0 0 24 24" fill="none" xmlns="http://www.w3.org/2000/svg">
<path d="M22 12C22 17.5228 17.5228 22 12 22C6.47715 22 2 17.5228 2 12C2 6.47715 6.47715 2 12 2C17.5228 2 22 6.47715 22 12Z" stroke="#1C274C" stroke-width="1.5"/>
<path opacity="0.5" d="M19 19L17.5 17.5" stroke="#1C274C" stroke-width="1.5" stroke-linecap="round"/>
<path opacity="0.5" d="M19 5L17.5 6.5" stroke="#1C274C" stroke-width="1.5" stroke-linecap="round"/>
<path opacity="0.5" d="M5 19L6.5 17.5" stroke="#1C274C" stroke-width="1.5" stroke-linecap="round"/>
<path opacity="0.5" d="M5 5L6.5 6.5" stroke="#1C274C" stroke-width="1.5" stroke-linecap="round"/>
<path opacity="0.5" d="M2 12H4" stroke="#1C274C" stroke-width="1.5" stroke-linecap="round"/>
<path opacity="0.5" d="M19.9998 12L21.9998 12" stroke="#1C274C" stroke-width="1.5" stroke-linecap="round"/>
<path opacity="0.5" d="M12 4.00021L12 2.00021" stroke="#1C274C" stroke-width="1.5" stroke-linecap="round"/>
<path d="M10.1212 14.3638C8.94966 13.1922 8.94966 11.2927 10.1212 10.1211C11.2928 8.94954 13.1923 8.94954 14.3639 10.1211C14.8095 10.5668 15.1208 11.4919 15.3354 12.4672C15.6563 13.9257 15.8167 14.655 15.2359 15.2358C14.6551 15.8166 13.9259 15.6562 12.4673 15.3352C11.492 15.1206 10.5669 14.8094 10.1212 14.3638Z" stroke="#1C274C" stroke-width="1.5"/>
</svg>
