<svg xmlns="http://www.w3.org/2000/svg" fill="none" viewBox="0 0 24 24" width="1em" height="1em"><path fill="currentColor" fill-rule="evenodd" d="M1.818 5.272a.75.75 0 0 1 .91.546l.382 1.528a6.71 6.71 0 0 0 4.974 4.904H16a4.124 4.124 0 0 1 4.095 3.642l.65 5.52a.75.75 0 0 1-1.49.176l-.65-5.521A2.624 2.624 0 0 0 16 13.75H7.918l-.08-.018A8.21 8.21 0 0 1 1.653 7.71l-.382-1.528a.75.75 0 0 1 .546-.91" clip-rule="evenodd"/><path fill="currentColor" d="M8 13.75V18c0 1.886 0 2.828.586 3.414S10.114 22 12 22s2.828 0 3.414-.586S16 19.886 16 18v-4.25z" opacity=".5"/><circle cx="12" cy="6" r="4" fill="currentColor"/></svg>