<svg width="24" height="24" viewBox="0 0 24 24" fill="none" xmlns="http://www.w3.org/2000/svg">
<path fill-rule="evenodd" clip-rule="evenodd" d="M11.7463 1.97527C11.7873 2.38746 11.4863 2.75478 11.0741 2.7957C6.40058 3.25972 2.75 7.204 2.75 12C2.75 17.1086 6.89137 21.25 12 21.25C16.796 21.25 20.7403 17.5994 21.2043 12.9259C21.2452 12.5137 21.6125 12.2127 22.0247 12.2537C22.4369 12.2946 22.7379 12.6619 22.697 13.0741C22.1575 18.5072 17.5747 22.75 12 22.75C6.06294 22.75 1.25 17.9371 1.25 12C1.25 6.42529 5.49278 1.84247 10.9259 1.30304C11.3381 1.26212 11.7054 1.56308 11.7463 1.97527ZM14.5562 1.85293C14.7487 1.71163 14.9969 1.67043 15.2247 1.74198C18.5688 2.79229 21.2074 5.4309 22.2577 8.77498C22.3819 9.17016 22.1621 9.59113 21.7669 9.71525C21.3718 9.83937 20.9508 9.61963 20.8267 9.22445C20.0281 6.68183 18.1597 4.61129 15.75 3.54122V12C15.75 14.0711 14.0711 15.75 12 15.75C9.92893 15.75 8.25 14.0711 8.25 12C8.25 9.92893 9.92893 8.25 12 8.25C12.8442 8.25 13.6233 8.52896 14.25 8.99972V2.45752C14.25 2.21874 14.3637 1.99423 14.5562 1.85293ZM14.25 12C14.25 10.7574 13.2426 9.75 12 9.75C10.7574 9.75 9.75 10.7574 9.75 12C9.75 13.2426 10.7574 14.25 12 14.25C13.2426 14.25 14.25 13.2426 14.25 12Z" fill="#1C274C"/>
</svg>
