<svg xmlns="http://www.w3.org/2000/svg" fill="none" viewBox="0 0 24 24" width="1em" height="1em"><path fill="currentColor" fill-rule="evenodd" d="M6.977 1.327a.75.75 0 0 1 .175 1.046l-.386.541c.626.474.765 1.364.306 2.007l-.41.576a.75.75 0 0 1-1.222-.871l.386-.541a1.457 1.457 0 0 1-.305-2.007l.41-.576a.75.75 0 0 1 1.046-.175m4 0a.75.75 0 0 1 .175 1.046l-.386.541c.626.474.765 1.364.306 2.007l-.41.576a.75.75 0 0 1-1.222-.871l.386-.541a1.457 1.457 0 0 1-.305-2.007l.41-.576a.75.75 0 0 1 1.046-.175m4 0a.75.75 0 0 1 .175 1.046l-.386.541c.626.474.765 1.364.306 2.007l-.41.576a.75.75 0 0 1-1.222-.871l.386-.541a1.457 1.457 0 0 1-.305-2.007l.41-.576a.75.75 0 0 1 1.046-.175M7.221 6.25h5.557c.956 0 1.75 0 2.377.086.66.091 1.253.291 1.715.785.31.332.485.713.58 1.129H18a4.75 4.75 0 0 1 0 9.5h-.97l-.03.368v.632h-.064q-.054.48-.134.884c-.169.845-.455 1.551-1.047 2.104s-1.315.793-2.17.904c-.822.108-1.86.108-3.146.108h-.878c-1.286 0-2.324 0-3.146-.108-.855-.111-1.579-.35-2.17-.904-.592-.553-.878-1.26-1.047-2.104-.162-.814-.23-1.85-.316-3.132l-.35-5.24c-.063-.954-.116-1.746-.072-2.377.047-.664.208-1.27.67-1.764s1.055-.694 1.715-.785c.626-.086 1.42-.086 2.377-.086m9.914 10H18a3.25 3.25 0 1 0 0-6.5h-.45c-.012.448-.045.953-.082 1.512zm-1.572 1H4.438l-.062-.9-.342-5.134c-.068-1.021-.113-1.71-.076-2.226.034-.493.137-.704.268-.844.13-.14.334-.256.825-.324.512-.07 1.202-.072 2.226-.072h5.448c1.024 0 1.714.002 2.226.072.49.068.694.184.825.324.13.14.234.35.268.844.037.516-.008 1.205-.076 2.226l-.342 5.133q-.031.484-.062.901m-10.988 1.5h10.85q-.04.32-.094.59c-.137.685-.327 1.047-.6 1.303-.274.256-.648.422-1.34.512-.713.093-1.653.095-3.004.095h-.774c-1.35 0-2.29-.002-3.004-.095-.692-.09-1.066-.256-1.34-.512-.273-.256-.463-.618-.6-1.303a9 9 0 0 1-.094-.59" clip-rule="evenodd"/></svg>