<svg xmlns="http://www.w3.org/2000/svg" fill="none" viewBox="0 0 24 24" width="1em" height="1em"><path stroke="currentColor" stroke-width="1.5" d="M11.146 12.523c.38-.682.57-1.023.854-1.023s.474.341.854 1.023l.098.176c.108.194.162.29.246.355.085.063.19.087.4.135l.19.043c.738.167 1.107.25 1.195.533.088.282-.164.576-.667 1.164l-.13.152c-.143.168-.215.251-.247.355s-.021.214 0 .438l.02.203c.076.784.114 1.177-.115 1.351-.23.175-.576.016-1.267-.302l-.178-.083c-.197-.09-.295-.135-.399-.135s-.202.045-.399.135l-.178.083c-.691.318-1.037.477-1.267.302-.23-.174-.191-.567-.115-1.351l.02-.204c.021-.223.032-.334 0-.437-.032-.104-.104-.187-.247-.355l-.13-.152c-.503-.588-.755-.882-.667-1.164.088-.283.457-.366 1.195-.533l.19-.043c.21-.048.315-.072.4-.135.084-.064.138-.161.246-.355z"/><path stroke="currentColor" stroke-linecap="round" stroke-width="1.5" d="M21.838 11.126c.18-1.912.27-2.869-.057-3.264a1 1 0 0 0-.675-.367c-.476-.042-1.073.638-2.268 1.998-.618.704-.927 1.055-1.271 1.11a.92.92 0 0 1-.562-.09c-.319-.16-.53-.595-.955-1.464l-2.237-4.584C13.011 2.822 12.61 2 12 2s-1.011.822-1.813 2.465L7.95 9.049c-.424.87-.636 1.304-.955 1.464a.93.93 0 0 1-.562.09c-.344-.055-.653-.406-1.271-1.11-1.195-1.36-1.792-2.04-2.268-1.998a1 1 0 0 0-.675.367c-.327.395-.237 1.352-.057 3.264l.229 2.436c.378 4.012.566 6.019 1.75 7.228C5.322 22 7.094 22 10.64 22h2.719c3.545 0 5.317 0 6.5-1.21.914-.935 1.234-2.345 1.507-4.79"/></svg>