<svg width="24" height="24" viewBox="0 0 24 24" fill="none" xmlns="http://www.w3.org/2000/svg">
<path fill-rule="evenodd" clip-rule="evenodd" d="M8.12673 3.56036C7.76931 3.24266 7.23069 3.24266 6.87327 3.56036C5.98775 4.34749 4.67284 4.3817 3.75 3.66298V20.3368C4.67284 19.6181 5.98775 19.6523 6.87327 20.4394C7.23069 20.7571 7.76931 20.7571 8.12673 20.4394C9.05248 19.6165 10.4475 19.6165 11.3733 20.4394C11.7307 20.7571 12.2693 20.7571 12.6267 20.4394C13.5525 19.6165 14.9475 19.6165 15.8733 20.4394C16.2307 20.7571 16.7693 20.7571 17.1267 20.4394C18.0122 19.6523 19.3272 19.6181 20.25 20.3368V3.66298C19.3272 4.3817 18.0122 4.34749 17.1267 3.56036C16.7693 3.24266 16.2307 3.24266 15.8733 3.56036C14.9475 4.38325 13.5525 4.38325 12.6267 3.56036C12.2693 3.24266 11.7307 3.24266 11.3733 3.56036C10.4475 4.38325 9.05248 4.38325 8.12673 3.56036ZM5.87673 2.43925C6.80248 1.61636 8.19752 1.61636 9.12327 2.43925C9.48069 2.75696 10.0193 2.75696 10.3767 2.43925C11.3025 1.61636 12.6975 1.61636 13.6233 2.43925C13.9807 2.75696 14.5193 2.75696 14.8767 2.43925C15.8025 1.61636 17.1975 1.61636 18.1233 2.43925C18.4807 2.75696 19.0193 2.75696 19.3767 2.43925C20.2963 1.62184 21.75 2.27464 21.75 3.50501V20.4948C21.75 21.7251 20.2963 22.3779 19.3767 21.5605C19.0193 21.2428 18.4807 21.2428 18.1233 21.5605C17.1975 22.3834 15.8025 22.3834 14.8767 21.5605C14.5193 21.2428 13.9807 21.2428 13.6233 21.5605C12.6975 22.3834 11.3025 22.3834 10.3767 21.5605C10.0193 21.2428 9.48069 21.2428 9.12327 21.5605C8.19752 22.3834 6.80248 22.3834 5.87673 21.5605C5.51931 21.2428 4.98069 21.2428 4.62327 21.5605C3.70369 22.3779 2.25 21.7251 2.25 20.4948V3.50501C2.25 2.27464 3.70369 1.62184 4.62327 2.43925C4.98069 2.75696 5.51931 2.75696 5.87673 2.43925ZM6.75 8.49998C6.75 8.08577 7.08579 7.74998 7.5 7.74998H16.5C16.9142 7.74998 17.25 8.08577 17.25 8.49998C17.25 8.9142 16.9142 9.24998 16.5 9.24998H7.5C7.08579 9.24998 6.75 8.9142 6.75 8.49998ZM6.75 12C6.75 11.5858 7.08579 11.25 7.5 11.25H16.5C16.9142 11.25 17.25 11.5858 17.25 12C17.25 12.4142 16.9142 12.75 16.5 12.75H7.5C7.08579 12.75 6.75 12.4142 6.75 12ZM6.75 15.5C6.75 15.0858 7.08579 14.75 7.5 14.75H16.5C16.9142 14.75 17.25 15.0858 17.25 15.5C17.25 15.9142 16.9142 16.25 16.5 16.25H7.5C7.08579 16.25 6.75 15.9142 6.75 15.5Z" fill="#1C274C"/>
</svg>
