<svg xmlns="http://www.w3.org/2000/svg" fill="none" viewBox="0 0 24 24" width="1em" height="1em"><path stroke="currentColor" stroke-linecap="round" stroke-width="1.5" d="m12.765 20.416-9.18-9.181m9.18 9.18a5.41 5.41 0 1 0 7.65-7.65m-7.65 7.65 7.65-7.65m0 0-9.18-9.18m0 0a5.41 5.41 0 0 0-7.65 7.65m7.65-7.65-7.65 7.65"/><circle cx="9.172" cy="12" r="1" fill="currentColor" transform="rotate(-45 9.172 12)"/><circle cx="12" cy="14.828" r="1" fill="currentColor" transform="rotate(-45 12 14.828)"/><circle cx="12" cy="9.172" r="1" fill="currentColor" transform="rotate(-45 12 9.172)"/><circle cx="14.828" cy="12" r="1" fill="currentColor" transform="rotate(-45 14.828 12)"/></svg>