<svg xmlns="http://www.w3.org/2000/svg" fill="none" viewBox="0 0 24 24" width="1em" height="1em"><path fill="currentColor" d="M6.88 4.723c-1.252 0-2.278.84-2.62 1.954l-.021.07c.358-.12.731-.2 1.109-.253.972-.139 2.2-.139 3.628-.139h6.203c1.427 0 2.656 0 3.629.139.377.054.75.132 1.108.253l-.02-.07c-.343-1.114-1.369-1.954-2.62-1.954z" opacity=".7"/><path fill="currentColor" d="M8.859 2h6.282c.21 0 .37 0 .51.015a2.62 2.62 0 0 1 2.16 1.672H6.19a2.62 2.62 0 0 1 2.16-1.672C8.49 2 8.65 2 8.858 2" opacity=".4"/><path fill="currentColor" fill-rule="evenodd" d="M14.995 7.542h-5.99c-3.037 0-4.556 0-5.409.987s-.652 2.511-.25 5.56l.38 2.892c.315 2.391.472 3.587 1.28 4.303.807.716 1.998.716 4.38.716h5.228c2.382 0 3.573 0 4.38-.716.808-.716.965-1.912 1.28-4.303l.38-2.892c.402-3.049.603-4.573-.25-5.56s-2.372-.987-5.41-.987m-.406 2.623c-1.232-.526-2.646.266-2.728 1.528q-.005.082-.004.206v3.623a2.7 2.7 0 0 0-1.286-.321C9.151 15.2 8 16.275 8 17.6S9.151 20 10.571 20s2.572-1.074 2.572-2.4v-3.919l.928.462q.118.06.198.095c1.231.526 2.645-.266 2.728-1.528q.004-.082.003-.207v-.026l-.001-.093c-.021-.623-.387-1.192-.966-1.503l-.087-.044-1.16-.578q-.118-.059-.197-.094" clip-rule="evenodd"/><path fill="currentColor" d="M13.144 11.765c.027-.42.499-.684.91-.509l1.338.665a.6.6 0 0 1 .322.563l-.001.154c-.027.42-.499.684-.91.509l-.145-.072-1.135-.564-.058-.03a.6.6 0 0 1-.322-.562zM10.571 16.4c.71 0 1.286.538 1.286 1.2 0 .663-.575 1.2-1.286 1.2-.71 0-1.285-.537-1.285-1.2s.575-1.2 1.285-1.2"/></svg>