<svg xmlns="http://www.w3.org/2000/svg" fill="none" viewBox="0 0 24 24" width="1em" height="1em"><path fill="currentColor" d="M8.859 2h6.282c.21 0 .37 0 .51.015a2.62 2.62 0 0 1 2.159 1.672H6.19a2.62 2.62 0 0 1 2.159-1.672c.14-.015.3-.015.51-.015M6.88 4.723c-1.252 0-2.278.84-2.62 1.954l-.021.07c.358-.12.73-.2 1.108-.253.973-.139 2.202-.139 3.629-.139h6.203c1.427 0 2.656 0 3.629.139.377.054.75.132 1.108.253l-.02-.07c-.343-1.114-1.369-1.954-2.62-1.954z"/><path fill="currentColor" fill-rule="evenodd" d="M9.005 7.542h5.99c3.037 0 4.556 0 5.409.987s.652 2.511.25 5.56l-.38 2.892c-.315 2.391-.472 3.587-1.28 4.303-.807.716-1.998.716-4.38.716H9.386c-2.382 0-3.573 0-4.38-.716-.808-.716-.965-1.912-1.28-4.303l-.38-2.892c-.402-3.049-.603-4.573.25-5.56s2.372-.987 5.41-.987m2.856 4.15c.082-1.261 1.496-2.053 2.727-1.527q.081.035.198.095l.019.009 1.14.568.088.044c.58.31.945.88.966 1.503l.001.093v.027q0 .123-.003.206c-.083 1.262-1.497 2.054-2.728 1.528a4 4 0 0 1-.198-.095l-.018-.009-.91-.453v3.92c0 1.325-1.152 2.399-2.572 2.399S8 18.926 8 17.6s1.151-2.4 2.571-2.4c.469 0 .908.118 1.286.322v-3.623q-.001-.124.004-.206" clip-rule="evenodd"/><path fill="currentColor" d="M10.571 16.4c.71 0 1.286.538 1.286 1.2 0 .663-.575 1.2-1.286 1.2-.71 0-1.285-.537-1.285-1.2s.575-1.2 1.285-1.2m3.482-5.144c-.41-.175-.882.089-.909.51a4 4 0 0 0 0 .214.6.6 0 0 0 .321.501l.058.03 1.135.564c.107.054.133.066.146.072.41.175.882-.089.91-.51a4 4 0 0 0 0-.215.6.6 0 0 0-.322-.5z"/></svg>