<svg xmlns="http://www.w3.org/2000/svg" fill="none" viewBox="0 0 24 24" width="1em" height="1em"><path fill="currentColor" d="M20 12a8 8 0 1 1-16 0 8 8 0 0 1 16 0" opacity=".5"/><path fill="currentColor" d="M19.009 6.784a.75.75 0 0 0-.138-1.494 13 13 0 0 0-1.345.199.75.75 0 0 0-.472.31l1.118 1.096q.443-.075.837-.111"/><path fill="currentColor" fill-rule="evenodd" d="M20.937 5.379a.75.75 0 1 0-.346 1.46c.394.093.546.232.602.322.064.101.133.366-.157.948a.75.75 0 1 0 1.343.669c.378-.758.563-1.65.086-2.412-.344-.55-.923-.844-1.528-.987m-.225 5.582a.75.75 0 0 0-1.064-1.057c-.687.691-1.568 1.43-2.61 2.171a.75.75 0 1 0 .871 1.222c1.095-.78 2.044-1.572 2.803-2.336M3.587 14.947q.303-.38.706-.79l-.238-1.331a.75.75 0 0 0-.743.19 12 12 0 0 0-.897.995.75.75 0 1 0 1.172.936m12.164-.243a.75.75 0 0 0-.77-1.288 35 35 0 0 1-3.093 1.645.75.75 0 0 0 .638 1.358 37 37 0 0 0 3.225-1.715M2.815 16.25a.75.75 0 1 0-1.43-.456c-.19.602-.211 1.263.15 1.84.453.724 1.307 1.007 2.154 1.088a.75.75 0 1 0 .143-1.493c-.694-.066-.948-.267-1.025-.39-.05-.08-.102-.244.008-.59m7.268 1.203a.75.75 0 0 0-.527-1.405c-1.225.46-2.365.792-3.362.99a.75.75 0 0 0 .291 1.47c1.093-.215 2.313-.573 3.598-1.055" clip-rule="evenodd"/></svg>