<svg width="24" height="24" viewBox="0 0 24 24" fill="none" xmlns="http://www.w3.org/2000/svg">
<circle cx="12" cy="12" r="2" stroke="#1C274C" stroke-width="1.5"/>
<path fill-rule="evenodd" clip-rule="evenodd" d="M7.84647 2.16718C8.13937 2.46007 8.13937 2.93495 7.84647 3.22784C7.60855 3.46576 7.40261 3.70882 7.22563 3.95503C6.98386 4.29137 6.51521 4.36803 6.17888 4.12626C5.84254 3.88449 5.76588 3.41585 6.00765 3.07951C6.23362 2.76516 6.49255 2.46045 6.78581 2.16718C7.07871 1.87429 7.55358 1.87429 7.84647 2.16718ZM18.5233 6.28201C17.913 6.12832 17.2861 6.09873 16.6613 6.17319C16.25 6.22221 15.8769 5.92852 15.8278 5.51722C15.7788 5.10592 16.0725 4.73275 16.4838 4.68373C17.2729 4.58969 18.0853 4.62488 18.8896 4.82742C19.2913 4.92857 19.5349 5.33618 19.4337 5.73786C19.3326 6.13953 18.925 6.38316 18.5233 6.28201ZM5.89374 4.72194C6.29541 4.82308 6.53904 5.2307 6.43789 5.63237C6.2842 6.24269 6.25461 6.86958 6.32907 7.49436C6.37809 7.90566 6.0844 8.27883 5.6731 8.32785C5.2618 8.37687 4.88863 8.08318 4.83961 7.67187C4.74557 6.88276 4.78076 6.07039 4.9833 5.26609C5.08445 4.86441 5.49207 4.62079 5.89374 4.72194ZM15.1961 5.7022C15.3629 6.0813 15.1909 6.52392 14.8118 6.69081C14.213 6.9544 13.6456 7.2997 13.1347 7.70027C12.8088 7.95584 12.3373 7.89877 12.0818 7.57279C11.8262 7.24682 11.8833 6.77539 12.2092 6.51982C12.8135 6.04606 13.4881 5.63463 14.2074 5.31795C14.5865 5.15106 15.0292 5.32309 15.1961 5.7022ZM20.0294 6.023C20.2712 5.68666 20.7398 5.61 21.0762 5.85177C21.3905 6.07774 21.6952 6.33667 21.9885 6.62993C22.2814 6.92283 22.2814 7.3977 21.9885 7.69059C21.6956 7.98349 21.2207 7.98349 20.9278 7.69059C20.6899 7.45267 20.4469 7.24673 20.2006 7.06975C19.8643 6.82798 19.7876 6.35933 20.0294 6.023ZM11.6159 8.03575C11.9467 8.28516 12.0126 8.75543 11.7632 9.08614C11.698 9.17256 11.6359 9.25932 11.5768 9.34625C11.8463 9.36851 12.0945 9.53614 12.2068 9.80253C12.3677 10.1842 12.1888 10.6241 11.8071 10.785C11.5827 10.8796 11.3657 11.0223 11.1617 11.2263C10.8896 11.4984 10.4605 11.5177 10.1661 11.2843C10.104 11.2829 10.0412 11.2737 9.97867 11.256C9.58004 11.1435 9.34815 10.7291 9.46072 10.3304C9.6716 9.58367 10.0605 8.85267 10.5656 8.18295C10.815 7.85224 11.2852 7.78633 11.6159 8.03575ZM5.85808 8.95962C6.23718 8.79273 6.6798 8.96476 6.84669 9.34387C7.11028 9.94264 7.45558 10.51 7.85615 11.0209C8.11171 11.3469 8.05464 11.8183 7.72867 12.0739C7.4027 12.3295 6.93127 12.2724 6.6757 11.9464C6.20194 11.3422 5.79051 10.6676 5.47383 9.94823C5.30694 9.56913 5.47897 9.12651 5.85808 8.95962ZM12.8996 9.82306C13.0122 9.42444 13.4266 9.19255 13.8252 9.30512C14.572 9.516 15.303 9.90486 15.9727 10.4099C16.3034 10.6594 16.3693 11.1296 16.1199 11.4603C15.8705 11.7911 15.4002 11.857 15.0695 11.6075C14.9832 11.5424 14.8965 11.4804 14.8096 11.4214C14.7873 11.6908 14.6197 11.939 14.3534 12.0513C13.9717 12.2122 13.5318 12.0332 13.3709 11.6515C13.2763 11.4271 13.1336 11.2101 12.9296 11.0062C12.6576 10.7342 12.6382 10.3053 12.8714 10.0109C12.8727 9.94871 12.8819 9.88569 12.8996 9.82306ZM16.5828 11.9262C16.9088 11.6706 17.3802 11.7277 17.6358 12.0536C18.1096 12.6579 18.521 13.3325 18.8377 14.0518C19.0046 14.4309 18.8325 14.8736 18.4534 15.0405C18.0743 15.2073 17.6317 15.0353 17.4648 14.6562C17.2012 14.0574 16.8559 13.49 16.4554 12.9791C16.1998 12.6532 16.2569 12.1817 16.5828 11.9262ZM9.95814 11.9488C10.3398 11.7879 10.7797 11.9669 10.9406 12.3485C11.0352 12.5729 11.1779 12.7899 11.3819 12.9939C11.6539 13.2659 11.6733 13.6948 11.4401 13.9892C11.4388 14.0514 11.4296 14.1144 11.4119 14.177C11.2993 14.5756 10.8849 14.8075 10.4863 14.695C9.73955 14.4841 9.00854 14.0952 8.33882 13.5901C8.00812 13.3407 7.94221 12.8704 8.19162 12.5397C8.44103 12.209 8.91131 12.1431 9.24202 12.3925C9.32835 12.4576 9.41502 12.5197 9.50186 12.5787C9.52416 12.3092 9.69179 12.0611 9.95814 11.9488ZM14.1454 12.7158C13.851 12.4824 13.4219 12.5017 13.1498 12.7738C12.9458 12.9777 12.7288 13.1205 12.5044 13.2151C12.1227 13.376 11.9438 13.8159 12.1047 14.1975C12.217 14.4639 12.4652 14.6316 12.7347 14.6538C12.6756 14.7408 12.6135 14.8275 12.5484 14.9139C12.2989 15.2446 12.3648 15.7149 12.6956 15.9643C13.0263 16.2137 13.4965 16.1478 13.7459 15.8171C14.251 15.1474 14.6399 14.4164 14.8508 13.6696C14.9634 13.271 14.7315 12.8566 14.3328 12.7441C14.2703 12.7264 14.2075 12.7172 14.1454 12.7158ZM18.6384 15.6722C19.0497 15.6232 19.4229 15.9169 19.4719 16.3282C19.5659 17.1173 19.5307 17.9297 19.3282 18.734C19.2271 19.1357 18.8194 19.3793 18.4178 19.2781C18.0161 19.177 17.7725 18.7694 17.8736 18.3677C18.0273 17.7574 18.0569 17.1305 17.9824 16.5057C17.9334 16.0944 18.2271 15.7212 18.6384 15.6722ZM2.323 16.3095C2.6159 16.0166 3.09077 16.0166 3.38366 16.3095C3.62159 16.5474 3.86464 16.7533 4.11086 16.9303C4.44719 17.1721 4.52385 17.6407 4.28208 17.9771C4.04032 18.3134 3.57167 18.3901 3.23534 18.1483C2.92098 17.9223 2.61627 17.6634 2.323 17.3701C2.03011 17.0772 2.03011 16.6024 2.323 16.3095ZM12.2297 16.4273C12.4853 16.7533 12.4282 17.2247 12.1023 17.4803C11.498 17.954 10.8234 18.3654 10.1041 18.6821C9.72495 18.849 9.28234 18.677 9.11545 18.2979C8.94855 17.9188 9.12059 17.4762 9.49969 17.3093C10.0985 17.0457 10.6659 16.7004 11.1768 16.2998C11.5027 16.0442 11.9742 16.1013 12.2297 16.4273ZM4.87776 18.2622C4.97891 17.8605 5.38652 17.6169 5.7882 17.7181C6.39852 17.8718 7.0254 17.9013 7.65018 17.8269C8.06149 17.7779 8.43465 18.0716 8.48367 18.4829C8.53269 18.8942 8.239 19.2673 7.8277 19.3163C7.03859 19.4104 6.22621 19.3752 5.42191 19.1727C5.02024 19.0715 4.77661 18.6639 4.87776 18.2622ZM18.1326 19.8738C18.469 20.1156 18.5456 20.5842 18.3039 20.9206C18.0779 21.2349 17.819 21.5396 17.5257 21.8329C17.2328 22.1258 16.7579 22.1258 16.465 21.8329C16.1721 21.54 16.1721 21.0651 16.465 20.7722C16.703 20.5343 16.9089 20.2913 17.0859 20.045C17.3276 19.7087 17.7963 19.632 18.1326 19.8738Z" fill="#1C274C"/>
<path fill-rule="evenodd" clip-rule="evenodd" d="M10.7264 12.4987C11.146 12.9902 11.6784 13.25 12.3115 13.25C12.4623 13.25 12.6027 13.2945 12.7203 13.3711C13.0679 12.9894 13.25 12.53 13.25 12C13.25 11.7694 13.3541 11.5631 13.5178 11.4255C13.1091 10.9831 12.5997 10.75 12 10.75C11.8564 10.75 11.7223 10.7097 11.6083 10.6397C11.0476 11.0717 10.75 11.634 10.75 12.3115C10.75 12.3762 10.7418 12.4389 10.7264 12.4987ZM9.83837 10.3528C9.72613 9.6583 9.71808 8.88892 9.82911 8.1052C10.2245 5.31415 12.0274 2.75 15.3115 2.75C15.7257 2.75 16.0615 2.41421 16.0615 2C16.0615 1.58579 15.7257 1.25 15.3115 1.25C10.9957 1.25 8.79854 4.68585 8.34394 7.8948C8.11552 9.50716 8.30132 11.1645 8.92762 12.4529C9.3338 13.2885 9.9443 13.9944 10.7532 14.395C9.96022 14.5776 9.04298 14.6153 8.1052 14.4824C5.31415 14.087 2.75 12.2842 2.75 9C2.75 8.58579 2.41421 8.25 2 8.25C1.58579 8.25 1.25 8.58579 1.25 9C1.25 13.3158 4.68585 15.513 7.8948 15.9676C9.50716 16.196 11.1645 16.0102 12.4529 15.3839C13.3211 14.9619 14.0493 14.3192 14.4405 13.4626C14.583 14.2041 14.6034 15.041 14.4824 15.8948C14.087 18.6858 12.2842 21.25 9 21.25C8.58579 21.25 8.25 21.5858 8.25 22C8.25 22.4142 8.58579 22.75 9 22.75C13.3158 22.75 15.513 19.3142 15.9676 16.1052C16.196 14.4928 16.0102 12.8355 15.3839 11.5471C15.0377 10.835 14.5432 10.2171 13.9039 9.80205C14.5291 9.72593 15.2064 9.73159 15.8948 9.82911C18.6858 10.2245 21.25 12.0274 21.25 15.3115C21.25 15.7257 21.5858 16.0615 22 16.0615C22.4142 16.0615 22.75 15.7257 22.75 15.3115C22.75 10.9957 19.3142 8.79854 16.1052 8.34394C14.4928 8.11552 12.8355 8.30132 11.5471 8.92762C10.8555 9.26381 10.2527 9.73999 9.83837 10.3528Z" fill="#1C274C"/>
</svg>
