<svg width="24" height="24" viewBox="0 0 24 24" fill="none" xmlns="http://www.w3.org/2000/svg">
<path fill-rule="evenodd" clip-rule="evenodd" d="M6.97735 1.32685C7.31457 1.56738 7.39295 2.03575 7.15241 2.37296L6.76634 2.91421C7.39216 3.38848 7.53087 4.27773 7.07189 4.9212L6.66127 5.49687C6.42073 5.83409 5.95237 5.91246 5.61515 5.67193C5.27794 5.43139 5.19956 4.96303 5.44009 4.62581L5.82616 4.08456C5.20034 3.6103 5.06164 2.72105 5.52062 2.07758L5.93124 1.50191C6.17177 1.16469 6.64013 1.08631 6.97735 1.32685ZM10.9774 1.32685C11.3146 1.56738 11.3929 2.03575 11.1524 2.37296L10.7663 2.91421C11.3922 3.38848 11.5309 4.27773 11.0719 4.9212L10.6613 5.49687C10.4207 5.83409 9.95237 5.91246 9.61515 5.67193C9.27794 5.43139 9.19956 4.96303 9.44009 4.62581L9.82616 4.08456C9.20034 3.6103 9.06164 2.72105 9.52062 2.07758L9.93124 1.50191C10.1718 1.16469 10.6401 1.08631 10.9774 1.32685ZM14.9774 1.32685C15.3146 1.56738 15.3929 2.03575 15.1524 2.37296L14.7663 2.91421C15.3922 3.38848 15.5309 4.27773 15.0719 4.9212L14.6613 5.49687C14.4207 5.83409 13.9524 5.91246 13.6152 5.67193C13.2779 5.43139 13.1996 4.96303 13.4401 4.62581L13.8262 4.08456C13.2003 3.6103 13.0616 2.72104 13.5206 2.07758L13.9312 1.50191C14.1718 1.16469 14.6401 1.08631 14.9774 1.32685ZM7.2215 6.25003H12.7785C13.7343 6.25 14.5286 6.24997 15.155 6.33625C15.8146 6.4271 16.4084 6.62741 16.8704 7.12127C17.1803 7.45255 17.3545 7.83418 17.4497 8.25003H18C20.6233 8.25003 22.75 10.3767 22.75 13C22.75 15.6234 20.6233 17.75 18 17.75H17.0305C17.0207 17.8757 17.0105 17.9983 17 18.1179V18.75H16.9362C16.8989 19.0697 16.8554 19.3639 16.8017 19.6336C16.6333 20.4789 16.3469 21.185 15.7553 21.7385C15.1637 22.2919 14.4401 22.5307 13.5855 22.6425C12.7634 22.7501 11.725 22.75 10.4394 22.75H9.56057C8.27499 22.75 7.23654 22.7501 6.41451 22.6425C5.55985 22.5307 4.83631 22.2919 4.24471 21.7385C3.65312 21.185 3.3667 20.4789 3.1983 19.6336C3.03633 18.8205 2.96727 17.7844 2.88177 16.5017L2.53246 11.2621C2.46886 10.3084 2.41599 9.5158 2.46041 8.8851C2.50719 8.2209 2.66756 7.61513 3.12959 7.12127C3.59162 6.62741 4.18539 6.4271 4.845 6.33625C5.47135 6.24997 6.26573 6.25 7.2215 6.25003ZM17.135 16.25H18C19.7949 16.25 21.25 14.795 21.25 13C21.25 11.2051 19.7949 9.75003 18 9.75003H17.5509C17.5385 10.1985 17.5048 10.7026 17.4675 11.2621L17.135 16.25ZM15.5635 17.25H4.4365C4.41652 16.9717 4.39647 16.6722 4.37494 16.3493L4.03274 11.2162C3.96464 10.1947 3.9204 9.50594 3.9567 8.99048C3.99148 8.49666 4.09419 8.28582 4.22496 8.14605C4.35572 8.00627 4.55927 7.88977 5.04968 7.82222C5.56158 7.7517 6.25179 7.75003 7.27554 7.75003H12.7244C13.7482 7.75003 14.4384 7.7517 14.9503 7.82222C15.4407 7.88977 15.6443 8.00627 15.775 8.14605C15.9058 8.28582 16.0085 8.49666 16.0433 8.99048C16.0796 9.50594 16.0353 10.1947 15.9672 11.2162L15.625 16.3493C15.6035 16.6722 15.5835 16.9717 15.5635 17.25ZM4.57477 18.75H15.4252C15.3975 18.9641 15.3666 19.1599 15.3306 19.3405C15.1942 20.025 15.0039 20.3873 14.7305 20.6431C14.4571 20.8989 14.0829 21.0647 13.3909 21.1552C12.6775 21.2485 11.7375 21.25 10.3867 21.25H9.61331C8.26247 21.25 7.32246 21.2485 6.60906 21.1552C5.91706 21.0647 5.5429 20.8989 5.26949 20.6431C4.99607 20.3873 4.80574 20.025 4.66939 19.3405C4.63341 19.1599 4.60244 18.9641 4.57477 18.75Z" fill="#1C274C"/>
</svg>
