<svg xmlns="http://www.w3.org/2000/svg" fill="none" viewBox="0 0 24 24" width="1em" height="1em"><path stroke="currentColor" stroke-width="1.5" d="M1.535 10.972c.073-1.21.11-1.814.424-2.395a3.2 3.2 0 0 1 1.38-1.3C3.94 7 4.627 7 6 7c.512 0 .768 0 1.016-.042a3 3 0 0 0 .712-.213c.23-.102.444-.243.871-.525l.22-.144c2.542-1.677 3.814-2.515 4.881-2.15.205.069.403.17.58.294.922.649.993 2.157 1.133 5.175.052 1.117.087 2.073.087 2.605s-.035 1.488-.087 2.605c-.14 3.018-.21 4.526-1.133 5.175a2.3 2.3 0 0 1-.58.295c-1.067.364-2.339-.474-4.882-2.15L8.6 17.78c-.427-.282-.64-.423-.871-.525a3 3 0 0 0-.712-.213C6.768 17 6.512 17 6 17c-1.374 0-2.06 0-2.66-.277a3.2 3.2 0 0 1-1.381-1.3c-.314-.581-.35-1.186-.424-2.395A17 17 0 0 1 1.5 12c0-.322.013-.67.035-1.028Z"/><path stroke="currentColor" stroke-linecap="round" stroke-width="1.5" d="m22 10-4 4m0-4 4 4"/></svg>