<svg xmlns="http://www.w3.org/2000/svg" fill="none" viewBox="0 0 24 24" width="1em" height="1em"><path fill="currentColor" d="M10.107 16.773a1 1 0 0 1-.707-.293l-3.773-3.773a1.006 1.006 0 0 1 0-1.414 1.006 1.006 0 0 1 1.413 0l3.067 3.067 6.853-6.853a1.006 1.006 0 0 1 1.413 0 1.006 1.006 0 0 1 0 1.413l-7.56 7.56a1 1 0 0 1-.707.293" opacity=".5"/><path fill="currentColor" d="M9.4 16.48a1 1 0 0 0 1.413 0l7.56-7.56a1.006 1.006 0 0 0 0-1.413 1.006 1.006 0 0 0-1.413 0l-6.853 6.853-1.414 1.413z"/></svg>