<svg width="24" height="24" viewBox="0 0 24 24" fill="none" xmlns="http://www.w3.org/2000/svg">
<path fill-rule="evenodd" clip-rule="evenodd" d="M8.30094 3.25H15.6991C16.5975 3.24997 17.3468 3.24995 17.9415 3.32991C18.5693 3.41432 19.1361 3.59999 19.5916 4.05546C20.0471 4.51093 20.2327 5.07773 20.3172 5.70552C20.3971 6.30031 20.3971 7.04953 20.3971 7.94801V15.232L21.9097 16.7932L21.9135 16.7969L21.9206 16.804L21.9284 16.812L21.934 16.8177L21.9439 16.8281L21.9545 16.8394L21.9588 16.844L21.9669 16.8529L21.9758 16.8631L21.984 16.8728C21.9866 16.876 21.9909 16.8812 21.9961 16.8878C22.3675 17.3187 22.6991 17.962 22.7445 18.6051L22.7449 18.6089C22.746 18.6193 22.7467 18.6277 22.7471 18.6325L22.7479 18.6452L22.7486 18.6586L22.749 18.6706L22.7492 18.6769L22.7494 18.6925L22.7495 18.7067L22.7495 18.7148L22.7494 18.7259L22.7493 18.7359L22.7491 18.7407C22.7491 18.7512 22.7491 18.7624 22.7492 18.7739C22.7493 18.9047 22.7496 19.0929 22.7445 19.1734C22.6572 20.5556 21.5556 21.6572 20.1734 21.7445C20.0862 21.75 19.989 21.75 19.8628 21.75H4.13717C4.011 21.75 3.91382 21.75 3.82659 21.7445C2.44439 21.6572 1.34281 20.5556 1.25548 19.1734C1.25042 19.0935 1.25072 18.9069 1.25093 18.7764C1.25095 18.7639 1.25097 18.752 1.25098 18.7406L1.25084 18.7359L1.25066 18.7259L1.25058 18.7148L1.25059 18.7067L1.25068 18.6925L1.25091 18.6769L1.25106 18.6706L1.25148 18.6586L1.25217 18.6452L1.25303 18.6325C1.2534 18.6277 1.25409 18.6193 1.25522 18.6089L1.25563 18.6051C1.30094 17.9621 1.63242 17.3187 2.00395 16.8878C2.00916 16.8811 2.01345 16.8759 2.01608 16.8728L2.02428 16.8631L2.03315 16.8529L2.0412 16.844L2.04547 16.8394L2.05612 16.8281L2.06598 16.8177L2.07157 16.812L2.07938 16.804L2.08649 16.797L2.09031 16.7932L3.60294 15.232L3.60294 7.94801C3.60291 7.04953 3.60289 6.30031 3.68286 5.70552C3.76726 5.07773 3.95293 4.51093 4.4084 4.05546C4.86387 3.59999 5.43067 3.41432 6.05847 3.32991C6.65325 3.24995 7.40247 3.24997 8.30094 3.25ZM4.67058 16.2857L3.15647 17.8485C2.92862 18.1025 2.76251 18.4752 2.751 18.7263C2.75099 18.748 2.75097 18.7699 2.75095 18.7919C2.75089 18.8452 2.75083 18.899 2.751 18.9492C2.75112 18.9864 2.75135 19.0186 2.75175 19.0443C2.75206 19.0641 2.75239 19.0746 2.75251 19.0782C2.7922 19.7064 3.29291 20.2078 3.92118 20.2475C3.9546 20.2496 4.00003 20.25 4.16069 20.25H19.8393C20 20.25 20.0454 20.2496 20.0788 20.2475C20.7071 20.2078 21.2078 19.7071 21.2475 19.0788C21.2473 19.0824 21.2478 19.0735 21.2483 19.0441C21.2487 19.0184 21.2489 18.9861 21.2491 18.949C21.2492 18.8974 21.2492 18.8418 21.2491 18.787C21.2491 18.7666 21.2491 18.7463 21.2491 18.7263C21.2376 18.4753 21.0714 18.1025 20.8435 17.8485L19.3294 16.2857H4.67058ZM18.8971 14.7857V8C18.8971 7.03599 18.8955 6.38843 18.8305 5.90539C18.7685 5.44393 18.6613 5.24644 18.5309 5.11612C18.4006 4.9858 18.2031 4.87858 17.7417 4.81654C17.2586 4.7516 16.6111 4.75 15.6471 4.75H8.35294C7.38893 4.75 6.74137 4.7516 6.25834 4.81654C5.79688 4.87858 5.59938 4.9858 5.46906 5.11612C5.33874 5.24644 5.23152 5.44393 5.16948 5.90539C5.10454 6.38843 5.10294 7.03599 5.10294 8V14.7857H18.8971ZM21.6697 18.0238C21.6773 18.0214 21.6845 18.019 21.6914 18.0165C21.6942 18.0149 21.697 18.0133 21.6999 18.0116C21.6899 18.0158 21.6798 18.0199 21.6697 18.0238ZM21.7163 18.0259C21.7222 18.0229 21.728 18.0201 21.7337 18.0175C21.7362 18.0167 21.7389 18.016 21.7416 18.0153C21.7331 18.0188 21.7246 18.0223 21.7163 18.0259ZM2.28407 18.0259C2.27824 18.023 2.27254 18.0202 2.26702 18.0177C2.26451 18.017 2.26193 18.0163 2.2593 18.0156C2.2676 18.019 2.27586 18.0224 2.28407 18.0259ZM2.33097 18.024C2.3206 18.02 2.31024 18.0158 2.2999 18.0115C2.30288 18.0132 2.30582 18.0149 2.30871 18.0165C2.31575 18.0191 2.32319 18.0216 2.33097 18.024ZM8.75 18.5C8.75 18.0858 9.08579 17.75 9.5 17.75H14.5C14.9142 17.75 15.25 18.0858 15.25 18.5C15.25 18.9142 14.9142 19.25 14.5 19.25H9.5C9.08579 19.25 8.75 18.9142 8.75 18.5Z" fill="#1C274C"/>
<path d="M12.75 6.75C12.75 7.16422 12.4142 7.5 12 7.5C11.5858 7.5 11.25 7.16422 11.25 6.75C11.25 6.33579 11.5858 6 12 6C12.4142 6 12.75 6.33579 12.75 6.75Z" fill="#1C274C"/>
</svg>
