<svg width="24" height="24" viewBox="0 0 24 24" fill="none" xmlns="http://www.w3.org/2000/svg">
<path opacity="0.5" d="M3.46447 3.46447C2 4.92893 2 7.28595 2 12C2 16.714 2 19.0711 3.46447 20.5355C4.92893 22 7.28595 22 12 22C16.714 22 19.0711 22 20.5355 20.5355C22 19.0711 22 16.714 22 12C22 7.28595 22 4.92893 20.5355 3.46447C19.0711 2 16.714 2 12 2C7.28595 2 4.92893 2 3.46447 3.46447Z" fill="#1C274C"/>
<path fill-rule="evenodd" clip-rule="evenodd" d="M11.25 7.49994V6.80311V5.29114C7.87504 5.66422 5.25 8.52553 5.25 11.9999C5.25 15.4744 7.87504 18.3357 11.25 18.7087V17.1968V16.4999C11.25 16.0857 11.5858 15.7499 12 15.7499C12.4142 15.7499 12.75 16.0857 12.75 16.4999V17.1968V18.7087C16.125 18.3357 18.75 15.4744 18.75 11.9999C18.75 8.52553 16.125 5.66422 12.75 5.29114V6.80311V7.49994C12.75 7.91415 12.4142 8.24994 12 8.24994C11.5858 8.24994 11.25 7.91415 11.25 7.49994ZM15 11.9999C15 12.5522 14.5523 12.9999 14 12.9999C13.4477 12.9999 13 12.5522 13 11.9999C13 11.4477 13.4477 10.9999 14 10.9999C14.5523 10.9999 15 11.4477 15 11.9999ZM10 12.9999C10.5523 12.9999 11 12.5522 11 11.9999C11 11.4477 10.5523 10.9999 10 10.9999C9.44772 10.9999 9 11.4477 9 11.9999C9 12.5522 9.44772 12.9999 10 12.9999Z" fill="#1C274C"/>
</svg>
