<svg xmlns="http://www.w3.org/2000/svg" fill="none" viewBox="0 0 24 24" width="1em" height="1em"><path stroke="currentColor" stroke-linecap="round" stroke-width="1.5" d="M11 21h-1c-3.771 0-5.657 0-6.828-1.172S2 16.771 2 13v-2c0-3.771 0-5.657 1.172-6.828S6.229 3 10 3h4c3.771 0 5.657 0 6.828 1.172S22 7.229 22 11"/><path stroke="currentColor" stroke-width="1.5" d="M13 17c0-1.886 0-2.828.586-3.414S15.114 13 17 13h1c1.886 0 2.828 0 3.414.586S22 15.114 22 17s0 2.828-.586 3.414S19.886 21 18 21h-1c-1.886 0-2.828 0-3.414-.586S13 18.886 13 17Z"/><path stroke="currentColor" stroke-linecap="round" stroke-linejoin="round" stroke-width="1.5" d="M7.5 7.5v3m0-3h3m-3 0 4 4"/></svg>