<svg width="24" height="24" viewBox="0 0 24 24" fill="none" xmlns="http://www.w3.org/2000/svg">
<path fill-rule="evenodd" clip-rule="evenodd" d="M11.5195 1.86789C10.9156 1.46755 10.3263 1.35177 9.67724 1.45577C9.1236 1.54449 8.52424 1.79806 7.88107 2.07016L7.81371 2.09865C7.19223 2.36141 6.59398 2.68331 6.02762 3.06174C4.2598 4.24297 2.88194 5.92188 2.0683 7.88619C1.25466 9.8505 1.04177 12.012 1.45656 14.0973C1.87135 16.1826 2.89519 18.098 4.39861 19.6014C5.90202 21.1048 7.81749 22.1287 9.90278 22.5435C11.9881 22.9583 14.1495 22.7454 16.1138 21.9317C18.0782 21.1181 19.7571 19.7402 20.9383 17.9724C21.3167 17.4061 21.6386 16.8078 21.9014 16.1863L21.9299 16.119C22.202 15.4758 22.4555 14.8764 22.5443 14.3228C22.6483 13.6738 22.5325 13.0845 22.1322 12.4806C21.7022 11.832 21.1171 11.5184 20.4065 11.3764C19.7731 11.2499 18.9813 11.2499 18.0711 11.25L16 11.25C15.036 11.25 14.3884 11.2484 13.9054 11.1835C13.4439 11.1215 13.2464 11.0142 13.1161 10.8839C12.9858 10.7536 12.8786 10.5561 12.8165 10.0946C12.7516 9.61161 12.75 8.96405 12.75 8.00004L12.75 5.92895C12.7501 5.01872 12.7502 4.22695 12.6236 3.59358C12.4816 2.88299 12.168 2.2978 11.5195 1.86789ZM8.39784 3.48024C9.13201 3.16984 9.56231 2.99332 9.91457 2.93688C10.1907 2.89262 10.3996 2.92519 10.6907 3.11812C10.9371 3.28147 11.0709 3.47855 11.1527 3.88753C11.2466 4.3573 11.25 4.99766 11.25 6.00004L11.25 8.05203C11.25 8.9505 11.2499 9.69974 11.3299 10.2945C11.4143 10.9223 11.6 11.4891 12.0555 11.9446C12.5109 12.4001 13.0777 12.5857 13.7055 12.6701C14.3003 12.7501 15.0495 12.7501 15.948 12.75L18 12.75C19.0024 12.75 19.6427 12.7535 20.1125 12.8474C20.5215 12.9291 20.7186 13.063 20.8819 13.3094C21.0748 13.6004 21.1074 13.8093 21.0632 14.0855C21.0067 14.4377 20.8302 14.868 20.5198 15.6022C20.2937 16.137 20.0167 16.6517 19.6911 17.1391C18.6747 18.6602 17.23 19.8458 15.5398 20.5459C13.8496 21.246 11.9897 21.4292 10.1954 21.0723C8.40109 20.7154 6.7529 19.8344 5.45927 18.5408C4.16563 17.2471 3.28465 15.5989 2.92774 13.8046C2.57083 12.0103 2.75401 10.1504 3.45412 8.46022C4.15423 6.77 5.33982 5.32535 6.86098 4.30895C7.34832 3.98331 7.86308 3.70633 8.39784 3.48024Z" fill="#1C274C"/>
<path d="M14.6869 1.58853C14.2858 1.48529 13.8769 1.72678 13.7737 2.12792C13.6704 2.52906 13.9119 2.93794 14.3131 3.04119C17.5624 3.87752 20.1223 6.43737 20.9586 9.68676C21.0619 10.0879 21.4708 10.3294 21.8719 10.2261C22.273 10.1229 22.5145 9.71401 22.4113 9.31287C21.4387 5.53423 18.4656 2.56109 14.6869 1.58853Z" fill="#1C274C"/>
</svg>
