<svg width="24" height="24" viewBox="0 0 24 24" fill="none" xmlns="http://www.w3.org/2000/svg">
<path fill-rule="evenodd" clip-rule="evenodd" d="M4.58143 6.01062C5.2722 4.99494 6.71504 5.03283 7.44335 5.90962C8.42532 7.09179 9.80968 8.25007 11.9999 8.25007C14.2277 8.25007 15.5908 7.32019 16.5185 6.15395C17.2399 5.24698 18.7773 5.10127 19.5335 6.17717C20.1519 7.05715 20.8279 7.75807 22.1622 8.05377C22.5666 8.14339 22.8218 8.54388 22.7322 8.94828C22.6425 9.35268 22.242 9.60786 21.8376 9.51824C19.9966 9.11026 19.039 8.08238 18.3062 7.03964C18.2576 6.97048 18.1707 6.91941 18.0397 6.92175C17.9037 6.92418 17.7729 6.98646 17.6924 7.0877C16.5171 8.56531 14.741 9.75007 11.9999 9.75007C9.17705 9.75007 7.41063 8.21777 6.2895 6.86807C6.22425 6.78952 6.12726 6.74814 6.0286 6.75014C5.93325 6.75206 5.86388 6.79224 5.82176 6.85417C5.07558 7.95131 4.11832 9.08474 2.16219 9.51824C1.75778 9.60786 1.3573 9.35268 1.26768 8.94828C1.17806 8.54388 1.43324 8.14339 1.83765 8.05377C3.24956 7.74088 3.92582 6.9746 4.58143 6.01062ZM4.58143 16.0106C5.2722 14.9949 6.71504 15.0328 7.44335 15.9096C8.42532 17.0918 9.80968 18.2501 11.9999 18.2501C14.2277 18.2501 15.5908 17.3202 16.5185 16.1539C17.2399 15.247 18.7773 15.1013 19.5335 16.1772C20.1519 17.0572 20.8279 17.7581 22.1622 18.0538C22.5666 18.1434 22.8218 18.5439 22.7322 18.9483C22.6425 19.3527 22.242 19.6079 21.8376 19.5182C19.9966 19.1103 19.039 18.0824 18.3062 17.0396C18.2576 16.9705 18.1707 16.9194 18.0397 16.9217C17.9037 16.9242 17.7729 16.9865 17.6924 17.0877C16.5171 18.5653 14.741 19.7501 11.9999 19.7501C9.17705 19.7501 7.41063 18.2178 6.2895 16.8681C6.22425 16.7895 6.12726 16.7481 6.0286 16.7501C5.93325 16.7521 5.86388 16.7922 5.82176 16.8542C5.07558 17.9513 4.11832 19.0847 2.16219 19.5182C1.75778 19.6079 1.3573 19.3527 1.26768 18.9483C1.17806 18.5439 1.43324 18.1434 1.83765 18.0538C3.24956 17.7409 3.92582 16.9746 4.58143 16.0106Z" fill="#1C274C"/>
<path opacity="0.5" d="M4.58167 11.0104C5.27244 9.99469 6.71529 10.0326 7.44359 10.9094C8.42557 12.0915 9.80993 13.2498 12.0002 13.2498C14.2279 13.2498 15.5911 12.3199 16.5187 11.1537C17.2401 10.2467 18.7776 10.101 19.5337 11.1769C20.1521 12.0569 20.8281 12.7578 22.1624 13.0535C22.5668 13.1431 22.822 13.5436 22.7324 13.948C22.6428 14.3524 22.2423 14.6076 21.8379 14.518C19.9969 14.11 19.0392 13.0821 18.3064 12.0394C18.2578 11.9702 18.171 11.9192 18.04 11.9215C17.904 11.9239 17.7732 11.9862 17.6927 12.0875C16.5174 13.5651 14.7413 14.7498 12.0002 14.7498C9.1773 14.7498 7.41088 13.2175 6.28974 11.8678C6.2245 11.7893 6.1275 11.7479 6.02885 11.7499C5.93349 11.7518 5.86412 11.792 5.822 11.8539C5.07583 12.9511 4.11857 14.0845 2.16243 14.518C1.75803 14.6076 1.35754 14.3524 1.26793 13.948C1.17831 13.5436 1.43349 13.1431 1.83789 13.0535C3.2498 12.7406 3.92606 11.9744 4.58167 11.0104Z" fill="#1C274C"/>
</svg>
