<svg width="24" height="24" viewBox="0 0 24 24" fill="none" xmlns="http://www.w3.org/2000/svg">
<path fill-rule="evenodd" clip-rule="evenodd" d="M4.58143 6.01062C5.2722 4.99494 6.71504 5.03283 7.44335 5.90962C8.42532 7.09179 9.80968 8.25007 11.9999 8.25007C14.2277 8.25007 15.5908 7.32019 16.5185 6.15395C17.2399 5.24698 18.7773 5.10127 19.5335 6.17717C20.1519 7.05715 20.8279 7.75807 22.1622 8.05377C22.5666 8.14339 22.8218 8.54388 22.7322 8.94828C22.6425 9.35268 22.242 9.60786 21.8376 9.51824C19.9966 9.11026 19.039 8.08238 18.3062 7.03964C18.2576 6.97048 18.1707 6.91941 18.0397 6.92175C17.9037 6.92418 17.7729 6.98646 17.6924 7.0877C16.5171 8.56531 14.741 9.75007 11.9999 9.75007C9.17705 9.75007 7.41063 8.21777 6.2895 6.86807L6.86642 6.38884L6.2895 6.86807C6.22425 6.78952 6.12726 6.74814 6.0286 6.75014C5.93325 6.75206 5.86388 6.79224 5.82176 6.85417C5.07558 7.95131 4.11832 9.08474 2.16219 9.51824C1.75778 9.60786 1.3573 9.35268 1.26768 8.94828C1.17806 8.54388 1.43324 8.14339 1.83765 8.05377C3.24956 7.74088 3.92582 6.9746 4.58143 6.01062ZM4.58143 11.0106C5.2722 9.99494 6.71504 10.0328 7.44335 10.9096C8.42532 12.0918 9.80968 13.2501 11.9999 13.2501C14.2277 13.2501 15.5908 12.3202 16.5185 11.154C17.2399 10.247 18.7773 10.1013 19.5335 11.1772C20.1519 12.0572 20.8279 12.7581 22.1622 13.0538C22.5666 13.1434 22.8218 13.5439 22.7322 13.9483C22.6425 14.3527 22.242 14.6079 21.8376 14.5182C19.9966 14.1103 19.039 13.0824 18.3062 12.0396C18.2576 11.9705 18.1707 11.9194 18.0397 11.9217C17.9037 11.9242 17.7729 11.9865 17.6924 12.0877C16.5171 13.5653 14.741 14.7501 11.9999 14.7501C9.17705 14.7501 7.41063 13.2178 6.2895 11.8681C6.22425 11.7895 6.12726 11.7481 6.0286 11.7501C5.93325 11.7521 5.86388 11.7922 5.82176 11.8542C5.07558 12.9513 4.11832 14.0847 2.16219 14.5182C1.75778 14.6079 1.3573 14.3527 1.26768 13.9483C1.17806 13.5439 1.43324 13.1434 1.83765 13.0538C3.24956 12.7409 3.92582 11.9746 4.58143 11.0106ZM4.58143 16.0106C5.2722 14.9949 6.71504 15.0328 7.44335 15.9096C8.42532 17.0918 9.80968 18.2501 11.9999 18.2501C14.2277 18.2501 15.5908 17.3202 16.5185 16.1539C17.2399 15.247 18.7773 15.1013 19.5335 16.1772C20.1519 17.0572 20.8279 17.7581 22.1622 18.0538C22.5666 18.1434 22.8218 18.5439 22.7322 18.9483C22.6425 19.3527 22.242 19.6079 21.8376 19.5182C19.9966 19.1103 19.039 18.0824 18.3062 17.0396C18.2576 16.9705 18.1707 16.9194 18.0397 16.9217C17.9037 16.9242 17.7729 16.9865 17.6924 17.0877C16.5171 18.5653 14.741 19.7501 11.9999 19.7501C9.17705 19.7501 7.41063 18.2178 6.2895 16.8681C6.22425 16.7895 6.12726 16.7481 6.0286 16.7501C5.93325 16.7521 5.86388 16.7922 5.82176 16.8542C5.07558 17.9513 4.11832 19.0847 2.16219 19.5182C1.75778 19.6079 1.3573 19.3527 1.26768 18.9483C1.17806 18.5439 1.43324 18.1434 1.83765 18.0538C3.24956 17.7409 3.92582 16.9746 4.58143 16.0106Z" fill="#1C274C"/>
</svg>
