<svg xmlns="http://www.w3.org/2000/svg" fill="none" viewBox="0 0 24 24" width="1em" height="1em"><path stroke="currentColor" stroke-width="1.5" d="M17 8V6c0-1.886 0-2.828-.586-3.414S14.886 2 13 2h-2c-1.886 0-2.828 0-3.414.586S7 4.114 7 6v2" opacity=".5"/><path stroke="currentColor" stroke-width="1.5" d="M10.564 5.783a3 3 0 0 1 2.872 0l4.794 2.614a3 3 0 0 1 1.564 2.634v4.938a3 3 0 0 1-1.564 2.634l-4.794 2.614a3 3 0 0 1-2.872 0L5.77 18.603a3 3 0 0 1-1.564-2.634V11.03A3 3 0 0 1 5.77 8.397z"/><path stroke="currentColor" stroke-width="1.5" d="M11.146 11.523c.38-.682.57-1.023.854-1.023s.474.341.854 1.023l.098.176c.108.194.162.29.246.354.085.064.19.088.4.136l.19.043c.738.167 1.107.25 1.195.533.088.282-.164.576-.667 1.164l-.13.152c-.143.168-.215.251-.247.354-.032.104-.021.215 0 .438l.02.204c.076.784.114 1.177-.115 1.351-.23.175-.576.016-1.267-.303l-.178-.082c-.197-.09-.295-.135-.399-.135s-.202.045-.399.135l-.178.082c-.691.319-1.037.478-1.267.303-.23-.174-.191-.567-.115-1.352l.02-.203c.021-.223.032-.334 0-.437-.032-.104-.104-.187-.247-.355l-.13-.152c-.503-.588-.755-.882-.667-1.165.088-.282.457-.365 1.195-.532l.19-.043c.21-.048.315-.072.4-.136.084-.063.138-.16.246-.354z" opacity=".5"/></svg>