<svg xmlns="http://www.w3.org/2000/svg" fill="none" viewBox="0 0 24 24" width="1em" height="1em"><path fill="currentColor" fill-rule="evenodd" d="M10.948 1.25h2.104c.899 0 1.648 0 2.242.08.628.084 1.195.27 1.65.725.456.456.642 1.023.726 1.65.08.595.08 1.345.08 2.243v1.333l.84.458a3.75 3.75 0 0 1 1.954 3.292v4.938a3.75 3.75 0 0 1-1.954 3.292l-4.795 2.614a3.75 3.75 0 0 1-3.59 0L5.41 19.261a3.75 3.75 0 0 1-1.955-3.292V11.03A3.75 3.75 0 0 1 5.41 7.74l.839-.458V5.948c0-.898 0-1.648.08-2.242.084-.628.27-1.195.726-1.65.455-.456 1.022-.642 1.65-.726.594-.08 1.344-.08 2.242-.08M7.75 6.463l2.455-1.338a3.75 3.75 0 0 1 3.59 0l2.455 1.338V6c0-.964-.002-1.612-.067-2.095-.061-.461-.169-.659-.3-.789s-.327-.237-.788-.3c-.483-.064-1.13-.066-2.095-.066h-2c-.964 0-1.612.002-2.095.067-.461.062-.659.169-.789.3s-.237.327-.3.788C7.753 4.388 7.75 5.036 7.75 6zm5.327-.021a2.25 2.25 0 0 0-2.154 0L6.129 9.056a2.25 2.25 0 0 0-1.173 1.975v4.938c0 .823.45 1.581 1.173 1.975l4.794 2.614a2.25 2.25 0 0 0 2.154 0l4.794-2.614a2.25 2.25 0 0 0 1.173-1.975V11.03a2.25 2.25 0 0 0-1.173-1.975zM12 11.535q-.086.149-.199.353l-.098.176-.023.04c-.078.144-.208.382-.425.547-.221.168-.488.226-.643.26l-.044.01-.19.042c-.176.04-.319.072-.44.103.079.098.182.219.316.376l.13.152q.015.015.03.035c.108.124.282.325.363.584.08.256.052.52.035.686l-.005.047-.02.203a25 25 0 0 0-.042.46c.105-.045.223-.1.364-.165l.179-.082.04-.019c.144-.068.393-.185.672-.185s.528.117.672.185l.04.019.179.082q.209.098.364.165a25 25 0 0 0-.042-.46l-.02-.203-.005-.047c-.017-.166-.045-.43.035-.686.08-.26.255-.46.363-.584l.03-.035.13-.152c.134-.157.237-.278.316-.376-.121-.03-.264-.063-.44-.103l-.19-.043-.043-.01c-.156-.033-.423-.091-.644-.26-.217-.164-.347-.402-.425-.545l-.023-.04-.098-.177q-.112-.204-.199-.353m-.986-1.235c.172-.225.484-.55.986-.55s.814.325.986.55c.165.214.33.511.5.816l.023.042.098.176.057.1.099.023.19.043.048.01c.327.075.653.149.903.247.276.109.65.32.795.785.142.456-.037.841-.193 1.09-.145.23-.365.486-.59.749l-.03.036-.13.152-.082.097.012.135.02.203.004.046c.034.352.067.693.055.965-.012.285-.08.717-.468 1.01-.4.304-.84.238-1.12.158-.258-.074-.562-.215-.87-.356l-.043-.02-.18-.082-.084-.04-.085.04-.179.082-.044.02c-.306.141-.61.282-.869.356-.28.08-.72.146-1.12-.157-.387-.294-.456-.726-.468-1.011-.012-.272.02-.613.055-.964l.004-.047.02-.203.013-.135-.083-.097-.13-.152-.03-.036c-.225-.263-.445-.52-.59-.75-.156-.248-.335-.633-.193-1.09.144-.463.519-.675.795-.784.25-.098.576-.172.903-.246l.047-.01.191-.044.1-.023.056-.1.098-.176.023-.042c.17-.305.335-.602.5-.816" clip-rule="evenodd"/></svg>