<svg xmlns="http://www.w3.org/2000/svg" fill="none" viewBox="0 0 24 24" width="1em" height="1em"><path fill="currentColor" d="M11.157 20.313a9.157 9.157 0 1 0 0-18.313 9.157 9.157 0 0 0 0 18.313" opacity=".5"/><path fill="currentColor" fill-rule="evenodd" d="M11.157 8.024c.399 0 .722.324.722.723v1.687h1.687a.723.723 0 1 1 0 1.446H11.88v1.687a.723.723 0 1 1-1.445 0V11.88H8.747a.723.723 0 1 1 0-1.446h1.687V8.747c0-.399.323-.723.723-.723m7.682 10.815a.723.723 0 0 1 1.022 0l1.928 1.927a.723.723 0 0 1-1.023 1.023L18.84 19.86a.723.723 0 0 1 0-1.022" clip-rule="evenodd"/></svg>