<svg xmlns="http://www.w3.org/2000/svg" fill="none" viewBox="0 0 24 24" width="1em" height="1em"><path fill="currentColor" d="M8 12.862h-.75zm0 .616h.75zM6.58 15.33l-.211-.72zm-2 .586-.211-.72zM2 14.065h.75zm0-1.923h.75zm.44-1.353-.577-.479zM12 7v.75zm9.37 2.856.5-.56zM16 13.25h-.75zm1.7 1.913-.108.742zm2 .293.11-.742zm2.3-1.913h-.75zm0-2.125h.75zm-10-.022v-.75zm-4.75 1.466v.616h1.5v-.616zm-.881 1.748-2 .586.422 1.44 2-.587zm-3.619-.545v-1.923h-1.5v1.923zm.268-2.797C3.902 10.2 6.513 7.75 12 7.75v-1.5c-6.01 0-9.021 2.714-10.137 4.06zM12 7.75c5.233 0 7.865 1.767 8.87 2.665l1-1.118C20.594 8.157 17.609 6.25 12 6.25zm3.25 5.112v.388h1.5v-.388zm2.342 3.043 2 .293.217-1.484-2-.293zm5.158-2.362v-2.125h-1.5v2.125zM16 12.862c.75 0 .75-.001.75-.002v-.015l-.004-.068a1.5 1.5 0 0 0-.126-.455 2.06 2.06 0 0 0-.677-.798c-.686-.502-1.874-.878-3.943-.878v1.5c1.93 0 2.743.358 3.057.588.149.11.19.192.198.21q.006.016.001-.002a.3.3 0 0 1-.006-.065v-.013c0-.001 0-.002.75-.002m-4-2.216c-2.07 0-3.257.375-3.943.878-.351.257-.56.54-.677.798a1.5 1.5 0 0 0-.126.455l-.004.068v.015s0 .002.75.002.75 0 .75.002v.002l-.002.047-.004.03q-.005.018.001 0a.6.6 0 0 1 .198-.209c.314-.23 1.126-.588 3.057-.588zm7.592 5.552c1.634.24 3.158-.985 3.158-2.655h-1.5c0 .698-.655 1.286-1.44 1.17zm1.279-5.783c.242.217.379.563.379 1.003h1.5c0-.733-.23-1.541-.88-2.121zM2.75 12.143c0-.368.093-.663.268-.874l-1.155-.958c-.457.553-.613 1.221-.613 1.832zm12.5 1.108c0 1.347 1.014 2.46 2.342 2.655l.217-1.484c-.628-.092-1.059-.605-1.059-1.17zM4.37 15.196c-.838.245-1.62-.368-1.62-1.131h-1.5c0 1.832 1.81 3.078 3.54 2.57zm2.88-1.718c0 .505-.343.974-.881 1.132l.422 1.44c1.149-.337 1.959-1.372 1.959-2.572z"/></svg>