<svg width="24" height="24" viewBox="0 0 24 24" fill="none" xmlns="http://www.w3.org/2000/svg">
<path d="M4 10C4 6.22876 4 4.34315 5.17157 3.17157C6.34315 2 8.22876 2 12 2C15.7712 2 17.6569 2 18.8284 3.17157C20 4.34315 20 6.22876 20 10V14C20 17.7712 20 19.6569 18.8284 20.8284C17.6569 22 15.7712 22 12 22C8.22876 22 6.34315 22 5.17157 20.8284C4 19.6569 4 17.7712 4 14V10Z" stroke="#1C274C" stroke-width="1.5"/>
<path opacity="0.5" d="M15 19H9" stroke="#1C274C" stroke-width="1.5" stroke-linecap="round"/>
<path opacity="0.5" d="M16.7482 2.37769L16.6641 2.50385C15.908 3.63794 15.53 4.205 14.9778 4.54811C14.8681 4.61634 14.754 4.6774 14.6363 4.73091C14.0445 5 13.363 5 12 5C10.637 5 9.95547 5 9.36371 4.73091C9.24604 4.6774 9.13195 4.61634 9.02216 4.54811C8.47 4.205 8.09197 3.63795 7.3359 2.50385L7.25179 2.37769" stroke="#1C274C" stroke-width="1.5" stroke-linecap="round"/>
</svg>
