<svg xmlns="http://www.w3.org/2000/svg" fill="none" viewBox="0 0 24 24" width="1em" height="1em"><path fill="currentColor" fill-rule="evenodd" d="M20.528 10.373c-.371-.642-1.05-.853-1.699-.943-.654-.092-1.528-.092-2.587-.092h-.06c-.63 0-1.042-.006-1.342-.048-.271-.037-.358-.093-.395-.126-.027-.028-.075-.094-.107-.33-.039-.28-.04-.663-.04-1.277v-.375c0-1.587 0-2.859-.123-3.766-.114-.85-.387-1.807-1.331-2.096-.928-.284-1.706.325-2.31.954-.645.67-1.41 1.705-2.368 3.001L5.029 9.52c-.61.826-1.12 1.515-1.423 2.084s-.525 1.248-.188 1.924l.002.002.003.007.004.008.004.008.005.008.004.008.004.008.005.008.004.006.001.003c.368.636 1.044.86 1.698.96.675.102 1.574.109 2.666.109.636 0 1.042.001 1.34.04.264.033.342.084.376.114.03.031.083.104.12.35.042.281.049.67.049 1.277v.374c0 1.588 0 2.86.122 3.767.114.85.387 1.806 1.331 2.096.928.284 1.706-.325 2.31-.954.645-.67 1.41-1.705 2.368-3.001l3.1-4.194c.63-.853 1.15-1.566 1.455-2.16.3-.58.508-1.262.174-1.931v-.003l-.004-.007-.004-.008-.004-.008-.005-.008-.004-.008-.004-.008-.005-.007-.004-.007zm-8.914-7.06c-.568.591-1.276 1.546-2.28 2.904l-3.06 4.143c-.658.89-1.098 1.489-1.343 1.948-.119.223-.163.364-.176.45-.008.052-.003.076.003.091.024.036.13.145.622.22.538.082 1.311.093 2.439.093h.046c.577 0 1.08 0 1.484.051.433.055.863.18 1.22.516l.006.006.005.005c.35.344.493.77.558 1.203.062.414.066.923.066 1.5v.31c0 1.667.001 2.836.108 3.63.053.396.125.628.194.757.051.097.08.104.09.105l.002.001c.01.004.047.017.161-.04.142-.072.345-.226.628-.52.568-.59 1.275-1.545 2.28-2.903l3.061-4.143c.654-.885 1.09-1.492 1.329-1.956.205-.397.182-.531.169-.567-.023-.033-.124-.135-.604-.202-.537-.075-1.305-.077-2.439-.077-.603 0-1.125-.003-1.549-.062-.436-.06-.868-.192-1.22-.524l-.007-.006-.005-.005c-.354-.347-.49-.773-.55-1.202-.054-.395-.054-.883-.054-1.434v-.358c0-1.667-.001-2.836-.108-3.63-.054-.396-.125-.628-.194-.757-.051-.097-.08-.104-.09-.105l-.002-.001c-.01-.004-.048-.017-.161.04-.142.072-.345.226-.628.52" clip-rule="evenodd"/></svg>