<svg xmlns="http://www.w3.org/2000/svg" fill="none" viewBox="0 0 24 24" width="1em" height="1em"><path stroke="currentColor" stroke-linecap="round" stroke-width="1.5" d="M14.381 9.027a5.8 5.8 0 0 1 1.905-.321c.654 0 1.283.109 1.87.309C20.392 9.78 22 11.88 22 14.353 22 17.472 19.442 20 16.286 20h-10C3.919 20 2 18.104 2 15.765s1.919-4.236 4.286-4.236q.427.001.83.08a4.3 4.3 0 0 1 1.55.633"/><path stroke="currentColor" stroke-linecap="round" stroke-width="1.5" d="M7.116 11.609a5.6 5.6 0 0 1-.354-1.962C6.762 6.528 9.32 4 12.476 4c2.94 0 5.361 2.194 5.68 5.015" opacity=".5"/></svg>