<svg xmlns="http://www.w3.org/2000/svg" fill="none" viewBox="0 0 24 24" width="1em" height="1em"><path fill="currentColor" fill-rule="evenodd" d="m11.91 2.774 1.833 1.302c.54.383 1.012.718 1.341 1.033.351.336.666.765.666 1.35s-.315 1.014-.666 1.35c-.33.314-.801.65-1.341 1.033L9.295 12l4.448 3.158c.54.384 1.012.719 1.341 1.034.351.335.666.764.666 1.35 0 .584-.315 1.013-.666 1.349-.33.315-.801.65-1.341 1.034l-1.833 1.301c-.73.518-1.346.956-1.857 1.216-.52.265-1.155.465-1.79.14-.637-.326-.844-.959-.93-1.536-.083-.565-.083-1.318-.083-2.209v-5.396l-3.82 2.673a.75.75 0 0 1-.86-1.228L6.692 12 2.57 9.115a.75.75 0 1 1 .86-1.23l3.82 2.675V5.163c0-.89 0-1.644.084-2.21.085-.576.292-1.21.93-1.535.634-.325 1.27-.125 1.79.14.51.26 1.126.698 1.856 1.216M8.75 13.453v5.323c0 .968.002 1.608.067 2.05.032.215.072.327.102.383a.2.2 0 0 0 .022.034l.005.004.007.002c.002 0 .015.003.044-.001.064-.01.18-.043.375-.142.4-.205.926-.575 1.72-1.138l1.737-1.235c.599-.425.978-.697 1.218-.926.114-.109.165-.18.187-.22.016-.03.016-.04.016-.045v-.002c0-.005 0-.015-.016-.044a1 1 0 0 0-.187-.22c-.24-.23-.62-.502-1.218-.927zm0-2.905V5.225c0-.97.002-1.61.067-2.051.032-.214.072-.327.102-.383a.2.2 0 0 1 .022-.034l.005-.004.007-.002a.2.2 0 0 1 .044.002c.064.009.18.042.375.141.4.205.926.576 1.72 1.139l1.737 1.234c.599.425.978.697 1.218.926.114.11.165.18.187.22.016.03.016.04.016.045v.002c0 .005 0 .015-.016.044-.022.04-.073.111-.187.22-.24.23-.62.502-1.218.927zm9.733-6.091a.75.75 0 0 1 1.06.026l-.518.493.518-.493.001.001.002.002.003.003.01.01a3 3 0 0 1 .108.127c.067.082.158.2.264.355.212.31.486.765.756 1.38.54 1.231 1.063 3.084 1.063 5.64s-.522 4.407-1.063 5.638a8.5 8.5 0 0 1-.756 1.38 5 5 0 0 1-.373.482l-.009.01-.003.004-.002.001-.52-.492.52.493a.75.75 0 0 1-1.09-1.03l.002-.003h-.001l-.002.003.007-.008.045-.053a4 4 0 0 0 .189-.255c.163-.237.39-.612.62-1.135.458-1.044.936-2.691.936-5.036s-.478-3.992-.937-5.036a7 7 0 0 0-.619-1.135 4 4 0 0 0-.234-.308l-.006-.007v.001l.002.001m.027-1.059a.75.75 0 0 0-.03 1.057zm-1.832 2.88a.75.75 0 0 1 1.013.314L17 8l.664-.35v.001l.002.003.003.006.011.021q.015.027.037.075.047.096.125.268c.101.228.235.553.368.947.265.781.54 1.867.54 3.028s-.275 2.247-.54 3.028a11 11 0 0 1-.493 1.215l-.037.075-.01.021-.004.007-.002.002v.001L17 16l.664.35a.75.75 0 0 1-1.328-.698m0-.001.007-.012a4 4 0 0 0 .128-.273 10 10 0 0 0 .319-.82c.235-.693.46-1.607.46-2.546s-.225-1.853-.46-2.547a10 10 0 0 0-.447-1.092l-.006-.01v-.002a.75.75 0 0 1 .314-1.013" clip-rule="evenodd"/></svg>