<svg width="24" height="24" viewBox="0 0 24 24" fill="none" xmlns="http://www.w3.org/2000/svg">
<path fill-rule="evenodd" clip-rule="evenodd" d="M8.13602 1.6026C8.35555 1.95386 8.24877 2.41657 7.89751 2.6361L3.89749 5.1361C3.54624 5.35563 3.08353 5.24885 2.86399 4.8976C2.64446 4.54634 2.75124 4.08363 3.1025 3.8641L7.10252 1.3641C7.45377 1.14457 7.91649 1.25135 8.13602 1.6026ZM15.864 1.6026C16.0835 1.25135 16.5462 1.14457 16.8975 1.3641L20.8975 3.8641C21.2487 4.08363 21.3555 4.54635 21.136 4.8976C20.9165 5.24885 20.4537 5.35563 20.1025 5.1361L16.1025 2.6361C15.7512 2.41657 15.6445 1.95385 15.864 1.6026Z" fill="#1C274C"/>
<path fill-rule="evenodd" clip-rule="evenodd" d="M12 22.0001C16.9706 22.0001 21 17.9707 21 13.0001C21 8.02954 16.9706 4.0001 12 4.0001C7.02943 4.0001 2.99999 8.02954 2.99999 13.0001C2.99999 17.9707 7.02943 22.0001 12 22.0001ZM8.99999 10.7501C8.58578 10.7501 8.24999 10.4143 8.24999 10.0001C8.24999 9.58589 8.58578 9.2501 8.99999 9.2501H15C15.3033 9.2501 15.5768 9.43283 15.6929 9.71309C15.809 9.99334 15.7448 10.3159 15.5303 10.5304L10.8107 15.2501H15C15.4142 15.2501 15.75 15.5859 15.75 16.0001C15.75 16.4143 15.4142 16.7501 15 16.7501H8.99999C8.69665 16.7501 8.42317 16.5674 8.30708 16.2871C8.191 16.0069 8.25517 15.6843 8.46966 15.4698L13.1893 10.7501H8.99999Z" fill="#1C274C"/>
</svg>
