<svg xmlns="http://www.w3.org/2000/svg" fill="none" viewBox="0 0 24 24" width="1em" height="1em"><path fill="currentColor" d="M21.036 3.945a.75.75 0 0 0-1.06-1.061zm-8.838 1.06a.75.75 0 1 0 1.06 1.061zm6.187 6.188-.53.53a.75.75 0 0 0 1.06 0zM3.58 12.979l.64-.39zm-.667-1.096-.668.341.012.025.015.024zm1.495-4.872.35.663zm2.761-1.15.206.72zm5.366-.519.53-.53-.183-.184-.258-.03zM10.94 20.341l.39-.641zm1.096.667-.39.64.024.015.025.013zm4.872-1.495-.663-.35zm1.151-2.762.721.206zm.924-.585a.75.75 0 1 0-1.463-.332zm.992-13.282-2.122 2.121 1.061 1.061 2.121-2.121zm-6.718 3.182a3.25 3.25 0 0 1 4.596 0l1.061-1.06a4.75 4.75 0 0 0-6.717 0zm4.596 0a3.25 3.25 0 0 1 0 4.596l1.061 1.06a4.75 4.75 0 0 0 0-6.717zM4.22 12.589l-.667-1.096-1.281.78.667 1.096zm.538-4.915c.827-.436 1.734-.84 2.617-1.093L6.963 5.14c-1.018.291-2.025.744-2.905 1.209zm2.617-1.093a14.6 14.6 0 0 1 4.98-.503l.089.009h.002l.089-.745.088-.744h-.001l-.01-.002-.124-.012q-.124-.011-.348-.025a16.1 16.1 0 0 0-5.176.58zm-3.794 4.961c-.701-1.373-.238-3.12 1.177-3.868l-.7-1.326c-2.2 1.161-2.856 3.833-1.813 5.876zm6.97 9.44 1.097.666.78-1.281-1.097-.667zm7.021-1.12c.465-.88.918-1.887 1.21-2.905l-1.443-.412c-.253.884-.656 1.79-1.093 2.617zm-5.876 1.814c2.044 1.043 4.715.386 5.876-1.813l-1.326-.7c-.747 1.414-2.494 1.878-3.868 1.177zm.308-15.803 5.85 5.85 1.061-1.06-5.85-5.851zM2.94 13.369a22.75 22.75 0 0 0 7.612 7.612l.78-1.281a21.25 21.25 0 0 1-7.11-7.11zm15.842 3.588q.115-.402.203-.791l-1.463-.332q-.079.351-.182.71z"/></svg>