<svg xmlns="http://www.w3.org/2000/svg" fill="none" viewBox="0 0 24 24" width="1em" height="1em"><circle cx="12" cy="6" r="4" stroke="currentColor" stroke-width="1.5"/><path stroke="currentColor" stroke-linecap="round" stroke-width="1.5" d="M18 9c1.657 0 3-1.12 3-2.5S19.657 4 18 4M6 9C4.343 9 3 7.88 3 6.5S4.343 4 6 4m11.197 11c.51.588.803 1.271.803 2 0 2.21-2.686 4-6 4s-6-1.79-6-4 2.686-4 6-4q.511 0 1 .055M20 19c1.754-.385 3-1.359 3-2.5s-1.246-2.115-3-2.5M4 19c-1.754-.385-3-1.359-3-2.5s1.246-2.115 3-2.5"/></svg>