<svg xmlns="http://www.w3.org/2000/svg" fill="none" viewBox="0 0 24 24" width="1em" height="1em"><g clip-path="url(#a)"><path fill="currentColor" fill-rule="evenodd" d="M3.035 4.25c.33-2.221 2.1-4 4.346-4 1.345 0 2.533.65 3.329 1.642a.75.75 0 1 1-1.17.938c-.542-.676-1.316-1.08-2.159-1.08-1.326 0-2.52 1.03-2.826 2.506a.75.75 0 0 1 .459 1.25l-.73.8a.75.75 0 0 1-1.108 0l-.73-.8a.75.75 0 0 1 .59-1.255M13.25 3a.75.75 0 0 1 .752-.748c1.547.004 2.8.03 3.807.2 1.028.175 1.872.512 2.55 1.19.748.749 1.08 1.698 1.238 2.87.153 1.14.153 2.595.153 4.433v4.112c0 1.838 0 3.294-.153 4.433-.158 1.172-.49 2.121-1.238 2.87-.749.748-1.698 1.08-2.87 1.238-1.14.153-2.595.153-4.433.153h-.112c-1.838 0-3.294 0-4.433-.153-1.172-.158-2.121-.49-2.87-1.238-.748-.749-1.08-1.698-1.238-2.87-.153-1.14-.153-2.595-.153-4.433v-3.055a.75.75 0 0 1 1.5 0V15c0 1.907.002 3.262.14 4.29.135 1.005.389 1.585.812 2.008s1.003.677 2.009.812c1.028.138 2.382.14 4.289.14s3.262-.002 4.29-.14c1.005-.135 1.585-.389 2.008-.812s.677-1.003.812-2.009c.138-1.027.14-2.382.14-4.289v-4c0-1.907-.002-3.261-.14-4.29-.135-1.005-.389-1.585-.812-2.008-.385-.385-.898-.629-1.74-.772-.864-.146-1.993-.174-3.56-.18A.75.75 0 0 1 13.25 3m-1.98.451a.75.75 0 0 1 .554.244l.73.8a.75.75 0 0 1-.59 1.255c-.328 2.221-2.098 4-4.344 4-1.25 0-2.368-.562-3.158-1.44a.75.75 0 1 1 1.115-1.004c.534.594 1.258.944 2.043.944 1.326 0 2.52-1.03 2.826-2.506a.75.75 0 0 1-.459-1.25l.73-.8a.75.75 0 0 1 .554-.244M9.25 20a.75.75 0 0 1 .75-.75h6a.75.75 0 0 1 0 1.5h-6a.75.75 0 0 1-.75-.75" clip-rule="evenodd"/></g><defs><clipPath id="a"><path fill="currentColor" d="M0 0h24v24H0z"/></clipPath></defs></svg>