<svg width="24" height="24" viewBox="0 0 24 24" fill="none" xmlns="http://www.w3.org/2000/svg">
<path fill-rule="evenodd" clip-rule="evenodd" d="M14.3941 3.0652C11.9587 2.41264 9.49127 2.79481 7.45538 3.9434C7.09462 4.14693 6.63717 4.01947 6.43364 3.65871C6.23011 3.29795 6.35757 2.8405 6.71833 2.63697C9.08233 1.30326 11.9525 0.858075 14.7823 1.61631C20.5171 3.15294 23.9203 9.04756 22.3837 14.7823C20.8471 20.5171 14.9525 23.9203 9.21769 22.3837C3.48293 20.8471 0.0796704 14.9525 1.6163 9.21771C1.92056 8.08219 2.39632 7.03676 3.00874 6.10272C3.58275 5.22727 4.74053 5.15947 5.47378 5.75294L12.4718 11.417C12.7938 11.6776 12.8436 12.1499 12.583 12.4719C12.3224 12.7938 11.8501 12.8436 11.5281 12.583L4.53008 6.91889C4.47424 6.8737 4.4114 6.86012 4.36152 6.86615C4.31609 6.87164 4.28533 6.89137 4.26315 6.9252C3.73715 7.72743 3.32762 8.62651 3.06518 9.60594C1.74297 14.5405 4.67136 19.6126 9.60592 20.9348C14.5405 22.257 19.6126 19.3287 20.9348 14.3941C22.257 9.45953 19.3286 4.38741 14.3941 3.0652Z" fill="#1C274C"/>
</svg>
