<svg width="24" height="24" viewBox="0 0 24 24" fill="none" xmlns="http://www.w3.org/2000/svg">
<path fill-rule="evenodd" clip-rule="evenodd" d="M12 22.0001C16.9706 22.0001 21 17.9707 21 13.0001C21 8.02954 16.9706 4.0001 12 4.0001C7.02945 4.0001 3.00001 8.02954 3.00001 13.0001C3.00001 17.9707 7.02945 22.0001 12 22.0001ZM13.0261 10.275C12.7889 10.1084 12.5201 9.93607 12.2419 9.76689C11.1695 9.11476 10.6333 8.78869 10.1524 9.1497C9.67151 9.51071 9.6278 10.2665 9.54039 11.7779C9.51567 12.2054 9.50001 12.6244 9.50001 13.0001C9.50001 13.3758 9.51567 13.7948 9.54039 14.2223C9.6278 15.7337 9.67151 16.4895 10.1524 16.8505C10.6333 17.2115 11.1695 16.8854 12.2419 16.2333C12.5201 16.0641 12.7889 15.8918 13.0261 15.7252C13.2966 15.5353 13.5909 15.3074 13.8876 15.0653C14.9625 14.1884 15.5 13.75 15.5 13.0001C15.5 12.2502 14.9625 11.8118 13.8876 10.9349C13.5909 10.6928 13.2966 10.4649 13.0261 10.275Z" fill="#1C274C"/>
<path fill-rule="evenodd" clip-rule="evenodd" d="M8.13603 1.6026C8.35556 1.95386 8.24878 2.41657 7.89753 2.6361L3.89751 5.1361C3.54625 5.35563 3.08354 5.24885 2.86401 4.8976C2.64448 4.54634 2.75126 4.08363 3.10251 3.8641L7.10253 1.3641C7.45379 1.14457 7.9165 1.25135 8.13603 1.6026ZM15.864 1.6026C16.0835 1.25135 16.5463 1.14457 16.8975 1.3641L20.8975 3.8641C21.2488 4.08363 21.3555 4.54635 21.136 4.8976C20.9165 5.24885 20.4538 5.35563 20.1025 5.1361L16.1025 2.6361C15.7513 2.41657 15.6445 1.95385 15.864 1.6026Z" fill="#1C274C"/>
</svg>
