<svg width="24" height="24" viewBox="0 0 24 24" fill="none" xmlns="http://www.w3.org/2000/svg">
<circle cx="12" cy="6" r="4" fill="#1C274C"/>
<path fill-rule="evenodd" clip-rule="evenodd" d="M18.9999 16.3357C19.4141 16.3357 19.7499 16.6715 19.7499 17.0857V17.7499H20.4141C20.8283 17.7499 21.1641 18.0857 21.1641 18.4999C21.1641 18.9141 20.8283 19.2499 20.4141 19.2499H19.7499V19.9141C19.7499 20.3283 19.4141 20.6641 18.9999 20.6641C18.5857 20.6641 18.2499 20.3283 18.2499 19.9141L18.2499 19.2499H17.5857C17.1715 19.2499 16.8357 18.9141 16.8357 18.4999C16.8357 18.0857 17.1715 17.7499 17.5857 17.7499H18.2499L18.2499 17.0857C18.2499 16.6715 18.5857 16.3357 18.9999 16.3357Z" fill="#1C274C"/>
<path d="M16.1421 20.2259C14.9822 20.7131 13.55 21.001 12 21.001C8.13401 21.001 5 19.2101 5 17.001C5 14.7918 8.13401 13.001 12 13.001C14.6101 13.001 16.8866 13.8173 18.0902 15.0275C17.5167 15.2814 17.0692 15.7679 16.8673 16.3674C15.9771 16.6672 15.3359 17.5088 15.3359 18.5002C15.3359 19.1932 15.6493 19.8131 16.1421 20.2259Z" fill="#1C274C"/>
</svg>
