<svg xmlns="http://www.w3.org/2000/svg" fill="none" viewBox="0 0 24 24" width="1em" height="1em"><path fill="currentColor" fill-rule="evenodd" d="M18.673 3.667c-.637.114-1.476.391-2.7.8l-4 1.333c-.677.225-1.124.376-1.454.529-.312.145-.447.262-.533.382s-.155.284-.194.626c-.04.361-.042.833-.042 1.546v2.076l10.5-3.5c0-1.241-.004-2.099-.096-2.724-.091-.624-.248-.848-.423-.974s-.438-.204-1.058-.094M21.74 6a12 12 0 0 0-.102-1.483c-.116-.793-.375-1.5-1.03-1.973-.655-.472-1.409-.494-2.198-.354-.758.136-1.702.45-2.854.834L11.458 4.39c-.626.209-1.155.385-1.571.579-.443.206-.827.46-1.118.865-.291.403-.412.848-.467 1.333A9 9 0 0 0 8.255 8H8.25v8a3.75 3.75 0 1 0 1.5 3v-6.46l10.5-3.5V14a3.75 3.75 0 1 0 1.5 3V6zm-1.49 11a2.25 2.25 0 1 0-4.5 0 2.25 2.25 0 0 0 4.5 0m-12 2a2.25 2.25 0 1 0-4.5 0 2.25 2.25 0 0 0 4.5 0" clip-rule="evenodd"/></svg>