<svg xmlns="http://www.w3.org/2000/svg" fill="none" viewBox="0 0 24 24" width="1em" height="1em"><path fill="currentColor" fill-rule="evenodd" d="M10.2 2.277a.75.75 0 0 1 .523.924l-5 18a.75.75 0 0 1-1.446-.402l5-18a.75.75 0 0 1 .924-.522m8.999 0a.75.75 0 0 1 .523.924l-5 18a.75.75 0 1 1-1.446-.402l5-18a.75.75 0 0 1 .924-.522" clip-rule="evenodd"/><path fill="currentColor" fill-rule="evenodd" d="M3.25 9A.75.75 0 0 1 4 8.25h18a.75.75 0 0 1 0 1.5H4A.75.75 0 0 1 3.25 9m-2 7a.75.75 0 0 1 .75-.75h18a.75.75 0 0 1 0 1.5H2a.75.75 0 0 1-.75-.75" clip-rule="evenodd" opacity=".5"/></svg>