<svg width="24" height="24" viewBox="0 0 24 24" fill="none" xmlns="http://www.w3.org/2000/svg">
<path fill-rule="evenodd" clip-rule="evenodd" d="M5.24989 6C5.24989 3.37665 7.37654 1.25 9.99989 1.25C12.6232 1.25 14.7499 3.37665 14.7499 6C14.7499 8.62335 12.6232 10.75 9.99989 10.75C7.37654 10.75 5.24989 8.62335 5.24989 6ZM9.99989 2.75C8.20496 2.75 6.74989 4.20507 6.74989 6C6.74989 7.79493 8.20496 9.25 9.99989 9.25C11.7948 9.25 13.2499 7.79493 13.2499 6C13.2499 4.20507 11.7948 2.75 9.99989 2.75Z" fill="#1C274C"/>
<path fill-rule="evenodd" clip-rule="evenodd" d="M3.97534 13.6643C5.55481 12.7759 7.68634 12.25 9.99989 12.25C12.3134 12.25 14.445 12.7759 16.0244 13.6643C17.5804 14.5396 18.7499 15.8661 18.7499 17.5L18.75 17.602C18.7511 18.7638 18.7525 20.222 17.4735 21.2635C16.844 21.7761 15.9634 22.1406 14.7737 22.3815C13.5806 22.6229 12.0257 22.75 9.99989 22.75C7.97412 22.75 6.41915 22.6229 5.2261 22.3815C4.03637 22.1406 3.15577 21.7761 2.5263 21.2635C1.24728 20.222 1.24869 18.7638 1.24982 17.602L1.24989 17.5C1.24989 15.8661 2.41937 14.5396 3.97534 13.6643ZM4.71073 14.9717C3.37127 15.7251 2.74989 16.6487 2.74989 17.5C2.74989 18.8078 2.79021 19.544 3.47348 20.1004C3.84401 20.4022 4.46341 20.6967 5.52368 20.9113C6.58063 21.1252 8.02566 21.25 9.99989 21.25C11.9741 21.25 13.4192 21.1252 14.4761 20.9113C15.5364 20.6967 16.1558 20.4022 16.5263 20.1004C17.2096 19.544 17.2499 18.8078 17.2499 17.5C17.2499 16.6487 16.6285 15.7251 15.289 14.9717C13.9731 14.2315 12.1046 13.75 9.99989 13.75C7.89516 13.75 6.02669 14.2315 4.71073 14.9717Z" fill="#1C274C"/>
<path d="M20.9446 9.11627C21.2375 8.82337 21.2375 8.3485 20.9446 8.05561C20.6517 7.76271 20.1768 7.76271 19.8839 8.05561L19 8.9395L18.1162 8.05562C17.8233 7.76273 17.3484 7.76273 17.0555 8.05562C16.7626 8.34851 16.7626 8.82339 17.0555 9.11628L17.9394 10.0002L17.0555 10.884C16.7626 11.1769 16.7626 11.6518 17.0555 11.9447C17.3484 12.2376 17.8233 12.2376 18.1162 11.9447L19 11.0608L19.8839 11.9447C20.1768 12.2376 20.6517 12.2376 20.9446 11.9447C21.2375 11.6518 21.2375 11.1769 20.9446 10.884L20.0607 10.0002L20.9446 9.11627Z" fill="#1C274C"/>
</svg>
