<svg xmlns="http://www.w3.org/2000/svg" fill="none" viewBox="0 0 24 24" width="1em" height="1em"><path fill="currentColor" fill-rule="evenodd" d="M8.367 3.492c.499.396 1.172.95 1.905 1.607.702.63 1.472 1.366 2.203 2.161 1.403-1.191 2.486-2.535 3.044-3.815a9.3 9.3 0 0 0-2.414-.63 9.2 9.2 0 0 0-4.738.677m8.491.634c-.678 1.509-1.902 2.993-3.405 4.271.45.565.86 1.146 1.197 1.728.41.71.774 1.533 1.094 2.396 1.813-.683 3.718-1.021 5.503-.805a9.2 9.2 0 0 0-1.237-4.341 9.2 9.2 0 0 0-3.152-3.249m4.311 9.093c-1.535-.209-3.254.08-4.943.724.29.937.534 1.876.733 2.729a52 52 0 0 1 .562 2.75 9.2 9.2 0 0 0 2.985-3.788 9.3 9.3 0 0 0 .663-2.415m-5.025 7.05a51 51 0 0 0-.645-3.257 39 39 0 0 0-.656-2.461q-.614.307-1.206.667c-2.412 1.468-4.342 3.47-5.156 5.337a9.24 9.24 0 0 0 7.663-.285m-9.002-.395c1-2.227 3.19-4.401 5.715-5.937q.73-.445 1.508-.822c-.302-.823-.64-1.593-1.014-2.24a13 13 0 0 0-1.082-1.556q-.519.372-1.064.706c-2.57 1.578-5.658 2.597-8.453 2.259a9.2 9.2 0 0 0 1.237 4.34 9.2 9.2 0 0 0 3.153 3.25M2.83 10.78a9.24 9.24 0 0 1 4.092-6.513A40 40 0 0 1 9.27 6.216a31 31 0 0 1 2.011 1.965q-.418.293-.861.566C7.972 10.25 5.187 11.1 2.83 10.78m3.795-8.09a10.7 10.7 0 0 1 6.66-1.364 10.74 10.74 0 0 1 8.024 5.299 10.74 10.74 0 0 1 .577 9.598 10.7 10.7 0 0 1-4.511 5.087c-5.142 2.968-11.717 1.206-14.685-3.935C-.28 12.233 1.483 5.658 6.625 2.69" clip-rule="evenodd"/></svg>