<svg width="24" height="24" viewBox="0 0 24 24" fill="none" xmlns="http://www.w3.org/2000/svg">
<path fill-rule="evenodd" clip-rule="evenodd" d="M15.6786 1.68071C15.855 2.0555 15.6941 2.5023 15.3193 2.67867L9.85515 5.25005C9.88453 5.25005 9.91401 5.25005 9.94358 5.25005H14.0564C15.8942 5.25004 17.3498 5.25003 18.489 5.40319C19.6614 5.56082 20.6104 5.89293 21.3588 6.6413C22.1071 7.38966 22.4392 8.33861 22.5969 9.51103C22.75 10.6502 22.75 12.1059 22.75 13.9436V14.0565C22.75 15.8942 22.75 17.3499 22.5969 18.4891C22.4392 19.6615 22.1071 20.6104 21.3588 21.3588C20.6104 22.1072 19.6614 22.4393 18.489 22.5969C17.3498 22.7501 15.8942 22.7501 14.0564 22.7501H9.94359C8.10583 22.7501 6.65019 22.7501 5.51098 22.5969C4.33856 22.4393 3.38961 22.1072 2.64124 21.3588C1.89288 20.6104 1.56076 19.6615 1.40314 18.4891C1.24997 17.3499 1.24998 15.8942 1.25 14.0565V13.9436C1.24998 12.1059 1.24997 10.6502 1.40314 9.51103C1.56076 8.33861 1.89288 7.38966 2.64124 6.6413C3.38961 5.89293 4.33856 5.56082 5.51098 5.40319C5.71495 5.37577 5.92907 5.35325 6.15372 5.33477C6.16257 5.33017 6.17155 5.32573 6.18065 5.32144L14.6807 1.32144C15.0554 1.14507 15.5022 1.30592 15.6786 1.68071ZM5.71085 6.88981C4.70476 7.02508 4.12511 7.27875 3.7019 7.70196C3.27869 8.12517 3.02502 8.70481 2.88976 9.7109C2.75159 10.7386 2.75 12.0932 2.75 14.0001C2.75 15.9069 2.75159 17.2615 2.88976 18.2892C3.02502 19.2953 3.27869 19.8749 3.7019 20.2982C4.12511 20.7214 4.70476 20.975 5.71085 21.1103C6.73851 21.2485 8.09318 21.2501 10 21.2501H14C15.9068 21.2501 17.2615 21.2485 18.2892 21.1103C19.2952 20.975 19.8749 20.7214 20.2981 20.2982C20.7213 19.8749 20.975 19.2953 21.1102 18.2892C21.2484 17.2615 21.25 15.9069 21.25 14.0001C21.25 12.0932 21.2484 10.7386 21.1102 9.7109C20.975 8.70481 20.7213 8.12517 20.2981 7.70196C19.8749 7.27875 19.2952 7.02508 18.2892 6.88981C17.2615 6.75165 15.9068 6.75006 14 6.75006H10C8.09318 6.75006 6.73851 6.75165 5.71085 6.88981ZM8 11.7501C6.75736 11.7501 5.75 12.7574 5.75 14.0001C5.75 15.2427 6.75736 16.2501 8 16.2501C9.24264 16.2501 10.25 15.2427 10.25 14.0001C10.25 12.7574 9.24264 11.7501 8 11.7501ZM4.25 14.0001C4.25 11.929 5.92893 10.2501 8 10.2501C10.0711 10.2501 11.75 11.929 11.75 14.0001C11.75 16.0711 10.0711 17.7501 8 17.7501C5.92893 17.7501 4.25 16.0711 4.25 14.0001ZM12.75 11.0001C12.75 10.5858 13.0858 10.2501 13.5 10.2501H19C19.4142 10.2501 19.75 10.5858 19.75 11.0001C19.75 11.4143 19.4142 11.7501 19 11.7501H13.5C13.0858 11.7501 12.75 11.4143 12.75 11.0001ZM12.75 14.0001C12.75 13.5858 13.0858 13.2501 13.5 13.2501H19C19.4142 13.2501 19.75 13.5858 19.75 14.0001C19.75 14.4143 19.4142 14.7501 19 14.7501H13.5C13.0858 14.7501 12.75 14.4143 12.75 14.0001ZM12.75 17.0001C12.75 16.5858 13.0858 16.2501 13.5 16.2501H19C19.4142 16.2501 19.75 16.5858 19.75 17.0001C19.75 17.4143 19.4142 17.7501 19 17.7501H13.5C13.0858 17.7501 12.75 17.4143 12.75 17.0001Z" fill="#1C274C"/>
</svg>
