<svg width="24" height="24" viewBox="0 0 24 24" fill="none" xmlns="http://www.w3.org/2000/svg">
<path fill-rule="evenodd" clip-rule="evenodd" d="M12.6688 1.51039C13.3163 1.14129 14.1521 1.14049 14.8509 1.66463C16.6984 3.05041 18.7499 5.44515 18.7499 8.80745C18.7499 11.5395 17.5552 13.3134 16.0287 14.3769C14.5415 15.4129 12.7817 15.75 11.5999 15.75C10.5303 15.75 8.95615 15.4019 7.63279 14.3482C6.27652 13.2684 5.24995 11.4986 5.24995 8.80745C5.24995 6.38397 6.65537 4.82601 7.84335 4.02974C8.7644 3.4124 10.1354 3.81393 10.3153 5.06989C10.3812 5.52973 10.618 5.8574 10.7873 5.96791C10.8071 5.98079 10.822 5.98845 10.8325 5.99295C10.8517 5.97711 10.8846 5.94358 10.9272 5.87672C11.4098 5.11992 11.6029 4.03945 11.6029 3.38896C11.6029 2.56951 12.0352 1.8715 12.6688 1.51039ZM10.8133 6.00571C10.8133 6.00557 10.8147 6.00474 10.8177 6.00365C10.8148 6.00531 10.8133 6.00585 10.8133 6.00571ZM10.8484 5.9985C10.8507 5.99862 10.8519 5.9989 10.8519 5.99901C10.8519 5.99912 10.8508 5.99906 10.8484 5.9985ZM13.4116 2.81355C13.2456 2.90817 13.1029 3.1091 13.1029 3.38896C13.1029 4.22392 12.8748 5.61236 12.1919 6.68323C11.945 7.07054 11.5948 7.37014 11.1441 7.467C10.6968 7.56312 10.2841 7.43072 9.96739 7.22397C9.35842 6.82644 8.94292 6.06752 8.83048 5.2826C8.8284 5.26807 8.82536 5.25968 8.8237 5.25582C8.82203 5.25193 8.8208 5.25037 8.82052 5.25003L8.82051 5.25002C8.82032 5.24977 8.81836 5.2472 8.81105 5.24434C8.79779 5.23916 8.74939 5.22823 8.67851 5.27575C7.7613 5.89052 6.74995 7.03637 6.74995 8.80745C6.74995 11.0703 7.59004 12.3968 8.5671 13.1747C9.57707 13.9789 10.803 14.25 11.5999 14.25C12.5515 14.25 13.9917 13.9678 15.1712 13.1461C16.3113 12.3518 17.2499 11.0294 17.2499 8.80745C17.2499 6.10685 15.6038 4.10439 13.9509 2.86458C13.7517 2.7152 13.5636 2.72692 13.4116 2.81355ZM15.2155 9.28163C15.6122 9.40065 15.8373 9.81877 15.7183 10.2155C15.4494 11.1119 14.3343 12.75 11.9999 12.75C11.5857 12.75 11.2499 12.4142 11.2499 12C11.2499 11.5858 11.5857 11.25 11.9999 11.25C13.5056 11.25 14.1505 10.2215 14.2816 9.78449C14.4006 9.38775 14.8187 9.16261 15.2155 9.28163ZM3.31283 14.6994C3.47885 14.3199 3.92107 14.1469 4.30056 14.3129L9.30056 16.5004C9.68004 16.6664 9.85309 17.1086 9.68706 17.4881C9.52104 17.8676 9.07882 18.0406 8.69933 17.8746L3.69933 15.6871C3.31985 15.5211 3.1468 15.0789 3.31283 14.6994ZM20.6871 14.6994C20.8531 15.0789 20.68 15.5211 20.3006 15.6871L4.30056 22.6871C3.92107 22.8531 3.47885 22.6801 3.31283 22.3006C3.1468 21.9211 3.31985 21.4789 3.69933 21.3129L19.6993 14.3129C20.0788 14.1469 20.521 14.3199 20.6871 14.6994ZM13.8128 19.2931C13.9789 18.9137 14.4211 18.7406 14.8006 18.9066L20.3006 21.3129C20.68 21.4789 20.8531 21.9211 20.6871 22.3006C20.521 22.6801 20.0788 22.8531 19.6993 22.6871L14.1993 20.2809C13.8198 20.1148 13.6468 19.6726 13.8128 19.2931Z" fill="#1C274C"/>
</svg>
