<svg width="24" height="24" viewBox="0 0 24 24" fill="none" xmlns="http://www.w3.org/2000/svg">
<path d="M15.7284 3.88396C17.1627 2.44407 19.2608 2.41383 20.4223 3.57981C21.5859 4.74798 21.5546 6.85922 20.1193 8.30009L17.6955 10.7333C17.4031 11.0268 17.4041 11.5017 17.6975 11.794C17.991 12.0863 18.4658 12.0854 18.7582 11.7919L21.182 9.35869C23.0933 7.43998 23.3333 4.37665 21.485 2.5212C19.6345 0.663551 16.578 0.905664 14.6657 2.82536L9.81805 7.69182C7.90675 9.61053 7.6668 12.6739 9.51506 14.5293C9.80739 14.8228 10.2823 14.8237 10.5757 14.5314C10.8692 14.2391 10.8701 13.7642 10.5778 13.4707C9.41412 12.3026 9.44546 10.1913 10.8808 8.75042L15.7284 3.88396Z" fill="#1C274C"/>
<path opacity="0.5" d="M14.4846 9.4707C14.1923 9.17724 13.7174 9.17632 13.4239 9.46864C13.1305 9.76097 13.1296 10.2358 13.4219 10.5293C14.5856 11.6975 14.5542 13.8087 13.1189 15.2496L8.27129 20.1161C6.83696 21.556 4.73889 21.5862 3.57742 20.4202C2.41376 19.2521 2.4451 17.1408 3.8804 15.6999L6.30424 13.2666C6.59657 12.9732 6.59565 12.4983 6.30219 12.206C6.00873 11.9137 5.53386 11.9146 5.24153 12.208L2.81769 14.6413C0.906387 16.56 0.666428 19.6234 2.5147 21.4788C4.36518 23.3365 7.42173 23.0944 9.334 21.1747L14.1816 16.3082C16.0929 14.3895 16.3329 11.3262 14.4846 9.4707Z" fill="#1C274C"/>
</svg>
