<svg width="24" height="24" viewBox="0 0 24 24" fill="none" xmlns="http://www.w3.org/2000/svg">
<path d="M15.7284 3.88396C17.1627 2.44407 19.2608 2.41383 20.4223 3.57981C21.5859 4.74798 21.5546 6.85922 20.1193 8.30009L17.6955 10.7333C17.4031 11.0268 17.4041 11.5017 17.6975 11.794C17.991 12.0863 18.4658 12.0854 18.7582 11.7919L21.182 9.35869C23.0933 7.43998 23.3333 4.37665 21.485 2.5212C19.6345 0.663551 16.578 0.905664 14.6657 2.82536L9.81805 7.69182C7.90675 9.61053 7.6668 12.6739 9.51506 14.5293C9.80739 14.8228 10.2823 14.8237 10.5757 14.5314C10.8692 14.2391 10.8701 13.7642 10.5778 13.4707C9.41412 12.3026 9.44547 10.1913 10.8808 8.75042L15.7284 3.88396Z" fill="#1C274C"/>
<path d="M14.485 9.47074C14.1926 9.17728 13.7178 9.17636 13.4243 9.46868C13.1309 9.76101 13.1299 10.2359 13.4223 10.5293C14.5859 11.6975 14.5546 13.8087 13.1193 15.2496L8.27165 20.1161C6.83733 21.556 4.73925 21.5863 3.57778 20.4203C2.41412 19.2521 2.44546 17.1408 3.88077 15.6999L6.30461 13.2667C6.59694 12.9732 6.59601 12.4984 6.30256 12.206C6.00909 11.9137 5.53422 11.9146 5.2419 12.2081L2.81805 14.6413C0.906754 16.5601 0.666794 19.6234 2.51507 21.4789C4.36554 23.3365 7.42209 23.0944 9.33437 21.1747L14.182 16.3082C16.0933 14.3895 16.3333 11.3262 14.485 9.47074Z" fill="#1C274C"/>
</svg>
