<svg xmlns="http://www.w3.org/2000/svg" fill="none" viewBox="0 0 24 24" width="1em" height="1em"><path stroke="currentColor" stroke-width="1.5" d="M6.444 3.685a10 10 0 0 1 1.662-.895c1.403-.594 2.104-.89 3-.297C12 3.086 12 4.058 12 6v2c0 1.886 0 2.829.586 3.414C13.172 12 14.114 12 16 12h2c1.942 0 2.914 0 3.507.895s.297 1.596-.296 3a10 10 0 0 1-5.384 5.344A10 10 0 0 1 6.444 3.685Z"/><path stroke="currentColor" stroke-linecap="round" stroke-width="1.5" d="M14.5 2.315c3.514.904 6.28 3.67 7.185 7.185"/></svg>