<svg width="24" height="24" viewBox="0 0 24 24" fill="none" xmlns="http://www.w3.org/2000/svg">
<path d="M17.416 2.624C17.7607 2.39423 17.8538 1.92858 17.624 1.58393C17.3943 1.23929 16.9286 1.14616 16.584 1.37592L13.6687 3.31943C13.1527 3.11331 12.5897 2.99994 12.0001 2.99994C11.4105 2.99994 10.8474 3.11333 10.3314 3.3195L7.41603 1.37592C7.07138 1.14616 6.60573 1.23929 6.37596 1.58393C6.1462 1.92858 6.23933 2.39423 6.58397 2.624L8.9437 4.19715C8.24831 4.84097 7.75664 5.70168 7.57617 6.67178C8.01128 6.55961 8.46749 6.49994 8.93763 6.49994H15.0626C15.5328 6.49994 15.989 6.55961 16.4241 6.67178C16.2436 5.70163 15.7519 4.84088 15.0564 4.19705L17.416 2.624Z" fill="#1C274C"/>
<path d="M1.25 14C1.25 13.5857 1.58579 13.25 2 13.25H5V11.9374C5 11.1017 5.26034 10.3269 5.70435 9.68947L3.22141 8.69611C2.83684 8.54225 2.6498 8.10577 2.80366 7.72119C2.95752 7.33661 3.39401 7.14958 3.77859 7.30343L6.91514 8.55829C7.50624 8.20376 8.19807 7.99994 8.9375 7.99994H15.0625C15.8019 7.99994 16.4938 8.20376 17.0849 8.55829L20.2214 7.30343C20.606 7.14958 21.0425 7.33661 21.1963 7.72119C21.3502 8.10577 21.1632 8.54225 20.7786 8.69611L18.2957 9.68947C18.7397 10.3269 19 11.1017 19 11.9374V13.25H22C22.4142 13.25 22.75 13.5857 22.75 14C22.75 14.4142 22.4142 14.75 22 14.75H19V14.9999C19 16.1806 18.7077 17.293 18.1915 18.2688L20.7786 19.3038C21.1632 19.4577 21.3502 19.8941 21.1963 20.2787C21.0425 20.6633 20.606 20.8503 20.2214 20.6965L17.3288 19.5392C16.1974 20.8663 14.5789 21.7654 12.75 21.9602V14.9999C12.75 14.5857 12.4142 14.2499 12 14.2499C11.5858 14.2499 11.25 14.5857 11.25 14.9999V21.9602C9.42109 21.7654 7.80265 20.8663 6.67115 19.5392L3.77859 20.6965C3.39401 20.8503 2.95752 20.6633 2.80366 20.2787C2.6498 19.8941 2.83684 19.4577 3.22141 19.3038L5.80852 18.2688C5.29231 17.293 5 16.1806 5 14.9999V14.75H2C1.58579 14.75 1.25 14.4142 1.25 14Z" fill="#1C274C"/>
</svg>
