<svg width="24" height="24" viewBox="0 0 24 24" fill="none" xmlns="http://www.w3.org/2000/svg">
<path d="M22 12C22 13.1874 21.0374 14.15 19.85 14.15C18.6626 14.15 17.7 13.1874 17.7 12C17.7 10.8126 18.6626 9.85 19.85 9.85C21.0374 9.85 22 10.8126 22 12Z" fill="#1C274C"/>
<path opacity="0.5" d="M21.3582 10.3849L13.6148 2.64148C12.7595 1.78617 11.3728 1.78617 10.5175 2.64148C9.66215 3.4968 9.66215 4.88353 10.5175 5.73885L18.2609 13.4823C18.4323 13.6537 18.6251 13.7908 18.8307 13.8935C18.1575 13.5303 17.7 12.8186 17.7 12C17.7 10.8126 18.6626 9.85 19.85 9.85C21.0232 9.85 21.9769 10.7896 21.9996 11.9573C22.0057 11.3889 21.7919 10.8186 21.3582 10.3849Z" fill="#1C274C"/>
<path d="M12.5349 10.4046L13.8591 9.08044L14.773 9.99436L14.9197 10.1411L13.5955 11.4653C13.4826 11.5783 13.4619 11.7541 13.5457 11.8901L14.1916 12.9398C14.929 14.1381 13.499 15.4889 12.3446 14.6844L9.72175 12.8563L7.72702 11.466L8.98638 13.2729L12.6712 18.5599C13.4816 19.7226 12.1075 21.1569 10.9111 20.3971L4.79546 16.5135L5.4448 17.8843C5.77832 18.5884 5.63444 19.4264 5.0826 19.9782L2.53033 22.5305C2.23744 22.8234 1.76256 22.8234 1.46967 22.5305C1.17678 22.2376 1.17678 21.7627 1.46967 21.4698L4.02194 18.9176C4.12458 18.8149 4.15191 18.6588 4.08919 18.5264L3.13994 16.5224C2.58305 15.3468 3.91 14.1743 5.00816 14.8716L5.55239 15.2173L5.55349 15.2179L10.8641 18.5904L7.67509 14.0149L5.84814 11.3936C5.01991 10.2052 6.46624 8.75892 7.65457 9.58715L11.1683 12.0361L12.4044 12.8976L12.2682 12.6763C12.0575 12.334 11.9704 11.9442 12.0001 11.5649C12.0337 11.1383 12.2151 10.7244 12.5349 10.4046Z" fill="#1C274C"/>
</svg>
