<svg xmlns="http://www.w3.org/2000/svg" fill="none" viewBox="0 0 24 24" width="1em" height="1em"><circle cx="12" cy="6" r="4" fill="currentColor"/><path fill="currentColor" fill-rule="evenodd" d="M19 16.336a.75.75 0 0 1 .75.75v.664h.664a.75.75 0 0 1 0 1.5h-.664v.664a.75.75 0 0 1-1.5 0v-.664h-.664a.75.75 0 0 1 0-1.5h.664v-.664a.75.75 0 0 1 .75-.75" clip-rule="evenodd"/><path fill="currentColor" d="M16.142 20.226C14.982 20.713 13.55 21 12 21c-3.866 0-7-1.79-7-4s3.134-4 7-4c2.61 0 4.887.816 6.09 2.027a2.26 2.26 0 0 0-1.223 1.34 2.251 2.251 0 0 0-.725 3.858"/></svg>