<svg xmlns="http://www.w3.org/2000/svg" fill="none" viewBox="0 0 24 24" width="1em" height="1em"><path fill="currentColor" fill-rule="evenodd" d="M4.313 6.5c.367-.112.852-.222 1.446-.32 1.577-.264 3.784-.43 6.241-.43a.75.75 0 0 0 0-1.5c-2.513 0-4.807.17-6.487.45-.835.139-1.553.31-2.08.518-.26.103-.518.23-.724.398-.196.16-.459.453-.459.884s.263.724.46.884c.205.167.462.295.722.398.528.207 1.246.38 2.08.518 1.681.28 3.975.45 6.488.45s4.807-.17 6.487-.45c.835-.139 1.553-.31 2.08-.518.26-.103.518-.23.724-.398.196-.16.459-.453.459-.884 0-.535-.397-.857-.63-1.007-.27-.175-.62-.313-.997-.428-.762-.233-1.814-.421-3.04-.558a.75.75 0 0 0-.166 1.491c1.186.132 2.134.308 2.768.502h.002a12 12 0 0 1-1.446.32c-1.577.264-3.784.43-6.241.43s-4.664-.166-6.24-.43a12 12 0 0 1-1.447-.32m16.045.291-.013-.011zm.348 2.956a.75.75 0 0 1-.453.959L20 10l.253.706h-.002l-.004.002-.01.003-.03.011-.113.036q-.145.047-.42.122c-.368.1-.909.23-1.622.358-1.426.258-3.54.512-6.328.512s-4.769-.254-6.066-.515a14 14 0 0 1-1.45-.364 7 7 0 0 1-.468-.167l-.03-.012-.01-.004-.003-.002h-.002L4 10l-.306.685a.75.75 0 0 1 .609-1.371q-.002 0 0 0m0 0q-.002 0 0 0l.01.004.06.024q.089.034.29.1c.268.085.693.203 1.29.323 1.193.24 3.074.485 5.771.485s4.721-.246 6.061-.488c.67-.121 1.17-.242 1.498-.33a9 9 0 0 0 .445-.132l.019-.006.234.654-.234-.654a.75.75 0 0 1 .959.453M8.273 15.301a.75.75 0 0 0-.55 1.396L8 16l-.277.697h.002l.003.002.007.002.02.008a3 3 0 0 0 .274.09c.184.053.45.12.802.188.705.134 1.752.263 3.169.263s2.464-.13 3.169-.263a9 9 0 0 0 .802-.189 5 5 0 0 0 .275-.09l.02-.006.006-.003.003-.001h.001c0-.001.001-.001-.276-.698l.277.697a.75.75 0 0 0-.55-1.396h-.001l-.001.001m0 0-.028.01q-.043.015-.146.046c-.138.04-.358.097-.663.155-.61.116-1.563.237-2.888.237s-2.278-.12-2.888-.237a7 7 0 0 1-.663-.155 3 3 0 0 1-.174-.056m7.448 0h.002m.985 2.956a.75.75 0 0 1-.468.952 9.4 9.4 0 0 1-3.242.54c-1.397 0-2.434-.126-3.138-.258a.75.75 0 0 1 .276-1.474c.61.115 1.556.232 2.862.232a7.9 7.9 0 0 0 2.757-.46.75.75 0 0 1 .953.468m-10.119-5.72a.75.75 0 0 0-1.258.805L6 13c-.667.343-.666.344-.666.345l.001.002.002.004.004.007.009.016a1 1 0 0 0 .065.098q.052.069.128.142c.101.097.237.196.418.295.357.194.914.394 1.8.55a.75.75 0 1 0 .261-1.477c-.787-.139-1.175-.3-1.346-.392a1 1 0 0 1-.085-.052m11.752-.205a.75.75 0 0 1 .324 1.01L18 13c.667.343.666.345.665.346l-.001.003-.003.006-.007.011-.046.074a1 1 0 0 1-.085.107 1.6 1.6 0 0 1-.26.224c-.214.15-.526.304-.986.446-.916.281-2.5.533-5.277.533a.75.75 0 0 1 0-1.5c2.707 0 4.123-.248 4.837-.467.353-.109.513-.204.567-.241l.005-.004a.75.75 0 0 1 .934-.205" clip-rule="evenodd"/></svg>