<svg width="24" height="24" viewBox="0 0 24 24" fill="none" xmlns="http://www.w3.org/2000/svg">
<path d="M4 12C4 13.3807 5.11929 14.5 6.5 14.5C7.88071 14.5 9 13.3807 9 12C9 10.6193 7.88071 9.5 6.5 9.5" stroke="#1C274C" stroke-width="1.5" stroke-linecap="round"/>
<path d="M14 6.5L9 10" stroke="#1C274C" stroke-width="1.5" stroke-linecap="round"/>
<path d="M14 17.5L9 14" stroke="#1C274C" stroke-width="1.5" stroke-linecap="round"/>
<path d="M16.5 21C17.8807 21 19 19.8807 19 18.5C19 17.1193 17.8807 16 16.5 16C15.1193 16 14 17.1193 14 18.5" stroke="#1C274C" stroke-width="1.5" stroke-linecap="round"/>
<path d="M18.6651 6.75005C17.9748 7.94578 16.4458 8.35547 15.2501 7.66511C14.0543 6.97476 13.6446 5.44578 14.335 4.25005C15.0253 3.05432 16.5543 2.64463 17.7501 3.33499" stroke="#1C274C" stroke-width="1.5" stroke-linecap="round"/>
</svg>
