<svg xmlns="http://www.w3.org/2000/svg" fill="none" viewBox="0 0 24 24" width="1em" height="1em"><path fill="currentColor" fill-rule="evenodd" d="M11.95 10.25h.1c.664 0 1.237 0 1.696.062.243.032.48.085.705.177l.019-.02 1-1a.75.75 0 1 1 1.06 1.061l-1 1-.018.019c.09.224.144.462.176.705.062.459.062 1.032.062 1.697v.098c0 .665 0 1.238-.062 1.697a3 3 0 0 1-.177.705l.02.019 1 1a.75.75 0 0 1-1.061 1.06l-1-1-.007-.007-.011-.011a3 3 0 0 1-.706.176c-.459.062-1.032.062-1.697.062h-.098c-.665 0-1.238 0-1.697-.062a3 3 0 0 1-.705-.176l-.019.018-1 1a.75.75 0 1 1-1.06-1.06l1-1 .018-.018a3 3 0 0 1-.176-.706c-.062-.459-.062-1.032-.062-1.697v-.098c0-.665 0-1.238.062-1.697.032-.243.085-.48.177-.705l-.02-.019-1-1A.75.75 0 0 1 8.53 9.47l1 1 .019.018c.224-.09.462-.144.705-.176.459-.062 1.032-.062 1.697-.062m-1.496 1.548c-.325.044-.427.115-.484.172s-.128.159-.172.484c-.046.347-.048.818-.048 1.546s.002 1.2.048 1.546c.044.325.115.427.172.484s.159.128.484.172c.347.046.818.048 1.546.048s1.2-.002 1.546-.048c.325-.044.427-.115.484-.172s.128-.159.172-.484c.046-.347.048-.818.048-1.546s-.002-1.199-.048-1.546c-.044-.325-.115-.427-.172-.484s-.159-.128-.484-.172c-.347-.046-.818-.048-1.546-.048s-1.2.002-1.546.048" clip-rule="evenodd"/><path fill="currentColor" fill-rule="evenodd" d="M18.122 2.378c1.153-.227 2.175-.193 3.053.442.875.632 1.24 1.596 1.41 2.773.165 1.15.165 2.666.165 4.576v5.768c0 1.396 0 2.518-.116 3.4-.12.914-.378 1.681-.977 2.293-.602.613-1.36.877-2.263 1.001-.868.12-1.971.12-3.338.119H7.944c-1.367 0-2.47 0-3.338-.119-.902-.124-1.661-.389-2.263-1.001-.6-.611-.856-1.38-.977-2.293-.116-.882-.116-2.004-.116-3.4v-2.893c0-1.012 0-1.833.074-2.498.077-.692.24-1.29.614-1.827.375-.539.877-.895 1.496-1.2q.369-.18.823-.357a1 1 0 0 1-.007-.102v-.04c0-.618 0-1.143.047-1.567.05-.447.159-.874.442-1.25q.19-.254.439-.449c.373-.292.798-.405 1.242-.456.418-.048.934-.048 1.538-.048h.949c.419 0 .77 0 1.078.083.66.181 1.2.636 1.502 1.233l2.34-.835C15.594 3.1 17 2.599 18.123 2.378m.29 1.472c-1 .197-2.3.659-4.142 1.316l-8 2.854c-.987.352-1.667.596-2.174.845-.489.24-.749.455-.927.71-.18.258-.293.582-.354 1.137-.064.572-.065 1.31-.065 2.375v2.796c0 1.463.002 2.486.103 3.258.1.752.282 1.153.561 1.438.277.283.665.466 1.396.566.754.103 1.754.105 3.19.105h8c1.436 0 2.436-.002 3.19-.105.731-.1 1.118-.283 1.396-.566.28-.285.461-.686.56-1.438.102-.772.104-1.795.104-3.258v-5.65c0-1.988-.002-3.396-.15-4.426-.147-1.015-.414-1.49-.804-1.772-.386-.279-.904-.378-1.885-.185m-8.367 1.23a.9.9 0 0 0-.456-.3c-.086-.023-.214-.03-.77-.03H8c-.657 0-1.087.001-1.409.038-.306.035-.42.095-.489.148a1 1 0 0 0-.165.168c-.054.073-.114.197-.15.514a10 10 0 0 0-.036.995z" clip-rule="evenodd"/></svg>