<svg width="24" height="24" viewBox="0 0 24 24" fill="none" xmlns="http://www.w3.org/2000/svg">
<path fill-rule="evenodd" clip-rule="evenodd" d="M5.24989 6C5.24989 3.37665 7.37654 1.25 9.99989 1.25C12.6232 1.25 14.7499 3.37665 14.7499 6C14.7499 8.62335 12.6232 10.75 9.99989 10.75C7.37654 10.75 5.24989 8.62335 5.24989 6ZM9.99989 2.75C8.20496 2.75 6.74989 4.20507 6.74989 6C6.74989 7.79493 8.20496 9.25 9.99989 9.25C11.7948 9.25 13.2499 7.79493 13.2499 6C13.2499 4.20507 11.7948 2.75 9.99989 2.75Z" fill="#1C274C"/>
<path fill-rule="evenodd" clip-rule="evenodd" d="M3.97534 13.6643C5.55481 12.7759 7.68634 12.25 9.99989 12.25C12.3134 12.25 14.445 12.7759 16.0244 13.6643C17.5804 14.5396 18.7499 15.8661 18.7499 17.5L18.75 17.602C18.7511 18.7638 18.7525 20.222 17.4735 21.2635C16.844 21.7761 15.9634 22.1406 14.7737 22.3815C13.5806 22.6229 12.0257 22.75 9.99989 22.75C7.97412 22.75 6.41915 22.6229 5.2261 22.3815C4.03637 22.1406 3.15577 21.7761 2.5263 21.2635C1.24728 20.222 1.24869 18.7638 1.24982 17.602L1.24989 17.5C1.24989 15.8661 2.41937 14.5396 3.97534 13.6643ZM4.71073 14.9717C3.37127 15.7251 2.74989 16.6487 2.74989 17.5C2.74989 18.8078 2.79021 19.544 3.47348 20.1004C3.84401 20.4022 4.46341 20.6967 5.52368 20.9113C6.58063 21.1252 8.02566 21.25 9.99989 21.25C11.9741 21.25 13.4192 21.1252 14.4761 20.9113C15.5364 20.6967 16.1558 20.4022 16.5263 20.1004C17.2096 19.544 17.2499 18.8078 17.2499 17.5C17.2499 16.6487 16.6285 15.7251 15.289 14.9717C13.9731 14.2315 12.1046 13.75 9.99989 13.75C7.89516 13.75 6.02669 14.2315 4.71073 14.9717Z" fill="#1C274C"/>
<path fill-rule="evenodd" clip-rule="evenodd" d="M22.7499 9.69672C22.7499 8.59954 22.1874 7.70123 21.2542 7.37409C20.5249 7.11843 19.7162 7.26275 18.9999 7.73431C18.2836 7.26275 17.4749 7.11843 16.7455 7.3741C15.8123 7.70123 15.2499 8.59955 15.2499 9.69673C15.2499 10.4666 15.6911 11.1479 16.1248 11.6493C16.5781 12.1735 17.139 12.6327 17.5991 12.9703L17.6696 13.0223C18.0208 13.282 18.4206 13.5776 18.9999 13.5776C19.5792 13.5776 19.9789 13.282 20.3302 13.0223L20.4007 12.9703C20.8608 12.6327 21.4217 12.1735 21.875 11.6493C22.3087 11.1479 22.7499 10.4666 22.7499 9.69672ZM19.5186 9.23307C20.0441 8.72986 20.5077 8.70189 20.758 8.78964C20.9873 8.87002 21.2499 9.12068 21.2499 9.69672C21.2499 9.91131 21.1087 10.2424 20.7404 10.6681C20.3918 11.0713 19.9313 11.4542 19.5134 11.7609C19.2871 11.9269 19.1797 12.0034 19.0938 12.0488C19.0394 12.0775 19.0243 12.0776 18.9999 12.0776C18.9755 12.0776 18.9604 12.0775 18.906 12.0488C18.8201 12.0034 18.7127 11.9269 18.4864 11.7609C18.0685 11.4542 17.608 11.0712 17.2593 10.6681C16.8911 10.2423 16.7499 9.91131 16.7499 9.69673C16.7499 9.12068 17.0125 8.87002 17.2418 8.78964C17.4921 8.70189 17.9556 8.72986 18.4812 9.23307C18.7712 9.51077 19.2285 9.51077 19.5186 9.23307Z" fill="#1C274C"/>
</svg>
