<svg xmlns="http://www.w3.org/2000/svg" fill="none" viewBox="0 0 24 24" width="1em" height="1em"><path fill="currentColor" fill-rule="evenodd" d="M12.25 2.834c-.46-.078-1.088-.084-2.22-.084-1.917 0-3.28.002-4.312.14-1.012.135-1.593.39-2.016.812S3.025 4.705 2.89 5.71c-.138 1.028-.14 2.383-.14 4.29v4c0 1.907.002 3.262.14 4.29.135 1.005.389 1.585.812 2.008s1.003.677 2.009.812c1.028.138 2.382.14 4.289.14h4c1.907 0 3.262-.002 4.29-.14 1.005-.135 1.585-.389 2.008-.812s.677-1.003.812-2.009c.138-1.027.14-2.382.14-4.289v-.437c0-1.536-.01-2.264-.174-2.813h-3.13c-1.133 0-2.058 0-2.79-.098-.763-.103-1.425-.325-1.954-.854s-.751-1.19-.854-1.955c-.098-.73-.098-1.656-.098-2.79zm1.5.775V5c0 1.2.002 2.024.085 2.643.08.598.224.89.428 1.094s.496.348 1.094.428c.619.083 1.443.085 2.643.085h2.02a46 46 0 0 0-1.17-1.076l-3.959-3.563A37 37 0 0 0 13.75 3.61m-3.575-2.36c1.385 0 2.28 0 3.103.315.823.316 1.485.912 2.51 1.834q.052.049.107.097l3.958 3.563.125.112c1.184 1.065 1.95 1.754 2.361 2.678s.412 1.954.411 3.546v.661c0 1.838 0 3.294-.153 4.433-.158 1.172-.49 2.121-1.238 2.87-.749.748-1.698 1.08-2.87 1.238-1.14.153-2.595.153-4.433.153H9.944c-1.838 0-3.294 0-4.433-.153-1.172-.158-2.121-.49-2.87-1.238-.748-.749-1.08-1.698-1.238-2.87-.153-1.14-.153-2.595-.153-4.433V9.944c0-1.838 0-3.294.153-4.433.158-1.172.49-2.121 1.238-2.87.75-.749 1.701-1.08 2.878-1.238 1.144-.153 2.607-.153 4.455-.153z" clip-rule="evenodd"/><path fill="currentColor" fill-rule="evenodd" d="M9.667 13.75c-.782 0-1.25.54-1.25 1.015v.017q.155.064.298.148a.75.75 0 0 1-.763 1.292.85.85 0 0 0-.452-.12c-.505 0-.75.343-.75.575 0 .23.245.573.75.573H11c.781 0 1.25-.54 1.25-1.015 0-.382-.285-.789-.815-.95a1.5 1.5 0 0 0-.878.002.75.75 0 1 1-.384-1.451 1.5 1.5 0 0 0-.506-.086m2.627.266c-.36-1.069-1.451-1.766-2.627-1.766-1.399 0-2.696.998-2.749 2.425-.914.228-1.668.981-1.668 2.002 0 1.23 1.098 2.073 2.25 2.073H11c1.428 0 2.75-1.04 2.75-2.515 0-1-.622-1.81-1.456-2.22" clip-rule="evenodd"/></svg>