<svg width="24" height="24" viewBox="0 0 24 24" fill="none" xmlns="http://www.w3.org/2000/svg">
<path d="M9.41182 21.6593C9.94111 21.8011 10.4719 21.8977 11 21.9514C15.7947 22.4391 20.3717 19.3936 21.6593 14.5882C23.0887 9.25354 19.9229 3.77017 14.5882 2.34075C11.9556 1.63535 9.28681 2.04903 7.08687 3.29018M12 12L5.00194 6.33591C4.57282 5.98859 3.93866 6.05228 3.63596 6.51396C3.06675 7.38209 2.6241 8.35434 2.34075 9.41182C1.37319 13.0228 2.51109 16.702 5.00194 19.1458M7.36915 8.18462C6.5138 9.22161 6.00001 10.5508 6.00001 12C6.00001 15.3137 8.6863 18 12 18C15.3137 18 18 15.3137 18 12C18 11.4822 17.9344 10.9798 17.8111 10.5005M10.1028 6.30614C10.6991 6.10755 11.337 6.00001 12 6.00001C13.0929 6.00001 14.1175 6.29218 15 6.80268" stroke="#1C274C" stroke-width="1.5" stroke-linecap="round"/>
</svg>
