<svg width="24" height="24" viewBox="0 0 24 24" fill="none" xmlns="http://www.w3.org/2000/svg">
<path d="M12 12L5.00194 6.33588C4.57282 5.98856 3.93866 6.05225 3.63596 6.51393C3.06675 7.38206 2.6241 8.35431 2.34075 9.41179C0.911334 14.7465 4.07716 20.2298 9.41182 21.6592C14.7465 23.0887 20.2298 19.9228 21.6593 14.5882C23.0887 9.25351 19.9229 3.77014 14.5882 2.34072C11.9556 1.63532 9.28681 2.049 7.08687 3.29015" stroke="#1C274C" stroke-width="1.5" stroke-linecap="round"/>
<path opacity="0.5" d="M9.86583 5.59455C9.47284 5.72543 9.26035 6.15012 9.39124 6.54311C9.52212 6.9361 9.9468 7.14858 10.3398 7.0177L9.86583 5.59455ZM17.25 12C17.25 14.8995 14.8995 17.25 12 17.25V18.75C15.7279 18.75 18.75 15.7279 18.75 12H17.25ZM12 17.25C9.1005 17.25 6.75 14.8995 6.75 12H5.25C5.25 15.7279 8.27208 18.75 12 18.75V17.25ZM12 6.75C14.8995 6.75 17.25 9.1005 17.25 12H18.75C18.75 8.27208 15.7279 5.25 12 5.25V6.75ZM6.75 12C6.75 10.7313 7.19908 9.56944 7.94772 8.66185L6.79057 7.70738C5.82849 8.87375 5.25 10.3703 5.25 12H6.75ZM10.3398 7.0177C10.8606 6.84424 11.4186 6.75 12 6.75V5.25C11.2554 5.25 10.5376 5.37084 9.86583 5.59455L10.3398 7.0177Z" fill="#1C274C"/>
</svg>
