<svg width="24" height="24" viewBox="0 0 24 24" fill="none" xmlns="http://www.w3.org/2000/svg">
<path fill-rule="evenodd" clip-rule="evenodd" d="M14.3941 3.0652C11.9587 2.41264 9.49128 2.79481 7.4554 3.9434C7.09464 4.14693 6.63719 4.01947 6.43366 3.65871C6.23013 3.29795 6.35758 2.8405 6.71834 2.63697C9.08235 1.30326 11.9525 0.858075 14.7823 1.61631C20.5171 3.15294 23.9203 9.04756 22.3837 14.7823C20.8471 20.5171 14.9525 23.9203 9.21771 22.3837C3.48295 20.8471 0.0796857 14.9525 1.61631 9.21771C1.92057 8.08219 2.39634 7.03676 3.00876 6.10272C3.58277 5.22727 4.74054 5.15947 5.47379 5.75294L12.4719 11.417C12.7938 11.6776 12.8436 12.1499 12.583 12.4719C12.3224 12.7938 11.8501 12.8436 11.5282 12.583L7.48846 9.31333C7.01931 10.0992 6.75001 11.0176 6.75001 12C6.75001 14.8995 9.10052 17.25 12 17.25C14.8995 17.25 17.25 14.8995 17.25 12C17.25 9.10052 14.8995 6.75001 12 6.75001C11.4186 6.75001 10.8606 6.84426 10.3398 7.01771C9.94681 7.1486 9.52213 6.93611 9.39125 6.54312C9.26037 6.15013 9.47285 5.72545 9.86584 5.59456C10.5376 5.37085 11.2554 5.25001 12 5.25001C15.7279 5.25001 18.75 8.27209 18.75 12C18.75 15.7279 15.7279 18.75 12 18.75C8.27209 18.75 5.25001 15.7279 5.25001 12C5.25001 10.6611 5.64047 9.41209 6.31331 8.36219L4.5301 6.91889C4.47426 6.8737 4.41142 6.86012 4.36153 6.86615C4.31611 6.87164 4.28535 6.89137 4.26316 6.9252C3.73717 7.72743 3.32764 8.62651 3.0652 9.60594C1.74299 14.5405 4.67138 19.6126 9.60594 20.9348C14.5405 22.257 19.6126 19.3287 20.9348 14.3941C22.257 9.45953 19.3287 4.38741 14.3941 3.0652Z" fill="#1C274C"/>
</svg>
