<svg width="24" height="24" viewBox="0 0 24 24" fill="none" xmlns="http://www.w3.org/2000/svg">
<path fill-rule="evenodd" clip-rule="evenodd" d="M18.3051 2.90667C17.5156 3.17256 16.5179 3.7374 15.0596 4.56876C14.3266 4.98669 13.6246 5.40898 13.0094 5.81397C12.308 6.27576 11.5383 6.83421 10.7553 7.43299C9.30006 8.54593 8.28922 9.32246 7.62799 10.0444C6.99973 10.7303 6.75 11.3003 6.75 12.0002C6.75 12.7001 6.99973 13.2702 7.62799 13.9561C8.28922 14.678 9.30006 15.4545 10.7553 16.5675C11.5383 17.1662 12.308 17.7247 13.0094 18.1865C13.6246 18.5915 14.3266 19.0138 15.0596 19.4317C16.5179 20.2631 17.5156 20.8279 18.3051 21.0938C19.0389 21.3409 19.4461 21.2821 19.8286 21.0129C20.2451 20.7197 20.534 20.2413 20.7353 19.2677C20.9405 18.2751 21.0258 16.9221 21.1437 15.0094C21.2091 13.9501 21.25 12.9189 21.25 12.0002C21.25 11.0816 21.2091 10.0504 21.1437 8.99103C21.0258 7.07837 20.9405 5.72532 20.7353 4.73277C20.534 3.75913 20.2451 3.28072 19.8286 2.98756C19.4461 2.71837 19.0389 2.65951 18.3051 2.90667ZM17.8263 1.48512C18.8429 1.14274 19.7919 1.12756 20.6919 1.76089C21.5577 2.37026 21.9683 3.28779 22.2042 4.42915C22.4337 5.53921 22.5238 6.99997 22.6371 8.83707L22.6409 8.89867C22.7074 9.97657 22.75 11.0406 22.75 12.0002C22.75 12.9599 22.7074 14.0239 22.6409 15.1018L22.6371 15.1634C22.5238 17.0005 22.4337 18.4612 22.2042 19.5713C21.9683 20.7127 21.5577 21.6302 20.6919 22.2396C19.7919 22.8729 18.8429 22.8577 17.8263 22.5153C16.8817 22.1972 15.7571 21.556 14.3878 20.7753L14.3167 20.7348C13.5661 20.3069 12.8349 19.8674 12.1846 19.4394C11.4437 18.9516 10.6437 18.3705 9.84409 17.759L9.78745 17.7156C8.40239 16.6564 7.28352 15.8008 6.52186 14.9692C5.71689 14.0904 5.25 13.175 5.25 12.0002C5.25 10.8254 5.71689 9.91006 6.52186 9.03122C7.28352 8.19966 8.4024 7.34401 9.78746 6.2848L9.84409 6.24149C10.6437 5.62994 11.4437 5.04885 12.1846 4.56108C12.8349 4.13302 13.5661 3.6936 14.3167 3.26565L14.3878 3.22512C15.757 2.44446 16.8816 1.80327 17.8263 1.48512ZM2 4.25023C2.41421 4.25023 2.75 4.58601 2.75 5.00023V20.0002C2.75 20.4144 2.41421 20.7502 2 20.7502C1.58579 20.7502 1.25 20.4144 1.25 20.0002V5.00023C1.25 4.58601 1.58579 4.25023 2 4.25023Z" fill="#1C274C"/>
</svg>
