<svg xmlns="http://www.w3.org/2000/svg" fill="none" viewBox="0 0 24 24" width="1em" height="1em"><path fill="currentColor" fill-rule="evenodd" d="M12 1.25a.75.75 0 0 1 .75.75v1a.75.75 0 0 1-1.5 0V2a.75.75 0 0 1 .75-.75M4.399 4.399a.75.75 0 0 1 1.06 0l.394.392a.75.75 0 0 1-1.061 1.061l-.393-.393a.75.75 0 0 1 0-1.06m15.202 0a.75.75 0 0 1 0 1.06l-.393.393a.75.75 0 1 1-1.06-1.06l.392-.393a.75.75 0 0 1 1.06 0M1.25 12a.75.75 0 0 1 .75-.75h1a.75.75 0 0 1 0 1.5H2a.75.75 0 0 1-.75-.75m19 0a.75.75 0 0 1 .75-.75h1a.75.75 0 0 1 0 1.5h-1a.75.75 0 0 1-.75-.75M4.57 18.866c.687-1.074 2.157-1.039 2.887-.104.99 1.267 2.372 2.488 4.543 2.488 2.209 0 3.57-.979 4.505-2.23.72-.962 2.286-1.119 3.04.024.626.945 1.304 1.687 2.627 1.998a.75.75 0 1 1-.344 1.46c-1.852-.436-2.808-1.533-3.534-2.631a.28.28 0 0 0-.253-.128.43.43 0 0 0-.335.177c-1.168 1.56-2.946 2.83-5.706 2.83-2.843 0-4.611-1.64-5.725-3.065a.3.3 0 0 0-.245-.125.23.23 0 0 0-.197.114c-.74 1.156-1.694 2.365-3.661 2.828a.75.75 0 1 1-.344-1.46c1.4-.33 2.08-1.14 2.742-2.176" clip-rule="evenodd"/><path fill="currentColor" d="M22.172 16.042c-1.323-.311-2.001-1.053-2.626-1.999a1.75 1.75 0 0 0-1.677-.79q.13-.607.13-1.253a6 6 0 1 0-11.905 1.062 1.7 1.7 0 0 0-1.524.804c-.663 1.035-1.341 1.846-2.742 2.176a.75.75 0 1 0 .344 1.46c1.967-.463 2.922-1.672 3.661-2.828a.23.23 0 0 1 .197-.114.3.3 0 0 1 .245.125C7.39 16.11 9.157 17.75 12 17.75c2.76 0 4.538-1.27 5.706-2.83a.43.43 0 0 1 .335-.177.28.28 0 0 1 .253.127c.726 1.1 1.682 2.196 3.534 2.632a.75.75 0 1 0 .344-1.46"/></svg>