<svg xmlns="http://www.w3.org/2000/svg" fill="none" viewBox="0 0 24 24" width="1em" height="1em"><path stroke="currentColor" stroke-linecap="round" stroke-linejoin="round" stroke-width="1.5" d="M22 16.772c-1.588-.374-2.404-1.293-3.08-2.315-.424-.64-1.355-.602-1.815.013C16.055 15.876 14.485 17 12 17c-2.507 0-4.082-1.43-5.133-2.777-.44-.562-1.28-.554-1.665.047C4.5 15.366 3.684 16.375 2 16.772" opacity=".5"/><path stroke="currentColor" stroke-linecap="round" stroke-linejoin="round" stroke-width="1.5" d="M22 21.772c-1.588-.374-2.404-1.293-3.08-2.315-.424-.64-1.355-.602-1.815.013C16.055 20.876 14.485 22 12 22c-2.507 0-4.082-1.43-5.133-2.777-.44-.562-1.28-.554-1.665.047C4.5 20.366 3.684 21.375 2 21.772"/><path stroke="currentColor" stroke-linecap="round" stroke-width="1.5" d="M17.917 11a6.002 6.002 0 0 0-11.834 0M12 2v1m10 9h-1M3 12H2"/><path stroke="currentColor" stroke-linecap="round" stroke-width="1.5" d="m19.07 4.93-.393.392m-13.355 0-.393-.393" opacity=".5"/></svg>