<svg width="24" height="24" viewBox="0 0 24 24" fill="none" xmlns="http://www.w3.org/2000/svg">
<path d="M21 10V14C21 17.7712 21 19.6569 19.8284 20.8284C18.6569 22 16.7712 22 13 22H11C7.22876 22 5.34315 22 4.17157 20.8284C3 19.6569 3 17.7712 3 14V10C3 6.22876 3 4.34315 4.17157 3.17157C5.34315 2 7.22876 2 11 2H13C16.7712 2 18.6569 2 19.8284 3.17157C20.4816 3.82475 20.7706 4.69989 20.8985 6" stroke="#1C274C" stroke-width="1.5" stroke-linecap="round"/>
<path d="M8 18H16" stroke="#1C274C" stroke-width="1.5" stroke-linecap="round"/>
<path d="M15.1236 5.52064L15.549 5.59154C16.8084 5.80144 17.5513 7.12165 17.0772 8.30711L16.4115 9.97118C16.1758 10.5606 15.5408 10.8853 14.925 10.7313C13.0045 10.2512 10.9954 10.2512 9.07502 10.7313C8.45915 10.8853 7.82422 10.5606 7.58845 9.97118L6.92282 8.30711C6.44864 7.12165 7.19157 5.80144 8.45098 5.59154L8.87641 5.52064C9.58045 5.4033 10.2894 5.3259 11 5.28845" stroke="#1C274C" stroke-width="1.5" stroke-linecap="round"/>
<path d="M10.1796 9.92893L9.50461 8.04626" stroke="#1C274C" stroke-width="1.5" stroke-linecap="round"/>
</svg>
