<svg width="24" height="24" viewBox="0 0 24 24" fill="none" xmlns="http://www.w3.org/2000/svg">
<path fill-rule="evenodd" clip-rule="evenodd" d="M17.9519 2.8739C16.1403 2.46746 13.9348 3.07363 12.294 4.71441C11.1265 5.88182 10.2154 7.6247 9.86375 9.32839C9.72886 9.98183 9.68101 10.5998 9.71967 11.1616C9.90479 10.8077 10.1194 10.4493 10.3481 10.0978C11.3191 8.60509 12.6635 7.05533 13.5766 6.14225C14.491 5.22793 15.8483 4.07638 17.1557 3.30019C17.417 3.14507 17.6842 3.0002 17.9519 2.8739ZM21.0787 2.9212C18.4781 0.320624 13.9916 0.895497 11.2333 3.65373C9.84333 5.04367 8.8011 7.05654 8.39472 9.02514C8.28045 9.5787 8.21372 10.1457 8.20842 10.7052L2.30351 16.6099C0.89883 18.0145 0.89883 20.2919 2.30351 21.6965C3.70818 23.1012 5.98558 23.1012 7.39025 21.6965L13.2958 15.7911C13.8549 15.7857 14.4215 15.719 14.9746 15.6048C16.9433 15.1985 18.9562 14.1563 20.3462 12.7663C23.1045 10.0081 23.6794 5.52181 21.0787 2.9212ZM20.0181 3.98188C19.9728 3.93661 19.8405 3.84717 19.4318 3.93093C19.0285 4.01359 18.5105 4.24035 17.9215 4.59003C16.7529 5.28377 15.4935 6.34678 14.6373 7.20293C13.7798 8.06033 12.507 9.52976 11.6055 10.9157C11.1513 11.6138 10.8205 12.2469 10.6683 12.7452C10.5925 12.9934 10.5739 13.1678 10.5821 13.2781C10.5859 13.3298 10.595 13.3585 10.6003 13.3714C10.6048 13.3823 10.6082 13.386 10.6109 13.3887C10.6136 13.3914 10.6173 13.3948 10.6283 13.3993C10.6412 13.4047 10.6698 13.4137 10.7216 13.4176C10.832 13.4258 11.0064 13.4071 11.2547 13.3313C11.753 13.1792 12.3862 12.8485 13.0844 12.3944C14.4705 11.493 15.9401 10.2204 16.7975 9.36302C17.6536 8.50692 18.7165 7.24745 19.4102 6.07876C19.7598 5.48967 19.9865 4.97159 20.0691 4.56824C20.1528 4.15951 20.0634 4.02716 20.0181 3.98188ZM12.8386 14.2799C13.1925 14.0949 13.5507 13.8805 13.9022 13.6519C15.395 12.6811 16.945 11.3368 17.8581 10.4237C18.7725 9.50933 19.924 8.15193 20.7001 6.84434C20.8551 6.58309 20.9999 6.31604 21.1262 6.04837C21.5325 7.85982 20.9262 10.065 19.2855 11.7057C18.1181 12.8731 16.3751 13.7841 14.6714 14.1358C14.0181 14.2707 13.4004 14.3185 12.8386 14.2799ZM11.422 15.5436C10.7226 15.3335 10.0812 14.9803 9.55025 14.4494C9.01954 13.9187 8.66647 13.2777 8.45624 12.5786L3.36415 17.6706C2.54528 18.4894 2.54528 19.817 3.36415 20.6359C4.18304 21.4547 5.51072 21.4547 6.32961 20.6359L11.422 15.5436Z" fill="#1C274C"/>
</svg>
