<svg width="24" height="24" viewBox="0 0 24 24" fill="none" xmlns="http://www.w3.org/2000/svg">
<path fill-rule="evenodd" clip-rule="evenodd" d="M18.9156 7.91984L16.0802 5.08443C15.1714 4.17567 14.4295 3.43367 13.7824 2.95339C13.1131 2.45661 12.3976 2.12666 11.5726 2.29326C10.7476 2.45986 10.2162 3.04161 9.79212 3.75919C9.38212 4.45293 8.98624 5.42471 8.50139 6.61487L7.53042 8.99815C7.23062 9.73404 7.14211 9.92191 7.01508 10.06C6.96452 10.1149 6.90901 10.1651 6.84925 10.2099C6.69909 10.3224 6.50326 10.3915 5.74093 10.6157L5.69426 10.6295C4.89682 10.864 4.2331 11.0592 3.73708 11.2721C3.23092 11.4895 2.74637 11.7862 2.48277 12.3157C2.34198 12.5985 2.26305 12.9081 2.25122 13.2238C2.22907 13.8149 2.51236 14.3074 2.85265 14.7406C3.18613 15.1651 3.67532 15.6542 4.26312 16.242L5.4459 17.4248L2.46981 20.4031C2.17703 20.6961 2.17703 21.1711 2.46981 21.4641C2.7626 21.7571 3.23731 21.7571 3.53009 21.4641L6.50656 18.4854L7.75803 19.7369C8.34577 20.3247 8.83495 20.8139 9.25942 21.1473C9.69258 21.4876 10.1851 21.7709 10.7762 21.7488C11.0919 21.7369 11.4015 21.658 11.6843 21.5172C12.2138 21.2536 12.5105 20.7691 12.7278 20.2629C12.9408 19.7669 13.136 19.1032 13.3705 18.3057L13.3842 18.2591C13.6085 17.4967 13.6776 17.3009 13.7901 17.1507C13.8349 17.091 13.885 17.0355 13.94 16.9849C14.0781 16.8579 14.2659 16.7694 15.0018 16.4696L17.3851 15.4986C18.5753 15.0138 19.547 14.6179 20.2408 14.2079C20.9584 13.7838 21.5401 13.2524 21.7067 12.4274C21.8733 11.6024 21.5434 10.8869 21.0466 10.2176C20.5663 9.57051 19.8243 8.82854 18.9156 7.91984ZM11.8695 3.76358C12.0782 3.72144 12.3528 3.76035 12.8884 4.15788C13.4357 4.56411 14.0999 5.22548 15.0639 6.18948L17.8105 8.9361C18.7745 9.90009 19.4359 10.5642 19.8421 11.1116C20.2396 11.6472 20.2785 11.9218 20.2364 12.1305C20.1943 12.3392 20.0518 12.5772 19.4776 12.9165C18.8908 13.2633 18.0235 13.6188 16.761 14.1332L14.3332 15.1222C13.7501 15.3591 13.2872 15.5472 12.9244 15.881C12.8017 15.9939 12.6896 16.1179 12.5896 16.2514C12.294 16.646 12.1535 17.1255 11.9764 17.7294L11.9452 17.8358C11.6934 18.692 11.5226 19.2679 11.3495 19.6711C11.1766 20.0739 11.0622 20.1513 11.0158 20.1744C10.9237 20.2203 10.8229 20.246 10.72 20.2498C10.6682 20.2518 10.5307 20.2386 10.1861 19.9678C9.841 19.6967 9.41533 19.2729 8.78428 18.6418L5.35817 15.2157C4.72711 14.5847 4.30328 14.159 4.03219 13.8139C3.76142 13.4693 3.74822 13.3318 3.75016 13.2799C3.75402 13.1771 3.77973 13.0763 3.82558 12.9842C3.84869 12.9378 3.92612 12.8234 4.32886 12.6505C4.73209 12.4773 5.308 12.3066 6.16418 12.0548L6.27058 12.0236C6.87451 11.8465 7.35402 11.706 7.74858 11.4104C7.88206 11.3104 8.00605 11.1983 8.11897 11.0756C8.45275 10.7128 8.64086 10.2499 8.87778 9.66682L9.86684 7.23897C10.3812 5.97643 10.7367 5.10916 11.0835 4.52237C11.4228 3.94816 11.6608 3.80572 11.8695 3.76358Z" fill="#1C274C"/>
</svg>
