<svg xmlns="http://www.w3.org/2000/svg" fill="none" viewBox="0 0 24 24" width="1em" height="1em"><path fill="currentColor" fill-rule="evenodd" d="M12 2.75a9.25 9.25 0 1 0 0 18.5 9.25 9.25 0 0 0 0-18.5M1.25 12C1.25 6.063 6.063 1.25 12 1.25S22.75 6.063 22.75 12 17.937 22.75 12 22.75 1.25 17.937 1.25 12" clip-rule="evenodd"/><path fill="currentColor" fill-rule="evenodd" d="M11.305 6.495a.75.75 0 0 1-.05 1.06L9.94 8.75H16a.75.75 0 0 1 0 1.5H9.94l1.315 1.195a.75.75 0 0 1-1.01 1.11l-2.75-2.5a.75.75 0 0 1 0-1.11l2.75-2.5a.75.75 0 0 1 1.06.05" clip-rule="evenodd"/><path fill="currentColor" fill-rule="evenodd" d="M12.695 11.496a.75.75 0 0 0 .05 1.059l1.315 1.195H8a.75.75 0 0 0 0 1.5h6.06l-1.315 1.195a.75.75 0 0 0 1.01 1.11l2.75-2.5a.75.75 0 0 0 0-1.11l-2.75-2.5a.75.75 0 0 0-1.06.05" clip-rule="evenodd"/></svg>