<svg xmlns="http://www.w3.org/2000/svg" fill="none" viewBox="0 0 24 24" width="1em" height="1em"><path fill="currentColor" fill-rule="evenodd" d="M12.25 2.834c-.46-.078-1.088-.084-2.22-.084-1.917 0-3.28.002-4.312.14-1.012.135-1.593.39-2.016.812S3.025 4.705 2.89 5.71c-.138 1.028-.14 2.383-.14 4.29v4c0 1.907.002 3.262.14 4.29.135 1.005.389 1.585.812 2.008s1.003.677 2.009.812c1.028.138 2.382.14 4.289.14h4c1.907 0 3.262-.002 4.29-.14 1.005-.135 1.585-.389 2.008-.812s.677-1.003.812-2.009c.138-1.027.14-2.382.14-4.289v-.437c0-1.536-.01-2.264-.174-2.813h-3.13c-1.133 0-2.058 0-2.79-.098-.763-.103-1.425-.325-1.954-.854s-.751-1.19-.854-1.955c-.098-.73-.098-1.656-.098-2.79zm1.5.775V5c0 1.2.002 2.024.085 2.643.08.598.224.89.428 1.094s.496.348 1.094.428c.619.083 1.443.085 2.643.085h2.02a46 46 0 0 0-1.17-1.076l-3.959-3.563A37 37 0 0 0 13.75 3.61m-3.575-2.36c1.385 0 2.28 0 3.103.315.823.316 1.485.912 2.51 1.834q.052.049.107.097l3.958 3.563.125.112c1.184 1.065 1.95 1.754 2.361 2.678s.412 1.954.411 3.546v.661c0 1.838 0 3.294-.153 4.433-.158 1.172-.49 2.121-1.238 2.87-.749.748-1.698 1.08-2.87 1.238-1.14.153-2.595.153-4.433.153H9.944c-1.838 0-3.294 0-4.433-.153-1.172-.158-2.121-.49-2.87-1.238-.748-.749-1.08-1.698-1.238-2.87-.153-1.14-.153-2.595-.153-4.433V9.944c0-1.838 0-3.294.153-4.433.158-1.172.49-2.121 1.238-2.87.75-.749 1.701-1.08 2.878-1.238 1.144-.153 2.607-.153 4.455-.153z" clip-rule="evenodd"/><path fill="currentColor" fill-rule="evenodd" d="M9 13.035q-.086.149-.199.353l-.098.176-.023.04c-.078.144-.208.382-.425.547-.221.168-.488.226-.643.26l-.044.009-.19.043c-.176.04-.318.072-.44.103.079.097.182.219.316.375l.13.153.03.034c.108.125.282.325.363.585.08.256.052.52.035.686l-.005.047-.02.203a25 25 0 0 0-.042.46c.105-.046.223-.1.364-.165l.179-.082.04-.02c.144-.067.393-.185.672-.185s.528.118.672.186l.04.019.179.082q.209.098.364.165l-.042-.46-.02-.203-.005-.047c-.017-.167-.045-.43.035-.686.08-.26.255-.46.363-.585l.03-.034.13-.152c.134-.157.237-.279.316-.376-.121-.03-.264-.063-.44-.103l-.19-.043-.044-.01c-.155-.033-.422-.091-.643-.26-.217-.164-.347-.402-.425-.545l-.023-.041-.098-.176q-.112-.204-.199-.354M8.014 11.8c.172-.225.484-.55.986-.55s.814.325.986.55c.165.214.33.511.5.816l.023.041.098.177.057.1.099.023.19.043.048.01c.327.075.653.148.903.247.276.109.65.32.795.785.142.455-.037.841-.193 1.09-.145.23-.365.486-.59.749l-.03.035-.13.153-.082.097c.002.036.007.078.012.135l.02.203.004.046c.034.352.067.692.055.965-.012.285-.08.716-.468 1.01-.4.304-.84.238-1.12.157-.258-.073-.563-.214-.87-.355l-.043-.02-.18-.083L9 18.185l-.085.04-.179.082-.044.02c-.306.141-.611.281-.869.355-.28.08-.72.147-1.12-.157-.387-.293-.456-.725-.468-1.01-.012-.273.02-.613.055-.965l.004-.046.02-.203.013-.135-.083-.097-.13-.153-.03-.035c-.225-.263-.445-.52-.59-.75-.156-.248-.335-.634-.193-1.09.144-.463.519-.675.795-.784.25-.099.576-.172.903-.246l.047-.01.191-.044.1-.023.056-.1.098-.177.023-.041c.17-.305.335-.602.5-.816" clip-rule="evenodd"/></svg>