<svg xmlns="http://www.w3.org/2000/svg" fill="none" viewBox="0 0 24 24" width="1em" height="1em"><path fill="currentColor" fill-rule="evenodd" d="m16.483 3.59.362.428c.395.469.464.528.534.563.072.036.166.055.785.092l.565.033c.927.054 1.704.1 2.288.219.6.122 1.213.363 1.543.985.335.631.176 1.27-.077 1.822-.243.53-.662 1.168-1.157 1.922l-.305.464c-.335.51-.363.582-.372.643-.01.06-.004.138.16.727l.133.477.016.06c.243.87.448 1.605.519 2.185.073.602.031 1.26-.48 1.76-.505.492-1.163.532-1.77.464-.593-.066-1.348-.262-2.246-.496l-.058-.015-.49-.127c-.601-.156-.696-.166-.775-.154-.076.011-.159.046-.678.37l-.475.297c-.775.485-1.428.893-1.97 1.13-.563.246-1.197.394-1.825.082-.493-.245-.757-.66-.913-1.114-3.202 1.202-5.857 3.352-6.76 5.848a.75.75 0 0 1-1.445-.129c-.634-3.717-.348-6.685.54-9.027.862-2.274 2.275-3.915 3.882-5.057.207-.473.62-.785 1.043-1.018.517-.286 1.242-.557 2.102-.88l.528-.197c.58-.217.655-.261.704-.31.047-.046.09-.112.311-.677l.18-.458.023-.057c.328-.837.605-1.545.899-2.05.306-.53.733-1.02 1.433-1.126.694-.104 1.252.232 1.712.639.445.392.943.982 1.534 1.682M6.252 9.754c-1.12.946-2.086 2.21-2.717 3.877-.598 1.575-.906 3.536-.74 5.964 1.549-2.098 4.053-3.728 6.74-4.69q-.043-.516-.08-1.123l-.037-.553c-.04-.605-.06-.682-.092-.741-.033-.063-.092-.129-.577-.513l-.443-.35c-.722-.573-1.33-1.055-1.735-1.485a4 4 0 0 1-.319-.386m4.807 5.322c-.041-.38-.073-.854-.112-1.453l-.032-.492-.007-.098c-.027-.44-.055-.868-.257-1.248-.2-.378-.538-.645-.891-.923l-.08-.063-.395-.313c-.782-.62-1.3-1.033-1.622-1.374-.31-.33-.283-.435-.281-.442 0-.007.003-.114.4-.333.408-.226 1.027-.46 1.96-.81l.471-.176.095-.035c.421-.157.825-.307 1.13-.605.31-.301.465-.7.625-1.11l.036-.093.18-.458c.356-.91.594-1.509.822-1.904.217-.374.327-.39.357-.393h.002c.034-.006.154-.024.496.279.352.31.779.813 1.42 1.572l.323.382.063.076c.29.344.565.671.95.862.382.19.81.215 1.264.24l.1.006.506.03c1.002.058 1.67.1 2.135.194.452.093.506.197.517.218v.001l.001.002c.009.013.063.101-.116.492-.19.414-.543.956-1.08 1.775l-.272.413-.055.084c-.242.367-.48.727-.545 1.152s.05.84.17 1.263l.027.097.133.476c.264.946.436 1.571.49 2.024.053.429-.027.495-.037.504h-.001l-.001.002c-.015.015-.098.098-.555.046-.473-.052-1.12-.219-2.093-.471l-.49-.128-.097-.025c-.44-.116-.855-.224-1.278-.16-.425.063-.786.29-1.167.53l-.083.051-.424.265c-.84.525-1.398.872-1.827 1.06-.417.182-.524.129-.555.113l-.003-.001c-.028-.014-.13-.063-.223-.488l-.028-.141a.75.75 0 0 0-.066-.472" clip-rule="evenodd"/></svg>