<svg width="24" height="24" viewBox="0 0 24 24" fill="none" xmlns="http://www.w3.org/2000/svg">
<path fill-rule="evenodd" clip-rule="evenodd" d="M11.4376 2.87718C11.3028 3.03311 11.1319 3.27068 10.8705 3.63797L10.7185 3.85148C10.7074 3.86721 10.6957 3.88373 10.6837 3.90089C10.5576 4.08027 10.3822 4.3297 10.1171 4.48557C9.85224 4.64128 9.54906 4.67346 9.33067 4.69664C9.30977 4.69886 9.28964 4.701 9.2704 4.70315L9.0095 4.73236C8.56313 4.78234 8.27245 4.81634 8.07025 4.85825C8.17872 5.04021 8.35531 5.28315 8.62905 5.65598L8.78617 5.86998L8.18162 6.31385L8.78617 5.86998C8.79778 5.8858 8.80995 5.90219 8.82255 5.91915C8.95554 6.09828 9.13557 6.34078 9.20311 6.63767C9.27095 6.93588 9.21251 7.23225 9.16965 7.44965C9.1656 7.4702 9.16168 7.49004 9.15803 7.5091L9.10846 7.76787C9.02005 8.22938 8.9651 8.52445 8.94701 8.73397C9.14987 8.68994 9.43202 8.59952 9.87226 8.45589L10.1213 8.37464C10.1397 8.36866 10.1588 8.36231 10.1786 8.35572C10.3872 8.28636 10.6752 8.19061 10.9808 8.22214C11.2845 8.25348 11.5475 8.40471 11.7399 8.51534C11.7582 8.52588 11.7759 8.53605 11.793 8.54572L12.0232 8.67643C12.4172 8.90007 12.6757 9.04521 12.8668 9.13162C12.8832 8.92354 12.8811 8.62849 12.8756 8.17799L12.8724 7.91378C12.8722 7.89425 12.8718 7.87388 12.8715 7.85276C12.8676 7.6315 12.8622 7.32761 12.9822 7.04634C13.1029 6.76347 13.327 6.55797 13.4887 6.40968C13.5041 6.39556 13.5189 6.38196 13.5331 6.36886L13.7249 6.19088C14.0619 5.87836 14.277 5.67668 14.4139 5.5216C14.2209 5.43584 13.9352 5.34087 13.4881 5.19475L13.2371 5.11271C13.2186 5.10666 13.1993 5.10047 13.1793 5.09406C12.9677 5.02616 12.6804 4.93395 12.4523 4.73098C12.2249 4.52857 12.0993 4.2542 12.0065 4.05129C11.9977 4.0321 11.9892 4.01356 11.981 3.99578L11.8693 3.75506C11.6733 3.33256 11.5452 3.05996 11.4376 2.87718ZM11.5907 2.72492C11.5907 2.72495 11.59 2.72541 11.5887 2.72617C11.59 2.72527 11.5907 2.72488 11.5907 2.72492ZM11.317 2.70292C11.3156 2.70169 11.3148 2.70096 11.3148 2.70091C11.3148 2.70086 11.3156 2.70148 11.317 2.70292ZM14.5933 5.61824C14.5932 5.61824 14.5925 5.61764 14.5911 5.61642C14.5926 5.61762 14.5933 5.61823 14.5933 5.61824ZM14.5364 5.36066C14.5369 5.35929 14.5373 5.35858 14.5373 5.35857C14.5374 5.35855 14.5371 5.35924 14.5364 5.36066ZM12.8318 9.35556C12.8318 9.35552 12.8321 9.35461 12.8328 9.35295C12.8322 9.35478 12.8318 9.35561 12.8318 9.35556ZM13.0767 9.20862C13.0786 9.20879 13.0796 9.20896 13.0796 9.209L13.0767 9.20862ZM8.7471 8.76189C8.74713 8.76187 8.74796 8.7619 8.7495 8.76207L8.7471 8.76189ZM8.94434 8.93268C8.94476 8.93438 8.94492 8.9353 8.9449 8.93534L8.94434 8.93268ZM7.97278 4.66212C7.97282 4.66215 7.97311 4.66314 7.9735 4.66502C7.97293 4.66304 7.97273 4.6621 7.97278 4.66212ZM7.86094 4.91779C7.85959 4.91859 7.85883 4.91896 7.8588 4.91895C7.85876 4.91894 7.85944 4.91854 7.86094 4.91779ZM10.4282 1.75864C10.6772 1.50075 11.0612 1.20301 11.5983 1.25844C12.1303 1.31333 12.4481 1.67784 12.6439 1.97694C12.8298 2.26091 13.0113 2.65221 13.2082 3.07674C13.2154 3.09238 13.2227 3.10807 13.23 3.12381L13.3417 3.36452C13.3731 3.43214 13.3973 3.48425 13.4189 3.52899C13.4344 3.56108 13.4463 3.58476 13.4559 3.60269C13.4744 3.60988 13.4988 3.61875 13.5316 3.63005C13.5783 3.64611 13.6325 3.66387 13.7031 3.68692L13.9541 3.76896C13.9706 3.77436 13.9871 3.77974 14.0035 3.78511C14.4459 3.92961 14.8546 4.06311 15.158 4.21432C15.4795 4.3746 15.8752 4.64736 15.9933 5.1668C16.1123 5.68979 15.8695 6.10629 15.6449 6.38769C15.4345 6.65126 15.1211 6.94192 14.7836 7.25483C14.7708 7.26673 14.7579 7.27866 14.745 7.29062L14.5531 7.4686C14.4992 7.51864 14.4579 7.55702 14.4227 7.59071C14.4013 7.61119 14.3849 7.62735 14.3722 7.64032C14.3715 7.65932 14.371 7.68351 14.3709 7.71492C14.3708 7.76428 14.3714 7.82141 14.3723 7.89565L14.3755 8.15987C14.3757 8.17737 14.3759 8.19483 14.3762 8.21224C14.3819 8.67752 14.3871 9.10775 14.3416 9.44282C14.2937 9.79589 14.1622 10.2662 13.6962 10.5402C13.2309 10.8138 12.7561 10.701 12.424 10.5722C12.1084 10.4498 11.7338 10.2371 11.3281 10.0067C11.313 9.99811 11.2979 9.98951 11.2827 9.98089L11.0524 9.85018C10.9877 9.81345 10.9379 9.78518 10.8945 9.76141C10.8659 9.74577 10.8439 9.73418 10.8265 9.72545C10.8087 9.73032 10.7861 9.73692 10.7569 9.74593C10.7103 9.76033 10.6566 9.77783 10.5866 9.80067L10.3375 9.88192C10.3208 9.88737 10.3042 9.8928 10.2876 9.89822C9.8495 10.0412 9.44288 10.1739 9.11003 10.2298C8.75474 10.2895 8.27377 10.2995 7.87407 9.94384C7.47608 9.58968 7.42786 9.11201 7.44299 8.75252C7.45723 8.41422 7.53806 7.99262 7.62544 7.53685C7.6287 7.51983 7.63197 7.50277 7.63525 7.48566L7.68482 7.22689L8.42143 7.368L7.68482 7.22689C7.69875 7.15417 7.70944 7.09826 7.71793 7.04981C7.72376 7.01655 7.72772 6.99147 7.73038 6.97209C7.7193 6.95516 7.70442 6.93343 7.68401 6.90471C7.65521 6.86418 7.6212 6.81783 7.57707 6.75772L7.41995 6.54372L7.94627 6.15729L7.41995 6.54372C7.40968 6.52973 7.39943 6.51578 7.38922 6.50187C7.11209 6.12454 6.85667 5.77677 6.69756 5.47703C6.53021 5.16177 6.36325 4.70644 6.57363 4.2134C6.78586 3.71603 7.23405 3.52532 7.57976 3.43323C7.90558 3.34644 8.33137 3.29884 8.79023 3.24754C8.80764 3.24559 8.8251 3.24364 8.8426 3.24168L9.1035 3.21247C9.17684 3.20425 9.23313 3.19793 9.28164 3.19172C9.3103 3.18805 9.33272 3.18485 9.35053 3.18202C9.36155 3.16795 9.3751 3.15008 9.39203 3.12707C9.42095 3.08778 9.45373 3.04175 9.49645 2.98173L9.6484 2.76822C9.65862 2.75385 9.66882 2.73952 9.67899 2.72523C9.94609 2.34979 10.1942 2.0011 10.4282 1.75864ZM22.6478 9.12205C22.8565 9.47984 22.7357 9.93908 22.3779 10.1478C16.6662 13.4796 15.25 18.8588 15.25 22C15.25 22.4142 14.9142 22.75 14.5 22.75C14.0858 22.75 13.75 22.4142 13.75 22C13.75 18.4744 15.3338 12.5203 21.6221 8.85212C21.9799 8.64341 22.4391 8.76426 22.6478 9.12205ZM11.2059 11.2788C11.6041 11.3926 11.8348 11.8077 11.721 12.206C11.3545 13.4886 11.2666 15.3496 11.3245 17.2142C11.3818 19.0599 11.5786 20.8295 11.7411 21.8859C11.8041 22.2953 11.5233 22.6782 11.1139 22.7412C10.7045 22.8042 10.3215 22.5234 10.2585 22.114C10.0877 21.0038 9.88456 19.1733 9.82518 17.2607C9.7664 15.367 9.84515 13.3113 10.2787 11.7939C10.3925 11.3956 10.8076 11.165 11.2059 11.2788Z" fill="#1C274C"/>
<path d="M5.00012 13.2676C5.00012 13.2676 5.64973 14.0154 6.2227 14.1689C6.79567 14.3225 7.73217 13.9996 7.73217 13.9996C7.73217 13.9996 6.98434 14.6492 6.83081 15.2222C6.67729 15.7952 7.00012 16.7317 7.00012 16.7317C7.00012 16.7317 6.3505 15.9839 5.77753 15.8303C5.20457 15.6768 4.26807 15.9996 4.26807 15.9996C4.26807 15.9996 5.01589 15.35 5.16942 14.777C5.32295 14.2041 5.00012 13.2676 5.00012 13.2676Z" stroke="#1C274C" stroke-linejoin="round"/>
</svg>
