<svg xmlns="http://www.w3.org/2000/svg" fill="none" viewBox="0 0 24 24" width="1em" height="1em"><path fill="currentColor" d="M7.5 18a1.5 1.5 0 1 1 0 3 1.5 1.5 0 0 1 0-3m9 0a1.5 1.5 0 1 1 0 3 1.5 1.5 0 0 1 0-3"/><path fill="currentColor" d="M3.04 2.292a.75.75 0 0 0-.497 1.416l.261.091c.668.235 1.107.39 1.43.549.303.149.436.27.524.398.09.132.16.314.2.677.04.38.042.875.042 1.615V9.64c0 2.942.063 3.912.93 4.826.735.776 1.85.893 3.875.91l1.524.004h4.953c1.561 0 2.342 0 2.893-.45.552-.45.71-1.214 1.025-2.742l.5-2.425c.347-1.74.52-2.609.076-3.186-.424-.552-1.83-.576-3.426-.577H6.492a9 9 0 0 0-.043-.738c-.054-.497-.17-.95-.452-1.362-.284-.416-.662-.682-1.103-.899-.412-.202-.936-.386-1.552-.603z" opacity=".6"/><path fill="currentColor" d="m8.15 6 1.654 9.377 1.524.003L9.673 6zm7.676 0-1.655 9.38h1.524L17.35 6z"/></svg>