<svg xmlns="http://www.w3.org/2000/svg" fill="none" viewBox="0 0 24 24" width="1em" height="1em"><g clip-path="url(#a)"><path stroke="currentColor" stroke-linecap="round" stroke-width="1.5" d="M20 10c0-3.771 0-5.657-1.172-6.828C17.765 2.109 16.114 2.01 13 2m7 12c0 3.771 0 5.657-1.172 6.828S15.771 22 12 22s-5.657 0-6.828-1.172S4 17.772 4 14v-2.999"/><path fill="currentColor" d="M3.73 5h-.75zm0 .8-.554.506a.75.75 0 0 0 1.108 0zm1.284-.294a.75.75 0 1 0-1.108-1.012zm-1.46-1.012a.75.75 0 0 0-1.108 1.012zM11.27 4.2l.554-.506a.75.75 0 0 0-1.108 0zm-1.284.294a.75.75 0 0 0 1.108 1.012zm1.46 1.012a.75.75 0 0 0 1.108-1.012zm-5.87 1.8A.75.75 0 0 0 4.461 8.31zM9.54 2.83a.75.75 0 0 0 1.17-.938zM7.38.25C4.886.25 2.98 2.443 2.98 5h1.5c0-1.86 1.36-3.25 2.9-3.25zM2.981 5v.8h1.5V5zm1.303 1.306.73-.8-1.108-1.012-.73.8zm0-1.012-.73-.8-1.108 1.012.73.8zM7.62 9.75c2.494 0 4.4-2.193 4.4-4.75h-1.5c0 1.86-1.36 3.25-2.9 3.25zM12.02 5v-.8h-1.5V5zm-1.303-1.306-.73.8 1.108 1.012.73-.8zm0 1.012.73.8 1.108-1.012-.73-.8zM4.46 8.309c.79.879 1.907 1.441 3.158 1.441v-1.5c-.785 0-1.509-.35-2.043-.944zm6.249-6.417C9.914.9 8.726.25 7.381.25v1.5c.843 0 1.617.404 2.159 1.08z"/><path stroke="currentColor" stroke-linecap="round" stroke-width="1.5" d="M15 19H9"/></g><defs><clipPath id="a"><path fill="currentColor" d="M0 0h24v24H0z"/></clipPath></defs></svg>