<svg width="24" height="24" viewBox="0 0 24 24" fill="none" xmlns="http://www.w3.org/2000/svg">
<path opacity="0.5" d="M3.33995 16.9997C6.10138 21.7826 12.2173 23.4214 17.0002 20.66C18.9498 19.5344 20.377 17.8514 21.1967 15.9286C22.388 13.1341 22.2963 9.83304 20.6605 6.99972C19.0246 4.1664 16.2117 2.43642 13.196 2.07088C11.1209 1.81935 8.94981 2.21386 7.00021 3.33946C2.21728 6.10089 0.578527 12.2168 3.33995 16.9997Z" fill="#1C274C"/>
<path d="M13.9402 2.18959C13.6937 2.14072 13.4453 2.10107 13.1954 2.07079C12.9447 2.04039 12.6925 2.01943 12.4395 2.00806C12.4299 2.05083 12.4186 2.10357 12.4062 2.16575C12.3714 2.34022 12.3282 2.58947 12.2908 2.90189C12.2416 3.31317 12.5351 3.68649 12.9463 3.73574C13.3576 3.78498 13.7309 3.49149 13.7802 3.08022C13.8126 2.80952 13.8494 2.59862 13.8773 2.45872C13.8912 2.3888 13.9029 2.33672 13.9106 2.3039C13.9144 2.2875 13.9173 2.27591 13.9189 2.26933L13.9202 2.26416L13.9205 2.26304L13.9402 2.18959Z" fill="#1C274C"/>
<path d="M2.53369 8.77495C2.61473 8.53674 2.70476 8.30145 2.80361 8.06965C2.90257 7.8376 3.01038 7.60903 3.12689 7.38452C3.16877 7.39759 3.22017 7.41418 3.2803 7.43458C3.44877 7.49172 3.68623 7.57892 3.97551 7.70274C4.3563 7.86573 4.53287 8.30656 4.36988 8.68736C4.20688 9.06815 3.76605 9.24472 3.38526 9.08173C3.13462 8.97445 2.93356 8.9009 2.79846 8.85508C2.73095 8.83218 2.68002 8.81624 2.64775 8.8065C2.63162 8.80163 2.62015 8.79832 2.61363 8.79646L2.60894 8.79512L2.53369 8.77495Z" fill="#1C274C"/>
<path d="M11.5601 21.9912C11.3072 21.9799 11.0552 21.9589 10.8045 21.9285C10.5545 21.8983 10.306 21.8586 10.0594 21.8097L10.0791 21.7361L10.0794 21.735L10.0807 21.7298C10.0824 21.7233 10.0852 21.7117 10.0891 21.6953C10.0968 21.6624 10.1084 21.6104 10.1224 21.5405C10.1502 21.4006 10.1871 21.1897 10.2195 20.919C10.2687 20.5077 10.6421 20.2142 11.0533 20.2634C11.4646 20.3127 11.7581 20.686 11.7088 21.0973C11.6714 21.4097 11.6282 21.659 11.5935 21.8334C11.5811 21.8957 11.5698 21.9484 11.5601 21.9912Z" fill="#1C274C"/>
<path d="M21.4656 15.2241C21.3847 15.462 21.2948 15.697 21.1962 15.9285C21.0971 16.1609 20.9891 16.3897 20.8725 16.6146C20.8307 16.6015 20.7794 16.5849 20.7194 16.5646C20.5509 16.5075 20.3134 16.4203 20.0242 16.2964C19.6434 16.1334 19.4668 15.6926 19.6298 15.3118C19.7928 14.931 20.2336 14.7545 20.6144 14.9174C20.865 15.0247 21.0661 15.0983 21.2012 15.1441C21.2687 15.167 21.3196 15.1829 21.3519 15.1927C21.368 15.1975 21.3795 15.2009 21.386 15.2027L21.3906 15.204L21.4656 15.2241Z" fill="#1C274C"/>
<path d="M13.7535 5.41418C13.7159 5.00168 13.3511 4.69773 12.9386 4.7353C12.5261 4.77287 12.2221 5.13773 12.2597 5.55024C12.3148 6.15546 12.4171 6.81409 12.5891 7.50779C12.6887 7.90985 13.0954 8.155 13.4974 8.05537C13.8995 7.95574 14.1446 7.54904 14.045 7.14699C13.893 6.53349 13.8024 5.95046 13.7535 5.41418Z" fill="#1C274C"/>
<path d="M6.2846 8.99996C5.94615 8.76117 5.4782 8.84196 5.23941 9.18042C5.00062 9.51887 5.08141 9.98683 5.41987 10.2256C5.85987 10.5361 6.31948 10.9061 6.77477 11.3445C7.07314 11.6318 7.54793 11.6228 7.83524 11.3244C8.12255 11.0261 8.11358 10.5513 7.81521 10.264C7.3004 9.76824 6.78118 9.35031 6.2846 8.99996Z" fill="#1C274C"/>
<path d="M14.8368 9.34708C14.6574 8.97373 14.2094 8.81649 13.836 8.99587C13.4626 9.17526 13.3054 9.62334 13.4848 9.9967C13.6246 10.2878 13.7787 10.5808 13.9484 10.8746C14.118 11.1684 14.2947 11.4484 14.4769 11.715C14.7105 12.0571 15.1772 12.1449 15.5192 11.9113C15.8612 11.6776 15.9491 11.211 15.7155 10.8689C15.5543 10.6331 15.3978 10.3851 15.2474 10.1246C15.097 9.86405 14.9605 9.60457 14.8368 9.34708Z" fill="#1C274C"/>
<path d="M9.5228 12.2841C9.28916 11.9421 8.82248 11.8543 8.48045 12.0879C8.13842 12.3215 8.05056 12.7882 8.2842 13.1302C8.44533 13.3661 8.60181 13.614 8.75224 13.8746C8.90266 14.1351 9.03913 14.3946 9.16284 14.6521C9.34222 15.0254 9.79031 15.1827 10.1637 15.0033C10.537 14.8239 10.6943 14.3758 10.5149 14.0025C10.375 13.7114 10.2209 13.4184 10.0513 13.1246C9.88163 12.8308 9.70495 12.5508 9.5228 12.2841Z" fill="#1C274C"/>
<path d="M17.2249 12.6547C16.9265 12.3674 16.4517 12.3764 16.1644 12.6747C15.8771 12.9731 15.8861 13.4479 16.1844 13.7352C16.6993 14.2309 17.2185 14.6489 17.7151 14.9992C18.0535 15.238 18.5215 15.1572 18.7603 14.8188C18.999 14.4803 18.9183 14.0123 18.5798 13.7736C18.1398 13.4631 17.6802 13.0931 17.2249 12.6547Z" fill="#1C274C"/>
<path d="M11.4106 16.4914C11.311 16.0893 10.9043 15.8442 10.5022 15.9438C10.1002 16.0434 9.85501 16.4501 9.95465 16.8522C10.1067 17.4657 10.1973 18.0487 10.2462 18.585C10.2837 18.9975 10.6486 19.3014 11.0611 19.2639C11.4736 19.2263 11.7775 18.8614 11.74 18.4489C11.6848 17.8437 11.5825 17.1851 11.4106 16.4914Z" fill="#1C274C"/>
</svg>
