<svg width="24" height="24" viewBox="0 0 24 24" fill="none" xmlns="http://www.w3.org/2000/svg">
<path d="M3.33971 17C6.10113 21.7829 12.217 23.4216 17 20.6602C18.9496 19.5346 20.3768 17.8516 21.1965 15.9288C22.3878 13.1344 22.296 9.83328 20.6602 6.99996C19.0244 4.16664 16.2114 2.43666 13.1957 2.07112C11.1207 1.81959 8.94957 2.2141 6.99996 3.33971C2.21703 6.10113 0.578283 12.217 3.33971 17Z" stroke="#1C274C" stroke-width="1.5"/>
<path d="M13.1958 2.07104C13.1958 2.07104 12.0981 6.16976 14.5981 10.4999C17.0981 14.83 21.1965 15.9287 21.1965 15.9287M2.80347 8.07104C2.80347 8.07104 6.90191 9.16976 9.40191 13.4999C11.9019 17.83 10.8042 21.9287 10.8042 21.9287" stroke="#1C274C" stroke-width="1.5" stroke-dasharray="1.5 2"/>
</svg>
