<svg width="24" height="24" viewBox="0 0 24 24" fill="none" xmlns="http://www.w3.org/2000/svg">
<path fill-rule="evenodd" clip-rule="evenodd" d="M12.9388 4.73567C13.3513 4.6981 13.7162 5.00204 13.7538 5.41455C13.8026 5.95082 13.8932 6.53385 14.0453 7.14735C14.1449 7.5494 13.8997 7.9561 13.4977 8.05573C13.0956 8.15537 12.6889 7.91021 12.5893 7.50816C12.4174 6.81445 12.3151 6.15583 12.2599 5.5506C12.2224 5.1381 12.5263 4.77324 12.9388 4.73567ZM5.23966 9.18078C5.47845 8.84233 5.9464 8.76153 6.28486 9.00032C6.78144 9.35067 7.30065 9.7686 7.81547 10.2643C8.11384 10.5516 8.1228 11.0264 7.83549 11.3248C7.54818 11.6232 7.07339 11.6321 6.77502 11.3448C6.31973 10.9064 5.86013 10.5364 5.42012 10.226C5.08167 9.98719 5.00087 9.51924 5.23966 9.18078ZM13.8363 8.99623C14.2096 8.81685 14.6577 8.97409 14.8371 9.34745C14.9608 9.60493 15.0973 9.86441 15.2477 10.1249C15.3981 10.3855 15.5546 10.6334 15.7157 10.8693C15.9494 11.2113 15.8615 11.678 15.5195 11.9116C15.1774 12.1453 14.7108 12.0574 14.4771 11.7154C14.295 11.4487 14.1183 11.1688 13.9486 10.8749C13.779 10.5811 13.6249 10.2881 13.485 9.99706C13.3057 9.6237 13.4629 9.17562 13.8363 8.99623ZM8.48071 12.0883C8.82274 11.8546 9.28941 11.9425 9.52305 12.2845C9.7052 12.5512 9.88189 12.8311 10.0515 13.1249C10.2212 13.4188 10.3753 13.7118 10.5151 14.0028C10.6945 14.3762 10.5373 14.8243 10.1639 15.0037C9.79056 15.183 9.34248 15.0258 9.16309 14.6524C9.03938 14.395 8.90291 14.1355 8.75249 13.8749C8.60207 13.6144 8.44559 13.3665 8.28446 13.1306C8.05081 12.7886 8.13868 12.3219 8.48071 12.0883ZM16.1647 12.6751C16.452 12.3767 16.9268 12.3678 17.2252 12.6551C17.6804 13.0935 18.14 13.4635 18.5801 13.7739C18.9185 14.0127 18.9993 14.4807 18.7605 14.8191C18.5217 15.1576 18.0538 15.2384 17.7153 14.9996C17.2187 14.6492 16.6995 14.2313 16.1847 13.7356C15.8863 13.4482 15.8774 12.9735 16.1647 12.6751ZM10.5025 15.9442C10.9045 15.8445 11.3112 16.0897 11.4109 16.4917C11.5828 17.1854 11.6851 17.8441 11.7402 18.4493C11.7778 18.8618 11.4739 19.2267 11.0613 19.2642C10.6488 19.3018 10.284 18.9979 10.2464 18.5854C10.1976 18.0491 10.1069 17.466 9.9549 16.8525C9.85527 16.4505 10.1004 16.0438 10.5025 15.9442Z" fill="#1C274C"/>
<path fill-rule="evenodd" clip-rule="evenodd" d="M13.2861 1.32656C11.0553 1.05616 8.72017 1.48058 6.62509 2.69018C1.48344 5.65871 -0.278218 12.2333 2.69031 17.375C5.65884 22.5166 12.2334 24.2783 17.3751 21.3097C19.4702 20.1001 21.0053 18.29 21.8865 16.2229C23.1663 13.2208 23.0686 9.67119 21.3099 6.62495C19.5511 3.57871 16.5259 1.71926 13.2861 1.32656ZM13.7804 3.08058C13.7312 3.49185 13.3579 3.78534 12.9466 3.7361C12.5353 3.68686 12.2418 3.31353 12.2911 2.90226C12.2972 2.85105 12.3035 2.80154 12.3099 2.75378C10.6383 2.69604 8.93121 3.09078 7.37509 3.98921C5.81975 4.88719 4.62386 6.16864 3.83788 7.64519C3.8824 7.66353 3.92839 7.68282 3.97576 7.7031C4.35656 7.86609 4.53312 8.30692 4.37013 8.68772C4.20714 9.06852 3.76631 9.24508 3.38551 9.08209C3.3358 9.06081 3.28804 9.04086 3.24236 9.02219C2.41548 11.4573 2.6025 14.2228 3.98935 16.6249C5.37621 19.0271 7.67776 20.5718 10.2 21.0732C10.2067 21.0243 10.2133 20.973 10.2197 20.9193C10.269 20.508 10.6423 20.2146 11.0536 20.2638C11.4649 20.313 11.7583 20.6864 11.7091 21.0976C11.703 21.1488 11.6967 21.1983 11.6903 21.246C13.362 21.3036 15.0698 20.9087 16.6251 20.0107C18.1812 19.1123 19.3766 17.8313 20.1624 16.3548C20.1178 16.3364 20.0718 16.3171 20.0244 16.2968C19.6436 16.1338 19.4671 15.693 19.63 15.3122C19.793 14.9314 20.2339 14.7548 20.6147 14.9178C20.6644 14.9391 20.7121 14.959 20.7578 14.9777C21.5852 12.5413 21.3974 9.77663 20.0108 7.37495C18.6242 4.97327 16.3238 3.42833 13.8001 2.92663C13.7935 2.97554 13.7869 3.02688 13.7804 3.08058Z" fill="#1C274C"/>
</svg>
