<svg width="24" height="24" viewBox="0 0 24 24" fill="none" xmlns="http://www.w3.org/2000/svg">
<path opacity="0.5" fill-rule="evenodd" clip-rule="evenodd" d="M3.17157 4.17148C2 5.34306 2 7.22867 2 10.9999V12.9999C2 16.7711 2 18.6568 3.17157 19.8283C4.34315 20.9999 6.22876 20.9999 10 20.9999H14C14.0843 20.9999 14.9176 21 15 20.9999L15 2.99994C14.9176 2.99993 14.0843 2.99991 14 2.99991H10C6.22876 2.99991 4.34315 2.99991 3.17157 4.17148Z" fill="#1C274C"/>
<path d="M22 13V11C22 7.22876 22 5.34315 20.8284 4.17157C19.8541 3.19724 17.6359 3.03321 15 3.00559V20.9944C17.6359 20.9668 19.8541 20.8028 20.8284 19.8284C22 18.6569 22 16.7712 22 13Z" fill="#1C274C"/>
<path d="M9.26334 13.2978C9.65118 13.4433 9.84769 13.8756 9.70225 14.2634L8.20225 18.2634C8.05681 18.6513 7.6245 18.8478 7.23666 18.7023C6.84882 18.5569 6.65231 18.1246 6.79775 17.7367L8.29775 13.7367C8.44319 13.3489 8.8755 13.1524 9.26334 13.2978Z" fill="#1C274C"/>
<path d="M6.53033 13.4698C6.82322 13.7626 6.82322 14.2375 6.53033 14.5304L6.06066 15.0001L6.53033 15.4698C6.82322 15.7626 6.82322 16.2375 6.53033 16.5304C6.23744 16.8233 5.76256 16.8233 5.46967 16.5304L4.46967 15.5304C4.17678 15.2375 4.17678 14.7626 4.46967 14.4698L5.46967 13.4698C5.76256 13.1769 6.23744 13.1769 6.53033 13.4698Z" fill="#1C274C"/>
<path d="M9.96967 15.4698C10.2626 15.1769 10.7374 15.1769 11.0303 15.4698L12.0303 16.4698C12.3232 16.7626 12.3232 17.2375 12.0303 17.5304L11.0303 18.5304C10.7374 18.8233 10.2626 18.8233 9.96967 18.5304C9.67678 18.2375 9.67678 17.7626 9.96967 17.4698L10.4393 17.0001L9.96967 16.5304C9.67678 16.2375 9.67678 15.7626 9.96967 15.4698Z" fill="#1C274C"/>
</svg>
