<svg width="24" height="24" viewBox="0 0 24 24" fill="none" xmlns="http://www.w3.org/2000/svg">
<path d="M15.3893 15.3893C15.9751 14.8035 16.0542 13.9329 15.5661 13.4448C15.0779 12.9566 14.2073 13.0358 13.6215 13.6216C13.0358 14.2074 12.1652 14.2865 11.677 13.7983C11.1888 13.3102 11.268 12.4396 11.8538 11.8538M15.3893 15.3893L15.7429 15.7429M15.3893 15.3893C14.9883 15.7903 14.4539 15.9539 14 15.8606M11.5002 11.5002L11.8538 11.8538M11.8538 11.8538C12.185 11.5226 12.6073 11.3533 13 11.357" stroke="#1C274C" stroke-width="1.5" stroke-linecap="round"/>
<path d="M8.60693 10.8789C9.7115 10.8789 10.6069 9.98348 10.6069 8.87891C10.6069 7.77434 9.7115 6.87891 8.60693 6.87891C7.50236 6.87891 6.60693 7.77434 6.60693 8.87891" stroke="#1C274C" stroke-width="1.5" stroke-linecap="round"/>
<path d="M16.1369 4.72848C14.5914 3.18295 13.8186 2.41018 12.816 2.12264C11.8134 1.83509 10.7485 2.08083 8.61875 2.57231L7.39057 2.85574C5.59881 3.26922 4.70292 3.47597 4.08944 4.08944C3.47597 4.70292 3.26922 5.59881 2.85574 7.39057L2.57231 8.61875C2.08083 10.7485 1.83509 11.8134 2.12264 12.816C2.41018 13.8186 3.18295 14.5914 4.72848 16.1369L6.55812 17.9665C9.24711 20.6555 10.5916 22 12.2623 22C13.933 22 15.2775 20.6555 17.9665 17.9665C20.6555 15.2775 22 13.933 22 12.2623C22 10.9198 21.1319 9.788 19.3957 8" stroke="#1C274C" stroke-width="1.5" stroke-linecap="round"/>
</svg>
