<svg width="24" height="24" viewBox="0 0 24 24" fill="none" xmlns="http://www.w3.org/2000/svg">
<path d="M4.72848 16.1369C3.18295 14.5914 2.41018 13.8186 2.12264 12.816C1.83509 11.8134 2.08083 10.7486 2.57231 8.61881L2.85574 7.39063C3.26922 5.59887 3.47597 4.70298 4.08944 4.08951C4.70292 3.47603 5.5988 3.26928 7.39057 2.8558L8.61875 2.57237C10.7485 2.08089 11.8134 1.83516 12.816 2.1227C13.8186 2.41024 14.5914 3.18301 16.1369 4.72855L17.9665 6.55818C20.6555 9.24717 22 10.5917 22 12.2624C22 13.9331 20.6555 15.2776 17.9665 17.9666C15.2775 20.6556 13.933 22.0001 12.2623 22.0001C10.5916 22.0001 9.24711 20.6556 6.55812 17.9666L4.72848 16.1369Z" stroke="#1C274C" stroke-width="1.5"/>
<path d="M15.3893 15.3893C15.9751 14.8035 16.0542 13.9329 15.5661 13.4448C15.0779 12.9566 14.2073 13.0358 13.6215 13.6216C13.0358 14.2074 12.1652 14.2865 11.677 13.7983C11.1888 13.3102 11.268 12.4396 11.8538 11.8538M15.3893 15.3893L15.7429 15.7429M15.3893 15.3893C14.9883 15.7903 14.4539 15.9539 14 15.8606M11.5002 11.5002L11.8538 11.8538M11.8538 11.8538C12.185 11.5226 12.6073 11.3533 13 11.357" stroke="#1C274C" stroke-width="1.5" stroke-linecap="round"/>
<circle cx="8.60699" cy="8.87915" r="2" transform="rotate(-45 8.60699 8.87915)" stroke="#1C274C" stroke-width="1.5"/>
</svg>
