<svg xmlns="http://www.w3.org/2000/svg" fill="none" viewBox="0 0 24 24" width="1em" height="1em"><circle cx="12" cy="12" r="2" stroke="currentColor" stroke-width="1.5"/><path stroke="currentColor" stroke-linecap="round" stroke-width="1.5" d="M6 12h4m4 0h4m-9 5.196 2-3.464m2-3.464 2-3.464m0 10.392-2-3.464m-2-3.464L9 6.804M7 3.338A9.95 9.95 0 0 1 12 2c5.523 0 10 4.477 10 10s-4.477 10-10 10S2 17.523 2 12c0-1.821.487-3.53 1.338-5"/><path stroke="currentColor" stroke-linecap="round" stroke-width="1.5" d="M15 17.197A6 6 0 1 1 17.197 15"/></svg>