<svg width="24" height="24" viewBox="0 0 24 24" fill="none" xmlns="http://www.w3.org/2000/svg">
<path d="M8.50573 10.7144C8.50573 9.79392 9.2609 9.04772 10.1924 9.04772C11.124 9.04772 11.8792 9.79392 11.8792 10.7144C11.8792 11.6349 11.124 12.3811 10.1924 12.3811C9.2609 12.3811 8.50573 11.6349 8.50573 10.7144Z" fill="#1C274C"/>
<path fill-rule="evenodd" clip-rule="evenodd" d="M2 10.7143C2 8.02057 2 6.67369 2.84691 5.83684C3.69381 5 5.05688 5 7.78303 5H12.6022C15.3284 5 16.6914 5 17.5384 5.83684C18.3853 6.67369 18.3853 8.02057 18.3853 10.7143C18.3853 13.4081 18.3853 14.755 17.5384 15.5918C16.6914 16.4287 15.3284 16.4287 12.6022 16.4287H7.78303C5.05688 16.4287 3.69381 16.4287 2.84691 15.5918C2 14.755 2 13.4081 2 10.7143ZM7.05997 10.7144C7.05997 9.00494 8.46243 7.61914 10.1924 7.61914C11.9225 7.61914 13.3249 9.00494 13.3249 10.7144C13.3249 12.4239 11.9225 13.8097 10.1924 13.8097C8.46243 13.8097 7.05997 12.4239 7.05997 10.7144ZM4.16846 12.6192C4.16846 13.0137 4.4921 13.3335 4.89134 13.3335C5.29057 13.3335 5.61422 13.0137 5.61422 12.6192L5.61421 8.80963C5.61421 8.41513 5.29057 8.09534 4.89134 8.09534C4.4921 8.09534 4.16846 8.41513 4.16846 8.80963L4.16846 12.6192ZM15.4936 13.3335C15.0943 13.3335 14.7707 13.0137 14.7707 12.6192V8.80963C14.7707 8.41513 15.0943 8.09534 15.4936 8.09534C15.8928 8.09534 16.2164 8.41513 16.2164 8.80963V12.6192C16.2164 13.0137 15.8928 13.3335 15.4936 13.3335Z" fill="#1C274C"/>
<path opacity="0.5" d="M4.06519 16.2251C4.07822 16.3761 4.09388 16.5206 4.1127 16.6589C4.22934 17.5161 4.47887 18.2379 5.05902 18.8112C5.14161 18.8928 5.22725 18.9678 5.3159 19.0367C5.88128 19.5507 6.5817 19.7787 7.40583 19.8882C8.24145 19.9992 9.30391 19.9992 10.622 19.9991H15.547C16.8651 19.9992 17.9276 19.9992 18.7632 19.8882C19.6308 19.7729 20.3613 19.5263 20.9414 18.9531C21.5216 18.3798 21.7711 17.658 21.8877 16.8008C22.0001 15.9751 22.0001 14.9253 22 13.6228V13.5183C22.0001 12.2158 22.0001 11.1659 21.8877 10.3403C21.7711 9.483 21.5216 8.76121 20.9414 8.18795C20.8588 8.10634 20.7732 8.03135 20.6845 7.96241C20.1192 7.44845 19.4187 7.22047 18.5946 7.11098C18.4638 7.09361 18.3275 7.07895 18.1854 7.06659C18.3852 7.89998 18.3852 9.05012 18.3852 10.7143C18.3852 13.4081 18.3852 14.755 17.5382 15.5918C16.6913 16.4287 15.3283 16.4287 12.6021 16.4287H7.78293C6.08123 16.4287 4.91064 16.4287 4.06519 16.2251Z" fill="#1C274C"/>
</svg>
