<svg width="24" height="24" viewBox="0 0 24 24" fill="none" xmlns="http://www.w3.org/2000/svg">
<path fill-rule="evenodd" clip-rule="evenodd" d="M17.8194 19.7006C17.7302 18.6064 18.6357 17.6929 19.7205 17.783C19.9086 17.7986 20.1337 17.867 20.363 17.9367C20.3851 17.9435 20.4073 17.9502 20.4294 17.9569C20.4494 17.9629 20.4694 17.9689 20.4894 17.975C20.7001 18.0383 20.9097 18.1013 21.0692 18.1874C21.9844 18.6818 22.2799 19.8631 21.7066 20.7363C21.6068 20.8884 21.4519 21.0441 21.2962 21.2007C21.2814 21.2156 21.2666 21.2305 21.2519 21.2453C21.2371 21.2602 21.2224 21.2751 21.2076 21.2901C21.0524 21.4471 20.898 21.6034 20.7472 21.7041C19.8816 22.2823 18.7105 21.9843 18.2204 21.0611C18.135 20.9002 18.0725 20.6888 18.0097 20.4762C18.0038 20.4561 17.9978 20.4359 17.9918 20.4157C17.9852 20.3934 17.9785 20.371 17.9719 20.3488C17.9028 20.1175 17.8349 19.8903 17.8194 19.7006Z" fill="#1C274C"/>
<path d="M11.1566 20.3133C16.2137 20.3133 20.3133 16.2137 20.3133 11.1566C20.3133 6.09956 16.2137 2 11.1566 2C6.09956 2 2 6.09956 2 11.1566C2 16.2137 6.09956 20.3133 11.1566 20.3133Z" fill="#1C274C"/>
<path fill-rule="evenodd" clip-rule="evenodd" d="M11.156 8.02441C11.5552 8.02441 11.8789 8.34806 11.8789 8.74731V10.4341H13.5656C13.9648 10.4341 14.2885 10.7577 14.2885 11.1569C14.2885 11.5562 13.9648 11.8798 13.5656 11.8798H11.8789V13.5666C11.8789 13.9658 11.5552 14.2895 11.156 14.2895C10.7567 14.2895 10.4331 13.9658 10.4331 13.5666V11.8798H8.74633C8.34709 11.8798 8.02344 11.5562 8.02344 11.1569C8.02344 10.7577 8.34709 10.4341 8.74633 10.4341H10.4331V8.74731C10.4331 8.34806 10.7567 8.02441 11.156 8.02441Z" fill="#1C274C"/>
</svg>
