<svg width="24" height="24" viewBox="0 0 24 24" fill="none" xmlns="http://www.w3.org/2000/svg">
<path fill-rule="evenodd" clip-rule="evenodd" d="M4.56979 17.8657C5.25664 16.7919 6.72725 16.8271 7.45746 17.7618C8.44746 19.0291 9.82941 20.25 11.9999 20.25C14.2085 20.25 15.5696 19.2712 16.5049 18.0209C17.2249 17.0585 18.7906 16.9013 19.5455 18.0435C20.1706 18.9891 20.8486 19.7306 22.1719 20.0424C22.5751 20.1374 22.8249 20.5412 22.7299 20.9444C22.6349 21.3476 22.2311 21.5974 21.8279 21.5024C19.9759 21.066 19.0203 19.9692 18.2942 18.8705C18.2372 18.7844 18.1516 18.7406 18.0406 18.7427C17.922 18.7449 17.7934 18.8027 17.706 18.9195C16.5383 20.4804 14.7602 21.75 11.9999 21.75C9.15735 21.75 7.38852 20.1101 6.2754 18.6853C6.20368 18.5934 6.11008 18.5585 6.02957 18.5602C5.95364 18.5619 5.88418 18.5946 5.83341 18.674C5.09392 19.8301 4.13904 21.0389 2.17194 21.5024C1.76877 21.5974 1.36492 21.3476 1.26992 20.9444C1.17492 20.5412 1.42474 20.1374 1.82791 20.0424C3.22886 19.7123 3.9075 18.9011 4.56979 17.8657Z" fill="#1C274C"/>
<path d="M22.1719 15.0424C20.8486 14.7306 20.1706 13.9891 19.5455 13.0435C18.8451 11.9837 17.4467 12.0426 16.6734 12.8253L15.4999 11.5L9.00067 4.13417C8.45837 3.51957 7.50996 3.48996 6.93038 4.06954C6.40535 4.59458 6.37306 5.43532 6.85628 5.99908L7.844 7.15142C8.44843 7.85659 7.47685 9.41384 7.47685 9.41384L4.99828 12.3997C4.83663 12.5213 4.691 12.6762 4.56979 12.8657C3.9075 13.9011 3.22886 14.7123 1.82791 15.0424C1.42474 15.1374 1.17492 15.5412 1.26992 15.9444C1.36492 16.3476 1.76877 16.5974 2.17194 16.5024C4.13904 16.0389 5.09392 14.8301 5.83341 13.674C5.88418 13.5946 5.95364 13.5619 6.02957 13.5602C6.11008 13.5585 6.20368 13.5934 6.2754 13.6853C7.38852 15.1101 9.15735 16.75 11.9999 16.75C14.7602 16.75 16.5383 15.4804 17.706 13.9195C17.7934 13.8027 17.922 13.7449 18.0406 13.7427C18.1516 13.7406 18.2372 13.7844 18.2942 13.8705C19.0203 14.9692 19.9759 16.066 21.8279 16.5024C22.2311 16.5974 22.6349 16.3476 22.7299 15.9444C22.8249 15.5412 22.5751 15.1374 22.1719 15.0424Z" fill="#1C274C"/>
<path d="M16.9999 8C18.3806 8 19.4999 6.88071 19.4999 5.5C19.4999 4.11929 18.3806 3 16.9999 3C15.6192 3 14.4999 4.11929 14.4999 5.5C14.4999 6.88071 15.6192 8 16.9999 8Z" fill="#1C274C"/>
</svg>
