<svg xmlns="http://www.w3.org/2000/svg" fill="none" viewBox="0 0 24 24" width="1em" height="1em"><path stroke="currentColor" stroke-linecap="round" stroke-width="1.5" d="M3.03 13.078a2.5 2.5 0 0 1 0-2.156c.14-.295.38-.577.86-1.14.192-.225.288-.337.368-.457a2.5 2.5 0 0 0 .376-.908c.028-.141.04-.288.063-.582.059-.739.088-1.108.197-1.416A2.5 2.5 0 0 1 6.42 4.894c.308-.109.677-.138 1.416-.197a5 5 0 0 0 .582-.063 2.5 2.5 0 0 0 .908-.376c.12-.08.232-.176.456-.367.564-.48.846-.721 1.14-.862a2.5 2.5 0 0 1 2.157 0c.295.141.577.381 1.14.862.225.191.337.287.457.367a2.5 2.5 0 0 0 .908.376c.141.028.288.04.582.063.739.059 1.108.088 1.416.197a2.5 2.5 0 0 1 1.525 1.525M4.894 17.58a2.5 2.5 0 0 0 1.525 1.525c.308.109.677.138 1.416.197.294.023.44.035.582.063a2.5 2.5 0 0 1 .908.376c.12.08.232.176.456.367.564.48.846.721 1.14.862a2.5 2.5 0 0 0 2.157 0c.295-.14.577-.381 1.14-.862a5 5 0 0 1 .457-.367 2.5 2.5 0 0 1 .908-.376c.141-.028.288-.04.582-.063.739-.059 1.108-.088 1.416-.197a2.5 2.5 0 0 0 1.525-1.525c.109-.308.138-.677.197-1.416a5 5 0 0 1 .063-.582 2.5 2.5 0 0 1 .376-.908c.08-.12.176-.232.367-.456.48-.564.721-.846.862-1.14a2.5 2.5 0 0 0 0-2.157M9 15l6-6"/><path fill="currentColor" d="M15.5 14.5a1 1 0 1 1-2 0 1 1 0 0 1 2 0m-5-5a1 1 0 1 1-2 0 1 1 0 0 1 2 0"/></svg>