<svg width="24" height="24" viewBox="0 0 24 24" fill="none" xmlns="http://www.w3.org/2000/svg">
<path fill-rule="evenodd" clip-rule="evenodd" d="M7.09878 1.24998C7.14683 1.25 7.19559 1.25002 7.24508 1.25002H16.7551C16.8045 1.25002 16.8533 1.25 16.9014 1.24998C17.9181 1.24953 18.6178 1.24923 19.2072 1.45428C20.3201 1.84155 21.1842 2.7372 21.5547 3.86552L20.8421 4.09948L21.5547 3.86553C21.7507 4.46265 21.7505 5.17248 21.7501 6.22649C21.7501 6.27366 21.7501 6.32151 21.7501 6.37008V20.3742C21.7501 21.8395 20.0231 22.7118 18.8857 21.6709C18.8062 21.5982 18.694 21.5982 18.6145 21.6709L18.1314 22.113C17.2032 22.9624 15.7969 22.9624 14.8688 22.113C14.5138 21.7882 13.9864 21.7882 13.6314 22.113C12.7032 22.9624 11.2969 22.9624 10.3688 22.113C10.0138 21.7882 9.48637 21.7882 9.13138 22.113C8.20319 22.9624 6.79694 22.9624 5.86875 22.113L5.38566 21.6709C5.30618 21.5982 5.19395 21.5982 5.11448 21.6709C3.97705 22.7118 2.25007 21.8395 2.25007 20.3742V6.37008C2.25007 6.32152 2.25005 6.27366 2.25003 6.22649C2.24965 5.17249 2.24939 4.46265 2.44545 3.86553C2.81591 2.7372 3.68002 1.84155 4.79298 1.45428C5.3823 1.24923 6.08203 1.24953 7.09878 1.24998ZM7.24508 2.75002C6.024 2.75002 5.6034 2.76051 5.28593 2.87097C4.62655 3.10041 4.09919 3.63722 3.8706 4.33344C3.75951 4.67177 3.75007 5.1179 3.75007 6.37008V20.3742C3.75007 20.4933 3.80999 20.566 3.88517 20.6008C3.92434 20.6189 3.96264 20.6236 3.99456 20.6193C4.0227 20.6156 4.05911 20.6034 4.10185 20.5643C4.75453 19.9671 5.74561 19.9671 6.39828 20.5643L6.88138 21.0064C7.23637 21.3312 7.76377 21.3312 8.11875 21.0064C9.04694 20.157 10.4532 20.157 11.3814 21.0064C11.7364 21.3312 12.2638 21.3312 12.6188 21.0064C13.5469 20.157 14.9532 20.157 15.8814 21.0064C16.2364 21.3312 16.7638 21.3312 17.1188 21.0064L17.6019 20.5643C18.2545 19.9671 19.2456 19.9671 19.8983 20.5643C19.941 20.6034 19.9774 20.6156 20.0056 20.6193C20.0375 20.6236 20.0758 20.6189 20.115 20.6008C20.1901 20.566 20.2501 20.4933 20.2501 20.3742V6.37008C20.2501 5.1179 20.2406 4.67177 20.1295 4.33344C19.9009 3.63722 19.3736 3.10041 18.7142 2.87097C18.3967 2.76051 17.9761 2.75002 16.7551 2.75002H7.24508ZM14.9996 7.44057C15.3086 7.71644 15.3354 8.19056 15.0595 8.49953L11.4881 12.4995C11.3458 12.6589 11.1423 12.75 10.9286 12.75C10.715 12.75 10.5115 12.6589 10.3692 12.4995L8.94061 10.8995C8.66474 10.5906 8.69158 10.1164 9.00056 9.84057C9.30953 9.5647 9.78365 9.59153 10.0595 9.90051L10.9286 10.8739L13.9406 7.50051C14.2165 7.19153 14.6906 7.1647 14.9996 7.44057ZM6.75007 15.5C6.75007 15.0858 7.08585 14.75 7.50007 14.75H16.5001C16.9143 14.75 17.2501 15.0858 17.2501 15.5C17.2501 15.9142 16.9143 16.25 16.5001 16.25H7.50007C7.08585 16.25 6.75007 15.9142 6.75007 15.5Z" fill="#1C274C"/>
</svg>
