<svg xmlns="http://www.w3.org/2000/svg" fill="none" viewBox="0 0 24 24" width="1em" height="1em"><path fill="currentColor" fill-rule="evenodd" d="M8.3 3.25h7.4c.898 0 1.647 0 2.242.08.627.084 1.194.27 1.65.725.455.456.64 1.023.725 1.65.08.595.08 1.345.08 2.243v7.284l1.513 1.561.003.004.008.007.007.008.006.006.01.01.01.011.005.005.008.009.009.01.008.01.012.015c.372.43.703 1.074.749 1.717v.004l.002.023v.013l.002.014v.115c0 .13 0 .319-.005.4a2.75 2.75 0 0 1-2.57 2.57c-.088.006-.185.006-.311.006H4.137c-.126 0-.223 0-.31-.006a2.75 2.75 0 0 1-2.572-2.57 9 9 0 0 1-.004-.398v-.117l.001-.014.001-.012.002-.024v-.004c.046-.643.377-1.286.749-1.717l.012-.015.008-.01.01-.01.007-.009.004-.005.011-.01.01-.011.006-.006.007-.008.007-.007.004-.004 1.513-1.561V7.948c0-.898 0-1.648.08-2.242.084-.628.27-1.195.725-1.65.456-.456 1.023-.642 1.65-.726.595-.08 1.344-.08 2.243-.08M4.67 16.286l-1.514 1.563c-.227.253-.393.626-.405.877v.066l.002.286c.04.628.54 1.13 1.168 1.17.034.002.079.002.24.002h15.678c.161 0 .206 0 .24-.003a1.25 1.25 0 0 0 1.168-1.168l.001-.035.001-.257v-.06c-.011-.252-.178-.625-.405-.878l-1.515-1.563zm14.227-1.5V8c0-.964-.002-1.612-.066-2.095-.062-.461-.17-.659-.3-.789s-.328-.237-.79-.3c-.482-.064-1.13-.066-2.094-.066H8.353c-.964 0-1.612.002-2.095.067-.461.062-.659.169-.789.3s-.237.327-.3.788c-.064.483-.066 1.131-.066 2.095v6.786zm2.773 3.238.021-.008.009-.004zm-19.339 0-.031-.012.009.005zm6.419.476a.75.75 0 0 1 .75-.75h5a.75.75 0 0 1 0 1.5h-5a.75.75 0 0 1-.75-.75" clip-rule="evenodd"/><path fill="currentColor" d="M12.75 6.75a.75.75 0 1 1-1.5 0 .75.75 0 0 1 1.5 0"/></svg>