<svg xmlns="http://www.w3.org/2000/svg" fill="none" viewBox="0 0 24 24" width="1em" height="1em"><path fill="currentColor" fill-rule="evenodd" d="M13.462 4.047a25 25 0 0 1 3.54 2.952 25 25 0 0 1 2.951 3.54c.701-1.378 1.123-2.682 1.253-3.814.165-1.427-.138-2.481-.794-3.137s-1.71-.959-3.137-.794c-1.132.13-2.436.552-3.813 1.253M20.869 12c1.005-1.765 1.645-3.523 1.827-5.103.195-1.69-.129-3.275-1.223-4.37s-2.68-1.418-4.37-1.223c-1.58.182-3.338.822-5.103 1.827-1.765-1.005-3.523-1.645-5.103-1.827-1.69-.195-3.275.129-4.37 1.223-1.094 1.095-1.418 2.68-1.223 4.37.182 1.58.822 3.338 1.827 5.103-1.005 1.765-1.645 3.523-1.827 5.103-.195 1.69.129 3.275 1.224 4.37 1.094 1.094 2.679 1.418 4.37 1.223 1.579-.182 3.337-.822 5.102-1.827 1.765 1.005 3.523 1.645 5.103 1.827 1.69.195 3.275-.129 4.37-1.223 1.094-1.095 1.418-2.68 1.223-4.37-.182-1.58-.822-3.338-1.828-5.103m-1.75 0a23 23 0 0 0-3.178-3.94A23 23 0 0 0 12 4.88a23 23 0 0 0-3.94 3.18A23 23 0 0 0 4.88 12a23 23 0 0 0 3.18 3.94A23 23 0 0 0 12 19.12a23 23 0 0 0 3.94-3.18A23 23 0 0 0 19.12 12m-5.657 7.953a25 25 0 0 0 3.54-2.952 25 25 0 0 0 2.951-3.54c.701 1.378 1.123 2.682 1.253 3.814.165 1.427-.139 2.481-.794 3.137-.656.656-1.71.959-3.137.794-1.132-.13-2.436-.552-3.813-1.253m-2.924 0a25 25 0 0 1-3.54-2.951 25 25 0 0 1-2.951-3.54c-.701 1.377-1.122 2.681-1.253 3.813-.165 1.427.139 2.481.794 3.137.656.655 1.71.959 3.137.794 1.132-.13 2.436-.552 3.813-1.253m-6.491-9.415A25 25 0 0 1 7 6.998a25 25 0 0 1 3.54-2.951c-1.38-.701-2.684-1.123-3.816-1.253-1.427-.165-2.481.139-3.137.794-.656.656-.959 1.71-.794 3.137.13 1.132.552 2.436 1.253 3.813M12 10.25a1.75 1.75 0 1 0 0 3.5 1.75 1.75 0 0 0 0-3.5M8.75 12a3.25 3.25 0 1 1 6.5 0 3.25 3.25 0 0 1-6.5 0" clip-rule="evenodd"/></svg>