<svg width="24" height="24" viewBox="0 0 24 24" fill="none" xmlns="http://www.w3.org/2000/svg">
<path fill-rule="evenodd" clip-rule="evenodd" d="M17 20.75C17.4142 20.75 17.75 20.4142 17.75 20V6.25L19.4 8.45C19.6485 8.78137 20.1186 8.84853 20.45 8.6C20.7814 8.35147 20.8485 7.88137 20.6 7.55L17.6 3.55C17.4063 3.29174 17.0691 3.1864 16.7628 3.28849C16.4566 3.39058 16.25 3.67718 16.25 4V20C16.25 20.4142 16.5858 20.75 17 20.75Z" fill="#1C274C"/>
<path d="M3.25 8C3.25 8.41421 3.58579 8.75 4 8.75H13C13.4142 8.75 13.75 8.41421 13.75 8C13.75 7.58579 13.4142 7.25 13 7.25H4C3.58579 7.25 3.25 7.58579 3.25 8Z" fill="#1C274C"/>
<path opacity="0.7" d="M5.25 13C5.25 13.4142 5.58579 13.75 6 13.75H13C13.4142 13.75 13.75 13.4142 13.75 13C13.75 12.5858 13.4142 12.25 13 12.25H6C5.58579 12.25 5.25 12.5858 5.25 13Z" fill="#1C274C"/>
<path opacity="0.4" d="M7.25 18C7.25 18.4142 7.58579 18.75 8 18.75H13C13.4142 18.75 13.75 18.4142 13.75 18C13.75 17.5858 13.4142 17.25 13 17.25H8C7.58579 17.25 7.25 17.5858 7.25 18Z" fill="#1C274C"/>
</svg>
