<svg width="24" height="24" viewBox="0 0 24 24" fill="none" xmlns="http://www.w3.org/2000/svg">
<path fill-rule="evenodd" clip-rule="evenodd" d="M16.7628 3.28847C17.0691 3.18639 17.4063 3.29173 17.6 3.54999L20.6 7.54999C20.8485 7.88136 20.7814 8.35146 20.45 8.59999C20.1186 8.84852 19.6485 8.78136 19.4 8.44999L17.75 6.24999V20C17.75 20.4142 17.4142 20.75 17 20.75C16.5858 20.75 16.25 20.4142 16.25 20V3.99999C16.25 3.67716 16.4566 3.39056 16.7628 3.28847ZM13 8.74999H4V7.24999H13V8.74999ZM13 13.75H6V12.25H13V13.75ZM13 18.75H8V17.25H13V18.75Z" fill="#1C274C"/>
</svg>
