<svg xmlns="http://www.w3.org/2000/svg" fill="none" viewBox="0 0 24 24" width="1em" height="1em"><path stroke="currentColor" stroke-width="1.5" d="M20.47 10.918s-1.847-.615-4.31-3.078-3.078-4.31-3.078-4.31" opacity=".5"/><path fill="currentColor" d="M1.636 9.031a.75.75 0 0 0 .728 1.311zm12.022 12.605a.75.75 0 0 0 1.31.728zM16.69 8.37a.75.75 0 0 0-1.061-1.06zM4.47 18.47a.75.75 0 0 0 1.06 1.06zm8.248-15.596L1.636 9.031l.728 1.311 11.082-6.156zm7.096 7.68-6.156 11.082 1.31.728 6.157-11.082zM15.63 7.31 4.47 18.47l1.06 1.06L16.69 8.37z" opacity=".5"/><path stroke="currentColor" stroke-linecap="round" stroke-width="1.5" d="M13.082 10.918A5.224 5.224 0 1 0 20.47 3.53a5.224 5.224 0 0 0-7.388 7.388Z"/></svg>