<svg xmlns="http://www.w3.org/2000/svg" fill="none" viewBox="0 0 24 24" width="1em" height="1em"><path stroke="currentColor" stroke-width="1.5" d="M2 11c0-3.771 0-5.657 1.172-6.828S6.229 3 10 3h4c3.771 0 5.657 0 6.828 1.172S22 7.229 22 11v2c0 3.771 0 5.657-1.172 6.828S17.771 21 14 21h-4c-3.771 0-5.657 0-6.828-1.172S2 16.771 2 13z"/><path stroke="currentColor" stroke-linecap="round" stroke-width="1.5" d="M15 21V3"/><path stroke="currentColor" stroke-linecap="round" stroke-linejoin="round" stroke-width="1.5" d="m6 14-1 1 1 1m4.5 0 1 1-1 1M9 14l-1.5 4"/></svg>