<svg xmlns="http://www.w3.org/2000/svg" fill="none" viewBox="0 0 24 24" width="1em" height="1em"><path fill="currentColor" fill-rule="evenodd" d="M17.544 1.498c-.716-.41-1.482-.253-2.2.042-.706.291-1.575.806-2.636 1.434l-.628.372c-.686.406-.846.484-1.001.503-.15.02-.31-.014-1.052-.242l-.68-.21c-1.141-.35-2.082-.64-2.826-.75-.771-.114-1.533-.068-2.14.488-.603.551-.726 1.307-.696 2.092.03.76.213 1.74.437 2.935l.133.706c.145.77.163.945.126 1.104-.037.163-.134.322-.601.97l-.429.595c-.727 1.008-1.32 1.832-1.678 2.514-.364.694-.59 1.439-.27 2.192.324.766 1.023 1.099 1.772 1.284.728.18 1.713.27 2.91.38l.713.065c.78.072.938.102 1.061.172s.227.189.68.823l.413.58c.694.971 1.266 1.773 1.788 2.308.54.553 1.179.983 2.003.88.81-.102 1.345-.663 1.77-1.324.418-.648.84-1.57 1.359-2.698l.305-.664c.11-.24.193-.418.26-.553l.033.034 4 4a.75.75 0 1 0 1.06-1.06l-3.844-3.845.072-.025.683-.24c1.157-.404 2.104-.736 2.782-1.09.698-.365 1.296-.847 1.477-1.642.184-.806-.16-1.488-.646-2.094-.469-.584-1.193-1.247-2.07-2.05l-.524-.48c-.57-.523-.677-.642-.734-.776-.06-.14-.072-.311-.06-1.105l.011-.725c.02-1.225.034-2.228-.065-2.98-.101-.768-.35-1.508-1.068-1.92m-4.126 2.799c1.129-.669 1.904-1.125 2.497-1.37.592-.243.787-.182.884-.127.095.054.243.186.326.813.083.63.072 1.522.052 2.826l-.012.78c-.01.608-.019 1.125.18 1.594.2.474.58.82 1.016 1.218l.086.08.476.434c.937.86 1.573 1.445 1.96 1.928.38.471.387.682.355.821-.034.15-.147.352-.71.646-.57.298-1.412.595-2.641 1.026l-.733.256c-.579.202-1.063.37-1.442.718-.377.345-.592.814-.85 1.378l-.328.714c-.55 1.198-.93 2.02-1.282 2.567-.35.545-.559.63-.695.648-.123.015-.32-.004-.743-.44-.431-.442-.937-1.147-1.679-2.185l-.376-.527L9.69 18c-.342-.482-.641-.902-1.086-1.157-.443-.253-.958-.3-1.55-.353l-.12-.01-.647-.06c-1.278-.117-2.148-.199-2.752-.348-.595-.147-.707-.307-.752-.413-.05-.118-.083-.335.219-.91.302-.576.83-1.313 1.602-2.384l.461-.64c.363-.502.665-.92.779-1.418.114-.502.02-1.005-.093-1.602l-.143-.757c-.238-1.272-.4-2.141-.424-2.778-.024-.626.094-.823.21-.928.11-.101.305-.2.908-.11.616.09 1.447.344 2.666.72l.729.224c.568.175 1.057.327 1.568.263.505-.064.95-.328 1.477-.64z" clip-rule="evenodd"/></svg>