<svg width="24" height="24" viewBox="0 0 24 24" fill="none" xmlns="http://www.w3.org/2000/svg">
<path opacity="0.5" d="M3 10C3 6.22876 3 4.34315 4.17157 3.17157C5.34315 2 7.22876 2 11 2H13C16.7712 2 18.6569 2 19.8284 3.17157C21 4.34315 21 6.22876 21 10V14C21 17.7712 21 19.6569 19.8284 20.8284C18.6569 22 16.7712 22 13 22H11C7.22876 22 5.34315 22 4.17157 20.8284C3 19.6569 3 17.7712 3 14V10Z" stroke="#1C274C" stroke-width="1.5"/>
<path d="M8 18H16" stroke="#1C274C" stroke-width="1.5" stroke-linecap="round"/>
<path d="M16.4115 9.97115L17.0772 8.30708C17.5513 7.12161 16.8084 5.80141 15.549 5.59151L15.1236 5.5206C13.0554 5.17591 10.9445 5.17591 8.87641 5.5206L8.45098 5.59151C7.19157 5.80141 6.44864 7.12161 6.92282 8.30708L7.58845 9.97115C7.82422 10.5606 8.45915 10.8852 9.07502 10.7312C10.9954 10.2511 13.0045 10.2511 14.925 10.7312C15.5408 10.8852 16.1758 10.5606 16.4115 9.97115Z" stroke="#1C274C" stroke-width="1.5" stroke-linecap="round"/>
<path d="M10.1796 9.92893L9.50461 8.04626" stroke="#1C274C" stroke-width="1.5" stroke-linecap="round"/>
</svg>
