<svg width="24" height="24" viewBox="0 0 24 24" fill="none" xmlns="http://www.w3.org/2000/svg">
<path d="M7.5 18C8.32843 18 9 18.6716 9 19.5C9 20.3284 8.32843 21 7.5 21C6.67157 21 6 20.3284 6 19.5C6 18.6716 6.67157 18 7.5 18Z" fill="#1C274C"/>
<path d="M16.5 18.0001C17.3284 18.0001 18 18.6716 18 19.5001C18 20.3285 17.3284 21.0001 16.5 21.0001C15.6716 21.0001 15 20.3285 15 19.5001C15 18.6716 15.6716 18.0001 16.5 18.0001Z" fill="#1C274C"/>
<path opacity="0.6" d="M3.04047 2.29242C2.6497 2.15503 2.22155 2.36044 2.08416 2.7512C1.94678 3.14197 2.15218 3.57012 2.54295 3.7075L2.80416 3.79934C3.47177 4.03406 3.91052 4.18961 4.23336 4.34802C4.53659 4.4968 4.67026 4.61723 4.75832 4.74609C4.84858 4.87818 4.91828 5.0596 4.95761 5.42295C4.99877 5.80316 4.99979 6.29837 4.99979 7.03832L4.99979 9.64C4.99979 12.5816 5.06302 13.5523 5.92943 14.4662C6.6646 15.2416 7.77998 15.359 9.80491 15.3768L11.3286 15.38H14.1714H15.6945H16.2821C17.8431 15.38 18.6236 15.38 19.1753 14.9304C19.727 14.4808 19.8846 13.7164 20.1997 12.1875L20.6995 9.76275C21.0466 8.02369 21.2202 7.15417 20.7762 6.57708C20.3516 6.02515 18.9457 6.0011 17.3498 6.00005L15.8266 6H9.67335H8.15018H6.49233C6.48564 5.72967 6.47295 5.48373 6.4489 5.26153C6.39517 4.76515 6.27875 4.31243 5.99677 3.89979C5.71259 3.48393 5.33474 3.21759 4.89411 3.00139C4.48203 2.79919 3.95839 2.61511 3.34187 2.39838L3.04047 2.29242Z" fill="#1C274C"/>
<path d="M8.14941 6L9.80442 15.3768L11.3282 15.38L9.67286 6H8.14941Z" fill="#1C274C"/>
<path d="M15.8259 6L14.1706 15.38H15.6945L17.3498 6.00005L15.8259 6Z" fill="#1C274C"/>
</svg>
