<svg xmlns="http://www.w3.org/2000/svg" fill="none" viewBox="0 0 24 24" width="1em" height="1em"><path fill="currentColor" d="M22 12c0 5.523-4.477 10-10 10S2 17.523 2 12 6.477 2 12 2s10 4.477 10 10" opacity=".5"/><path fill="currentColor" d="m10.413 8.498.164-.294C11.21 7.068 11.527 6.5 12 6.5s.79.568 1.423 1.704l.164.294c.18.323.27.484.41.59.14.107.316.147.665.226l.318.072c1.23.278 1.845.417 1.991.888.147.47-.273.96-1.111 1.94l-.217.254c-.238.279-.357.418-.41.59-.055.173-.037.359 0 .73l.032.339c.127 1.308.19 1.962-.193 2.253-.383.29-.958.026-2.11-.505l-.298-.137c-.327-.15-.49-.226-.664-.226-.173 0-.337.075-.664.226l-.298.137c-1.152.53-1.727.796-2.11.505-.383-.29-.32-.945-.193-2.253l.032-.338c.037-.372.055-.558 0-.73-.053-.173-.172-.312-.41-.59l-.217-.254c-.838-.98-1.258-1.47-1.111-1.941.146-.47.76-.61 1.99-.888l.319-.072c.35-.08.524-.119.665-.225.14-.107.23-.268.41-.591"/></svg>