<svg width="24" height="24" viewBox="0 0 24 24" fill="none" xmlns="http://www.w3.org/2000/svg">
<path d="M9.4796 6.8252C7.66035 7.50672 6.75072 7.84748 6.64097 8.55405C6.53121 9.26062 7.29401 9.86506 8.81962 11.0739L9.21431 11.3867C9.64784 11.7302 9.86461 11.902 9.98887 12.1361C10.1131 12.3702 10.1308 12.6402 10.1662 13.1801L10.1984 13.6717C10.3229 15.5717 10.3852 16.5217 11.0438 16.8493C11.7024 17.1768 12.5212 16.6649 14.1588 15.6412L14.5825 15.3763C15.0478 15.0854 15.2805 14.9399 15.5466 14.8999C15.8127 14.86 16.0822 14.93 16.621 15.07L17.1116 15.1975C19.0078 15.6903 19.9559 15.9367 20.4727 15.4325C20.9895 14.9284 20.7327 14.0076 20.2192 12.166M20.6653 9.29403C21.7128 7.69854 22.2365 6.90079 21.8972 6.26168C21.558 5.62258 20.5805 5.56537 18.6256 5.45095L18.1198 5.42135C17.5642 5.38884 17.2865 5.37259 17.0452 5.25261C16.8039 5.13263 16.6265 4.9225 16.2716 4.50226L15.9485 4.11967C14.6997 2.64083 14.0752 1.90141 13.3488 2.01056C12.6223 2.11971 12.275 3.00516 11.5802 4.77604" stroke="#1C274C" stroke-width="1.5" stroke-linecap="round"/>
<path d="M6.59527 8.55078C3.48192 10.6857 1.09828 14.7691 2.33125 21.9998C3.42268 18.9857 6.71261 16.5716 10.3877 15.4097" stroke="#1C274C" stroke-width="1.5" stroke-linecap="round" stroke-linejoin="round"/>
</svg>
