<svg width="24" height="24" viewBox="0 0 24 24" fill="none" xmlns="http://www.w3.org/2000/svg">
<path fill-rule="evenodd" clip-rule="evenodd" d="M15.6786 1.68071C15.855 2.0555 15.6941 2.5023 15.3193 2.67867L9.85515 5.25005C9.88453 5.25005 9.91401 5.25005 9.94358 5.25005H14.0564C15.8942 5.25004 17.3498 5.25003 18.489 5.40319C19.6614 5.56082 20.6104 5.89293 21.3588 6.6413C22.1071 7.38966 22.4392 8.33861 22.5969 9.51103C22.75 10.6502 22.75 12.1059 22.75 13.9436V14.0565C22.75 15.8942 22.75 17.3499 22.5969 18.4891C22.4392 19.6615 22.1071 20.6104 21.3588 21.3588C20.6104 22.1072 19.6614 22.4393 18.489 22.5969C17.3498 22.7501 15.8942 22.7501 14.0564 22.7501H9.94359C8.10583 22.7501 6.65019 22.7501 5.51098 22.5969C4.33856 22.4393 3.38961 22.1072 2.64124 21.3588C1.89288 20.6104 1.56076 19.6615 1.40314 18.4891C1.24997 17.3499 1.24998 15.8942 1.25 14.0565V13.9436C1.24998 12.1059 1.24997 10.6502 1.40314 9.51103C1.56076 8.33861 1.89288 7.38966 2.64124 6.6413C3.38961 5.89293 4.33856 5.56082 5.51098 5.40319C5.71495 5.37577 5.92907 5.35325 6.15372 5.33477C6.16257 5.33017 6.17155 5.32573 6.18065 5.32144L14.6807 1.32144C15.0554 1.14507 15.5022 1.30592 15.6786 1.68071ZM5.71085 6.88981C4.70476 7.02508 4.12511 7.27875 3.7019 7.70196C3.27869 8.12517 3.02502 8.70481 2.88976 9.7109C2.75159 10.7386 2.75 12.0932 2.75 14.0001C2.75 15.9069 2.75159 17.2615 2.88976 18.2892C3.02502 19.2953 3.27869 19.8749 3.7019 20.2982C4.12511 20.7214 4.70476 20.975 5.71085 21.1103C6.73851 21.2485 8.09318 21.2501 10 21.2501H14C15.9068 21.2501 17.2615 21.2485 18.2892 21.1103C19.2952 20.975 19.8749 20.7214 20.2981 20.2982C20.7213 19.8749 20.975 19.2953 21.1102 18.2892C21.2484 17.2615 21.25 15.9069 21.25 14.0001C21.25 12.0932 21.2484 10.7386 21.1102 9.7109C20.975 8.70481 20.7213 8.12517 20.2981 7.70196C19.8749 7.27875 19.2952 7.02508 18.2892 6.88981C17.2615 6.75165 15.9068 6.75006 14 6.75006H10C8.09318 6.75006 6.73851 6.75165 5.71085 6.88981ZM4.25 11.0001C4.25 9.48127 5.48122 8.25006 7 8.25006H17C18.5188 8.25006 19.75 9.48127 19.75 11.0001C19.75 12.5188 18.5188 13.7501 17 13.7501H7C5.48122 13.7501 4.25 12.5188 4.25 11.0001ZM15.75 12.2501V11.5001C15.75 11.0858 15.4142 10.7501 15 10.7501C14.5858 10.7501 14.25 11.0858 14.25 11.5001V12.2501H7C6.30964 12.2501 5.75 11.6904 5.75 11.0001C5.75 10.3097 6.30964 9.75006 7 9.75006H17C17.6904 9.75006 18.25 10.3097 18.25 11.0001C18.25 11.6904 17.6904 12.2501 17 12.2501H15.75ZM7.5 16.2501C7.08579 16.2501 6.75 16.5858 6.75 17.0001C6.75 17.4143 7.08579 17.7501 7.5 17.7501C7.91421 17.7501 8.25 17.4143 8.25 17.0001C8.25 16.5858 7.91421 16.2501 7.5 16.2501ZM5.25 17.0001C5.25 15.7574 6.25736 14.7501 7.5 14.7501C8.74264 14.7501 9.75 15.7574 9.75 17.0001C9.75 18.2427 8.74264 19.2501 7.5 19.2501C6.25736 19.2501 5.25 18.2427 5.25 17.0001ZM12.25 17.0001C12.25 16.5858 12.5858 16.2501 13 16.2501H18C18.4142 16.2501 18.75 16.5858 18.75 17.0001C18.75 17.4143 18.4142 17.7501 18 17.7501H13C12.5858 17.7501 12.25 17.4143 12.25 17.0001Z" fill="#1C274C"/>
</svg>
