<svg xmlns="http://www.w3.org/2000/svg" fill="none" viewBox="0 0 24 24" width="1em" height="1em"><path stroke="currentColor" stroke-linecap="round" stroke-linejoin="round" stroke-width="1.5" d="M14.5 3.003c2.794.02 4.324.164 5.328 1.169C21 5.343 21 7.229 21 11v2c0 3.771 0 5.657-1.172 6.828-1.004 1.005-2.534 1.148-5.328 1.169m-5 0c-2.794-.02-4.324-.164-5.328-1.169C3 18.658 3 16.772 3 13v-2c0-3.771 0-5.657 1.172-6.828C5.176 3.167 6.706 3.024 9.5 3.003"/><path stroke="currentColor" stroke-linecap="round" stroke-width="1.5" d="M17 4v16"/><path stroke="currentColor" stroke-dasharray="3 3" stroke-linecap="round" stroke-width="1.5" d="M12 2v20"/><path stroke="currentColor" stroke-linecap="round" stroke-width="1.5" d="M7 4v16M3.5 8.5H7m13.5 0H17m-13.5 7H7m13.5 0H17"/></svg>