<svg xmlns="http://www.w3.org/2000/svg" fill="none" viewBox="0 0 24 24" width="1em" height="1em"><path stroke="currentColor" stroke-linecap="round" stroke-width="1.5" d="m4.012 15.762 1.69-5.069c.766-2.298 1.149-3.447 2.055-3.66.906-.215 1.763.642 3.475 2.355l3.38 3.379c1.712 1.713 2.569 2.569 2.355 3.475s-1.363 1.29-3.661 2.055l-5.069 1.69c-2.765.922-4.148 1.383-4.878.653s-.269-2.113.653-4.878Z"/><path stroke="currentColor" stroke-linecap="round" stroke-width="1.5" d="M12.235 18.346s-.758-2.28-.758-3.79.758-3.791.758-3.791m-4.17 8.719s-.64-2.752-.758-4.55c-.195-2.969.758-7.581.758-7.581" opacity=".5"/><path stroke="currentColor" stroke-linecap="round" stroke-width="1.5" d="m14.51 10.006.143-.72c.146-.727.67-1.32 1.373-1.554a2.07 2.07 0 0 0 1.372-1.555l.144-.72m.028 7.796.212.123c.657.38 1.483.296 2.051-.207a1.76 1.76 0 0 1 1.876-.297L22 13M9.795 2.78A1.4 1.4 0 0 0 10 4.5l.098.098c.393.393.538.97.377 1.503"/><path fill="currentColor" d="M6.928 3.94a.536.536 0 1 1 .758.76.536.536 0 0 1-.758-.76m5.229 3.217a.536.536 0 1 1 .759.759.536.536 0 0 1-.759-.759m5 3a.536.536 0 1 1 .759.759.536.536 0 0 1-.759-.759m1.901 5.156a.536.536 0 1 1 .759.759.536.536 0 0 1-.759-.759" opacity=".5"/><path fill="currentColor" d="m19.172 10.328-.485.12.072.293.293.072zM21 8.5l-.5-.002a.5.5 0 0 0 .502.502zm-1.828 1.828.486-.12-.001-.003-.003-.013-.012-.055a6 6 0 0 1-.127-.896 3.2 3.2 0 0 1 .026-.748c.041-.23.11-.361.174-.425l-.707-.707c-.27.27-.394.633-.451.957-.059.33-.06.68-.04.986a7 7 0 0 0 .163 1.115l.005.02.001.006v.002zm.543-2.26c.243-.243.435-.225.523-.184.097.045.263.205.262.614l1 .003c.002-.684-.296-1.272-.842-1.524-.554-.256-1.183-.084-1.65.384zm-.543 2.26-.12.485h.003l.006.002.02.005a5 5 0 0 0 .317.065c.205.036.489.079.798.098.306.02.656.019.986-.04.324-.057.687-.18.957-.451l-.707-.707c-.064.064-.195.133-.425.174a3.2 3.2 0 0 1-.747.027 6 6 0 0 1-.965-.143h-.003zm2.967.164c.468-.467.64-1.096.384-1.65-.252-.546-.84-.844-1.524-.842l.003 1c.41-.001.569.165.614.261.04.09.06.281-.184.524z"/><path stroke="currentColor" d="m15.188 3.417-.027.098c-.03.106-.046.16-.038.212.007.052.035.098.093.189l.052.082c.202.32.303.48.234.611s-.262.146-.648.176l-.1.008c-.11.009-.164.013-.212.038s-.083.068-.155.155l-.064.079c-.251.304-.376.456-.52.437-.142-.02-.208-.198-.34-.555l-.034-.092c-.037-.102-.056-.152-.093-.19-.037-.036-.087-.055-.189-.092l-.092-.034c-.357-.132-.535-.198-.555-.34-.02-.144.133-.27.437-.52l.079-.065c.086-.07.13-.106.155-.154s.03-.103.038-.213l.008-.1c.03-.385.045-.578.176-.647.13-.069.29.032.61.234l.083.052c.091.058.137.086.189.093s.106-.008.212-.038l.098-.027c.375-.107.563-.16.663-.06s.047.288-.06.663Z" opacity=".5"/></svg>