<svg xmlns="http://www.w3.org/2000/svg" fill="none" viewBox="0 0 24 24" width="1em" height="1em"><path fill="currentColor" fill-rule="evenodd" d="M15.602 2.4c-.22-.22-.497-.21-.648-.19-.144.02-.316.068-.48.115l-.125.036-.103-.065a3.4 3.4 0 0 0-.42-.24c-.149-.064-.4-.138-.666.001-.26.137-.345.381-.38.537a4 4 0 0 0-.06.487l-.01.127v.011l-.112.092c-.133.11-.272.223-.37.33-.104.114-.264.328-.223.625.042.307.265.467.404.544.126.07.291.13.446.188l.109.04.04.109c.057.154.118.32.188.446.077.14.237.362.544.404.297.04.51-.12.624-.223a4 4 0 0 0 .331-.37l.092-.112h.01l.128-.01a4 4 0 0 0 .487-.06c.155-.035.4-.12.537-.38.139-.265.065-.517 0-.667-.058-.132-.152-.28-.24-.42l-.064-.102.036-.126c.047-.164.096-.335.114-.479.02-.151.03-.428-.19-.648m-.9.9-.078.022-.02.006a.9.9 0 0 1-.397.047.9.9 0 0 1-.37-.155l-.018-.01-.1-.065-.011.141-.002.022a1 1 0 0 1-.092.384 1 1 0 0 1-.263.294L13.334 4l-.09.075.076.029.02.007c.071.025.23.081.35.201s.176.279.201.35l.007.02.029.077.075-.09.013-.018c.051-.063.151-.187.295-.263a1 1 0 0 1 .384-.092l.022-.002.14-.01-.063-.102-.011-.017a.9.9 0 0 1-.155-.37 1 1 0 0 1 .047-.397l.006-.02z" clip-rule="evenodd"/><path fill="currentColor" d="M10.435 3.17a.75.75 0 1 0-1.28-.782 2.15 2.15 0 0 0 .315 2.643l.097.097a.76.76 0 0 1 .19.756.75.75 0 1 0 1.436.434 2.26 2.26 0 0 0-.565-2.25l-.098-.098a.65.65 0 0 1-.095-.8m-2.749.77a.536.536 0 1 0-.758.76.536.536 0 0 0 .758-.76m10.592 1.664a.75.75 0 0 0-1.471-.294l-.144.72c-.093.463-.427.84-.874.99a2.82 2.82 0 0 0-1.871 2.12l-.144.719a.75.75 0 0 0 1.47.294l.145-.72c.092-.463.426-.84.874-.99a2.82 2.82 0 0 0 1.87-2.119z"/><path fill="currentColor" fill-rule="evenodd" d="M22.524 8.842c.255.554.083 1.183-.384 1.65-.271.271-.634.394-.957.451-.331.06-.68.06-.987.04a7 7 0 0 1-1.045-.147l-.046-.01-.024-.006-.02-.005-.006-.001h-.002l.12-.486-.12.485a.5.5 0 0 1-.366-.365v-.003l-.002-.006-.005-.02a5 5 0 0 1-.064-.317 7 7 0 0 1-.1-.798 4.2 4.2 0 0 1 .041-.986c.058-.323.18-.686.451-.957.467-.467 1.096-.64 1.65-.384.42.194.694.587.796 1.069.483.103.875.376 1.07.796m-2.928 1.062c.178.032.413.066.664.082.263.016.525.012.747-.027.23-.041.361-.11.425-.174.243-.243.225-.435.184-.523-.045-.097-.204-.263-.614-.262a.5.5 0 0 1-.502-.501c.002-.41-.165-.57-.261-.614-.089-.041-.281-.06-.524.183-.064.064-.133.195-.173.425a3.2 3.2 0 0 0-.027.747c.016.25.05.486.081.664" clip-rule="evenodd"/><path fill="currentColor" d="M20.33 13.73a1.01 1.01 0 0 1 1.079-.17l.291.127a.75.75 0 0 0 .601-1.374l-.291-.128a2.51 2.51 0 0 0-2.674.422c-.326.29-.801.338-1.179.12l-.212-.123a.75.75 0 1 0-.75 1.299l.212.123c.937.54 2.115.421 2.924-.296m-1.273 1.583a.536.536 0 1 1 .759.759.536.536 0 0 1-.759-.759m-6.142-8.156a.536.536 0 1 0-.759.759.536.536 0 0 0 .759-.759m4.241 3a.536.536 0 1 1 .759.759.536.536 0 0 1-.759-.759"/><path fill="currentColor" fill-rule="evenodd" d="M9.639 6.885c.586.435 1.26 1.11 2.08 1.928l3.467 3.468c.819.818 1.494 1.493 1.928 2.08.45.605.766 1.278.583 2.053-.183.776-.767 1.236-1.44 1.577-.651.33-1.556.632-2.654.998l-5.19 1.73c-1.33.444-2.41.803-3.247.952-.844.15-1.7.135-2.337-.5-.636-.637-.651-1.494-.501-2.338.149-.837.509-1.916.952-3.246l1.73-5.19c.366-1.099.668-2.004.998-2.655.34-.672.801-1.257 1.577-1.44s1.448.134 2.054.583M8.746 8.09l-.052-.038-.036.2a50 50 0 0 0-.302 1.882c-.213 1.516-.392 3.348-.3 4.751.055.85.237 1.95.411 2.857a49 49 0 0 0 .265 1.29l2.635-.879c-.07-.205-.152-.47-.235-.778-.199-.74-.405-1.758-.405-2.82 0-1.115.205-2.132.406-2.864a11 11 0 0 1 .329-1.013l-.76-.76c-.874-.874-1.47-1.468-1.956-1.828m-2.333 2.84c.21-.626.383-1.146.541-1.576q-.042.275-.083.572c-.216 1.533-.415 3.492-.312 5.058.062.947.259 2.122.435 3.04a50 50 0 0 0 .308 1.484c-1.041.343-1.808.581-2.398.686-.721.129-.92.01-1.014-.084s-.213-.294-.085-1.014c.127-.716.45-1.69.919-3.097zm6.656 6.656-.279.093a12 12 0 0 1-.365-1.345 9 9 0 0 1-.198-1.779 9.5 9.5 0 0 1 .418-2.695l1.436 1.437c.874.874 1.468 1.47 1.828 1.957.354.477.359.685.328.816s-.128.315-.658.584c-.54.273-1.338.541-2.51.932" clip-rule="evenodd"/></svg>