<svg width="24" height="24" viewBox="0 0 24 24" fill="none" xmlns="http://www.w3.org/2000/svg">
<path d="M21.8363 17.4617C21.393 16.4152 20.8141 15.4629 20.3001 14.6174C20.1159 14.3143 19.94 14.025 19.7817 13.7499H4.21829C4.05999 14.025 3.8841 14.3143 3.69986 14.6174C3.18593 15.4629 2.60702 16.4152 2.16368 17.4617C1.63049 18.7203 1.25 20.1843 1.25 21.9999C1.25 22.4142 1.58579 22.7499 2 22.7499C2.41421 22.7499 2.75 22.4142 2.75 21.9999C2.75 20.5093 3.03996 19.3043 3.45871 18.2561C8.85291 18.403 10.9185 21.127 11.2885 22.2371C11.3906 22.5434 11.6772 22.7499 12 22.7499C12.3228 22.7499 12.6094 22.5434 12.7115 22.2371C13.0815 21.127 15.1471 18.403 20.5413 18.2561C20.96 19.3043 21.25 20.5093 21.25 21.9999C21.25 22.4142 21.5858 22.7499 22 22.7499C22.4142 22.7499 22.75 22.4142 22.75 21.9999C22.75 20.1843 22.3695 18.7203 21.8363 17.4617Z" fill="#1C274C"/>
<path d="M4.68985 1.70567C4.52733 1.32467 4.08671 1.14757 3.70572 1.3101C3.32477 1.4726 3.14775 1.91331 3.31017 2.29428L3.3109 2.29602L3.31449 2.30451L3.32977 2.3411C3.34345 2.37405 3.36393 2.42385 3.39024 2.48918C3.44288 2.61987 3.51878 2.81251 3.61022 3.05643C3.79323 3.54466 4.03764 4.23623 4.28196 5.04613C4.77458 6.67916 5.25 8.73928 5.25 10.5714C5.25 11.1646 5.13757 11.7106 4.94237 12.2499H19.0576C18.8624 11.7106 18.75 11.1646 18.75 10.5714C18.75 8.73928 19.2254 6.67916 19.718 5.04613C19.9624 4.23623 20.2068 3.54466 20.3898 3.05643C20.4812 2.81251 20.5571 2.61987 20.6098 2.48918C20.6361 2.42385 20.6565 2.37405 20.6702 2.3411L20.6855 2.30451L20.6891 2.29602L20.6899 2.29408C20.8523 1.91312 20.6752 1.4726 20.2943 1.3101C19.9133 1.14757 19.4724 1.32529 19.3099 1.70629C19.3099 1.70629 19.3101 1.70567 20 1.99995L19.3099 1.70629L19.3094 1.70733L19.308 1.71071L19.303 1.72253L19.2849 1.766C19.2692 1.80362 19.2467 1.85834 19.2184 1.92879C19.1616 2.06967 19.0813 2.27365 18.9852 2.52994C18.7932 3.04212 18.5376 3.76534 18.282 4.61292C17.801 6.20734 17.3045 8.29033 17.2542 10.2499H6.74582C6.69546 8.29033 6.19902 6.20734 5.71804 4.61292C5.46236 3.76534 5.20677 3.04212 5.01478 2.52994C4.91871 2.27365 4.83837 2.06967 4.78163 1.92879C4.75326 1.85834 4.73077 1.80362 4.71515 1.766L4.69699 1.72253L4.692 1.71071L4.69056 1.70733L4.68985 1.70567Z" fill="#1C274C"/>
</svg>
