<svg xmlns="http://www.w3.org/2000/svg" fill="none" viewBox="0 0 24 24" width="1em" height="1em"><path stroke="currentColor" stroke-width="1.5" d="M12 18a4 4 0 1 1-8 0 4 4 0 0 1 8 0Zm0 0V6"/><path stroke="currentColor" stroke-linecap="round" stroke-width="1.5" d="m16.117 10.059-2.634-1.317c-.365-.183-.547-.274-.698-.39a2 2 0 0 1-.75-1.212C12 6.954 12 6.75 12 6.342c0-.971 0-1.457.12-1.787a2 2 0 0 1 2.112-1.305c.348.04.783.257 1.651.692l2.634 1.316c.365.183.547.274.698.39a2 2 0 0 1 .75 1.212c.035.186.035.39.035.798 0 .972 0 1.457-.12 1.787a2 2 0 0 1-2.112 1.306c-.348-.041-.783-.258-1.651-.692Z"/></svg>