<svg xmlns="http://www.w3.org/2000/svg" fill="none" viewBox="0 0 24 24" width="1em" height="1em"><path fill="currentColor" fill-rule="evenodd" d="M14.145 3.994a1.25 1.25 0 0 0-1.32.816c-.022.06-.047.176-.061.437-.014.26-.014.6-.014 1.095 0 .438.003.557.022.657.058.301.225.571.469.758.08.062.186.118.578.314l2.633 1.316c.442.221.747.373.985.477.24.105.355.134.418.141a1.25 1.25 0 0 0 1.32-.815c.022-.06.047-.176.061-.437.014-.26.014-.601.014-1.095 0-.438-.003-.557-.022-.657a1.25 1.25 0 0 0-.469-.758c-.08-.062-.186-.118-.578-.314l-2.633-1.317c-.442-.22-.747-.373-.985-.477-.24-.104-.355-.133-.418-.14M12.75 9.21a15 15 0 0 0 .398.202l2.652 1.326c.418.21.759.38 1.038.501.281.123.558.223.843.256A2.75 2.75 0 0 0 20.586 9.7c.098-.27.132-.562.148-.869.016-.303.016-.684.016-1.152v-.082c0-.348 0-.62-.049-.878a2.75 2.75 0 0 0-1.03-1.668c-.21-.16-.453-.28-.764-.436l-.055-.028L16.2 3.261c-.418-.209-.759-.38-1.038-.5-.281-.123-.558-.223-.843-.257A2.75 2.75 0 0 0 11.414 4.3c-.098.27-.132.563-.148.87a17 17 0 0 0-.016.83v8.537A4.75 4.75 0 1 0 12.75 18zM11.25 18a3.25 3.25 0 1 0-6.5 0 3.25 3.25 0 0 0 6.5 0" clip-rule="evenodd"/></svg>