<svg width="24" height="24" viewBox="0 0 24 24" fill="none" xmlns="http://www.w3.org/2000/svg">
<path fill-rule="evenodd" clip-rule="evenodd" d="M12.4506 2.75971C10.7343 2.67427 8.9749 3.06556 7.37509 3.98921C5.77603 4.91243 4.55691 6.24098 3.77257 7.77016C4.13777 8.00364 4.63822 8.35363 5.21436 8.8374C6.39071 9.82516 7.88484 11.3725 9.1853 13.625C10.4858 15.8774 11.0788 17.9451 11.346 19.4577C11.4769 20.1986 11.5298 20.8071 11.5494 21.2401C13.2659 21.3254 15.026 20.9339 16.6251 20.0107C18.2249 19.087 19.4434 17.759 20.2276 16.2299C19.8624 15.9965 19.3618 15.6464 18.7855 15.1626C17.6091 14.1748 16.1149 12.6274 14.8145 10.375C13.514 8.12253 12.9211 6.05486 12.6539 4.54221C12.523 3.80123 12.4701 3.19275 12.4506 2.75971ZM13.9648 2.96091C13.9897 3.31003 14.0383 3.75674 14.131 4.28129C14.3729 5.65056 14.914 7.54732 16.1135 9.62499C17.313 11.7027 18.6852 13.1197 19.7501 14.0138C20.158 14.3563 20.5206 14.6218 20.8105 14.818C21.5764 12.421 21.3672 9.7243 20.0108 7.37495C18.6544 5.02559 16.4236 3.49606 13.9648 2.96091ZM10.0351 21.0389C10.0102 20.6898 9.96154 20.2432 9.86888 19.7187C9.62696 18.3494 9.08581 16.4527 7.88626 14.375C6.68671 12.2973 5.31464 10.8803 4.24979 9.98614C3.84196 9.6437 3.47951 9.37824 3.18967 9.18211C2.42422 11.5778 2.63277 14.2753 3.98935 16.6249C5.34592 18.9746 7.57769 20.5039 10.0351 21.0389ZM6.62509 2.69018C8.72017 1.48058 11.0553 1.05616 13.2861 1.32656C16.5259 1.71926 19.5511 3.57871 21.3099 6.62495C23.0686 9.67119 23.1663 13.2208 21.8865 16.2229C21.0053 18.29 19.4702 20.1001 17.3751 21.3097C12.2334 24.2783 5.65884 22.5166 2.69031 17.375C-0.278218 12.2333 1.48344 5.65871 6.62509 2.69018Z" fill="#1C274C"/>
</svg>
