<svg width="24" height="24" viewBox="0 0 24 24" fill="none" xmlns="http://www.w3.org/2000/svg">
<path opacity="0.5" d="M2 12C2 6.47715 6.47715 2 12 2C17.5228 2 22 6.47715 22 12C22 17.5228 17.5228 22 12 22C6.47715 22 2 17.5228 2 12Z" fill="#1C274C"/>
<path fill-rule="evenodd" clip-rule="evenodd" d="M11.7184 7.21559C11.8374 6.81884 11.6123 6.40073 11.2155 6.28171C10.8188 6.16268 10.4007 6.38782 10.2816 6.78456L9.54198 9.25008H7C6.58579 9.25008 6.25 9.58586 6.25 10.0001C6.25 10.4143 6.58579 10.7501 7 10.7501H9.09198L8.34198 13.2501H6C5.58579 13.2501 5.25 13.5859 5.25 14.0001C5.25 14.4143 5.58579 14.7501 6 14.7501H7.89198L7.28163 16.7846C7.16261 17.1813 7.38774 17.5994 7.78449 17.7184C8.18123 17.8375 8.59935 17.6123 8.71837 17.2156L9.45802 14.7501H12.892L12.2816 16.7846C12.1626 17.1813 12.3877 17.5994 12.7845 17.7184C13.1812 17.8375 13.5993 17.6123 13.7184 17.2156L14.458 14.7501H17C17.4142 14.7501 17.75 14.4143 17.75 14.0001C17.75 13.5859 17.4142 13.2501 17 13.2501H14.908L15.658 10.7501H18C18.4142 10.7501 18.75 10.4143 18.75 10.0001C18.75 9.58586 18.4142 9.25008 18 9.25008H16.108L16.7184 7.21559C16.8374 6.81884 16.6123 6.40073 16.2155 6.28171C15.8188 6.16268 15.4007 6.38782 15.2816 6.78456L14.542 9.25008H11.108L11.7184 7.21559ZM14.092 10.7501L13.342 13.2501H9.90802L10.658 10.7501H14.092Z" fill="#1C274C"/>
</svg>
