<svg width="24" height="24" viewBox="0 0 24 24" fill="none" xmlns="http://www.w3.org/2000/svg">
<path d="M13.2895 5.78976C13.438 6.32609 13.4622 6.97547 13.0687 7.36896L7.3689 13.0688C6.97541 13.4623 6.32603 13.438 5.7897 13.2896C4.77646 13.0092 3.48102 13.3943 2.73779 14.1375C1.75407 15.1212 1.75407 16.7162 2.73779 17.6999C3.72152 18.6836 5.31646 18.6836 6.30018 17.6999C5.31646 18.6836 5.31646 20.2785 6.30018 21.2623C7.28391 22.246 8.87884 22.246 9.86257 21.2623M14.1374 2.73786C15.1212 1.75413 16.7161 1.75413 17.6998 2.73786C18.6835 3.72158 18.6835 5.31652 17.6998 6.30024C18.6835 5.31652 20.2785 5.31652 21.2622 6.30024C22.2459 7.28397 22.2459 8.8789 21.2622 9.86263C20.519 10.6059 19.2235 10.9909 18.2103 10.7105C17.674 10.5621 17.0246 10.5379 16.6311 10.9313L10.9313 16.6312C10.5378 17.0247 10.562 17.674 10.7105 18.2104" stroke="#1C274C" stroke-width="1.5" stroke-linecap="round" stroke-linejoin="round"/>
<path d="M10.2322 10.2322V12.3536L12.3535 11.6465V13.0607L14.9996 12.4999" stroke="#1C274C" stroke-width="1.5" stroke-linecap="round" stroke-linejoin="round"/>
</svg>
