<svg width="24" height="24" viewBox="0 0 24 24" fill="none" xmlns="http://www.w3.org/2000/svg">
<path d="M8.32187 14.493C7.37986 15.986 6.90885 16.7325 7.22975 17.343C7.55065 17.9536 8.45094 18.0239 10.2515 18.1644L10.7173 18.2008C11.229 18.2407 11.4848 18.2607 11.7085 18.3783C11.9322 18.4958 12.0983 18.6976 12.4306 19.1013L12.7332 19.4688C13.9027 20.8892 14.4874 21.5994 15.1544 21.5081C15.8214 21.4168 16.1289 20.5844 16.744 18.9196L16.9031 18.4889C17.0779 18.0158 17.1653 17.7793 17.337 17.6076C17.5087 17.4359 17.7452 17.3485 18.2183 17.1737L18.649 17.0146C20.3138 16.3995 21.1462 16.092 21.2375 15.425C21.3288 14.758 20.6186 14.1733 19.1982 13.0038M17.8938 10.5221C17.7532 8.72155 17.683 7.82126 17.0724 7.50036C16.4618 7.17946 15.7154 7.65047 14.2224 8.59248L13.8362 8.83619C13.4119 9.10388 13.1998 9.23773 12.9555 9.27118C12.7111 9.30464 12.4623 9.23391 11.9645 9.09247L11.5113 8.9637C9.75965 8.46595 8.88381 8.21708 8.41514 8.68575C7.94647 9.15442 8.19534 10.0303 8.69309 11.7819" stroke="#1C274C" stroke-width="1.5" stroke-linecap="round"/>
<path d="M13.5 6.5L13 6M9.5 2.5L11.5 4.5" stroke="#1C274C" stroke-width="1.5" stroke-linecap="round"/>
<path d="M6.5 6.5L4 4" stroke="#1C274C" stroke-width="1.5" stroke-linecap="round"/>
<path d="M6 12L4.5 10.5M2 8L2.5 8.5" stroke="#1C274C" stroke-width="1.5" stroke-linecap="round"/>
</svg>
