<svg xmlns="http://www.w3.org/2000/svg" fill="none" viewBox="0 0 24 24" width="1em" height="1em"><path fill="currentColor" d="M22 12c0 5.523-4.477 10-10 10S2 17.523 2 12 6.477 2 12 2s10 4.477 10 10" opacity=".5"/><path fill="currentColor" d="M16.558 9.43c.453.452.832.832 1.08 1.165.257.348.448.745.352 1.211s-.428.756-.803.973c-.359.208-.858.407-1.453.643l-1.432.57c-.278.111-.358.145-.424.186a1 1 0 0 0-.357.396c-.034.07-.06.153-.142.44l-.004.016c-.075.265-.138.486-.199.66-.06.174-.136.35-.258.499a1.48 1.48 0 0 1-1.688.439 1.6 1.6 0 0 1-.47-.31q-.204-.184-.495-.48l-.698-.698-1.699 1.699a.5.5 0 0 1-.707-.707l1.699-1.7-.699-.698a12 12 0 0 1-.479-.495 1.6 1.6 0 0 1-.31-.469 1.48 1.48 0 0 1 .44-1.688c.147-.122.324-.197.498-.259.174-.06.395-.123.66-.198l.015-.005c.288-.081.371-.107.441-.141.162-.08.3-.204.395-.357.042-.066.076-.146.186-.425l.57-1.432c.237-.595.436-1.093.644-1.452.217-.375.507-.707.973-.803s.863.094 1.21.353c.334.247.713.626 1.166 1.08z"/></svg>