<svg xmlns="http://www.w3.org/2000/svg" fill="none" viewBox="0 0 24 24" width="1em" height="1em"><path fill="currentColor" d="m14.245 7.824.53-.53zm1.93 1.93-.53.531zm-5.567 5.72-.53.53zm-2.082-2.082.53-.53zm6.986-.42.278.697zm-1.394.556-.278-.697zm-3.646-3.646-.697-.277zm.555-1.394.697.277zM9.122 11.1l-.205-.721zm.525-.174-.331-.673zm.598-.54L9.61 9.99zm3.368 3.368.398.635zm-.714 1.123.721.205zm.174-.525.673.331zm-5.235-1.765-.698.274zm.29-1.12.477.58zm3.284 4.694-.274.698zm1.12-.29.579.476zm4.968-4.167-.735-.151zM12.295 6.5l-.152-.735zm-5.31 9.455a.75.75 0 1 0 1.06 1.06zm3.112-.992a.75.75 0 1 0-1.06-1.06zm3.618-6.609 1.93 1.931 1.061-1.06-1.93-1.931zm-2.577 6.59-2.082-2.082-1.06 1.06 2.082 2.082zm4.097-2.668-1.395.555.555 1.394 1.395-.556zm-4.066-2.116.555-1.395-1.394-.555-.555 1.395zm-1.843 1.663c.244-.07.457-.127.652-.223l-.662-1.346c-.045.022-.102.042-.4.126zm.45-2.218c-.115.287-.14.342-.166.384l1.27.797c.116-.185.195-.391.289-.626zm.202 1.995c.371-.182.683-.464.903-.814L9.61 9.989a.73.73 0 0 1-.294.265zm3.862 1.231c-.235.094-.44.173-.626.288l.797 1.271c.042-.026.097-.051.384-.165zm-.22 2.252c.084-.297.104-.354.126-.399l-1.346-.662c-.096.195-.154.408-.223.652zm-.406-1.964c-.35.22-.632.532-.814.903l1.346.662a.73.73 0 0 1 .265-.294zm-4.158-.257a12 12 0 0 1-.438-.451c-.095-.108-.094-.127-.082-.098l-1.396.549c.086.22.227.398.355.543.13.147.303.32.5.517zm-.14-2.482c-.268.076-.503.143-.688.208a1.9 1.9 0 0 0-.575.301l.952 1.159c-.025.02-.016.003.12-.045.131-.046.314-.098.601-.18zm-.38 1.933a.23.23 0 0 1 .069-.265l-.952-1.159a1.73 1.73 0 0 0-.513 1.973zm1.542 3.691c.197.198.37.37.517.501.145.128.323.269.543.355l.549-1.396c.029.012.01.013-.098-.082-.105-.093-.24-.227-.45-.438zm2.099-1.33c-.082.287-.134.47-.18.602-.048.135-.065.144-.045.12l1.159.951c.15-.182.237-.392.301-.575.065-.185.132-.42.208-.689zm-1.039 2.186c.7.275 1.496.068 1.973-.512l-1.159-.953a.23.23 0 0 1-.265.07zm4.507-6.575c.495.495.804.807.989 1.055.175.237.121.264.131.214l1.47.303c.117-.57-.122-1.04-.397-1.41-.266-.36-.672-.763-1.132-1.223zm.145 3.384c.604-.24 1.136-.45 1.523-.674.398-.231.804-.569.922-1.138l-1.47-.303c.01-.05.05-.004-.205.144-.268.155-.675.32-1.325.578zm-1.014-6.375c-.46-.46-.864-.866-1.222-1.132-.37-.275-.841-.514-1.41-.397l.302 1.47c-.05.01-.023-.044.214.131.248.185.56.494 1.055.988zm-3.052 1.47c.259-.65.423-1.057.578-1.324.148-.255.195-.216.144-.206l-.303-1.469c-.569.118-.907.524-1.138.922-.224.387-.434.92-.675 1.523zm-3.679 8.251 2.052-2.052-1.06-1.06-2.053 2.052z"/><circle cx="12" cy="12" r="10" stroke="currentColor" stroke-width="1.5"/></svg>