<svg xmlns="http://www.w3.org/2000/svg" fill="none" viewBox="0 0 24 24" width="1em" height="1em"><path fill="currentColor" d="M21 16.829v-5.667c0-1.043 0-1.565-.283-1.958-.229-.317-.596-.486-1.25-.713-.134 1.606-.666 3.247-1.501 4.682-.973 1.672-2.418 3.166-4.269 3.974a4.26 4.26 0 0 1-3.394 0c-1.851-.808-3.296-2.302-4.269-3.974A11.5 11.5 0 0 1 4.7 9.657c-.383-.056-.676-.027-.93.114a1.5 1.5 0 0 0-.28.203C3 10.42 3 11.249 3 12.908v4.93c0 1.043 0 1.565.283 1.958s.778.558 1.768.888l.384.128c1.577.525 2.365.788 3.172.79q.364 0 .726-.052c.798-.116 1.548-.49 3.048-1.24 1.149-.575 1.724-.862 2.334-.996q.321-.07.65-.097c.623-.052 1.25.052 2.507.262 1.273.212 1.91.318 2.375.051.158-.09.298-.21.413-.35.34-.415.34-1.06.34-2.351"/><path fill="currentColor" fill-rule="evenodd" d="M12 2C8.686 2 6 4.552 6 7.7c0 3.124 1.915 6.769 4.903 8.072a2.76 2.76 0 0 0 2.194 0C16.085 14.47 18 10.824 18 7.7 18 4.552 15.314 2 12 2m0 8a2 2 0 1 0 0-4 2 2 0 0 0 0 4" clip-rule="evenodd"/></svg>