<svg xmlns="http://www.w3.org/2000/svg" fill="none" viewBox="0 0 24 24" width="1em" height="1em"><path fill="currentColor" fill-rule="evenodd" d="M2.237 2.288a.75.75 0 1 0-.474 1.423l.265.089c.676.225 1.123.376 1.453.529.312.145.447.262.533.382s.155.284.194.626c.04.361.042.833.042 1.546v2.672c0 1.367 0 2.47.116 3.337.122.9.38 1.658.982 2.26s1.36.86 2.26.981c.867.117 1.97.117 3.337.117H19a.75.75 0 0 0 0-1.5h-8c-1.435 0-2.437-.002-3.192-.103-.734-.099-1.122-.28-1.399-.556a1.5 1.5 0 0 1-.255-.341h9.904c.449 0 .843 0 1.17-.035.355-.039.698-.124 1.021-.337.324-.213.537-.495.712-.806.161-.286.317-.649.493-1.061l.467-1.09c.384-.896.706-1.647.867-2.257.168-.637.212-1.302-.184-1.903-.397-.6-1.025-.822-1.676-.919-.625-.092-1.441-.092-2.417-.092H5.707l-.01-.083c-.054-.485-.175-.93-.466-1.333-.291-.404-.675-.66-1.118-.865-.416-.194-.945-.37-1.571-.58zM5.75 6.75V9.5c0 1.172.001 2.054.057 2.75h10.215c.496 0 .808-.001 1.046-.027.219-.023.303-.062.356-.097s.121-.097.23-.289c.116-.208.24-.495.436-.95l.428-1c.415-.968.69-1.616.82-2.106.125-.476.062-.62.013-.694-.048-.073-.156-.189-.643-.26-.501-.075-1.205-.077-2.258-.077zm-.5 12.75a2.25 2.25 0 1 0 4.5 0 2.25 2.25 0 0 0-4.5 0m2.25.75a.75.75 0 1 1 0-1.5.75.75 0 0 1 0 1.5m9 1.5a2.25 2.25 0 1 1 0-4.5 2.25 2.25 0 0 1 0 4.5m-.75-2.25a.75.75 0 1 0 1.5 0 .75.75 0 0 0-1.5 0" clip-rule="evenodd"/></svg>