<svg width="24" height="24" viewBox="0 0 24 24" fill="none" xmlns="http://www.w3.org/2000/svg">
<path fill-rule="evenodd" clip-rule="evenodd" d="M11.2844 9.77504C10.9613 9.54906 10.75 9.17421 10.75 8.75C10.75 8.05964 11.3096 7.5 12 7.5C12.6903 7.5 13.25 8.05964 13.25 8.75C13.25 9.17421 13.0387 9.54906 12.7156 9.77504L15.206 17.2462C15.2099 17.2571 15.2136 17.2681 15.217 17.2792L16.7115 21.7628C16.8425 22.1558 16.6301 22.5805 16.2372 22.7115C15.8442 22.8425 15.4195 22.6301 15.2885 22.2372L13.9594 18.25H10.0406L8.7115 22.2372C8.58052 22.6301 8.15578 22.8425 7.76282 22.7115C7.36986 22.5805 7.15749 22.1558 7.28848 21.7628L8.78301 17.2792C8.78643 17.2681 8.7901 17.2571 8.79401 17.2462L11.2844 9.77504ZM12 12.3717L13.4594 16.75H10.5406L12 12.3717Z" fill="#1C274C"/>
<path opacity="0.4" d="M12 2.75C8.55372 2.75 5.75 5.56721 5.75 9.05473C5.75 10.7783 6.43459 12.3382 7.54467 13.4763C7.8339 13.7728 7.82798 14.2477 7.53146 14.5369C7.23494 14.8261 6.76011 14.8202 6.47088 14.5237C5.09743 13.1156 4.25 11.1836 4.25 9.05473C4.25 4.74981 7.7143 1.25 12 1.25C16.2857 1.25 19.75 4.74981 19.75 9.05473C19.75 11.1656 18.9168 13.083 17.5637 14.488C17.2764 14.7863 16.8016 14.7953 16.5033 14.5079C16.2049 14.2206 16.196 13.7458 16.4833 13.4475C17.5769 12.3119 18.25 10.7638 18.25 9.05473C18.25 5.56721 15.4463 2.75 12 2.75Z" fill="#1C274C"/>
<path opacity="0.7" d="M11.9998 5.5719C10.0999 5.5719 8.5498 7.1257 8.5498 9.05474C8.5498 10.0006 8.92229 10.8563 9.52748 11.4839C9.815 11.7821 9.80638 12.2569 9.50821 12.5444C9.21005 12.8319 8.73525 12.8233 8.44773 12.5251C7.58267 11.628 7.0498 10.4028 7.0498 9.05474C7.0498 6.30831 9.2605 4.0719 11.9998 4.0719C14.7391 4.0719 16.9498 6.30831 16.9498 9.05474C16.9498 10.3837 16.4319 11.5933 15.5884 12.4868C15.3041 12.788 14.8294 12.8017 14.5282 12.5173C14.227 12.233 14.2133 11.7583 14.4977 11.4571C15.0878 10.8321 15.4498 9.98731 15.4498 9.05474C15.4498 7.1257 13.8997 5.5719 11.9998 5.5719Z" fill="#1C274C"/>
</svg>
