<svg width="24" height="24" viewBox="0 0 24 24" fill="none" xmlns="http://www.w3.org/2000/svg">
<path fill-rule="evenodd" clip-rule="evenodd" d="M13.0222 4.40996C14.1296 3.70294 14.8904 3.21942 15.477 2.95394C16.063 2.68874 16.266 2.73967 16.3704 2.79341C16.4687 2.84397 16.6217 2.96761 16.7289 3.5831C16.8368 4.20294 16.8604 5.08688 16.8919 6.38137L16.9079 7.03791L16.9107 7.15745V7.15746C16.9245 7.75914 16.9363 8.27591 17.1558 8.73578C17.3767 9.19872 17.7711 9.52737 18.2249 9.90547L18.315 9.98062L18.8095 10.3939C19.7854 11.2095 20.4473 11.7655 20.8555 12.2294C21.2548 12.6832 21.2669 12.888 21.2417 13.0208C21.2144 13.1651 21.1121 13.3696 20.5559 13.6847C19.9944 14.0029 19.1596 14.3305 17.9416 14.8055L17.3232 15.0467L17.2158 15.0885L17.2158 15.0885C16.6426 15.3112 16.1645 15.497 15.7978 15.8556C15.4314 16.2138 15.2341 16.6879 14.9971 17.2574L14.9526 17.3641L14.696 17.9785C14.1907 19.1884 13.8421 20.0182 13.5102 20.5739C13.1807 21.1254 12.9746 21.221 12.8336 21.244C12.7051 21.2649 12.5038 21.2499 12.0622 20.8363C11.6114 20.4141 11.0756 19.7348 10.2898 18.7333L9.8916 18.2258L9.81895 18.133C9.45505 17.6677 9.13832 17.2628 8.68271 17.0283C8.22933 16.7949 7.71334 16.7692 7.11533 16.7393L6.99598 16.7333L6.34288 16.6997C5.05489 16.6335 4.17649 16.5862 3.56323 16.4615C2.95581 16.3379 2.83727 16.1821 2.78899 16.0809C2.73662 15.9711 2.69289 15.7625 2.97268 15.181C3.25282 14.5987 3.75468 13.8475 4.48792 12.7548L4.86023 12.2L4.92597 12.1022C5.27033 11.5904 5.55851 11.1622 5.65337 10.6611C5.74902 10.1558 5.63303 9.65783 5.49647 9.07156L5.47044 8.95958L5.32339 8.32443C5.0335 7.07222 4.83759 6.21703 4.78789 5.58763C4.73912 4.9702 4.85001 4.77477 4.95978 4.66743C5.06855 4.56108 5.26347 4.4554 5.87493 4.52065C6.49925 4.58727 7.34449 4.80655 8.58349 5.13111L9.21179 5.2957L9.32322 5.325C9.90236 5.47756 10.3969 5.60783 10.9044 5.52496C11.4074 5.44285 11.8424 5.16429 12.3603 4.83269L12.46 4.76892L13.0222 4.40996ZM17.0569 1.45969C16.3259 1.0835 15.568 1.26632 14.8586 1.58737C14.1615 1.90285 13.3094 2.44688 12.2677 3.11203L11.6528 3.50463C10.9803 3.93398 10.8209 4.01874 10.6627 4.04456C10.5094 4.06959 10.3443 4.04176 9.59189 3.84465L8.90166 3.66385L8.90165 3.66384C7.74011 3.35954 6.78457 3.1092 6.03409 3.02912C5.25746 2.94625 4.49761 3.02145 3.9111 3.59493C3.3256 4.16743 3.23094 4.92568 3.29254 5.70573C3.35216 6.46059 3.57569 7.42601 3.8477 8.6008L4.00909 9.29789C4.18499 10.0577 4.20901 10.2265 4.17955 10.3821C4.14925 10.5421 4.05958 10.7012 3.61468 11.3642L3.20772 11.9706C2.5176 12.999 1.95346 13.8396 1.62099 14.5307C1.28264 15.2339 1.08195 15.9865 1.43522 16.7269C1.79259 17.4758 2.50797 17.7775 3.26417 17.9313C4.0014 18.0813 4.99403 18.1324 6.20121 18.1944L6.91893 18.2313C7.70459 18.2717 7.86754 18.2957 7.99627 18.362C8.12263 18.427 8.23214 18.5408 8.71151 19.1517L9.15017 19.7108L9.15021 19.7109C9.88525 20.6477 10.4916 21.4205 11.0368 21.9312C11.6012 22.4597 12.2577 22.8579 13.0753 22.7244C13.8802 22.593 14.395 22.0176 14.7979 21.3431C15.1918 20.6837 15.5807 19.7525 16.0563 18.6136L16.0563 18.6136L16.3367 17.9422C16.6427 17.2096 16.7261 17.0458 16.8465 16.9281C16.9665 16.8108 17.1308 16.7318 17.8682 16.4442L18.4866 16.203L18.5444 16.1805L18.5444 16.1805C19.6905 15.7335 20.6281 15.3679 21.2954 14.9898C21.9791 14.6024 22.5639 14.1011 22.7156 13.2998C22.8694 12.4871 22.4931 11.8198 21.9815 11.2384C21.4878 10.6773 20.7347 10.048 19.8217 9.28499L19.277 8.82967C18.682 8.33241 18.5713 8.21927 18.5095 8.08979C18.4462 7.95702 18.4267 7.79053 18.4075 7.00139L18.3899 6.28049C18.3604 5.06638 18.3361 4.06912 18.2066 3.3257C18.0741 2.56484 17.794 1.83907 17.0569 1.45969ZM19.5303 18.4697C19.2374 18.1768 18.7625 18.1768 18.4696 18.4697C18.1767 18.7626 18.1767 19.2374 18.4696 19.5303L20.4696 21.5303C20.7625 21.8232 21.2374 21.8232 21.5303 21.5303C21.8232 21.2374 21.8232 20.7626 21.5303 20.4697L19.5303 18.4697Z" fill="#1C274C"/>
</svg>
