<svg xmlns="http://www.w3.org/2000/svg" fill="none" viewBox="0 0 24 24" width="1em" height="1em"><path stroke="currentColor" stroke-linecap="round" stroke-width="1.5" d="M8.913 15.933c1.258.316 2.685.316 4.122-.07 1.437-.384 2.673-1.098 3.605-2"/><ellipse cx="14.509" cy="9.775" fill="currentColor" rx="1" ry="1.5" transform="rotate(-15 14.51 9.775)"/><ellipse cx="8.714" cy="11.328" fill="currentColor" rx="1" ry="1.5" transform="rotate(-15 8.714 11.328)"/><path stroke="currentColor" stroke-linecap="round" stroke-width="1.5" d="M20.796 9.643c1.111 4.147 1.667 6.22.724 7.853s-3.016 2.19-7.163 3.3c-4.147 1.111-6.22 1.667-7.853.724s-2.19-3.016-3.3-7.163c-1.112-4.147-1.667-6.22-.724-7.853s3.016-2.19 7.163-3.3c4.147-1.112 6.22-1.667 7.853-.724 1.009.582 1.606 1.595 2.177 3.26"/><path stroke="currentColor" stroke-width="1.5" d="m13 16 .478.974a1.5 1.5 0 1 0 2.693-1.322l-.46-.936"/></svg>