<svg width="24" height="24" viewBox="0 0 24 24" fill="none" xmlns="http://www.w3.org/2000/svg">
<path fill-rule="evenodd" clip-rule="evenodd" d="M11.1566 20.3133C16.2137 20.3133 20.3133 16.2137 20.3133 11.1566C20.3133 6.09956 16.2137 2 11.1566 2C6.09956 2 2 6.09956 2 11.1566C2 16.2137 6.09956 20.3133 11.1566 20.3133ZM19.8606 18.8382C19.5783 18.5559 19.1205 18.5559 18.8382 18.8382C18.5559 19.1205 18.5559 19.5783 18.8382 19.8606L20.7659 21.7883C21.0483 22.0706 21.506 22.0706 21.7883 21.7883C22.0706 21.506 22.0706 21.0483 21.7883 20.7659L19.8606 18.8382ZM11.8795 10.4337V8.74697C11.8795 8.14462 11.3976 8.01407 11.1566 8.02408C10.7574 8.02408 10.4337 8.34773 10.4337 8.74697V10.4337H8.747C8.34776 10.4337 8.02411 10.7574 8.02411 11.1566C8.02411 11.5559 8.34776 11.8795 8.747 11.8795H10.4337V13.5662C10.4337 13.9655 10.7574 14.2891 11.1566 14.2891C11.5559 14.2891 11.8795 13.9655 11.8795 13.5662V11.8795H13.5663C13.9655 11.8795 14.2892 11.5559 14.2892 11.1566C14.2892 10.7574 13.9655 10.4337 13.5663 10.4337H11.8795Z" fill="#1C274C"/>
</svg>
