<svg width="24" height="24" viewBox="0 0 24 24" fill="none" xmlns="http://www.w3.org/2000/svg">
<path fill-rule="evenodd" clip-rule="evenodd" d="M12.4221 3.07123C12.0479 3.42653 11.594 4.00042 10.9207 4.85639L10.5804 5.28906C10.5579 5.31757 10.5357 5.34596 10.5136 5.3742C10.2083 5.76387 9.92648 6.12349 9.53061 6.33471C9.12819 6.54943 8.67726 6.57441 8.2025 6.60071C8.16814 6.60261 8.13365 6.60452 8.09905 6.60651L7.57163 6.63684C6.52583 6.69698 5.83209 6.73909 5.34853 6.84356C4.88259 6.94422 4.81267 7.06139 4.7828 7.12156C4.74724 7.19316 4.69889 7.3445 4.8939 7.81891C5.09249 8.30205 5.46125 8.92913 6.01205 9.86018L6.2906 10.331C6.30809 10.3606 6.32551 10.3899 6.34281 10.4191C6.59742 10.8479 6.82658 11.2338 6.88686 11.6834C6.94667 12.1294 6.83043 12.5663 6.69944 13.0586C6.69054 13.0921 6.68156 13.1258 6.67257 13.1598L6.52963 13.7004C6.2473 14.7681 6.05802 15.491 5.99439 16.0208C5.93073 16.5508 6.02305 16.6697 6.0599 16.7095C6.06043 16.71 6.06099 16.7106 6.06159 16.7113C6.08593 16.7379 6.16716 16.8269 6.63375 16.773C7.08186 16.7213 7.68497 16.5627 8.56226 16.321C8.27741 16.0838 8.03045 15.8642 7.83803 15.6576C7.49806 15.2925 7.17563 14.8085 7.26471 14.1833C7.35444 13.5534 7.80379 13.1828 8.23537 12.9345C8.64885 12.6965 9.224 12.4713 9.88583 12.2122L10.3071 12.0472C10.5194 11.964 10.6376 11.9171 10.7232 11.8754C10.7717 11.8517 10.7912 11.8383 10.7969 11.8338C10.8013 11.8279 10.8143 11.8084 10.837 11.76C10.8772 11.674 10.922 11.5554 11.0015 11.3421L11.1593 10.9187C11.407 10.254 11.6223 9.67599 11.8534 9.25903C12.095 8.82304 12.4582 8.36917 13.0858 8.26854C13.7084 8.16874 14.1981 8.48018 14.5705 8.81299C14.9292 9.13357 15.3285 9.61137 15.7902 10.1638L16.0823 10.5134C16.2298 10.6899 16.3134 10.7891 16.3818 10.8589C16.4124 10.8901 16.4311 10.9061 16.4414 10.9142C16.4464 10.9181 16.4494 10.9201 16.4508 10.921L16.4534 10.9225L16.456 10.9236C16.4575 10.9241 16.4608 10.9253 16.4666 10.9269C16.479 10.9303 16.5025 10.9357 16.5454 10.9414C16.6413 10.9543 16.7698 10.9618 16.9985 10.9742L17.4518 10.9987C17.666 11.0103 17.8716 11.0214 18.0672 11.0339C18.5367 10.6206 18.8497 10.3167 19.0452 10.0614C19.2545 9.78797 19.2567 9.66436 19.247 9.59255C19.2375 9.52137 19.2053 9.38476 18.7963 9.13466C18.372 8.87528 17.729 8.60536 16.7599 8.20206L16.271 7.99861C16.2391 7.98534 16.2073 7.97219 16.1757 7.9591C15.7345 7.77654 15.3179 7.60418 15.0079 7.26957C14.7032 6.94063 14.5529 6.50962 14.3888 6.03919C14.3771 6.0054 14.3652 5.97141 14.3532 5.93724L14.1702 5.41542C13.8082 4.38345 13.5628 3.68957 13.3225 3.22878C13.0865 2.7763 12.9599 2.75625 12.9362 2.75248C12.9356 2.75239 12.9351 2.75231 12.9347 2.75224C12.9342 2.75216 12.9337 2.75206 12.9331 2.75194C12.9108 2.74774 12.7874 2.72443 12.4221 3.07123ZM19.8916 11.3732C20.02 11.2376 20.1356 11.1046 20.2362 10.9732C20.5795 10.5248 20.816 10.0071 20.7337 9.3932C20.6355 8.66071 20.1414 8.19889 19.5787 7.85487C19.0428 7.52727 18.2896 7.2139 17.3948 6.84157L16.8473 6.61374C16.2496 6.36498 16.1672 6.31375 16.1083 6.25016C16.0437 6.18051 15.9919 6.07715 15.7687 5.44077L15.5654 4.86119C15.2289 3.90189 14.949 3.10367 14.6525 2.53514C14.3512 1.95748 13.9232 1.39902 13.1865 1.27354C12.4477 1.14768 11.8608 1.53575 11.3893 1.98345C10.9261 2.42324 10.4051 3.08561 9.7799 3.88049L9.40139 4.36168C8.98562 4.89026 8.90511 4.96829 8.8245 5.01131C8.75088 5.05059 8.65889 5.07184 8.01294 5.10898L7.48551 5.13931C7.46418 5.14054 7.44292 5.14176 7.42173 5.14298C6.45687 5.19842 5.64398 5.24512 5.03178 5.37738C4.38851 5.51636 3.76899 5.79052 3.43932 6.45443C3.11533 7.10689 3.25308 7.77259 3.50653 8.38919C3.75153 8.98524 4.17815 9.70632 4.69045 10.5722L4.9996 11.0948C5.33663 11.6645 5.3856 11.7741 5.40017 11.8828C5.41525 11.9952 5.39517 12.123 5.22241 12.7764L5.06439 13.374C4.80096 14.3701 4.58275 15.1953 4.50509 15.8419C4.42598 16.5007 4.46249 17.1923 4.95955 17.7289C5.47115 18.2811 6.15976 18.3377 6.80574 18.2631C7.42606 18.1915 8.21532 17.9733 9.15264 17.7142L9.28104 17.6787L9.87865 17.3883C9.89411 17.402 9.90825 17.4148 9.92139 17.4271C9.95326 17.4571 9.96959 17.4754 9.97784 17.4856C9.98177 17.4904 9.98381 17.4934 9.98468 17.4947L9.9861 17.497L9.98712 17.4993C9.98765 17.5006 9.98885 17.5037 9.99054 17.5094C9.9941 17.5214 9.99983 17.5446 10.0064 17.587C10.021 17.6823 10.0308 17.81 10.0474 18.038L10.0802 18.49C10.1319 19.2023 10.1767 19.8199 10.2813 20.2878C10.3905 20.7768 10.6084 21.3108 11.1707 21.5932C11.735 21.8766 12.2931 21.7295 12.7485 21.5217C13.1829 21.3234 13.6996 20.9869 14.294 20.5998L14.6722 20.3536C14.8629 20.2294 14.9695 20.1607 15.0531 20.1154C15.0903 20.0953 15.1115 20.0862 15.1223 20.0822C15.1274 20.0803 15.1302 20.0795 15.1311 20.0792L15.1321 20.079L15.1334 20.0789C15.1345 20.0788 15.1377 20.0787 15.1436 20.0789C15.156 20.0794 15.1799 20.0815 15.2226 20.089C15.3181 20.1059 15.4433 20.1379 15.6655 20.1958L16.106 20.3104C16.8008 20.4912 17.4024 20.6477 17.8792 20.6995C18.3738 20.7533 18.9568 20.7215 19.4022 20.2691C19.8482 19.816 19.8696 19.2323 19.8067 18.739C19.7461 18.2639 19.5781 17.6664 19.3844 16.9769L19.2614 16.5393C19.1994 16.3186 19.1651 16.1946 19.1465 16.0999C19.1382 16.0576 19.1357 16.034 19.135 16.0219C19.1347 16.0162 19.1348 16.0132 19.1348 16.0123C19.1348 16.0122 19.1349 16.0113 19.135 16.011C19.1352 16.0103 19.1359 16.0076 19.1376 16.0026C19.1414 15.9919 19.15 15.9708 19.1695 15.9334C19.2133 15.8493 19.2802 15.7419 19.4012 15.5494L19.6412 15.1675C20.0183 14.5677 20.3462 14.046 20.5372 13.6089C20.7373 13.1506 20.8753 12.5893 20.58 12.0298C20.4124 11.712 20.1647 11.5082 19.8916 11.3732ZM13.3017 9.74886C13.3014 9.7482 13.3051 9.74811 13.3133 9.75058C13.306 9.75075 13.3019 9.74951 13.3017 9.74886ZM13.3259 9.75507C13.3611 9.76932 13.4373 9.81197 13.571 9.93147C13.8378 10.1699 14.1668 10.5605 14.6761 11.1699L14.9314 11.4753C14.9495 11.497 14.9676 11.5189 14.9859 11.5408C15.2087 11.8091 15.4466 12.0954 15.7803 12.2629C16.1146 12.4308 16.4861 12.4499 16.8328 12.4676C16.8612 12.469 16.8894 12.4705 16.9175 12.472L17.313 12.4934C18.1026 12.5361 18.6092 12.5655 18.9579 12.6365C19.1244 12.6703 19.2061 12.705 19.2425 12.7261C19.2453 12.7277 19.2477 12.7291 19.2497 12.7304C19.2496 12.7315 19.2495 12.7327 19.2494 12.734C19.2463 12.7722 19.2293 12.8557 19.1625 13.0086C19.0223 13.3295 18.7575 13.7547 18.3401 14.4188L18.1312 14.7511C18.1163 14.7749 18.1012 14.7987 18.086 14.8228C17.9026 15.1125 17.7028 15.4281 17.6499 15.7999C17.5971 16.1701 17.6994 16.5299 17.794 16.8626C17.8019 16.8903 17.8097 16.9178 17.8173 16.945L17.9245 17.3266C18.1386 18.0884 18.2739 18.5775 18.3187 18.9288C18.3391 19.0888 18.334 19.1723 18.3271 19.2113C18.2882 19.219 18.2039 19.226 18.0412 19.2083C17.6878 19.1699 17.1948 19.0437 16.4276 18.8441L16.0432 18.7441C16.0157 18.7369 15.9881 18.7297 15.9603 18.7223C15.6248 18.634 15.2635 18.5388 14.8946 18.5979C14.5239 18.6574 14.2119 18.8619 13.9246 19.0502C13.9008 19.0658 13.8772 19.0813 13.8538 19.0965L13.5245 19.3109C12.8666 19.7393 12.4451 20.0113 12.1257 20.1571C11.9735 20.2265 11.8897 20.2452 11.8507 20.2491C11.8484 20.2494 11.8464 20.2495 11.8446 20.2496C11.8432 20.2475 11.8415 20.245 11.8397 20.242C11.8182 20.2064 11.7821 20.126 11.7452 19.9609C11.6679 19.6148 11.6292 19.1104 11.5721 18.3235L11.5434 17.9294C11.5414 17.9014 11.5394 17.8732 11.5375 17.8449C11.5134 17.4996 11.4876 17.1283 11.3128 16.7971C11.1386 16.467 10.8472 16.2348 10.5745 16.0175C10.5521 15.9997 10.5298 15.9819 10.5078 15.9642L10.197 15.7152C9.57705 15.2182 9.17956 14.8972 8.93575 14.6353C8.81652 14.5073 8.77184 14.4329 8.75607 14.3974C8.78151 14.3693 8.84346 14.3151 8.98345 14.2346C9.28748 14.0597 9.75499 13.8744 10.4875 13.5875L10.8541 13.4439C10.8804 13.4336 10.9069 13.4233 10.9337 13.4129C11.2537 13.2887 11.6029 13.1533 11.8659 12.886C12.1292 12.6185 12.2589 12.2673 12.3775 11.9458C12.3874 11.9189 12.3973 11.8923 12.4071 11.8659L12.5444 11.4976C12.8186 10.7616 12.9957 10.2922 13.1654 9.98606C13.2449 9.84253 13.2985 9.78011 13.3259 9.75507ZM8.74846 14.3717C8.74911 14.3719 8.75046 14.376 8.75053 14.3833C8.74783 14.3752 8.7478 14.3715 8.74846 14.3717ZM8.74649 14.409C8.74396 14.4166 8.74109 14.4204 8.7403 14.4204C8.7395 14.4205 8.74076 14.4166 8.74649 14.409ZM18.318 19.2404C18.3176 19.2398 18.3188 19.2354 18.3231 19.229C18.3206 19.2377 18.3185 19.241 18.318 19.2404ZM18.3448 19.2069C18.351 19.2025 18.3553 19.2012 18.3559 19.2016C18.3564 19.202 18.3533 19.2042 18.3448 19.2069ZM13.336 9.74656C13.3437 9.74068 13.3475 9.73938 13.3475 9.7402C13.3475 9.74102 13.3437 9.74396 13.336 9.74656Z" fill="#1C274C"/>
</svg>
