<svg width="24" height="24" viewBox="0 0 24 24" fill="none" xmlns="http://www.w3.org/2000/svg">
<path d="M19.682 19.6619L20.2163 20.1883L19.682 19.6619ZM19.682 4.06488L19.1477 4.5912L19.682 4.06488ZM4.85233 4.5912C5.14301 4.29611 5.13943 3.82125 4.84434 3.53057C4.54925 3.23989 4.07439 3.24347 3.78371 3.53856L4.85233 4.5912ZM8.4 2.7772L7.86567 2.2509C7.5781 2.54286 7.57811 3.01158 7.86569 3.30353L8.4 2.7772ZM9.6161 5.08049C9.90678 5.37558 10.3816 5.37916 10.6767 5.08848C10.9718 4.7978 10.9754 4.32294 10.6847 4.02785L9.6161 5.08049ZM10.6847 1.52643C10.9754 1.23133 10.9718 0.756467 10.6767 0.465797C10.3816 0.175127 9.90675 0.178718 9.61608 0.473817L10.6847 1.52643ZM21.75 12C21.75 11.5858 21.4142 11.25 21 11.25C20.5858 11.2499 20.25 11.5857 20.25 11.9999L21.75 12ZM20.1905 8.04318C20.2144 8.4567 20.569 8.77258 20.9825 8.74872C21.396 8.72485 21.7119 8.37027 21.688 7.95675L20.1905 8.04318ZM12 20.25C9.85716 20.25 8.32662 20.2483 7.1637 20.0896C6.02353 19.934 5.34923 19.6401 4.85233 19.1356L3.78371 20.1883C4.60483 21.0218 5.65019 21.3969 6.96085 21.5758C8.24876 21.7516 9.9002 21.75 12 21.75V20.25ZM2.25 11.8634C2.25 13.996 2.24845 15.6698 2.42124 16.9745C2.59674 18.2997 2.96414 19.3563 3.78371 20.1883L4.85233 19.1356C4.35388 18.6296 4.06227 17.9405 3.90826 16.7776C3.75155 15.5943 3.75 14.0378 3.75 11.8634H2.25ZM12 21.75C14.0998 21.75 15.7512 21.7516 17.0391 21.5758C18.3498 21.3969 19.3952 21.0218 20.2163 20.1883L19.1477 19.1356C18.6508 19.6401 17.9765 19.934 16.8363 20.0896C15.6734 20.2483 14.1428 20.25 12 20.25V21.75ZM12 3.47686C14.1428 3.47686 15.6734 3.4785 16.8363 3.63722C17.9765 3.79284 18.6508 4.08676 19.1477 4.5912L20.2163 3.53856C19.3952 2.70498 18.3498 2.32989 17.0391 2.151C15.7512 1.97522 14.0998 1.97686 12 1.97686V3.47686ZM3.75 11.8634C3.75 9.68902 3.75155 8.13255 3.90826 6.94924C4.06227 5.78636 4.35388 5.09721 4.85233 4.5912L3.78371 3.53856C2.96414 4.37056 2.59674 5.42717 2.42124 6.75231C2.24845 8.05701 2.25 9.73081 2.25 11.8634H3.75ZM12 1.97686C10.5848 1.97686 9.38003 1.97665 8.3621 2.02816L8.4379 3.52625C9.40971 3.47707 10.5719 3.47686 12 3.47686V1.97686ZM7.86569 3.30353L9.6161 5.08049L10.6847 4.02785L8.93431 2.25088L7.86569 3.30353ZM8.93432 3.30351L10.6847 1.52643L9.61608 0.473817L7.86567 2.2509L8.93432 3.30351ZM20.25 11.9999C20.2499 14.1276 20.2449 15.6533 20.0868 16.8144C19.9315 17.955 19.6409 18.6349 19.1477 19.1356L20.2163 20.1883C21.0271 19.3652 21.3954 18.3222 21.5731 17.0167C21.748 15.7318 21.7499 14.0884 21.75 12L20.25 11.9999ZM21.688 7.95675C21.5776 6.04372 21.2662 4.60441 20.2163 3.53856L19.1477 4.5912C19.7888 5.24204 20.0836 6.19063 20.1905 8.04318L21.688 7.95675Z" fill="#1C274C"/>
<path d="M8.5 12.5L10.5 14.5L15.5 9.5" stroke="#1C274C" stroke-width="1.5" stroke-linecap="round" stroke-linejoin="round"/>
</svg>
