<svg xmlns="http://www.w3.org/2000/svg" fill="none" viewBox="0 0 24 24" width="1em" height="1em"><path stroke="currentColor" stroke-linecap="round" stroke-width="1.5" d="M11 14H3m8 4H3"/><path stroke="currentColor" stroke-width="1.5" d="M18.875 14.118c1.654.955 2.48 1.433 2.602 2.121a1.5 1.5 0 0 1 0 .521c-.121.69-.948 1.167-2.602 2.122s-2.48 1.432-3.138 1.193a1.5 1.5 0 0 1-.451-.26c-.536-.45-.536-1.405-.536-3.315s0-2.864.536-3.314a1.5 1.5 0 0 1 .451-.26c.657-.24 1.484.238 3.138 1.192Z"/><path stroke="currentColor" stroke-linecap="round" stroke-width="1.5" d="M3 6h10.5M20 6h-2.25M20 10H9.5M3 10h2.25"/></svg>