<svg width="24" height="24" viewBox="0 0 24 24" fill="none" xmlns="http://www.w3.org/2000/svg">
<path fill-rule="evenodd" clip-rule="evenodd" d="M10.9451 1.25H13.0549C14.4225 1.24998 15.5248 1.24996 16.3918 1.36652C17.2919 1.48754 18.0497 1.74643 18.6517 2.34835C19.2536 2.95027 19.5125 3.70814 19.6335 4.60825C19.75 5.47522 19.75 6.57754 19.75 7.94513V16.0549C19.75 17.4225 19.75 18.5248 19.6335 19.3918C19.5125 20.2919 19.2536 21.0497 18.6517 21.6517C18.0497 22.2536 17.2919 22.5125 16.3918 22.6335C15.5248 22.75 14.4225 22.75 13.0549 22.75H10.9451C9.57755 22.75 8.47523 22.75 7.60826 22.6335C6.70815 22.5125 5.95028 22.2536 5.34836 21.6517C4.74644 21.0497 4.48755 20.2919 4.36653 19.3918C4.24997 18.5248 4.24999 17.4225 4.25001 16.0549V7.94512C4.24999 6.57754 4.24997 5.47522 4.36653 4.60825C4.48755 3.70814 4.74644 2.95027 5.34836 2.34835C5.95028 1.74643 6.70815 1.48754 7.60826 1.36652C8.47523 1.24996 9.57755 1.24998 10.9451 1.25ZM7.80813 2.85315C7.07436 2.9518 6.68578 3.13225 6.40902 3.40901C6.13226 3.68577 5.95181 4.07435 5.85316 4.80812C5.75161 5.56347 5.75001 6.56459 5.75001 8V16C5.75001 17.4354 5.75161 18.4365 5.85316 19.1919C5.95181 19.9257 6.13226 20.3142 6.40902 20.591C6.68578 20.8678 7.07436 21.0482 7.80813 21.1469C8.56348 21.2484 9.5646 21.25 11 21.25H13C14.4354 21.25 15.4365 21.2484 16.1919 21.1469C16.9257 21.0482 17.3142 20.8678 17.591 20.591C17.8678 20.3142 18.0482 19.9257 18.1469 19.1919C18.2484 18.4365 18.25 17.4354 18.25 16V8C18.25 6.56458 18.2484 5.56347 18.1469 4.80812C18.0482 4.07435 17.8678 3.68577 17.591 3.40901C17.3142 3.13225 16.9257 2.9518 16.1919 2.85315C15.4365 2.75159 14.4354 2.75 13 2.75H11C9.5646 2.75 8.56348 2.75159 7.80813 2.85315ZM1.6646 5.32918C2.03509 5.14394 2.48559 5.29411 2.67083 5.66459L3.44723 7.21738C3.69356 7.71005 3.69356 8.28995 3.44723 8.78262L2.89444 9.8882C2.85925 9.95858 2.85925 10.0414 2.89444 10.1118L3.44723 11.2174C3.69356 11.71 3.69356 12.29 3.44723 12.7826L2.89444 13.8882C2.85925 13.9586 2.85925 14.0414 2.89444 14.1118L3.44723 15.2174C3.69356 15.7101 3.69356 16.29 3.44722 16.7826L2.67083 18.3354C2.48559 18.7059 2.03509 18.8561 1.6646 18.6708C1.29412 18.4856 1.14395 18.0351 1.32919 17.6646L2.10558 16.1118C2.14078 16.0414 2.14078 15.9586 2.10558 15.8882L1.5528 14.7826C1.30646 14.29 1.30646 13.71 1.5528 13.2174L2.10558 12.1118C2.14078 12.0414 2.14078 11.9586 2.10558 11.8882L1.5528 10.7826C1.30646 10.29 1.30646 9.71005 1.5528 9.21738L2.10558 8.1118C2.14078 8.04142 2.14078 7.95858 2.10558 7.8882L1.32919 6.33541C1.14395 5.96493 1.29412 5.51442 1.6646 5.32918ZM22.3354 5.32918C22.7059 5.51442 22.8561 5.96493 22.6708 6.33541L21.8944 7.8882C21.8592 7.95858 21.8592 8.04142 21.8944 8.1118L22.4472 9.21738C22.6936 9.71005 22.6936 10.29 22.4472 10.7826L21.8944 11.8882C21.8592 11.9586 21.8592 12.0414 21.8944 12.1118L22.4472 13.2174C22.6936 13.71 22.6936 14.29 22.4472 14.7826L21.8944 15.8882C21.8592 15.9586 21.8592 16.0414 21.8944 16.1118L22.6708 17.6646C22.8561 18.0351 22.7059 18.4856 22.3354 18.6708C21.9649 18.8561 21.5144 18.7059 21.3292 18.3354L20.5528 16.7826C20.3065 16.29 20.3065 15.7101 20.5528 15.2174L21.1056 14.1118C21.1408 14.0414 21.1408 13.9586 21.1056 13.8882L20.5528 12.7826C20.3065 12.29 20.3065 11.71 20.5528 11.2174L21.1056 10.1118C21.1408 10.0414 21.1408 9.95858 21.1056 9.8882L20.5528 8.78262C20.3065 8.28995 20.3065 7.71005 20.5528 7.21738L21.3292 5.66459C21.5144 5.29411 21.9649 5.14394 22.3354 5.32918ZM8.75001 19C8.75001 18.5858 9.0858 18.25 9.50001 18.25H14.5C14.9142 18.25 15.25 18.5858 15.25 19C15.25 19.4142 14.9142 19.75 14.5 19.75H9.50001C9.0858 19.75 8.75001 19.4142 8.75001 19Z" fill="#1C274C"/>
</svg>
