<svg width="24" height="24" viewBox="0 0 24 24" fill="none" xmlns="http://www.w3.org/2000/svg">
<path opacity="0.5" d="M3.04517 11.75C3.17099 12.4643 3.34817 13.2912 3.55517 14.2572L3.98374 16.2572C4.47072 18.5297 4.7142 19.666 5.53928 20.333C6.36435 21 7.52642 21 9.85056 21H14.1496C16.4737 21 17.6358 21 18.4608 20.333C19.2859 19.666 19.5294 18.5297 20.0164 16.2572L20.445 14.2572C20.652 13.2912 20.8291 12.4643 20.955 11.75H3.04517Z" fill="#1C274C"/>
<path fill-rule="evenodd" clip-rule="evenodd" d="M9.25 14C9.25 13.5858 9.58579 13.25 10 13.25H14C14.4142 13.25 14.75 13.5858 14.75 14C14.75 14.4142 14.4142 14.75 14 14.75H10C9.58579 14.75 9.25 14.4142 9.25 14Z" fill="#1C274C"/>
<path d="M8.32934 2.66463C8.51459 2.29415 8.96509 2.14398 9.33557 2.32922C9.70606 2.51446 9.85623 2.96497 9.67098 3.33545L7.83606 7.0053C8.31924 7.00003 8.84645 7.00003 9.42196 7.00003H14.5781C15.1537 7.00003 15.681 7.00003 16.1643 7.0053L14.3293 3.33545C14.1441 2.96497 14.2943 2.51446 14.6648 2.32922C15.0352 2.14398 15.4857 2.29415 15.671 2.66463L17.8721 7.06696C19.2252 7.17091 20.0742 7.43632 20.6221 8.114C21.0575 8.65257 21.1984 9.32262 21.1466 10.25H21.0002C21.0501 10.25 21.0989 10.2549 21.146 10.2642C21.1209 10.6988 21.0538 11.1898 20.9552 11.75H3.04537C2.94669 11.1898 2.8796 10.6988 2.85449 10.2642C2.90163 10.2549 2.95036 10.25 3.00023 10.25H2.85346C2.80168 9.32262 2.94261 8.65257 3.378 8.114C3.92588 7.43628 4.77501 7.17087 6.12819 7.06694L8.32934 2.66463Z" fill="#1C274C"/>
</svg>
