<svg xmlns="http://www.w3.org/2000/svg" fill="none" viewBox="0 0 24 24" width="1em" height="1em"><path fill="currentColor" fill-rule="evenodd" d="M4.718 3.092c1.226-1.29 3.254-1.049 4.268.385l1.26 1.783c.811 1.147.743 2.741-.225 3.76l-.245.257-.002.006c-.013.037-.045.152-.013.372.067.456.418 1.381 1.846 2.884 1.432 1.508 2.3 1.864 2.703 1.929a.6.6 0 0 0 .294-.007l.408-.43c.874-.92 2.236-1.1 3.335-.469l1.91 1.1c1.633.94 2.013 3.24.708 4.613l-1.42 1.495c-.443.467-1.048.866-1.795.94-1.824.18-6.049-.055-10.478-4.718-4.134-4.352-4.919-8.137-5.018-9.986l.666-.036-.666.036c-.049-.914.358-1.697.894-2.261zm3.043 1.25c-.512-.724-1.433-.767-1.956-.217l-1.57 1.653c-.33.349-.505.748-.483 1.148.08 1.51.731 4.952 4.607 9.033 4.064 4.279 7.809 4.4 9.244 4.258.283-.028.575-.186.854-.48l1.42-1.495c.614-.645.453-1.808-.368-2.28l-1.91-1.1c-.513-.295-1.114-.204-1.499.202l-.456.48-.527-.501c.527.5.527.502.526.502l-.001.002-.003.003-.007.006-.014.014a1 1 0 0 1-.136.112c-.08.057-.186.12-.321.172-.276.11-.64.168-1.091.095-.878-.143-2.028-.773-3.55-2.377-1.528-1.608-2.113-2.807-2.243-3.7a2.25 2.25 0 0 1 .084-1.092 1.6 1.6 0 0 1 .23-.427l.03-.037.014-.015.006-.006.003-.003.002-.002.533.504-.532-.505.287-.302c.445-.47.51-1.264.088-1.86z" clip-rule="evenodd"/><path fill="currentColor" d="M13.26 1.88a.75.75 0 0 1 .861-.62c.025.005.107.02.15.03q.129.027.352.091c.297.087.712.229 1.21.457.996.457 2.321 1.256 3.697 2.632 1.376 1.375 2.175 2.701 2.632 3.698.228.497.37.912.457 1.209a6 6 0 0 1 .113.454l.005.032a.765.765 0 0 1-.617.877.75.75 0 0 1-.86-.617 3 3 0 0 0-.081-.327 7.4 7.4 0 0 0-.38-1.003c-.39-.85-1.092-2.025-2.33-3.263s-2.411-1.939-3.262-2.328a7.4 7.4 0 0 0-1.003-.38 6 6 0 0 0-.318-.08.76.76 0 0 1-.626-.862"/><path fill="currentColor" fill-rule="evenodd" d="M13.486 5.33a.75.75 0 0 1 .927-.516l-.206.722c.206-.722.207-.721.207-.721h.002l.004.001.007.003.02.006q.023.006.057.019.067.023.177.07c.145.062.344.158.589.303.49.29 1.157.771 1.942 1.556s1.267 1.453 1.556 1.943c.145.244.241.443.304.589a3 3 0 0 1 .089.233l.006.02.002.008.001.003v.002s.001.001-.72.207l.721-.206a.75.75 0 0 1-1.44.422l-.003-.01-.035-.088a4 4 0 0 0-.216-.416c-.223-.377-.625-.946-1.325-1.646s-1.27-1.103-1.646-1.326a4 4 0 0 0-.504-.25l-.01-.004a.75.75 0 0 1-.506-.924" clip-rule="evenodd"/></svg>