<svg width="24" height="24" viewBox="0 0 24 24" fill="none" xmlns="http://www.w3.org/2000/svg">
<path opacity="0.5" d="M3.55514 14.2572C2.83668 10.9043 2.47745 9.22793 3.378 8.11397C4.27855 7 5.99302 7 9.42196 7H14.5781C18.0071 7 19.7215 7 20.6221 8.11397C21.5226 9.22793 21.1634 10.9043 20.4449 14.2572L20.0164 16.2572C19.5294 18.5297 19.2859 19.666 18.4608 20.333C17.6357 21 16.4737 21 14.1495 21H9.85053C7.52639 21 6.36432 21 5.53925 20.333C4.71418 19.666 4.47069 18.5297 3.98372 16.2572L3.55514 14.2572Z" fill="#1C274C"/>
<path d="M8 11.25C7.58579 11.25 7.25 11.5858 7.25 12C7.25 12.4142 7.58579 12.75 8 12.75H16C16.4142 12.75 16.75 12.4142 16.75 12C16.75 11.5858 16.4142 11.25 16 11.25H8Z" fill="#1C274C"/>
<path d="M9.25 15C9.25 14.5858 9.58579 14.25 10 14.25H14C14.4142 14.25 14.75 14.5858 14.75 15C14.75 15.4142 14.4142 15.75 14 15.75H10C9.58579 15.75 9.25 15.4142 9.25 15Z" fill="#1C274C"/>
<path fill-rule="evenodd" clip-rule="evenodd" d="M14.6645 2.32922C15.035 2.14398 15.4855 2.29415 15.6707 2.66463L18.6707 8.66463C18.856 9.03512 18.7058 9.48562 18.3353 9.67086C17.9648 9.8561 17.5143 9.70594 17.3291 9.33545L14.3291 3.33545C14.1439 2.96497 14.294 2.51446 14.6645 2.32922Z" fill="#1C274C"/>
<path fill-rule="evenodd" clip-rule="evenodd" d="M9.33549 2.32922C8.96501 2.14398 8.5145 2.29415 8.32926 2.66463L5.32926 8.66463C5.14402 9.03512 5.29419 9.48562 5.66467 9.67086C6.03515 9.8561 6.48566 9.70594 6.6709 9.33545L9.6709 3.33545C9.85614 2.96497 9.70597 2.51446 9.33549 2.32922Z" fill="#1C274C"/>
</svg>
