<svg xmlns="http://www.w3.org/2000/svg" fill="none" viewBox="0 0 24 24" width="1em" height="1em"><path fill="currentColor" fill-rule="evenodd" d="M6.25 6a4.75 4.75 0 1 1 9.5 0 4.75 4.75 0 0 1-9.5 0M11 2.75a3.25 3.25 0 1 0 0 6.5 3.25 3.25 0 0 0 0-6.5M4.975 13.664c1.58-.888 3.711-1.414 6.025-1.414 2.313 0 4.445.526 6.024 1.414 1.556.876 2.726 2.202 2.726 3.836v.102c.001 1.162.003 2.62-1.276 3.662-.63.512-1.51.877-2.7 1.117-1.193.242-2.748.369-4.774.369s-3.58-.127-4.774-.369c-1.19-.24-2.07-.605-2.7-1.117-1.279-1.042-1.277-2.5-1.276-3.662V17.5c0-1.634 1.17-2.96 2.725-3.836m.736 1.308c-1.34.753-1.961 1.677-1.961 2.528 0 1.308.04 2.044.723 2.6.371.302.99.597 2.05.811 1.058.214 2.503.339 4.477.339s3.42-.125 4.476-.339c1.06-.214 1.68-.509 2.05-.81.684-.557.724-1.293.724-2.601 0-.851-.622-1.775-1.961-2.528-1.316-.74-3.184-1.222-5.29-1.222-2.104 0-3.972.482-5.288 1.222" clip-rule="evenodd"/><path fill="currentColor" d="M21.56 8.998a.75.75 0 1 0-1.12-.996l-2.166 2.436-.772-.695a.75.75 0 1 0-1.004 1.114l1.333 1.2a.75.75 0 0 0 1.063-.059z"/></svg>