<svg xmlns="http://www.w3.org/2000/svg" fill="none" viewBox="0 0 24 24" width="1em" height="1em"><path stroke="currentColor" stroke-width="1.5" d="M19.562 7a2.132 2.132 0 0 0-2.1-2.5H6.538a2.132 2.132 0 0 0-2.1 2.5M17.5 4.5c.028-.26.043-.389.043-.496a2 2 0 0 0-1.787-1.993C15.65 2 15.52 2 15.26 2H8.74c-.26 0-.39 0-.497.011a2 2 0 0 0-1.787 1.993c0 .107.015.237.043.496m7.389 8.193c1.075.767 1.612 1.15 1.612 1.807 0 .656-.537 1.04-1.612 1.807a15 15 0 0 1-.862.577c-.237.146-.506.297-.784.445-1.073.57-1.609.856-2.09.54s-.524-.977-.612-2.3A17 17 0 0 1 9.5 14.5c0-.329.016-.695.04-1.07.088-1.322.132-1.983.612-2.3.481-.315 1.018-.03 2.09.54.278.149.547.3.784.446.27.166.565.365.862.577Z"/><path stroke="currentColor" stroke-linecap="round" stroke-width="1.5" d="m21.094 13.793-.027.207-.373 2.793c-.33 2.48-.496 3.721-1.344 4.464s-2.1.743-4.603.743H9.253C6.75 22 5.5 22 4.65 21.257s-1.013-1.983-1.344-4.464l-.4-3c-.422-3.164-.633-4.745.263-5.77C4.066 7 5.662 7 8.853 7h6.294c3.191 0 4.787 0 5.684 1.024.43.492.605 1.113.624 1.976"/></svg>