<svg xmlns="http://www.w3.org/2000/svg" fill="none" viewBox="0 0 24 24" width="1em" height="1em"><path fill="currentColor" fill-rule="evenodd" d="m15.014 3.185.278.351c.14.177.219.276.283.346l.06.057.072.015c.089.013.21.02.43.034l.438.028c.682.042 1.28.08 1.735.179.482.105 1.006.32 1.284.88.275.553.141 1.102-.054 1.556-.186.434-.505.952-.872 1.549l-.03.048-.204.33a6 6 0 0 0-.225.383 1 1 0 0 0-.036.084v.015c0 .014.003.038.01.081.018.096.05.22.107.44l.1.382.014.055c.18.69.337 1.285.39 1.757.056.487.032 1.062-.399 1.51-.44.459-1.017.488-1.502.43-.461-.054-1.04-.215-1.703-.399l-.425-.117a6 6 0 0 0-.42-.108l-.066-.01-.061.03c-.08.044-.18.11-.365.234l-.367.245c-.572.381-1.072.715-1.493.911-.442.206-1 .359-1.562.06-.358-.19-.568-.485-.699-.8-2.273.96-4.13 2.607-4.773 4.5a.75.75 0 0 1-1.451-.123c-.94-5.883.816-9.432 3.34-11.366.175-.396.507-.66.836-.854.401-.236.957-.459 1.593-.713l.054-.021.353-.141c.205-.082.317-.128.398-.168l.064-.036.039-.074c.04-.086.083-.205.162-.417l.134-.366.02-.054c.244-.662.455-1.236.68-1.65.231-.426.586-.89 1.212-.99s1.108.23 1.46.562c.343.323.723.802 1.16 1.355M7.16 8.459c-1.423 1.37-2.52 3.59-2.402 7.107 1.168-1.467 2.874-2.615 4.699-3.332q-.029-.372-.053-.794l-.028-.45a7 7 0 0 0-.036-.452l-.015-.08-.005-.015-.007-.011-.053-.058a6 6 0 0 0-.333-.292l-.34-.287c-.535-.452-.999-.844-1.312-1.198a3 3 0 0 1-.115-.138m3.873 4.379a.75.75 0 0 0-.053-.407c-.03-.296-.054-.668-.083-1.14l-.024-.393-.005-.084c-.02-.345-.041-.71-.205-1.04-.165-.33-.444-.565-.705-.784l-.063-.054-.296-.25c-.591-.5-.968-.82-1.199-1.082a1 1 0 0 1-.175-.25l.002-.002a.9.9 0 0 1 .218-.162c.29-.17.737-.351 1.443-.633l.353-.142.077-.03c.308-.122.65-.258.91-.526.254-.266.38-.614.497-.933l.03-.08.134-.366c.27-.732.444-1.2.61-1.506.06-.113.106-.175.134-.207.037.022.1.067.192.154.253.239.565.629 1.048 1.24l.243.306.052.067c.21.267.44.558.765.73.329.175.697.197 1.028.217l.082.005.38.023c.759.048 1.24.08 1.568.151a.9.9 0 0 1 .259.087v.012a1 1 0 0 1-.088.28c-.138.32-.396.744-.802 1.403l-.203.33-.043.07c-.18.29-.372.6-.425.966-.053.364.04.718.129 1.052l.021.081.1.381c.198.76.325 1.25.365 1.604.019.16.013.247.006.288a1 1 0 0 1-.24-.008c-.333-.04-.8-.167-1.536-.37l-.368-.103-.08-.023c-.32-.089-.677-.19-1.045-.13-.367.058-.676.266-.95.45l-.07.047-.318.212c-.636.424-1.04.69-1.344.833a1 1 0 0 1-.224.082 1 1 0 0 1-.085-.275zm.064.369h.013zm.05.018q.008.006.008.008zm6.153-.977.004-.01zm.033-.038.013-.005q.001.001-.013.005M12.67 2.734l-.01.006zm-.069.016-.011-.003z" clip-rule="evenodd"/><path stroke="currentColor" stroke-linejoin="round" d="M10.28 16s.634 1.39 1.414 1.87c.78.477 2.306.41 2.306.41s-1.39.633-1.87 1.413c-.478.78-.41 2.307-.41 2.307s-.634-1.39-1.414-1.87C9.527 19.654 8 19.72 8 19.72s1.39-.633 1.87-1.413c.478-.78.41-2.307.41-2.307Zm8.2-1s-.422.927-.942 1.246S16 16.52 16 16.52s.927.422 1.246.942S17.52 19 17.52 19s.422-.927.942-1.246S20 17.48 20 17.48s-.927-.422-1.246-.942S18.48 15 18.48 15Z"/></svg>