<svg xmlns="http://www.w3.org/2000/svg" fill="none" viewBox="0 0 24 24" width="1em" height="1em"><path stroke="currentColor" stroke-width="1.5" d="M2 13.437C2 9.666 2 7.78 3.172 6.61S6.229 5.437 10 5.437h4c3.771 0 5.657 0 6.828 1.172S22 9.666 22 13.437s0 5.657-1.172 6.829-3.057 1.171-6.828 1.171h-4c-3.771 0-5.657 0-6.828-1.171S2 17.209 2 13.437Z"/><path stroke="currentColor" stroke-width="1.5" d="M3.988 6c.112-.931.347-1.574.837-2.063C5.765 3 7.279 3 10.307 3h3.211c3.028 0 4.541 0 5.482.937.49.489.725 1.132.837 2.063" opacity=".5"/><circle cx="17.5" cy="9.937" r="1.5" stroke="currentColor" stroke-width="1.5" opacity=".5"/><path stroke="currentColor" stroke-linecap="round" stroke-width="1.5" d="m2 13.937 1.752-1.532a2.3 2.3 0 0 1 3.14.104l4.29 4.29a2 2 0 0 0 2.564.222l.299-.21a3 3 0 0 1 3.731.225L21 19.937" opacity=".5"/></svg>