<svg width="24" height="24" viewBox="0 0 24 24" fill="none" xmlns="http://www.w3.org/2000/svg">
<path d="M13.2596 1.8802C13.3258 1.47131 13.7124 1.19393 14.1212 1.26013C14.1466 1.26498 14.228 1.2802 14.2707 1.2897C14.356 1.3087 14.475 1.33796 14.6234 1.38119C14.9202 1.46763 15.3348 1.61003 15.8324 1.83817C16.8287 2.29492 18.1545 3.09393 19.5303 4.46973C20.9061 5.84553 21.7051 7.17134 22.1619 8.16762C22.39 8.66524 22.5324 9.07984 22.6188 9.37662C22.6621 9.52502 22.6913 9.64405 22.7103 9.72938C22.7198 9.77205 22.7268 9.80631 22.7316 9.83162L22.7374 9.86281C22.8036 10.2717 22.5287 10.6742 22.1198 10.7404C21.7121 10.8064 21.328 10.5304 21.2602 10.1234C21.2581 10.1125 21.2524 10.0831 21.2462 10.0555C21.2339 10.0001 21.2125 9.91224 21.1787 9.79609C21.111 9.56376 20.9935 9.21842 20.7983 8.79274C20.4085 7.94244 19.7075 6.76825 18.4696 5.53039C17.2318 4.29253 16.0576 3.59153 15.2073 3.2017C14.7816 3.00655 14.4363 2.88901 14.2039 2.82134C14.0878 2.78751 13.9418 2.754 13.8864 2.74166C13.4794 2.67384 13.1936 2.28792 13.2596 1.8802Z" fill="#1C274C"/>
<path fill-rule="evenodd" clip-rule="evenodd" d="M13.4859 5.32966C13.5997 4.93139 14.0148 4.70077 14.413 4.81456L14.207 5.5357C14.413 4.81456 14.413 4.81456 14.413 4.81456L14.4145 4.81497L14.416 4.81542L14.4194 4.81639L14.4271 4.8187L14.4469 4.82487C14.462 4.82969 14.4808 4.83597 14.5033 4.84394C14.5482 4.85987 14.6075 4.88254 14.6803 4.91374C14.826 4.97618 15.0251 5.0726 15.2696 5.21731C15.7591 5.50699 16.4272 5.98817 17.2122 6.77314C17.9972 7.55811 18.4784 8.2263 18.768 8.71576C18.9128 8.96027 19.0092 9.15934 19.0716 9.30502C19.1028 9.37783 19.1255 9.43719 19.1414 9.4821C19.1494 9.50455 19.1557 9.52338 19.1605 9.53846L19.1666 9.55824L19.169 9.566L19.1699 9.56933L19.1704 9.57086C19.1704 9.57086 19.1708 9.5723 18.4496 9.77834L19.1708 9.5723C19.2846 9.97058 19.054 10.3857 18.6557 10.4995C18.2608 10.6123 17.8493 10.3866 17.7315 9.99449L17.7278 9.98371C17.7224 9.96869 17.7114 9.9391 17.6929 9.8959C17.6559 9.80957 17.5888 9.66834 17.4772 9.47974C17.2542 9.103 16.8515 8.53375 16.1516 7.8338C15.4516 7.13385 14.8823 6.73114 14.5056 6.50817C14.317 6.39656 14.1758 6.32946 14.0894 6.29246C14.0462 6.27394 14.0167 6.26291 14.0016 6.25758L13.9909 6.25388C13.5988 6.136 13.373 5.72456 13.4859 5.32966Z" fill="#1C274C"/>
<path fill-rule="evenodd" clip-rule="evenodd" d="M5.00745 4.40696C6.68752 2.72689 9.52266 2.85461 10.6925 4.95073L11.3415 6.11366C12.1054 7.48248 11.7799 9.20956 10.6616 10.3415C10.6467 10.3619 10.5677 10.4769 10.5579 10.6777C10.5454 10.934 10.6364 11.5268 11.5548 12.4452C12.4729 13.3633 13.0656 13.4546 13.3221 13.4421C13.5231 13.4324 13.6381 13.3534 13.6585 13.3385C14.7905 12.2202 16.5176 11.8946 17.8864 12.6585L19.0493 13.3076C21.1454 14.4774 21.2731 17.3125 19.5931 18.9926C18.6944 19.8912 17.4995 20.6897 16.0953 20.743C14.0144 20.8219 10.5591 20.2845 7.13735 16.8627C3.71556 13.4409 3.17818 9.98567 3.25706 7.90473C3.3103 6.50054 4.10879 5.30562 5.00745 4.40696ZM9.38265 5.68173C8.78363 4.60838 7.17394 4.36179 6.06811 5.46762C5.29276 6.24297 4.7887 7.09878 4.75599 7.96156C4.6902 9.6969 5.11864 12.7227 8.19801 15.802C11.2774 18.8814 14.3031 19.3098 16.0385 19.244C16.9013 19.2113 17.7571 18.7073 18.5324 17.9319C19.6382 16.8261 19.3916 15.2164 18.3183 14.6174L17.1554 13.9684C16.432 13.5646 15.4158 13.7024 14.7025 14.4157C14.6325 14.4857 14.1864 14.9019 13.395 14.9404C12.5847 14.9798 11.604 14.6157 10.4942 13.5059C9.38395 12.3957 9.02003 11.4147 9.0597 10.6043C9.09846 9.81281 9.51468 9.36721 9.58432 9.29756C10.2976 8.58424 10.4354 7.56807 10.0317 6.84466L9.38265 5.68173Z" fill="#1C274C"/>
</svg>
