<svg xmlns="http://www.w3.org/2000/svg" fill="none" viewBox="0 0 24 24" width="1em" height="1em"><path stroke="currentColor" stroke-width="1.5" d="M19.562 7a2.132 2.132 0 0 0-2.1-2.5H6.538a2.132 2.132 0 0 0-2.1 2.5M17.5 4.5c.028-.26.043-.389.043-.496a2 2 0 0 0-1.787-1.993C15.65 2 15.52 2 15.26 2H8.74c-.26 0-.391 0-.497.011a2 2 0 0 0-1.787 1.993c0 .107.014.237.043.496"/><path fill="currentColor" d="m12.56 12.699-.352.662zm.883.47.353-.661zm.996-1.868.353-.662zm-.882-.47.353-.662zm-1.555.775.749.046zm1.414-.849-.312.682zM15 12.168l.75-.024zm-.5-.835.373-.65zm-.915 1.91.312-.682zm1.414-.85-.748-.045zm-2.496.274-.374.65zM12 11.832l-.75.024zm-.75 4.668a.75.75 0 0 1-.75.75v1.5a2.25 2.25 0 0 0 2.25-2.25zm-.75.75a.75.75 0 0 1-.75-.75h-1.5a2.25 2.25 0 0 0 2.25 2.25zm-.75-.75a.75.75 0 0 1 .75-.75v-1.5a2.25 2.25 0 0 0-2.25 2.25zm.75-.75a.75.75 0 0 1 .75.75h1.5a2.25 2.25 0 0 0-2.25-2.25zm2.25.75V12h-1.5v4.5zm-.542-3.14.882.471.706-1.323-.882-.47zm2.584-2.72-.882-.471-.706 1.323.882.47zm-2.042 1.125v-.114l-1.497-.09c-.003.059-.003.132-.003.204zm1.16-1.596c-.064-.034-.128-.069-.181-.094l-.625 1.364.018.01.082.043zm-1.16 1.483a.25.25 0 0 1 .354-.213l.625-1.364a1.75 1.75 0 0 0-2.476 1.486zm3 .583v-.09l-1.5.047v.043zm-1.664-.272.032.017.007.003.747-1.3-.08-.044zm1.663.181a1.75 1.75 0 0 0-.877-1.461l-.747 1.3a.25.25 0 0 1 .125.21zm-2.659 1.687c.064.034.128.069.181.094l.625-1.364-.018-.01-.082-.043zm1.16-1.596v.114l1.497.09c.003-.059.003-.132.003-.204zm-.979 1.69a1.75 1.75 0 0 0 2.476-1.486l-1.498-.09a.25.25 0 0 1-.353.212zm-.357-1.888-.039-.02-.747 1.3.08.044zm-1.664-.272v.09l1.5-.047v-.043zm1.625.252a.25.25 0 0 1-.125-.21l-1.5.049c.02.606.352 1.159.878 1.461z"/><path stroke="currentColor" stroke-linecap="round" stroke-width="1.5" d="m21.094 13.793-.027.207-.373 2.793c-.33 2.48-.496 3.721-1.344 4.464s-2.1.743-4.603.743H9.253c-2.503 0-3.754 0-4.603-.743s-1.014-1.983-1.344-4.464l-.4-3c-.422-3.164-.633-4.745.263-5.77C4.066 7 5.661 7 8.853 7h6.294c3.191 0 4.787 0 5.684 1.024.43.492.605 1.113.624 1.976"/></svg>