<svg xmlns="http://www.w3.org/2000/svg" fill="none" viewBox="0 0 24 24" width="1em" height="1em"><path fill="currentColor" fill-rule="evenodd" d="M8.7 1.25h6.6c.22 0 .389 0 .536.016A2.75 2.75 0 0 1 18.29 3.87a2.886 2.886 0 0 1 2.052 2.887c.398.18.751.428 1.053.773.616.704.804 1.565.812 2.57.007.972-.157 2.202-.362 3.734l-.414 3.108c-.16 1.198-.289 2.168-.49 2.927-.21.79-.518 1.445-1.097 1.953-.58.507-1.27.726-2.081.83-.78.098-1.757.098-2.966.098H9.202c-1.208 0-2.186 0-2.965-.099-.811-.103-1.501-.322-2.08-.83-.58-.507-.889-1.162-1.098-1.952-.201-.76-.33-1.729-.49-2.927l-.415-3.108c-.204-1.532-.368-2.762-.36-3.733.006-1.006.195-1.867.811-2.571a3 3 0 0 1 1.053-.773A2.886 2.886 0 0 1 5.71 3.87a2.75 2.75 0 0 1 2.454-2.604c.147-.016.316-.016.535-.016m-1.468 2.5h9.536a1.25 1.25 0 0 0-1.092-.993 5 5 0 0 0-.417-.007H8.74c-.28 0-.361.001-.417.007a1.25 1.25 0 0 0-1.092.993m-2.05 2.617c.942-.117 2.139-.117 3.613-.117h6.412c1.474 0 2.67 0 3.613.117a1.38 1.38 0 0 0-1.357-1.117H6.538c-.683 0-1.235.49-1.357 1.117m.074 1.504c-.824.116-1.241.327-1.521.647s-.435.76-.44 1.593c-.007.854.141 1.979.355 3.583l.4 3c.168 1.26.286 2.134.46 2.79.168.637.366.973.635 1.209.27.235.63.387 1.282.47.673.086 1.556.087 2.827.087h5.494c1.27 0 2.154-.001 2.827-.087.653-.083 1.012-.235 1.281-.47.27-.236.468-.572.636-1.208.174-.657.292-1.531.46-2.791l.4-3c.214-1.604.362-2.729.356-3.583-.006-.832-.16-1.273-.44-1.593s-.698-.531-1.522-.647c-.846-.12-1.98-.121-3.598-.121H8.853c-1.618 0-2.753.002-3.598.12" clip-rule="evenodd"/><path fill="currentColor" fill-rule="evenodd" d="m12.756 11.759-.001.016a8 8 0 0 0-.004.537h.002c.027.015.064.034.137.07l.988.492c.17.084.271.134.347.167l.02.008v-.016a8 8 0 0 0 .004-.536l-.002-.001-.137-.07-.988-.491a9 9 0 0 0-.347-.168zm-.006 2.229.475.236c.15.075.287.143.403.193.118.052.272.11.449.131a1.5 1.5 0 0 0 1.583-.975c.06-.167.077-.332.083-.46.007-.127.007-.28.007-.446v-.049c0-.118 0-.265-.027-.408a1.5 1.5 0 0 0-.563-.907 2 2 0 0 0-.353-.206l-.03-.014-1.002-.499c-.15-.074-.287-.143-.403-.193a1.6 1.6 0 0 0-.449-.13 1.5 1.5 0 0 0-1.583.975c-.06.167-.077.332-.083.46a7 7 0 0 0-.007.335v2.362a2.254 2.254 0 0 0-3 2.115 2.246 2.246 0 0 0 2.25 2.242c1.239 0 2.25-1 2.25-2.242zm-1.5 2.52a.746.746 0 0 0-.75-.742.746.746 0 0 0-.75.742c0 .406.332.742.75.742s.75-.336.75-.742" clip-rule="evenodd"/></svg>