<svg width="24" height="24" viewBox="0 0 24 24" fill="none" xmlns="http://www.w3.org/2000/svg">
<path fill-rule="evenodd" clip-rule="evenodd" d="M19.1753 4.81025C18.9778 4.265 18.4312 3.9272 17.8552 3.99439C17.7921 4.00175 17.6774 4.03069 17.4371 4.1354C17.1988 4.23931 16.8938 4.39154 16.4521 4.61236L13.8187 5.92908C13.4266 6.1251 13.3215 6.18127 13.2408 6.24296C12.9968 6.4295 12.83 6.69933 12.7723 7.00097C12.7532 7.10073 12.75 7.21994 12.75 7.65826C12.75 8.15203 12.7502 8.49292 12.7639 8.75259C12.7777 9.01429 12.8031 9.12981 12.8247 9.18955C13.0222 9.7348 13.5688 10.0726 14.1448 10.0054C14.2079 9.99805 14.3226 9.96911 14.5629 9.8644C14.8012 9.76049 15.1062 9.60826 15.5479 9.38744L18.1813 8.07072C18.5734 7.8747 18.6785 7.81853 18.7592 7.75684C19.0032 7.5703 19.17 7.30047 19.2277 6.99883C19.2468 6.89907 19.25 6.77986 19.25 6.34154C19.25 5.84777 19.2498 5.50688 19.2361 5.24721C19.2223 4.98551 19.1969 4.86999 19.1753 4.81025ZM17.6814 2.50449C18.9486 2.35667 20.1511 3.09984 20.5856 4.2994C20.6835 4.56974 20.7179 4.86203 20.734 5.16839C20.75 5.47224 20.75 5.85281 20.75 6.32047V6.34154C20.75 6.36237 20.75 6.38293 20.75 6.40323C20.7502 6.751 20.7503 7.02302 20.701 7.28083C20.5739 7.94443 20.2071 8.53805 19.6703 8.94844C19.4618 9.10787 19.2184 9.22941 18.9073 9.38479C18.8892 9.39386 18.8708 9.40304 18.8521 9.41236L16.1999 10.7385C15.7816 10.9476 15.4412 11.1178 15.1622 11.2394C14.881 11.362 14.6042 11.462 14.3186 11.4953C13.7636 11.5601 13.2211 11.4539 12.75 11.2134V17.9999C12.75 20.6233 10.6234 22.7499 8 22.7499C5.37665 22.7499 3.25 20.6233 3.25 17.9999C3.25 15.3765 5.37665 13.2499 8 13.2499C9.25721 13.2499 10.4003 13.7383 11.25 14.5358V7.9999C11.2498 7.89793 11.25 7.79112 11.25 7.67933V7.65826C11.25 7.63743 11.25 7.61687 11.25 7.59657C11.2498 7.2488 11.2497 6.97678 11.299 6.71897C11.4261 6.05537 11.7929 5.46174 12.3297 5.05136C12.5382 4.89193 12.7816 4.77039 13.0927 4.61502C13.1108 4.60595 13.1292 4.59676 13.1479 4.58744L15.8001 3.26131C16.2184 3.05216 16.5588 2.88195 16.8378 2.76037C17.119 2.63777 17.3958 2.5378 17.6814 2.50449ZM11.25 17.9999C11.25 16.205 9.79493 14.7499 8 14.7499C6.20507 14.7499 4.75 16.205 4.75 17.9999C4.75 19.7948 6.20507 21.2499 8 21.2499C9.79493 21.2499 11.25 19.7948 11.25 17.9999Z" fill="#1C274C"/>
</svg>
