<svg width="24" height="24" viewBox="0 0 24 24" fill="none" xmlns="http://www.w3.org/2000/svg">
<path d="M13.7523 14.4995C13.7523 12.8427 15.0955 11.4995 16.7523 11.4995C18.4092 11.4995 19.7523 12.8427 19.7523 14.4995C19.7523 16.1564 18.4092 17.4995 16.7523 17.4995C15.0955 17.4995 13.7523 16.1564 13.7523 14.4995Z" fill="#1C274C"/>
<path d="M3.75232 9.49951C3.75232 11.1564 5.09546 12.4995 6.75232 12.4995C8.40917 12.4995 9.75232 11.1564 9.75232 9.49951C9.75232 7.84266 8.40917 6.49951 6.75232 6.49951C5.09547 6.49951 3.75232 7.84266 3.75232 9.49951Z" fill="#1C274C"/>
<g opacity="0.5">
<path d="M7.46179 6.58367C7.23462 6.52866 6.99735 6.49951 6.75327 6.49951C6.47931 6.49951 6.21394 6.53623 5.96179 6.60502L5.96179 1.99951C5.96179 1.5853 6.29758 1.24951 6.71179 1.24951C7.12601 1.24951 7.46179 1.5853 7.46179 1.99951L7.46179 6.58367Z" fill="#1C274C"/>
<path d="M5.96179 12.394C6.21394 12.4628 6.47931 12.4995 6.75327 12.4995C6.99735 12.4995 7.23462 12.4704 7.46179 12.4154L7.46179 21.9995C7.46179 22.4137 7.12601 22.7495 6.71179 22.7495C6.29758 22.7495 5.96179 22.4137 5.96179 21.9995L5.96179 12.394Z" fill="#1C274C"/>
<path d="M15.9618 17.394V21.9995C15.9618 22.4137 16.2976 22.7495 16.7118 22.7495C17.126 22.7495 17.4618 22.4137 17.4618 21.9995V17.4154C17.2346 17.4704 16.9973 17.4995 16.7533 17.4995C16.4793 17.4995 16.2139 17.4628 15.9618 17.394Z" fill="#1C274C"/>
<path d="M17.4618 11.5837V1.99951C17.4618 1.5853 17.126 1.24951 16.7118 1.24951C16.2976 1.24951 15.9618 1.5853 15.9618 1.99951V11.605C16.2139 11.5362 16.4793 11.4995 16.7533 11.4995C16.9973 11.4995 17.2346 11.5287 17.4618 11.5837Z" fill="#1C274C"/>
</g>
</svg>
