<svg xmlns="http://www.w3.org/2000/svg" fill="none" viewBox="0 0 24 24" width="1em" height="1em"><path stroke="currentColor" stroke-linecap="round" stroke-width="1.5" d="M22 12.204v1.521c0 3.901 0 5.852-1.172 7.063C19.657 22 17.771 22 14 22m7.48-14.177c-.518-.949-1.467-1.537-3.364-2.715l-2-1.24C14.111 2.621 13.108 1.999 12 1.999s-2.11.622-4.116 1.867l-2 1.241C3.987 6.286 3.038 6.874 2.519 7.823c-.317.58-.44 1.234-.489 2.177M11 22a9 9 0 0 0-9-9"/><path stroke="currentColor" stroke-linecap="round" stroke-width="1.5" d="M8 22a6 6 0 0 0-6-6m3 6a3 3 0 0 0-3-3"/></svg>