<svg width="24" height="24" viewBox="0 0 24 24" fill="none" xmlns="http://www.w3.org/2000/svg">
<path fill-rule="evenodd" clip-rule="evenodd" d="M15.6844 2.81449C14.5862 2.66199 13.0963 2.77335 11.4917 3.21963C9.88766 3.66578 8.54137 4.34311 7.66005 5.04812C7.21833 5.40147 6.92187 5.73905 6.75736 6.02976C6.66335 6.19589 6.62089 6.32997 6.60775 6.43671L6.60385 6.48078C6.60077 6.53915 6.60677 6.58825 6.61731 6.62906C6.64753 6.74615 6.74234 6.90098 7.01353 7.0607C7.28986 7.22344 7.70388 7.36094 8.25441 7.43739C9.35258 7.58989 10.8425 7.47853 12.447 7.03225C14.0511 6.5861 15.3974 5.90877 16.2787 5.20376C16.7204 4.85041 17.0169 4.51283 17.1814 4.22212C17.3443 3.93435 17.3524 3.74276 17.3215 3.62282C17.2912 3.50573 17.1964 3.3509 16.9252 3.19118C16.6489 3.02844 16.2349 2.89094 15.6844 2.81449ZM5.10649 6.38465C5.13042 5.99807 5.26184 5.62687 5.45189 5.29101C5.74016 4.78159 6.18761 4.30511 6.72304 3.87679C7.79601 3.01847 9.33695 2.26201 11.0898 1.77448C12.8422 1.28708 14.5433 1.14164 15.8907 1.32875C16.5629 1.42209 17.1853 1.6035 17.6865 1.89869C18.1928 2.1969 18.6167 2.63904 18.7739 3.2479C18.809 3.38388 18.8285 3.51929 18.8343 3.65332L19.6314 14.398L19.6333 14.4333C19.7092 15.7729 19.7689 16.8266 19.7444 17.6734C19.7194 18.5361 19.6068 19.2579 19.2922 19.9129C18.8609 20.8111 18.1812 21.5615 17.3346 22.066C16.7133 22.4363 16.0144 22.5974 15.1795 22.6745C14.3628 22.75 13.3429 22.75 12.0533 22.75H11.9776C10.6731 22.75 9.64183 22.75 8.81681 22.6734C7.97365 22.5951 7.26835 22.4317 6.64328 22.0557C5.79211 21.5437 5.11155 20.7829 4.68432 19.8739C4.37259 19.2107 4.26694 18.4808 4.25191 17.6093C4.23716 16.7535 4.31042 15.6889 4.40358 14.335L4.40653 14.2922L5.10649 6.38465ZM17.5134 6.12358C17.4178 6.20911 17.3184 6.29298 17.2157 6.37509C16.1428 7.23341 14.6018 7.98987 12.849 8.4774C11.0966 8.9648 9.39542 9.11023 8.04809 8.92313C7.45299 8.8405 6.89698 8.68885 6.4295 8.45034L6.02742 12.9927C6.65722 13.4589 8.27333 14.2502 11.9996 14.2502C15.824 14.2502 17.4257 13.4169 18.0203 12.9559L17.5134 6.12358ZM18.1427 14.6422C17.0183 15.2186 15.1313 15.7502 11.9996 15.7502C8.89458 15.7502 7.01311 15.2278 5.88502 14.6567C5.79825 15.9222 5.73901 16.8482 5.75169 17.5834C5.76506 18.3588 5.85905 18.847 6.04184 19.2358C6.34551 19.8819 6.82549 20.4148 7.41649 20.7704C7.76716 20.9813 8.21806 21.1114 8.95547 21.1798C9.70304 21.2492 10.6647 21.25 12.0156 21.25C13.3513 21.25 14.3019 21.2493 15.0415 21.1809C15.7708 21.1135 16.2178 20.9855 16.5666 20.7775C17.1544 20.4272 17.6336 19.9018 17.9401 19.2635C18.1247 18.8792 18.2228 18.3967 18.245 17.63C18.2666 16.8851 18.2162 15.942 18.1427 14.6422Z" fill="#1C274C"/>
</svg>
