<svg width="24" height="24" viewBox="0 0 24 24" fill="none" xmlns="http://www.w3.org/2000/svg">
<path d="M22 12C22 17.5228 17.5228 22 12 22C6.47715 22 2 17.5228 2 12C2 6.47715 6.47715 2 12 2C17.5228 2 22 6.47715 22 12Z" stroke="#1C274C" stroke-width="1.5"/>
<path d="M19 19L17.5 17.5" stroke="#1C274C" stroke-width="1.5" stroke-linecap="round"/>
<path d="M19 5L17.5 6.5" stroke="#1C274C" stroke-width="1.5" stroke-linecap="round"/>
<path d="M5 19L6.5 17.5" stroke="#1C274C" stroke-width="1.5" stroke-linecap="round"/>
<path d="M5 5L6.5 6.5" stroke="#1C274C" stroke-width="1.5" stroke-linecap="round"/>
<path d="M2 12H4" stroke="#1C274C" stroke-width="1.5" stroke-linecap="round"/>
<path d="M19.9998 12L21.9998 12" stroke="#1C274C" stroke-width="1.5" stroke-linecap="round"/>
<path d="M12 4.00021L12 2.00021" stroke="#1C274C" stroke-width="1.5" stroke-linecap="round"/>
<path d="M13.7782 14.3638C14.9498 13.1922 14.9498 11.2927 13.7782 10.1211C12.6066 8.94954 10.7071 8.94954 9.53557 10.1211C9.08993 10.5668 8.77869 11.4919 8.56409 12.4672C8.24317 13.9257 8.08271 14.655 8.66351 15.2358C9.24431 15.8166 9.97358 15.6562 11.4321 15.3352C12.4074 15.1206 13.3326 14.8094 13.7782 14.3638Z" stroke="#1C274C" stroke-width="1.5"/>
</svg>
