<svg xmlns="http://www.w3.org/2000/svg" fill="none" viewBox="0 0 24 24" width="1em" height="1em"><path stroke="currentColor" stroke-width="1.5" d="M10 17.833C10 20.135 8.21 22 6 22s-4-1.865-4-4.167c0-1.44 1.566-3.361 2.738-4.598a1.724 1.724 0 0 1 2.524 0C8.434 14.472 10 16.394 10 17.833Zm12 0C22 20.135 20.21 22 18 22s-4-1.865-4-4.167c0-1.44 1.566-3.361 2.738-4.598a1.724 1.724 0 0 1 2.524 0C20.434 14.472 22 16.394 22 17.833Z"/><path stroke="currentColor" stroke-width="1.5" d="M16 7.833C16 10.135 14.21 12 12 12s-4-1.865-4-4.167c0-1.44 1.566-3.361 2.738-4.598a1.724 1.724 0 0 1 2.524 0C14.434 4.472 16 6.394 16 7.833Z" opacity=".5"/></svg>