<svg xmlns="http://www.w3.org/2000/svg" fill="none" viewBox="0 0 24 24" width="1em" height="1em"><path fill="currentColor" fill-rule="evenodd" d="M21 12c0-1.875-1.612-2.97-4.837-5.163a46 46 0 0 0-2.585-1.65 45 45 0 0 0-2.352-1.27C8.009 2.287 6.4 1.471 4.957 2.374c-1.442.903-1.574 2.792-1.836 6.57A45 45 0 0 0 3 12z" clip-rule="evenodd"/><path fill="currentColor" d="M13.578 18.813a46 46 0 0 0 2.585-1.65C19.388 14.971 21 13.875 21 12H3c0 .94.047 1.987.121 3.055.262 3.78.393 5.669 1.836 6.571s3.052.087 6.269-1.543c.834-.423 1.64-.854 2.352-1.27" opacity=".5"/></svg>