<svg xmlns="http://www.w3.org/2000/svg" fill="none" viewBox="0 0 24 24" width="1em" height="1em"><path fill="currentColor" fill-rule="evenodd" d="m11.498 3.214.067.034c.843.427 1.663.865 2.392 1.292a47 47 0 0 1 2.627 1.677l.06.04C18.207 7.32 19.46 8.172 20.314 9c.896.87 1.437 1.795 1.437 3.001s-.54 2.13-1.437 3c-.853.829-2.107 1.681-3.668 2.742l-.06.041c-.9.611-1.797 1.191-2.628 1.677-.729.427-1.55.865-2.392 1.292l-.067.034c-1.552.786-2.808 1.423-3.857 1.737-1.11.332-2.115.343-3.082-.261-.953-.596-1.423-1.51-1.693-2.673-.26-1.116-.361-2.582-.488-4.414l-.005-.068A46 46 0 0 1 2.25 12c0-.962.048-2.028.123-3.107l.005-.068c.127-1.832.228-3.298.488-4.414.27-1.162.74-2.076 1.693-2.673.967-.604 1.973-.593 3.082-.26 1.05.313 2.305.95 3.857 1.736m-4.287-.3c-.86-.257-1.38-.202-1.856.096-.49.306-.806.788-1.028 1.74-.23.986-.325 2.331-.458 4.247A44 44 0 0 0 3.75 12c0 .916.046 1.945.12 3.004.132 1.915.228 3.26.457 4.246.222.952.539 1.434 1.028 1.74.477.299.996.353 1.856.096.905-.271 2.041-.843 3.676-1.672a44 44 0 0 0 2.313-1.248 46 46 0 0 0 2.541-1.623c1.636-1.112 2.78-1.893 3.527-2.619.716-.694.982-1.255.982-1.924 0-.668-.266-1.23-.982-1.924-.748-.726-1.891-1.507-3.527-2.619A46 46 0 0 0 13.2 5.835a44 44 0 0 0-2.313-1.249c-1.635-.828-2.771-1.4-3.676-1.672" clip-rule="evenodd"/></svg>