<svg xmlns="http://www.w3.org/2000/svg" fill="none" viewBox="0 0 24 24" width="1em" height="1em"><path fill="currentColor" fill-rule="evenodd" d="M19.152 7.79 16.21 4.848c-2.028-2.027-3.042-3.041-4.149-2.818-1.107.224-1.648 1.552-2.73 4.207l-1.014 2.49c-.299.733-.448 1.1-.705 1.379a2 2 0 0 1-.287.26c-.304.227-.684.339-1.443.562-1.793.528-2.69.791-2.997 1.408-.1.201-.156.42-.164.645-.026.689.635 1.35 1.957 2.672l1.276 1.276 1.117 1.117 1.277 1.276c1.321 1.322 1.982 1.983 2.671 1.957a1.6 1.6 0 0 0 .645-.164c.617-.307.88-1.204 1.408-2.997.223-.76.335-1.138.563-1.442q.116-.156.26-.288c.279-.257.645-.406 1.377-.705l2.49-1.014c2.656-1.082 3.984-1.623 4.208-2.73.223-1.107-.79-2.121-2.818-4.149" clip-rule="evenodd"/><path fill="currentColor" d="m3.348 21.769 3.723-3.723-1.117-1.117-3.723 3.723a.79.79 0 1 0 1.117 1.117" opacity=".5"/></svg>