<svg xmlns="http://www.w3.org/2000/svg" fill="none" viewBox="0 0 24 24" width="1em" height="1em"><path fill="currentColor" d="m16.21 4.848 2.942 2.942c2.027 2.028 3.041 3.042 2.817 4.149s-1.55 1.648-4.206 2.73l-2.49 1.015c-.733.298-1.1.447-1.379.704a2 2 0 0 0-.26.287c-.227.305-.339.684-.562 1.443-.528 1.793-.791 2.69-1.408 2.997-.201.1-.42.156-.645.164-.689.026-1.35-.635-2.672-1.957l-1.276-1.276-3.723 3.723a.79.79 0 0 1-1.117-1.117l3.723-3.723-1.276-1.276C3.356 14.33 2.695 13.67 2.72 12.98c.008-.224.064-.444.164-.645.307-.617 1.204-.88 2.997-1.408.76-.223 1.139-.335 1.443-.562q.155-.117.287-.26c.257-.28.406-.646.704-1.378l1.015-2.49c1.082-2.656 1.623-3.984 2.73-4.208 1.107-.223 2.121.79 4.149 2.818"/></svg>