<svg xmlns="http://www.w3.org/2000/svg" fill="none" viewBox="0 0 24 24" width="1em" height="1em"><path stroke="currentColor" stroke-width="1.5" d="m18.34 8.406-2.746-2.747c-1.893-1.893-2.84-2.84-3.873-2.63-1.034.208-1.539 1.448-2.549 3.927l-.947 2.325c-.279.684-.418 1.026-.658 1.287q-.123.134-.268.242c-.284.213-.638.317-1.346.525-1.675.493-2.512.739-2.799 1.315a1.5 1.5 0 0 0-.153.602c-.024.643.593 1.26 1.827 2.494l3.426 3.426c1.234 1.234 1.851 1.851 2.494 1.827.21-.008.415-.06.602-.153.576-.287.822-1.124 1.315-2.799.208-.708.312-1.062.525-1.346q.108-.145.242-.268c.261-.24.603-.38 1.287-.658l2.325-.947c2.48-1.01 3.719-1.515 3.928-2.549.208-1.034-.738-1.98-2.631-3.873Z"/><path stroke="currentColor" stroke-linecap="round" stroke-width="1.5" d="m3 20.934 3.56-3.562" opacity=".5"/></svg>