<svg xmlns="http://www.w3.org/2000/svg" fill="none" viewBox="0 0 24 24" width="1em" height="1em"><path fill="currentColor" fill-rule="evenodd" d="M10 4h4c3.771 0 5.657 0 6.828 1.172.844.843 1.08 2.057 1.146 4.078H2.026c.066-2.021.302-3.235 1.146-4.078C4.343 4 6.229 4 10 4m4 16h-4c-3.771 0-5.657 0-6.828-1.172S2 15.771 2 12q0-.662.002-1.25h19.996Q22 11.338 22 12c0 3.771 0 5.657-1.172 6.828S17.771 20 14 20m-8.75-4a.75.75 0 0 1 .75-.75h4a.75.75 0 0 1 0 1.5H6a.75.75 0 0 1-.75-.75m6.5 0a.75.75 0 0 1 .75-.75H14a.75.75 0 0 1 0 1.5h-1.5a.75.75 0 0 1-.75-.75" clip-rule="evenodd"/></svg>