<svg width="24" height="24" viewBox="0 0 24 24" fill="none" xmlns="http://www.w3.org/2000/svg">
<path opacity="0.5" fill-rule="evenodd" clip-rule="evenodd" d="M14 22H10C6.22876 22 4.34315 22 3.17157 20.8284C2 19.6569 2 17.7712 2 14V10C2 6.22876 2 4.34315 3.17157 3.17157C4.34315 2 6.23869 2 10.0298 2C10.6358 2 11.1214 2 11.53 2.01666C11.5166 2.09659 11.5095 2.17813 11.5092 2.26057L11.5 5.09497C11.4999 6.19207 11.4998 7.16164 11.6049 7.94316C11.7188 8.79028 11.9803 9.63726 12.6716 10.3285C13.3628 11.0198 14.2098 11.2813 15.0569 11.3952C15.8385 11.5003 16.808 11.5002 17.9051 11.5001L18 11.5001H21.9574C22 12.0344 22 12.6901 22 13.5629V14C22 17.7712 22 19.6569 20.8284 20.8284C19.6569 22 17.7712 22 14 22Z" fill="#1C274C"/>
<path d="M10.5606 15.4983C10.8358 15.1887 10.8079 14.7146 10.4983 14.4395C10.1887 14.1643 9.71464 14.1921 9.43945 14.5017L7.33334 16.8711L6.56056 16.0017C6.28538 15.6921 5.81132 15.6643 5.50174 15.9395C5.19215 16.2146 5.16426 16.6887 5.43945 16.9983L6.77278 18.4983C6.91511 18.6584 7.11911 18.75 7.33334 18.75C7.54757 18.75 7.75157 18.6584 7.8939 18.4983L10.5606 15.4983Z" fill="#1C274C"/>
<path d="M11.5092 2.26022L11.5 5.09462C11.4999 6.19172 11.4998 7.1613 11.6049 7.94281C11.7188 8.78993 11.9803 9.63692 12.6716 10.3282C13.3629 11.0195 14.2098 11.281 15.057 11.3949C15.8385 11.4999 16.808 11.4999 17.9051 11.4998L21.9574 11.4998C21.9698 11.6553 21.9786 11.8212 21.9848 11.9997H22C22 11.7322 22 11.5984 21.9901 11.4409C21.9335 10.5464 21.5617 9.52137 21.0315 8.79865C20.9382 8.67142 20.8743 8.59505 20.7467 8.44231C19.9542 7.49371 18.911 6.31205 18 5.49965C17.1892 4.77657 16.0787 3.98548 15.1101 3.33862C14.2781 2.78287 13.862 2.50499 13.2915 2.29846C13.1403 2.24371 12.9408 2.18323 12.7846 2.14478C12.4006 2.05026 12.0268 2.01738 11.5 2.00598L11.5092 2.26022Z" fill="#1C274C"/>
</svg>
