<svg xmlns="http://www.w3.org/2000/svg" fill="none" viewBox="0 0 24 24" width="1em" height="1em"><path fill="currentColor" fill-rule="evenodd" d="M17.82 19.7a1.77 1.77 0 0 1 1.9-1.917c.189.016.414.084.643.154l.066.02.06.018c.211.063.42.126.58.212a1.786 1.786 0 0 1 .638 2.55c-.1.151-.255.307-.41.464l-.045.044-.044.045c-.156.157-.31.313-.46.414a1.754 1.754 0 0 1-2.528-.643 3.3 3.3 0 0 1-.21-.585l-.018-.06-.02-.067c-.07-.232-.137-.459-.153-.648" clip-rule="evenodd"/><path fill="currentColor" d="M11.157 20.313a9.157 9.157 0 1 0 0-18.313 9.157 9.157 0 0 0 0 18.313"/><path fill="currentColor" fill-rule="evenodd" d="M11.156 8.024c.4 0 .723.324.723.723v1.687h1.687a.723.723 0 1 1 0 1.446h-1.687v1.687a.723.723 0 0 1-1.446 0V11.88H8.746a.723.723 0 1 1 0-1.446h1.687V8.747c0-.399.324-.723.723-.723" clip-rule="evenodd"/></svg>