<svg width="24" height="24" viewBox="0 0 24 24" fill="none" xmlns="http://www.w3.org/2000/svg">
<path fill-rule="evenodd" clip-rule="evenodd" d="M8.66671 1.25C6.41155 1.25 4.58337 3.07817 4.58337 5.33333C4.58337 6.70965 5.2643 7.92693 6.30764 8.66667C5.2643 9.4064 4.58337 10.6237 4.58337 12C4.58337 13.3763 5.2643 14.5936 6.30765 15.3333C5.2643 16.0731 4.58337 17.2903 4.58337 18.6667C4.58337 20.9218 6.41154 22.75 8.66671 22.75C10.9219 22.75 12.75 20.9218 12.75 18.6667V15.1624C13.4538 15.738 14.3533 16.0833 15.3334 16.0833C17.5885 16.0833 19.4167 14.2552 19.4167 12C19.4167 10.6237 18.7358 9.4064 17.6924 8.66666C18.7358 7.92693 19.4167 6.70965 19.4167 5.33333C19.4167 3.07817 17.5885 1.25 15.3334 1.25H8.66671ZM11.25 14.5833H8.66671C7.23997 14.5833 6.08337 13.4267 6.08337 12C6.08337 10.5733 7.23997 9.41666 8.66671 9.41667L11.25 9.41666L11.25 12L11.25 14.5833ZM8.66671 7.91667H11.25V2.75H8.66671C7.23997 2.75 6.08337 3.9066 6.08337 5.33333C6.08337 6.76007 7.23997 7.91667 8.66671 7.91667ZM17.9167 5.33333C17.9167 6.75914 16.7616 7.91517 15.3361 7.91667L14.0431 7.91666L12.75 7.91666L12.75 2.75H15.3334C16.7601 2.75 17.9167 3.9066 17.9167 5.33333ZM12.75 11.9968C12.7518 10.5726 13.906 9.41838 15.3302 9.41667L15.3359 9.41667C16.7614 9.41801 17.9167 10.5741 17.9167 12C17.9167 13.4267 16.7601 14.5833 15.3334 14.5833C13.9077 14.5833 12.7518 13.4284 12.75 12.0032V11.9968ZM8.66671 16.0833C7.23997 16.0833 6.08337 17.2399 6.08337 18.6667C6.08337 20.0934 7.23997 21.25 8.66671 21.25C10.0934 21.25 11.25 20.0934 11.25 18.6667V16.0833H8.66671Z" fill="#1C274C"/>
</svg>
