<svg width="24" height="24" viewBox="0 0 24 24" fill="none" xmlns="http://www.w3.org/2000/svg">
<path d="M17.25 6.99998C17.25 6.58577 16.9142 6.24998 16.5 6.24998C16.0858 6.24998 15.75 6.58577 15.75 6.99998V8.25H14.5C14.0858 8.25 13.75 8.58579 13.75 9C13.75 9.41421 14.0858 9.75 14.5 9.75L15.75 9.75V11C15.75 11.4142 16.0858 11.75 16.5 11.75C16.9142 11.75 17.25 11.4142 17.25 11V9.75H18.5C18.9142 9.75 19.25 9.41421 19.25 9C19.25 8.58579 18.9142 8.25 18.5 8.25H17.25V6.99998Z" fill="#1C274C"/>
<path fill-rule="evenodd" clip-rule="evenodd" d="M22.75 9.31745C22.75 5.99206 21.2676 3.50965 18.9609 2.60643C16.8252 1.77017 14.2618 2.39585 12 4.51316C9.73815 2.39585 7.17479 1.77017 5.0391 2.60643C2.73242 3.50966 1.25 5.99208 1.25 9.31749C1.25 11.4354 2.38041 13.5196 3.78729 15.3139C5.20863 17.1267 6.99671 18.7499 8.48914 19.961L8.62327 20.0699C9.82386 21.0456 10.6906 21.75 12 21.75C13.3094 21.75 14.1762 21.0456 15.3767 20.07L15.5109 19.961C17.0033 18.7499 18.7914 17.1267 20.2127 15.3139C21.6196 13.5196 22.75 11.4354 22.75 9.31745ZM12.5478 6.08633C14.6596 3.82777 16.8491 3.39041 18.414 4.00317C19.9823 4.61728 21.25 6.41286 21.25 9.31745C21.25 10.9289 20.3707 12.6814 19.0323 14.3884C17.7084 16.077 16.0156 17.6197 14.5657 18.7963C13.1731 19.9263 12.7229 20.25 12 20.25C11.2771 20.25 10.8269 19.9263 9.43432 18.7963C7.98445 17.6197 6.29166 16.0769 4.96771 14.3884C3.62931 12.6814 2.75 10.9289 2.75 9.31749C2.75 6.41287 4.01766 4.61729 5.58602 4.00317C7.15092 3.39041 9.34039 3.82777 11.4522 6.08633C11.594 6.23801 11.7923 6.3241 12 6.3241C12.2077 6.3241 12.406 6.23801 12.5478 6.08633Z" fill="#1C274C"/>
</svg>
