<svg xmlns="http://www.w3.org/2000/svg" fill="none" viewBox="0 0 24 24" width="1em" height="1em"><path fill="currentColor" d="m14.46 18.745.53.53zm.767-.767-.53-.53zm3.255-4.603h.75zM6.022 8.773l.53.53zm4.603-3.255v.75zM5.255 9.54l-.53-.53zM2 14.143h-.75zm3.785-4.073.767-.767-1.06-1.06-.768.766zm8.912 7.378-.767.767 1.06 1.06.768-.766zm-.767.767c-1.1 1.1-1.873 1.87-2.534 2.375-.644.492-1.094.66-1.538.66v1.5c.903 0 1.67-.374 2.448-.967.76-.58 1.615-1.437 2.685-2.507zm-9.206 1.06c1.07 1.07 1.925 1.928 2.685 2.508.778.593 1.545.967 2.449.967v-1.5c-.445 0-.895-.168-1.539-.66-.661-.505-1.434-1.275-2.534-2.375zm9.973-9.972c1.1 1.1 1.87 1.872 2.375 2.534.492.644.66 1.094.66 1.538h1.5c0-.904-.374-1.67-.967-2.448-.58-.76-1.437-1.615-2.507-2.685zm1.06 9.206c1.07-1.07 1.928-1.925 2.508-2.685.593-.778.967-1.545.967-2.449h-1.5c0 .445-.168.895-.66 1.539-.505.661-1.275 1.434-2.375 2.534zM6.553 9.303c1.1-1.1 1.873-1.87 2.534-2.375.645-.492 1.095-.66 1.539-.66v-1.5c-.904 0-1.67.374-2.449.967-.76.58-1.615 1.437-2.684 2.507zm9.206-1.06c-1.07-1.07-1.925-1.928-2.685-2.508-.778-.593-1.544-.967-2.448-.967v1.5c.444 0 .894.168 1.538.66.662.505 1.434 1.275 2.534 2.375zm-11.034.766c-1.07 1.07-1.926 1.925-2.507 2.685-.593.778-.967 1.545-.967 2.449h1.5c0-.445.168-.895.66-1.539.505-.661 1.275-1.434 2.375-2.534zm1.061 9.206c-1.1-1.1-1.87-1.872-2.375-2.534-.492-.644-.66-1.094-.66-1.538h-1.5c0 .903.374 1.67.967 2.448.58.76 1.437 1.615 2.507 2.685z"/><path fill="currentColor" d="M5.785 13.612a.75.75 0 0 0-1.06 1.06zm3.542 5.664a.75.75 0 0 0 1.06-1.06zm-4.603-4.603 4.603 4.603 1.06-1.06-4.602-4.604z" opacity=".5"/><path fill="currentColor" d="m19.83 10.441.535.526zm-2.069 1.033a.75.75 0 0 0 1.07 1.052zm2.07-7.27-.535.527zM22 7.324h.75zm-8.307-3.118.535.526zM16.762 2v.75zm-5.297 3.4a.75.75 0 1 0 1.07 1.051zm7.83 4.515-1.534 1.559 1.07 1.052 1.534-1.559zm0-5.184c.739.75 1.238 1.26 1.563 1.692.31.414.392.67.392.9h1.5c0-.683-.28-1.252-.693-1.8-.399-.532-.984-1.124-1.692-1.844zm1.07 6.236c.708-.72 1.293-1.312 1.692-1.843.412-.55.693-1.118.693-1.801h-1.5c0 .23-.081.486-.392.9-.325.432-.824.942-1.562 1.692zm-6.137-6.236c.738-.75 1.24-1.258 1.664-1.587.408-.316.654-.394.87-.394v-1.5c-.683 0-1.249.29-1.789.708-.523.406-1.106 1.001-1.815 1.72zm6.137-1.052c-.709-.72-1.292-1.315-1.815-1.72-.54-.42-1.105-.709-1.788-.709v1.5c.215 0 .461.078.869.394.425.33.926.837 1.665 1.587zm-7.206 0-1.694 1.72 1.07 1.052 1.693-1.72z"/><path fill="currentColor" d="m14.46 18.746.53.53zm.767-.768-.53-.53zm3.255-4.603h.75zM6.022 8.774l.53.53zm-.767.767-.53-.53zm.53.53.767-.767-1.06-1.06-.768.767zm8.912 7.378-.767.767 1.06 1.06.768-.766zm-.767.767c-1.1 1.1-1.873 1.87-2.534 2.375-.644.492-1.094.66-1.539.66v1.5c.905 0 1.671-.374 2.449-.967.76-.58 1.615-1.437 2.685-2.507zm-9.206 1.06c1.07 1.07 1.925 1.928 2.685 2.508.778.593 1.544.967 2.448.967v-1.5c-.444 0-.894-.168-1.538-.66-.661-.505-1.434-1.275-2.534-2.375zm9.973-9.972c1.1 1.1 1.87 1.873 2.375 2.534.492.644.66 1.094.66 1.539h1.5c0-.904-.374-1.671-.967-2.449-.58-.76-1.437-1.615-2.507-2.685zm1.06 9.206c1.07-1.07 1.928-1.925 2.508-2.685.593-.778.967-1.544.967-2.448h-1.5c0 .444-.168.894-.66 1.538-.505.661-1.275 1.434-2.375 2.534zM6.553 9.303c1.1-1.1 1.873-1.87 2.534-2.375.645-.492 1.095-.66 1.539-.66v-1.5c-.904 0-1.67.374-2.449.967-.76.58-1.615 1.438-2.685 2.507zm9.206-1.06c-1.07-1.07-1.925-1.927-2.685-2.508-.778-.593-1.544-.967-2.448-.967v1.5c.444 0 .894.168 1.538.66.662.505 1.434 1.275 2.534 2.375zM4.724 9.01c-1.07 1.07-1.926 1.924-2.507 2.685-.593.777-.967 1.544-.967 2.448h1.5c0-.445.168-.894.66-1.539.505-.661 1.275-1.434 2.375-2.534zm1.061 9.205c-1.1-1.1-1.87-1.872-2.375-2.534-.492-.644-.66-1.094-.66-1.538h-1.5c0 .904.374 1.67.967 2.448.58.76 1.437 1.615 2.507 2.685z"/><path stroke="currentColor" stroke-linecap="round" stroke-width="1.5" d="m18.718 7.404-.708.707m-1.414-2.829-.707.708" opacity=".5"/></svg>