<svg width="24" height="24" viewBox="0 0 24 24" fill="none" xmlns="http://www.w3.org/2000/svg">
<path d="M8.3807 20.5684L3.43157 15.6193C2.52737 14.7151 2.07528 14.263 2.0108 13.7109C1.9964 13.5877 1.9964 13.4632 2.0108 13.3399C2.07528 12.7879 2.52737 12.3358 3.43156 11.4316C4.33575 10.5274 4.78785 10.0753 5.33994 10.0108C5.46318 9.9964 5.58768 9.9964 5.71092 10.0108C6.26301 10.0753 6.71511 10.5274 7.6193 11.4316L8.35253 12.1648L12.1648 8.35253L11.4316 7.6193C10.5274 6.71511 10.0753 6.26301 10.0108 5.71092C9.9964 5.58768 9.9964 5.46318 10.0108 5.33994C10.0753 4.78785 10.5274 4.33575 11.4316 3.43156C12.3358 2.52737 12.7879 2.07528 13.3399 2.0108C13.4632 1.9964 13.5877 1.9964 13.7109 2.0108C14.263 2.07528 14.7151 2.52737 15.6193 3.43156L20.5684 8.3807C21.4726 9.28489 21.9247 9.73699 21.9892 10.2891C22.0036 10.4123 22.0036 10.5368 21.9892 10.6601C21.9247 11.2121 21.4726 11.6642 20.5684 12.5684C19.6642 13.4726 19.2122 13.9247 18.6601 13.9892C18.5368 14.0036 18.4123 14.0036 18.2891 13.9892C17.737 13.9247 17.2849 13.4726 16.3807 12.5684L15.2688 11.4565L11.4565 15.2688L12.5684 16.3807C13.4726 17.2849 13.9247 17.737 13.9892 18.2891C14.0036 18.4123 14.0036 18.5368 13.9892 18.6601C13.9247 19.2122 13.4726 19.6642 12.5684 20.5684C11.6642 21.4726 11.2121 21.9247 10.6601 21.9892C10.5368 22.0036 10.4123 22.0036 10.2891 21.9892C9.73699 21.9247 9.28489 21.4726 8.3807 20.5684Z" fill="#1C274C"/>
<path fill-rule="evenodd" clip-rule="evenodd" d="M17.4885 1.96796C17.7814 1.67507 18.2562 1.67507 18.5491 1.96796L21.6531 5.07197C21.946 5.36487 21.946 5.83974 21.6531 6.13263C21.3602 6.42553 20.8854 6.42553 20.5925 6.13263L17.4885 3.02862C17.1956 2.73573 17.1956 2.26085 17.4885 1.96796ZM1.96723 17.4879C2.26012 17.195 2.735 17.195 3.02789 17.4879L6.1319 20.5919C6.42479 20.8848 6.42479 21.3596 6.1319 21.6525C5.83901 21.9454 5.36413 21.9454 5.07124 21.6525L1.96723 18.5485C1.67434 18.2556 1.67434 17.7808 1.96723 17.4879Z" fill="#1C274C"/>
</svg>
