<svg xmlns="http://www.w3.org/2000/svg" fill="none" viewBox="0 0 24 24" width="1em" height="1em"><path fill="currentColor" fill-rule="evenodd" d="M21.036 2.884a.75.75 0 0 1 0 1.06l-1.632 1.633a4.75 4.75 0 0 1-.085 5.687l.004.033-.032.003.032-.004v.005l.001.008.003.027.01.096q.011.124.024.349a16.1 16.1 0 0 1-.58 5.176c-.29 1.018-.744 2.025-1.209 2.906-1.16 2.199-3.832 2.856-5.876 1.813l-.025-.013-1.12-.682A22.75 22.75 0 0 1 2.94 13.37l-.682-1.12-.012-.025c-1.043-2.043-.387-4.715 1.813-5.876.88-.465 1.887-.918 2.905-1.209a16.1 16.1 0 0 1 5.525-.555l.096.01.027.002.008.001h.004l-.003.033.003-.032.033.004a4.75 4.75 0 0 1 5.687-.085l1.633-1.633a.75.75 0 0 1 1.06 0m-8.839 3.182-.14-.009a14.6 14.6 0 0 0-4.682.524c-.883.253-1.79.657-2.617 1.093-1.407.743-1.873 2.475-1.19 3.844l.652 1.071a21.25 21.25 0 0 0 7.11 7.11l1.072.652c1.37.684 3.101.218 3.844-1.189.437-.827.84-1.733 1.093-2.617a14.6 14.6 0 0 0 .516-4.822zm6.126 4.004L13.85 5.597a3.251 3.251 0 0 1 4.473 4.473" clip-rule="evenodd"/></svg>