<svg xmlns="http://www.w3.org/2000/svg" fill="none" viewBox="0 0 24 24" width="1em" height="1em"><path fill="currentColor" fill-rule="evenodd" d="M19.175 4.81a1.25 1.25 0 0 0-1.32-.816c-.063.008-.178.037-.418.141-.238.104-.543.257-.985.477L13.82 5.93c-.392.196-.498.252-.578.314a1.25 1.25 0 0 0-.469.758c-.019.1-.022.219-.022.657 0 .494 0 .835.014 1.095.014.261.04.377.06.437a1.25 1.25 0 0 0 1.32.815c.064-.007.179-.036.419-.14.238-.105.543-.257.985-.478l2.633-1.316c.392-.196.497-.252.578-.314A1.25 1.25 0 0 0 19.229 7c.019-.1.022-.22.022-.657 0-.494 0-.835-.014-1.095-.014-.261-.04-.377-.06-.437m-1.494-2.306A2.75 2.75 0 0 1 20.586 4.3c.098.27.132.563.148.87.016.303.016.684.016 1.151v.083c0 .348 0 .62-.049.878a2.75 2.75 0 0 1-1.03 1.667c-.21.16-.453.281-.764.437l-.055.027-2.652 1.326c-.418.21-.759.38-1.038.501-.281.123-.558.223-.843.256a2.74 2.74 0 0 1-1.569-.282V18a4.75 4.75 0 1 1-1.5-3.464V7.597c0-.348 0-.62.049-.878a2.75 2.75 0 0 1 1.03-1.668c.21-.16.453-.28.764-.436l.055-.028L15.8 3.261c.418-.209.759-.38 1.038-.5.281-.123.558-.223.843-.257M11.25 18a3.25 3.25 0 1 0-6.5 0 3.25 3.25 0 0 0 6.5 0" clip-rule="evenodd"/></svg>