<svg width="24" height="24" viewBox="0 0 24 24" fill="none" xmlns="http://www.w3.org/2000/svg">
<path d="M1.95851 8.57703C2.2447 8.04588 2.79227 7.53066 3.33985 7.27732C3.93918 7.00003 4.62614 7.00003 6.00005 7.00003C6.51212 7.00003 6.76816 7.00003 7.01617 6.95815C7.26135 6.91675 7.50043 6.84502 7.72792 6.74463C7.95803 6.64307 8.17178 6.50214 8.59929 6.22026L8.81822 6.07591C11.3612 4.39922 12.6327 3.56088 13.7 3.92511C13.9047 3.99495 14.1028 4.09575 14.2797 4.22008C15.2024 4.86853 15.2725 6.37724 15.4127 9.39465C15.4646 10.5119 15.5 11.4681 15.5 12C15.5 12.5319 15.4646 13.4882 15.4127 14.6054C15.2725 17.6228 15.2024 19.1315 14.2797 19.78C14.1028 19.9043 13.9047 20.0051 13.7 20.0749C12.6327 20.4392 11.3612 19.6008 8.81822 17.9242L8.59929 17.7798C8.17178 17.4979 7.95803 17.357 7.72792 17.2554C7.50043 17.155 7.26135 17.0833 7.01617 17.0419C6.76816 17 6.51212 17 6.00005 17C4.62614 17 3.93918 17 3.33985 16.7227C2.79227 16.4694 2.2447 15.9542 1.95851 15.423C1.64528 14.8417 1.60844 14.2373 1.53476 13.0284C1.52384 12.8493 1.51513 12.6724 1.50916 12.5" stroke="#1C274C" stroke-width="1.5" stroke-linecap="round"/>
<path d="M22 10L18 14M18 10L22 14" stroke="#1C274C" stroke-width="1.5" stroke-linecap="round"/>
</svg>
