<svg xmlns="http://www.w3.org/2000/svg" fill="none" viewBox="0 0 24 24" width="1em" height="1em"><path stroke="currentColor" stroke-width="1.5" d="M3.742 20.555C4.942 22 7.174 22 11.639 22h.722c4.465 0 6.698 0 7.897-1.445m-16.516 0c-1.2-1.446-.789-3.64.034-8.03.586-3.12.878-4.681 1.99-5.603M3.741 20.555Zm16.516 0c1.2-1.446.788-3.64-.034-8.03-.586-3.12-.878-4.681-1.99-5.603m2.024 13.633ZM18.235 6.922C17.124 6 15.536 6 12.36 6h-.722c-3.175 0-4.763 0-5.874.922m12.47 0Zm-12.47 0Z"/><path stroke="currentColor" stroke-linecap="round" stroke-width="1.5" d="M9 6V5a3 3 0 1 1 6 0v1"/><path stroke="currentColor" stroke-width="1.5" d="M12 17a2 2 0 1 1-4 0 2 2 0 0 1 4 0Zm0 0v-5"/><path stroke="currentColor" stroke-linecap="round" stroke-width="1.5" d="m14.058 9.97-1.316.66c-.183.09-.274.136-.35.194a1 1 0 0 0-.374.606c-.018.093-.018.195-.018.4 0 .485 0 .728.06.893a1 1 0 0 0 1.056.652c.174-.02.391-.129.826-.346l1.316-.658a2 2 0 0 0 .35-.195 1 1 0 0 0 .374-.606c.018-.093.018-.195.018-.4 0-.485 0-.727-.06-.893a1 1 0 0 0-1.056-.652c-.174.02-.391.129-.826.346Z"/></svg>