<svg xmlns="http://www.w3.org/2000/svg" fill="none" viewBox="0 0 24 24" width="1em" height="1em"><path fill="currentColor" d="M9 17.25a.75.75 0 0 0 0 1.5h6a.75.75 0 0 0 0-1.5z"/><path fill="currentColor" fill-rule="evenodd" d="M12 1.25c-.725 0-1.387.2-2.11.537-.702.328-1.512.81-2.528 1.416l-1.456.867c-1.119.666-2.01 1.198-2.686 1.705C2.523 6.3 2 6.84 1.66 7.551c-.342.711-.434 1.456-.405 2.325.029.841.176 1.864.36 3.146l.293 2.032c.237 1.65.426 2.96.707 3.978.29 1.051.702 1.885 1.445 2.525.742.639 1.63.925 2.716 1.06 1.056.133 2.387.133 4.066.133h2.316c1.68 0 3.01 0 4.066-.132 1.086-.136 1.974-.422 2.716-1.061.743-.64 1.155-1.474 1.445-2.525.281-1.019.47-2.328.707-3.978l.292-2.032c.185-1.282.332-2.305.36-3.146.03-.869-.062-1.614-.403-2.325S21.477 6.3 20.78 5.775c-.675-.507-1.567-1.039-2.686-1.705l-1.456-.867c-1.016-.606-1.826-1.088-2.527-1.416-.724-.338-1.386-.537-2.111-.537M8.096 4.511c1.057-.63 1.803-1.073 2.428-1.364.609-.285 1.047-.397 1.476-.397s.867.112 1.476.397c.625.291 1.37.735 2.428 1.364l1.385.825c1.165.694 1.986 1.185 2.59 1.638.587.443.91.81 1.11 1.225.199.416.282.895.257 1.626-.026.75-.16 1.692-.352 3.026l-.28 1.938c-.246 1.713-.422 2.928-.675 3.844-.247.896-.545 1.415-.977 1.787-.433.373-.994.593-1.925.71-.951.119-2.188.12-3.93.12h-2.213c-1.743 0-2.98-.001-3.931-.12-.93-.117-1.492-.337-1.925-.71-.432-.372-.73-.89-.977-1.787-.253-.916-.43-2.131-.676-3.844l-.279-1.938c-.192-1.335-.326-2.276-.352-3.026-.025-.731.058-1.21.258-1.626s.521-.782 1.11-1.225c.603-.453 1.424-.944 2.589-1.638z" clip-rule="evenodd"/></svg>