<svg xmlns="http://www.w3.org/2000/svg" fill="none" viewBox="0 0 24 24" width="1em" height="1em"><path stroke="currentColor" stroke-linecap="round" stroke-width="1.5" d="M21.892 8.945A51 51 0 0 1 22 12c0 .94-.042 1.987-.108 3.055-.233 3.78-.35 5.669-1.632 6.571s-2.712.087-5.572-1.543a39 39 0 0 1-2.091-1.27 41 41 0 0 1-2.297-1.65C7.433 14.971 6 13.875 6 12s1.433-2.97 4.3-5.163a41 41 0 0 1 2.297-1.65 39 39 0 0 1 2.091-1.27c2.86-1.63 4.29-2.446 5.572-1.543.723.508 1.075 1.33 1.287 2.626M2 5v8m0 7v-3"/></svg>