<svg xmlns="http://www.w3.org/2000/svg" fill="none" viewBox="0 0 24 24" width="1em" height="1em"><path stroke="currentColor" stroke-width="1.5" d="M10.3 6.837C7.433 9.029 6 10.125 6 12s1.433 2.97 4.3 5.163a41 41 0 0 0 2.297 1.65c.633.416 1.35.847 2.091 1.27 2.86 1.63 4.29 2.446 5.572 1.543 1.283-.902 1.4-2.792 1.632-6.57.066-1.07.108-2.117.108-3.056s-.042-1.987-.108-3.055c-.233-3.78-.35-5.668-1.632-6.571s-2.712-.087-5.572 1.543a39 39 0 0 0-2.091 1.27 41 41 0 0 0-2.297 1.65Z" opacity=".5"/><path stroke="currentColor" stroke-linecap="round" stroke-width="1.5" d="M2 5v15"/></svg>