<svg xmlns="http://www.w3.org/2000/svg" fill="none" viewBox="0 0 24 24" width="1em" height="1em"><path stroke="currentColor" stroke-linecap="round" stroke-width="1.5" d="M15.39 15.39c.585-.587.664-1.457.176-1.945s-1.359-.41-1.945.177c-.585.585-1.456.665-1.944.176-.488-.488-.409-1.358.177-1.944m3.535 3.535.354.354m-.354-.354c-.4.401-.935.565-1.389.472m-2.5-4.36.354.353m0 0A1.63 1.63 0 0 1 13 11.357m-4.393-.478a2 2 0 1 0-2-2"/><path stroke="currentColor" stroke-linecap="round" stroke-width="1.5" d="M16.137 4.728c-1.546-1.545-2.318-2.318-3.321-2.605-1.003-.288-2.068-.042-4.197.45l-1.228.283c-1.792.413-2.688.62-3.302 1.233S3.27 5.6 2.856 7.391l-.284 1.228c-.491 2.13-.737 3.194-.45 4.197.288 1.003 1.061 1.775 2.606 3.32l1.83 1.83C9.248 20.657 10.592 22 12.262 22c1.671 0 3.015-1.344 5.704-4.033 2.69-2.69 4.034-4.034 4.034-5.705 0-1.342-.868-2.474-2.604-4.262"/></svg>