<svg xmlns="http://www.w3.org/2000/svg" fill="none" viewBox="0 0 24 24" width="1em" height="1em"><path stroke="currentColor" stroke-width="1.5" d="M4.728 16.137c-1.545-1.546-2.318-2.318-2.605-3.321-.288-1.003-.042-2.067.45-4.197l.283-1.228c.413-1.792.62-2.688 1.233-3.301.614-.614 1.51-.82 3.302-1.234l1.228-.284c2.13-.491 3.194-.737 4.197-.45 1.003.288 1.775 1.061 3.32 2.607l1.83 1.83C20.657 9.246 22 10.591 22 12.261c0 1.671-1.344 3.016-4.033 5.705S13.933 22 12.262 22c-1.67 0-3.015-1.344-5.704-4.033z"/><path stroke="currentColor" stroke-linecap="round" stroke-width="1.5" d="M15.39 15.39c.585-.587.664-1.457.176-1.945s-1.359-.41-1.945.177c-.585.585-1.456.665-1.944.176-.488-.488-.409-1.358.177-1.944m3.535 3.535.354.354m-.354-.354c-.4.401-.935.565-1.389.472m-2.5-4.36.354.353m0 0A1.63 1.63 0 0 1 13 11.357"/><circle cx="8.607" cy="8.879" r="2" stroke="currentColor" stroke-width="1.5" transform="rotate(-45 8.607 8.88)"/></svg>