<svg xmlns="http://www.w3.org/2000/svg" fill="none" viewBox="0 0 24 24" width="1em" height="1em"><path stroke="currentColor" stroke-linecap="round" stroke-width="1.5" d="M8.322 14.493c-.942 1.493-1.413 2.24-1.092 2.85s1.22.68 3.021.821l.466.037c.512.04.768.06.992.177.223.118.39.32.722.723l.302.368c1.17 1.42 1.754 2.13 2.421 2.04.667-.092.975-.925 1.59-2.59l.16-.43c.174-.473.261-.71.433-.881s.408-.26.881-.434l.431-.16c1.665-.614 2.497-.922 2.589-1.589.09-.667-.62-1.252-2.04-2.421m-1.304-2.482c-.14-1.8-.211-2.7-.822-3.022-.61-.32-1.357.15-2.85 1.092l-.386.244c-.424.268-.636.402-.88.435-.245.034-.494-.037-.992-.179l-.453-.128c-1.751-.498-2.627-.747-3.096-.278s-.22 1.344.278 3.096M13.5 6.5 13 6M9.5 2.5l2 2m-5 2L4 4m2 8-1.5-1.5M2 8l.5.5"/></svg>