<svg xmlns="http://www.w3.org/2000/svg" fill="none" viewBox="0 0 24 24" width="1em" height="1em"><circle cx="12" cy="12" r="3" stroke="currentColor" stroke-width="1.5"/><path stroke="currentColor" stroke-linecap="round" stroke-width="1.5" d="M7.404 16.596a6.5 6.5 0 0 1 0-9.192m9.192 0A6.47 6.47 0 0 1 18.423 11m-1.827 5.596A6.5 6.5 0 0 0 17.768 15"/><path stroke="currentColor" stroke-linecap="round" stroke-width="1.5" d="M7 3.338A9.95 9.95 0 0 1 12 2c5.523 0 10 4.477 10 10s-4.477 10-10 10S2 17.523 2 12c0-1.821.487-3.53 1.338-5"/></svg>