<svg xmlns="http://www.w3.org/2000/svg" fill="none" viewBox="0 0 24 24" width="1em" height="1em"><path fill="currentColor" d="M12.707 12.707a1 1 0 1 1-1.414-1.414 1 1 0 0 1 1.414 1.414M9.879 8.465A1 1 0 1 1 8.464 7.05 1 1 0 0 1 9.88 8.464m7.07 7.072a1 1 0 1 1-1.414-1.415 1 1 0 0 1 1.414 1.415"/><path fill="currentColor" fill-rule="evenodd" d="M8.104 4.317c-.95-.163-1.517.015-1.815.312-.223.223-.377.59-.373 1.17.004.583.17 1.32.52 2.173.7 1.701 2.073 3.719 3.973 5.619s3.918 3.273 5.62 3.972c.852.35 1.59.517 2.173.521.58.004.946-.15 1.169-.373.297-.298.475-.865.312-1.815-.126-.74-.448-1.621-.96-2.583a1.18 1.18 0 0 1-.76.119c-.721-.13-2.077-.728-4.372-3.023s-2.893-3.65-3.023-4.372a1.18 1.18 0 0 1 .12-.76c-.963-.512-1.844-.834-2.584-.96m3.732-.12c-1.22-.7-2.414-1.176-3.479-1.359-1.166-.199-2.333-.064-3.128.73-.592.593-.819 1.398-.813 2.24.005.839.238 1.773.634 2.734.791 1.926 2.293 4.104 4.298 6.11 2.006 2.005 4.184 3.507 6.11 4.299.961.395 1.895.628 2.734.633.842.006 1.648-.22 2.24-.813.794-.795.929-1.962.73-3.128-.182-1.065-.66-2.258-1.36-3.479a5.48 5.48 0 0 0-.716-6.866l-.383-.384a5.48 5.48 0 0 0-6.867-.716m.243 1.715c.128.42.631 1.495 2.573 3.436 1.941 1.942 3.017 2.445 3.436 2.573a3.98 3.98 0 0 0-.063-5.563l-.383-.383a3.98 3.98 0 0 0-5.563-.063m-7.327 4.85a.75.75 0 0 1 0 1.061l-2.121 2.122a.75.75 0 1 1-1.06-1.061l2.12-2.121a.75.75 0 0 1 1.061 0m3.536 4.95a.75.75 0 0 1 0 1.061l-4.122 4.121a.75.75 0 0 1-1.06-1.06l4.121-4.122a.75.75 0 0 1 1.06 0m4.95 3.536a.75.75 0 0 1 0 1.06l-2.122 2.122a.75.75 0 0 1-1.06-1.06l2.12-2.122a.75.75 0 0 1 1.062 0" clip-rule="evenodd"/></svg>