<svg width="24" height="24" viewBox="0 0 24 24" fill="none" xmlns="http://www.w3.org/2000/svg">
<path d="M16.5279 2H7.47225C6.26943 2 5.66803 2 5.18472 2.2987C4.70142 2.5974 4.43246 3.13531 3.89454 4.21114L2.49093 7.75929C2.16664 8.57905 1.8829 9.54525 2.42878 10.2375C2.795 10.7019 3.36269 11 4.00003 11C5.1046 11 6.00003 10.1046 6.00003 9C6.00003 10.1046 6.89546 11 8.00003 11C9.1046 11 10 10.1046 10 9C10 10.1046 10.8955 11 12 11C13.1046 11 14 10.1046 14 9C14 10.1046 14.8955 11 16 11C17.1046 11 18 10.1046 18 9C18 10.1046 18.8955 11 20 11C20.6374 11 21.2051 10.7019 21.5713 10.2375C22.1172 9.54525 21.8335 8.57905 21.5092 7.75929L20.1056 4.21114C19.5677 3.13531 19.2987 2.5974 18.8154 2.2987C18.3321 2 17.7307 2 16.5279 2Z" fill="#1C274C"/>
<path fill-rule="evenodd" clip-rule="evenodd" d="M20 21.25H22C22.4142 21.25 22.75 21.5858 22.75 22C22.75 22.4142 22.4142 22.75 22 22.75H2C1.58579 22.75 1.25 22.4142 1.25 22C1.25 21.5858 1.58579 21.25 2 21.25H4L4 12.5C4.74363 12.5 5.43309 12.2681 6 11.8727C6.56692 12.2681 7.25638 12.5 8 12.5C8.74363 12.5 9.43309 12.2681 10 11.8727C10.5669 12.2681 11.2564 12.5 12 12.5C12.7436 12.5 13.4331 12.2681 14 11.8727C14.5669 12.2681 15.2564 12.5 16 12.5C16.7436 12.5 17.4331 12.2681 18 11.8727C18.5669 12.2681 19.2564 12.5 20 12.5L20 21.25ZM9.5 21.25H14.5V18.5C14.5 17.5654 14.5 17.0981 14.299 16.75C14.1674 16.522 13.978 16.3326 13.75 16.201C13.4019 16 12.9346 16 12 16C11.0654 16 10.5981 16 10.25 16.201C10.022 16.3326 9.83261 16.522 9.70096 16.75C9.5 17.0981 9.5 17.5654 9.5 18.5V21.25Z" fill="#1C274C"/>
</svg>
