<svg xmlns="http://www.w3.org/2000/svg" fill="none" viewBox="0 0 24 24" width="1em" height="1em"><path fill="currentColor" fill-rule="evenodd" d="M21 22.75a.75.75 0 0 1-.75-.75V2a.75.75 0 1 1 1.5 0v20a.75.75 0 0 1-.75.75m-18 0a.75.75 0 0 1-.75-.75V2a.75.75 0 1 1 1.5 0v20a.75.75 0 0 1-.75.75" clip-rule="evenodd" opacity=".5"/><path fill="currentColor" d="M12 20c1.886 0 2.829 0 3.415-.586S16 17.886 16 16V8c0-1.886 0-2.828-.585-3.414C14.829 4 13.885 4 12 4s-2.828 0-3.414.586S8 6.114 8 8v8c0 1.886 0 2.828.586 3.414S10.115 20 12 20"/></svg>