<svg width="24" height="24" viewBox="0 0 24 24" fill="none" xmlns="http://www.w3.org/2000/svg">
<path d="M3.2132 9.07107C1.5956 7.45346 1.5956 4.83081 3.2132 3.2132C4.83081 1.5956 7.45346 1.5956 9.07107 3.2132L20.7868 14.9289C22.4044 16.5465 22.4044 19.1692 20.7868 20.7868C19.1692 22.4044 16.5465 22.4044 14.9289 20.7868L3.2132 9.07107Z" stroke="#1C274C" stroke-width="1.5"/>
<g opacity="0.5">
<path d="M12 17.8579L9.07107 20.7868C7.45346 22.4044 4.83081 22.4044 3.2132 20.7868C1.5956 19.1692 1.5956 16.5465 3.2132 14.9289L6.14214 12L12 17.8579Z" stroke="#1C274C" stroke-width="1.5"/>
<path d="M12 6.14214L14.9289 3.2132C16.5465 1.5956 19.1692 1.5956 20.7868 3.2132C22.4044 4.83081 22.4044 7.45346 20.7868 9.07107L17.8579 12L12 6.14214Z" stroke="#1C274C" stroke-width="1.5"/>
</g>
<path d="M15.8414 12.8714C16.1489 13.179 16.1489 13.6776 15.8414 13.9852C15.5338 14.2927 15.0352 14.2927 14.7276 13.9852C14.4201 13.6776 14.4201 13.179 14.7276 12.8714C15.0352 12.5639 15.5338 12.5639 15.8414 12.8714Z" fill="#1C274C"/>
<path d="M12.1289 9.15895C11.8214 8.8514 11.3227 8.8514 11.0152 9.15895C10.7076 9.4665 10.7076 9.96514 11.0152 10.2727C11.3227 10.5802 11.8214 10.5802 12.1289 10.2727C12.4365 9.96514 12.4365 9.4665 12.1289 9.15895Z" fill="#1C274C"/>
<path d="M13.9852 14.7276C14.2927 15.0352 14.2927 15.5338 13.9852 15.8414C13.6776 16.1489 13.179 16.1489 12.8714 15.8414C12.5639 15.5338 12.5639 15.0352 12.8714 14.7276C13.179 14.4201 13.6776 14.4201 13.9852 14.7276Z" fill="#1C274C"/>
<path d="M10.2727 11.0152C9.96514 10.7076 9.4665 10.7076 9.15895 11.0152C8.8514 11.3227 8.8514 11.8214 9.15895 12.1289C9.4665 12.4365 9.96514 12.4365 10.2727 12.1289C10.5802 11.8214 10.5802 11.3227 10.2727 11.0152Z" fill="#1C274C"/>
<path d="M16.7696 15.6558C17.0771 15.9634 17.0771 16.462 16.7696 16.7696C16.462 17.0771 15.9634 17.0771 15.6558 16.7696C15.3483 16.462 15.3483 15.9634 15.6558 15.6558C15.9634 15.3483 16.462 15.3483 16.7696 15.6558Z" fill="#1C274C"/>
<path d="M9.34465 8.23091C9.0371 7.92336 8.53846 7.92336 8.23091 8.23091C7.92336 8.53846 7.92336 9.0371 8.23091 9.34465C8.53846 9.6522 9.0371 9.6522 9.34465 9.34465C9.6522 9.0371 9.6522 8.53846 9.34465 8.23091Z" fill="#1C274C"/>
<path opacity="0.5" d="M13.057 11.9433C13.3646 12.2509 13.3646 12.7495 13.057 13.057C12.7495 13.3646 12.2509 13.3646 11.9433 13.057C11.6358 12.7495 11.6358 12.2509 11.9433 11.9433C12.2509 11.6358 12.7495 11.6358 13.057 11.9433Z" fill="#1C274C"/>
</svg>
