<svg width="24" height="24" viewBox="0 0 24 24" fill="none" xmlns="http://www.w3.org/2000/svg">
<path opacity="0.5" d="M20.4155 12.765L11.235 3.58447C9.12233 1.47184 5.69709 1.47184 3.58447 3.58447C1.47184 5.69709 1.47184 9.12233 3.58447 11.235L12.765 20.4155C14.8777 22.5282 18.3029 22.5282 20.4155 20.4155C22.5282 18.3029 22.5282 14.8777 20.4155 12.765Z" fill="#1C274C"/>
<path d="M19.885 12.2345L20.4156 12.7651C20.5955 12.945 20.76 13.1344 20.9092 13.3316L13.3316 20.9092C13.1344 20.76 12.945 20.5955 12.7651 20.4156L12.2345 19.885L19.885 12.2345C19.8851 12.2345 19.8849 12.2346 19.885 12.2345Z" fill="#1C274C"/>
<path d="M10.6679 3.09045C10.8654 3.2398 11.055 3.40449 11.235 3.58452L11.7651 4.11462C11.765 4.1147 11.7652 4.11453 11.7651 4.11462L4.11462 11.7651L3.58452 11.235C3.40449 11.055 3.2398 10.8654 3.09045 10.6679L10.6679 3.09045Z" fill="#1C274C"/>
<circle cx="9.17154" cy="12" r="1" transform="rotate(-45 9.17154 12)" fill="#1C274C"/>
<circle cx="12" cy="14.8284" r="1" transform="rotate(-45 12 14.8284)" fill="#1C274C"/>
<circle cx="12" cy="9.17163" r="1" transform="rotate(-45 12 9.17163)" fill="#1C274C"/>
<circle cx="14.8284" cy="12" r="1" transform="rotate(-45 14.8284 12)" fill="#1C274C"/>
</svg>
