<svg width="24" height="24" viewBox="0 0 24 24" fill="none" xmlns="http://www.w3.org/2000/svg">
<path fill-rule="evenodd" clip-rule="evenodd" d="M3.28441 11.2661C3.15113 9.26687 3.08449 8.26726 3.67729 7.63363C4.27009 7 5.27191 7 7.27555 7H12.7245C14.7281 7 15.7299 7 16.3227 7.63363C16.4852 7.80726 16.5981 8.00837 16.6737 8.25H17C19.5261 8.25 21.75 10.0619 21.75 12.5C21.75 14.9381 19.5261 16.75 17 16.75H16.3499C16.3383 16.9226 16.3269 17.0891 16.3155 17.25H3.68451C3.66551 16.9826 3.64663 16.6993 3.62662 16.3991L3.28441 11.2661ZM16.45 15.25H17C18.8921 15.25 20.25 13.9278 20.25 12.5C20.25 11.0722 18.8921 9.75 17 9.75H16.8007C16.788 10.1801 16.7547 10.6802 16.7156 11.2661L16.45 15.25Z" fill="#1C274C"/>
<path d="M3.81902 18.75H16.181C16.0372 19.9266 15.8026 20.6671 15.2429 21.1907C14.3779 22 13.0475 22 10.3867 22H9.61333C6.95253 22 5.62212 22 4.75712 21.1907C4.19745 20.6671 3.96285 19.9266 3.81902 18.75Z" fill="#1C274C"/>
<path fill-rule="evenodd" clip-rule="evenodd" d="M6.97736 1.32685C7.31458 1.56738 7.39296 2.03575 7.15242 2.37296L6.76635 2.91421C7.39218 3.38848 7.53088 4.27773 7.0719 4.9212L6.66128 5.49687C6.42075 5.83409 5.95238 5.91246 5.61517 5.67193C5.27795 5.43139 5.19957 4.96303 5.44011 4.62581L5.82618 4.08456C5.20036 3.6103 5.06165 2.72104 5.52063 2.07758L5.93125 1.50191C6.17179 1.16469 6.64015 1.08631 6.97736 1.32685ZM10.9774 1.32685C11.3146 1.56738 11.393 2.03575 11.1524 2.37296L10.7664 2.91421C11.3922 3.38848 11.5309 4.27773 11.0719 4.9212L10.6613 5.49687C10.4207 5.83409 9.95238 5.91246 9.61517 5.67193C9.27795 5.43139 9.19957 4.96303 9.44011 4.62581L9.82618 4.08456C9.20036 3.6103 9.06165 2.72105 9.52063 2.07758L9.93125 1.50191C10.1718 1.16469 10.6401 1.08631 10.9774 1.32685ZM14.9774 1.32685C15.3146 1.56738 15.393 2.03575 15.1524 2.37296L14.7664 2.91421C15.3922 3.38848 15.5309 4.27773 15.0719 4.9212L14.6613 5.49687C14.4207 5.83409 13.9524 5.91246 13.6152 5.67193C13.2779 5.43139 13.1996 4.96303 13.4401 4.62581L13.8262 4.08456C13.2004 3.6103 13.0616 2.72105 13.5206 2.07758L13.9313 1.50191C14.1718 1.16469 14.6401 1.08631 14.9774 1.32685Z" fill="#1C274C"/>
</svg>
