<svg width="24" height="24" viewBox="0 0 24 24" fill="none" xmlns="http://www.w3.org/2000/svg">
<path d="M3.6266 16.3991C3.80359 19.054 3.89209 20.3815 4.7571 21.1907C5.62211 22 6.95251 22 9.61331 22H10.3867C13.0475 22 14.3779 22 15.2429 21.1907C16.1079 20.3815 16.1964 19.054 16.3734 16.3991L16.7156 11.2661C16.8489 9.26687 16.9155 8.26726 16.3227 7.63363C15.7299 7 14.7281 7 12.7244 7H7.27554C5.27189 7 4.27007 7 3.67727 7.63363C3.08448 8.26726 3.15112 9.26687 3.2844 11.2661L3.3422 12.133" stroke="#1C274C" stroke-width="1.5" stroke-linecap="round"/>
<path d="M17 17H18C20.2091 17 22 15.2091 22 13C22 10.7909 20.2091 9 18 9H17" stroke="#1C274C" stroke-width="1.5"/>
<path d="M10 18.75C10.4142 18.75 10.75 18.4142 10.75 18C10.75 17.5858 10.4142 17.25 10 17.25V18.75ZM13.5 17.25C13.0858 17.25 12.75 17.5858 12.75 18C12.75 18.4142 13.0858 18.75 13.5 18.75V17.25ZM10 17.25H4V18.75H10V17.25ZM16 17.25H13.5V18.75H16V17.25Z" fill="#1C274C"/>
<path d="M6.05068 5.06134L6.4613 4.48568C6.68808 4.16774 6.61419 3.72617 6.29626 3.49939C5.97832 3.27261 5.90443 2.83104 6.13121 2.51311L6.54183 1.93744M14.0507 5.06134L14.4613 4.48568C14.6881 4.16774 14.6142 3.72617 14.2963 3.49939C13.9783 3.27261 13.9044 2.83104 14.1312 2.51311L14.5418 1.93744M10.0507 5.06134L10.4613 4.48568C10.6881 4.16774 10.6142 3.72617 10.2963 3.49939C9.97832 3.27261 9.90443 2.83104 10.1312 2.51311L10.5418 1.93744" stroke="#1C274C" stroke-width="1.5" stroke-linecap="round"/>
</svg>
