<svg width="24" height="24" viewBox="0 0 24 24" fill="none" xmlns="http://www.w3.org/2000/svg">
<path d="M3.2844 11.2661C3.15112 9.26687 3.08448 8.26726 3.67727 7.63363C4.27007 7 5.27189 7 7.27554 7H12.7244C14.7281 7 15.7299 7 16.3227 7.63363C16.9155 8.26726 16.8489 9.26687 16.7156 11.2661L16.3734 16.3991C16.1964 19.054 16.1079 20.3815 15.2429 21.1907C14.3779 22 13.0475 22 10.3867 22H9.61331C6.95251 22 5.62211 22 4.7571 21.1907C3.89209 20.3815 3.80359 19.054 3.6266 16.3991L3.2844 11.2661Z" stroke="#1C274C" stroke-width="1.5"/>
<path d="M17 17H18C20.2091 17 22 15.2091 22 13C22 10.7909 20.2091 9 18 9H17" stroke="#1C274C" stroke-width="1.5"/>
<path d="M16 18H4" stroke="#1C274C" stroke-width="1.5"/>
<path d="M6.05068 5.06134L6.4613 4.48568C6.68808 4.16774 6.61419 3.72617 6.29626 3.49939C5.97832 3.27261 5.90443 2.83104 6.13121 2.51311L6.54183 1.93744M14.0507 5.06134L14.4613 4.48568C14.6881 4.16774 14.6142 3.72617 14.2963 3.49939C13.9783 3.27261 13.9044 2.83104 14.1312 2.51311L14.5418 1.93744M10.0507 5.06134L10.4613 4.48568C10.6881 4.16774 10.6142 3.72617 10.2963 3.49939C9.97832 3.27261 9.90443 2.83104 10.1312 2.51311L10.5418 1.93744" stroke="#1C274C" stroke-width="1.5" stroke-linecap="round"/>
</svg>
