<svg xmlns="http://www.w3.org/2000/svg" fill="none" viewBox="0 0 24 24" width="1em" height="1em"><path fill="currentColor" d="M9.375 8.26a.75.75 0 0 1 .864.615l.529 3.117a.75.75 0 0 1-1.48.251l-.527-3.118a.75.75 0 0 1 .614-.864m5.414.614a.75.75 0 0 1 1.479.25l-.528 3.118a.75.75 0 0 1-1.48-.25z"/><path fill="currentColor" fill-rule="evenodd" d="M2.249 2.292a.75.75 0 1 0-.498 1.416l.261.091c.668.235 1.107.39 1.43.549.303.149.437.27.525.398.09.132.16.314.199.677.041.38.042.875.042 1.615V9.76c0 1.453.014 2.5.15 3.3.147.854.44 1.466.985 2.042.594.627 1.347.9 2.243 1.026.859.122 1.948.122 3.294.122h5.406c.741 0 1.366 0 1.87-.062.536-.065 1.025-.209 1.451-.556s.666-.797.838-1.309c.163-.482.289-1.093.438-1.82l.51-2.469v-.005l.01-.052c.165-.825.304-1.519.338-2.077.037-.586-.03-1.164-.412-1.66-.235-.306-.565-.479-.866-.584a4.6 4.6 0 0 0-1.003-.21c-.687-.076-1.521-.076-2.34-.076H5.668l-.01-.108c-.055-.497-.171-.95-.453-1.362-.284-.416-.662-.682-1.103-.899-.412-.202-.935-.386-1.552-.603zM5.708 6.87h11.38c.857 0 1.61.001 2.206.067.295.033.516.08.672.134a.6.6 0 0 1 .176.086c.061.082.128.23.102.65-.027.444-.144 1.037-.321 1.927v.002l-.5 2.42c-.16.783-.27 1.303-.4 1.688-.122.366-.238.523-.363.625s-.303.184-.686.23c-.403.05-.934.051-1.734.051h-5.303c-1.416 0-2.4-.002-3.14-.107-.715-.101-1.093-.285-1.365-.573-.32-.338-.493-.668-.595-1.263-.111-.65-.129-1.558-.129-3.047zM7.5 21.75a2.25 2.25 0 1 1 0-4.5 2.25 2.25 0 0 1 0 4.5m-.75-2.25a.75.75 0 1 0 1.5 0 .75.75 0 0 0-1.5 0m9.75 2.25a2.25 2.25 0 1 1 0-4.5 2.25 2.25 0 0 1 0 4.5m-.75-2.25a.75.75 0 1 0 1.5 0 .75.75 0 0 0-1.5 0" clip-rule="evenodd"/></svg>