<svg xmlns="http://www.w3.org/2000/svg" fill="none" viewBox="0 0 24 24" width="1em" height="1em"><path fill="currentColor" fill-rule="evenodd" d="M18.305 2.907c-.79.266-1.787.83-3.245 1.662-.733.418-1.435.84-2.05 1.245a40 40 0 0 0-2.255 1.619C9.3 8.546 8.29 9.323 7.628 10.044 7 10.73 6.75 11.3 6.75 12s.25 1.27.878 1.956c.661.722 1.672 1.499 3.127 2.611a40 40 0 0 0 2.254 1.62 38 38 0 0 0 2.05 1.245c1.459.831 2.457 1.396 3.246 1.662.734.247 1.141.188 1.524-.081.416-.293.705-.772.906-1.745.206-.993.29-2.346.409-4.259.065-1.059.106-2.09.106-3.009 0-.918-.04-1.95-.106-3.009-.118-1.913-.203-3.266-.409-4.258-.201-.974-.49-1.452-.906-1.745-.383-.27-.79-.328-1.524-.081m-.479-1.422c1.017-.342 1.966-.357 2.866.276.866.61 1.276 1.527 1.512 2.668.23 1.11.32 2.571.433 4.408l.004.062A52 52 0 0 1 22.75 12a52 52 0 0 1-.11 3.102l-.003.061c-.113 1.837-.203 3.298-.433 4.408-.236 1.142-.646 2.06-1.512 2.669-.9.633-1.85.618-2.866.275-.944-.318-2.069-.959-3.438-1.74l-.071-.04a40 40 0 0 1-2.132-1.296 42 42 0 0 1-2.34-1.68l-.058-.043c-1.385-1.06-2.503-1.915-3.265-2.747C5.717 14.09 5.25 13.175 5.25 12s.467-2.09 1.272-2.969c.762-.831 1.88-1.687 3.265-2.746l.057-.044c.8-.611 1.6-1.192 2.34-1.68.65-.428 1.382-.867 2.133-1.295l.07-.04c1.37-.782 2.495-1.423 3.44-1.74M2 4.25a.75.75 0 0 1 .75.75v15a.75.75 0 0 1-1.5 0V5A.75.75 0 0 1 2 4.25" clip-rule="evenodd"/></svg>