<svg width="24" height="24" viewBox="0 0 24 24" fill="none" xmlns="http://www.w3.org/2000/svg">
<g opacity="0.5">
<path d="M19.9896 3.99115C18.4369 2.46996 16.3083 2.41193 15.2249 3.4733L11.5249 7.09827C11.229 7.38815 10.7541 7.38328 10.4643 7.0874C10.1744 6.79152 10.1793 6.31667 10.4751 6.02679L14.1752 2.40182C16.0111 0.603153 19.0889 1.00883 21.0393 2.91967C22.9925 4.8332 23.4177 7.87522 21.5679 9.68753L18.6607 12.5357C18.3648 12.8256 17.89 12.8208 17.6001 12.5249C17.3102 12.229 17.3151 11.7542 17.611 11.4643L20.5182 8.61605C21.5876 7.56832 21.5396 5.50967 19.9896 3.99115Z" fill="#1C274C"/>
<path d="M6.72756 12.506C7.00701 12.2003 6.9857 11.7259 6.67995 11.4464C6.37421 11.167 5.89981 11.1883 5.62036 11.494L4.3595 12.8735C2.63266 14.7628 3.00984 17.9268 4.86385 19.9552C6.72901 21.9958 9.73429 22.4595 11.5189 20.507L15.5536 16.0926C15.8331 15.7869 15.8117 15.3125 15.506 15.033C15.2003 14.7536 14.7259 14.7749 14.4464 15.0806L10.4117 19.495C9.41079 20.59 7.44839 20.5596 5.97104 18.9432C4.48253 17.3147 4.4081 15.0437 5.4667 13.8855L6.72756 12.506Z" fill="#1C274C"/>
</g>
<path d="M6.62424 3.58393C6.39448 3.23929 5.92882 3.14616 5.58418 3.37592C5.23953 3.60568 5.1464 4.07134 5.37617 4.41598L7.37617 7.41598C7.60593 7.76063 8.07158 7.85376 8.41623 7.624C8.76088 7.39423 8.85401 6.92858 8.62424 6.58393L6.62424 3.58393Z" fill="#1C274C"/>
<path d="M2.23737 7.28845C1.84442 7.15746 1.41968 7.36983 1.28869 7.76279C1.15771 8.15574 1.37008 8.58048 1.76303 8.71147L7.76303 10.7115C8.15599 10.8425 8.58073 10.6301 8.71172 10.2371C8.8427 9.84417 8.63033 9.41943 8.23737 9.28845L2.23737 7.28845Z" fill="#1C274C"/>
</svg>
