<svg xmlns="http://www.w3.org/2000/svg" fill="none" viewBox="0 0 24 24" width="1em" height="1em"><path fill="currentColor" fill-rule="evenodd" d="M6.116 4.333a7.3 7.3 0 0 0-1.222 3.983.75.75 0 0 1-1.5 0c0-1.822.62-3.545 1.477-4.82.43-.64.934-1.187 1.474-1.581.534-.39 1.153-.665 1.8-.665 1.564 0 2.749 1.112 3.504 2.89.756 1.78 1.173 4.396 1.173 7.86 0 3.378.412 5.762 1.054 7.273.641 1.51 1.42 1.977 2.124 1.977.222 0 .536-.1.915-.376.372-.272.76-.682 1.113-1.207a7.3 7.3 0 0 0 1.222-3.983.75.75 0 0 1 1.5 0c0 1.822-.619 3.544-1.477 4.82-.43.64-.933 1.187-1.474 1.581-.534.39-1.153.665-1.799.665-1.565 0-2.75-1.113-3.505-2.891s-1.173-4.395-1.173-7.86c0-3.377-.412-5.761-1.053-7.272-.642-1.51-1.421-1.977-2.125-1.977-.222 0-.536.1-.914.376-.373.272-.76.681-1.114 1.207M1.25 12a.75.75 0 0 1 .75-.75h7.5a.75.75 0 0 1 0 1.5H2a.75.75 0 0 1-.75-.75m12.5 0a.75.75 0 0 1 .75-.75H22a.75.75 0 0 1 0 1.5h-7.5a.75.75 0 0 1-.75-.75" clip-rule="evenodd"/></svg>