<svg xmlns="http://www.w3.org/2000/svg" fill="none" viewBox="0 0 24 24" width="1em" height="1em"><path fill="currentColor" fill-rule="evenodd" d="M6.237 4.711a.75.75 0 0 0-.474-1.423l-.555.185c-.57.19-1.055.352-1.439.528-.409.186-.767.416-1.051.775-.285.36-.426.76-.515 1.202-.083.414-.129.922-.183 1.521l-.698 7.67a5 5 0 0 0-.072.823C1.255 18.61 3.38 20.75 6 20.75a4.75 4.75 0 0 0 4.689-3.986l.219-.078a3.25 3.25 0 0 1 2.184 0l.22.078A4.75 4.75 0 0 0 18 20.75c2.62 0 4.744-2.14 4.75-4.758q0-.421-.073-.823l-.697-7.67c-.054-.6-.1-1.107-.183-1.521-.089-.441-.23-.842-.515-1.202s-.642-.589-1.051-.775c-.384-.176-.868-.337-1.439-.528l-.555-.185a.75.75 0 0 0-.474 1.423l.518.173c.617.206 1.024.343 1.326.48.286.131.414.236.5.344.085.107.157.256.219.564.065.326.105.753.164 1.401l.415 4.569a4.75 4.75 0 0 0-7.585 2.942 4.75 4.75 0 0 0-2.64 0 4.75 4.75 0 0 0-7.585-2.942l.048-.532.367-4.037c.059-.648.099-1.075.164-1.401.062-.308.134-.457.22-.564.085-.108.213-.213.499-.343.302-.138.709-.275 1.326-.48zM21.19 15.376l.06.656a3.25 3.25 0 1 1-.06-.656m-18.38 0-.06.656a3.25 3.25 0 1 0 .06-.656" clip-rule="evenodd"/></svg>