<svg width="24" height="24" viewBox="0 0 24 24" fill="none" xmlns="http://www.w3.org/2000/svg">
<path fill-rule="evenodd" clip-rule="evenodd" d="M14.1448 3.99439C13.5688 3.9272 13.0222 4.265 12.8247 4.81025C12.8031 4.86999 12.7777 4.98551 12.7639 5.24721C12.7502 5.50688 12.75 5.84777 12.75 6.34154C12.75 6.77986 12.7532 6.89907 12.7723 6.99883C12.83 7.30047 12.9968 7.5703 13.2408 7.75684C13.3215 7.81853 13.4266 7.8747 13.8187 8.07072L16.4521 9.38744C16.8938 9.60826 17.1988 9.76049 17.4371 9.8644C17.6774 9.96911 17.7921 9.99805 17.8552 10.0054C18.4312 10.0726 18.9778 9.7348 19.1753 9.18955C19.1969 9.12981 19.2223 9.01429 19.2361 8.75259C19.2498 8.49292 19.25 8.15203 19.25 7.65826C19.25 7.21994 19.2468 7.10073 19.2277 7.00097C19.17 6.69933 19.0032 6.4295 18.7592 6.24296C18.6785 6.18127 18.5734 6.1251 18.1813 5.92908L15.5479 4.61236C15.1062 4.39154 14.8012 4.23931 14.5629 4.1354C14.3226 4.03069 14.2079 4.00175 14.1448 3.99439ZM12.75 9.21012C12.8548 9.26599 12.9683 9.32268 13.0927 9.38478C13.1108 9.39385 13.1292 9.40304 13.1479 9.41236L15.8001 10.7385C16.2184 10.9476 16.5588 11.1178 16.8378 11.2394C17.119 11.362 17.3958 11.462 17.6814 11.4953C18.9486 11.6431 20.1511 10.9 20.5856 9.7004C20.6835 9.43006 20.7179 9.13777 20.734 8.83141C20.75 8.52756 20.75 8.14699 20.75 7.67933V7.65826C20.75 7.63743 20.75 7.61687 20.75 7.59657C20.7502 7.2488 20.7503 6.97678 20.701 6.71897C20.5739 6.05537 20.2071 5.46175 19.6703 5.05136C19.4618 4.89193 19.2184 4.77039 18.9073 4.61501C18.8892 4.60594 18.8708 4.59675 18.8521 4.58744L16.1999 3.26131C15.7816 3.05215 15.4412 2.88195 15.1622 2.76037C14.881 2.63777 14.6042 2.5378 14.3186 2.50449C13.0514 2.35667 11.8489 3.09985 11.4144 4.2994C11.3165 4.56974 11.2821 4.86203 11.266 5.16839C11.2538 5.39961 11.2509 5.67526 11.2502 5.9999L11.25 6.28325C11.25 6.29559 11.25 6.308 11.25 6.32047V6.34154C11.25 6.36237 11.25 6.38293 11.25 6.40323C11.25 6.44303 11.2499 6.48185 11.25 6.51976V14.5358C10.4003 13.7383 9.25721 13.2499 8 13.2499C5.37665 13.2499 3.25 15.3765 3.25 17.9999C3.25 20.6233 5.37665 22.7499 8 22.7499C10.6234 22.7499 12.75 20.6233 12.75 17.9999V9.21012ZM11.25 17.9999C11.25 16.205 9.79493 14.7499 8 14.7499C6.20507 14.7499 4.75 16.205 4.75 17.9999C4.75 19.7948 6.20507 21.2499 8 21.2499C9.79493 21.2499 11.25 19.7948 11.25 17.9999Z" fill="#1C274C"/>
</svg>
