<svg xmlns="http://www.w3.org/2000/svg" fill="none" viewBox="0 0 24 24" width="1em" height="1em"><path stroke="currentColor" stroke-linecap="round" stroke-width="1.5" d="M9 9h6m-3 6V9"/><path stroke="currentColor" stroke-width="1.5" d="M6 4a2 2 0 1 1-4 0 2 2 0 0 1 4 0Zm0 16a2 2 0 1 1-4 0 2 2 0 0 1 4 0ZM22 4a2 2 0 1 1-4 0 2 2 0 0 1 4 0Zm0 16a2 2 0 1 1-4 0 2 2 0 0 1 4 0Z"/><path stroke="currentColor" stroke-linecap="round" stroke-width="1.5" d="M18 4H6m14 14v-6m0-6v2m-2 12h-6m-6 0h2M4 6v12"/></svg>