<svg width="24" height="24" viewBox="0 0 24 24" fill="none" xmlns="http://www.w3.org/2000/svg">
<path fill-rule="evenodd" clip-rule="evenodd" d="M14.9362 2.99461C12.9929 2.66846 11.007 2.66846 9.0637 2.99461L8.66614 3.06134C6.80885 3.37306 5.55266 5.04814 5.77572 6.84512L5.79374 6.99034C5.8106 7.12617 5.93452 7.25 6.10712 7.25H8.98398C8.99409 7.24979 9.00423 7.24979 9.0144 7.25H14.9855C14.9956 7.24979 15.0058 7.24979 15.0159 7.25H17.8927C18.0653 7.25 18.1893 7.12616 18.2061 6.99034L18.2241 6.84512L18.9684 6.93751L18.2241 6.84512C18.4472 5.04814 17.191 3.37306 15.3337 3.06134L14.9362 2.99461ZM15.9277 8.75H17.8927C18.7976 8.75 19.5816 8.08644 19.6947 7.17512L18.9504 7.08273L19.6947 7.17511L19.7127 7.0299C20.038 4.409 18.205 2.02226 15.582 1.58203L15.1844 1.5153C13.0768 1.16157 10.9231 1.16157 8.81542 1.5153L8.41786 1.58203C5.79484 2.02226 3.96181 4.40901 4.28714 7.0299L4.30517 7.17512C4.41829 8.08644 5.20228 8.75 6.10712 8.75H8.07219L6.40111 16.5484C6.30621 16.674 6.24993 16.8304 6.24993 17C6.24993 17.0574 6.25637 17.1132 6.26857 17.1669L5.26658 21.8429C5.17979 22.2479 5.43776 22.6466 5.84278 22.7334C6.2478 22.8201 6.64649 22.5622 6.73328 22.1571L7.67767 17.75H16.3222L17.2666 22.1571C17.3534 22.5622 17.7521 22.8201 18.1571 22.7334C18.5621 22.6466 18.8201 22.2479 18.7333 21.8429L17.7313 17.1669C17.7435 17.1132 17.7499 17.0574 17.7499 17C17.7499 16.8304 17.6936 16.674 17.5987 16.5484L15.9277 8.75ZM14.3936 8.75H9.60624L7.9991 16.25H16.0008L14.3936 8.75Z" fill="#1C274C"/>
</svg>
