<svg xmlns="http://www.w3.org/2000/svg" fill="none" viewBox="0 0 24 24" width="1em" height="1em"><path fill="currentColor" fill-rule="evenodd" d="M5.25 6a4.75 4.75 0 1 1 9.5 0 4.75 4.75 0 0 1-9.5 0M10 2.75a3.25 3.25 0 1 0 0 6.5 3.25 3.25 0 0 0 0-6.5M3.975 13.664c1.58-.888 3.711-1.414 6.025-1.414 2.313 0 4.445.526 6.024 1.414 1.556.876 2.726 2.202 2.726 3.836v.102c.001 1.162.003 2.62-1.276 3.662-.63.512-1.51.877-2.7 1.117-1.193.242-2.748.369-4.774.369s-3.58-.127-4.774-.369c-1.19-.24-2.07-.605-2.7-1.117-1.279-1.042-1.277-2.5-1.276-3.662V17.5c0-1.634 1.17-2.96 2.725-3.836m.736 1.308c-1.34.753-1.961 1.677-1.961 2.528 0 1.308.04 2.044.723 2.6.371.302.99.597 2.05.811 1.058.214 2.503.339 4.477.339s3.42-.125 4.476-.339c1.06-.214 1.68-.509 2.05-.81.684-.557.724-1.293.724-2.601 0-.851-.622-1.775-1.961-2.528-1.316-.74-3.184-1.222-5.29-1.222-2.104 0-3.972.482-5.288 1.222M22.75 9.697c0-1.097-.563-1.996-1.496-2.323-.73-.256-1.538-.111-2.254.36-.716-.471-1.525-.616-2.254-.36-.934.327-1.496 1.226-1.496 2.323 0 .77.441 1.45.875 1.952.453.525 1.014.984 1.474 1.321l.07.052c.352.26.752.556 1.33.556.58 0 .98-.296 1.331-.556l.07-.052c.46-.337 1.022-.796 1.475-1.32.434-.502.875-1.183.875-1.953m-3.231-.464c.525-.503.989-.531 1.239-.443.23.08.492.33.492.907 0 .214-.141.545-.51.971-.348.403-.809.786-1.227 1.093a4 4 0 0 1-.42.288c-.054.029-.069.029-.093.029s-.04 0-.094-.03a4 4 0 0 1-.42-.287c-.418-.307-.878-.69-1.227-1.093-.368-.426-.51-.757-.51-.971 0-.576.264-.827.493-.907.25-.088.714-.06 1.24.443a.75.75 0 0 0 1.037 0" clip-rule="evenodd"/></svg>