<svg width="24" height="24" viewBox="0 0 24 24" fill="none" xmlns="http://www.w3.org/2000/svg">
<path fill-rule="evenodd" clip-rule="evenodd" d="M11.3023 13.7368H12.6977H18.5116C20.0529 13.7368 21.3023 12.5351 21.3023 11.0526C21.3023 9.57018 20.0529 8.36842 18.5116 8.36842C20.0529 8.36842 21.3023 7.16666 21.3023 5.68421C21.3023 4.20176 20.0529 3 18.5116 3H5.48839C3.94713 3 2.69769 4.20176 2.69769 5.68421C2.69769 7.16666 3.94713 8.36842 5.48839 8.36842C3.94713 8.36842 2.69769 9.57018 2.69769 11.0526C2.69769 12.5351 3.94713 13.7368 5.48839 13.7368H11.3023ZM12.9303 5.01316C12.5449 5.01316 12.2326 5.3136 12.2326 5.68421C12.2326 6.05482 12.5449 6.35526 12.9303 6.35526H18.5116C18.897 6.35526 19.2093 6.05482 19.2093 5.68421C19.2093 5.3136 18.897 5.01316 18.5116 5.01316H12.9303ZM12.9303 10.3816C12.5449 10.3816 12.2326 10.682 12.2326 11.0526C12.2326 11.4232 12.5449 11.7237 12.9303 11.7237H18.5116C18.897 11.7237 19.2093 11.4232 19.2093 11.0526C19.2093 10.682 18.897 10.3816 18.5116 10.3816H12.9303ZM7.34886 5.68421C7.34886 6.17836 6.93238 6.57895 6.41862 6.57895C5.90487 6.57895 5.48839 6.17836 5.48839 5.68421C5.48839 5.19006 5.90487 4.78947 6.41862 4.78947C6.93238 4.78947 7.34886 5.19006 7.34886 5.68421ZM7.34886 11.0526C7.34886 11.5468 6.93238 11.9474 6.41862 11.9474C5.90487 11.9474 5.48839 11.5468 5.48839 11.0526C5.48839 10.5585 5.90487 10.1579 6.41862 10.1579C6.93238 10.1579 7.34886 10.5585 7.34886 11.0526Z" fill="#1C274C"/>
<path opacity="0.6" d="M22 18.211C22 17.8404 21.6876 17.5399 21.3023 17.5399H13.7252C13.5364 17.0914 13.164 16.7332 12.6977 16.5516V13.7373H11.3023V16.5516C10.836 16.7332 10.4636 17.0914 10.2748 17.5399H2.69767C2.31236 17.5399 2 17.8404 2 18.211C2 18.5816 2.31236 18.882 2.69767 18.882H10.2748C10.5508 19.5378 11.2192 20.0005 12 20.0005C12.7808 20.0005 13.4492 19.5378 13.7252 18.882H21.3023C21.6876 18.882 22 18.5816 22 18.211Z" fill="#1C274C"/>
</svg>
