<svg xmlns="http://www.w3.org/2000/svg" fill="none" viewBox="0 0 24 24" width="1em" height="1em"><circle cx="12" cy="6" r="4" fill="currentColor"/><path fill="currentColor" fill-rule="evenodd" d="M17.47 16.97a.75.75 0 0 1 1.06 0l.47.47.47-.47a.75.75 0 1 1 1.06 1.06l-.47.47.47.47a.75.75 0 1 1-1.06 1.06l-.47-.47-.47.47a.75.75 0 1 1-1.06-1.06l.47-.47-.47-.47a.75.75 0 0 1 0-1.06" clip-rule="evenodd"/><path fill="currentColor" d="M18.314 15.272a2.251 2.251 0 0 0-2.33 3.228 2.26 2.26 0 0 0-.08 1.821c-1.115.43-2.458.68-3.904.68-3.866 0-7-1.79-7-4s3.134-4 7-4c2.782 0 5.185.928 6.314 2.27"/></svg>