<svg width="24" height="24" viewBox="0 0 24 24" fill="none" xmlns="http://www.w3.org/2000/svg">
<path fill-rule="evenodd" clip-rule="evenodd" d="M11.9999 1.25C9.37657 1.25 7.24992 3.37665 7.24992 6C7.24992 8.62335 9.37657 10.75 11.9999 10.75C14.6233 10.75 16.7499 8.62335 16.7499 6C16.7499 3.37665 14.6233 1.25 11.9999 1.25ZM8.74992 6C8.74992 4.20507 10.205 2.75 11.9999 2.75C13.7948 2.75 15.2499 4.20507 15.2499 6C15.2499 7.79493 13.7948 9.25 11.9999 9.25C10.205 9.25 8.74992 7.79493 8.74992 6Z" fill="#1C274C"/>
<path d="M5.74992 17C5.74992 16.2807 6.26693 15.483 7.42228 14.8228C8.55641 14.1747 10.1733 13.75 11.9999 13.75C13.2005 13.75 14.316 13.9337 15.2645 14.2472C15.6578 14.3772 16.082 14.1638 16.212 13.7705C16.342 13.3772 16.1286 12.953 15.7353 12.823C14.6247 12.4559 13.3493 12.25 11.9999 12.25C9.96058 12.25 8.07744 12.7208 6.67807 13.5204C5.29992 14.3079 4.24992 15.5101 4.24992 17L4.24984 17.0992C4.24859 18.125 4.24698 19.4551 5.39685 20.4063C5.96385 20.8754 6.75152 21.2043 7.80199 21.4203C8.8554 21.6369 10.2237 21.75 11.9999 21.75C12.3569 21.75 12.6969 21.7454 13.0208 21.7364C13.4349 21.7249 13.7612 21.3799 13.7496 20.9658C13.7381 20.5518 13.3931 20.2255 12.979 20.237C12.6702 20.2456 12.3441 20.25 11.9999 20.25C10.2761 20.25 9.01943 20.1392 8.1041 19.951C7.18582 19.7622 6.66099 19.5053 6.35299 19.2505C5.79029 18.785 5.74992 18.1711 5.74992 17Z" fill="#1C274C"/>
<path fill-rule="evenodd" clip-rule="evenodd" d="M17.9999 15.25C15.9289 15.25 14.2499 16.9289 14.2499 19C14.2499 21.0711 15.9289 22.75 17.9999 22.75C20.071 22.75 21.7499 21.0711 21.7499 19C21.7499 16.9289 20.071 15.25 17.9999 15.25ZM18.97 16.9693L15.9692 19.97C15.8286 19.6763 15.7499 19.3473 15.7499 19C15.7499 17.7574 16.7573 16.75 17.9999 16.75C18.3473 16.75 18.6763 16.8287 18.97 16.9693ZM17.0298 21.0307C17.3236 21.1713 17.6525 21.25 17.9999 21.25C19.2426 21.25 20.2499 20.2426 20.2499 19C20.2499 18.6526 20.1712 18.3237 20.0306 18.0299L17.0298 21.0307Z" fill="#1C274C"/>
</svg>
