<svg width="24" height="24" viewBox="0 0 24 24" fill="none" xmlns="http://www.w3.org/2000/svg">
<path fill-rule="evenodd" clip-rule="evenodd" d="M12.4803 2.76056C13.2315 2.30895 14.208 2.28694 15.0418 2.88994C17.7027 4.81433 20.75 8.24467 20.75 13.1111C20.75 16.9174 19.1146 19.3652 17.0325 20.8349C15.7533 21.7379 14.3232 22.2609 13.0331 22.5257C12.5577 22.6872 12.1 22.75 11.7333 22.75C11.6306 22.75 11.521 22.746 11.4058 22.7374C11.242 22.7459 11.0843 22.75 10.9333 22.75C9.47245 22.75 7.31363 22.2658 5.50409 20.806C3.6625 19.3203 2.25 16.8771 2.25 13.1111C2.25 10.0344 3.87536 7.96517 5.40507 6.79823C6.04192 6.31241 6.80509 6.30432 7.40898 6.63403C7.99302 6.95292 8.40231 7.56758 8.47627 8.28955L8.5621 9.12738C8.59508 9.4494 8.75974 9.71668 8.93177 9.8468C9.0125 9.90786 9.07802 9.92703 9.12163 9.93031C9.15843 9.93308 9.21562 9.92812 9.30063 9.87287C9.95369 9.44846 10.4496 8.68503 10.7833 7.78661C11.1138 6.8965 11.25 5.9666 11.25 5.33333V5.0097C11.25 4.03693 11.7444 3.20291 12.4803 2.76056ZM12.6314 21.0765C12.2057 21.1595 11.7992 21.2101 11.4272 21.2338C10.9433 21.1848 10.3335 21.0196 9.82415 20.6703C9.23942 20.2694 8.75 19.6064 8.75 18.4444C8.75 17.0422 9.61756 15.9771 10.5398 15.2949C10.5423 15.3051 10.5441 15.3178 10.5441 15.3333V15.3443C10.5441 15.572 10.5441 15.9165 10.587 16.275C10.6296 16.6315 10.7214 17.0698 10.9474 17.4553C11.1049 17.7239 11.3471 17.9512 11.6758 18.0481C11.9989 18.1432 12.3068 18.0833 12.5468 17.9699C13.0028 17.7545 13.3288 17.3047 13.4657 16.8302C13.8778 17.1659 14.25 17.6907 14.25 18.4444C14.25 19.6479 13.8025 20.3145 13.3124 20.6986C13.0975 20.867 12.8624 20.99 12.6314 21.0765ZM15.5176 20.0225C15.7384 19.8964 15.9557 19.759 16.1675 19.6095C17.8631 18.4126 19.25 16.4159 19.25 13.1111C19.25 8.92386 16.6279 5.88819 14.1627 4.10539C13.838 3.87057 13.5133 3.88972 13.2531 4.04616C12.9775 4.21185 12.75 4.55277 12.75 5.0097V5.33333C12.75 6.14193 12.5831 7.24888 12.1894 8.30883C11.7988 9.36047 11.1494 10.4603 10.118 11.1306C9.38388 11.6077 8.59212 11.4706 8.02694 11.0432C7.49344 10.6397 7.14144 9.97853 7.0699 9.28024L6.98408 8.44241C6.95826 8.19036 6.82167 8.02238 6.69016 7.95058C6.5785 7.88962 6.45645 7.88281 6.31484 7.99084C5.04758 8.95757 3.75 10.6246 3.75 13.1111C3.75 16.4562 4.98195 18.4575 6.44591 19.6385C6.84345 19.9592 7.263 20.2232 7.68701 20.4381C7.41384 19.8887 7.25 19.2282 7.25 18.4444C7.25 16.341 8.57017 14.8717 9.69806 14.0521C10.2109 13.6795 10.8273 13.6906 11.2979 13.9754C11.7522 14.2503 12.0441 14.7589 12.0441 15.3333C12.0441 15.5681 12.0448 15.8334 12.0763 16.0969C12.0815 16.14 12.0873 16.1814 12.0938 16.221C12.254 15.8525 12.5484 15.5666 12.897 15.4155C13.3152 15.2342 13.847 15.2378 14.2912 15.5719C14.9907 16.0979 15.75 17.0423 15.75 18.4444C15.75 19.0382 15.666 19.5627 15.5176 20.0225Z" fill="#1C274C"/>
</svg>
