<svg width="24" height="24" viewBox="0 0 24 24" fill="none" xmlns="http://www.w3.org/2000/svg">
<path fill-rule="evenodd" clip-rule="evenodd" d="M16.2606 1.87421C16.3301 1.46587 16.7174 1.19115 17.1258 1.26062C20.3254 1.80494 22.75 4.62108 22.75 8C22.75 8.27746 22.5968 8.53226 22.3518 8.66239C22.1067 8.79253 21.8098 8.77674 21.58 8.62134L20.08 7.60732C19.7368 7.37534 19.6467 6.9091 19.8787 6.56594C20.1106 6.22278 20.5769 6.13265 20.92 6.36463L21.0196 6.43195C20.4426 4.52259 18.8399 3.07378 16.8742 2.73938C16.4659 2.66991 16.1912 2.28256 16.2606 1.87421ZM7.94513 1.25H9.05488C10.4225 1.24998 11.5248 1.24996 12.3918 1.36652C13.2919 1.48754 14.0497 1.74643 14.6517 2.34835C15.2536 2.95026 15.5125 3.70814 15.6335 4.60825C15.75 5.47521 15.75 6.57754 15.75 7.94513V16.0549C15.75 17.4225 15.75 18.5248 15.6335 19.3918C15.5125 20.2919 15.2536 21.0497 14.6517 21.6516C14.0497 22.2536 13.2919 22.5125 12.3918 22.6335C11.5248 22.75 10.4225 22.75 9.05487 22.75H7.94513C6.57754 22.75 5.47522 22.75 4.60825 22.6335C3.70814 22.5125 2.95027 22.2536 2.34835 21.6516C1.74643 21.0497 1.48754 20.2919 1.36652 19.3918C1.24996 18.5248 1.24998 17.4225 1.25 16.0549V7.94512C1.24998 6.57753 1.24996 5.47521 1.36652 4.60825C1.48754 3.70814 1.74643 2.95026 2.34835 2.34835C2.95027 1.74643 3.70814 1.48754 4.60825 1.36652C5.47522 1.24996 6.57754 1.24998 7.94513 1.25ZM4.80812 2.85315C4.07435 2.9518 3.68577 3.13224 3.40901 3.40901C3.13225 3.68577 2.9518 4.07434 2.85315 4.80812C2.75159 5.56347 2.75 6.56458 2.75 8V16C2.75 17.4354 2.75159 18.4365 2.85315 19.1919C2.9518 19.9257 3.13225 20.3142 3.40901 20.591C3.68577 20.8678 4.07435 21.0482 4.80812 21.1469C5.56347 21.2484 6.56458 21.25 8 21.25H9C10.4354 21.25 11.4365 21.2484 12.1919 21.1469C12.9257 21.0482 13.3142 20.8678 13.591 20.591C13.8678 20.3142 14.0482 19.9257 14.1469 19.1919C14.2484 18.4365 14.25 17.4354 14.25 16V8C14.25 6.56458 14.2484 5.56347 14.1469 4.80812C14.0482 4.07434 13.8678 3.68577 13.591 3.40901C13.3142 3.13224 12.9257 2.9518 12.1919 2.85315C11.4365 2.75159 10.4354 2.75 9 2.75H8C6.56459 2.75 5.56347 2.75159 4.80812 2.85315ZM5.25 5C5.25 4.58578 5.58579 4.25 6 4.25H11C11.4142 4.25 11.75 4.58578 11.75 5C11.75 5.41421 11.4142 5.75 11 5.75H6C5.58579 5.75 5.25 5.41421 5.25 5ZM16.7501 9.99567C16.7561 9.5815 17.0967 9.2506 17.5109 9.25659C19.3184 9.28274 20.6972 9.39389 21.6517 10.3483C22.2536 10.9503 22.5125 11.7081 22.6335 12.6082C22.75 13.4752 22.75 14.5775 22.75 15.9451V16.0549C22.75 17.4225 22.75 18.5248 22.6335 19.3917C22.5125 20.2919 22.2536 21.0497 21.6517 21.6516C20.6972 22.6061 19.3184 22.7173 17.5109 22.7434C17.0967 22.7494 16.7561 22.4185 16.7501 22.0043C16.7441 21.5902 17.075 21.2495 17.4892 21.2436C19.4009 21.2159 20.1308 21.0512 20.591 20.591C20.8678 20.3142 21.0482 19.9257 21.1469 19.1919C21.2484 18.4365 21.25 17.4354 21.25 16C21.25 14.5646 21.2484 13.5635 21.1469 12.8081C21.0482 12.0743 20.8678 11.6858 20.591 11.409C20.1308 10.9488 19.4009 10.7841 17.4892 10.7564C17.075 10.7504 16.7441 10.4098 16.7501 9.99567ZM19 13.25C19.4142 13.25 19.75 13.5858 19.75 14V18C19.75 18.4142 19.4142 18.75 19 18.75C18.5858 18.75 18.25 18.4142 18.25 18V14C18.25 13.5858 18.5858 13.25 19 13.25ZM8.5 16.75C8.08579 16.75 7.75 17.0858 7.75 17.5C7.75 17.9142 8.08579 18.25 8.5 18.25C8.91421 18.25 9.25 17.9142 9.25 17.5C9.25 17.0858 8.91421 16.75 8.5 16.75ZM6.25 17.5C6.25 16.2574 7.25736 15.25 8.5 15.25C9.74264 15.25 10.75 16.2574 10.75 17.5C10.75 18.7426 9.74264 19.75 8.5 19.75C7.25736 19.75 6.25 18.7426 6.25 17.5Z" fill="#1C274C"/>
</svg>
