<svg width="24" height="24" viewBox="0 0 24 24" fill="none" xmlns="http://www.w3.org/2000/svg">
<path fill-rule="evenodd" clip-rule="evenodd" d="M16.8773 2.59819C16.8694 2.61247 16.8611 2.62755 16.8522 2.64355L16.7757 2.78184L17.6421 3.30377L17.7204 3.16227C17.7287 3.14739 17.7364 3.13337 17.7437 3.1201C17.7308 3.11227 17.717 3.104 17.7025 3.09523L16.9218 2.62493C16.9061 2.61549 16.8913 2.6066 16.8773 2.59819ZM17.9306 3.23887C17.9306 3.23887 17.9303 3.23864 17.9298 3.23818L17.9306 3.23887ZM17.2048 4.79145L15.733 3.90486L13.0682 5.21455C12.9831 5.25639 12.9487 5.27332 12.9171 5.28956C11.9498 5.78622 11.199 6.64358 10.8073 7.68705L10.8669 7.65722C12.0721 7.05466 13.5176 7.2078 14.5697 8.04949C15.0873 8.46363 15.7796 8.5871 16.4086 8.37746L17.4637 8.02576C17.4614 7.99569 17.4583 7.95636 17.4532 7.89253L17.2048 4.79145ZM18.962 8.78997C19.0062 8.65694 19.0135 8.51058 18.9762 8.36662C18.9761 8.23565 18.9719 8.10429 18.9636 7.97271C18.9603 7.92145 18.956 7.86825 18.949 7.78018L18.6873 4.5131L19.0424 3.87126C19.0996 3.768 19.1619 3.65549 19.2081 3.55347C19.2606 3.43754 19.3192 3.27956 19.3279 3.08677C19.3395 2.82934 19.2713 2.5746 19.1326 2.35743C19.0287 2.19479 18.899 2.08723 18.7956 2.01303C18.7047 1.94773 18.5945 1.88139 18.4934 1.82051L18.4765 1.81035L17.678 1.32934C17.5697 1.26408 17.4529 1.19369 17.3471 1.14132C17.2278 1.08229 17.0627 1.01464 16.859 1.00243C16.5892 0.986244 16.3215 1.05793 16.0959 1.20675C15.9256 1.31908 15.8163 1.4602 15.7425 1.57093C15.677 1.66919 15.611 1.78852 15.5498 1.89915L15.2273 2.48204L12.3997 3.87174C12.3235 3.90918 12.2766 3.93221 12.2319 3.9552C10.606 4.79009 9.46047 6.35888 9.11562 8.18814C9.10611 8.23859 9.09709 8.29117 9.08217 8.37816L9.08094 8.38536C9.06501 8.47823 9.05798 8.51915 9.05076 8.55865C8.78456 10.0143 8.0939 11.3428 7.07835 12.3646C7.05083 12.3922 7.02207 12.4205 6.95619 12.4853L6.1518 13.2762C5.64777 13.7718 5.24146 14.1713 4.93768 14.515C4.62759 14.8658 4.37758 15.2089 4.22734 15.6034C3.82618 16.6567 3.96118 17.8504 4.59068 18.7835C4.82679 19.1335 5.14871 19.4091 5.5299 19.6772C5.90313 19.9398 6.38864 20.2323 6.99012 20.5946L7.70314 21.0241C8.30438 21.3863 8.78997 21.6788 9.19477 21.8849C9.60683 22.0948 10.0015 22.2509 10.4202 22.2902C11.5377 22.3952 12.6191 21.9052 13.3001 21.0064C13.5538 20.6716 13.7127 20.2748 13.8478 19.8225C13.9808 19.3775 14.109 18.8118 14.2685 18.1076L14.5226 16.9864C14.5434 16.8946 14.5525 16.8542 14.5618 16.8152C14.9043 15.3777 15.6637 14.0918 16.7309 13.1305C16.7598 13.1045 16.79 13.0779 16.8592 13.017L16.8647 13.0122C16.9293 12.9554 16.9687 12.9206 17.0062 12.8865C18.164 11.8316 18.8564 10.355 18.962 8.78997ZM17.2962 9.66271L16.8829 9.80049C15.7713 10.171 14.5476 9.95278 13.6326 9.2208C13.0374 8.7446 12.2196 8.65796 11.5378 8.99886L10.3518 9.59183C9.95287 11.0414 9.19399 12.3638 8.14225 13.422C8.10794 13.4565 8.07275 13.4911 8.01157 13.5512L7.22343 14.3262C6.69478 14.846 6.32638 15.2088 6.06157 15.5084C5.79909 15.8054 5.68537 15.9895 5.62912 16.1372C5.4006 16.7373 5.47929 17.4186 5.83417 17.9446C5.92087 18.0732 6.07138 18.2242 6.39293 18.4504C6.71743 18.6787 7.15695 18.9439 7.78835 19.3243L8.45269 19.7245C9.08421 20.1049 9.52399 20.3693 9.87538 20.5482C10.225 20.7263 10.4206 20.7837 10.5605 20.7968C11.1463 20.8518 11.7281 20.5973 12.1045 20.1005C12.1976 19.9776 12.2944 19.7821 12.4106 19.3931C12.5274 19.0025 12.6447 18.4865 12.8117 17.7495L13.0607 16.6504C13.0801 16.5646 13.0912 16.5156 13.1027 16.4676C13.514 14.741 14.4286 13.1855 15.727 12.016C15.763 11.9836 15.7999 11.9511 15.8638 11.8949L15.8682 11.891C15.94 11.8278 15.9692 11.802 15.9959 11.7777C16.6179 11.2111 17.065 10.4751 17.2962 9.66271Z" fill="#1C274C"/>
</svg>
