<svg width="24" height="24" viewBox="0 0 24 24" fill="none" xmlns="http://www.w3.org/2000/svg">
<path fill-rule="evenodd" clip-rule="evenodd" d="M4.41389 17.8591C4.77171 17.6504 5.23093 17.7713 5.43959 18.1291C6.26646 19.5471 7.53055 20.6194 9.08943 21.3151C9.46768 21.4839 9.63745 21.9274 9.46864 22.3057C9.29982 22.6839 8.85633 22.8537 8.47808 22.6849C6.66657 21.8764 5.14677 20.6047 4.14382 18.8848C3.93516 18.5269 4.05607 18.0677 4.41389 17.8591Z" fill="#1C274C"/>
<path fill-rule="evenodd" clip-rule="evenodd" d="M18.9059 3.92197C17.892 2.88649 16.446 2.50455 15.0305 2.90733C14.6321 3.02069 14.2172 2.78962 14.1038 2.39122C13.9905 1.99282 14.2216 1.57795 14.62 1.46459C16.5581 0.913103 18.5746 1.43962 19.9776 2.87253C20.2674 3.16849 20.2624 3.64334 19.9665 3.93313C19.6705 4.22293 19.1957 4.21793 18.9059 3.92197Z" fill="#1C274C"/>
<path fill-rule="evenodd" clip-rule="evenodd" d="M11.1902 3.30842C10.9762 2.94134 10.3524 2.71873 9.7187 3.08088C9.08735 3.44171 8.9763 4.07775 9.18664 4.43843L11.7123 8.76955C11.921 9.12737 11.8 9.58659 11.4422 9.79525C11.0844 10.0039 10.6252 9.88299 10.4165 9.52517L7.04897 3.75035C6.83492 3.38327 6.21111 3.16066 5.57743 3.52281C4.94608 3.88364 4.83503 4.51968 5.04537 4.88036L8.83385 11.377C9.04251 11.7349 8.92159 12.1941 8.56377 12.4027C8.20596 12.6114 7.74673 12.4905 7.53807 12.1327L5.8543 9.24525C5.64025 8.87818 5.01644 8.65556 4.38276 9.01771C3.75141 9.37854 3.64036 10.0146 3.8507 10.3753L7.63918 16.8719C9.24812 19.631 13.2185 20.5264 16.5855 18.6021C19.9501 16.6792 21.1462 12.8377 19.5409 10.085L17.0153 5.7539C16.8012 5.38682 16.1774 5.16421 15.5437 5.52636C14.9124 5.88719 14.8013 6.52323 15.0117 6.88392L16.6954 9.77133C16.7962 9.94414 16.8238 10.15 16.772 10.3433C16.7202 10.5365 16.5934 10.701 16.4197 10.8003C14.8772 11.6818 14.4045 13.3864 15.0798 14.5444C15.2885 14.9022 15.1676 15.3614 14.8098 15.5701C14.4519 15.7787 13.9927 15.6578 13.7841 15.3C12.8713 13.7348 13.2401 11.8502 14.419 10.5181C14.7486 10.1457 14.8615 9.60399 14.6109 9.17441L11.1902 3.30842Z" fill="#1C274C"/>
</svg>
