<svg width="24" height="24" viewBox="0 0 24 24" fill="none" xmlns="http://www.w3.org/2000/svg">
<path fill-rule="evenodd" clip-rule="evenodd" d="M11.1902 3.3084C10.9762 2.94132 10.3524 2.71871 9.7187 3.08086C9.08735 3.44169 8.9763 4.07773 9.18664 4.43842L11.7123 8.76954C11.921 9.12735 11.8 9.58657 11.4422 9.79523C11.0844 10.0039 10.6252 9.88298 10.4165 9.52516L7.04897 3.75033C6.83492 3.38326 6.21111 3.16064 5.57743 3.52279C4.94608 3.88362 4.83503 4.51966 5.04537 4.88035L8.83385 11.377C9.04251 11.7348 8.92159 12.1941 8.56377 12.4027C8.20596 12.6114 7.74673 12.4905 7.53807 12.1326L5.8543 9.24523C5.64025 8.87816 5.01644 8.65554 4.38276 9.01769C3.75141 9.37852 3.64036 10.0146 3.8507 10.3752L7.63918 16.8719C9.24812 19.631 13.2185 20.5264 16.5855 18.6021C19.9501 16.6792 21.1462 12.8377 19.5409 10.085L17.0153 5.75388C16.8012 5.38681 16.1774 5.16419 15.5437 5.52634C14.9124 5.88717 14.8013 6.52321 15.0117 6.8839L16.6954 9.77131C16.7962 9.94412 16.8238 10.15 16.772 10.3433C16.7202 10.5365 16.5934 10.701 16.4197 10.8003C14.8772 11.6818 14.4045 13.3863 15.0798 14.5444C15.2885 14.9022 15.1676 15.3614 14.8098 15.5701C14.4519 15.7787 13.9927 15.6578 13.7841 15.3C12.8713 13.7348 13.2401 11.8502 14.419 10.5181C14.7486 10.1457 14.8615 9.60397 14.6109 9.17439L11.1902 3.3084Z" fill="#1C274C"/>
<g opacity="0.5">
<path fill-rule="evenodd" clip-rule="evenodd" d="M4.41382 17.859C4.77163 17.6504 5.23086 17.7713 5.43951 18.1291C6.26638 19.5471 7.53047 20.6193 9.08935 21.3151C9.4676 21.4839 9.63738 21.9274 9.46856 22.3057C9.29974 22.6839 8.85625 22.8537 8.478 22.6849C6.66649 21.8764 5.14669 20.6046 4.14374 18.8847C3.93508 18.5269 4.056 18.0677 4.41382 17.859Z" fill="#1C274C"/>
<path fill-rule="evenodd" clip-rule="evenodd" d="M18.9058 3.92194C17.8919 2.88646 16.4459 2.50452 15.0304 2.9073C14.632 3.02066 14.2171 2.78959 14.1038 2.39119C13.9904 1.99279 14.2215 1.57792 14.6199 1.46456C16.5581 0.913072 18.5745 1.43959 19.9776 2.8725C20.2674 3.16846 20.2624 3.64331 19.9664 3.9331C19.6704 4.2229 19.1956 4.2179 18.9058 3.92194Z" fill="#1C274C"/>
</g>
</svg>
