<svg xmlns="http://www.w3.org/2000/svg" fill="none" viewBox="0 0 24 24" width="1em" height="1em"><path fill="currentColor" fill-rule="evenodd" d="M9.005 7.542h5.99c3.037 0 4.556 0 5.409.987s.652 2.511.25 5.56l-.38 2.892c-.315 2.391-.472 3.587-1.28 4.303-.807.716-1.998.716-4.38.716H9.386c-2.382 0-3.573 0-4.38-.716-.808-.716-.965-1.912-1.28-4.303l-.38-2.892c-.402-3.049-.603-4.573.25-5.56s2.372-.987 5.41-.987M8.25 18a.75.75 0 0 1 .75-.75h6a.75.75 0 0 1 0 1.5H9a.75.75 0 0 1-.75-.75" clip-rule="evenodd"/><path fill="currentColor" d="M6.88 4.723c-1.252 0-2.278.84-2.62 1.954l-.021.07c.358-.12.731-.2 1.109-.253.972-.139 2.2-.139 3.628-.139h6.203c1.427 0 2.656 0 3.629.139.377.054.75.132 1.108.253l-.02-.07c-.343-1.114-1.369-1.954-2.62-1.954z" opacity=".7"/><path fill="currentColor" d="M8.859 2h6.282c.21 0 .37 0 .51.015a2.62 2.62 0 0 1 2.16 1.672H6.19a2.62 2.62 0 0 1 2.16-1.672C8.49 2 8.65 2 8.858 2" opacity=".4"/></svg>