<svg xmlns="http://www.w3.org/2000/svg" fill="none" viewBox="0 0 24 24" width="1em" height="1em"><path stroke="currentColor" stroke-width="1.5" d="M2.906 13.793c-.422-3.164-.633-4.745.263-5.77C4.066 7 5.662 7 8.853 7h6.294c3.191 0 4.787 0 5.684 1.024.896 1.024.685 2.605.263 5.769l-.4 3c-.33 2.48-.496 3.721-1.344 4.464s-2.1.743-4.603.743H9.253C6.75 22 5.5 22 4.65 21.257s-1.013-1.983-1.344-4.464z"/><path stroke="currentColor" stroke-width="1.5" d="M19.562 7a2.132 2.132 0 0 0-2.1-2.5H6.538a2.132 2.132 0 0 0-2.1 2.5M17.5 4.5c.028-.26.043-.389.043-.496a2 2 0 0 0-1.787-1.993C15.65 2 15.52 2 15.26 2H8.74c-.26 0-.39 0-.497.011a2 2 0 0 0-1.787 1.993c0 .107.015.237.043.496" opacity=".5"/><path stroke="currentColor" stroke-linecap="round" stroke-width="1.5" d="M15 18H9"/></svg>