<svg xmlns="http://www.w3.org/2000/svg" fill="none" viewBox="0 0 24 24" width="1em" height="1em"><path fill="currentColor" fill-rule="evenodd" d="M8.418 3.25c.28-.59.884-1 1.582-1h4c.698 0 1.301.41 1.582 1 .684.006 1.216.037 1.692.223a3.25 3.25 0 0 1 1.426 1.09c.367.493.54 1.127.776 1.998l.037.136.591 2.167c.388.199.727.466 1.01.828.621.797.732 1.746.621 2.834-.107 1.056-.44 2.386-.856 4.051l-.026.105c-.264 1.053-.477 1.908-.731 2.575-.265.696-.602 1.266-1.156 1.699-.555.433-1.19.62-1.929.71-.709.084-1.59.084-2.675.084H9.638c-1.085 0-1.966 0-2.675-.085-.74-.088-1.374-.276-1.928-.71-.555-.432-.891-1.002-1.156-1.698-.255-.667-.468-1.522-.731-2.575l-.027-.105c-.416-1.665-.748-2.995-.856-4.05-.11-1.09 0-2.038.622-2.835.283-.362.622-.63 1.01-.828l.59-2.167.037-.136c.237-.871.41-1.505.776-1.999a3.25 3.25 0 0 1 1.426-1.089c.476-.186 1.009-.217 1.692-.222m.002 1.502c-.662.007-.928.032-1.148.118a1.75 1.75 0 0 0-.768.587c-.176.237-.279.568-.57 1.635L5.58 8.389c1.038-.139 2.378-.139 4.043-.139h4.755c1.664 0 3.004 0 4.042.139l-.354-1.297c-.29-1.067-.394-1.398-.57-1.635a1.75 1.75 0 0 0-.768-.587c-.22-.086-.486-.111-1.147-.118A1.75 1.75 0 0 1 14 5.75h-4a1.75 1.75 0 0 1-1.581-.998M10 3.75a.25.25 0 0 0 0 .5h4a.25.25 0 1 0 0-.5zM5.7 9.886c-.911.132-1.352.372-1.631.73-.279.357-.405.842-.312 1.758.096.936.4 2.16.835 3.9.277 1.108.47 1.876.688 2.45.212.554.419.847.678 1.05.259.202.594.331 1.183.402.61.073 1.4.074 2.544.074h4.63c1.144 0 1.935-.001 2.544-.074.59-.07.924-.2 1.183-.402.26-.203.466-.496.678-1.05.218-.574.411-1.342.689-2.45.434-1.74.739-2.964.834-3.9.093-.916-.033-1.402-.312-1.759s-.72-.597-1.63-.729c-.931-.134-2.193-.136-3.986-.136h-4.63c-1.793 0-3.054.002-3.985.136" clip-rule="evenodd"/></svg>