<svg xmlns="http://www.w3.org/2000/svg" fill="none" viewBox="0 0 24 24" width="1em" height="1em"><path fill="currentColor" d="M5.045 3.25c.433 0 .83 0 1.152.043.356.048.731.16 1.04.47s.422.684.47 1.04l.008.066c.034.299-.056.595-.197.86a.5.5 0 0 1-.443.27L6.93 6c-.885 0-1.614 0-2.207.053-.616.055-1.18.174-1.7.47a4 4 0 0 0-.773.572v-1.14c0-.433 0-.83.043-1.152.048-.356.16-.731.47-1.04s.684-.422 1.04-.47c.323-.043.72-.043 1.152-.043z"/><path fill="currentColor" fill-rule="evenodd" d="M22 14v-2.025c0-1.846 0-2.768-.392-3.458a3 3 0 0 0-1.125-1.125C19.793 7 18.871 7 17.025 7h-.28c-.123 0-.184 0-.24-.006a1 1 0 0 1-.725-.448 2 2 0 0 1-.113-.213c-.11-.22-.165-.33-.228-.425a2 2 0 0 0-1.447-.895C13.878 5 13.755 5 13.509 5h-3.018c-.246 0-.37 0-.482.013a2 2 0 0 0-1.448.895c-.063.095-.118.205-.228.425-.055.11-.082.165-.113.213a1 1 0 0 1-.724.447C7.439 7 7.378 7 7.255 7h-.28c-1.846 0-2.768 0-3.458.392a3 3 0 0 0-1.125 1.125C2 9.207 2 10.129 2 11.975V14c0 2.828 0 4.243.879 5.121C3.757 20 5.172 20 8 20h8c2.828 0 4.243 0 5.121-.879C22 18.243 22 16.828 22 14m-4.75-2a.75.75 0 0 0-1.5 0v.75H15a.75.75 0 0 0 0 1.5h.75V15a.75.75 0 0 0 1.5 0v-.75H18a.75.75 0 0 0 0-1.5h-.75zM6 12.75a.75.75 0 0 0 0 1.5h3a.75.75 0 0 0 0-1.5z" clip-rule="evenodd"/><path fill="currentColor" d="M20.197 3.293c-.323-.043-.72-.043-1.152-.043h-.09c-.433 0-.83 0-1.152.043-.356.048-.731.16-1.04.47s-.422.684-.47 1.04l-.008.068c-.034.297.056.593.195.857.085.163.253.27.437.27L17.07 6c.884 0 1.614 0 2.207.053.616.055 1.18.174 1.7.47q.422.241.773.572v-1.14c0-.433 0-.83-.043-1.152-.048-.356-.16-.731-.47-1.04s-.684-.422-1.04-.47"/></svg>