<svg width="24" height="24" viewBox="0 0 24 24" fill="none" xmlns="http://www.w3.org/2000/svg">
<path d="M18.4508 8.27844L19.1984 8.21855L18.4508 8.27844ZM18.4651 8.46611L19.2136 8.41851L18.4651 8.46611ZM16.6137 12.8998L17.1092 13.4628V13.4628L16.6137 12.8998ZM16.7511 12.7779L17.2562 13.3323V13.3323L16.7511 12.7779ZM10.0702 8.95792L10.8094 9.08469L10.0702 8.95792ZM10.1026 8.77289L10.8397 8.91183L10.1026 8.77289ZM12.9874 4.98726L13.3182 5.66036V5.66036L12.9874 4.98726ZM12.8245 5.06818L13.1671 5.73536L12.8245 5.06818ZM7.73204 13.4659L7.2062 12.9311L7.73204 13.4659ZM8.39225 13.8678C8.68425 13.574 8.6828 13.0991 8.38901 12.8071C8.09522 12.5151 7.62035 12.5166 7.32835 12.8104L8.39225 13.8678ZM10.0385 9.13936L10.7763 9.27427L10.0385 9.13936ZM14.0411 17.2665L14.7726 17.4322L14.0411 17.2665ZM14.0823 17.0872L13.3527 16.9134L13.3517 16.9175L14.0823 17.0872ZM16.4789 13.0191L16.9809 13.5764L16.4789 13.0191ZM7.65135 20.4125L8.03836 19.7701H8.03835L7.65135 20.4125ZM5.46243 18.8099L4.84069 19.2293L5.46243 18.8099ZM6.9476 14.2372L7.47343 14.772L6.9476 14.2372ZM5.17824 16.3161L4.47735 16.0492L5.17824 16.3161ZM8.31569 20.8127L7.92868 21.4552H7.92868L8.31569 20.8127ZM10.7404 21.9893L10.6702 22.736L10.7404 21.9893ZM13.7931 18.361L13.0617 18.1953L13.7931 18.361ZM12.9523 20.9992L13.5501 21.4522L12.9523 20.9992ZM18.3395 2.89859L18.7265 2.25615L18.7265 2.25615L18.3395 2.89859ZM18.7506 3.20695L19.3826 2.80323L18.7506 3.20695ZM18.6267 3.97119L19.2829 4.33431H19.2829L18.6267 3.97119ZM18.8287 3.49869L18.0794 3.4648L18.8287 3.49869ZM16.446 2.72623L15.7898 2.36311V2.36311L16.446 2.72623ZM16.7589 2.27861L17.1718 2.90467L16.7589 2.27861ZM17.5588 2.4283L17.1718 3.07073L17.1718 3.07073L17.5588 2.4283ZM17.0641 2.19688L17.109 1.44823L17.0641 2.19688ZM9.13841 9.70106C9.02506 10.0995 9.25613 10.5143 9.65453 10.6277C10.0529 10.741 10.4678 10.51 10.5812 10.1116L9.13841 9.70106ZM14.8973 15.0002L15.5512 15.3676L14.8973 15.0002ZM15.6325 4.13949L17.7846 5.43596L18.5586 4.15108L16.4065 2.85461L15.6325 4.13949ZM8.70269 20.1703L8.03836 19.7701L7.26434 21.055L7.92868 21.4552L8.70269 20.1703ZM13.3097 17.1008L13.0617 18.1953L14.5246 18.5267L14.7726 17.4322L13.3097 17.1008ZM7.47343 14.772L8.25788 14.0007L7.2062 12.9311L6.42176 13.7024L7.47343 14.772ZM13.3182 5.66036L16.3503 4.17015L15.6887 2.82395L12.6566 4.31416L13.3182 5.66036ZM17.424 4.85341L17.7032 8.33833L19.1984 8.21855L18.9192 4.73363L17.424 4.85341ZM16.6757 3.86017L17.1022 3.08935L15.7898 2.36311L15.3632 3.13393L16.6757 3.86017ZM17.1718 3.07073L17.9525 3.54103L18.7265 2.25615L17.9458 1.78586L17.1718 3.07073ZM17.9704 3.60807L17.5154 4.4304L18.8279 5.15664L19.2829 4.33431L17.9704 3.60807ZM17.7032 8.33833C17.711 8.43589 17.7142 8.47621 17.7166 8.51371L19.2136 8.41851C19.2102 8.36582 19.2058 8.31109 19.1984 8.21855L17.7032 8.33833ZM17.1092 13.4628C17.177 13.4031 17.2177 13.3674 17.2562 13.3323L16.2459 12.2235C16.2192 12.2478 16.1901 12.2736 16.1182 12.3368L17.1092 13.4628ZM17.7166 8.51371C17.8068 9.93176 17.2577 11.3017 16.2459 12.2235L17.2562 13.3323C18.614 12.0952 19.3318 10.278 19.2136 8.41851L17.7166 8.51371ZM10.8094 9.08469C10.8259 8.98837 10.8327 8.94863 10.8397 8.91183L9.36562 8.63394C9.35585 8.68577 9.3466 8.73984 9.33094 8.83116L10.8094 9.08469ZM12.6566 4.31416C12.5763 4.35361 12.528 4.37732 12.4819 4.401L13.1671 5.73536C13.1987 5.71912 13.2331 5.70219 13.3182 5.66036L12.6566 4.31416ZM10.8397 8.91183C11.1019 7.52054 11.9683 6.35091 13.1671 5.73536L12.4819 4.401C10.856 5.23589 9.71048 6.80468 9.36562 8.63394L10.8397 8.91183ZM8.25788 14.0007C8.32135 13.9383 8.35726 13.903 8.39225 13.8678L7.32835 12.8104C7.30084 12.838 7.27207 12.8663 7.2062 12.9311L8.25788 14.0007ZM9.33094 8.83116C9.31502 8.92403 9.30799 8.96495 9.30077 9.00445L10.7763 9.27427C10.7854 9.22476 10.794 9.17439 10.8094 9.08469L9.33094 8.83116ZM14.7726 17.4322C14.7825 17.3883 14.7926 17.3444 14.8002 17.3114C14.804 17.2949 14.8072 17.2812 14.8094 17.2717C14.8105 17.2669 14.8114 17.2632 14.8119 17.2606C14.8122 17.2594 14.8124 17.2584 14.8126 17.2578C14.8127 17.2575 14.8127 17.2573 14.8128 17.2571C14.8128 17.257 14.8128 17.257 14.8128 17.2569C14.8128 17.2569 14.8128 17.2569 14.8128 17.2569C14.8128 17.2569 14.8128 17.2569 14.8128 17.2569V17.2569C14.8128 17.2569 14.8128 17.2569 14.0823 17.0872C13.3517 16.9175 13.3517 16.9175 13.3517 16.9175C13.3517 16.9175 13.3517 16.9175 13.3517 16.9175C13.3517 16.9175 13.3517 16.9175 13.3517 16.9175C13.3517 16.9175 13.3517 16.9175 13.3517 16.9176C13.3517 16.9176 13.3517 16.9177 13.3516 16.9178C13.3516 16.918 13.3515 16.9183 13.3514 16.9186C13.3513 16.9193 13.351 16.9204 13.3507 16.9217C13.3501 16.9244 13.3492 16.9284 13.348 16.9334C13.3457 16.9433 13.3424 16.9576 13.3385 16.9746C13.3307 17.0087 13.3202 17.0545 13.3097 17.1008L14.7726 17.4322ZM16.1182 12.3368C16.0516 12.3954 16.0138 12.4286 15.977 12.4618L16.9809 13.5764C17.0098 13.5503 17.04 13.5237 17.1092 13.4628L16.1182 12.3368ZM8.03835 19.7701C7.40696 19.3897 6.96744 19.1245 6.64293 18.8962C6.32139 18.67 6.17087 18.519 6.08417 18.3904L4.84069 19.2293C5.0768 19.5793 5.39871 19.8549 5.7799 20.123C6.15814 20.3891 6.65167 20.6859 7.26434 21.055L8.03835 19.7701ZM6.42176 13.7024C5.9085 14.2071 5.49546 14.6126 5.18769 14.9608C4.8776 15.3116 4.62759 15.6547 4.47735 16.0492L5.87912 16.583C5.93538 16.4353 6.04909 16.2512 6.31158 15.9542C6.57638 15.6546 6.94479 15.2918 7.47343 14.772L6.42176 13.7024ZM6.08417 18.3904C5.7293 17.8644 5.65061 17.1831 5.87912 16.583L4.47735 16.0492C4.07619 17.1025 4.21119 18.2962 4.84069 19.2293L6.08417 18.3904ZM7.92868 21.4552C8.54123 21.8242 9.0345 22.1218 9.44478 22.3307C9.85683 22.5406 10.2516 22.6967 10.6702 22.736L10.8105 21.2426C10.6706 21.2295 10.475 21.1721 10.1254 20.994C9.774 20.8151 9.33421 20.5507 8.70269 20.1703L7.92868 21.4552ZM13.0617 18.1953C12.8947 18.9323 12.7774 19.4483 12.6606 19.8389C12.5444 20.2279 12.4476 20.4234 12.3545 20.5463L13.5501 21.4522C13.8038 21.1174 13.9627 20.7206 14.0979 20.2683C14.2325 19.8177 14.3622 19.2433 14.5246 18.5267L13.0617 18.1953ZM10.6702 22.736C11.7877 22.841 12.8691 22.351 13.5501 21.4522L12.3545 20.5463C11.9781 21.0431 11.3963 21.2976 10.8105 21.2426L10.6702 22.736ZM17.9525 3.54103C18.0119 3.57684 18.0573 3.60417 18.0958 3.62822C18.1344 3.65226 18.1571 3.66747 18.1711 3.6775C18.1995 3.69787 18.1593 3.6746 18.1185 3.61067L19.3826 2.80323C19.2787 2.64059 19.149 2.53303 19.0457 2.45883C18.9496 2.38988 18.8321 2.31977 18.7265 2.25615L17.9525 3.54103ZM19.2829 4.33431C19.3426 4.22643 19.4093 4.107 19.4581 3.99927C19.5106 3.88334 19.5692 3.72536 19.5779 3.53257L18.0794 3.4648C18.0829 3.38902 18.106 3.34879 18.0916 3.38061C18.0845 3.39629 18.0724 3.42084 18.051 3.46093C18.0296 3.50101 18.004 3.54734 17.9704 3.60807L19.2829 4.33431ZM18.1185 3.61067C18.0907 3.56723 18.0771 3.51628 18.0794 3.4648L19.5779 3.53257C19.5895 3.27514 19.5213 3.0204 19.3826 2.80323L18.1185 3.61067ZM17.1022 3.08936C17.1381 3.02452 17.1656 2.97479 17.1899 2.93248C17.2143 2.89013 17.2299 2.86477 17.2405 2.84893C17.2624 2.8161 17.2395 2.86004 17.1718 2.90467L16.3459 1.65255C16.1756 1.76488 16.0664 1.906 15.9925 2.01673C15.9234 2.12039 15.8537 2.2475 15.7898 2.36311L17.1022 3.08936ZM17.9458 1.78586C17.8326 1.71768 17.7088 1.64237 17.5971 1.58712C17.4778 1.52809 17.3127 1.46044 17.109 1.44823L17.0192 2.94554C16.9383 2.94068 16.8965 2.91405 16.9319 2.93155C16.949 2.93999 16.9752 2.95414 17.0174 2.97867C17.0596 3.00318 17.1083 3.0325 17.1718 3.07073L17.9458 1.78586ZM17.1718 2.90467C17.1267 2.93443 17.0732 2.94877 17.0192 2.94554L17.109 1.44823C16.8392 1.43204 16.5715 1.50373 16.3459 1.65255L17.1718 2.90467ZM10.5812 10.1116C10.6593 9.83686 10.7245 9.55746 10.7763 9.27427L9.30077 9.00445C9.25765 9.2402 9.2034 9.47267 9.13841 9.70106L10.5812 10.1116ZM14.8118 17.261C14.9714 16.5913 15.2215 15.9543 15.5512 15.3676L14.2435 14.6327C13.8454 15.3412 13.5444 16.1086 13.3527 16.9134L14.8118 17.261ZM15.5512 15.3676C15.929 14.6954 16.411 14.0896 16.9809 13.5764L15.977 12.4618C15.2836 13.0863 14.6997 13.821 14.2435 14.6327L15.5512 15.3676Z" fill="#1C274C"/>
<path d="M17.6979 9.26736L16.8958 9.53474C16.0255 9.82483 15.0675 9.65397 14.3512 9.08091C13.5275 8.42196 12.3958 8.30207 11.4524 8.77381L10.7262 9.1369" stroke="#1C274C" stroke-width="1.5" stroke-linecap="square"/>
</svg>
