<svg width="24" height="24" viewBox="0 0 24 24" fill="none" xmlns="http://www.w3.org/2000/svg">
<path d="M5.46689 4.39195C5.75949 4.68514 5.75902 5.16001 5.46583 5.45261C3.78722 7.12787 2.75 9.44205 2.75 11.9999C2.75 14.5877 3.81163 16.9261 5.52503 18.6058C5.82082 18.8957 5.82554 19.3706 5.53557 19.6664C5.24561 19.9622 4.77076 19.9669 4.47497 19.6769C2.48564 17.7267 1.25 15.007 1.25 11.9999C1.25 9.0277 2.45721 6.33603 4.40623 4.39089C4.69941 4.09829 5.17429 4.09877 5.46689 4.39195Z" fill="#1C274C"/>
<path d="M18.6164 4.46434C18.9122 4.17437 19.387 4.17909 19.677 4.47488C21.5771 6.41314 22.75 9.07031 22.75 11.9999C22.75 14.9643 21.5491 17.6497 19.609 19.5937C19.3164 19.8869 18.8415 19.8873 18.5484 19.5947C18.2552 19.3021 18.2547 18.8273 18.5473 18.5341C20.2182 16.8599 21.25 14.5511 21.25 11.9999C21.25 9.47861 20.2422 7.19418 18.6059 5.52494C18.3159 5.22915 18.3206 4.7543 18.6164 4.46434Z" fill="#1C274C"/>
<path d="M8.30923 7.48748C8.59226 7.78992 8.57652 8.26453 8.27408 8.54755C7.32517 9.43555 6.75 10.6501 6.75 11.9821C6.75 13.3296 7.33869 14.5572 8.30756 15.4478C8.61251 15.7281 8.63248 16.2025 8.35216 16.5075C8.07185 16.8124 7.59739 16.8324 7.29244 16.5521C6.03967 15.4005 5.25 13.7823 5.25 11.9821C5.25 10.2029 6.02148 8.60119 7.24916 7.45232C7.5516 7.1693 8.02621 7.18504 8.30923 7.48748Z" fill="#1C274C"/>
<path d="M15.7429 7.5255C16.0292 7.22617 16.5039 7.21561 16.8033 7.50192C18.0005 8.64705 18.75 10.2285 18.75 11.9821C18.75 13.7567 17.9825 15.3547 16.7604 16.503C16.4586 16.7866 15.9839 16.7718 15.7003 16.4699C15.4167 16.168 15.4315 15.6934 15.7333 15.4098C16.6778 14.5224 17.25 13.3107 17.25 11.9821C17.25 10.6691 16.6911 9.47037 15.7664 8.5859C15.4671 8.29959 15.4566 7.82483 15.7429 7.5255Z" fill="#1C274C"/>
<path d="M12 13.9999C13.1046 13.9999 14 13.1045 14 11.9999C14 10.8954 13.1046 9.99994 12 9.99994C10.8954 9.99994 10 10.8954 10 11.9999C10 13.1045 10.8954 13.9999 12 13.9999Z" fill="#1C274C"/>
</svg>
