<svg width="24" height="24" viewBox="0 0 24 24" fill="none" xmlns="http://www.w3.org/2000/svg">
<path opacity="0.5" d="M3.99057 13.6019C1.33648 10.9478 1.33648 6.64466 3.99057 3.99057C6.64466 1.33648 10.9478 1.33648 13.6019 3.99057L20.0094 10.3981C22.6635 13.0522 22.6635 17.3553 20.0094 20.0094C17.3553 22.6635 13.0522 22.6635 10.3981 20.0094L3.99057 13.6019Z" fill="#1C274C"/>
<path d="M7.80729 17.4186L6.55383 16.1651L7.04936 16.0697C7.04904 16.0698 7.04942 16.0697 7.05034 16.0695L7.0642 16.0665C7.07858 16.0633 7.10318 16.0577 7.1374 16.049C7.20584 16.0318 7.31273 16.0026 7.45332 15.9578C7.73451 15.868 8.15025 15.7152 8.66277 15.4682C9.68695 14.9746 11.1004 14.1036 12.6017 12.6023C14.103 11.1009 14.9742 9.68737 15.4679 8.66305C15.715 8.15047 15.8678 7.73465 15.9576 7.4534C16.0025 7.31279 16.0317 7.20588 16.049 7.13741C16.0576 7.10318 16.0633 7.07858 16.0665 7.06419L16.0694 7.05036C16.0696 7.04945 16.0697 7.04903 16.0697 7.04934L16.1652 6.55383L17.4185 7.80721C17.4086 7.83987 17.3979 7.87408 17.3865 7.9098C17.277 8.2525 17.0989 8.7339 16.8192 9.31431C16.2593 10.476 15.2937 12.0316 13.6624 13.6629C12.031 15.2943 10.4755 16.2597 9.31396 16.8195C8.7336 17.0992 8.25226 17.2773 7.90959 17.3867C7.87398 17.398 7.83986 17.4087 7.80729 17.4186Z" fill="#1C274C"/>
</svg>
