<svg width="24" height="24" viewBox="0 0 24 24" fill="none" xmlns="http://www.w3.org/2000/svg">
<path fill-rule="evenodd" clip-rule="evenodd" d="M12.25 2.83416C11.7896 2.75592 11.162 2.74999 10.0298 2.74999C8.11311 2.74999 6.75075 2.75157 5.71785 2.88981C4.70596 3.02524 4.12453 3.27927 3.7019 3.70189C3.27869 4.1251 3.02502 4.70475 2.88976 5.71084C2.75159 6.7385 2.75 8.09317 2.75 9.99999V14C2.75 15.9068 2.75159 17.2615 2.88976 18.2891C3.02502 19.2952 3.27869 19.8749 3.7019 20.2981C4.12511 20.7213 4.70476 20.975 5.71085 21.1102C6.73851 21.2484 8.09318 21.25 10 21.25H14C15.9068 21.25 17.2615 21.2484 18.2892 21.1102C19.2952 20.975 19.8749 20.7213 20.2981 20.2981C20.7213 19.8749 20.975 19.2952 21.1102 18.2891C21.2484 17.2615 21.25 15.9068 21.25 14V13.5629C21.25 12.0269 21.2392 11.2987 21.0762 10.75H17.9463C16.8135 10.75 15.8877 10.75 15.1569 10.6518C14.3929 10.5491 13.7306 10.3268 13.2019 9.79809C12.6732 9.26939 12.4509 8.60706 12.3482 7.8431C12.25 7.11224 12.25 6.18651 12.25 5.05368V2.83416ZM13.75 3.60944V4.99999C13.75 6.1997 13.7516 7.02404 13.8348 7.64323C13.9152 8.24085 14.059 8.53389 14.2626 8.73743C14.4661 8.94097 14.7591 9.0848 15.3568 9.16515C15.976 9.2484 16.8003 9.24999 18 9.24999H20.0195C19.723 8.96244 19.3432 8.61791 18.85 8.17401L14.8912 4.61111C14.4058 4.17427 14.0446 3.85181 13.75 3.60944ZM10.1755 1.24996C11.5601 1.24959 12.4546 1.24935 13.2779 1.56529C14.1012 1.88123 14.7632 2.47728 15.7873 3.39949C15.8226 3.43133 15.8584 3.46355 15.8947 3.49617L19.8534 7.05906C19.8956 7.09699 19.9372 7.13444 19.9783 7.17143C21.162 8.23608 21.9274 8.92452 22.3391 9.84896C22.7508 10.7734 22.7505 11.8029 22.75 13.3949C22.75 13.4502 22.75 13.5062 22.75 13.5629V14.0564C22.75 15.8942 22.75 17.3498 22.5969 18.489C22.4392 19.6614 22.1071 20.6104 21.3588 21.3587C20.6104 22.1071 19.6614 22.4392 18.489 22.5969C17.3498 22.75 15.8942 22.75 14.0564 22.75H9.94359C8.10583 22.75 6.65019 22.75 5.51098 22.5969C4.33856 22.4392 3.38961 22.1071 2.64124 21.3587C1.89288 20.6104 1.56076 19.6614 1.40314 18.489C1.24997 17.3498 1.24998 15.8942 1.25 14.0564V9.94357C1.24998 8.10581 1.24997 6.65018 1.40314 5.51097C1.56076 4.33854 1.89288 3.3896 2.64124 2.64123C3.39019 1.89228 4.34232 1.56053 5.51887 1.40306C6.66283 1.24996 8.1257 1.24997 9.97352 1.24999L10.0298 1.24999C10.0789 1.24999 10.1275 1.24998 10.1755 1.24996Z" fill="#1C274C"/>
<path fill-rule="evenodd" clip-rule="evenodd" d="M9 13.0345C8.94187 13.1351 8.87722 13.251 8.80104 13.3877L8.70273 13.564C8.69579 13.5765 8.68836 13.5901 8.68039 13.6046C8.60186 13.7483 8.47182 13.9861 8.25497 14.1507C8.03359 14.3188 7.7673 14.3766 7.61159 14.4104C7.59599 14.4138 7.5815 14.4169 7.56828 14.4199L7.37737 14.4631C7.2022 14.5027 7.05951 14.5351 6.9375 14.5657C7.01686 14.6634 7.11995 14.7847 7.25403 14.9415L7.38418 15.0937C7.39341 15.1045 7.40345 15.1161 7.41414 15.1284C7.52208 15.2527 7.69634 15.4534 7.77693 15.7126C7.85656 15.9687 7.8291 16.2324 7.81177 16.3988C7.81004 16.4154 7.80841 16.431 7.807 16.4456L7.78732 16.6486C7.76908 16.8369 7.7549 16.9872 7.74545 17.1094C7.84966 17.0635 7.9682 17.0089 8.10903 16.9441L8.28777 16.8618C8.30008 16.8561 8.31356 16.8498 8.32814 16.8429C8.47164 16.7752 8.72133 16.6574 9 16.6574C9.27867 16.6574 9.52836 16.7752 9.67186 16.8429C9.68644 16.8498 9.69992 16.8561 9.71223 16.8618L9.89097 16.9441C10.0318 17.0089 10.1503 17.0635 10.2545 17.1094C10.2451 16.9872 10.2309 16.8369 10.2127 16.6486L10.193 16.4456C10.1916 16.431 10.19 16.4154 10.1882 16.3988C10.1709 16.2324 10.1434 15.9687 10.2231 15.7126C10.3037 15.4534 10.4779 15.2527 10.5859 15.1284C10.5965 15.1161 10.6066 15.1045 10.6158 15.0937L10.746 14.9415C10.8801 14.7847 10.9831 14.6634 11.0625 14.5657C10.9405 14.5351 10.7978 14.5027 10.6226 14.4631L10.4317 14.4199C10.4185 14.4169 10.404 14.4138 10.3884 14.4104C10.2327 14.3766 9.96641 14.3188 9.74503 14.1507C9.52819 13.9861 9.39814 13.7483 9.31961 13.6046C9.31164 13.5901 9.30421 13.5765 9.29727 13.564L9.19896 13.3877C9.12278 13.251 9.05814 13.1351 9 13.0345ZM8.0135 11.7996C8.18566 11.5748 8.4983 11.25 9 11.25C9.5017 11.25 9.81434 11.5748 9.9865 11.7996C10.1508 12.0142 10.3163 12.3112 10.486 12.6158C10.4937 12.6296 10.5014 12.6435 10.5091 12.6573L10.6075 12.8337C10.6303 12.8746 10.6482 12.9068 10.6639 12.9343C10.6912 12.9407 10.723 12.9479 10.7627 12.9569L10.9536 13.0001C10.9693 13.0036 10.9849 13.0072 11.0006 13.0107C11.3284 13.0848 11.6542 13.1584 11.9042 13.2569C12.1804 13.3658 12.5547 13.5777 12.6989 14.0416C12.8407 14.4973 12.6618 14.8834 12.5056 15.1315C12.3611 15.3611 12.1414 15.6179 11.9165 15.8807C11.9063 15.8926 11.8961 15.9045 11.886 15.9164L11.7558 16.0686C11.7213 16.1089 11.6953 16.1393 11.6735 16.1657C11.6764 16.202 11.6805 16.2443 11.686 16.3009L11.7057 16.504C11.7072 16.5195 11.7087 16.5349 11.7102 16.5504C11.7444 16.9023 11.7774 17.2424 11.7653 17.5145C11.7526 17.7997 11.6841 18.2315 11.2969 18.5254C10.8975 18.8286 10.4564 18.7625 10.1767 18.6824C9.91895 18.6085 9.61442 18.4682 9.30769 18.3269C9.293 18.3201 9.27832 18.3134 9.26363 18.3066L9.08488 18.2243C9.05144 18.2089 9.02395 18.1963 9 18.1854C8.97605 18.1963 8.94857 18.2089 8.91512 18.2243L8.73637 18.3066C8.72169 18.3134 8.707 18.3201 8.69231 18.3269C8.38559 18.4682 8.08105 18.6085 7.8233 18.6824C7.54358 18.7625 7.10247 18.8286 6.70306 18.5254C6.31589 18.2315 6.24743 17.7997 6.23473 17.5145C6.22261 17.2424 6.25564 16.9023 6.28981 16.5504C6.29131 16.5349 6.29282 16.5195 6.29432 16.504L6.31399 16.3009C6.31948 16.2443 6.32356 16.202 6.32655 16.1657C6.30465 16.1393 6.27866 16.1089 6.24418 16.0686L6.11403 15.9164C6.10385 15.9045 6.09368 15.8926 6.08351 15.8807C5.8586 15.6179 5.63891 15.3611 5.49436 15.1315C5.33817 14.8834 5.15934 14.4973 5.30106 14.0416C5.44532 13.5777 5.81962 13.3658 6.09576 13.2569C6.34585 13.1584 6.67163 13.0848 6.99944 13.0107C7.01508 13.0072 7.03072 13.0036 7.04635 13.0001L7.23726 12.9569C7.27698 12.9479 7.30877 12.9407 7.3361 12.9343C7.3518 12.9068 7.36975 12.8746 7.39255 12.8337L7.49086 12.6573C7.49859 12.6435 7.50631 12.6296 7.51402 12.6158C7.68369 12.3112 7.84917 12.0142 8.0135 11.7996Z" fill="#1C274C"/>
</svg>
