<svg xmlns="http://www.w3.org/2000/svg" fill="none" viewBox="0 0 24 24" width="1em" height="1em"><path fill="currentColor" d="M13.75 9a.75.75 0 0 0-1.5 0v1.25H11a.75.75 0 1 0 0 1.5h1.25V13a.75.75 0 1 0 1.5 0v-1.25H15a.75.75 0 0 0 0-1.5h-1.25z"/><path fill="currentColor" fill-rule="evenodd" d="M1.292 2.751a.75.75 0 0 1 .957-.459l.301.106c.617.217 1.14.401 1.552.603.441.217.819.483 1.103.899.282.412.398.865.452 1.362q.006.052.01.108H17.12c.819 0 1.653 0 2.34.077.35.039.697.101 1.003.209.3.105.631.278.866.584.382.496.448 1.074.412 1.66-.034.558-.173 1.252-.337 2.077l-.01.053-.002.004-.509 2.47c-.15.726-.275 1.337-.438 1.82-.172.51-.411.96-.838 1.308-.426.347-.915.49-1.45.556-.505.062-1.13.062-1.871.062H10.88c-1.346 0-2.435 0-3.294-.122-.896-.127-1.649-.4-2.243-1.026-.546-.576-.838-1.188-.984-2.042-.137-.8-.151-1.848-.151-3.3V7.038c0-.74-.001-1.235-.042-1.615-.04-.363-.11-.545-.2-.677-.087-.129-.221-.25-.524-.398-.323-.158-.762-.314-1.43-.549l-.26-.091a.75.75 0 0 1-.46-.957M5.708 6.87v2.89c0 1.489.018 2.398.13 3.047.101.595.274.925.594 1.263.272.288.65.472 1.365.573.74.105 1.724.107 3.14.107h5.303c.8 0 1.331-.001 1.734-.05.383-.047.56-.129.686-.231.125-.102.24-.26.364-.625.13-.385.238-.905.4-1.688l.498-2.42v-.002c.178-.89.295-1.482.322-1.926.026-.422-.04-.569-.101-.65a.6.6 0 0 0-.177-.087 3.2 3.2 0 0 0-.672-.134c-.595-.066-1.349-.067-2.205-.067zM5.25 19.5a2.25 2.25 0 1 0 4.5 0 2.25 2.25 0 0 0-4.5 0m2.25.75a.75.75 0 1 1 0-1.5.75.75 0 0 1 0 1.5m6.75-.75a2.25 2.25 0 1 0 4.5 0 2.25 2.25 0 0 0-4.5 0m2.25.75a.75.75 0 1 1 0-1.5.75.75 0 0 1 0 1.5" clip-rule="evenodd"/></svg>