<svg width="24" height="24" viewBox="0 0 24 24" fill="none" xmlns="http://www.w3.org/2000/svg">
<path d="M3.33995 17C6.10137 21.7829 12.2173 23.4216 17.0002 20.6602C18.9498 19.5346 20.377 17.8516 21.1967 15.9288C22.388 13.1344 22.2963 9.83328 20.6605 6.99996C19.0246 4.16664 16.2117 2.43666 13.196 2.07112C11.1209 1.81959 8.94981 2.2141 7.00021 3.33971C2.21728 6.10113 0.578527 12.217 3.33995 17Z" stroke="#1C274C" stroke-width="1.5"/>
<path d="M13.1958 2.07104C13.1958 2.07104 12.9641 5.66976 15.4641 9.99988C17.9641 14.33 21.1965 15.9287 21.1965 15.9287M2.80347 8.07104C2.80347 8.07104 6.03588 9.66976 8.53588 13.9999C11.0359 18.33 10.8042 21.9287 10.8042 21.9287" stroke="#1C274C" stroke-width="1.5"/>
</svg>
