<svg xmlns="http://www.w3.org/2000/svg" fill="none" viewBox="0 0 24 24" width="1em" height="1em"><path fill="currentColor" fill-rule="evenodd" d="m8.754 6.277-.058-.027c-1.077-.493-1.966-.9-2.713-1.102-.796-.215-1.542-.229-2.266.18-.723.409-1.079 1.041-1.279 1.817-.186.725-.259 1.67-.347 2.81l-.004.063A27 27 0 0 0 2 12c0 .616.034 1.297.087 1.982l.004.062c.088 1.142.16 2.086.347 2.811.2.776.556 1.409 1.279 1.817.724.409 1.47.395 2.266.18.747-.202 1.636-.61 2.713-1.102l.058-.027a33 33 0 0 0 1.683-.82 30 30 0 0 0 1.204-.677V7.774a30 30 0 0 0-1.204-.676 34 34 0 0 0-1.683-.821" clip-rule="evenodd" opacity=".5"/><path fill="currentColor" d="M12.621 6.222c-.566.371-.832.923-.98 1.552v8.452c.148.63.414 1.18.98 1.552.61.4 1.246.38 1.881.18.572-.18 1.244-.537 2.024-.951l.06-.032c.44-.234.87-.475 1.254-.71.437-.269.908-.587 1.375-.92l.05-.037c.791-.563 1.458-1.038 1.917-1.506.5-.509.818-1.07.818-1.802s-.318-1.293-.818-1.802c-.46-.468-1.126-.943-1.916-1.506l-.05-.036a25 25 0 0 0-1.376-.92 24 24 0 0 0-1.254-.71l-.06-.032c-.78-.415-1.452-.772-2.024-.952-.635-.2-1.272-.22-1.88.18"/></svg>