<svg xmlns="http://www.w3.org/2000/svg" fill="none" viewBox="0 0 24 24" width="1em" height="1em"><path fill="currentColor" fill-rule="evenodd" d="M18.916 7.92 16.08 5.084c-.909-.908-1.65-1.65-2.298-2.13-.669-.497-1.384-.827-2.21-.66-.824.166-1.356.748-1.78 1.465-.41.694-.806 1.666-1.29 2.856L7.53 8.998c-.3.736-.388.924-.515 1.062q-.075.082-.166.15c-.15.112-.346.181-1.108.406l-.047.014c-.797.234-1.46.43-1.957.642-.506.217-.99.514-1.254 1.044a2.2 2.2 0 0 0-.232.908c-.022.59.261 1.083.602 1.517.333.424.822.913 1.41 1.501l1.183 1.183-2.976 2.978a.75.75 0 0 0 1.06 1.061l2.977-2.979 1.251 1.252c.588.588 1.077 1.077 1.501 1.41.434.34.926.624 1.517.602a2.2 2.2 0 0 0 .908-.232c.53-.263.827-.748 1.044-1.254.213-.496.408-1.16.643-1.957l.013-.047c.224-.762.294-.958.406-1.108a1.2 1.2 0 0 1 .15-.166c.138-.127.326-.216 1.062-.515l2.383-.971c1.19-.485 2.162-.881 2.856-1.291.717-.424 1.3-.956 1.466-1.78.166-.826-.164-1.541-.66-2.21-.48-.647-1.223-1.39-2.131-2.298M11.87 3.764c.208-.043.483-.004 1.018.394.548.406 1.212 1.067 2.176 2.031l2.747 2.747c.963.964 1.625 1.628 2.031 2.176.398.535.437.81.394 1.018-.042.21-.184.447-.758.786-.587.347-1.455.703-2.717 1.217l-2.428.99c-.583.236-1.046.424-1.409.758a2.7 2.7 0 0 0-.334.37c-.296.395-.437.874-.614 1.478l-.03.107c-.253.856-.423 1.432-.596 1.835s-.288.48-.334.503a.7.7 0 0 1-.296.076c-.052.002-.19-.011-.534-.282s-.77-.695-1.402-1.326l-3.426-3.426c-.63-.631-1.055-1.057-1.326-1.402-.27-.345-.284-.482-.282-.534a.7.7 0 0 1 .076-.296c.023-.046.1-.16.503-.334.403-.173.979-.343 1.835-.595l.107-.031c.604-.177 1.083-.318 1.478-.614q.2-.15.37-.334c.334-.363.522-.826.759-1.41l.989-2.427c.514-1.263.87-2.13 1.217-2.717.339-.574.577-.716.786-.758" clip-rule="evenodd"/></svg>