<svg xmlns="http://www.w3.org/2000/svg" fill="none" viewBox="0 0 24 24" width="1em" height="1em"><circle cx="12" cy="12" r="2" stroke="currentColor" stroke-width="1.5"/><path fill="currentColor" fill-rule="evenodd" d="M7.846 2.167a.75.75 0 0 1 0 1.06 6 6 0 0 0-.62.728.75.75 0 1 1-1.218-.875q.339-.473.778-.913a.75.75 0 0 1 1.06 0m10.677 4.115a5.1 5.1 0 0 0-1.862-.109.75.75 0 0 1-.177-1.49 6.6 6.6 0 0 1 2.406.144.75.75 0 1 1-.367 1.455m-12.63-1.56a.75.75 0 0 1 .545.91 5.1 5.1 0 0 0-.109 1.862.75.75 0 1 1-1.49.178 6.6 6.6 0 0 1 .144-2.406.75.75 0 0 1 .91-.544m9.303.98a.75.75 0 0 1-.384.989 8 8 0 0 0-1.677 1.01.75.75 0 1 1-.926-1.181 9.4 9.4 0 0 1 1.998-1.202.75.75 0 0 1 .99.384m4.833.321a.75.75 0 0 1 1.047-.171q.473.339.912.778a.75.75 0 1 1-1.06 1.06 6 6 0 0 0-.727-.62.75.75 0 0 1-.172-1.047m-8.413 2.013c.33.25.397.72.147 1.05a7 7 0 0 0-.186.26.75.75 0 0 1 .23 1.439 2 2 0 0 0-.645.441.75.75 0 0 1-.996.058.75.75 0 0 1-.705-.954c.21-.746.6-1.477 1.105-2.147a.75.75 0 0 1 1.05-.147m-5.758.924a.75.75 0 0 1 .989.384 8 8 0 0 0 1.01 1.677.75.75 0 0 1-1.181.925 9.4 9.4 0 0 1-1.202-1.998.75.75 0 0 1 .384-.988m7.042.863a.75.75 0 0 1 .925-.518c.747.211 1.478.6 2.148 1.105a.75.75 0 0 1-.904 1.197 6 6 0 0 0-.26-.186.75.75 0 0 1-1.438.23 2 2 0 0 0-.441-.645.75.75 0 0 1-.059-.995.8.8 0 0 1 .029-.188m3.683 2.103a.75.75 0 0 1 1.053.128 9.4 9.4 0 0 1 1.202 1.998.75.75 0 0 1-1.373.604 8 8 0 0 0-1.01-1.677.75.75 0 0 1 .128-1.053m-6.625.023a.75.75 0 0 1 .983.4c.094.224.237.44.44.645a.75.75 0 0 1 .06.995.75.75 0 0 1-.954.706c-.747-.21-1.478-.6-2.148-1.105a.75.75 0 0 1 .903-1.197q.13.098.26.186a.75.75 0 0 1 .456-.63m4.187.767a.75.75 0 0 0-.995.058 2 2 0 0 1-.646.441.75.75 0 0 0 .23 1.439q-.087.13-.186.26a.75.75 0 1 0 1.198.903c.505-.67.894-1.4 1.105-2.147a.75.75 0 0 0-.706-.954m4.493 2.956a.75.75 0 0 1 .834.656c.094.79.059 1.602-.144 2.406a.75.75 0 1 1-1.454-.366c.153-.61.183-1.237.108-1.862a.75.75 0 0 1 .656-.834m-16.315.637a.75.75 0 0 1 1.06 0 6 6 0 0 0 .728.621.75.75 0 0 1-.876 1.218 7.4 7.4 0 0 1-.912-.778.75.75 0 0 1 0-1.06m9.907.118a.75.75 0 0 1-.128 1.053 9.4 9.4 0 0 1-1.998 1.202.75.75 0 1 1-.604-1.373 8 8 0 0 0 1.677-1.01.75.75 0 0 1 1.053.128m-7.352 1.835a.75.75 0 0 1 .91-.544c.61.154 1.237.183 1.862.109a.75.75 0 0 1 .178 1.49 6.6 6.6 0 0 1-2.406-.144.75.75 0 0 1-.544-.91m13.255 1.612a.75.75 0 0 1 .17 1.047 7.4 7.4 0 0 1-.777.912.75.75 0 0 1-1.061-1.06q.356-.359.62-.728a.75.75 0 0 1 1.048-.171" clip-rule="evenodd"/><path fill="currentColor" fill-rule="evenodd" d="M10.726 12.499c.42.491.952.751 1.585.751.151 0 .292.044.41.121A1.98 1.98 0 0 0 13.25 12a.75.75 0 0 1 .268-.575A2 2 0 0 0 12 10.75a.75.75 0 0 1-.392-.11c-.56.432-.858.994-.858 1.672a.8.8 0 0 1-.024.187m-.888-2.146a7.6 7.6 0 0 1-.009-2.248c.396-2.79 2.198-5.355 5.483-5.355a.75.75 0 0 0 0-1.5c-4.316 0-6.513 3.436-6.968 6.645-.228 1.612-.043 3.27.584 4.558.406.836 1.016 1.541 1.825 1.942-.793.183-1.71.22-2.648.087C5.315 14.087 2.75 12.284 2.75 9a.75.75 0 0 0-1.5 0c0 4.316 3.436 6.513 6.645 6.968 1.612.228 3.27.042 4.558-.584.868-.422 1.596-1.065 1.988-1.921.142.741.162 1.578.041 2.432-.395 2.79-2.198 5.355-5.482 5.355a.75.75 0 0 0 0 1.5c4.316 0 6.513-3.436 6.968-6.645.228-1.612.042-3.27-.584-4.558-.346-.712-.84-1.33-1.48-1.745a7.7 7.7 0 0 1 1.99.027c2.792.396 5.356 2.198 5.356 5.483a.75.75 0 0 0 1.5 0c0-4.316-3.436-6.513-6.645-6.968-1.612-.228-3.27-.043-4.558.584-.692.336-1.294.812-1.709 1.425" clip-rule="evenodd"/></svg>